<?xml version="1.0" encoding="utf-8"?>
<svg width="151px" height="52px" viewBox="0 0 151 52" version="1.1" xmlns:xlink="http://www.w3.org/1999/xlink" xmlns="http://www.w3.org/2000/svg">
  <desc>Created with Lunacy</desc>
  <defs>
    <rect width="150.370422" height="51.3793221" id="artboard_1" />
    <clipPath id="clip_1">
      <use xlink:href="#artboard_1" clip-rule="evenodd" />
    </clipPath>
  </defs>
  <g id="accessories/Glasses-5" clip-path="url(#clip_1)">
    <use xlink:href="#artboard_1" stroke="none" fill="#FFFFFF" />
    <path d="M121.529 1.15768C124.649 0.481185 151.333 -2.67939 152.083 5.57481C152.682 6.89988 152.516 13.9895 149.93 11.8889C143.378 16.6835 145.268 25.8812 140.502 31.976C134.181 40.757 113.179 39.7346 110.497 14.4035C107.835 13.3717 105.489 13.7797 103.092 14.1966C102.012 14.3844 100.922 14.5741 99.7873 14.6347C103.476 41.5247 58.4976 52.8393 54.9712 20.0567C54.4579 15.8112 53.1349 16.1872 49.2383 14.9705C48.5367 14.8276 47.7346 14.6917 46.9659 14.4768C45.6871 14.8901 44.9987 14.2996 43.9875 13.4324C41.0177 10.8853 35.2641 5.95065 3.59627 17.0458C3.56212 18.7599 2.32732 19.6066 1.09137 18.7745C-7.05165 7.97177 32.7597 5.05395 41.4804 5.35961C43.1786 4.88603 44.7813 4.61685 46.0993 5.11873C53.0624 -0.317428 86.2777 -3.37785 96.1412 7.29379C102.714 9.30058 108.254 6.76996 113.856 4.21086C116.368 3.06335 118.893 1.91012 121.529 1.15768ZM141.48 4.79636C141.473 4.80506 141.464 4.81243 141.457 4.82114C141.403 4.78966 141.349 4.75751 141.294 4.7267C141.355 4.75081 141.42 4.77157 141.48 4.79636ZM135.019 32.9107C129.262 35.6018 121.23 31.6326 117.36 27.475C115.951 25.9611 114.864 21.63 115.406 18.8831C116.874 11.4439 122.39 6.97908 128.213 5.45446C136.286 3.34046 144.409 8.69582 143.462 15.0155C142.564 21.0049 141.204 29.6928 135.019 32.9107ZM80.6494 35.9261C88.6666 33.8236 95.3745 26.7277 95.836 18.6206C96.0129 15.1819 94.9764 11.7853 92.4408 9.43187C83.7784 6.76462 66.4348 5.10857 59.3064 14.8241C57.4939 17.294 58.1694 20.1735 58.4567 21.1169C61.3483 30.6113 67.7321 39.4244 80.6494 35.9261Z" transform="translate(0.3831628 6.701527)" id="ðŸ–-Ink" fill="#000000" fill-rule="evenodd" stroke="none" />
  </g>
</svg>