<?xml version="1.0" encoding="utf-8"?>
<svg width="151px" height="52px" viewBox="0 0 151 52" version="1.1" xmlns:xlink="http://www.w3.org/1999/xlink" xmlns="http://www.w3.org/2000/svg">
  <desc>Created with Lunacy</desc>
  <defs>
    <rect width="150.370422" height="51.3793221" id="artboard_1" />
    <clipPath id="clip_1">
      <use xlink:href="#artboard_1" clip-rule="evenodd" />
    </clipPath>
  </defs>
  <g id="accessories/Glasses-2" clip-path="url(#clip_1)">
    <use xlink:href="#artboard_1" stroke="none" fill="#FFFFFF" />
    <path d="M144.046 12.6571C145.105 11.796 146.952 11.592 148.231 11.5893C151.149 12.1311 149.941 16.4462 144.381 13.7618C152.736 47.6755 99.2404 49.1219 108.266 16.8833C102.865 15.6223 97.1617 15.5195 92.2037 17.9135C96.4835 32.6943 82.244 46.9048 65.877 43.2558C55.3069 40.8737 48.2526 32.9211 51.5204 21.2319C49.4456 21.8633 45.5563 21.3376 44.3525 19.7661C40.1916 19.4212 36.0549 18.929 31.9232 18.4374C22.6672 17.3362 13.4364 16.2379 4.01528 16.8047C2.73409 16.9769 2.80578 17.8532 2.87741 18.7289C2.94877 19.6012 3.02008 20.4729 1.75397 20.6474C-1.15754 20.3897 -0.0136528 15.6144 2.07082 14.8382C4.99575 12.8035 30.1502 14.8225 44.5378 18.4846C46.4473 17.2689 49.3243 17.6403 51.5913 17.933C51.9563 17.9801 52.3054 18.0252 52.6321 18.0613C55.4661 11.1705 64.549 2.58084 73.6617 4.02952C82.0107 4.50198 89.0252 7.70277 91.8753 16.8434C96.2273 13.012 104.119 11.7748 109.137 14.6721C111.921 8.59818 116.818 4.02952 123.418 1.96951C131.799 -3.79764 141.435 4.11143 144.046 12.6571ZM137.448 32.5618C132.79 37.2325 125.016 38.5728 118.819 36.0679C102.909 29.6161 110.697 9.49249 122.967 4.08836C124.5 3.71753 126.547 2.83775 128.414 2.63819C128.478 2.60781 128.57 2.62212 128.684 2.63982C128.871 2.66898 129.118 2.70734 129.395 2.57043C142.925 4.0366 146.006 24.4215 137.448 32.5618ZM63.2621 39.4303C71.1965 42.5562 80.9076 40.4817 86.1311 33.7574C95.8802 21.3589 86.5254 0.336596 63.8713 8.59861C53.147 15.5944 47.5875 33.439 63.2621 39.4303ZM52.2465 19.0241C52.2197 19.012 52.1929 19.006 52.1653 18.994C52.3178 18.9303 52.4702 18.8667 52.6219 18.8017C52.5725 18.9243 52.5188 19.0455 52.4709 19.1681C52.3961 19.1192 52.3305 19.0623 52.2465 19.0241Z" transform="translate(5.3699 2.978431)" id="ðŸ–-Ink" fill="#000000" fill-rule="evenodd" stroke="none" />
  </g>
</svg>