<?xml version="1.0" encoding="utf-8"?>
<svg width="151px" height="52px" viewBox="0 0 151 52" version="1.1" xmlns:xlink="http://www.w3.org/1999/xlink" xmlns="http://www.w3.org/2000/svg">
  <desc>Created with Lunacy</desc>
  <defs>
    <rect width="150.370422" height="51.3793221" id="artboard_1" />
    <clipPath id="clip_1">
      <use xlink:href="#artboard_1" clip-rule="evenodd" />
    </clipPath>
  </defs>
  <g id="accessories/Sunglasses-2" clip-path="url(#clip_1)">
    <use xlink:href="#artboard_1" stroke="none" fill="#FFFFFF" />
    <path d="M157.069 1.43147C157.385 1.47652 157.702 1.52455 158.017 1.57556C160.448 1.96612 160.822 5.67399 158.706 6.68929C157.077 7.47115 156.054 9.02817 156.49 10.8264C156.807 12.131 156.228 13.1687 155.314 13.7041C155.032 22.1176 153.607 31.5439 146.864 37.7008C131.344 47.6695 115.97 35.5142 119.186 16.2939C118.956 16.1371 118.753 15.9379 118.604 15.6881C118.498 15.5206 118.406 15.353 118.321 15.1859C117.981 14.9167 115.475 14.0377 112.218 14.4755C108.962 14.9137 107.927 16.3873 106.281 17.9831C106.026 18.4641 105.591 18.8275 104.906 18.9768C103.611 26.0541 102.28 33.9058 96.6941 39.2061C82.7046 51.8942 58.5606 41.3584 59.4536 22.0569C54.5923 21.2516 58.6454 15.7146 50.9546 14.4755C49.5667 14.0242 48.2537 13.162 47.3883 12.1731C35.8857 10.9735 24.5627 11.5111 13.441 15.3892C12.7605 15.6655 12.049 15.9173 11.3408 16.168C7.39679 17.5639 3.55369 18.9241 5.73415 24.2785C5.65091 26.0541 3.41338 27.1103 2.09495 25.7987L2.0938 25.7998C2.09188 25.7976 2.09073 25.795 2.0892 25.7927C-5.39598 12.7483 8.8145 10.5655 19.7342 8.88821C19.9748 8.85126 20.2138 8.81455 20.4509 8.77797C26.3249 7.54896 32.3355 7.02959 38.3392 7.1517C39.0349 7.18063 39.7801 7.1915 40.545 7.20266C42.8717 7.23661 45.3803 7.27322 47.2291 7.82857C47.2391 7.83155 47.2487 7.83378 47.2583 7.83639C49.8149 0.315648 102.975 -1.44502 106.05 11.0294C107.48 10.9938 108.782 11.0975 110.021 11.1963C112.284 11.3765 114.339 11.5403 116.591 10.8108C117.636 1.74571 142.956 -1.64868 153.901 0.741948C154.663 0.810826 155.427 0.938529 156.196 1.12804C156.533 1.19096 156.823 1.29558 157.069 1.43147ZM145.652 9.44294C146.046 8.78683 147.074 8.44214 147.753 8.90646C149.303 9.96595 150.428 11.5417 150.503 13.4278C150.58 15.3557 147.509 15.346 147.432 13.4278L147.426 13.3361C147.354 12.6031 146.786 11.8877 146.203 11.4886L146.138 11.4425C145.502 10.9699 145.218 10.1654 145.652 9.44294ZM91.3297 10.6937C89.4033 10.2825 88.5806 13.1652 90.5131 13.5776C91.8816 13.8696 93.0415 14.5394 93.8251 15.6741L93.9076 15.7975C94.9591 17.4215 97.618 15.9224 96.5592 14.2879C95.3679 12.4485 93.5168 11.1603 91.3297 10.6937Z" transform="translate(-4.986736 3.350821)" id="ðŸ–-Ink" fill="#000000" fill-rule="evenodd" stroke="none" />
  </g>
</svg>