<?xml version="1.0" encoding="utf-8"?>
<svg width="151px" height="52px" viewBox="0 0 151 52" version="1.1" xmlns:xlink="http://www.w3.org/1999/xlink" xmlns="http://www.w3.org/2000/svg">
  <desc>Created with Lunacy</desc>
  <defs>
    <rect width="150.370422" height="51.3793221" id="artboard_1" />
    <clipPath id="clip_1">
      <use xlink:href="#artboard_1" clip-rule="evenodd" />
    </clipPath>
  </defs>
  <g id="accessories/Sunglasses" clip-path="url(#clip_1)">
    <use xlink:href="#artboard_1" stroke="none" fill="#FFFFFF" />
    <path d="M145.608 2.0257C143.725 1.8793 138.587 0 129.583 0C123.709 0 115.555 1.74588 110.334 4.05964L110.025 4.19572C107.65 5.23594 105.174 6.1979 102.599 6.62425C99.4352 7.15138 96.2949 6.47882 93.2391 5.70121L92.6585 5.55468C89.7566 4.82943 86.8726 4.21808 83.9718 3.84692C82.3517 3.48017 80.7201 3.19978 79.0732 2.98295C75.1651 2.4633 71.2225 2.29918 67.2914 2.66181C63.4793 3.01697 59.7243 3.67831 56.1119 4.92697C55.7253 5.06155 55.3275 5.20437 54.926 5.35204C52.9554 5.90533 50.4609 6.73192 48.6777 7.966C46.5236 8.19404 43.9457 7.99665 42.5046 9.43896C40.1753 9.8676 7.81318 9.60672 7.81318 9.60672C5.80778 9.99025 1.29148 11.2015 0.312555 13.2152C-0.336234 14.5536 0.0515037 15.735 1.23007 16.6214C2.93044 17.8961 6.95784 16.2509 6.95784 16.2509C9.053 16.2509 35.3017 15.4893 39.6779 14.591C40.2265 14.5529 40.777 14.5136 41.3283 14.4725C41.3805 15.2321 41.5936 15.9772 42.0078 16.6434C42.9527 18.1695 44.4397 18.5782 46.0512 18.8718L46.8023 19.0028C50.3338 19.6137 51.2244 23.3032 52.3421 26.1467L52.4345 26.3785C53.9816 30.2033 60.6948 39.1518 72.3089 40.1137C78.0298 40.5878 84.2631 39.329 88.8511 35.9004C90.1142 34.9583 91.1545 33.8704 91.9952 32.6517C94.4791 30.2332 95.6461 26.977 96.3717 23.5675C96.8631 21.2567 97.1817 18.8944 97.3199 16.5391L97.3706 15.5963C98.1065 14.9503 98.9035 14.5424 99.7473 14.2953C100.52 14.142 101.291 14.0295 102.07 13.945C102.868 13.9106 103.689 13.9364 104.522 13.9652C106.266 14.025 107.958 14.1532 109.418 14.831L109.377 15.1734C109.097 17.6584 109.337 20.2031 109.85 22.6478C110.933 27.7767 114.269 32.0984 118.761 34.9101C121.986 36.9274 125.755 38.086 129.568 38.2239C131.803 38.7208 134.297 38.5335 136.401 38.0628C140.592 37.1255 147.965 34.5576 148.997 19.3408C149.575 16.8463 149.521 14.0679 149.469 11.4017C149.446 10.21 149.423 9.04078 149.457 7.92936C151.039 6.19058 150.597 3.43157 147.887 2.41844C147.15 2.14179 146.447 2.07823 145.664 2.02963L145.608 2.0257ZM137.979 7.20906C138.373 6.55295 139.401 6.20826 140.08 6.67258C141.631 7.73207 142.756 9.30785 142.831 11.1939C142.907 13.1219 139.836 13.1121 139.76 11.1939L139.753 11.1022C139.682 10.3692 139.114 9.65385 138.53 9.25476L138.465 9.20862C137.829 8.73597 137.545 7.93155 137.979 7.20906ZM83.6571 8.45982C81.7307 8.04858 80.908 10.9313 82.8405 11.3437C84.209 11.6357 85.3688 12.3055 86.1524 13.4403L86.235 13.5636C87.2865 15.1876 89.9453 13.6885 88.8865 12.054C87.6953 10.2147 85.8441 8.92638 83.6571 8.45982Z" transform="translate(0 5.584472)" id="ðŸ–-Ink" fill="#000000" fill-rule="evenodd" stroke="none" />
  </g>
</svg>