<?xml version="1.0" encoding="utf-8"?>
<svg width="151px" height="52px" viewBox="0 0 151 52" version="1.1" xmlns:xlink="http://www.w3.org/1999/xlink" xmlns="http://www.w3.org/2000/svg">
  <desc>Created with Lunacy</desc>
  <defs>
    <rect width="150.370422" height="51.3793221" id="artboard_1" />
    <clipPath id="clip_1">
      <use xlink:href="#artboard_1" clip-rule="evenodd" />
    </clipPath>
  </defs>
  <g id="accessories/Glasses" clip-path="url(#clip_1)">
    <use xlink:href="#artboard_1" stroke="none" fill="#FFFFFF" />
    <path d="M153.532 8.36654C155.954 7.25332 158.737 7.31996 161.342 7.65058C166.615 10.0252 155.304 12.7759 153.957 10.2493C155.281 19.7221 151.496 35.3288 140.674 40.2593C128.171 46.1929 114.609 37.1676 115.101 22.7032C112.42 22.0714 114.283 14.786 115.363 11.8265C110.648 11.1146 106.156 10.695 101.613 12.0927C104.116 18.9455 95.2039 39.5724 86.637 43.6816C79.9958 48.1338 65.0182 46.1486 59.0525 39.2288C54.7945 33.9441 52.6679 21.6794 55.0239 13.1571C55.0032 13.1482 54.9817 13.1415 54.9614 13.1314C54.8206 14.4717 45.2859 14.3224 45.7623 12.0271C32.0667 12.2658 18.8065 14.3046 5.24978 15.7417C3.61262 15.8895 3.53244 17.0161 3.45408 18.1171C3.38698 19.0599 3.32122 19.9839 2.27996 20.2582C-1.73477 20.3513 0.0869339 13.5387 3.62371 12.9065C7.00102 12.5641 10.4017 12.1191 13.8138 11.6726C24.597 10.2615 35.4932 8.83572 46.1206 10.5844C47.6089 8.7491 50.2898 9.40181 52.4742 9.93366C53.0891 10.0834 53.6646 10.2235 54.1631 10.2959C55.9676 -0.0406822 85.0033 0.574008 94.6247 4.76775C104.896 3.62065 115.581 2.96426 125.767 2.13177C132.216 0.124253 139.725 -0.911524 146.436 1.0461C147.365 0.996431 147.47 1.14006 147.677 1.4233C147.714 1.47337 147.753 1.52782 147.801 1.58633C150.445 2.71816 152.786 5.29011 153.532 8.36654ZM150.023 19.8381C146.366 43.8483 120.836 46.5036 116.3 22.6673C117.028 22.3579 117.551 21.7488 117.442 20.5664C117.416 15.3718 119.078 9.88171 123.906 6.99292C128.895 4.01218 134.734 3.71656 140.507 3.79177C151.525 3.53711 151.293 12.4752 150.023 19.8381ZM101.372 11.4173C104.469 9.37251 108.844 9.25411 112.301 9.39559C113.492 9.46335 115.102 9.409 116.226 9.99092C117.438 7.68816 119.302 5.69628 121.306 4.37047C120.14 4.45633 118.97 4.54564 117.797 4.63513C110.556 5.18787 103.223 5.74753 96.0717 5.54438C98.3074 6.81508 100.52 9.19156 101.372 11.4173ZM97.0599 22.3835C87.4719 54.4159 63.5388 40.4542 60.9296 36.349C56.2232 29.5558 55.3379 13.0422 59.4374 8.62692C64.2406 5.35886 70.6781 5.45418 76.6581 5.54273C77.984 5.56237 79.2875 5.58167 80.5456 5.5639C93.2815 5.73069 102.327 9.42851 97.0599 22.3835Z" transform="translate(-0.7672623 3.722867)" id="ðŸ–-Ink" fill="#000000" fill-rule="evenodd" stroke="none" />
  </g>
</svg>