<?xml version="1.0" encoding="utf-8"?>
<svg width="151px" height="52px" viewBox="0 0 151 52" version="1.1" xmlns:xlink="http://www.w3.org/1999/xlink" xmlns="http://www.w3.org/2000/svg">
  <desc>Created with Lunacy</desc>
  <defs>
    <rect width="150.370422" height="51.3793221" id="artboard_1" />
    <clipPath id="clip_1">
      <use xlink:href="#artboard_1" clip-rule="evenodd" />
    </clipPath>
  </defs>
  <g id="accessories/Glasses-3" clip-path="url(#clip_1)">
    <use xlink:href="#artboard_1" stroke="none" fill="#FFFFFF" />
    <path d="M157.069 1.43147C157.385 1.47652 157.702 1.52455 158.017 1.57556C160.448 1.96612 160.822 5.67399 158.706 6.68929C157.077 7.47115 156.054 9.02817 156.49 10.8264C156.807 12.131 156.228 13.1687 155.314 13.7041C155.032 22.1176 153.607 31.5439 146.864 37.7008C131.344 47.6695 115.97 35.5142 119.186 16.2939C118.956 16.1371 118.753 15.9379 118.604 15.6881C118.498 15.5206 118.406 15.353 118.321 15.1859C117.981 14.9167 115.475 14.0377 112.218 14.4755C108.962 14.9137 107.927 16.3873 106.281 17.9831C106.026 18.4641 105.591 18.8275 104.906 18.9768C103.611 26.0541 102.28 33.9058 96.6941 39.2061C82.7046 51.8942 58.5606 41.3584 59.4536 22.0569C54.5923 21.2516 58.6454 15.7146 50.9546 14.4755C49.5667 14.0242 48.2537 13.162 47.3883 12.1731C35.8857 10.9735 24.5627 11.5111 13.441 15.3892C12.7605 15.6655 12.049 15.9173 11.3408 16.168C7.39679 17.5639 3.55369 18.9241 5.73415 24.2785C5.65091 26.0541 3.41338 27.1103 2.09495 25.7987L2.0938 25.7998C2.09188 25.7976 2.09073 25.795 2.0892 25.7927C-5.39598 12.7483 8.8145 10.5655 19.7342 8.88821C19.9748 8.85126 20.2138 8.81455 20.4509 8.77797C26.3249 7.54896 32.3355 7.02959 38.3392 7.1517C39.0349 7.18063 39.7801 7.1915 40.545 7.20266C42.8717 7.23661 45.3803 7.27322 47.2291 7.82857C47.2391 7.83155 47.2487 7.83378 47.2583 7.83639C49.8149 0.315648 102.975 -1.44502 106.05 11.0294C107.48 10.9938 108.782 11.0975 110.021 11.1963C112.284 11.3765 114.339 11.5403 116.591 10.8108C117.636 1.74571 142.956 -1.64868 153.901 0.741948C154.663 0.810826 155.427 0.938529 156.196 1.12804C156.533 1.19096 156.823 1.29558 157.069 1.43147ZM134.032 37.3243C138.448 37.6948 143.236 36.6221 145.819 33.2545C150.21 27.4301 151.396 19.9127 151.466 12.9943C150.326 11.8897 149.807 10.6487 149.33 9.51004C148.385 7.2507 147.608 5.39476 142.49 5.80867C128.673 6.66821 126.374 11.9304 124.93 15.2366C124.092 17.1547 123.542 18.4144 121.197 17.7741C121.509 25.9348 124.507 36.4345 134.032 37.3243ZM100.449 25.3052C94.8258 50.8657 64.0313 44.7858 60.7964 21.7448C63.7835 19.6985 62.9967 14.6459 66.7076 12.8152C72.4947 9.22647 79.7057 9.31999 86.2982 9.40549C86.4056 9.40689 86.5128 9.40828 86.6198 9.40965C95.1568 9.97892 97.5896 13.4113 101.975 17.156C101.764 19.6572 101.156 22.6216 100.449 25.3052Z" transform="translate(-4.986736 3.350821)" id="ðŸ–-Ink" fill="#000000" fill-rule="evenodd" stroke="none" />
  </g>
</svg>