<?xml version="1.0" encoding="utf-8"?>
<svg width="151px" height="52px" viewBox="0 0 151 52" version="1.1" xmlns:xlink="http://www.w3.org/1999/xlink" xmlns="http://www.w3.org/2000/svg">
  <desc>Created with Lunacy</desc>
  <defs>
    <rect width="150.370422" height="51.3793221" id="artboard_1" />
    <clipPath id="clip_1">
      <use xlink:href="#artboard_1" clip-rule="evenodd" />
    </clipPath>
  </defs>
  <g id="accessories/Glasses-4" clip-path="url(#clip_1)">
    <use xlink:href="#artboard_1" stroke="none" fill="#FFFFFF" />
    <path d="M120.459 34.7974C127.796 39.9427 141.581 35.2029 145.103 30.9329C148.222 27.1499 150.113 21.9765 149.87 15.547C149.84 14.4355 150.18 13.6332 150.719 12.9879C151.322 12.2661 153.02 10.947 154.017 10.4323C155.271 9.78545 153.662 0.303972 153.555 0.292823C140.806 -1.04046 128.219 2.34844 116.414 7.02622C109.994 9.37614 94.836 6.12623 90.3841 5.17172C89.8842 5.06455 89.5193 4.98631 89.3169 4.94819C75.3233 2.63833 60.2752 1.17875 47.197 6.67444C47.0924 6.71838 45.6124 7.07134 45.1783 7.02622C36.5458 6.12901 21.6449 6.36677 11.6208 10.4323C3.51474 13.7199 -0.0494604 20.6291 0.00202423 23.6817C0.062561 24.3301 3.48033 22.2451 5.45513 21.0404C5.85389 20.7972 6.19381 20.5898 6.43538 20.4481C17.0606 12.8897 32.1484 14.2592 44.078 16.4076C44.7399 16.5268 50.7826 17.2446 51.8775 18.0504C53.0326 18.9004 54.3511 22.9399 54.3511 22.9399C55.6474 32.0466 61.3479 38.6641 68.5542 41.7583C72.3161 43.3736 85.0492 42.8521 92.0876 39.1902C96.0614 36.5332 98.2151 32.5841 100.402 28.6591C102.341 25.179 104.298 21.7077 107.321 18.9823C107.861 18.4956 109.138 18.9516 109.242 19.6371C110.223 26.0664 113.122 29.6521 120.459 34.7974ZM144.665 17.0375C144.41 20.7671 142.732 24.5313 140.209 27.4248C137.803 30.1845 134.636 32.1409 131.231 32.5909C128.224 32.9882 125.012 32.2351 121.935 29.7748C119.619 27.9165 117.719 25.4809 116.612 22.7979C115.592 20.3279 115.243 17.6505 115.832 15.0121L115.835 14.7015C116.205 13.8302 116.631 13.4241 117.089 13.1909C119.035 11.1586 124.871 8.01185 130.513 6.60377C134.877 5.51482 139.024 5.54722 141.372 7.5027C143.961 10.2812 144.897 13.6433 144.665 17.0375ZM96.562 25.1956C98.059 23.0939 98.5314 18.3726 97.9046 14.9283C97.5873 13.1843 96.9711 11.7961 96.1979 11.1051C95.6839 10.6458 95.0975 10.4295 94.4579 10.4616C94.1072 10.4792 93.7273 10.576 93.3253 10.7865C87.8808 7.92805 81.285 6.89885 75.0329 7.19484C70.0558 7.19394 66.5047 8.33416 64.0966 10.1091C61.199 12.2447 59.8936 15.3149 59.818 18.6445C59.7284 22.5953 61.4006 26.9176 64.1436 30.3376C66.7691 33.6111 70.3606 36.0379 74.2569 36.5978C78.6801 37.45 83.1875 36.6255 87.1064 34.6087C91.1259 32.5403 94.5211 29.2183 96.562 25.1956Z" transform="translate(-3.069049 4.094912)" id="ðŸŽ¨-Background" fill="#FFFFFF" fill-rule="evenodd" stroke="none" />
    <path d="M154.829 0.298666C141.892 -1.05432 129.113 2.36017 117.158 7.09749C110.245 9.62812 103.503 7.98288 96.7515 6.33525C94.7241 5.84052 92.6959 5.34556 90.6619 4.96339C76.4435 2.61669 61.4828 1.84451 48.2034 7.42476C48.0016 7.07366 47.4028 7.03867 47.1224 7.32051C32.4391 5.79439 -0.347064 7.07366 0.00277774 24.8565C0.152381 26.6403 1.51262 29.2178 3.72061 28.8015C5.73603 27.2978 5.84804 23.8367 8.23326 22.4904C19.1998 14.6604 35.055 16.7064 46.9616 18.9833L47.6855 19.1229C52.2681 19.1035 53.379 20.0757 54.3082 23.9964L54.3686 24.2563C57.1366 43.4677 78.6879 52.0179 93.8911 41.2264C101.428 36.1871 102.775 26.7583 109.173 20.964L109.255 20.917C113.701 50.0685 153.248 45.1915 152.171 16.6339C152.121 14.7887 153.438 14.1093 154.919 13.3453C157.525 12.0005 160.64 10.3936 157.701 1.7049C157.227 0.236489 155.899 -0.0963593 154.829 0.298666ZM153.638 3.58175C146.465 3.23364 139.829 3.61451 132.788 5.28807C129.077 6.15705 126.229 7.25574 122.677 8.57709C112.192 13.0857 106.097 11.6681 97.3208 9.62709C87.5524 7.35525 74.4629 4.31104 48.3019 7.80789C48.9445 10.4789 49.0626 13.1234 49.0971 15.6328C56.0422 15.3612 57.1107 19.6838 58.3151 24.5557C58.8692 26.7972 59.452 29.155 60.6491 31.235L60.7662 31.4342C66.303 41.0652 79.3684 45.5575 89.9077 39.1694C98.7006 34.1953 99.5583 21.5794 108.313 16.5725C112.89 16.3978 113.604 19.9457 114.356 23.6855C114.85 26.1454 115.362 28.6883 117 30.3094C122.813 37.838 135.169 38.8905 142.458 31.8091C145.878 28.4017 147.696 24.0754 147.796 19.4274C147.834 18.8315 147.844 18.2336 147.853 17.6417C147.89 15.2841 147.926 13.0211 149.775 11.3516C151.397 9.75285 154.277 10.2864 154.608 7.86969C154.818 6.44075 154.206 4.89081 153.638 3.58175ZM143.59 7.42384C137.551 2.34585 120.226 10.259 116.826 14.1657C116.443 14.3169 116.117 14.611 115.937 15.0715C115.835 15.187 115.817 15.1659 115.814 15.2584L115.812 15.5139C114.408 21.6068 117.616 27.8989 122.492 31.848C137.133 43.6626 154.612 19.4127 143.59 7.42384ZM96.4602 11.7263C90.3415 8.33419 82.8015 7.13311 75.6754 7.47377C49.2685 7.44808 59.822 36.4003 74.9688 38.5307C84.678 40.4087 94.7617 34.7536 99.0929 26.1524C102.099 22.131 100.989 8.22808 96.4602 11.7263ZM38.989 9.00701C42.7256 8.82351 45.6164 8.68154 46.8643 8.27138C46.4997 9.94747 46.2992 11.6558 46.1091 13.4819L45.9321 15.2035C37.3614 13.5396 28.7163 12.6241 20.0235 14.2053C13.6328 15.3677 6.52397 17.5096 3.09153 22.907C5.58077 10.6477 26.7912 9.60605 38.989 9.00701ZM143.438 21.4324C146.958 2.90308 133.214 8.59015 120.912 13.6806C120.223 13.9659 119.538 14.2492 118.861 14.5264C119.546 15.1336 119.543 15.9628 119.346 16.6441C118 31.1629 136.182 39.3902 143.438 21.4324ZM96.025 12.6586L95.6374 12.6036C94.7508 12.4723 93.6579 12.2766 92.4136 12.0538C84.4452 10.6267 70.2683 8.08783 64.3057 14.2361C57.6153 26.0269 74.5884 45.8318 92.2512 30.0568C97.167 25.1993 99.0723 19.3089 96.025 12.6586Z" transform="translate(-4.219475 2.978431)" id="ðŸ–-Ink" fill="#000000" fill-rule="evenodd" stroke="none" />
  </g>
</svg>