<?xml version="1.0" encoding="utf-8"?>
<svg width="151px" height="52px" viewBox="0 0 151 52" version="1.1" xmlns:xlink="http://www.w3.org/1999/xlink" xmlns="http://www.w3.org/2000/svg">
  <desc>Created with Lunacy</desc>
  <defs>
    <rect width="150.370422" height="51.3793221" id="artboard_1" />
    <clipPath id="clip_1">
      <use xlink:href="#artboard_1" clip-rule="evenodd" />
    </clipPath>
  </defs>
  <g id="accessories/Eyepatch" clip-path="url(#clip_1)">
    <use xlink:href="#artboard_1" stroke="none" fill="#FFFFFF" />
    <path d="M117.149 0.144062C119.367 -0.593492 121.135 1.64449 120.709 3.59504C120.207 5.89222 117.736 7.73592 116.098 9.35511C114.38 11.0603 112.627 12.732 110.809 14.3404C107.337 17.4161 103.739 20.3123 99.945 23.0116L98.785 23.8366C95.3072 26.3062 91.84 28.7184 88.1149 30.8562C86.0971 32.0104 84.0602 33.1274 81.9965 34.2033C81.2603 34.5868 80.3623 35.1784 79.4382 35.6181C82.8174 38.1499 85.4182 42.0145 85.982 45.6148C87.3783 54.5578 81.4403 62.8455 73.0621 66.1404C68.8851 67.7823 64.2359 68.2589 59.7708 67.7637C55.229 67.2607 50.6258 65.9576 47.6759 62.3466C45.056 59.1409 44.1123 55.0496 43.9244 51.0319C43.8361 49.1257 43.8553 47.2489 44.2696 45.5626C42.4629 45.5775 40.6561 45.5701 38.8647 45.5887C34.438 45.6297 30.0032 45.6487 25.573 45.5291C21.0044 45.4026 16.4587 45.2052 11.9054 44.8109C9.90689 44.6356 7.91985 44.3489 5.93243 44.0734C4.00331 43.8091 1.87434 43.7085 0.0714319 42.9416C-0.0513195 42.8932 -0.00043371 42.7219 0.105956 42.688C2.02778 42.0852 4.21045 42.1928 6.21284 42.0741L8.16447 41.9592C9.79001 41.8649 11.4144 41.7782 13.0447 41.7274C16.8107 41.6072 20.5737 41.5777 24.339 41.515L25.9528 41.4858C30.3834 41.4002 34.8139 41.3518 39.2445 41.214C41.0819 41.1582 42.9232 41.0539 44.7683 40.9571C44.9831 40.4839 45.298 40.052 45.6007 39.6317C46.506 38.3733 47.6568 37.2638 48.8498 36.2585C51.2929 34.1881 54.0437 32.6508 57.1125 31.6195C60.1535 30.601 64.6013 30.0957 67.8185 30.1614C71.0358 30.2272 75.6208 30.6676 77.0941 33.2204C77.2475 33.4848 80.0516 32.9747 80.884 32.3563C82.8289 30.9158 84.7392 29.434 86.6146 27.915C90.0981 25.0891 93.6805 22.3079 96.9798 19.2847C100.382 16.1647 103.758 12.9926 106.996 9.71626C108.622 8.07435 110.245 6.42872 111.821 4.74586C113.432 3.0295 114.817 0.914752 117.149 0.144062Z" transform="translate(11.50893 -22.33892)" id="ðŸ–-Ink" fill="#000000" stroke="none" />
  </g>
</svg>