<?xml version="1.0" encoding="utf-8"?>
<svg width="151px" height="52px" viewBox="0 0 151 52" version="1.1" xmlns:xlink="http://www.w3.org/1999/xlink" xmlns="http://www.w3.org/2000/svg">
  <desc>Created with Lunacy</desc>
  <defs>
    <rect width="150.370422" height="51.3793221" id="artboard_1" />
    <clipPath id="clip_1">
      <use xlink:href="#artboard_1" clip-rule="evenodd" />
    </clipPath>
  </defs>
  <g id="accessories/Glasses-5_2" clip-path="url(#clip_1)">
    <use xlink:href="#artboard_1" stroke="none" fill="#FFFFFF" />
    <path d="M136.212 23.6166C135.127 26.4819 133.476 29.4649 131.458 31.8764C123.289 38.59 115.352 34.8728 111.322 25.7738C109.791 19.3436 113.857 12.417 118.165 7.68679C124.387 1.63408 134.541 4.81066 137.402 12.006C137.576 12.9383 137.681 13.8683 137.731 14.7954C137.671 17.8078 137.297 20.3823 136.212 23.2443M57.6969 17.8377C68.4576 5.4147 88.5888 4.75049 88.0752 23.8707C85.7636 48.0726 46.8395 42.1323 57.6969 17.8377ZM139.596 7.47453C139.219 6.85463 138.801 6.25483 138.344 5.6811C138.175 5.58355 138.078 4.71829 137.457 4.65425C129.161 -4.22878 114.587 0.811231 109.321 9.66262C108.359 10.7818 107.575 12.092 106.997 13.4762C101.808 12.5525 95.759 12.732 90.9334 14.6341C86.1484 2.50712 71.6618 1.42443 62.1152 6.60592C56.1775 9.44035 52.3273 15.3761 46.5526 18.6369C32.9775 19.5852 18.408 16.6331 5.07799 19.9381C-5.4349 22.0596 3.35333 27.2262 5.11635 23.7782C17.6842 20.1742 32.5735 23.2197 45.6224 22.4077C46.9792 24.6352 49.5811 26.4581 52.1742 26.3803C54.9749 50.4768 91.1804 46.4811 92.4294 25.0608C93.846 22.8868 95.6079 20.8063 98.1297 19.4519C99.0952 19.2579 100.028 19.0058 100.88 18.6157C102.337 18.4161 104.582 19.0155 105.922 20.1928C110.513 46.9309 136.964 43.8168 141.691 20.3931C141.785 20.3 142.048 19.9508 142.25 19.3904C143.868 17.314 147.829 16.5422 147.196 13.0369C146.633 9.53082 142.071 9.57252 139.596 7.47453Z" transform="translate(4.603575 4.095486)" id="ðŸ–-Ink" fill="#000000" stroke="none" />
  </g>
</svg>
