<?xml version="1.0" encoding="utf-8"?>
<svg width="314px" height="273px" viewBox="0 0 314 273" version="1.1" xmlns:xlink="http://www.w3.org/1999/xlink" xmlns="http://www.w3.org/2000/svg">
  <desc>Created with Lunacy</desc>
  <defs>
    <rect width="313.783173" height="272.9061" id="artboard_1" />
    <clipPath id="clip_1">
      <use xlink:href="#artboard_1" clip-rule="evenodd" />
    </clipPath>
  </defs>
  <g id="body/Striped-Tee" clip-path="url(#clip_1)">
    <use xlink:href="#artboard_1" stroke="none" fill="#FFFFFF" />
    <path d="M1.71409 229.891C0.565599 240.11 -2.03596 251.366 2.92319 261.007C-0.200063 261.143 2.3336 262.02 4.01913 262.321C4.98158 263.044 6.27507 263.331 7.49146 263.23C13.807 264.526 20.3267 264.995 26.7393 265.728C106.803 272.183 187.404 270.469 267.617 267.688C270.226 267.578 271.976 265.738 272.176 263.261C275.116 226.803 276.579 190.233 276.504 153.664C275.198 140.813 285.206 145.827 279.867 128.893C275.575 111.031 269.223 93.6453 261.123 77.0789C255.524 66.2985 250.249 54.9552 241.715 46.0156C239.018 45.6541 236.722 43.0542 234.443 41.6022C232.135 41.1658 230.424 39.2637 228.085 38.6788C223.627 37.5533 213.652 35.1597 209.855 38.0384C209.705 37.9986 209.553 37.9647 209.403 37.9234C208.66 38.7231 207.639 38.1233 207.085 37.4047C205.188 35.9754 196.897 35.8284 195.956 33.6348C191.051 29.3159 189.738 20.2265 189.738 14.9088C187.904 12.9084 187.777 13.2799 185.287 12.2225C182.846 9.23396 179.897 6.63074 176.605 4.57855C158.081 -7.22678 131.199 5.21297 126.863 25.7323C120.007 31.0005 112.951 36.3522 104.554 39.0973C100.457 37.0514 95.7888 36.3984 91.44 36.3943C88.1982 36.28 83.7185 34.4605 81.6118 37.7718C46.1685 49.0332 24.7775 81.786 9.56711 112.819C7.43507 117.238 4.88453 121.864 5.53703 126.899C5.98546 132.927 12.7268 136.516 11.4529 142.905C9.60125 160.481 7.49491 178.038 5.56733 195.608C4.28266 207.036 2.99838 218.464 1.71409 229.891Z" transform="translate(16.49473 -9.307839)" id="âœ‹-Skin" fill="#D08B5B" stroke="none" />
    <path d="M76.1787 1.97854C78.2854 -1.33282 82.7651 0.486677 86.0068 0.600977C90.3557 0.605072 95.0237 1.25811 99.1213 3.30398C99.2887 3.24925 99.4556 3.19348 99.6219 3.1367L99.8649 3.65991L82.0251 6.09938L91.0214 21.9352C112.205 41.1706 135.754 49.7195 161.667 47.5821C187.32 45.466 204.951 32.1698 214.558 7.69362L214.846 6.9485L202.644 3.65991L202.643 2.4041C203.089 2.58558 203.57 2.56106 203.97 2.13007C204.12 2.1714 204.272 2.20528 204.422 2.24512C208.218 -0.633616 218.194 1.75999 222.652 2.88549C224.991 3.4704 226.702 5.37255 229.01 5.8089C231.289 7.26093 233.585 9.86079 236.282 10.2223C244.816 19.1619 250.091 30.5052 255.69 41.2856C263.79 57.852 270.142 75.238 274.434 93.0997C277.851 103.938 274.982 105.785 272.815 109.08L272.637 109.106C269.701 109.549 266.966 110.174 264.434 110.981C259.027 112.704 253.704 114.881 248.464 117.514L247.86 117.819L254.489 232.158L250.35 232.296C182.736 234.536 114.88 235.771 47.3331 231.754L53.6511 122.944L1.08652 94.6293C0.569787 93.5299 0.198068 92.3714 0.103894 91.1053C-0.548607 86.0712 2.00194 81.4448 4.13397 77.0262C19.3444 45.9927 40.7354 13.2399 76.1787 1.97854Z" transform="translate(21.92834 26.48545)" id="ðŸ‘•-Top" fill="#78E185" stroke="none" />
    <path d="M247.66 36.9123C261.3 47.6699 268.879 63.9397 274.758 79.6022C281.477 97.503 287.399 115.797 291.656 134.406C292.199 136.782 290.546 139.027 287.981 139.089C285.332 139.153 282.708 139.369 280.104 139.742C280.636 143.056 280.802 146.46 281.103 149.773C281.505 154.192 281.896 158.613 282.176 163.042C283.198 179.24 283.252 195.486 282.936 211.708C282.777 219.817 282.505 227.922 282.112 236.023C281.916 240.074 281.694 244.123 281.447 248.171C281.396 249.008 281.379 249.897 281.361 250.809C281.3 254.005 281.234 257.493 279.674 260.101C278.387 262.252 275.664 261.346 275.045 259.456C275.017 259.472 274.989 259.487 274.96 259.503C274.203 257.632 274.387 255.587 274.565 253.605C274.596 253.263 274.627 252.923 274.652 252.586C274.83 250.256 274.999 247.926 275.159 245.595C275.463 241.179 275.737 236.761 275.981 232.341C276.868 216.257 277.389 200.161 277.706 184.057C277.864 176.069 277.935 168.08 278.134 160.092C278.236 156.038 278.366 151.985 278.444 147.93C278.494 145.292 278.453 142.621 278.614 139.974C277.279 140.197 275.948 140.458 274.622 140.771C272.383 141.298 270.173 141.942 267.999 142.685C267.361 142.903 266.71 143.178 266.05 143.458C264.483 144.121 262.864 144.805 261.244 144.798C260.523 144.795 259.912 144.601 259.412 144.287C261.174 161.209 262.33 178.194 263.562 195.156C264.905 213.622 266.599 232.121 267.382 250.619C267.395 252.664 265.594 254.389 263.498 254.389C261.267 254.389 259.798 252.647 259.614 250.619C259.517 249.549 259.426 248.477 259.337 247.406C256.887 248.809 253.965 248.815 251.111 248.821C250.385 248.822 249.663 248.824 248.955 248.848C245.265 248.976 241.575 249.1 237.885 249.222C230.759 249.457 223.634 249.682 216.507 249.897C190.803 250.671 165.093 251.37 139.379 251.773C138.701 251.784 138.023 251.794 137.344 251.805C125.166 251.996 112.988 252.188 100.808 252.188C94.3104 252.188 87.8253 252.129 81.3298 251.967C78.1444 251.888 74.9529 251.711 71.7813 251.411C69.1848 251.165 66.6181 250.716 64.0326 250.391C64.0023 250.96 63.9743 251.529 63.9429 252.099C63.8067 254.562 63.8094 257.47 62.1166 259.477C60.8507 260.978 59.0359 261.492 57.3496 260.401C54.9625 258.855 54.8992 255.717 54.9721 253.214C55.0373 250.983 55.1972 248.75 55.3123 246.521C55.5494 241.935 55.7864 237.35 56.0231 232.763C56.9902 214.039 58.2296 195.323 59.51 176.617C60.1261 167.618 60.7767 158.626 61.2447 149.618C61.4349 145.946 61.5688 142.257 61.5274 138.577C58.5134 138.554 55.501 138.497 52.4925 138.39C54.7569 139.413 57.0093 140.506 58.7056 142.264C60.0045 143.609 59.2066 146.492 57.0021 146.256C52.878 145.814 49.2369 143.441 45.5712 141.647C41.9359 139.866 38.302 138.085 34.6736 136.292C30.9324 134.444 27.1911 132.595 23.4495 130.747C21.4329 129.75 19.3481 128.815 17.3277 127.782C17.1543 136.197 16.1493 144.588 15.3161 152.958C13.6793 169.397 11.7666 185.793 10.4701 202.264C9.81758 210.556 9.34039 218.861 9.09604 227.173C8.97405 231.331 8.92533 235.488 8.91268 239.646C8.91152 240.036 8.91016 240.426 8.9088 240.816C8.90249 242.629 8.89617 244.441 8.91037 246.254C8.91275 246.567 8.91906 246.875 8.92529 247.18C8.95028 248.403 8.97414 249.57 8.73929 250.724C8.6994 251.105 8.59007 251.479 8.42244 251.836C8.32155 252.105 8.2034 252.374 8.06224 252.644C8.03922 252.615 8.01582 252.586 7.99319 252.557C6.43578 254.678 2.89479 255.746 1.07155 252.644C-0.0377262 250.756 -0.00534214 248.463 0.0255767 246.274C0.0326894 245.77 0.0397245 245.272 0.0327657 244.785C0.000159826 242.46 -0.0136497 240.136 0.0174217 237.811C0.0795646 233.164 0.221879 228.517 0.434776 223.874C1.20466 207.087 2.96767 190.402 5.26926 173.751C6.42082 165.422 7.7615 157.116 9.29819 148.845C10.7129 141.231 12.1875 133.594 14.3885 126.151C14.2439 126.063 14.0966 125.98 13.9535 125.889C11.8004 124.536 9.74624 122.833 8.63303 120.541C7.1815 117.554 7.63836 114.324 8.65183 111.279C10.6458 105.287 13.0268 99.3832 15.5432 93.5822C20.5357 82.0736 26.3376 70.9127 33.9873 60.8308C47.7738 42.6615 67.482 28.1908 91.1415 25.8426C91.2662 25.83 91.2827 26.0173 91.1699 26.0482C79.2745 29.3141 68.1256 35.3191 58.4183 42.6895C55.4592 44.936 52.6563 47.3438 49.9972 49.8856C50.0655 49.8736 50.138 49.8617 50.2158 49.8502C51.2907 49.6931 52.3778 49.6074 53.4584 49.4983C55.6192 49.2805 57.793 49.2087 59.9615 49.0962C64.1688 48.8773 68.375 48.6484 72.5857 48.4987C73.629 48.4616 74.675 48.423 75.723 48.3844C83.3238 48.1038 91.0317 47.8193 98.5983 48.1007C98.9965 48.1156 99.3513 48.1897 99.667 48.3066C98.5998 46.849 97.6147 45.34 96.7428 43.7826C94.6495 40.0434 92.7285 35.7883 92.445 31.4676C91.6805 31.1072 91.7372 30.1686 92.4235 29.8562C92.4258 29.778 92.4239 29.7002 92.4277 29.622C92.4358 29.4586 92.6364 29.4183 92.7292 29.5427C92.7806 29.6116 92.8305 29.6812 92.8819 29.7504C97.6945 29.2445 102.312 28.8319 106.976 27.451C111.392 26.1431 115.464 24.0488 119.242 21.4869C122.841 19.0464 126.145 15.9194 128.716 12.4613C130.122 10.5696 131.355 8.55685 132.383 6.44806C132.826 5.54036 133.181 4.60846 133.533 3.66576C133.757 3.06857 133.944 2.41777 134.293 1.87344C134.809 1.0685 135.858 0.586353 136.304 0.337275C137.501 -0.329911 139.372 -0.0033919 140.019 1.28258C139.622 0.998133 139.753 1.19471 140.412 1.87344C140.733 2.40957 140.894 2.98815 140.896 3.60917C140.896 4.45246 140.588 5.24028 140.274 6.00724C139.766 7.24891 139.213 8.47904 138.599 9.67491C137.417 11.9739 135.985 14.1241 134.374 16.161C131.109 20.2907 127.135 23.7621 122.598 26.5426C114.895 31.2643 103.778 34.6069 94.5828 32.1601C97.0474 35.8028 99.2489 39.5948 102.12 42.9951C105.599 47.1152 109.591 50.9649 113.931 54.2308C122.534 60.7035 132.874 64.7595 143.443 67.0276C154.415 69.3814 166.109 70.0825 177.267 68.6405C187.608 67.3039 197.752 63.7624 205.766 57.1408C212.957 51.1983 218.079 43.6415 221.182 35.0384C213.656 33.828 206.239 31.7557 200.779 26.2235C195.218 20.5889 193.611 12.0041 194.725 4.48374C194.757 4.2637 195.113 4.32662 195.113 4.53474C195.122 8.24411 195.976 12.0618 198.252 15.0921C200.279 17.788 202.431 20.2933 205.108 22.4125C211.038 27.1085 219.146 28.272 226.505 29.0885C228.364 29.2951 229.955 30.456 229.955 32.4374C229.955 33.2707 229.541 34.1802 228.893 34.8441C228.918 35.2607 228.868 35.7104 228.714 36.1918C227.186 40.9753 224.897 45.5105 222.022 49.6741C223.789 49.403 225.597 49.3025 227.354 49.1495C230.235 48.8985 233.141 48.7924 236.031 48.6614C239.045 48.524 242.067 48.5154 245.084 48.4577C245.221 48.4551 245.366 48.4512 245.518 48.4471C247.675 48.3893 251.213 48.2945 251.211 51.1723C251.209 54.0528 247.659 53.9446 245.505 53.879C245.358 53.8745 245.217 53.8702 245.084 53.8671C242.068 53.7963 239.043 53.7814 236.031 53.6247C233.013 53.4672 229.985 53.3403 226.977 53.0629C224.723 52.8548 222.398 52.7222 220.189 52.1786C216.522 56.9048 212.086 61.0777 207.155 64.4881C206.703 64.8012 206.243 65.0987 205.782 65.3965C219.72 64.0719 233.809 63.9476 247.835 63.8239C251.971 63.7875 256.102 63.751 260.221 63.6839C261.041 63.6705 261.646 63.9821 262.042 64.4505C260.826 61.9627 259.54 59.5117 258.153 57.1181C250.495 43.9092 239.175 31.0204 223.878 26.1494C223.613 26.0649 223.721 25.6896 223.992 25.7455C232.838 27.5575 240.649 31.3827 247.66 36.9123ZM48.2945 51.5546C48.9125 52.0044 49.1104 52.2881 50.0341 52.4456C51.0357 52.6157 52.0656 52.6701 53.0768 52.7661C55.2403 52.9717 57.4092 53.0483 59.5799 53.1481C63.9146 53.3481 68.2489 53.5595 72.5866 53.6876C73.6306 53.7184 74.6774 53.7506 75.7262 53.783C83.3273 54.0175 91.0359 54.2554 98.5992 53.9289C100.705 53.838 101.663 52.1529 101.471 50.6175C103.085 52.5576 104.85 54.379 106.73 56.0395C109.752 58.7086 113.014 61.0747 116.453 63.1626C114.222 63.2419 111.95 63.5133 109.845 63.6012Q104.492 63.8235 99.14 64.0469C91.6207 64.3604 84.1022 64.6969 76.5841 65.038C62.6698 65.669 48.8031 66.4546 34.9418 67.7428C38.9006 61.9686 43.3349 56.522 48.2945 51.5546ZM23.9161 86.9539C22.2352 90.4566 20.6801 94.0073 19.2485 97.5823C17.3858 102.234 15.3956 107.005 13.969 111.837C32.3365 108.783 50.8892 107.545 69.488 106.619C103.617 104.92 137.891 105.267 172.046 105.83C206.181 106.392 240.306 107.417 274.429 108.431C278.452 108.55 278.46 114.607 274.429 114.504C268.22 114.345 262.01 114.179 255.801 114.015C255.934 114.908 256.043 115.816 256.16 116.756C256.483 119.349 256.861 121.935 257.179 124.528C257.411 126.431 257.632 128.335 257.853 130.239C260.791 130.213 263.733 130.135 266.676 130.057C271.586 129.927 276.499 129.797 281.401 129.907C282.731 129.936 283.259 131.048 283.024 131.99C283.108 131.983 283.192 131.975 283.277 131.968C281.249 123.362 279.118 114.787 276.723 106.265C272.868 92.5527 268.75 78.455 262.533 65.4512C262.842 66.8087 262.073 68.4543 260.222 68.4659C256.098 68.492 251.964 68.5494 247.824 68.6068C232.517 68.8192 217.133 69.0327 201.918 67.6732C193.358 72.2527 183.656 74.5916 173.92 75.3689C161.789 76.3377 149.173 75.1567 137.443 72.0088C132.04 70.5586 126.785 68.6018 121.816 66.121C121.614 66.363 121.346 66.5529 121.008 66.6419C119.576 67.0182 118.051 67.0347 116.551 67.0509C116.096 67.0558 115.644 67.0608 115.197 67.0757C113.413 67.1348 111.629 67.194 109.844 67.2536L98.7576 67.6222C91.3669 67.8683 83.9753 68.0898 76.5837 68.3084C62.4977 68.7246 48.4449 69.0798 34.3619 68.5995C30.6364 74.128 27.3348 79.9424 24.4167 85.9129C32.8647 86.2036 41.305 86.8947 49.7633 87.1408C58.496 87.3951 67.2447 87.3455 75.9769 87.0916C107.658 86.1716 139.28 84.0275 170.973 83.3041C186.759 82.9437 202.55 82.7623 218.341 82.7605C226.363 82.7594 234.386 82.8003 242.408 82.8975C246.355 82.9452 250.303 83.004 254.25 83.074C256.414 83.1127 258.579 83.1544 260.743 83.1994C262.741 83.2415 264.187 83.6965 265.988 84.4731C267.791 85.2502 266.939 87.595 265.494 88.1412C264.235 88.6174 263.245 89.0131 261.889 89.053C261.219 89.0727 260.542 89.0474 259.868 89.0223C259.522 89.0094 259.177 88.9965 258.833 88.9897C256.541 88.9439 254.25 88.9018 251.958 88.8634C247.502 88.7894 243.045 88.7309 238.588 88.6821C229.675 88.5846 220.761 88.5444 211.846 88.5615C179.925 88.6215 148.038 89.5548 116.147 90.833C114.866 90.8844 113.585 90.9364 112.304 90.9884C98.0775 91.5658 83.8387 92.1438 69.6 91.8617C61.727 91.7057 53.8709 91.304 46.0302 90.5888C38.6651 89.9175 31.0526 88.9089 23.9161 86.9539ZM15.5121 120.456C17.5927 122.041 20.192 123.063 22.5488 124.182C28.6116 127.061 34.6755 129.937 40.7375 132.818C42.2646 133.544 43.7894 134.273 45.3134 135.004C50.6435 134.426 56.0016 134.041 61.3708 133.767C61.293 132.267 61.1879 130.77 61.0325 129.276C60.8361 127.385 60.6666 125.548 61.3375 123.743C61.3754 123.641 61.4928 123.61 61.5776 123.682C63.3441 125.168 64.0108 127.368 64.6015 129.508C64.9732 130.855 65.3027 132.211 65.5996 133.574C74.2344 133.216 82.8849 133.084 91.4802 132.833C123.127 131.908 154.788 131.355 186.44 130.652C188.459 130.607 190.478 130.561 192.496 130.515C206.304 130.198 220.109 129.882 233.92 130.033C240.315 130.103 246.707 130.237 253.101 130.252C253.062 127.726 253.047 125.2 253.103 122.678C253.123 121.797 253.126 120.907 253.129 120.014C253.137 117.995 253.145 115.956 253.338 113.951C241.116 113.627 228.894 113.298 216.672 112.966C182.736 112.04 148.787 111.297 114.835 111.483C97.81 111.576 80.7959 111.905 63.7756 112.297C58.6803 112.415 53.5883 112.563 48.4974 112.711C36.8499 113.049 25.2083 113.387 13.5461 113.359C13.4917 113.562 13.4303 113.764 13.3781 113.967C12.6792 116.688 13.2377 118.723 15.5121 120.456ZM258.851 139.033C260.49 137.213 263.702 136.428 265.994 135.623C268.189 134.852 270.431 134.204 272.698 133.665C267.894 133.796 263.082 133.836 258.28 133.947C258.472 135.642 258.663 137.337 258.851 139.033ZM217.121 177.917C204.616 178.015 192.111 178.026 179.606 177.948C154.854 177.794 130.109 177.203 105.362 176.725C98.4748 176.593 91.5965 176.462 84.7079 176.461C81.1415 176.461 77.5633 176.485 74.0009 176.635C71.7587 176.729 69.4855 176.743 67.2538 177.004L67.283 176.245C67.543 169.5 67.8031 162.749 67.7946 156.001C91.4036 159.471 115.266 160.424 139.108 161.107C163.263 161.799 187.424 162.158 211.589 162.192C218.456 162.202 225.324 162.187 232.191 162.148C235.497 162.129 238.804 162.104 242.11 162.074C242.683 162.069 243.257 162.069 243.831 162.069L243.836 162.069C245.042 162.069 246.249 162.069 247.451 162.02C249.329 161.943 250.463 161.512 251.774 160.215C252.446 159.552 252.48 158.408 251.774 157.747C249.772 155.872 247.467 155.949 244.938 156.034C244.511 156.048 244.076 156.062 243.636 156.068C240.584 156.104 237.532 156.136 234.48 156.163C228.376 156.217 222.272 156.251 216.167 156.266C204.213 156.296 192.258 156.251 180.305 156.133C156.146 155.893 131.992 155.372 107.839 154.823C94.4858 154.519 81.1354 154.603 67.7931 155.231C67.7881 154.069 67.777 152.906 67.7536 151.744C67.6657 147.341 67.2238 142.939 66.5326 138.586C73.0714 138.564 79.6098 138.428 86.1191 138.347C101.948 138.15 117.772 137.841 133.599 137.532C149.298 137.227 164.997 136.921 180.696 136.616C196.386 136.31 212.123 136.288 227.793 135.466C236.25 135.023 244.71 134.419 253.173 134.103L253.223 136.364C253.427 145.615 253.799 154.856 254.28 164.096C254.511 168.536 254.754 172.976 255.005 177.415C254.883 177.403 254.76 177.396 254.632 177.395C247.257 177.348 239.873 177.504 232.49 177.66C227.366 177.769 222.242 177.877 217.121 177.917ZM255.443 242.272C253.79 242.287 252.133 242.398 250.481 242.461C247.3 242.58 244.12 242.698 240.938 242.814C234.449 243.05 227.96 243.278 221.47 243.497C208.618 243.931 195.764 244.331 182.909 244.698C157.2 245.432 131.478 245.877 105.772 246.716C98.6409 246.949 91.5098 247.13 84.3848 247.506C80.6927 247.701 76.9833 247.869 73.3088 248.285C70.209 248.635 67.1532 249.225 64.0706 249.665C64.2774 245.767 64.4711 241.867 64.6725 237.969C64.8631 234.281 65.0411 230.593 65.218 226.904C77.251 227.515 89.2983 227.761 101.348 227.866C114.093 227.976 126.835 228.283 139.581 228.307C161.053 228.348 182.527 228.131 203.999 227.914L204.003 227.914C207.763 227.876 211.523 227.838 215.283 227.802C222.419 227.732 229.556 227.662 236.693 227.593C240.261 227.558 243.83 227.523 247.398 227.488C247.991 227.482 248.584 227.483 249.178 227.483C250.37 227.484 251.563 227.484 252.751 227.436C254.651 227.36 255.804 226.836 257.183 225.595C257.918 224.933 257.949 223.586 257.183 222.93C256.076 221.981 255.049 221.254 253.516 221.147C252.509 221.077 251.474 221.118 250.446 221.159C249.936 221.179 249.429 221.199 248.928 221.206C245.614 221.248 242.301 221.291 238.987 221.333C232.615 221.414 226.243 221.495 219.87 221.577C207.126 221.739 194.381 221.906 181.637 222.094C169.147 222.279 156.656 222.417 144.169 222.721C131.418 223.033 118.683 223.596 105.935 223.993C92.3667 224.416 78.805 224.921 65.2671 225.91C65.5924 219.072 65.8919 212.233 66.1739 205.393C93.0545 206.813 119.954 207.824 146.879 207.868C174.931 207.915 202.981 207.45 231.022 206.739C234.974 206.639 238.925 206.537 242.876 206.417C244.915 206.355 246.954 206.298 248.994 206.226C250.493 206.173 252.033 206.111 253.388 205.415C256.063 204.042 256.524 200.033 253.351 198.936C251.617 198.336 249.777 198.922 249.355 200.44C249.225 200.453 249.101 200.463 248.994 200.467C247.464 200.523 245.934 200.564 244.405 200.611C241.091 200.713 237.778 200.817 234.464 200.918C228.346 201.104 222.228 201.276 216.109 201.433C203.617 201.754 191.123 202.016 178.628 202.218C153.89 202.618 129.153 202.988 104.418 203.536C91.6805 203.819 78.9465 204.186 66.2103 204.5C66.5145 197.065 66.8018 189.63 67.0608 182.195C67.0911 181.324 67.1241 180.452 67.1567 179.58C68.9818 179.969 70.8507 180.185 72.71 180.44C75.9365 180.883 79.1729 181.211 82.4131 181.543C88.5185 182.168 94.6438 182.552 100.772 182.88C113.265 183.549 125.762 184.021 138.268 184.39C163.008 185.121 187.778 185.281 212.527 185.199C215.561 185.189 218.6 185.19 221.641 185.191L221.644 185.191C232.07 185.194 242.521 185.197 252.921 184.757C253.748 184.977 254.601 184.954 255.427 184.693C256.104 196.316 256.819 207.937 257.523 219.559C257.997 227.401 258.416 235.268 258.998 243.112C257.86 242.568 256.813 242.26 255.443 242.272Z" transform="translate(11.50893 1.117256)" id="ðŸ–-Ink" fill="#000000" fill-rule="evenodd" stroke="none" />
  </g>
</svg>