<?xml version="1.0" encoding="utf-8"?>
<svg width="314px" height="273px" viewBox="0 0 314 273" version="1.1" xmlns:xlink="http://www.w3.org/1999/xlink" xmlns="http://www.w3.org/2000/svg">
  <desc>Created with Lunacy</desc>
  <defs>
    <rect width="313.783173" height="272.9061" id="artboard_1" />
    <clipPath id="clip_1">
      <use xlink:href="#artboard_1" clip-rule="evenodd" />
    </clipPath>
  </defs>
  <g id="body/Tee-1" clip-path="url(#clip_1)">
    <use xlink:href="#artboard_1" stroke="none" fill="#FFFFFF" />
    <path d="M287.039 217.812C285.493 209.337 284.076 200.839 282.787 192.322C282.176 188.279 281.58 184.232 281.043 180.178C280.668 177.338 280.096 174.091 282.087 171.987C284.888 169.027 287.433 166.493 287.776 162.252C288.098 158.262 286.708 153.912 285.839 150.039C284.016 141.916 281.747 133.895 279.239 125.949C276.692 117.876 273.898 109.879 271.065 101.897C268.416 94.4343 265.869 86.9044 262.418 79.7445C255.87 66.1567 244.792 56.0943 231.1 49.3754C227.695 47.7044 220.75 41.7393 217.192 40.4039C213.922 39.1758 213.934 42.7616 210.715 41.4109C208.142 40.3312 205.746 38.8914 204.305 36.48C202.741 33.8617 198.818 30.1996 198.22 27.1518C196.955 20.6916 198.326 15.1931 193.575 10.3308C189.358 6.01321 183.69 3.05527 177.824 1.46743C164.922 -2.02551 147.714 0.416456 139.929 12.0532C136.211 17.6105 134.912 24.3276 129.895 28.8629C125.514 32.823 126.494 35.5304 120.82 37.5712C120.499 37.6871 111.788 35.8737 111.467 35.9897C105.259 34.7005 99.3264 38.3094 93.6315 40.4039C85.1413 43.5255 77.0581 47.5888 69.464 52.418C54.1512 62.156 41.036 74.8009 30.2235 89.11C19.3216 103.537 10.8629 119.708 4.84005 136.608C3.37739 140.713 2.06357 144.868 0.904717 149.064C0.256053 151.412 -0.437109 153.848 0.35272 156.252C0.998699 158.218 2.43566 159.683 4.1231 160.863C6.4105 162.463 10.9987 163.502 10.9093 166.72C10.8411 169.166 9.98602 171.74 9.56866 174.158C9.0719 177.037 8.66375 179.932 8.25561 182.824C6.39899 195.985 4.95398 209.221 4.3149 222.494C3.6858 235.563 3.16373 248.899 4.09779 261.964C4.15955 262.825 4.42423 263.616 4.85117 264.285C4.45261 264.433 4.42193 265.154 4.91792 265.256C5.26546 265.327 5.61223 265.399 5.95977 265.47C6.6817 266 7.58201 266.325 8.6181 266.357C9.32047 266.379 10.0225 266.409 10.7241 266.444C18.1279 267.946 25.5306 269.365 33.031 270.44C42.1484 271.746 51.2926 272.811 60.4652 273.676C79.3133 275.455 98.0129 274.865 116.886 273.906C135.73 272.949 154.563 272.725 173.426 273.201C192.306 273.678 211.179 274.475 230.063 274.801C251.161 275.165 272.226 274.606 293.262 272.978C296.147 272.755 297.931 270.528 297.362 267.748C293.954 251.089 290.092 234.542 287.039 217.812Z" transform="translate(9.972536 -11.91412)" id="âœ‹-Skin" fill="#D08B5B" stroke="none" />
    <path d="M93.6315 4.68562L94.0436 4.53167C99.6125 2.42005 105.409 -0.986735 111.467 0.271407C111.681 0.19412 115.623 0.974092 118.323 1.46847L115.76 4.06469L111.237 4.90919C126.84 29.9017 145.292 42.398 166.596 42.398C187.9 42.398 204.065 29.9017 215.092 4.90919L216.597 4.50506C216.783 4.54685 216.981 4.60616 217.193 4.68562C220.75 6.02106 227.695 11.9862 231.1 13.6571C244.792 20.3761 255.87 30.4385 262.419 44.0262C265.754 50.9475 268.245 58.2144 270.8 65.4322L271.065 66.1787C273.898 74.1604 276.692 82.1574 279.239 90.2304C281.638 97.8308 283.818 105.501 285.599 113.262L285.839 114.32C286.708 118.194 288.098 122.543 287.776 126.534C287.654 128.044 287.252 129.339 286.659 130.513L255.8 141.29L270.502 238.611C257.035 239.171 243.555 239.316 230.063 239.083C211.179 238.757 192.306 237.96 173.426 237.483C155.134 237.021 136.871 237.218 118.599 238.103L113.959 238.333C96.0781 239.201 78.3384 239.644 60.4652 237.958L59.2473 237.842L59.2473 237.842L59.2471 223.606L65.5255 144.336L33.708 138.523L2.47482 123.8C1.53112 122.884 0.773842 121.816 0.35272 120.533C-0.37881 118.307 0.161805 116.053 0.760966 113.867L0.904717 113.346C2.06357 109.15 3.37739 104.995 4.84005 100.89C10.8629 83.9894 19.3216 67.8188 30.2235 53.3918C41.036 39.0826 54.1512 26.4377 69.4641 16.6997C77.0582 11.8706 85.1413 7.80724 93.6315 4.68562Z" transform="translate(9.972536 23.80407)" id="ðŸ‘•-Top" fill="#EC7495" stroke="none" />
    <path d="M148.644 4.24968C149.758 1.05002 145.151 -1.45044 142.833 0.965873C141.404 2.45448 140.833 4.37057 140.148 6.24961L140.005 6.6377C139.44 8.13776 138.732 9.58941 137.944 10.9912C136.3 13.9176 134.216 16.631 131.828 19.0261C126.93 23.9395 120.513 27.4128 113.978 29.8619C113.769 29.9401 113.681 30.1188 113.702 30.283C113.39 29.8697 113.077 29.4564 112.767 29.0432C112.598 28.8194 112.177 28.9404 112.273 29.245C117.874 47.0479 133.727 61.4349 151.658 67.5095C170.194 73.7897 191.632 71.0112 206.115 57.6186C213.324 50.9524 218.497 41.9897 219.851 32.3653C219.91 31.9469 219.896 31.566 219.829 31.2201C226.202 36.4399 232.885 41.286 239.133 46.6533C246.43 52.923 253.518 59.6262 259.344 67.2389C265.254 74.9633 269.709 83.493 272.686 92.6675C275.518 101.394 277.204 110.41 278.767 119.421L279.557 123.999C281.328 134.179 283.402 144.213 286.429 154.099C283.043 155.153 279.669 156.239 276.294 157.333L269.875 159.414C268.172 159.966 266.25 160.876 264.464 161.24C263.231 161.044 261.999 161.544 261.181 162.412C260.73 155.435 260.389 148.453 260.143 141.475C259.955 136.167 259.852 130.852 259.617 125.545C259.37 119.984 258.867 114.444 258.546 108.897C258.535 108.713 258.282 108.723 258.258 108.897C257.58 113.844 256.82 118.74 256.455 123.735C256.095 128.67 255.928 133.632 255.885 138.579C255.801 148.231 255.947 157.881 256.42 167.523C257.378 187.065 259.276 206.576 262.266 225.925C263.114 231.417 264.065 236.893 265.095 242.356C265.588 244.968 266.099 247.577 266.627 250.182C266.913 251.593 267.138 253.048 267.508 254.442C267.915 255.976 268.636 256.706 270.02 257.549C271.064 258.184 272.353 257.711 272.997 256.791C273.781 255.67 274.168 254.831 273.948 253.468C273.757 252.279 273.464 251.097 273.218 249.917C272.725 247.551 272.246 245.183 271.782 242.812C270.854 238.07 270 233.316 269.169 228.557C267.49 218.946 266.069 209.292 264.787 199.624C263.378 189 262.321 178.321 261.54 167.623C262.192 168.238 263.036 168.576 264.144 168.708C265.844 168.91 267.776 168.127 269.524 167.419C270.104 167.184 270.664 166.957 271.188 166.778L279.67 163.868L281.408 163.269C281.483 168.297 282.018 173.383 282.455 178.344L282.801 182.264C283.261 187.49 283.718 192.715 284.148 197.944C285.119 209.732 287.039 221.467 289.06 233.131L289.649 236.515C290.28 240.13 290.926 243.741 291.587 247.35C291.918 249.154 292.268 250.953 292.638 252.749C292.83 253.686 292.936 254.711 293.231 255.62C293.697 257.057 294.724 257.651 296.036 258.247L296.278 258.355C297.013 258.682 297.879 258.678 298.479 258.079C299.207 257.352 300.023 256.635 300.31 255.62C300.543 254.799 300.373 253.953 300.207 253.128C300.193 253.059 300.18 252.991 300.166 252.922L300.113 252.643C299.806 250.958 299.515 249.269 299.194 247.587C298.598 244.466 297.985 241.348 297.398 238.226C296.178 231.742 295.076 225.238 293.855 218.755C291.467 206.077 288.682 193.462 286.408 180.767C285.339 174.794 284.469 168.645 283.041 162.702C285.948 161.693 288.85 160.671 291.742 159.616C294.058 158.771 294.786 156.756 293.841 154.608C290.19 146.302 288.384 137.197 286.766 128.269L285.699 122.343C283.966 112.671 282.325 102.954 279.464 93.5239C273.635 74.3095 261.605 57.9928 245.549 45.5114C237.786 39.476 229.535 34.036 220.578 29.8625L220.522 29.8372C219.938 29.5744 218.43 29.0259 217.146 28.9758C215.819 28.924 214.463 29.7509 214.236 31.6278L214.231 31.6583L214.066 31.4878C213.166 30.5996 211.952 30.0399 210.948 29.2658C209.918 28.4713 208.964 27.5658 208.084 26.6183C206.44 24.8472 205.089 22.7831 203.962 20.6684C201.659 16.3465 200.951 11.7605 200.383 7.01974L200.271 6.06955C200.199 5.46082 199.361 5.11122 198.997 5.73484C196.05 10.7935 196.742 17.5171 198.9 22.7392C200.08 25.5926 201.688 28.1169 203.748 30.4546C205.653 32.6155 208.576 35.6294 211.528 36.2515C212.218 36.3971 212.847 36.3186 213.376 36.0885C209.686 50.019 197.138 60.9497 182.896 64.4573C164.794 68.9158 146.048 62.6482 132.279 51.0279C125.521 45.3248 119.915 38.4436 114.6 31.4661L113.923 30.5749C113.97 30.5961 114.022 30.611 114.083 30.6162C121.938 31.2607 129.232 28.2408 135.349 23.5906C141.856 18.6441 146.026 11.7775 148.644 4.24968ZM112.793 25.7951C111.286 25.6304 109.764 25.4642 108.265 25.5274C106.334 25.6089 104.409 25.7284 102.488 25.9369C98.9247 26.3241 95.2222 27.2646 91.8193 28.3458C84.539 30.6594 77.6549 33.9316 71.1951 37.9169C57.9817 46.0683 46.7078 56.9369 37.1642 68.9217C26.562 82.236 17.8823 96.9614 11.1578 112.462C7.79942 120.204 4.92972 128.14 2.60895 136.233C2.03663 138.229 1.49422 140.234 0.990555 142.247L0.945941 142.423C0.875814 142.696 0.800849 142.974 0.724961 143.254C0.244958 145.031 -0.27197 146.944 0.164668 148.714C0.618081 150.553 2.02282 151.8 3.65157 152.709C5.70459 153.854 7.88841 154.828 10.0005 155.866C11.1912 156.452 12.3865 157.034 13.5852 157.613C10.5065 166.967 8.99452 176.897 7.61729 186.607L6.87981 191.831C4.99059 205.362 3.54498 218.947 2.82147 232.587C2.61471 236.489 2.44477 240.392 2.31167 244.296C2.2453 246.249 2.18815 248.201 2.14058 250.154C2.13419 250.412 2.12426 250.672 2.11435 250.93C2.03555 252.986 1.95797 255.01 3.67114 256.541C5.11193 257.829 7.07826 257.763 8.53401 256.541C9.96727 255.338 10.1404 253.806 10.1836 252.153L10.2363 249.544C10.2616 248.404 10.2902 247.266 10.322 246.127C10.4167 242.71 10.5402 239.294 10.6917 235.88C11.0002 228.931 11.3542 221.984 11.8406 215.045C12.8038 201.307 14.0908 187.616 15.5504 173.92C16.0732 169.012 16.6134 164.093 16.837 159.165C32.2876 166.446 48.4834 172.679 65.8194 173.221C65.3092 178.645 64.8136 184.069 64.3548 189.498C63.0602 204.805 61.6604 220.101 60.4436 235.415C60.1107 239.611 59.7858 243.806 59.4831 248.005C59.3884 249.317 59.2713 250.635 59.1539 251.956C58.8761 255.081 58.597 258.221 58.6116 261.335C58.6196 263.015 59.9381 264.48 61.652 264.678C63.201 264.856 65.2463 263.935 65.4991 262.24C66.6334 254.636 66.7941 246.785 67.2909 239.118C67.7869 231.466 68.3362 223.815 68.7612 216.159C69.6101 200.855 70.5653 185.553 71.2845 170.243C71.6907 161.598 72.0628 152.927 70.8986 144.322C70.8518 143.975 70.3397 143.844 70.2273 144.234C68.1375 151.502 67.18 159.041 66.4504 166.54L66.3223 167.896C49.9575 167.49 34.419 161.622 19.8765 154.703L18.9874 154.278C18.4174 154.005 12.7325 151.198 9.31966 149.491L7.57003 148.611C7.05179 148.347 5.93628 148.034 5.64935 147.527C5.39609 147.08 5.70097 146.108 5.91161 145.436C5.97089 145.247 6.0227 145.082 6.05251 144.959C6.51513 143.048 7.00307 141.142 7.5217 139.245C9.6545 131.445 12.2875 123.775 15.395 116.29C26.8378 88.7314 44.9705 62.1132 70.024 44.5322C76.5302 39.9665 83.5995 35.9924 91.0429 33.0481C94.7776 31.5708 98.5223 30.4282 102.38 29.3205L103.845 28.8998C107.266 27.9185 110.711 26.9522 114.195 26.246C114.386 26.2072 114.321 25.9533 114.152 25.9373C113.701 25.8943 113.247 25.8448 112.793 25.7951Z" transform="translate(7.288523 -1.86149)" id="ðŸ–-Ink" fill="#000000" fill-rule="evenodd" stroke="none" />
  </g>
</svg>