<?xml version="1.0" encoding="utf-8"?>
<svg width="314px" height="273px" viewBox="0 0 314 273" version="1.1" xmlns:xlink="http://www.w3.org/1999/xlink" xmlns="http://www.w3.org/2000/svg">
  <desc>Created with Lunacy</desc>
  <defs>
    <rect width="313.783173" height="272.9061" id="artboard_1" />
    <clipPath id="clip_1">
      <use xlink:href="#artboard_1" clip-rule="evenodd" />
    </clipPath>
  </defs>
  <g id="body/Paper" clip-path="url(#clip_1)">
    <use xlink:href="#artboard_1" stroke="none" fill="#FFFFFF" />
    <path d="M139.693 84.7264C136.35 72.1422 133.275 66.8066 127.336 62.4327C121.78 58.3415 113.67 54.9054 101.837 52.3954C89.5122 50.3044 89.1628 44.0883 86.0725 34.0976C85.171 31.0941 80.7035 30.2949 78.7754 32.4598C78.5036 32.1751 78.2202 31.9143 77.9267 31.6787C78.1893 30.2462 76.04 26.1407 76.1119 24.7705C76.8614 10.469 72.0408 3.2872 60.009 0.617484C57.3924 0.0366295 39.6194 -0.305245 37.0682 0.379242C25.9147 3.37166 14.935 12.8726 16.6152 24.3178C13.1142 28.7578 9.68766 31.4677 4.28623 32.8983C-4.12533 33.9347 0.100169 149.576 14.7091 218.857C20.9771 248.582 170.853 197.988 164.08 183.1C165.04 180.371 163.291 177.372 164.08 174.554C164.652 172.515 166.116 171.671 166.853 169.652C167.889 166.81 166.762 162.998 165.595 160.098C165.116 158.653 166.475 157.097 166.853 155.622C168.644 148.666 164.542 149.279 161.586 144.629C161.63 144.615 162.399 141.295 162.395 141.312C162.848 138.942 161.714 135.905 160.725 133.927C160.056 132.59 158.624 131.753 157.2 131.906C158.634 127.185 160.446 123.256 162.395 118.708C165.842 110.69 169.12 102.302 174.07 95.0444C176.097 92.0727 174.46 89.3393 171.18 89.1368C160.562 88.4822 150.061 86.9989 139.693 84.7264Z" transform="translate(132.7017 -11.54168)" id="âœ‹-Skin" fill="#D08B5B" stroke="none" />
    <path d="M24.2355 0L0 39.8036C0 39.8036 5.74936 40.3604 8.07617 41.4452C10.403 42.5299 21.0862 55.7101 21.0862 55.7101L22.7836 62.9678L18.7614 68.8192L20.33 72.4931C20.33 72.4931 21.4492 70.004 24.2355 68.0718C27.0219 66.1397 33.1667 62.9678 33.1667 62.9678C33.1667 62.9678 31.1246 61.9076 31.1246 60.6629C31.1246 59.4183 29.326 54.1083 33.1667 52.1025C37.0074 50.0966 56.8542 45.4023 56.8542 45.4023L76.9682 4.22767L24.2355 0Z" transform="translate(231.5867 74.15694)" id="ðŸ“±-Device" fill="#EC7495" stroke="none" />
    <path d="M133.305 0L210.26 13.1073L245.635 29.2642L251.409 33.5817L217.183 92.3338L164.334 101.691L150.87 135.631L153.618 173.888L239.592 163.94L276.678 159.664L285.395 193.819L283.82 207.87L281.53 214.995L189.593 239.083C189.593 239.083 142.778 234.679 134.479 234.679C126.18 234.679 65.3342 240.543 65.3342 240.543L51.2561 239.083C51.2561 239.083 20.1085 207.224 15.2776 195.886C10.4466 184.547 0 115.622 0 115.622L1.15027 105.032L28.0611 37.8232C28.0611 37.8232 31.6547 34.6563 36.1852 29.2642C40.7158 23.8721 133.305 0 133.305 0Z" transform="translate(14.40326 21.62676)" id="ðŸ‘•-Top" fill="#9DDADB" stroke="none" />
    <path d="M265.599 71.77Q273.143 72.1888 280.663 72.8869C285.531 73.3333 290.51 73.6572 295.29 74.6737C295.946 74.8155 296.513 75.6677 296.244 76.3081C296.065 76.7367 295.884 77.1644 295.7 77.5926C290.172 90.6534 283.969 103.42 277.341 115.986C278.871 116.071 280.187 116.544 280.809 118.268C281.948 121.444 282.754 125.025 281.641 128.287C281.603 128.399 281.495 128.421 281.415 128.376C281.38 130.182 282.01 131.95 283.333 133.272C284.484 134.416 286.033 135.137 287.012 136.452C288.625 138.618 287.524 140.354 286.352 142.2C286.128 142.552 285.902 142.909 285.692 143.273C284.856 144.718 285.716 145.456 286.673 146.278C287.038 146.591 287.417 146.916 287.721 147.297C288.692 148.511 288.956 149.989 288.761 151.489C288.538 153.198 287.767 154.792 286.95 156.303C285.964 158.135 285.071 160.217 283.694 161.799C283.644 161.855 283.594 161.903 283.54 161.94C283.555 161.937 283.567 161.937 283.578 161.937C283.786 161.933 284.054 162.261 284.123 162.424C284.204 162.599 284.28 162.778 284.361 162.953C284.353 162.934 284.346 162.912 284.338 162.894C284.257 162.685 284.503 162.529 284.679 162.532C284.913 162.536 285.301 162.961 285.377 163.154C286.77 166.233 287.978 169.383 289.003 172.596C289.413 174.137 289.823 175.679 290.234 177.22C290.782 179.499 291.108 181.785 291.438 184.093C291.692 185.646 291.879 187.209 291.991 188.78C292.252 191.092 292.405 193.416 292.451 195.743C292.42 199.518 291.983 203.245 291.446 206.979C291.27 208.521 291.009 210.043 290.671 211.555C290.268 213.852 289.72 216.119 289.026 218.353C288.676 219.749 288.331 221.146 287.986 222.538C287.833 222.94 287.679 223.342 287.526 223.744C287.265 224.631 286.95 225.506 286.57 226.358C286.433 226.767 286.284 227.17 286.129 227.57C282.942 226.654 279.735 225.885 276.344 225.833C274.368 225.802 274.368 228.78 276.344 228.811C279.301 228.857 282.116 229.507 284.905 230.305C284.473 231.148 284 231.974 283.483 232.78C282.056 235.502 280.644 238.201 278.987 240.801C278.035 242.301 276.988 243.741 275.876 245.13C273.965 247.506 271.779 249.792 269.255 251.582C268.035 252.532 266.742 253.403 265.311 254.01C263.67 254.706 262.02 255.231 260.282 255.633C259.316 255.857 258.349 256.039 257.359 256.162C256.186 256.303 254.997 256.319 253.823 256.489C252.756 256.642 251.705 256.869 250.696 257.242C250.156 257.443 249.695 257.67 249.269 257.938C248.913 258.24 248.567 258.586 248.199 259.003C248.192 259.014 248.183 259.021 248.172 259.025C247.858 259.963 247.098 260.719 245.809 260.928C238.644 262.086 231.577 262.216 224.355 261.486C217.25 260.771 210.207 259.621 203.095 258.973C198.928 258.593 194.751 258.315 190.57 258.104C191.088 257.098 191.634 256.103 192.161 255.095C193.051 253.388 190.404 251.879 189.511 253.591C188.753 255.042 187.954 256.479 187.24 257.949C170.816 257.274 154.317 257.685 137.879 258.095C133.656 258.2 129.437 258.306 125.225 258.392C111.953 258.664 98.688 258.805 85.4194 259.234C79.1809 259.434 72.9313 259.705 66.6798 259.93C66.1693 258.357 65.5954 256.802 65.0465 255.234C64.4151 253.429 61.4502 254.203 62.0874 256.026C62.5565 257.367 63.0452 258.697 63.4964 260.038C57.6618 260.23 51.8277 260.368 46.0008 260.347C45.8397 260.347 45.6824 260.324 45.5328 260.276C45.5137 260.395 45.4945 260.51 45.4753 260.626C45.4638 260.685 45.3717 260.671 45.3717 260.611C45.3717 260.484 45.3717 260.354 45.3641 260.22C44.8999 260.03 44.524 259.636 44.3859 259.151C43.9486 257.603 43.9754 256.05 44.2018 254.501C43.8105 253.686 43.2926 252.964 42.6213 252.416C40.5806 250.752 37.4965 250.365 35.1297 249.188C33.2922 248.28 31.5507 247.204 29.9051 245.998C26.5064 243.514 23.6217 240.536 21.0823 237.234C15.4703 229.944 11.7033 221.388 8.86087 212.761C3.0647 195.184 0.50227 176.222 0.0534602 157.8C-0.13527 150.073 0.176212 142.333 0.979849 134.643C2.81959 133.49 4.7184 132.426 6.67321 131.461C8.43354 130.591 6.88266 128.021 5.12424 128.889C3.85875 129.514 2.62395 130.186 1.41101 130.892C3.62015 113.323 8.42088 96.0672 15.7963 79.8637C19.6415 71.4126 24.0882 62.8266 29.7911 55.2545C31.8764 55.4079 33.9405 55.7158 35.982 56.3383C37.8705 56.9143 38.6787 54.0397 36.7979 53.4663C35.2095 52.9819 33.6003 52.6729 31.9776 52.4745C33.6547 50.4435 35.4316 48.4981 37.3315 46.6723C45.7246 38.608 56.3196 33.2094 67.4056 29.5008C78.9979 25.625 91.1154 23.488 103.172 21.5076C114.189 19.6978 124.68 19.117 131.305 8.98633C131.72 8.35377 132.659 8.02203 133.35 8.46509C133.649 8.65869 133.948 8.85267 134.248 9.04962C134.263 9.00904 134.278 8.96399 134.294 8.92303C135.253 6.07483 135.464 3.17823 136.185 0.296521C136.296 -0.13164 136.879 -0.0646234 137.017 0.296521C138.168 3.31599 137.876 7.15827 136.733 10.7325C139.886 12.9068 142.997 15.1522 146.369 16.9911C151.479 19.7797 160.282 21.2392 166.025 22.2109C171.702 23.1715 177.652 23.7374 183.425 23.4693C185.661 23.3651 187.898 23.0672 190.03 22.3826C191.15 22.021 192.217 21.5333 193.207 20.9004C193.418 20.763 193.621 20.6211 193.82 20.4722C193.505 18.1527 193.414 15.7662 193.51 13.4318C193.609 10.9447 193.721 8.54365 195.025 6.38758C195.075 6.30194 195.186 6.33582 195.22 6.41364C196.471 9.28827 196.555 12.6499 196.877 15.8704C199.981 14.9623 203.311 15.9747 205.294 18.6516C206.732 20.5951 207.035 22.8513 208.01 24.985C208.289 25.6068 209.513 26.8801 209.533 27.4829C209.862 27.7584 209.832 27.8109 209.44 27.6355C209.275 27.5834 209.176 27.5536 209.141 27.5462C209.187 27.5648 209.287 27.5983 209.452 27.6545C210.188 28.0153 210.668 28.2052 211.286 28.7152C212.122 29.4115 212.448 30.5954 212.337 31.6532C213.879 32.3602 215.401 33.1461 216.944 33.7564C219.809 34.8919 222.655 36.0126 225.467 37.2751C231.517 39.9852 237.443 42.9492 243.232 46.1544C244.776 47.01 246.359 47.87 247.911 48.7852C246.567 49.7335 245.296 50.783 244.105 51.9193C242.694 53.2649 244.864 55.3707 246.275 54.0255C247.615 52.747 249.08 51.5407 250.658 50.5105C253.261 52.2652 255.635 54.2899 257.394 56.8774C258.936 59.1485 259.907 61.7432 260.908 64.26C261.955 66.9038 263.163 69.2416 264.805 71.5797C264.84 71.6319 264.874 71.6806 264.901 71.7324C265.135 71.7439 265.365 71.7585 265.599 71.77ZM152.944 30.8843C154.353 31.818 155.587 32.9525 156.79 34.1197C158.189 35.4768 156.019 37.5826 154.62 36.2255C153.606 35.2418 152.583 34.2433 151.395 33.4562C150.709 33.0013 150.401 32.155 150.845 31.4186C151.242 30.7588 152.259 30.4308 152.944 30.8843ZM78.3364 38.7533C80.2793 38.435 79.4554 35.5645 77.5205 35.8809C75.1103 36.276 72.7366 36.7384 70.45 37.5969C68.6275 38.2812 69.4197 41.1622 71.2659 40.469C73.5522 39.6104 75.9259 39.1484 78.3364 38.7533ZM215.912 40.3203C217.562 39.2529 219.097 41.8342 217.462 42.8923C216.136 43.7497 214.81 44.6079 213.484 45.4657C211.835 46.5328 210.3 43.9519 211.935 42.8938L215.912 40.3203ZM141.088 57.3262C143.031 57.675 142.203 60.5452 140.273 60.1986C138.218 59.8296 136.135 59.8237 134.052 59.8226C132.074 59.8218 132.077 56.8433 134.052 56.844C136.419 56.8451 138.755 56.9073 141.088 57.3262ZM45.1943 69.7644C47.0153 70.4576 46.2178 73.3371 44.3784 72.6368C42.3385 71.8601 40.2317 71.2689 38.1918 70.4922C36.3712 69.799 37.1683 66.9199 39.0077 67.6198C41.0476 68.3965 43.1544 68.9877 45.1943 69.7644ZM99.1068 74.7813C101.009 74.2749 100.201 71.401 98.2909 71.9089C94.9444 72.7995 91.4982 73.2615 88.1267 74.0538C86.2084 74.5043 87.0212 77.3771 88.9427 76.9258C92.3141 76.1339 95.76 75.6711 99.1068 74.7813ZM273.561 116.105C266.607 116.448 259.644 118.052 253.353 120.96C250.78 122.151 248.447 123.871 247.764 126.701C247.419 128.146 247.504 129.639 247.687 131.098C247.826 132.204 247.86 133.615 248.85 134.363C249.019 134.49 249.199 134.586 249.387 134.657C247.066 135.674 244.856 136.895 242.892 138.153C241.097 139.304 239.252 141.076 238.424 143.075C238.355 142.848 238.286 142.636 238.217 142.435C236.805 138.384 234.63 135.067 231.204 132.836C230.815 131.461 226.641 125.539 222.763 125.763C218.517 126.005 215.101 126.306 211.261 128.201C209.861 128.171 208.464 128.19 207.084 128.25C206.846 128.257 206.858 128.57 207.084 128.596C208.204 128.734 209.324 128.886 210.444 129.065C213.106 129.479 215.761 130.003 218.357 130.655C221.473 131.437 224.695 132.222 227.606 133.589C233.253 136.244 236.747 143.183 236.03 149.222C235.911 150.212 235.516 153.206 234.1 152.897C232.904 152.636 232.428 150.212 232.01 149.315C230.89 146.932 228.872 145.376 226.452 144.322C223.609 143.083 220.567 142.245 217.621 141.27C215.953 140.715 214.284 140.16 212.611 139.609C212.33 139.515 212.051 139.416 211.773 139.317C210.361 138.813 208.975 138.319 207.452 138.652C206.351 138.894 206.225 140.167 206.842 140.897C207.782 142.01 209.178 142.338 210.532 142.796C212.32 143.399 214.104 144.003 215.887 144.605C218.645 145.536 221.534 146.322 224.223 147.461L224.139 147.647C223.92 147.588 223.663 147.8 223.705 148.06C223.736 148.246 223.768 148.433 223.8 148.623C224.187 150.896 224.62 153.44 224.046 155.667C223.556 157.58 221.825 159.699 219.578 159.137C219.931 158.824 220.061 158.284 219.823 157.785C218.933 155.939 207.272 148.649 206.232 151.356C206.198 151.452 206.305 151.523 206.39 151.508C207.055 151.374 208.059 152.169 208.818 152.77C209.069 152.968 209.293 153.146 209.469 153.262C210.494 153.932 211.533 154.587 212.546 155.276C213.655 156.028 214.737 156.818 215.792 157.633C216.62 158.273 217.245 158.939 218.196 159.264C217.698 159.494 217.303 159.922 217.134 160.47C216.704 161.896 215.876 163.106 214.437 163.735C213.457 164.161 212.394 164.135 211.335 164.109C210.763 164.095 210.196 164.081 209.642 164.137C207.479 164.349 205.592 165.347 204.015 166.773C200.705 169.774 199.044 175.061 194.414 176.479C191.861 177.259 189.051 176.866 186.432 176.499C186.213 176.468 185.995 176.438 185.779 176.408C182.652 175.98 179.607 175.641 176.457 176.088C173.442 176.517 170.592 177.529 167.838 178.765C165.256 179.923 162.402 181.234 160.112 182.961C159.64 181.55 159.165 180.154 158.804 178.713C157.953 175.307 157.492 171.836 157.381 168.337C157.277 165.005 157.469 161.658 157.764 158.34C157.91 156.683 158.141 155.034 158.286 153.377C158.324 152.96 158.401 152.513 158.459 152.067C162.548 149.725 166.844 147.93 171.175 146.084C171.187 146.08 171.198 146.072 171.21 146.069C171.344 146.009 171.474 145.953 171.609 145.898C171.605 145.89 171.601 145.883 171.593 145.875C172.088 145.581 172.433 145.19 172.641 144.751C178.882 140.733 184.099 135.249 187.988 128.853C189.619 126.172 191.188 123.391 193.32 121.042C195.591 118.536 198.288 117.047 201.625 116.272C205.526 115.364 209.547 114.82 213.544 114.511C214.008 114.476 214.485 114.436 214.97 114.395C216.762 114.245 218.672 114.085 220.544 114.095C222.201 114.105 223.824 114.243 225.312 114.642C227.518 115.23 228.807 116.857 230.192 118.502C231.515 120.081 232.831 121.664 234.066 123.309C235.236 124.869 236.341 126.481 237.3 128.171C237.875 129.184 238.408 130.227 238.857 131.303C239.015 131.683 239.222 132.114 239.318 132.509C239.346 132.626 239.35 132.746 239.355 132.856C239.365 133.119 239.373 133.328 239.697 133.328C237.799 133.354 236.536 137.949 238.424 137.841C241.077 137.692 242.411 134.604 241.892 131.865C240.964 126.977 235.954 121.075 234.963 119.824C232.773 117.062 230.514 113.458 227.008 112.173C226.958 112.154 226.904 112.136 226.854 112.121C227.875 111.183 228.68 110.059 229.451 108.915C230.245 107.739 231.193 106.391 231.454 104.995C231.619 104.105 230.479 103.599 229.939 104.377C229.152 105.512 228.772 106.949 228.186 108.197C227.587 109.463 226.858 110.658 226.283 111.935C224.898 111.522 223.402 111.332 221.879 111.269C223.801 108.744 227.084 103.874 227.48 103.249C229.298 100.352 231.028 97.3665 232.681 94.3765C234.469 91.1373 235.999 87.7642 237.71 84.4878C238.681 82.6303 239.659 80.7572 240.737 78.9552C241.109 78.3372 241.508 77.7191 241.961 77.1569C242.049 77.0456 242.16 76.9525 242.264 76.8479C242.383 76.7846 242.505 76.7139 242.574 76.677C243.195 76.3308 243.414 75.5266 243.851 75.0161C244.55 74.1937 245.371 74.0969 246.422 74.0854C248.23 74.0673 250.044 74.1196 251.852 74.1718C252.284 74.1843 252.715 74.1967 253.146 74.2082C256.434 74.2976 259.717 74.4242 263.001 74.5917C263.994 74.6438 264.984 74.6959 265.978 74.7555C270.753 75.0314 275.525 75.3922 280.286 75.8356C284.498 76.2262 288.71 76.8632 292.925 77.1685C287.217 90.3298 280.888 103.253 273.722 115.725C273.65 115.852 273.596 115.978 273.561 116.105ZM197.451 83.639C197.497 81.8798 198.214 80.3626 199.01 78.8149C199.889 77.1045 197.243 75.594 196.36 77.3115C195.316 79.3406 194.442 81.3369 194.383 83.639C194.334 85.5564 197.403 85.5553 197.451 83.639ZM139.64 106.833C139.361 108.708 142.318 109.517 142.599 107.625C143.03 104.728 143.557 101.869 144.367 99.0464C144.897 97.1971 141.938 96.4078 141.408 98.2545C140.598 101.077 140.071 103.936 139.64 106.833ZM34.2897 104.656C32.5873 105.626 34.1297 108.201 35.8383 107.228C37.8399 106.088 39.9497 105.211 42.1005 104.376C43.9115 103.672 43.1213 100.79 41.2846 101.503C38.8913 102.433 36.5172 103.387 34.2897 104.656ZM88.2019 118.379C86.4277 117.533 87.9844 114.965 89.7505 115.808C91.6117 116.696 93.54 117.382 95.5708 117.802C97.5045 118.202 96.6809 121.073 94.7549 120.674C92.4694 120.201 90.2948 119.378 88.2019 118.379ZM281.192 127.371C281.127 127.378 281.066 127.412 281.035 127.475C279.761 130.026 280.294 132.874 282.374 134.873C282.657 135.144 283.026 135.423 283.417 135.719C284.531 136.563 285.818 137.537 285.761 138.805C285.695 140.19 284.142 141.351 283.479 142.494C282.861 143.559 282.631 144.728 283.126 145.883C283.759 147.36 285.527 147.949 286.133 149.401C286.886 151.209 285.7 153.383 284.828 154.98L284.779 155.071C283.966 156.557 282.914 158.042 282.216 159.613C277.54 161.963 266.93 166.229 265.652 166.468C264.095 166.762 262.534 167.041 260.969 167.302C257.965 167.808 254.954 168.277 251.935 168.69C250.217 168.925 248.494 169.156 246.772 169.338L246.647 169.351C245.175 169.505 243.539 169.676 242.361 168.609C239.917 166.389 241.287 162.67 242.832 160.429C242.863 160.384 242.863 160.343 242.852 160.306C244.309 159.974 245.763 159.587 247.213 159.315C250.002 158.794 252.81 158.355 255.622 157.964C261.399 157.163 267.214 156.635 273.021 156.103C274.46 155.968 274.475 153.772 273.021 153.902C264.678 154.643 256.293 155.347 248.061 156.907C245.997 157.294 243.948 157.733 241.912 158.228C240.949 158.46 239.917 158.821 238.908 158.832C238.847 158.832 238.785 158.832 238.724 158.828C236.749 158.769 236.461 157.127 237.546 155.76C237.681 155.592 237.819 155.425 237.961 155.265C239.879 153.046 242.268 151.564 244.731 150.03C247.489 149.665 250.24 148.853 252.94 148.258C259.607 146.783 266.274 145.309 272.945 143.838C274.253 143.548 273.697 141.597 272.389 141.884C267.325 142.997 262.262 144.11 257.198 145.223L249.787 146.854C248.306 147.178 246.457 147.83 244.716 148.064C243.857 148.18 243.024 148.194 242.272 148.024C239.844 147.465 239.721 144.52 240.769 142.77C241.942 140.804 244.16 139.575 246.128 138.462C249.538 136.53 253.167 135.141 256.711 133.54L258.598 133.138C262.258 132.356 266.439 131.973 269.884 130.54C270.916 130.115 270.351 128.536 269.331 128.559C266.658 128.615 263.861 129.538 261.249 130.085C258.422 130.681 255.591 131.273 252.764 131.865C252.695 131.879 252.546 131.92 252.356 131.973C251.753 132.138 250.739 132.418 250.547 132.33C250.385 132.256 250.328 131.712 250.274 131.355C250.101 130.178 249.975 128.942 250.163 127.762C250.577 125.115 252.852 123.871 255.154 122.855C260.278 120.595 265.898 119.18 271.491 118.614C272.78 118.484 274.069 118.402 275.365 118.361C275.546 118.356 275.724 118.347 275.897 118.339C277.18 118.279 278.234 118.229 278.914 119.511C280.126 121.805 280.793 124.754 281.192 127.371ZM51.5087 186.911C48.6494 187.725 45.3144 188.474 43.365 190.841C43.2698 190.957 43.1099 190.808 43.167 190.693C45.6627 185.671 52.8199 183.91 57.7752 182.15C61.2801 180.906 64.8764 179.874 68.5029 178.952C68.2549 176.204 68.6446 173.322 69.0268 170.495C69.2032 169.191 69.3779 167.899 69.4876 166.637C69.8585 162.371 70.1604 158.094 70.3154 153.815C70.4738 149.449 70.5122 145.055 70.3641 140.688C70.2168 136.338 69.6349 132.04 69.3802 127.704C69.3556 127.285 69.9571 127.265 70.0868 127.612C71.5928 131.635 72.2361 136.092 72.7263 140.335C73.2311 144.705 73.3988 149.063 73.3343 153.459C73.2676 157.979 72.9968 162.488 72.6251 166.994C72.449 169.129 72.2445 171.262 72.0516 173.396C71.9043 175.024 71.836 176.64 71.4938 178.217C73.6811 177.696 75.8734 177.203 78.0587 176.724C85.0272 175.198 92.0247 173.781 98.964 172.131C102.37 171.321 105.728 170.351 109.119 169.489C112.312 168.678 115.682 167.694 118.961 167.332C120.131 167.203 120.279 168.756 119.505 169.283C116.84 171.099 113.302 172.363 110.224 173.38C107.135 174.4 103.925 175.133 100.759 175.889C94.1568 177.465 87.4922 178.754 80.8375 180.096C74.192 181.436 67.5339 182.767 60.9633 184.421C57.799 185.218 54.6454 186.018 51.5087 186.911ZM131.84 141.743C129.865 141.703 129.865 138.724 131.84 138.765C133.628 138.802 135.385 139.258 137.109 139.676C139.027 140.141 138.209 143.013 136.293 142.548C134.836 142.195 133.352 141.775 131.84 141.743ZM239.246 151.512C240.079 150.931 240.972 150.422 241.893 150.012C240.946 149.822 240.067 149.412 239.381 148.697C239.419 149.654 239.384 150.608 239.246 151.512ZM32.8204 158.119C30.7359 157.317 28.5252 156.598 26.8689 155.071C25.4373 153.751 23.2634 155.853 24.6989 157.176C26.7622 159.079 29.4075 159.992 32.0045 160.991C33.8408 161.697 34.6379 158.818 32.8204 158.119ZM272.497 198.951C273.262 202.774 272.958 206.777 274.075 210.525C274.493 211.929 276.273 211.695 276.78 210.525C278.483 206.596 277.398 201.892 276.078 197.993C275.416 196.036 274.594 194.174 273.519 192.396C272.62 190.911 271.411 189.017 269.835 188.142C269.745 188.092 269.613 188.154 269.618 188.263C269.708 189.886 270.5 191.541 270.975 193.096C271.564 195.022 272.103 196.979 272.497 198.951ZM94.4805 191.099C93.0819 189.742 90.9115 191.847 92.3105 193.205L96.2877 197.065C97.6859 198.422 99.8567 196.317 98.4577 194.959L94.4805 191.099ZM230.421 192.003C227.242 192.921 224.255 194.309 221.217 195.584C219.409 196.342 220.97 198.909 222.766 198.156C225.563 196.982 228.309 195.721 231.237 194.874C233.126 194.329 232.321 191.454 230.421 192.003ZM189.135 194.692C188.392 192.913 191.362 192.147 192.094 193.901C192.937 195.919 193.902 197.886 194.745 199.905C195.487 201.684 192.518 202.451 191.786 200.697C190.943 198.678 189.977 196.711 189.135 194.692ZM125.809 211.386C126.495 211.082 127.191 210.793 127.869 210.473C128.922 209.974 129.407 209.422 130.329 208.777C131.448 207.994 130.817 206.195 129.359 206.544C128.465 206.758 127.806 206.687 126.94 207.035C126.288 207.297 125.656 207.614 125.018 207.907C123.542 208.585 122.065 209.264 120.589 209.945C117.864 211.202 115.141 212.462 112.42 213.726C106.642 216.411 100.922 219.213 95.1937 221.997C89.5774 224.727 83.9623 227.459 78.358 230.212C75.5562 231.589 72.7778 233.004 70.0028 234.431C68.6717 235.115 67.3345 235.79 66.0218 236.507C64.7368 237.208 63.1771 237.836 62.1993 238.915C62.1233 238.999 62.1678 239.162 62.3009 239.153C64.8891 238.983 67.8033 237.175 70.1609 236.141C72.9182 234.931 75.6808 233.734 78.4228 232.491C84.2427 229.853 90.07 227.228 95.9126 224.638C101.642 222.098 107.402 219.62 113.117 217.052C115.972 215.77 118.83 214.492 121.69 213.218C123.062 212.606 124.435 211.996 125.809 211.386ZM29.6521 217.885C27.9389 218.849 26.3954 216.274 28.1035 215.313C30.5025 213.964 33.1298 213.063 35.6159 211.882C37.3847 211.041 38.9382 213.611 37.1645 214.454C34.6788 215.635 32.0511 216.535 29.6521 217.885ZM155.372 230.752C156.151 231.205 156.976 230.858 157.471 230.218C158.778 228.528 160.119 226.879 161.65 225.372C163.039 224.006 160.87 221.899 159.48 223.266C157.766 224.953 156.284 226.823 154.821 228.715C154.32 229.363 154.719 230.373 155.372 230.752ZM230.495 238.902C228.831 237.775 227.619 236.199 226.208 234.808C224.82 233.441 226.989 231.335 228.378 232.703C229.582 233.888 230.627 235.37 232.044 236.33C232.726 236.791 233.042 237.625 232.595 238.367C232.2 239.022 231.175 239.362 230.495 238.902ZM107.382 241.014C107.067 240.271 107.727 239.368 108.454 239.182C109.325 238.959 110.024 239.473 110.342 240.222C111.183 242.208 112.381 244.031 113.924 245.57C115.302 246.945 113.133 249.052 111.754 247.676C109.821 245.747 108.432 243.492 107.382 241.014Z" transform="translate(13.42568 2.605926)" id="ðŸ–-Ink" fill="#000000" fill-rule="evenodd" stroke="none" />
  </g>
</svg>