<?xml version="1.0" encoding="utf-8"?>
<svg width="314px" height="273px" viewBox="0 0 314 273" version="1.1" xmlns:xlink="http://www.w3.org/1999/xlink" xmlns="http://www.w3.org/2000/svg">
  <desc>Created with Lunacy</desc>
  <defs>
    <rect width="313.783173" height="272.9061" id="artboard_1" />
    <clipPath id="clip_1">
      <use xlink:href="#artboard_1" clip-rule="evenodd" />
    </clipPath>
  </defs>
  <g id="body/Device" clip-path="url(#clip_1)">
    <use xlink:href="#artboard_1" stroke="none" fill="#FFFFFF" />
    <path d="M264.191 122.092C262.986 118.881 264.746 115.677 265.722 112.57C269.19 101.795 259.704 74.6172 253.07 74.22C250.644 68.1274 244.168 65.6002 239.072 62.0915C233.288 58.588 227.662 54.564 221.647 51.4925C221.313 48.5903 217.687 47.871 215.47 49.947C209.38 46.2704 202.078 46.9532 195.55 44.5443C190.59 36.7628 190.218 28.5804 188.904 21.0733C188.332 17.801 188.94 14.6436 186.636 11.726C178.897 1.16158 148.318 -3.419 137.044 2.84146C130.975 -0.832162 130.829 5.82109 129.865 9.92734C128.794 11.9818 128.214 14.3084 128.393 16.7597C125.52 22.5843 123.084 29.8695 117.046 34.2197C109.384 39.7394 97.5968 41.8377 90.1271 44.5443C88.4516 42.9795 87.9393 40.7169 87.9393 40.7169C76.3623 43.1597 65.1263 47.4536 55.4266 54.1582C44.4066 57.2864 36.6457 65.9855 31.0336 75.3131C30.4153 76.2964 30.2695 77.299 30.4502 78.2198C13.1925 102.773 4.95588 132.167 3.79895 161.854C-7.29892 168.319 9.07381 226.391 12.8852 238.448C12.8891 238.446 12.8929 238.445 12.8967 238.443C15.3694 242.692 18.177 254.816 24.3652 253.878C28.6101 258.536 35.3748 257.62 41.1353 257.978C40.197 261.471 40.6581 265.468 41.7748 268.92C43.0955 273.029 49.5768 273.168 50.4959 268.688C107.861 279.505 166.72 270.874 224.729 272.498C241.502 272.613 258.273 273.117 275.005 274.277C277.361 274.44 279.749 272.103 279.589 269.827C275.992 232.68 272.613 183.814 268.591 147.031C267.637 138.642 266.882 130.162 264.191 122.092Z" transform="translate(21.09784 -12.28634)" id="âœ‹-Skin" fill="#D08B5B" stroke="none" />
    <path d="M87.9992 0.246817C87.978 0.165248 87.9581 0.082976 87.9393 0C76.3623 2.44275 65.1263 6.73665 55.4266 13.4413C44.4066 16.5695 36.6457 25.2686 31.0336 34.5962L30.9588 34.7192C30.4037 35.6628 30.277 36.6204 30.4502 37.5028C13.1925 62.0558 4.95588 91.4496 3.79895 121.137C-7.29892 127.602 9.07381 185.674 12.8852 197.731L12.8967 197.726C13.5129 198.785 14.1498 200.332 14.8547 202.045C16.9785 207.206 19.719 213.865 24.3652 213.161C27.8162 216.948 32.9328 217.051 37.8212 217.149C38.9457 217.172 40.0581 217.194 41.1353 217.261C40.197 220.754 40.6581 226.985 41.7748 230.437C43.0955 234.545 226.326 237.893 275.005 233.56C277.355 233.351 279.749 231.386 279.589 229.11C275.992 191.963 272.613 143.097 268.591 106.314C267.637 97.9253 266.882 89.4447 264.191 81.3752C263.229 78.8105 264.157 76.2511 265.067 73.7418C265.297 73.1088 265.525 72.4791 265.722 71.8532C269.19 61.0781 260.354 33.9649 254.019 33.5618L253.07 33.503C250.699 27.5506 244.464 25.0013 239.425 21.615L239.072 21.3745C233.288 17.8711 227.662 13.8471 221.647 10.7755C221.313 7.87332 217.687 7.15401 215.47 9.23003C214.501 8.64513 213.502 8.17056 212.479 7.77632L212.075 13.18C205.161 38.1886 185.926 52.1033 154.368 54.9243C107.032 59.1558 85.6952 13.1109 85.6952 8.45787C85.6952 6.41694 86.3902 3.84088 87.7799 0.729684L87.9992 0.246817ZM155.737 109.693L151.537 112.328C151.537 112.328 151.537 120.585 152.509 129.696C153.48 138.806 161.075 148.976 161.075 148.976C161.075 148.976 183.453 143.009 187.837 142.203C192.221 141.398 195.693 134.412 197.754 132.011C199.814 129.61 207.716 129.343 213.737 127.493C219.758 125.643 222.112 118.042 222.112 118.042C222.112 118.042 235.273 115.286 239.512 114.365C243.751 113.445 239.512 109.693 239.512 109.693L206.655 108.577C206.655 108.577 226.326 104.497 230.539 103.935C234.753 103.373 246.071 99.9624 246.071 97.3198C246.071 94.7698 229.365 94.7762 220.084 94.7798C219.748 94.7799 219.421 94.7801 219.104 94.7801C210.078 94.7801 190.079 96.4254 190.079 96.4254L197.754 92.8581C197.754 92.8581 223.726 87.9767 227.19 87.9767C230.653 87.9767 232.096 82.9464 232.096 82.9464C232.096 82.9464 230.608 79.5947 228.13 77.73C225.653 75.8653 206.188 79.5947 192.043 82.9464C177.898 86.2982 172.336 92.01 172.336 92.01L155.737 109.693Z" transform="translate(21.09784 28.43063)" id="ðŸ‘•-Top" fill="#FFCF77" fill-rule="evenodd" stroke="none" />
    <path d="M14.3404 43.3658L31.2009 6.29805C31.2009 6.29805 33.7486 9.74561e-16 38.0747 0C42.4007 0 81.628 1.19233 81.628 1.19233C81.628 1.19233 89.656 2.18616 87.0638 6.29805C84.4716 10.4099 45.9268 86.9256 45.9268 86.9256L29.5793 86.9256L29.5793 83.0596L47.779 78.1211C47.779 78.1211 51.0915 74.7101 45.9268 74.7101C40.762 74.7101 10.7142 73.5943 10.7142 73.5943L39.3655 69.5141L53.5382 64.224L51.4535 61.4427L39.3655 59.767L0 61.4427L10.7142 57.9262L34.6564 52.994C34.6564 52.994 39.3655 49.7755 39.3655 46.6192C39.3655 43.4628 26.7508 42.2489 26.7508 42.2489L14.3404 43.3658Z" transform="translate(213.6315 63.41346)" id="ðŸ“±-Device" fill="#FFFFFF" stroke="none" />
    <path d="M133.496 0.29404C133.661 -0.141567 134.331 -0.0838587 134.344 0.405362C134.608 10.8499 131.929 23.6132 123.318 30.6681C118.898 34.2896 113.054 35.947 107.687 37.8515L107.082 38.0683L97.5999 41.4965C97.2423 41.6258 96.8808 41.765 96.5172 41.9049C94.3235 42.7492 92.0564 43.6219 90.1508 42.52C91.9484 46.8463 93.4575 51.2917 95.6466 55.4613C98.3717 60.6517 101.666 65.4006 105.699 69.7198C121.674 86.831 146.957 92.0504 169.646 87.0368C181.329 84.4548 192.698 79.5619 200.669 70.6375C206.726 63.854 210.207 54.7494 211.027 45.7688C210.787 45.8061 210.536 45.8046 210.278 45.7495C207.407 45.1417 204.509 43.6482 201.983 42.1836L201.74 42.042C199.309 40.622 196.776 38.9946 195.032 36.7882C193.299 34.5972 191.481 27.4498 191.481 27.4498C190.986 24.7637 190.521 19.4124 190.601 16.6971C190.608 16.4409 191.779 16.2898 191.904 16.556C192.987 18.8611 193.336 23.9258 194.172 26.3249L194.34 26.8039C195.232 29.3092 195.997 32.3596 197.846 34.385C201.318 38.1881 206.557 39.798 211.232 41.7054C211.568 37.407 218.642 37.5072 218.552 41.9902C218.547 42.2333 218.536 42.4753 218.527 42.7177C219.085 43.0154 219.621 43.3558 220.123 43.6842L220.612 44.0067C222.464 45.2293 224.33 46.3913 226.302 47.4286C230.12 49.4372 234.162 51.0296 238.074 52.8528C242.032 54.6977 245.733 56.8954 249.189 59.5258C250.812 60.7609 252.369 62.0765 253.845 63.4744L254.245 63.8577C255.65 65.2159 257.479 66.7346 258.279 68.5194C258.456 68.913 259.34 69.8283 259.819 69.8588C267.252 70.3318 274.669 70.9996 282.055 72.0009C283.967 72.2601 284.723 73.2166 284.016 74.7635C281.587 80.0794 272.078 101.309 269.549 107.007C269.7 109.145 269.67 111.477 269.64 113.805C269.611 116.041 269.582 118.262 269.712 120.306C270.101 126.416 270.611 132.524 271.222 138.616C273.409 160.41 276.723 182.098 279.718 203.797C281.218 214.657 282.584 225.532 283.933 236.41C284.615 241.908 285.193 247.41 285.638 252.931C285.823 255.231 285.991 257.533 286.14 259.836L286.267 261.879C286.286 262.148 286.307 262.417 286.328 262.684C286.507 264.962 286.677 267.136 285.21 269.111C284.467 270.111 282.77 270.675 281.793 269.538C280.565 268.109 280.108 267.041 279.991 265.163C279.901 263.726 279.88 262.282 279.812 260.844C279.666 257.725 279.483 254.608 279.268 251.493C278.84 245.266 278.351 239.04 277.784 232.823C275.798 211.023 272.024 189.387 269.512 167.64C268.247 156.677 267.347 145.693 266.871 134.67C266.633 129.165 266.547 123.66 266.603 118.15C266.624 116.092 266.724 114.043 266.87 111.999C263.108 120.295 259.152 128.51 255.017 136.617L254.037 138.537C251.416 143.66 248.725 148.803 245.576 153.634L245.034 154.457C243.758 156.419 242.015 159.513 239.688 160.132C238.493 160.45 237.102 160.368 235.788 160.291C235.32 160.264 234.862 160.237 234.426 160.229C232.776 160.198 231.125 160.191 229.477 160.127C227.629 160.054 225.865 159.819 224.079 159.351C223.782 159.274 223.501 159.189 223.245 159.082C221.445 161.941 218.387 164.118 215.261 165.387C212.756 166.403 210.131 167.099 207.502 167.744L206.574 167.97C203.755 168.651 200.531 168.975 198.941 171.617L198.572 172.23C197.39 174.178 196.256 175.89 194.3 177.287C192.194 178.792 189.7 179.738 187.215 180.474C184.671 181.228 182.067 181.805 179.483 182.423L178.779 182.593C177.074 183.007 175.353 183.387 173.657 183.838C172.934 184.03 172.198 184.228 171.489 184.465C170.658 184.742 170.054 185.175 169.398 185.645C168.809 187.643 166.291 188.728 164.22 188.589C163.133 188.516 162.157 188.158 161.27 187.633C159.72 188.913 158.014 190.059 156.435 191.245C154.224 192.906 152.003 194.555 149.771 196.188C145.168 199.556 140.53 202.879 135.843 206.136C127.525 211.918 119.027 217.436 110.383 222.749C106.779 224.964 103.151 227.175 99.4872 229.334L99.8782 229.475L100.654 229.759C102.487 230.423 104.53 231.497 104.885 233.573C105.166 235.219 104.219 236.354 102.544 236.555C100.554 236.793 99.0047 235.428 97.7653 234.125C97.2182 233.551 96.606 233.017 96.082 232.425C95.8684 232.184 95.7042 231.905 95.5596 231.613C91.9439 233.681 88.2898 235.68 84.5777 237.548L83.6485 238.013C74.4433 242.581 65.4836 247.587 56.2001 252.025C53.7785 253.183 50.8259 254.436 47.7483 255.291C48.565 258.363 48.5523 261.736 48.573 264.854C48.5926 267.893 43.6169 267.879 43.722 264.854L43.7727 263.394C43.8633 260.938 44.0113 258.388 44.6116 255.999C35.5439 257.458 26.4854 254.286 24.7988 253.334C22.9372 252.283 21.2474 250.602 19.8412 249.042C16.8318 245.704 14.7435 241.702 12.8907 237.676C8.92204 229.055 6.11026 219.839 4.05456 210.623C-3.52419 176.643 -0.26437 140.275 12.0434 107.703C15.1183 99.5645 18.7487 91.6055 22.9088 83.9347L23.4253 82.9864C27.5767 75.4007 32.1906 67.8439 38.0513 61.3885C44.1559 54.6649 51.6863 49.4357 59.8853 45.3768C63.8866 43.3961 68.0038 41.6793 72.2119 40.1581C72.8878 39.9134 73.5683 39.6942 74.2503 39.4853C78.6356 36.7719 83.9576 34.1761 89.2816 34.2781C89.6433 34.2844 89.9364 34.4177 90.1551 34.6184C90.4117 34.662 90.6683 34.7148 90.9253 34.7874C91.4927 34.9472 92.0918 35.5507 92.0105 36.1706L91.9829 36.3768C91.9679 36.4776 91.949 36.5749 91.9165 36.6698C92.1068 36.6974 92.2936 36.7413 92.4766 36.802C97.5704 35.4058 102.582 33.2706 107.553 31.5483L108.685 31.1603C112.848 29.7443 117.119 28.3564 120.534 25.554C123.932 22.7662 126.486 19.1551 128.333 15.2514C130.609 10.4418 131.628 5.23167 133.496 0.29404ZM85.1102 37.7858C86.1847 37.587 87.2603 37.3803 88.3359 37.1465C88.7264 37.1987 89.115 37.2746 89.5005 37.3729C88.9278 37.8688 88.5097 38.6064 88.3785 39.3689C88.192 39.3987 88.019 39.5159 87.9799 39.7025C85.7194 50.5662 92.3886 62.0227 99.1503 70.2028C101.306 72.8112 103.714 75.2283 106.308 77.451C105.848 77.5333 105.403 77.6751 104.956 77.8237L104.623 77.9332C104.18 78.0792 103.74 78.2276 103.308 78.4049C101.941 78.9652 101.065 79.8267 100.656 81.2583C100.004 83.5361 101.837 85.8392 104.257 85.847C105.521 85.8515 106.695 85.4323 107.523 84.4751C107.865 84.0796 108.172 83.657 108.473 83.231L108.951 82.5531C109.219 82.1668 109.452 81.7923 109.643 81.3525C109.786 81.0252 109.858 80.6771 109.918 80.3249C115.398 84.3738 121.542 87.6018 127.949 89.8613C140.374 94.2431 153.93 95.0127 166.919 92.9158C179.653 90.8602 192.67 86.0276 202.089 77.2317C211.158 68.7623 217.195 57.4894 218.354 45.3557C220.195 47.2798 222.212 49.058 224.47 50.4709C228.037 52.704 231.949 54.28 235.75 56.0876C239.549 57.8948 243.207 59.9936 246.534 62.5406C248.215 63.8277 249.814 65.2201 251.328 66.6889C252.24 67.5746 253.068 68.6022 253.976 69.5252C250.434 69.3446 246.89 69.1987 243.344 69.0754C242.53 69.0472 241.708 69.0046 240.881 68.9618C238.604 68.8439 236.297 68.7246 234.056 68.8997C231.09 69.1316 229.024 70.6302 227.471 73.0301C223.978 78.4287 221.204 84.4469 218.422 90.2446L217.349 92.4721C216.522 94.1946 215.704 95.9348 214.917 97.6918C214.315 97.2707 213.64 96.9143 213.022 96.6031L212.572 96.3779C211.309 95.7469 209.959 95.607 208.566 95.5442L208.185 95.5287C206.84 95.4781 206.42 97.0447 207.168 97.9119C207.99 98.865 208.652 99.8758 209.616 100.706C210.645 101.593 211.419 102.589 212.615 103.184C211.352 106.448 210.281 109.772 209.546 113.158C208.144 113.429 206.746 113.723 205.356 114.04C200.134 115.233 194.991 116.726 189.867 118.263C188.239 118.751 186.586 119.219 184.956 119.745C185.283 119.315 185.494 118.781 185.525 118.168C185.602 116.633 184.823 115.131 184.067 113.673C183.721 113.005 183.379 112.346 183.127 111.698L182.907 111.145C182.159 109.313 181.29 107.576 180.468 105.764C180.079 104.905 178.482 105.1 178.332 106.035C177.946 108.443 177.795 110.604 178.186 113.02C178.563 115.349 178.818 118.449 180.673 120.118C181.071 120.477 181.519 120.695 181.976 120.803C180.034 121.574 178.172 122.507 176.479 123.75C172.686 126.536 169.536 130.253 166.561 133.914L164.843 136.036C162.516 138.902 160.279 141.831 158.076 144.785C156.612 144.774 155.217 145.284 154.011 146.114C153.584 145.654 152.984 145.349 152.315 145.371C150.069 145.442 148.46 146.458 146.532 147.479L144.472 148.57C143.098 149.296 141.724 150.021 140.348 150.744C136.423 152.806 132.475 154.827 128.545 156.882C120.703 160.983 112.77 164.935 104.767 168.736C93.4232 174.123 81.588 178.673 69.54 182.475C69.871 180.672 69.8676 178.716 69.9546 176.83C70.1714 172.148 70.3367 167.473 70.4257 162.786C70.5124 158.238 70.497 153.652 70.2281 149.111L70.1999 148.614C69.9717 144.451 69.9013 139.865 67.8767 136.127C67.7091 135.817 67.2568 135.923 67.1536 136.218C65.7619 140.21 65.2889 144.587 64.6203 148.741C64.3675 150.314 64.145 151.895 63.9444 153.48C63.7917 153.435 63.6318 153.395 63.4626 153.359C62.3709 153.132 61.2688 153.071 60.1614 153.204C58.9389 153.351 58.4743 155.072 59.8507 155.432L60.0679 155.494C61.3548 155.886 62.3503 156.683 63.5044 157.284C63.3253 158.996 63.1688 160.709 63.0292 162.417C62.6655 166.851 62.3552 171.279 62.112 175.722C61.9961 177.838 61.8032 179.964 61.7426 182.082C61.7153 183.033 61.8519 183.895 62.0886 184.726C59.9362 185.346 57.7792 185.945 55.6184 186.52L55.3291 186.597C49.4393 188.174 43.7309 190.053 38.8372 193.373C37.1635 194.509 37.6036 196.138 39.1832 195.3C43.7271 192.886 48.6559 191.001 53.7395 190.048C53.7395 190.048 59.089 189.129 60.9622 188.749C61.0792 189.284 64.0175 195.198 67.5643 193.656C71.111 192.115 66.2102 187.633 66.2102 187.633C70.2767 186.72 76.2878 185.239 80.2968 184.043C87.4044 181.921 94.2964 179.119 101.133 176.265L105.071 174.617C113.167 171.234 121.049 167.458 128.854 163.489C133.224 161.267 137.539 158.952 141.842 156.609C143.99 155.439 146.135 154.263 148.278 153.085C148.876 152.757 149.475 152.45 150.061 152.137C149.63 154.336 149.647 156.712 149.711 158.982L149.751 160.329C149.844 163.427 150.148 166.582 150.777 169.621C151.819 174.657 153.91 179.539 157.133 183.634C157.331 183.886 157.535 184.14 157.745 184.395C156.882 185.024 156.037 185.68 155.176 186.306C153.108 187.807 151.031 189.296 148.944 190.773C144.961 193.592 140.937 196.357 136.878 199.073C128.759 204.506 120.519 209.785 112.191 214.911C99.2619 222.868 86.1237 230.504 72.7012 237.64C72.603 237.175 72.524 236.709 72.4918 236.251L72.485 236.173C72.2726 234.144 69.4164 233.155 68.2637 235.14C67.1973 236.974 66.7535 238.643 67.0071 240.629C64.9997 241.668 62.987 242.697 60.9665 243.711L60.4941 243.95C55.925 246.264 51.2991 248.863 46.427 250.49C43.9634 251.313 42.6415 251.762 37.7584 251.762C32.8754 251.762 28.7524 249.723 27.5394 248.783C26.0825 247.654 24.7465 246.463 23.5427 245.073C21.0927 242.246 19.1083 239.027 17.6096 235.636C14.5543 228.725 12.4416 221.344 10.6288 214.031L10.3209 212.778C8.92534 207.052 7.82979 201.243 7.02769 195.393C8.07759 195.559 9.06267 195.629 10.1763 195.47C11.454 195.288 12.7157 195.039 13.9697 194.74C17.3392 193.935 15.8355 188.652 12.5388 189.702C11.3965 190.065 10.2445 190.387 9.07341 190.651C8.17042 190.855 7.36487 191.192 6.54128 191.551C5.46951 182.173 5.1657 172.708 5.65824 163.317C6.24054 152.224 7.88464 141.197 10.5127 130.393C10.7881 130.544 11.133 130.592 11.5342 130.464C14.1814 129.623 16.8509 128.667 19.5963 128.176C20.7739 127.965 21.4874 126.756 21.5446 125.692C21.5703 125.21 21.4303 124.803 21.1821 124.392C20.6301 123.477 19.2744 122.821 18.1854 123.209C15.6157 124.124 13.3241 125.192 11.3884 126.929C12.4832 122.783 13.7207 118.672 15.1036 114.606C20.4858 98.7808 28.0063 83.1842 38.1164 69.6599C43.9693 61.8306 51.0525 55.4431 59.6447 50.5305C63.8976 48.0989 68.3585 46.0229 72.8358 44.0127C77.0558 42.1184 81.023 39.9121 85.1102 37.7858ZM80.7719 55.1288C81.7601 54.2651 83.5798 54.5246 83.9005 55.9304C84.3493 57.8992 84.6225 60.1175 84.3286 62.116C84.1694 63.1991 84.1096 64.4155 83.6708 65.4248C83.1989 66.5101 82.2914 67.3448 81.4363 68.1609C79.7293 69.7902 76.1308 69.2514 75.6735 66.6843L75.6155 66.3695C75.5988 66.2814 75.5818 66.193 75.5647 66.1042C75.3462 64.9671 75.116 63.7693 75.4319 62.6525C75.6889 61.7442 76.2634 60.8177 76.7387 59.975L76.8389 59.7958C77.791 58.0749 79.2751 56.4364 80.7719 55.1288ZM220.026 59.3213L219.669 59.3176C218.159 59.3154 218.077 61.2321 219.334 61.7172C220.497 62.1662 221.617 62.7898 222.578 63.5709C222.628 63.6114 222.677 63.6518 222.727 63.692C223.844 64.6039 224.889 65.4559 226.468 65.1008C227.265 64.9213 227.86 64.1134 227.854 63.3338C227.827 60.0259 222.784 59.3742 220.026 59.3213ZM233.658 72.2129C230.559 72.7966 229.296 76.5094 227.991 78.9294C224.911 84.6407 222.078 90.4566 219.233 96.28C218.358 98.0712 217.505 99.8761 216.645 101.678C216.592 101.819 216.524 101.958 216.445 102.095C214.682 105.778 212.867 109.438 210.746 112.934C212.687 112.581 214.639 112.28 216.598 112.043C216.517 110.579 217.347 108.71 217.994 107.254C218.138 106.929 218.273 106.625 218.387 106.35L218.439 106.223C219.218 104.291 220.035 101.249 222.04 100.247C222.708 99.913 223.423 100.331 223.474 101.045C223.589 102.653 222.392 104.436 221.349 105.991C221.012 106.492 220.692 106.969 220.437 107.408C219.803 108.5 219.186 109.597 218.585 110.705C218.359 111.12 218.171 111.527 217.94 111.893C218.95 111.787 219.961 111.692 220.976 111.623L221.637 111.579C225.397 111.339 229.39 111.27 232.787 113.07C235.939 114.739 237.551 118.302 235.819 121.547C233.662 125.589 228.911 126.125 224.734 126.453C219.516 126.861 214.287 127.599 209.106 128.318C203.747 129.062 198.701 130.979 193.421 131.965C192.93 132.056 192.625 131.433 193.075 131.167C197.239 128.707 202.302 127.353 206.957 125.974L207.334 125.862C209.859 125.109 212.327 124.249 214.939 123.822C217.475 123.408 220.027 123.072 222.585 122.817L222.833 122.794C223.144 122.769 223.507 122.748 223.908 122.724C227.143 122.532 232.801 122.197 232.53 118.596C232.329 115.918 227.844 115.456 225.796 115.424C216.408 115.278 206.952 117.696 198.03 120.288L196.038 120.867C192.385 121.934 188.726 123.032 185.142 124.282C181.079 125.699 177.879 127.909 174.92 130.933C171.64 134.287 168.462 137.716 165.059 140.956C162.914 142.999 160.74 145.005 158.55 146.995C158.055 147.617 157.659 148.294 157.385 149.171C156.921 150.654 157.028 152.032 157.203 153.555C157.644 157.4 157.741 161.286 158.294 165.119C158.807 168.671 159.523 172.353 161.043 175.647C161.644 176.952 162.427 178.233 163.319 179.379L164.039 180.288C164.353 180.682 164.704 181.114 165.072 181.52C165.613 180.879 166.395 180.463 167.305 180.567C169.238 180.788 170.757 180.735 172.653 180.304C174.121 179.971 175.577 179.58 177.038 179.218C179.907 178.508 182.803 177.862 185.643 177.046L186.131 176.903C188.247 176.273 190.364 175.484 192.126 174.158C194.172 172.617 194.802 170.394 196.318 168.472C199.554 164.367 206.549 164.453 211.285 163.328C215.31 162.373 219.183 160.866 221.968 158.032L222.131 157.863C222.007 157.357 222.207 156.786 222.692 156.524L222.797 156.467C222.986 156.365 223.189 156.322 223.389 156.326C223.647 155.958 223.896 155.577 224.123 155.172C224.31 154.838 224.776 155.084 224.715 155.414C224.678 155.611 224.628 155.803 224.58 155.995C226.912 155.413 229.443 155.43 231.856 155.447C232.234 155.449 232.609 155.452 232.98 155.452L236.535 155.44C237.15 155.433 238.067 155.403 238.149 155.367L238.232 155.331C238.274 155.313 238.296 155.305 238.307 155.301C238.312 155.298 238.314 155.298 238.314 155.297L238.311 155.298C238.292 155.302 238.193 155.322 238.294 155.192C238.465 154.972 238.632 154.75 238.797 154.525C239.386 153.725 239.943 152.901 240.49 152.069C234.537 153.541 228.37 154.457 222.291 155.22C215.77 156.04 209.163 156.609 202.584 156.615C200.77 156.617 200.787 153.96 202.584 153.893C209.551 153.635 216.481 153.277 223.401 152.41C226.98 151.962 230.543 151.399 234.087 150.741C235.455 150.487 236.82 150.218 238.182 149.933L239.202 149.717C239.842 149.58 241.651 149.382 242.534 148.807C242.707 148.518 242.88 148.23 243.052 147.941C242.975 147.017 240.766 147.047 239.901 147.059L239.899 147.059L239.898 147.059C239.814 147.06 239.742 147.061 239.687 147.061C238.547 147.058 237.406 147.063 236.265 147.068L236.253 147.068C235.631 147.071 235.009 147.074 234.387 147.075C231.041 147.085 227.696 147.059 224.35 147.033L223.787 147.028C221.98 147.014 220.171 146.988 218.361 146.961C213.101 146.885 207.835 146.808 202.587 147.026C200.874 147.097 199.975 144.431 201.667 143.73C209.139 140.634 217.433 139.961 225.411 139.009C229.607 138.509 233.804 137.931 237.906 136.919L238.92 136.668C241.496 136.027 244.341 135.246 246.511 133.718C243.25 132.438 239.197 132.584 235.816 132.403L235.558 132.388C230.825 132.106 226.083 131.962 221.341 131.955C211.638 131.942 201.932 132.276 192.24 132.722C191.997 132.733 191.947 132.361 192.183 132.311C202.145 130.201 212.269 129.185 222.464 129.028C227.211 128.955 231.962 129.02 236.705 129.224L238.446 129.302C242.491 129.471 246.979 129.517 250.362 131.888C250.878 132.249 251.15 132.71 251.193 133.198C255.731 124.418 259.923 115.454 264.131 106.55C267.403 99.6263 270.553 92.6447 273.944 85.7751L275.042 83.5528C276.511 80.5873 278.017 77.6215 279.69 74.7636C273.437 73.9523 267.149 73.389 260.857 72.9579C255.124 72.5645 236.418 71.6935 233.658 72.2129ZM236.346 91.6259C238.803 88.3786 240.434 84.6488 241.092 80.6691C241.769 76.5692 235.817 75.7374 235.268 79.904L235.251 80.0082C234.226 81.026 233.329 82.4996 232.745 83.51L232.359 84.1838C231.054 86.485 229.986 89.23 231.718 91.6259C232.942 93.3196 235.111 93.2578 236.346 91.6259ZM42.0347 93.3216C42.7586 93.2723 43.487 93.3659 44.2143 93.4594C44.5188 93.4986 44.8232 93.5377 45.1269 93.5663L46.2216 93.6693C48.4783 93.8873 50.5942 94.156 52.7463 95.0473C56.7173 96.6922 54.5845 102.888 50.5981 102.746C47.6517 102.641 45.1323 101.412 42.6442 99.9827C40.4692 98.7329 39.1358 97.1691 37.6671 95.2067C37.1807 94.5566 37.8585 93.828 38.5209 93.7625C39.6878 93.647 40.8674 93.4009 42.0347 93.3216ZM155.593 106.117C151.624 105.961 147.663 105.789 143.699 105.536L143.625 105.533C142.317 105.517 142.223 107.375 143.388 107.765C147.216 109.045 151.01 110.401 154.804 111.774C158.644 113.163 160.19 106.298 155.593 106.117ZM97.0533 111.315C97.5157 111.172 97.9733 111.021 98.4285 110.871C100.524 110.18 102.571 109.505 104.827 109.731C105.557 109.804 106.08 110.494 105.681 111.175C104.38 113.398 102.263 114.653 100.18 116.14L99.9958 116.272C97.7153 117.918 95.2668 119.418 92.7869 120.769C88.517 123.095 84.6907 116.439 89.0027 114.486C91.5973 113.311 94.3228 112.157 97.0533 111.315ZM240.489 139.875C243.856 138.903 247.681 137.73 250.163 135.178C248.325 138.68 246.425 142.149 244.442 145.57C244.096 145.298 243.699 145.075 243.274 144.914C241.493 144.238 239.398 144.261 237.409 144.282C236.764 144.289 236.131 144.296 235.523 144.279C232.116 144.183 228.709 144.111 225.301 144.051C222.346 144 219.384 143.979 216.422 143.943C220.338 143.316 224.286 142.827 228.265 142.28C232.383 141.714 236.497 141.026 240.489 139.875ZM122.117 144.443C121.796 143.323 123.233 142.582 124.07 143.339C125.743 144.853 127.493 146.255 129.132 147.807L129.242 147.913C130.415 149.057 132.123 151.263 130.596 152.744C128.641 154.642 125.918 151.826 124.868 150.358C123.538 148.496 122.74 146.62 122.117 144.443ZM27.1828 153.735C26.6181 153.614 25.9917 154.225 26.3707 154.76C27.0858 155.77 27.8031 156.882 28.6758 157.773C29.5119 158.627 30.6276 159.321 31.6651 159.985L32.104 160.268C34.4788 161.818 37.2005 163.683 39.9858 164.409C41.4872 164.801 43.078 164.143 43.8808 162.871C44.1797 162.397 44.2723 161.944 44.3281 161.426L44.3519 161.181C44.4451 160.136 43.6518 158.719 42.6433 158.291C40.1204 157.221 37.3359 156.776 34.7289 155.89C33.4846 155.467 32.2685 154.852 31.0123 154.481C29.7855 154.118 28.4352 154.002 27.1828 153.735ZM79.6383 164.451C81.3069 161.614 85.2622 159.079 88.7138 159.33C93.8966 159.707 94.9542 166.48 89.9364 168.096C86.937 169.062 82.8106 168.07 80.1868 166.481C79.4795 166.052 79.2202 165.162 79.6383 164.451ZM232.87 168.156C232.694 167.303 231.602 166.99 230.889 167.374C228.039 168.91 226.035 171.83 224.945 174.76C224.528 175.878 225.049 177.1 225.808 177.93C226.441 178.624 227.259 178.864 228.182 178.885C229.347 178.911 230.507 178.248 231.081 177.271C231.999 175.71 232.432 174.287 232.784 172.534C232.937 171.773 233.224 170.926 233.224 170.148C233.224 169.497 233.001 168.792 232.87 168.156ZM245.898 172.278C245.989 171.894 246.604 171.897 246.696 172.278C247.536 175.749 247.516 179.487 247.762 183.046L247.791 183.441C248.087 187.365 248.335 191.301 248.513 195.232C248.861 202.967 249.276 210.702 249.742 218.431C249.974 222.263 250.222 226.095 250.486 229.927C251.314 229.479 252.166 229.086 253.05 228.739C254.374 228.219 255.664 228.16 257.086 228.174C258.819 228.191 260.124 229.67 259.894 231.318C259.644 233.112 258.017 233.881 256.326 233.624C254.455 233.34 252.575 232.9 250.685 232.717C250.895 235.679 251.113 238.641 251.343 241.6C251.649 245.519 252.047 249.432 252.327 253.353C252.354 253.726 252.383 254.101 252.413 254.477C253.54 253.908 254.736 253.617 256.093 253.258L256.446 253.162C256.603 253.118 256.762 253.073 256.921 253.027C258.75 252.505 260.668 251.957 262.345 253.139C263.57 254.003 263.815 255.426 262.8 256.565C261.423 258.112 259.457 258.007 257.536 257.904C257.309 257.892 257.082 257.88 256.858 257.871L255.714 257.83C254.636 257.789 253.642 257.722 252.646 257.458C252.829 260.012 252.925 262.576 252.603 265.092C252.428 266.452 250.583 266.809 250.095 265.421C248.819 261.795 248.556 257.885 248.089 254.087C247.653 250.54 247.388 246.967 247.103 243.404L247.016 242.335C246.374 234.496 245.86 226.654 245.485 218.799C245.11 210.945 244.884 203.093 244.794 195.232C244.754 191.662 244.815 188.08 244.959 184.511L245.004 183.441C245.17 179.77 245.054 175.875 245.898 172.278ZM260.7 184.262C259.434 183.539 257.497 184.76 258.059 186.233C258.536 187.483 258.979 188.835 259.631 190.013C260.324 191.264 261.502 192.428 262.458 193.499L262.574 193.627C264.234 195.436 267.515 197.91 269.989 195.973C272.589 193.937 269.588 190.428 267.77 189.01L267.28 188.633C266.288 187.856 265.346 187.006 264.312 186.288C263.187 185.508 261.893 184.943 260.7 184.262ZM184.013 189.053C183.942 188.646 184.249 188.331 184.676 188.409C187.141 188.863 189.418 190.019 191.535 191.347C192.671 192.06 193.766 192.842 194.899 193.562C196.298 194.45 196.822 195.184 197.029 196.815C197.165 197.891 196.13 198.874 195.181 199.171C192.593 199.981 189.628 197.323 187.875 195.597L187.796 195.519C185.961 193.703 184.448 191.557 184.013 189.053ZM100.346 190.437C99.3232 189.83 98.1938 191.02 98.7466 191.989C100.849 195.677 103.509 198.345 107.394 200.255C109.138 201.113 110.77 200.555 111.911 199.106C112.237 198.693 112.308 198.199 112.347 197.701L112.362 197.488C112.461 196.081 111.264 194.776 109.938 194.398C106.661 193.466 103.263 192.167 100.346 190.437ZM49.4532 213.892C49.9906 212.477 47.9391 211.95 47.1524 212.95C45.6744 214.828 43.8124 215.974 42.0908 217.597L41.9472 217.731C40.347 219.195 38.064 220.588 37.1358 222.51C36.3748 224.086 36.4281 225.905 37.7588 227.196C38.9299 228.333 41.1644 228.785 42.5868 227.801C46.9958 224.749 47.7074 218.485 49.4532 213.892ZM231.428 218.237C232.832 217.649 236.492 216.507 237.577 217.859C237.628 217.908 237.671 217.962 237.706 218.022C237.972 218.471 238.011 219.104 237.706 219.549C236.442 221.392 235.125 222.769 233.328 224.081L233.127 224.226C231.17 225.622 229.333 227.262 226.949 227.891C223.645 228.764 221.337 224.749 223.658 222.405C225.527 220.516 228.381 219.535 230.858 218.482L231.428 218.237ZM158.551 224.977C159.89 224.254 161.273 225.972 160.185 227.032L158.56 228.61C157.052 230.081 155.584 231.567 154.294 233.244L153.981 233.653C152.239 235.954 150.381 238.62 147.526 239.479C144.073 240.519 140.754 236.437 142.754 233.455C144.501 230.848 147.865 229.865 150.765 228.788C153.508 227.768 155.986 226.361 158.551 224.977ZM182.057 244.374C184.534 244.035 186.678 244.768 188.947 245.542C189.136 245.607 189.327 245.672 189.519 245.737L189.721 245.805C192.249 246.652 195.938 247.239 197.234 249.75C198.016 251.265 197.409 253.276 195.569 253.724C193.112 254.322 190.87 252.947 188.782 251.667C188.394 251.428 188.011 251.193 187.633 250.975L187.507 250.903C185.181 249.581 182.781 248.469 181.296 246.189C180.9 245.58 181.244 244.485 182.057 244.374ZM78.4134 253.491C77.7977 253.413 77.3838 254.036 77.3347 254.538C77.3307 254.579 77.3266 254.62 77.3224 254.662C77.2577 255.313 77.1858 256.037 77.3642 256.668C77.5595 257.356 78.0878 257.99 78.5533 258.559L78.8593 258.936C79.9395 260.259 81.1369 261.402 82.7434 262.117C84.7815 263.024 87.1402 262.533 88.0789 260.371C88.9715 258.314 87.7969 256.112 85.6415 255.445C84.4926 255.089 83.272 254.865 82.1523 254.43C81.4633 254.163 80.8672 253.738 80.1265 253.619C79.5653 253.528 78.9807 253.562 78.4134 253.491ZM238.057 254.977C237.68 254.076 236.487 253.231 235.479 253.959C232.632 256.016 230.582 260.082 230.691 263.505C230.796 266.788 235.128 267.857 236.938 265.147C238.684 262.532 239.296 257.935 238.057 254.977Z" transform="translate(18.41195 -7.446421)" id="ðŸ–-Ink" fill="#000000" fill-rule="evenodd" stroke="none" />
  </g>
</svg>