<?xml version="1.0" encoding="utf-8"?>
<svg width="314px" height="273px" viewBox="0 0 314 273" version="1.1" xmlns:xlink="http://www.w3.org/1999/xlink" xmlns="http://www.w3.org/2000/svg">
  <desc>Created with Lunacy</desc>
  <defs>
    <rect width="313.783173" height="272.9061" id="artboard_1" />
    <clipPath id="clip_1">
      <use xlink:href="#artboard_1" clip-rule="evenodd" />
    </clipPath>
  </defs>
  <g id="body/jacket" clip-path="url(#clip_1)">
    <use xlink:href="#artboard_1" stroke="none" fill="#FFFFFF" />
    <path d="M131.127 2.87211C138.746 -2.28523 161.87 0.749189 174.523 2.40967C175.838 2.58223 177.04 2.73996 178.1 2.87211C184.014 3.60962 187.506 11.0568 190.612 22.3799C206.82 18.5233 228.09 14.8707 243.369 25.3238C248.088 29.3116 248.97 36.1078 243.527 39.9002C241.753 41.0607 238.335 42.0466 237.794 43.0526C235.604 48.4601 233.162 55.6074 233.55 61.3597C240.509 121.749 254.457 182.303 264.269 242.306L264.529 244.578C265.679 254.786 266.61 266.832 259.464 274.959C254.659 278.912 247.826 278.367 241.954 279.507C208.302 283.882 174.451 283.054 140.592 282.226L140.591 282.226C118.762 281.692 96.93 281.158 75.1467 282.019C65.6768 282.536 56.1563 283.205 46.6638 283.274L46.6598 283.167C47.6831 283.159 48.7067 283.145 49.7313 283.125C48.6818 253.126 46.5163 223.167 45.8173 193.155C45.5968 183.695 45.5323 174.232 45.7249 164.771C45.764 162.854 42.6952 162.854 42.6561 164.771C42.5921 167.91 42.5637 171.049 42.5502 174.188C40.2517 172.438 37.6958 171.051 35.2431 169.49C33.5867 168.436 32.0477 171.013 33.6941 172.062C36.6033 173.913 39.6997 175.467 42.2219 177.833C42.3239 177.93 42.4306 178.003 42.5391 178.065C42.5955 208.218 44.7226 238.351 46.0732 268.465C46.273 272.921 46.4543 277.378 46.6138 281.836L46.6598 283.167L46.6634 283.274C36.3877 283.348 26.1448 282.718 16.0342 280.432C14.326 282.742 10.3473 283.201 8.32462 280.218C7.31269 279.092 7.109 277.177 5.54277 276.748C5.12158 276.429 5.77178 276.202 6.06945 276.352C-7.76272 237.883 4.85996 166.194 16.0123 126.783C20.8913 106.463 32.6187 87.6506 33.8397 66.6152C33.8793 63.5597 33.2109 60.3113 32.539 57.0462C31.0309 49.7169 29.5053 42.3025 35.9303 36.7921C34.5604 29.5104 41.6532 23.4425 48.8142 22.9625C54.6229 2.60597 73.5481 11.3117 91.8247 19.719C101.28 24.0687 110.562 28.3385 117.765 28.4627C120.661 23.7874 127.103 5.59578 131.127 2.87211ZM233.559 133.032C233.574 131.113 236.643 131.115 236.628 133.032L236.622 133.473L236.616 133.778C236.516 137.764 235.789 142.511 232.017 144.75C228.159 147.041 223.137 145.598 219.229 144.081L218.777 143.904C216.971 143.186 217.766 140.306 219.593 141.032L220.436 141.365L221.019 141.59C223.894 142.679 227.498 143.749 230.212 142.324C233.263 140.722 233.519 136.43 233.556 133.408L233.559 133.032ZM63.3463 140.29C63.7748 138.423 60.8169 137.625 60.3872 139.499C59.4839 143.435 60.1405 147.623 61.0798 151.524L61.1428 151.783L61.271 152.3C61.4398 152.971 62.0858 153.345 62.7506 153.393C72.2067 154.072 81.576 151.57 90.7299 149.125C92.5037 148.652 94.2695 148.18 96.0262 147.734L96.8272 147.533L97.6269 147.335C99.5407 146.867 98.7302 143.994 96.811 144.463L95.9566 144.674C93.9701 145.171 91.9724 145.707 89.9645 146.245C81.4552 148.526 72.7636 150.856 63.9793 150.483L63.8652 149.998C63.1533 146.914 62.6498 143.614 63.2931 140.533L63.3463 140.29ZM246.815 205.088C246.813 203.168 249.882 203.172 249.884 205.088C249.905 225.471 251.709 249.874 254.303 270.088C254.547 271.988 251.475 271.965 251.234 270.088C248.64 249.874 246.836 225.471 246.815 205.088ZM214.324 229.001C213.131 227.501 215.721 226.036 216.931 227.446L217.163 227.732C219.581 230.69 222.693 232.966 226.145 234.683L226.206 234.715C227.868 235.62 226.329 238.118 224.596 237.255C220.552 235.243 217.101 232.492 214.324 229.001ZM105.947 231.251C107.689 230.345 106.141 227.773 104.399 228.678C91.6093 235.326 79.6575 243.271 68.1626 251.839C66.6178 252.991 68.1446 255.579 69.7116 254.411C81.2065 245.843 93.1578 237.898 105.947 231.251Z" transform="translate(24.55099 -15.26486)" id="âœ‹-Skin" fill="#D08B5B" fill-rule="evenodd" stroke="none" />
    <path d="M58.3236 1.9344L57.8993 1.82109C52.5172 0.407386 46.8342 -0.187936 41.162 0.0515906C35.3838 0.297098 29.6386 1.49809 24.35 3.58006L24.33 3.58768C24.063 3.68718 22.2772 4.29576 21.638 4.54568L21.4593 4.6164C19.9287 5.23 18.8601 5.86326 18.2223 6.6973L18.1614 6.77687L18.116 6.86559L17.9539 7.18821L17.7976 7.51222L17.748 7.61738L17.7216 7.73019L17.7008 7.82639C17.4031 9.32859 18.4212 10.5988 20.2749 11.9588L20.5161 12.1329L20.6832 12.2504L21.0475 12.4998L21.3767 12.7191L21.6588 12.9016L21.7419 12.9583C22.6655 13.6181 22.9587 14.8403 22.5224 15.9471C22.0891 17.0463 21.1593 17.538 19.9691 17.138L19.7432 17.0647L19.5522 17.0081C19.3627 16.954 19.1769 16.9075 18.9876 16.8658C15.1173 15.9937 10.5623 17.415 6.97083 20.1774L6.88035 20.247L6.57743 20.4843C4.70054 21.9765 3.61674 23.2746 3.43098 24.8823C3.3888 25.2522 3.37872 25.3585 3.38104 25.4908L3.38348 25.5545C3.38734 25.6181 3.39583 25.6821 3.4119 25.7524C3.4545 25.9385 3.53956 26.1198 3.69819 26.2869L3.76153 26.3488L3.82516 26.4027L3.85052 26.4536L3.8901 26.525C3.91681 26.5705 3.94429 26.6124 3.97324 26.6525L4.49358 27.374L5.3378 27.0512L6.1095 26.7538C7.13185 26.3544 8.60047 27.1332 9.13729 28.3163C9.65777 29.4713 9.17741 30.87 8.02852 31.5465C7.45876 31.8825 6.86021 32.1133 6.23516 32.2438L6.13522 32.2647L6.04064 32.3023L5.65983 32.4571C3.03405 33.5477 1.24744 34.7923 0.423993 36.5472C-0.571849 38.6671 0.227586 40.1872 2.39089 40.7476L2.5749 40.7925L2.78092 40.837L2.94911 40.8696C4.80227 41.2138 6.76225 41.0828 9.56131 40.5985L10.0264 40.5166L10.9664 40.3456L11.3124 40.2812C13.853 39.8023 16.4696 39.1646 19.457 38.32L20.2812 38.0844L21.1531 37.832L27.2828 36.0104C33.5139 34.1725 36.9441 33.3141 40.9368 32.6845L41.3019 32.6281L41.6653 32.5743C47.1034 31.7873 51.9753 31.8868 56.6565 33.0232L58.3199 33.4271L58.5285 33.7448L58.6239 33.8355L58.6988 33.9106C58.8925 34.1152 59.0388 34.3568 59.136 34.6287L59.1779 34.7458L59.6337 35.4627C62.4755 39.9606 65.1519 44.76 67.6674 49.8365L67.7017 49.9002L68.0764 50.5515C70.0623 54.0305 71.8442 57.5945 73.4124 61.2287C75.4138 65.8816 77.1174 70.8472 78.851 76.862L78.8683 76.9164L79.2689 78.0843C80.4631 81.5928 81.5874 85.1438 82.6425 88.7366L82.6589 88.7922L82.882 89.3277L83.8768 91.6611C84.8527 93.985 85.3636 95.525 85.6435 97.2122C85.6819 97.4407 85.6279 97.7019 85.4917 97.9343L85.265 98.321L85.3744 98.753L85.6261 99.7558C88.2914 110.461 90.3313 121.431 91.7482 132.604C92.1996 136.191 92.5743 139.603 92.8756 142.916L95.1681 142.919L95.314 141.379C96.3508 130.595 97.7102 119.776 99.3873 108.932C101.821 93.1976 104.932 77.5498 108.71 62.0484C111.205 51.8322 112.654 46.5081 114.714 40.5995L114.967 39.8773C117.239 33.448 119.268 28.9016 121.899 24.8211L122.903 23.2637L121.017 23.1153L118.226 22.9055C116.5 22.7747 115.392 22.6768 114.263 22.5475L113.116 22.4114C109.723 22.0001 106.441 21.5304 103.244 20.9946C100.104 20.4658 96.8462 19.791 93.1686 18.9253L92.1995 18.6951C90.471 18.2831 89.028 17.8585 86.5814 17.0498L86.1106 16.8936L83.7633 16.1037L81.8647 15.4708L81.6675 15.3696L81.3816 15.22C80.3274 14.6633 79.2069 14.0188 78.0236 13.2879L77.7604 13.1233L77.4825 12.9449C76.3817 12.2288 75.4149 11.4827 74.5802 10.7063L74.557 10.5782C74.181 8.6939 72.4761 7.4136 69.6164 6.19449L69.4838 6.13893C68.7093 5.81866 66.761 5.07071 66.4239 4.92296L65.6688 4.59431C63.0315 3.45877 60.7452 2.60878 58.5921 2.00818L58.3236 1.9344ZM196.963 7.40489L196.648 7.34905C186.568 5.59136 175.604 6.63785 161.528 9.82705L160.644 10.0292L159.914 10.1988C159.914 10.1988 158.624 13.6007 158.83 14.3402L158.951 14.7779L159.107 15.4378L159.186 15.783C159.547 17.4023 159.791 19.1405 159.936 21.0207L160.415 27.2313L160.969 25.3643L160.948 26.5865C160.826 33.3841 160.572 39.5739 160.155 45.5344L160.046 47.0375C159.797 50.4105 159.502 53.8539 159.092 58.2702L158.888 60.4385L158.005 69.678L157.415 75.9212C153.866 113.652 152.37 132.818 151.505 155.335L151.453 156.718L151.402 158.122C150.887 172.617 150.771 186.553 151.08 200.101L151.091 200.571L151.125 201.954C151.165 203.468 151.212 205.019 151.269 206.735L151.348 209.041L151.856 222.695L152.119 228.843C152.125 228.993 152.131 229.138 152.137 229.279L152.187 230.646L152.235 232.241C152.287 234.277 152.296 236.091 152.257 237.814L152.238 238.536L152.238 238.754L152.353 239.028L152.922 240.37C153.292 241.243 153.527 241.819 153.726 242.359L153.835 242.661L153.983 243.093C154.107 243.464 154.214 243.811 154.343 244.262L154.466 244.699L154.962 246.519C155.103 247.028 155.216 247.418 155.333 247.795L155.465 248.206L155.738 249.024C155.954 249.666 156.146 250.216 156.344 250.757L159.147 258.409L158.576 250.307L158.542 249.8C158.398 247.596 158.322 245.309 158.303 242.854C158.266 237.906 158.62 232.738 159.359 226.17L159.419 225.64C159.52 224.752 159.627 223.845 159.742 222.911L159.889 221.726L159.935 220.387C160.124 215.228 160.433 210.054 160.862 204.853C163.133 177.262 167.766 149.848 174.71 122.842C178.169 109.398 182.159 96.1087 186.672 83.0138C188.954 76.3772 191.387 69.7532 193.968 63.1445L194.282 62.3385L196.384 56.9335C197.979 52.8796 199.209 49.9733 200.564 47.1424L200.874 46.4951L201.174 45.8834C201.46 45.3077 201.755 44.7318 202.06 44.1539C202.127 44.0296 202.206 43.9379 202.293 43.8756L202.53 43.7048L202.941 42.8387C203.707 41.2331 204.469 39.7 205.24 38.2126L205.371 37.961L205.533 37.4809C205.622 37.2176 205.713 36.9567 205.804 36.6987L206.605 34.436L204.304 35.2928L204.223 35.3204L204.14 35.3436C202.958 35.6429 201.894 35.4518 200.08 34.7148L199.742 34.5748L199.229 34.3567L198.471 34.0373L197.51 33.6488L196.884 33.3914C195.221 32.7029 193.624 31.9963 192.07 31.2596C190.061 30.3086 188.175 29.3407 185.518 27.9098L184.035 27.1065L181.227 25.5745L179.972 24.8938L173.704 21.5323C172.325 20.792 171.093 20.1258 169.968 19.5111L169.029 18.9965L167.766 18.2974C173.592 20.5812 176.862 21.8152 180.282 22.9685L181.333 23.3189L182.417 23.6729C183.001 23.862 183.566 24.0418 184.194 24.2386L185.312 24.5866L191.117 26.3668C191.533 26.4952 191.909 26.6126 192.266 26.7245L193.293 27.0496L194.702 27.505C195.863 27.8853 197.055 28.2944 198.383 28.7652L199.405 29.1304L200.599 29.5617C200.724 29.6061 200.856 29.652 201.001 29.7013L202.232 30.1179L202.732 29.717L202.82 29.6494C202.972 29.5388 203.147 29.4389 203.345 29.3505C203.476 29.2917 203.621 29.2324 203.789 29.1681L204.002 29.0884L204.241 29.0024L205.279 28.6422L205.805 28.4539L206.008 28.3776C207.005 27.9955 207.788 27.6033 208.4 27.1261L208.443 27.0911L209.705 29.5408L209.704 24.7647L209.7 24.6959L209.686 24.5902L209.636 24.2793L209.635 24.2658L209.626 24.2204L209.612 24.1653L209.561 23.9951L209.499 23.8778C209.427 23.7461 209.382 23.6852 209.273 23.5995L209.244 23.5779L209.196 23.4877L209.013 23.4148L209.007 23.4104L208.998 23.4089L208.806 23.3326L208.718 23.2996C208.6 23.258 208.478 23.2252 208.34 23.195L208.24 23.1728L208.162 23.1521C207.097 22.8458 206.354 21.599 206.505 20.3697C206.659 19.1151 207.675 18.306 209.215 18.1501L210.04 18.0713C210.193 18.0546 210.334 18.0369 210.472 18.0167C211.406 17.8796 212.118 17.6406 212.67 17.1578C213.405 16.5138 213.649 15.6661 213.078 14.9155C212.79 14.5367 212.513 14.3795 211.832 14.0745L211.686 14.0087L211.501 13.9231L211.118 13.7321L210.821 13.5891C208.336 12.4095 205.557 11.5422 202.427 10.9049C199.252 10.2579 196.032 10.0035 192.816 10.1485L192.589 10.1597L193.118 10.0676C193.934 9.93081 194.764 9.81772 195.61 9.72778C196.022 9.68362 196.431 9.64665 196.839 9.61678L205.646 8.97221L196.963 7.40489Z" transform="translate(56.00827 -4.449914)" id="ðŸ§¥-Jacket" fill="#FFFFFF" fill-rule="evenodd" stroke="none" />
    <path d="M61.6694 8.26224e-15L61.6008 0.506021L61.5352 1.01232C59.6555 15.5326 58.0713 33.8054 56.6903 48.3744C53.9361 77.4186 52.2482 106.582 52.4822 135.756C52.5431 143.301 52.8245 150.822 53.183 158.354L53.2609 159.968C53.6637 168.178 54.2813 176.852 56.6366 184.772C56.8974 185.646 57.4767 186.149 58.1441 186.332C58.1718 187.255 58.2264 188.181 58.2903 189.097L58.3398 189.783C58.6121 193.487 59.3908 201.183 61.0557 204.541C62.6783 207.818 65.3826 210.417 68.8312 211.847C69.7975 212.247 70.7812 212.533 71.7772 212.733C50.837 213.149 23.3334 212.493 2.35413 212.002C4.53484 211.669 5.77085 209.995 6.05919 207.862C6.63458 203.581 5.55284 199.154 3.10548 195.554C2.85231 195.181 2.5531 194.85 2.21937 194.567L2.27771 192.198C2.31867 190.421 2.33828 188.643 2.23471 186.868C2.01223 182.951 1.6785 179.034 1.38696 175.121C0.79622 167.284 0.339739 159.432 0.159448 151.576C-0.208807 135.864 0.0597121 120.138 0.976512 104.449C2.81395 73.1035 7.09107 38.2363 14.0917 7.57622C14.6019 5.34233 15.1159 3.10845 15.6491 0.878289C21.0924 3.62224 30.7821 4.6085 36.7317 4.64611C44.1888 4.69078 54.9334 3.02617 61.6694 8.26224e-15Z" transform="translate(151.2912 54.74802)" id="ðŸ‘•-Top" fill="#E86BBB" stroke="none" />
    <path d="M304.74 257.858C304.732 257.884 304.72 257.914 304.709 257.94C305.024 258.409 305.261 258.93 305.419 259.459C306.286 262.356 304.325 269.359 301.813 270.785C299.603 272.039 297.029 272.203 294.54 272.389C291.743 272.602 288.943 272.806 286.143 273.015C266.038 274.512 245.938 276.217 225.822 277.49C225.414 277.516 225.005 277.543 224.596 277.571C220.363 277.854 216.072 278.142 212.078 276.489C208.629 275.059 205.925 272.46 204.302 269.183C202.637 265.826 201.859 258.13 201.586 254.425C201.502 253.286 201.425 252.128 201.391 250.974C200.723 250.792 200.144 250.289 199.883 249.414C197.528 241.495 196.91 232.82 196.507 224.61C196.112 216.539 195.794 208.482 195.729 200.398C195.495 171.224 197.183 142.061 199.937 113.017C201.318 98.4478 202.902 83.8981 204.782 69.3779C204.824 69.039 204.87 68.704 204.916 68.3655C198.18 71.3917 190.888 73.0563 183.431 73.0116C177.481 72.974 170.86 71.9878 165.417 69.2438C164.884 71.474 164.37 73.7079 163.859 75.9417C156.859 106.602 152.582 137.746 150.744 169.091C149.827 184.78 149.559 200.507 149.927 216.218C150.107 224.074 150.564 231.926 151.155 239.764C151.446 243.677 151.78 247.593 152.002 251.51C152.128 253.659 152.073 255.811 152.018 257.96C152.007 258.377 151.996 258.793 151.987 259.21C152.321 259.492 152.62 259.824 152.873 260.196C155.321 263.796 156.402 268.223 155.827 272.504C155.512 274.831 154.07 276.612 151.504 276.701C139.271 277.133 127.038 277.565 114.805 277.996C99.7656 278.529 84.7278 279.157 69.6907 279.781C68.6688 249.137 66.4248 218.538 65.7109 187.883C65.4903 178.423 65.4259 168.96 65.6185 159.499C65.6576 157.582 62.5888 157.582 62.5497 159.499C62.4856 162.638 62.4572 165.777 62.4438 168.916C60.1453 167.166 57.5894 165.779 55.1367 164.218C53.4803 163.164 51.9413 165.742 53.5877 166.79C56.4969 168.642 59.5933 170.196 62.1154 172.562C62.2175 172.658 62.3241 172.731 62.4327 172.793C62.4891 202.947 64.6161 233.079 65.9668 263.193C66.2165 268.763 66.4374 274.335 66.6227 279.908C61.0203 280.14 55.4182 280.371 49.8158 280.595C44.4646 280.811 39.1095 280.979 33.7583 281.165C33.57 281.171 33.3816 281.178 33.193 281.185C28.4421 281.351 23.618 281.52 18.9323 280.629C14.6091 279.802 10.8345 277.527 8.38334 273.961C7.22871 272.278 6.45384 270.334 6.23903 268.342C5.28387 268.57 4.09088 268.142 3.69961 267.08C2.15754 262.922 0.485055 259.098 0.124473 254.626C-0.232273 250.237 0.228045 245.884 0.868653 241.543C2.13453 233.014 4.77368 224.778 7.17117 216.505C9.2963 209.159 11.6439 201.866 13.4046 194.424C15.2421 186.642 16.1512 178.853 16.3123 170.871C16.3837 167.274 16.3645 163.677 16.3453 160.081C16.3202 155.372 16.2951 150.663 16.4734 145.955C16.7458 138.673 17.4593 131.42 18.5257 124.205C20.6431 109.886 24.6364 95.7637 30.9696 82.6434C34.0499 76.2545 37.5713 69.914 41.6912 64.091C43.7242 61.2164 46.0296 58.3983 48.4425 55.8107C49.5204 54.6566 50.6213 53.5028 51.7683 52.4152C47.1382 50.993 43.8278 47.2736 44.7753 41.9569C45.2586 39.2618 46.8851 36.7967 49.0716 35.0989C49.1636 35.0245 49.2595 34.9537 49.3554 34.8871C47.0615 31.2343 48.4041 26.8671 50.9666 23.7285C54.0852 19.9085 58.7498 17.1683 63.679 16.312C63.6406 16.204 63.6023 16.0923 63.5639 15.9843C62.463 12.7005 63.702 9.3348 66.4409 7.22006C70.9021 3.77243 77.0435 2.00059 82.5635 0.961459C88.6244 -0.177822 94.808 -0.28207 100.919 0.529202C103.765 0.909335 106.554 1.53855 109.285 2.39487C112.135 3.2847 115.081 4.18905 117.678 5.64144C121.637 7.84927 127.636 11.3006 126.09 16.647C125.895 17.3172 124.993 17.1091 124.924 16.4944C124.61 13.7095 119.677 12.3952 117.41 11.4015C114.885 10.2916 112.143 9.19332 109.473 8.47066C104.03 6.99294 98.3141 6.3898 92.6713 6.62808C87.0631 6.86636 81.4434 8.02798 76.2418 10.0757C74.8033 10.6416 71.0019 11.5985 70.3574 13.2631C69.8357 14.603 71.7499 16.0886 73.058 16.971C73.3226 17.1534 73.5643 17.3098 73.7561 17.4326C76.8978 19.4804 74.9836 24.9757 71.0518 23.654C70.7679 23.5572 70.4802 23.479 70.1925 23.4157C66.3757 22.5557 62.1024 24.2385 59.1449 26.5134C57.9557 27.4255 56.218 28.8738 56.0339 30.4673C55.9733 30.9989 55.9787 30.9989 56.0377 30.9988C56.0871 30.9987 56.1739 30.9985 56.2909 31.3088C56.3177 31.3832 56.3484 31.4354 56.3753 31.4726C56.6285 31.3758 56.8816 31.279 57.1386 31.1785C58.93 30.4785 60.9554 31.7965 61.6498 33.3267C62.4131 35.0207 61.7035 37.0089 60.0847 37.962C59.3904 38.3716 58.6692 38.6433 57.9365 38.7964C55.9917 39.5704 53.7515 40.7212 52.9306 42.4707C52.1365 44.161 52.8577 44.8796 54.488 45.2069C56.8667 45.6872 59.6368 45.18 62.041 44.7399C62.0988 44.7294 62.1563 44.7188 62.2136 44.7083C65.3208 44.1387 68.3819 43.3494 71.4123 42.4745C72.9171 42.0416 74.4274 41.5895 75.943 41.1358C86.5246 37.9682 97.3659 34.7229 108.395 37.4002C108.257 37.0759 108.123 36.7486 107.988 36.4206C107.701 35.7207 108.79 35.3856 109.17 35.9366C109.753 36.7818 110.325 37.6344 110.888 38.4981C111.26 38.8518 111.521 39.2726 111.682 39.7231C114.778 44.5672 117.598 49.6341 120.164 54.8129C122.312 58.5171 124.241 62.3374 125.933 66.2579C128.146 71.4032 129.876 76.6715 131.419 82.0216C132.777 85.9495 134.039 89.9072 135.209 93.891C136.386 96.7429 137.729 99.4199 138.239 102.495C138.323 102.998 138.204 103.515 137.951 103.947C140.782 115.135 142.9 126.494 144.35 137.928C144.783 141.372 145.167 144.82 145.481 148.279C146.544 136.893 147.959 125.538 149.709 114.227C152.148 98.4518 155.267 82.7737 159.049 67.2519C160.818 60.0104 162.624 52.754 165.083 45.702C166.997 40.2104 169.195 34.6335 172.383 29.6892C170.016 29.503 167.638 29.3616 165.286 29.0823C161.681 28.6579 158.086 28.1556 154.507 27.5558C150.771 26.9266 147.066 26.1224 143.383 25.24C139.804 24.3871 136.355 23.0992 132.865 21.96C132.328 21.785 132.55 21.0664 133.095 21.152C140.452 22.3393 147.975 23.0955 155.397 23.8253C155.671 23.852 155.946 23.8789 156.221 23.9059C162.495 24.5205 169.066 25.1643 175.394 24.8715C176.073 24.8417 176.748 24.8007 177.423 24.7486C179.706 24.5699 180.742 27.1724 179.863 28.8738C177.957 32.5523 175.908 36.1749 174.263 39.9688C172.632 43.7254 171.313 47.6124 170.127 51.5183C168.689 56.2687 167.415 61.0678 166.23 65.8893C168.482 66.3286 170.73 66.7903 173.012 67.0434C176.484 67.4348 179.94 67.5457 183.431 67.3487C190.362 66.9541 197.252 65.1856 203.382 62.0098C204.248 61.5593 205.096 61.5146 205.837 61.738C206.496 57.192 207.225 52.661 208.031 48.1448L208.031 48.048C208.249 42.7574 209.02 37.5078 209.297 32.2209C209.519 27.9803 209.404 23.6354 209.838 19.391C209.822 19.3203 209.83 19.2458 209.861 19.1788C209.937 18.449 210.029 17.723 210.144 17.0007C210.179 16.7736 210.493 16.8298 210.559 17.0007C210.885 17.8161 211.161 18.6538 211.399 19.5101C218.883 22.3472 226.256 25.4783 233.881 27.9579C237.909 29.2685 241.987 30.4338 246.015 31.7403C248.101 32.4145 250.157 33.1405 252.217 33.8889C252.636 34.0415 253.05 34.1793 253.456 34.3167C253.702 34.1197 253.99 33.9444 254.323 33.7958C256.042 33.0255 258.992 32.5225 259.989 30.7354C260.005 30.7042 260.006 30.5938 260.007 30.5031C260.008 30.3999 260.009 30.3221 260.031 30.4152C260.001 30.2551 259.978 30.1471 259.966 30.0801C259.981 30.1546 260.001 30.2477 260.012 30.27C260.012 30.251 259.997 30.1434 259.951 29.8716C259.951 29.8679 259.947 29.8716 259.947 29.8716C259.955 29.9982 259.878 29.92 259.828 29.827C259.744 29.7934 259.648 29.7678 259.544 29.745C257.665 29.3578 256.61 27.4144 256.821 25.698C257.058 23.7545 258.677 22.6897 260.553 22.4998C261.401 22.4146 262.697 22.3658 263.357 21.7887C264.108 21.1309 263.453 20.8377 262.77 20.532C262.633 20.4709 262.495 20.4093 262.367 20.3441C259.64 18.9628 256.648 18.0693 253.648 17.4587C250.579 16.8332 247.457 16.5837 244.327 16.7249C241.339 16.863 238.393 17.917 235.435 17.9278C235.228 17.9278 235.086 17.6523 235.259 17.5108C236.72 16.2971 238.703 15.7796 240.525 15.2769C242.624 14.6961 244.772 14.3089 246.943 14.0781C251.243 13.6164 255.605 13.8882 259.809 14.8674C263.507 15.7308 268.82 16.8667 269.249 21.2824C269.479 23.6279 268.513 25.3778 267.009 26.7256C267.745 28.3228 268.029 30.1546 267.784 31.8077C267.216 35.6351 263.898 38.513 260.25 40.0395C260.238 40.1326 260.219 40.2257 260.204 40.315C259.563 43.6435 258.501 46.9795 257.461 50.2111C256.867 52.069 256.257 53.9194 255.631 55.7661C264.201 65.0069 270.507 76.1875 274.923 87.8189C285.544 115.798 284.259 146 289.672 175.007C292.43 189.784 297.509 203.969 301.103 218.549C302.918 225.91 304.437 233.334 305.142 240.881C305.476 244.466 305.61 248.07 305.484 251.667C305.411 253.688 305.396 255.929 304.74 257.858ZM225.048 128.032C218.109 155.022 213.452 182.494 211.17 210.224C210.706 215.854 210.38 221.475 210.196 227.101C210.011 228.568 209.835 230.039 209.67 231.509C209.045 237.071 208.565 242.723 208.607 248.323C208.627 250.836 208.707 253.338 208.884 255.843C208.577 255.006 208.293 254.165 208.017 253.327C207.453 251.611 207.081 249.831 206.505 248.126C206.03 246.715 205.416 245.363 204.844 243.997L204.844 243.993C204.974 239.803 204.787 235.584 204.601 231.388C204.539 229.982 204.476 228.578 204.426 227.179C204.169 219.964 203.851 212.756 203.686 205.537C203.356 191.098 203.521 176.649 204.058 162.218C205.136 133.14 207.859 104.201 210.606 75.2418C211.369 67.1886 212.19 59.1392 212.758 51.0708C213.33 42.9175 213.56 34.7489 213.625 26.5733C213.629 25.9847 212.708 25.8287 212.539 26.3979C212.39 24.4582 212.125 22.5221 211.684 20.6494C218.301 24.7448 225.279 28.2856 232.118 32.0087C235.72 33.9708 239.307 35.9664 243.02 37.7237C245.061 38.6914 247.121 39.5816 249.223 40.423C249.571 40.562 249.916 40.7095 250.261 40.8566C252.075 41.6309 253.867 42.3961 255.882 41.8858C256.089 41.8341 256.285 41.7596 256.473 41.6628C256.201 42.165 255.928 42.6643 255.667 43.171C254.762 44.9168 253.899 46.6704 253.063 48.4389C252.84 48.599 252.645 48.819 252.491 49.1053C252.084 49.876 251.689 50.6542 251.306 51.4431C251.229 51.3727 251.152 51.302 251.076 51.2313C250.753 50.9371 250.308 51.3798 250.592 51.7004C250.723 51.8452 250.849 51.9871 250.976 52.1323C248.475 57.3558 246.442 62.8475 244.347 68.2091C241.773 74.7987 239.334 81.4371 237.036 88.1201C232.506 101.267 228.509 114.584 225.048 128.032ZM251.91 139.479C247.901 141.858 242.637 140.208 238.67 138.632C236.863 137.915 237.659 135.034 239.485 135.76L239.524 135.775C242.542 136.974 246.931 138.717 250.104 137.052C253.285 135.383 253.428 130.791 253.452 127.76C253.467 125.841 256.535 125.843 256.521 127.76C256.488 131.883 255.92 137.097 251.91 139.479ZM82.6437 148.121C81.9789 148.073 81.3329 147.699 81.1641 147.028C80.128 142.911 79.3167 138.426 80.2803 134.227C80.7099 132.354 83.6679 133.151 83.2394 135.018C82.4795 138.33 83.0833 141.909 83.8723 145.211C92.6566 145.584 101.348 143.254 109.857 140.973C112.154 140.358 114.436 139.746 116.704 139.191C118.623 138.722 119.434 141.596 117.52 142.063C115.236 142.621 112.937 143.236 110.623 143.853C101.469 146.298 92.0998 148.801 82.6437 148.121ZM266.71 199.816C266.731 220.199 268.535 244.602 271.129 264.816C271.37 266.693 274.442 266.716 274.198 264.816C271.603 244.602 269.799 220.199 269.779 199.816C269.777 197.9 266.708 197.897 266.71 199.816ZM234.218 223.729C236.995 227.22 240.446 229.971 244.49 231.983C246.245 232.856 247.799 230.287 246.039 229.411C242.497 227.649 239.312 225.298 236.868 222.225C235.678 220.729 233.011 222.211 234.218 223.729ZM89.607 249.14C101.102 240.571 113.053 232.626 125.843 225.979C127.585 225.073 126.036 222.501 124.294 223.406C111.505 230.054 99.5529 237.999 88.058 246.568C86.5133 247.719 88.04 250.308 89.607 249.14Z" transform="translate(4.603106 -9.88565)" id="ðŸ–-Ink" fill="#000000" fill-rule="evenodd" stroke="none" />
  </g>
</svg>