<?xml version="1.0" encoding="utf-8"?>
<svg width="314px" height="273px" viewBox="0 0 314 273" version="1.1" xmlns:xlink="http://www.w3.org/1999/xlink" xmlns="http://www.w3.org/2000/svg">
  <desc>Created with Lunacy</desc>
  <defs>
    <rect width="313.783173" height="272.9061" id="artboard_1" />
    <clipPath id="clip_1">
      <use xlink:href="#artboard_1" clip-rule="evenodd" />
    </clipPath>
  </defs>
  <g id="body/Blazer-Black-Tee" clip-path="url(#clip_1)">
    <use xlink:href="#artboard_1" stroke="none" fill="#FFFFFF" />
    <path d="M264.512 102.323C259.188 77.8392 240.304 58.8401 214.906 49.3755C210.024 46.6956 205.292 35.1964 198.731 33.0905C197.68 32.7529 199.34 35.4395 198.731 35.5999C196.561 36.1722 194.13 36.232 191.735 34.1653C187.453 30.4718 186.11 19.6809 183.507 14.8038C169.777 -10.9179 135.498 -0.853773 130.905 27.581C127.703 29.6067 123.177 31.3912 119.691 33.0236C116.102 34.7045 112.945 38.7758 109.246 40.2314C105.945 41.5302 100.507 40.6101 97.1819 41.7424C81.8863 46.95 68.9314 53.521 58.7748 66.8348C56.6347 69.6427 54.2223 73.0948 52.2747 75.9315C42.2345 87.1497 35.2606 99.7235 28.8377 113.214C10.8676 152.809 5.97983 196.651 1.59454 239.313C1.69427 246.777 -3.40911 267.476 4.13894 271.055C3.68783 271.508 3.85125 272.42 4.68826 272.412C23.8271 272.225 42.9215 273.887 61.7634 277.119C70.8543 278.679 79.8965 280.817 89.1565 281.169C108.379 281.04 127.532 277.914 146.73 280.872C169.808 280.872 197.855 280.219 223.529 279.261C247.524 278.366 271.647 280.388 295.345 276.428C297.221 276.14 298.137 273.919 297.744 272.328C294.963 262.495 293.599 252.375 292.038 242.311C292.349 235.856 291.793 229.117 289.333 223.104C282.905 182.515 274.661 142.191 264.512 102.323Z" transform="translate(17.64516 -17.49875)" id="âœ‹-Skin" fill="#D08B5B" stroke="none" />
    <path d="M198.731 2.53877C199.34 2.37832 197.68 -0.30827 198.731 0.0293101C205.292 2.13523 210.024 13.6344 214.906 16.3144C240.304 25.779 259.188 44.7781 264.512 69.2622C274.661 109.13 282.905 149.454 289.333 190.043C291.793 196.056 292.349 202.794 292.038 209.25L292.283 210.839C293.746 220.378 295.11 229.951 297.744 239.267C298.137 240.858 297.221 243.078 295.345 243.367C271.917 247.282 248.072 245.35 224.347 246.171L219.402 246.351C194.877 247.226 168.577 247.811 146.73 247.811C127.532 244.852 108.379 247.979 89.1565 248.108C79.8965 247.756 70.8543 245.618 61.7634 244.058C42.9215 240.826 23.8271 239.164 4.68826 239.351C3.85125 239.359 3.68783 238.447 4.13894 237.993C-3.40911 234.415 1.69427 213.716 1.59454 206.252L1.99091 202.409C6.28487 160.963 11.4067 118.56 28.8377 80.1524L29.3597 79.0606C35.6398 65.9836 42.5058 53.7853 52.2747 42.8703L52.8722 42.0021C54.702 39.3497 56.8487 36.3008 58.7748 33.7736C68.9314 20.4598 81.8863 13.8888 97.1819 8.6812C100.507 7.54897 105.945 8.46904 109.246 7.17028C112.705 5.80887 115.691 2.15927 118.999 0.31738L118.999 14.0558L166.873 59.8276L194.025 19.4181L196.787 2.86786C197.452 2.82735 198.103 2.70457 198.731 2.53877Z" transform="translate(17.64516 15.71124)" id="ðŸ‘•-Top" fill="#8FA7DF" stroke="none" />
    <path d="M137.899 0.125718C137.853 -0.034377 137.596 -0.0492696 137.554 0.125718C136.675 3.70365 135.981 7.30393 134.435 10.6957C133.718 12.2632 132.855 13.771 131.88 15.2007C130.779 16.8091 129.187 18.1345 128.485 19.9403C128.213 20.6402 128.505 21.7013 129.095 22.1816C129.146 22.2238 129.199 22.2647 129.252 22.305L129.575 22.5427C130.208 22.9895 131.34 22.9635 131.972 22.5427C133.489 21.535 134.366 19.8688 135.145 18.2517L135.463 17.5872C136.372 15.6884 137.124 13.7189 137.654 11.6898C138.635 7.94431 139.038 3.84886 137.899 0.125718ZM190.95 14.6345C191.434 16.779 192.389 18.7043 193.67 20.4951C194.28 21.3514 194.974 22.1482 195.807 22.8146C196.521 23.3839 197.334 23.7562 198.093 24.2517C199.198 24.0838 200.352 24.49 201.127 25.279L201.005 24.1252C200.966 23.7528 201.603 23.6784 201.676 24.0392C205.032 40.4663 208.093 56.904 210.742 73.4499L211.903 80.7569L212.996 87.6166C214.81 99.0472 216.565 110.473 217.887 121.987C219.648 137.353 221.128 152.76 222.21 168.188C223.295 183.725 223.963 199.272 224.439 214.839C224.557 218.763 224.684 222.684 224.807 226.608L225.626 221.916C226.444 217.224 227.246 212.527 227.933 207.814C230.4 190.944 232.372 173.955 233.334 156.941C234.217 141.371 233.921 125.491 229.84 110.323C228.811 106.507 227.553 102.75 226.035 99.0902C224.561 95.5312 222.551 92.2322 220.967 88.7253C219.126 84.6448 218.573 80.7951 219.521 76.4017C220.35 72.5744 221.803 68.9741 222.064 65.035C222.551 57.7228 220.1 50.641 216.636 44.2413C215.723 42.5547 214.76 40.8904 213.755 39.2407C210.714 34.2558 207.284 29.4526 203.724 24.8474C203.533 24.6017 203.939 24.3299 204.146 24.531C207.391 27.6435 210.94 30.7039 213.859 34.1032C215.278 35.7562 216.663 37.4425 217.975 39.1741C232.368 41.5085 244.735 50.2091 253.189 61.6991C262.783 74.7375 267.635 90.4305 271.226 105.885C275.219 123.06 278.587 140.391 282.174 157.651C285.887 175.512 289.581 193.372 293.317 211.228C295.174 220.092 297.031 228.957 298.883 237.826C299.823 242.316 300.809 246.795 301.841 251.27C302.371 253.564 302.938 255.853 303.429 258.154C303.981 260.749 303.467 262.409 301.657 264.316C300.989 265.023 299.934 265.012 299.106 264.636L298.847 264.518L298.596 264.401C297.571 263.911 296.767 263.405 296.129 262.316C295.427 261.122 295.316 259.796 295.075 258.467C294.629 256.02 294.188 253.575 293.743 251.125C293.079 247.461 292.356 243.808 291.62 240.156L287.928 221.904C286.944 217.038 285.958 212.171 284.966 207.307C281.426 189.913 277.881 172.522 274.337 155.131C270.934 138.433 267.923 121.619 264.049 105.017L263.829 104.082L263.605 103.148C260.141 88.8362 255.301 74.9921 246.518 62.8644C239.759 53.5379 230.373 45.2093 219.317 40.9943C220.096 42.0819 220.844 43.1913 221.558 44.3232C226.038 51.4269 229.31 59.8598 228.543 68.3188C228.388 70.0225 228.022 71.7141 227.656 73.406C227.134 75.8184 226.612 78.231 226.702 80.6796C226.844 84.3804 229.203 87.6307 230.833 90.8509C234.535 98.1486 237.213 105.904 238.939 113.86C242.403 129.836 242.391 146.274 241.198 162.492C239.901 180.121 237.439 197.746 234.635 215.204C233.196 224.158 231.282 233.038 229.816 241.977C229.092 246.385 228.106 250.782 227.242 255.168L226.831 257.264C226.601 258.427 226.362 259.586 226.086 260.732L225.916 261.419L225.916 261.542C225.908 262.387 225.67 263.087 225.286 263.646C224.761 265.28 224.109 266.874 223.242 268.404C222.797 269.186 222.152 269.625 221.45 269.785C220.744 271.353 219.145 272.559 217.235 272.552L192.113 272.458C177.521 272.402 162.928 272.309 148.336 272.231C144.654 272.213 140.975 272.146 137.297 272.053C133.848 271.96 130.542 271.557 127.131 271.141C123.28 270.671 121.193 268.024 121.769 264.29C121.895 263.467 122.033 262.648 122.164 261.829C121.397 262.075 120.484 261.959 119.866 261.375L119.287 260.825C118.484 260.054 117.767 259.297 117.258 258.269C116.732 257.212 116.306 256.095 115.842 255.016C114.841 252.692 113.867 250.362 112.919 248.02C111.02 243.336 109.122 238.634 107.357 233.901C103.862 224.53 100.77 215.018 98.0816 205.397C93.2866 188.234 89.8185 170.739 87.632 153.087L87.1092 148.88L86.9572 147.638C86.1281 140.796 85.4303 133.848 85.76 127.022C85.9637 122.747 86.6461 118.44 88.2921 114.448C89.8108 110.766 92.1546 107.617 94.3833 104.325L94.6383 103.945L94.8947 103.556C96.8438 100.567 98.3947 97.4415 98.4724 93.8111C98.5512 90.127 97.4454 86.5416 96.209 83.0926L95.9008 82.2421L95.694 81.6791C95.4675 81.0653 95.2383 80.4523 95.0092 79.8394C92.5777 73.3352 90.1553 66.8555 91.0575 59.7668C92.5155 48.3442 99.6501 39.1369 108.627 32.0368C100.644 33.5708 92.7419 36.601 85.7681 40.4437C77.5318 44.9859 70.1169 50.9802 63.7223 57.7451C51.639 70.53 43.0118 85.8697 35.9502 101.708C28.5579 118.283 23.0762 135.652 18.9453 153.247C14.7909 170.943 12.0098 188.922 10.1106 206.972C9.16352 215.956 8.41895 224.962 7.80174 233.972C7.48719 238.589 7.24936 243.213 6.88111 247.822C6.51285 252.428 6.34752 257.104 5.18906 261.587C4.64818 263.676 1.00017 263.888 0.609279 261.587C-0.258217 256.448 -0.0157753 251.134 0.226335 245.931L0.248314 245.458C0.486528 240.276 0.797242 235.097 1.16511 229.918C1.91735 219.333 2.92199 208.763 4.2339 198.227C8.83324 161.241 17.315 124.449 33.9516 90.6874C41.7847 74.7859 51.8388 59.3349 65.8248 47.8527C72.4837 42.3905 79.9907 38.0307 88.0808 34.8739C95.3158 32.048 102.666 30.7114 110.353 30.7151C114.208 27.8483 118.347 25.3501 122.482 23.2163C122.731 23.0864 122.992 23.3991 122.785 23.6002C122.678 23.7007 122.574 23.8046 122.467 23.9018C122.935 23.9316 123.418 24.1438 123.851 24.5868C125.371 26.1316 126.652 28.0642 127.799 30.0706C129.544 32.1857 131.209 34.3709 132.951 36.4633C135.739 39.8141 138.593 43.1165 141.482 46.3929C146.333 51.8992 151.343 57.3012 156.567 62.486L157.44 63.348C160.147 66.0105 162.89 69.1971 166.093 71.3044L166.264 71.4148C167.615 72.2692 168.574 72.4244 169.726 71.1484C170.773 69.9868 171.645 68.639 172.542 67.3583L172.749 67.0641C177.325 60.6119 181.568 53.9214 185.408 47.0336C187.158 43.8991 188.823 40.719 190.403 37.5037L190.874 36.5381C191.733 34.7659 192.665 33.0272 193.375 31.2025C193.54 30.7747 193.701 30.3465 193.858 29.9221C191.441 28.3844 189.57 25.0559 188.891 22.4497C188.185 19.743 188.542 16.9652 189.799 14.4897C190.037 14.0243 190.835 14.1393 190.95 14.6345ZM120.07 26.1431C118.048 27.9931 115.98 29.8029 113.943 31.6422L113.197 32.319L112.454 32.9991C108.874 36.2945 105.443 39.7249 102.585 43.6642C97.3375 50.8982 94.2112 59.718 96.3935 68.5496C98.2045 75.8652 102.359 82.4965 103.475 89.9949C104.035 93.7515 103.763 97.5268 102.305 101.075C100.816 104.694 98.4381 107.795 96.3014 111.06C91.6599 118.157 91.027 125.946 91.4877 134.166C91.971 142.752 92.9871 151.341 94.2419 159.848C96.7809 177.087 100.609 194.146 105.677 210.852C108.213 219.218 111.208 227.405 114.189 235.625C115.673 239.717 117.404 243.712 119.187 247.688C120.127 249.781 121.09 251.862 122.068 253.939C121.707 251.006 121.707 247.994 121.531 245.079C121.278 240.901 120.955 236.731 120.66 232.558C120.058 224.087 119.521 215.61 119.042 207.132C117.342 176.9 116.092 146.642 116.183 116.362C116.23 101.22 116.548 86.0782 117.219 70.9507C117.534 63.8271 118.144 56.7103 118.694 49.5967L118.811 48.0724C119.299 41.6872 119.882 35.2871 120.882 28.9578C120.586 28.3088 120.329 27.6516 120.138 26.9775L120.07 26.7239L120.119 26.7313C120.073 26.5336 120.058 26.3367 120.07 26.1431ZM70.6975 155.504C71.1965 145.22 71.3994 134.918 71.7338 124.627C71.7412 124.348 71.3384 124.367 71.3035 124.627C69.8808 135.03 68.285 145.41 66.6739 155.786L63.8736 153.486C60.6744 150.868 57.494 148.292 54.1337 145.883C53.9615 145.756 53.7194 146.002 53.8387 146.169C56.2362 149.505 58.8178 152.667 61.4336 155.854C62.7953 157.507 64.1725 159.149 65.5039 160.827L65.8296 161.237C64.8978 167.243 63.9695 173.248 63.0757 179.257C60.9374 193.633 59.0814 208.053 57.268 222.476L55.8219 234.013C54.5518 244.14 53.1022 254.241 51.5947 264.334C51.2111 266.907 52.3964 269.375 55.319 269.759C58.2075 270.139 60.0645 268.084 60.3906 265.493C62.6803 247.193 64.9742 228.89 66.9574 210.558C68.5431 195.909 69.4109 181.253 70.1512 166.568L70.3139 163.304C70.8356 163.132 71.2541 162.671 71.3956 162.161C71.76 160.827 71.3035 159.856 70.5252 159.014L70.6975 155.504ZM257.678 153.251C258.622 150.991 259.331 148.604 259.838 146.218C259.892 145.972 259.55 145.89 259.458 146.117C258.188 149.252 256.036 152.998 253.125 155.269C252.672 152.45 252.22 149.628 251.993 146.814C251.97 146.55 251.567 146.542 251.56 146.814C251.464 150.12 251.111 153.426 250.843 156.736C250.221 157.298 250.025 158.218 250.198 159.003L250.267 159.308C250.321 159.539 250.447 159.778 250.624 159.979C250.593 160.574 250.566 161.166 250.551 161.758C250.42 166.617 250.329 171.468 250.439 176.327L250.464 177.57C250.49 179.246 250.495 180.923 250.499 182.599C250.507 185.479 250.515 188.358 250.635 191.238C250.835 196.082 251.141 200.922 251.506 205.758C252.924 224.487 255.957 243.168 259.452 261.636L259.92 264.092C260.404 266.735 260.491 270.254 262.58 272.206C264.591 274.078 267.725 274.365 270.164 273.173C275.538 270.537 274.096 263.396 268.818 262.164L268.305 259.494C267.641 256.006 267.004 252.515 266.393 249.021C264.947 240.748 263.708 232.453 262.492 224.147C261.315 216.09 260.214 208.022 259.132 199.954C258.027 191.715 256.604 183.494 255.703 175.233L255.48 173.253C255.022 169.297 254.493 165.351 254.022 161.393L253.95 160.807L253.873 160.221C254.122 160.053 254.33 159.833 254.456 159.543C255.399 157.387 256.769 155.433 257.678 153.251Z" transform="translate(14.57611 -8.041877)" id="ðŸ–-Ink" fill="#000000" fill-rule="evenodd" stroke="none" />
  </g>
</svg>
