<?xml version="1.0" encoding="utf-8"?>
<svg width="314px" height="273px" viewBox="0 0 314 273" version="1.1" xmlns:xlink="http://www.w3.org/1999/xlink" xmlns="http://www.w3.org/2000/svg">
  <desc>Created with Lunacy</desc>
  <defs>
    <rect width="313.783173" height="272.9061" id="artboard_1" />
    <clipPath id="clip_1">
      <use xlink:href="#artboard_1" clip-rule="evenodd" />
    </clipPath>
  </defs>
  <g id="body/Killer" clip-path="url(#clip_1)">
    <use xlink:href="#artboard_1" stroke="none" fill="#FFFFFF" />
    <path d="M127.837 4.88941C153.367 -5.77987 172.223 2.50304 178.36 15.4249C183.217 25.6501 183.312 47.2829 192.811 55.854C239.047 88.9754 249.129 146.687 258.567 198.283C262.797 223.2 265.486 248.358 266.574 273.588C266.674 275.903 264.4 278.132 262.005 278.024C193.714 274.82 125.283 275.062 56.9941 277.928C52.9644 277.956 48.8791 277.595 45.075 276.206C39.715 278.245 36.3213 271.971 36.4571 267.629C36.0025 264.749 33.03 262.752 30.8657 260.911C25.7428 256.786 21.6003 252.05 18.7786 246.15C14.7404 238.153 14.1861 229.352 10.5903 221.33C8.95922 216.696 8.33549 211.858 7.56369 207.051C5.55364 202.228 4.91993 197.053 4.7032 191.929C-2.87478 187.306 0.811599 175.971 1.50783 168.828C2.69622 160.536 3.96132 152.244 5.50722 144.007C14.5498 87.3283 55.7241 54.9525 112.273 43.5262C123.628 36.5049 123.628 6.64816 127.837 4.88941Z" transform="translate(28.3873 -20.80244)" id="âœ‹-Skin" fill="#D08B5B" stroke="none" />
    <path d="M10.5601 0.903615C7.3861 -0.166406 3.76607 -0.875722 1.8714 2.31058C1.12323 3.56551 0.474388 5.10468 0.161791 6.55939L0.117453 6.77692L0.0799984 6.98312L0.0304232 7.28208L0.0201602 7.35709C-0.0241362 7.70678 -0.0135591 8.0499 0.24111 8.31601C0.754193 8.86096 2.381 9.13628 3.12422 9.37569L3.20594 9.40316L7.59609 10.9503L9.92015 11.7726L10.5826 11.9999L10.7271 12.0508C11.4992 12.3262 12.2923 12.6637 12.8112 13.2119C15.042 10.3702 18.4132 8.58794 21.7888 7.09553L22.2389 6.89819L22.6883 6.70388L23.3602 6.41721L22.7438 6.13628C19.6666 4.72217 16.6583 3.17603 13.484 1.96486L12.8845 1.74094L11.5556 1.2532L11.1152 1.09547L10.672 0.941525L10.5601 0.903615ZM68.4896 39.5236L68.0763 39.0509L67.582 39.3495L67.3368 39.5007C66.8484 39.805 66.3719 40.1228 65.9243 40.4802C64.0673 41.971 63.1569 44.1879 62.3775 46.3871L61.8202 47.9781L61.6928 48.3319L61.0981 49.9373L60.5655 51.3675C59.6755 53.751 58.7724 56.1323 57.8381 58.4964C57.428 59.5352 57.0444 60.6484 56.6336 61.7691C62.1651 66.929 67.8197 72.0338 73.7382 76.7733C84.571 85.4445 96.3743 92.9764 108.918 99.1122C115.367 102.269 122.026 105.144 128.877 107.374C131.174 108.121 133.511 108.784 135.882 109.295L136.43 109.41L136.434 109.373L136.439 109.352L136.451 109.331C136.489 109.28 136.575 109.265 136.603 109.325L136.61 109.351L136.626 109.451L137.175 109.558L137.725 109.66C138.46 109.791 139.197 109.906 139.936 110.002C142.038 110.274 144.163 110.397 146.284 110.379C146.809 110.374 147.331 110.346 147.852 110.319C148.638 110.277 149.421 110.236 150.201 110.274C144.459 105.252 138.685 100.266 132.897 95.3034C121.926 85.8913 110.894 76.5537 99.8421 67.2309C95.6364 63.6823 91.3906 60.1703 87.1863 56.6144L85.0881 54.8324L80.3826 50.7987L79.4592 50.0044L78.4995 49.174C75.1461 46.261 71.8597 43.2713 68.9088 39.9938L68.4896 39.5236Z" transform="translate(121.9849 32.76383)" id="ðŸ”ª-Knife" fill="#FDEA6B" fill-rule="evenodd" stroke="none" />
    <path d="M132.026 3.97075L132.282 3.28737C133.828 -0.860203 135.723 -1.16922 134.81 2.85177L134.672 3.45756C133.881 6.89788 132.935 10.4531 130.997 13.4627C127.656 18.6531 118.902 20.5776 113.064 22.4239C113.083 22.5546 113.083 22.6853 113.067 22.8082C116.635 23.3368 120.298 25.0044 123.286 26.8738C126.022 28.5898 128.492 30.5147 130.333 33.0725L139.34 29.2749C142.313 28.0239 145.309 26.5347 148.539 26.032C153.092 25.3246 160.112 27.6925 159.575 33.2665C159.506 34.0182 159.019 34.5766 158.421 34.8521C158.877 34.8153 159.337 34.8034 159.794 34.8186C162.839 34.9192 167.143 37.5365 165.552 40.9879C165.145 41.8773 163.971 41.2932 163.879 40.5485C163.277 35.653 158.063 36.8034 154.447 37.6035C151.174 38.3258 147.941 39.2119 144.776 40.295C141.392 41.4533 138.12 42.9276 135.101 44.8227C131.987 46.7807 129.075 49.1564 129.267 53.0657C129.274 53.1476 129.141 53.1886 129.102 53.11C127.495 49.7819 130.625 46.271 133.168 44.3536C136.851 41.5802 141.163 39.5843 145.52 38.028C147.76 37.2294 150.07 36.6009 152.389 36.0442L152.924 35.917C154.285 35.5968 155.697 35.2282 157.116 35.0048C156.592 34.8801 156.134 34.5106 155.93 33.8427L155.904 33.7497C154.104 26.8315 145.411 30.8808 140.311 33.256C139.607 33.5841 138.971 33.8803 138.431 34.1112C135.251 35.4702 132.033 36.7733 128.887 38.2141L128.482 38.4016C126.044 39.5373 123.502 40.8792 121.863 43.017C118.54 47.3431 120.202 52.8672 121.7 57.8462C122.097 59.1662 122.483 60.4479 122.761 61.6587C123.141 63.3155 123.505 65.0729 123.528 66.7747C123.544 67.9453 123.235 69.0598 122.925 70.1812C122.866 70.3941 122.807 70.6073 122.75 70.8211L122.543 71.6107C122.726 71.6148 122.914 71.8009 122.853 71.9904C121.361 76.7188 118.837 81.2019 116.378 85.5133C113.869 89.9136 111.288 94.2924 108.518 98.5402C98.6672 113.649 87.3894 127.912 75.0183 141.155C69.0879 147.504 62.6741 153.427 56.8857 159.901C54.1928 162.913 51.6729 166.07 49.5704 169.511C48.435 171.368 47.4146 173.297 46.5554 175.296L46.3858 175.692C45.6813 177.326 44.989 178.767 43.6784 180.073C43.0266 180.725 41.722 180.449 41.5149 179.518C40.5819 175.276 43.5502 170.704 45.8432 167.173C45.9165 167.06 45.9891 166.948 46.0609 166.837C48.5616 162.98 51.4846 159.384 54.5917 155.97C55.4702 155.002 56.364 154.049 57.2693 153.106C53.2188 154.186 48.9529 154.472 44.8253 155.18C40.5981 155.903 36.3977 156.763 32.3012 158.014C28.5378 159.16 24.955 160.676 21.5298 162.574C19.8876 163.487 18.2807 164.488 16.777 165.609C16.6347 165.713 16.4966 165.825 16.3585 165.933C18.8136 171.92 20.7009 178.13 22.6725 184.27C24.0186 188.467 25.3344 192.675 26.6416 196.886L29.5773 206.363C31.6952 213.194 33.4593 220.626 37.1921 226.84C38.8032 229.52 40.9817 231.944 43.4751 233.887C44.6838 234.833 45.9995 235.552 47.3648 236.248C48.224 236.687 48.9835 237.257 49.7814 237.778C50.3067 237.196 51.1034 236.836 52.081 236.988L52.1904 237.007C55.2784 237.596 58.4626 236.535 61.2088 235.224C64.0704 233.854 66.921 232.245 69.3411 230.22C74.1015 226.233 78.0488 221.262 81.8966 216.467C95.6137 199.355 107.295 180.613 116.815 161.007C121.652 151.036 126.168 140.898 130.41 130.674C132.532 125.567 134.622 120.447 136.659 115.305L136.928 114.618C138.752 109.9 140.35 104.778 143.283 100.618C143.306 100.58 143.338 100.551 143.372 100.529C143.379 100.409 143.418 100.297 143.479 100.201C144.389 98.7896 146.13 98.376 147.638 97.7211C149.337 96.9798 151.032 96.243 152.728 95.5062C154.063 94.925 156.019 94.4335 157.02 93.3318C158.156 92.092 158.536 89.8839 159.088 88.3499C160.339 84.8837 161.692 81.4584 163.046 78.0294C164.236 75.0174 165.264 71.7857 166.932 68.9788C168.357 66.5842 170.392 65.3213 172.745 63.9422L173.256 63.643C174.239 63.0612 175.288 62.3643 175.678 61.2753C176.315 59.4956 174.9 57.7937 173.396 56.9452C170.055 55.0647 166.054 57.2353 163.124 58.8928C160.177 60.5604 157.304 62.5635 154.155 63.8558C154.086 63.8815 154.036 63.7809 154.086 63.7362C156.617 61.4852 159.712 59.6307 162.619 57.8008L163.342 57.3436C165.271 56.1183 167.47 54.9236 169.794 54.5922C169.311 54.4358 169.46 53.829 169.92 53.7735C171.825 53.5483 173.741 53.5372 175.657 53.526C178.34 53.5103 181.02 53.4947 183.661 52.8908C187.7 51.9674 191.226 49.7521 194.049 46.8369C196.711 44.0892 198.821 40.9097 200.789 37.6709C201.932 35.7866 203.048 33.8878 204.206 32.011C204.379 31.7284 204.552 31.4157 204.729 31.0802C202.657 30.6148 200.547 29.1185 199.139 27.9569C196.953 26.1549 195.357 23.72 194.245 21.1808C191.636 15.22 191.843 8.40297 193.796 2.30447C193.915 1.93215 194.483 1.91354 194.594 2.30447C196.093 7.52803 196.228 13.1913 198.583 18.1725C199.527 20.1681 200.843 21.9626 202.461 23.4891C203.282 24.2598 204.111 24.9073 205.116 25.4438C206.194 26.0209 207.344 26.2104 208.2 27.1266C208.25 27.1788 208.296 27.2309 208.338 27.2867C208.839 27.221 209.27 27.2909 209.616 27.5003L209.688 27.5473L209.703 27.5254C208.158 26.5015 206.604 25.4884 204.958 24.5949C204.521 24.3566 204.84 23.787 205.277 23.8614L206.359 24.0473C209.977 24.6728 213.663 25.3842 216.965 26.9442C220.629 28.6792 224.127 30.6822 227.464 32.9496C234.039 37.4096 240.023 42.6782 245.259 48.5719C254.918 59.4472 261.746 72.5229 265.97 86.2315C271.248 103.362 273.289 121.356 275.518 139.051C276.583 147.522 277.539 156.009 278.388 164.505L278.617 166.823C279.043 171.193 279.503 175.557 279.936 179.917C280.704 181.086 280.758 182.475 280.305 183.681C280.638 187.214 280.938 190.751 281.176 194.299C281.782 203.454 282.173 212.639 282.342 221.817C282.457 228.192 282.33 234.561 282.202 240.932L282.202 240.933C282.144 243.863 282.085 246.794 282.05 249.726C282.004 253.643 275.889 253.627 275.794 249.726C275.548 239.442 274.789 229.155 274.248 218.879C273.718 208.849 273.227 198.823 272.595 188.801C272.533 187.847 272.475 186.89 272.422 185.937C271.53 186.267 270.425 186.403 269.488 186.584L269.257 186.63C267.372 187.019 265.484 187.298 263.57 187.468L262.95 187.519C261.213 187.635 252.31 187.821 247.047 186.89C247.465 193.447 247.887 200.003 248.351 206.556C248.88 214.028 248.98 221.512 249.368 228.991C249.563 232.73 249.797 236.441 250.288 240.157C250.512 241.849 250.741 243.542 251.015 245.228L251.155 246.07C251.178 246.205 251.202 246.338 251.225 246.47C251.45 247.75 251.648 248.878 251.075 250.05C251.627 251.706 250.768 253.795 248.505 253.627C233.997 252.574 219.455 252.127 204.908 252.064C185.297 251.974 165.694 252.549 146.092 253.125L146.087 253.125C140.59 253.287 135.092 253.448 129.594 253.595L122.81 253.773L121.951 253.796C98.7209 254.413 75.3825 255.034 52.2637 252.54C52.2134 255.448 46.6129 255.415 46.9121 252.172L46.9856 251.39C47.3225 247.861 47.7594 244.206 48.8876 240.809C47.9517 240.835 47.0118 240.798 46.1296 240.515C44.8756 240.117 43.6707 239.394 42.5813 238.679C40.1569 237.093 38.1085 235.138 36.3405 232.882C32.8686 228.455 30.5632 223.21 28.7411 217.971C26.8037 212.388 25.0311 206.74 23.3749 201.073L21.5925 194.935C19.3298 187.129 17.1081 179.205 15.7601 171.193C15.6147 171.38 15.4149 171.54 15.1506 171.655C7.93855 174.783 1.77029 168.368 0.550448 161.882C-0.0901714 158.47 -0.0253755 154.987 0.0389947 151.526C0.0467849 151.107 0.0545688 150.689 0.0610954 150.271L0.0671147 149.856C0.12849 145.396 0.14767 140.936 0.382049 136.479C1.15653 121.579 4.7355 107.141 10.3015 93.2607C15.5453 80.1959 21.8823 67.0275 30.0457 55.4225C33.9235 49.9122 38.3962 44.6179 43.7858 40.4294C49.4707 36.0175 55.8618 32.6626 62.5556 29.9302C69.3952 27.1378 76.4875 24.93 83.5883 22.845C91.4214 20.5445 99.3465 18.5671 107.406 17.1784C107.992 17.0779 108.568 17.2454 108.894 17.7667C109.178 18.2246 109.442 18.6937 109.699 19.1703C110.8 18.5001 112.492 18.3363 113.593 18.0087C117.049 16.9699 123.267 16.3481 126.007 13.9802C129.13 11.2823 130.631 7.68518 132.026 3.97075ZM117.17 28.4818L118.499 28.9695C122.109 30.2879 125.488 32.0709 128.975 33.6458C125.104 35.2877 121.004 37.1567 118.426 40.4405C117.689 39.6624 116.401 39.3087 115.403 38.955L113.211 38.1789L108.821 36.6317C108.123 36.3856 106.389 36.1105 105.856 35.5446C105.524 35.1977 105.607 34.7199 105.685 34.2673C105.688 34.2488 105.692 34.2302 105.695 34.2117L105.732 34.0055C106.024 32.4879 106.701 30.8568 107.486 29.5392C109.582 26.0138 113.791 27.2572 117.17 28.4818ZM158.995 44.3571L159.24 44.2621C162.697 42.9467 167.181 42.2927 169.901 45.3441C171.872 47.5594 172.375 51.7517 169.805 53.684C169.187 54.1494 167.879 53.751 168.271 52.8165C169.398 50.147 169.636 46.6506 166.088 45.6234C163.226 44.7942 159.913 46.2398 157.209 47.4196C157.005 47.5088 156.804 47.5964 156.607 47.6814L155.805 48.0249C150.339 50.3802 144.91 53.2343 141.561 58.2221C141.472 58.3487 141.238 58.2672 141.296 58.1141C143.969 50.9288 152.156 47.0601 158.995 44.3571ZM173.692 66.2796C172.948 66.726 172.211 67.1727 171.54 67.7089C169.129 69.6447 168.313 72.8048 167.309 75.5606L167.244 75.736C166.009 79.0719 164.762 82.4153 163.454 85.7251C163.044 86.7639 162.66 87.8771 162.249 88.9978C167.781 94.1577 173.435 99.2625 179.354 104.002C190.187 112.673 201.99 120.205 214.534 126.341C220.982 129.498 227.641 132.372 234.492 134.603C236.967 135.407 239.487 136.114 242.046 136.639L242.05 136.601C242.061 136.512 242.211 136.472 242.226 136.579L242.241 136.68C243.338 136.9 244.443 137.086 245.552 137.231C247.654 137.503 249.779 137.625 251.9 137.607C252.424 137.603 252.947 137.575 253.468 137.548C254.254 137.506 255.037 137.465 255.816 137.503C250.074 132.48 244.301 127.495 238.512 122.532C227.542 113.12 216.51 103.782 205.458 94.4596C200.551 90.3195 195.59 86.2294 190.704 82.0611L185.998 78.0274C181.84 74.4582 177.707 70.8321 174.105 66.7523L173.692 66.2796ZM125.239 93.3837C124.829 93.0449 124.322 93.5513 124.656 93.9496C126.723 96.4628 129.804 98.6073 133.222 98.6669C134.035 98.678 134.089 97.6169 133.402 97.3638C130.46 96.2803 127.691 95.3976 125.239 93.3837ZM13.665 168.241C14.1672 167.835 14.6547 167.403 15.1415 166.971C15.2067 167.496 15.2762 168.021 15.3525 168.546C14.9152 168.152 14.3206 167.973 13.665 168.241Z" transform="translate(16.11063 5.446634)" id="ðŸ–-Ink" fill="#000000" fill-rule="evenodd" stroke="none" />
  </g>
</svg>