<?xml version="1.0" encoding="utf-8"?>
<svg width="314px" height="273px" viewBox="0 0 314 273" version="1.1" xmlns:xlink="http://www.w3.org/1999/xlink" xmlns="http://www.w3.org/2000/svg">
  <desc>Created with Lunacy</desc>
  <defs>
    <rect width="313.783173" height="272.9061" id="artboard_1" />
    <clipPath id="clip_1">
      <use xlink:href="#artboard_1" clip-rule="evenodd" />
    </clipPath>
  </defs>
  <g id="body/Coffee" clip-path="url(#clip_1)">
    <use xlink:href="#artboard_1" stroke="none" fill="#FFFFFF" />
    <path d="M0 0L87.8439 0L87.8439 104.992L0 104.992L0 0Z" transform="translate(176.8385 103.8758)" id="â˜•ï¸-Cup" fill="#FDEA6B" stroke="none" />
    <path d="M183.441 3.73147C173.334 -3.00704 149.562 0.140134 140.093 7.13852C136.736 9.8104 136.535 12.3568 136.321 15.063C136.27 15.7007 136.219 16.3473 136.126 17.0065L136.088 17.2601C135.619 20.2249 133.496 23.452 133.268 27.2759C132.301 26.725 131.355 26.0916 130.448 25.4842C128.493 24.1747 126.718 22.9858 125.294 23.0039C118.979 23.0844 116.422 31.6776 110.419 36.3283C105.083 39.5511 98.2799 39.8056 92.176 40.5955L91.5969 40.6725C70.7219 43.5516 52.5551 56.3473 40.1637 72.5087C11.5208 112.111 8.90737 163.459 1.49396 209.869C1.34975 211.507 1.16417 213.222 0.973174 214.988C-0.414889 227.817 -2.08964 243.297 9.74131 251.143C9.58013 251.189 9.16403 251.173 8.68653 251.154C7.56287 251.109 6.09919 251.05 6.81714 251.76C21.4414 256.071 37.0324 255.125 51.6981 251.365C51.1124 255.256 50.5512 259.146 49.9462 263.035C49.6459 264.967 50.7472 266.925 52.9966 266.922C115.001 266.53 177 265.054 239.002 264.305L240.68 264.283C252.982 264.132 265.292 264.082 277.59 264.497C282.026 264.657 286.398 265.171 290.814 265.547C294.225 265.701 296.403 261.747 294.712 258.954C294.006 257.384 293.243 256.062 292.275 254.703C297.636 224.057 290.219 194.081 282.84 164.259C279.992 152.747 277.149 141.257 275.049 129.761C269.349 89.0826 262.16 53.2516 214.808 45.936C213.72 43.43 213.649 38.1925 212.071 36.3283C210.799 32.3758 203.551 29.4991 199.162 31.5078C194.511 21.4411 193.423 10.4983 183.441 3.73147ZM193.387 127.025C194.174 126.523 228.55 122.014 241.857 130.987C244.819 132.984 243.961 147.175 242.996 160.358L242.605 165.661C240.84 169.004 237.411 179.781 234.451 184.054C228.901 192.064 212.259 195.756 202.708 192.198C198.098 190.702 191.164 188.457 188.859 184.054C186.661 179.131 189.143 174.19 191.654 169.192C193.119 166.276 194.593 163.342 195.154 160.38C195.392 159.119 194.7 157.734 194.015 156.364C193.471 155.277 192.933 154.201 192.868 153.204C192.874 152.684 192.918 152.048 192.966 151.365C193.08 149.726 193.214 147.816 192.868 146.595C192.356 144.786 191.581 143.15 190.831 141.566C189.372 138.486 188.008 135.605 188.859 132.046C186.718 132.835 185.345 130.623 187.198 130.036C188.122 129.908 189.046 129.785 189.971 129.666C190.909 128.229 191.655 128.131 193.387 127.025Z" transform="translate(11.1253 -5.957033)" id="âœ‹-Skin" fill="#D08B5B" fill-rule="evenodd" stroke="none" />
    <path d="M128.61 2.2682L124.802 0C118.842 0.507414 116.263 8.77251 110.419 13.3004C105.252 16.4209 98.7103 16.7586 92.7594 17.4939L92.176 17.5676L91.5969 17.6446C70.7219 20.5237 52.5551 33.3194 40.1637 49.4808C11.5208 89.0827 8.90737 140.432 1.49396 186.841C1.34975 188.479 1.16417 190.194 0.973173 191.96C-0.41489 204.789 -2.08964 220.269 9.74131 228.116C9.58012 228.161 9.16401 228.145 8.68649 228.126C7.56278 228.081 6.09921 228.023 6.81714 228.732C21.4414 233.043 37.0324 232.097 51.6981 228.337C51.1124 232.228 50.5512 236.118 49.9462 240.007C49.6459 241.939 50.7472 243.897 52.9966 243.894C115.001 243.502 177 242.026 239.002 241.277L240.68 241.256C252.982 241.104 265.292 241.054 277.59 241.469C282.026 241.629 286.398 242.143 290.814 242.52C294.225 242.673 296.403 238.719 294.712 235.926C294.006 234.356 293.243 233.035 292.275 231.675C297.636 201.029 290.219 171.054 282.84 141.231C279.992 129.719 277.149 118.229 275.049 106.733C269.349 66.0547 262.16 30.2237 214.808 22.9081C213.72 20.4021 213.649 15.1646 212.071 13.3004C211.124 10.3592 206.869 8.01374 202.945 7.83374L203.623 9.83672L197.259 15.6522Q175.438 30.234 175.438 32.4459C175.438 33.8171 175.792 36.5318 176.499 40.5902L176.665 41.532L169.23 48.7257C161.183 40.8898 157.159 35.8627 157.159 33.6446L157.159 17.0695Q157.159 14.6278 150.727 12.8799L128.61 2.2682ZM177.798 97.2877Q174.544 97.2877 164.47 107.097L163.878 107.362C155.759 111.022 150.381 114.198 147.743 116.887L147.649 116.984C144.983 119.759 139.706 127.139 131.815 139.122L120.389 145.68L116.066 145.68L112.988 167.35L120.389 182.824L137.154 177.343L164.47 170.355L180.144 154.92L188.986 152.039C187.914 155.047 187.525 158.04 188.858 161.026C191.163 165.429 198.097 167.674 202.707 169.17C212.259 172.728 228.901 169.037 234.45 161.026C237.41 156.754 240.84 145.976 242.604 142.633L243.111 135.744C244.023 123.032 244.7 109.877 241.856 107.959C228.549 98.9866 194.174 103.495 193.387 103.997C191.654 105.104 190.908 105.201 189.971 106.638L189.486 106.701L192.214 103.11L191.248 102.609Q180.909 97.2877 177.798 97.2877ZM190.831 118.538C189.372 115.458 188.008 112.577 188.858 109.018C188.746 109.059 188.637 109.092 188.53 109.118L188.53 115.215L192.663 122.894C192.161 121.348 191.486 119.923 190.831 118.538Z" transform="translate(11.1253 17.07073)" id="ðŸ‘•-Top" fill="#9DDADB" fill-rule="evenodd" stroke="none" />
    <path d="M137.537 2.1282C137.309 -0.721116 141.878 -0.697661 142.105 2.1282C142.598 8.29744 141.168 14.4082 138.089 19.8168C138.066 19.8563 138.041 19.8913 138.018 19.9285C139.943 20.901 141.891 21.834 143.882 22.668C146.428 23.7351 149.023 24.7068 151.664 25.5311C154.053 26.2772 156.997 26.5717 159.005 28.1243C162.99 31.2044 161.817 37.4009 160.986 41.7905C160.933 42.0659 160.883 42.3342 160.834 42.5942L160.707 43.2894C160.302 45.5553 160.008 47.88 160.993 50.0547C162.044 52.3775 164.169 54.1006 166.065 55.7626L166.448 56.0996C168.128 57.5849 170.047 59.3897 171.279 61.4032C172.404 59.1462 173.937 57.3018 175.558 55.2254C176.494 54.0267 176.134 53.478 175.523 52.5458C175.378 52.3257 175.22 52.0841 175.061 51.8075C174.261 50.4143 173.871 48.9292 174.121 47.3398C174.582 44.4044 176.999 42.2841 179.405 40.691C182.247 38.8104 185.418 37.4172 188.355 35.6677C194.39 32.0734 200.268 27.9638 205.564 23.3996C205.71 23.2734 205.963 23.4387 205.846 23.6111C201.663 29.7867 196.758 35.123 190.73 39.6526C188.285 41.4893 185.718 43.0128 183.133 44.6143L182.39 45.0771C181.352 45.7297 180.057 46.6019 179.588 47.7128C179.228 48.5641 179.727 49.2565 180.225 49.9473C180.38 50.1632 180.535 50.379 180.665 50.5994C182.386 53.5386 181.555 56.2811 179.515 58.7737L179.42 58.8886C177.392 61.3138 175.855 63.5693 175.12 66.6677C173.541 73.3235 175.741 80.2563 178.043 86.5048L178.134 86.751C179.38 90.119 180.704 93.4624 181.786 96.8843L182.084 97.8303C183.064 100.979 183.867 104.084 182.767 107.321C182.393 108.422 180.846 108.682 180.203 107.646C177.937 103.992 177.372 99.5951 175.951 95.5779C174.566 91.6626 172.976 87.8181 171.638 83.8868C169.916 78.8252 168.763 73.3768 169.389 68.0676C169.371 68.0367 169.35 68.0076 169.335 67.9749L168.897 67.0441C167.701 64.5236 166.546 62.3224 164.372 60.3134C162.104 58.2177 159.643 56.3624 157.858 53.8255C154.898 49.6176 155.596 45.0486 156.3 40.4407C156.518 39.0141 156.737 37.5837 156.847 36.1592L156.901 35.4203C156.986 34.1692 157.033 32.469 156.191 31.6032C155.244 30.6285 153.022 30.3797 151.766 29.9482C148.518 28.8328 145.318 27.533 142.27 25.9723C139.368 24.4868 136.558 22.8456 133.941 20.923L132.614 19.9545C130.522 18.4219 128.352 16.7483 126.949 14.6621C126.787 14.422 127.062 14.0344 127.355 14.1495C129.697 15.0717 131.836 16.5386 134.027 17.8149C134.061 17.7371 134.1 17.6585 134.145 17.5796C136.856 12.8184 137.97 7.54351 137.537 2.1282ZM200.509 8.54616C201.14 5.84208 196.816 4.71379 196.085 7.44983C194.502 13.376 196.566 19.9231 201.528 23.7773C203.8 25.5432 207.053 22.4262 204.757 20.6431L204.624 20.538C200.995 17.6423 199.295 13.0951 200.489 8.62858L200.509 8.54616ZM126.588 14.9325C127.172 13.8658 125.812 12.8736 124.894 13.6633C121.061 16.959 117.108 20.5258 112.832 23.2675C111.562 24.0821 110.914 25.8554 111.669 27.1689C105.701 29.7156 98.9485 30.2338 92.5513 31.079C86.2522 31.9111 80.0625 33.2488 74.0404 35.2452C68.0248 37.24 62.1956 39.85 57.0278 43.4748C51.5117 47.3435 47.3849 52.2111 43.481 57.5799C35.3201 68.8015 29.4594 81.3029 24.3976 94.0765L23.9179 95.2938C18.4401 109.269 13.8903 123.586 10.4448 138.163C8.50879 146.353 6.84589 154.623 5.41468 162.91C4.70579 167.014 4.079 171.13 3.51165 175.255C3.40256 176.048 3.28048 176.848 3.15774 177.653C2.62708 181.131 2.08407 184.691 2.52427 188.14C2.63897 189.038 3.0732 189.764 3.66394 190.27C2.51545 194.716 1.77089 199.293 1.15521 203.785C0.238029 210.478 -0.134828 217.331 0.0431615 224.082C0.187394 229.551 0.571376 235.26 3.28802 240.177C6.04877 245.174 11.2059 248.239 16.7235 249.689C29.2112 252.968 41.9422 248.917 53.4033 244.107L54.4631 243.659L55.2671 243.31C54.2536 246.236 53.8389 249.339 52.7415 252.246C52.295 253.429 53.0372 254.917 54.1136 255.518L54.2701 255.605L54.3631 255.655C55.1778 256.069 56.2022 256.075 56.9979 255.605L57.1254 255.526C57.2256 255.458 57.3238 255.38 57.4191 255.295L57.4104 255.301L57.4363 255.28L57.5138 255.212L57.5123 255.222L57.5997 255.144C58.4258 254.384 58.7088 253.41 58.4993 252.246L58.4241 251.798C57.9336 248.662 58.1721 245.449 57.5196 242.333C68.3907 237.591 79.0686 232.362 89.522 226.82C96.0213 223.374 102.43 219.769 108.708 215.954C111.796 214.078 114.859 212.163 117.895 210.209L118.096 210.08C121.183 208.114 124.621 206.365 126.617 203.29C127.332 202.188 126.988 201.015 126.174 200.273C126.759 199.795 127.124 199.063 127.214 198.286C131.825 195.647 137.157 194.281 142.381 193.168L142.865 193.066C149.804 191.608 156.841 190.508 163.401 187.757C166.567 186.43 169.518 184.703 172.108 182.482C174.97 180.029 177.091 176.908 179.826 174.337C181.121 173.12 182.553 172.086 184.243 171.445C184.644 171.293 185.051 171.158 185.461 171.032C186.356 174.217 187.448 177.419 189.523 180.068C191.927 183.139 195.337 184.832 199.228 185.431C203.597 186.105 208.106 186.136 212.517 186.351C213.413 186.395 214.324 186.458 215.244 186.522C218.981 186.78 222.856 187.047 226.428 186.077C233.798 184.074 238.624 176.197 241.668 169.807L241.853 169.418C245.092 162.523 246.812 155.143 247.485 147.611C248.264 138.887 247.497 130.089 245.773 121.511C245.652 120.905 245.075 120.444 244.498 120.273C229.456 115.807 212.335 114.059 196.921 117.863C197.054 117.199 197.01 116.513 196.723 115.853C195.997 114.184 194.098 113.741 192.475 113.235L192.25 113.164C190.074 112.462 187.901 111.748 185.72 111.057L185.671 111.041C182.078 109.902 178.406 108.738 174.912 110.822C173.309 111.778 171.925 113.138 170.71 114.517C169.993 115.331 169.287 116.163 168.601 117.001C168.487 117.141 168.157 117.675 167.835 118.206L167.245 119.183C167.232 119.161 167.213 119.14 167.181 119.125C166.781 118.938 166.559 119.044 166.249 119.353C166.127 119.474 166.059 119.657 166.085 119.828C160.044 121.462 154.286 124.065 149.642 128.246C143.926 133.392 140.332 140.343 136.1 146.594C133.803 149.988 131.167 153.373 128.055 156.11C126.535 157.448 124.859 158.503 123.065 159.285C123.027 159.244 122.992 159.203 122.95 159.164C121.532 157.879 119.282 157.252 117.631 158.133C117.627 158.133 117.624 158.132 117.621 158.132L117.531 158.136C117.515 158.136 117.5 158.138 117.485 158.14L117.395 158.152C116.77 157.243 115.57 156.701 114.307 157.391C102.574 163.8 90.5209 169.724 78.2101 175.018C74.381 176.664 70.5331 178.278 66.6684 179.85C66.6791 179.093 66.3354 178.321 65.7401 177.633C65.2556 177.074 64.447 177.074 63.8489 177.413C68.1259 172.341 68.3066 165.497 68.5371 158.906L68.6017 157.154C68.733 153.791 68.9055 150.432 69.0779 147.073C69.4531 139.762 69.8281 132.455 69.7786 125.125C69.7755 124.69 69.0409 124.558 68.9661 125.019C67.5645 133.649 66.6419 142.343 65.7698 151.039L65.274 156.007C64.6054 162.7 65.2402 171.775 58.9887 176.269C58.4206 176.677 58.0213 177.374 57.9442 178.067C55.8108 177.553 53.6192 177.159 51.4753 176.792L50.1955 176.574C49.4326 176.445 48.6513 176.295 47.8592 176.143C45.1142 175.617 42.2387 175.065 39.5422 175.247C39.3106 175.262 39.1774 175.583 39.4153 175.702C42.5067 177.249 46.2226 177.893 49.53 178.918C53.0936 180.022 56.6987 181.334 60.3321 182.185C60.4587 182.215 60.5799 182.23 60.6969 182.237L59.6788 182.639C53.4833 185.046 47.1682 187.251 41.0644 189.865C40.7068 190.018 40.9788 190.498 41.3137 190.439C47.577 189.339 53.7805 187.521 59.839 185.596L61.135 185.182C67.5292 183.13 73.8363 180.891 80.0636 178.401C92.2125 173.542 104.048 168.074 115.561 161.933C115.411 162.801 115.314 163.681 115.185 164.504C114.861 166.586 114.549 168.673 114.296 170.764C114.226 171.343 114.154 171.923 114.081 172.502C113.634 176.078 113.184 179.671 113.328 183.273C113.536 188.46 115.31 194.87 119.574 198.462C118.969 199.359 119.291 200.385 120.014 201.038C118.539 201.885 117.166 202.93 115.717 203.884C113.188 205.55 110.639 207.189 108.072 208.8C102.842 212.084 97.5442 215.274 92.1884 218.362C81.6717 224.425 70.8968 230.015 59.8192 235.051C59.3784 235.252 58.9359 235.453 58.492 235.655C48.1032 240.389 36.8644 245.509 25.2076 245.362C19.9887 245.296 14.0341 244.145 10.1621 240.485C6.42316 236.952 5.56083 231.529 5.17494 226.703L5.10538 225.802C4.61429 219.189 4.53743 212.582 4.70695 205.956C4.80914 201.97 5.11166 198.008 5.43617 194.048L5.6809 191.077C6.88578 191.132 8.08951 190.489 8.59931 188.938C9.78847 185.321 9.89166 181.45 10.3408 177.688C10.7617 174.165 11.2408 170.649 11.7801 167.141C12.9006 159.858 14.2639 152.625 15.9425 145.443C19.243 131.324 23.3314 117.37 28.2192 103.691C32.9187 90.539 38.2568 77.5452 45.8497 65.6848C49.2442 60.3834 52.9528 54.9625 57.7179 50.7182C62.2067 46.7188 67.627 43.7838 73.1378 41.3262C79.3881 38.5383 86.0147 36.679 92.6771 35.078L93.4034 34.9035C100.058 33.3037 106.602 31.6748 112.335 27.9314C116.05 31.0749 119.432 34.2481 122.573 37.9634C125.749 41.7208 128.794 45.5594 132.421 48.9333C136.053 52.3128 140.165 54.9607 144.881 56.6811C149.763 58.4623 155.034 59.0044 159.519 61.6999C160.381 62.2178 161.406 61.1925 160.897 60.3626C158.315 56.1542 153.421 54.047 148.841 52.4866L147.921 52.1762C143.362 50.613 139.592 48.2688 136.182 44.9153C132.725 41.5149 129.813 37.6414 126.733 33.9253C124.324 31.0198 121.774 27.9195 118.8 25.4224C119.959 24.2206 121.102 23.0054 122.17 21.7205C123.93 19.6013 125.276 17.3298 126.588 14.9325ZM205.964 19.4679C205.849 19.125 206.288 18.7989 206.598 18.9947C208.398 20.1318 209.957 21.6341 211.617 22.9509C213.458 24.4119 215.313 25.8431 217.197 27.2523C219.944 29.3071 216.758 33.0898 214.341 30.8451C211.033 27.7746 207.41 23.7596 205.964 19.4679ZM217.348 35.4076C217.517 32.4574 213.266 32.2657 212.333 34.7486C211.592 36.7185 211.387 38.818 210.486 40.75C209.593 42.664 208.56 44.5211 207.426 46.3105C205.195 49.8344 202.751 53.4581 200.097 56.6947C197.554 59.7946 193.499 61.1263 189.549 59.9219C188.763 59.6823 187.934 59.2167 187.085 58.7395C185.098 57.6237 182.998 56.4445 181.08 57.9438C180.882 58.0983 181.096 58.4244 181.325 58.3522C182.947 57.8406 184.404 59.1228 185.757 60.3141C186.383 60.8654 186.988 61.3972 187.576 61.7228C189.141 62.5888 190.945 63.03 192.731 63.1577C196.971 63.4607 200.65 61.6368 203.454 58.6538C206.546 55.3636 209.441 51.8773 211.913 48.1207C213.206 46.1556 214.287 44.1425 215.223 41.9983L215.32 41.7778C216.226 39.7199 217.218 37.6741 217.348 35.4076ZM217.686 37.389C217.084 37.2501 216.894 38.0472 217.437 38.2639C231.042 43.7023 244.971 49.3238 254.701 60.4862C264.289 71.4851 269.002 85.994 272.198 99.8448L272.392 100.692C275.658 115.089 278.549 129.589 281.384 144.077L283.276 153.753C284.542 160.215 285.81 166.677 287.041 173.146L287.271 174.347C288.741 181.952 290.401 189.523 291.515 197.189C292.839 206.298 293.727 215.448 294.158 224.638C294.588 233.825 294.143 242.945 293.521 252.112C293.306 255.283 298.809 256.083 299.314 252.873C301.864 236.65 300.458 219.908 298.121 203.727L297.955 202.585C295.637 186.85 292.492 171.29 289.161 155.738L288.492 152.628C284.892 135.931 281.643 119.167 278.074 102.465C274.862 87.4339 270.794 72.3887 261.005 60.0089C255.969 53.6401 249.631 48.4608 242.145 44.9916C234.664 41.5244 226.794 39.5055 218.779 37.6422L217.686 37.389ZM182.395 114.711C182.637 114.8 182.875 114.886 183.11 114.967C184.704 115.515 186.307 116.036 187.909 116.562L187.925 116.568C188.16 116.649 189.648 117.206 190.904 117.637L191.491 117.834L191.235 118.099C191.191 118.143 191.147 118.185 191.102 118.227C190.627 118.701 190.191 119.133 189.815 119.687C189.802 119.707 189.793 119.727 189.781 119.746C185.125 116.324 177.78 117.438 172.233 118.473L171.149 118.678C173.308 116.979 175.735 114.4 178.463 113.971C179.79 113.762 181.134 114.252 182.395 114.711ZM123.092 118.27C123.456 118.198 123.831 118.106 124.212 118.012C125.57 117.679 127.002 117.327 128.283 117.815C129.126 118.137 129.543 119.134 128.83 119.828C127.593 121.031 125.796 121.098 124.13 121.382L123.983 121.408C122.014 121.761 120.04 122.097 118.065 122.415C114.347 123.012 110.621 123.541 106.881 123.99C103.041 124.451 99.1896 124.862 95.3329 125.171L93.8398 125.29C90.582 125.543 87.1922 125.733 83.9956 125.249C83.5311 125.179 83.6059 124.522 83.9956 124.407C87.4975 123.378 91.3389 123.103 94.9593 122.667C98.8083 122.204 102.651 121.714 106.483 121.133C110.31 120.553 114.131 119.931 117.938 119.243C119.659 118.932 121.377 118.608 123.092 118.27ZM220.064 118.689C212.327 117.883 204.579 118.053 196.818 118.269C196.198 120.24 194.037 121.919 191.944 121.982C193.583 124.404 193.753 127.682 192.603 130.251C195.044 131.194 197.147 132.888 198.423 135.3C200.194 138.645 199.962 142.366 198.212 145.457C199.706 146.769 200.587 148.9 200.499 150.908C200.4 153.148 199.025 155.061 197.882 156.915C196.647 158.92 196.606 160.686 196.226 162.932C195.671 166.218 193.387 168.212 190.449 169.457L190.605 170.053C191.363 172.915 192.305 175.936 194.471 178.029C197.256 180.722 201.578 180.697 205.258 180.867L205.436 180.876C208.806 181.039 212.175 181.231 215.544 181.416L218.07 181.553C221.949 181.76 225.675 181.785 228.841 179.296C234.011 175.234 237.555 168.51 239.798 162.558C244.507 150.064 244.563 136.354 242.402 123.342C235.154 121.075 227.633 119.479 220.064 118.689ZM187.987 125.149C186.727 122.258 182.085 122.319 179.449 122.491C172.813 122.927 165.633 124.556 159.728 127.567C153.607 130.688 149.483 135.689 145.793 141.219L145.621 141.478C142.024 146.904 138.561 153.327 132.93 157.057C130.062 158.958 126.712 160.694 123.232 161.445C122.993 161.853 122.606 162.176 122.099 162.293L121.863 162.345C120.872 162.558 119.332 162.793 118.002 162.652C118.011 163.284 118.004 163.91 118.02 164.509C118.067 166.223 118.087 167.945 118.087 169.661C118.087 170.958 118.062 172.257 118.036 173.556C117.99 175.855 117.945 178.155 118.043 180.451C118.18 183.631 118.643 186.952 120.216 189.794C121.369 191.879 122.892 193.259 124.73 194.576C129.251 191.902 134.363 190.272 139.551 189.046C145.826 187.564 152.251 186.575 158.383 184.565C161.335 183.598 164.172 182.331 166.743 180.612C169.472 178.785 171.556 176.315 173.7 173.898L174.035 173.523C176.224 171.087 178.611 168.756 181.704 167.435C184.368 166.297 187.878 166.095 190.207 164.334C191.424 163.413 191.526 162.077 191.654 160.708C190.494 160.869 189.28 160.704 188.098 160.543C187.761 160.497 187.427 160.452 187.098 160.414L186.327 160.327C184.922 160.164 183.549 159.986 182.165 159.639C181.908 159.575 181.908 159.199 182.165 159.134C183.8 158.724 185.421 158.55 187.098 158.359L187.491 158.311C187.685 158.287 187.88 158.261 188.075 158.234C189.413 158.054 190.792 157.868 192.091 158.151C192.357 157.165 192.743 156.224 193.284 155.281C194.043 153.957 195.48 152.455 195.674 150.908C195.732 150.446 195.621 149.902 195.396 149.493L195.319 149.354C195.225 149.19 195.113 149.024 194.949 148.922C194.931 148.942 194.893 148.966 194.81 148.991C193.665 149.341 192.666 148.797 192.136 147.959C190.646 148.138 189.065 148.159 187.555 148.178C186.784 148.188 186.032 148.198 185.318 148.229L183.185 148.329C180.904 148.43 178.521 148.475 176.378 148.028C176.079 147.966 175.988 147.482 176.288 147.358C178.922 146.264 182.117 145.916 184.938 145.496C186.513 145.261 188.099 145.082 189.679 144.875C190.731 144.738 191.847 144.51 192.937 144.455C195.669 141.154 194.197 135.946 190.394 134.525C189.296 134.993 188.286 134.874 187.161 134.742C186.867 134.707 186.564 134.672 186.25 134.646C184.74 134.52 183.225 134.435 181.708 134.441C180.474 134.446 179.21 134.577 177.942 134.709C176.088 134.901 174.226 135.094 172.439 134.896C171.949 134.841 171.494 134.209 171.981 133.823C174.285 131.999 177.587 131.404 180.511 131.015L181.117 130.936C182.098 130.811 183.29 130.629 184.527 130.521C184.806 129.991 185.308 129.591 186.062 129.492C186.286 129.462 186.511 129.444 186.736 129.426L186.732 129.404C188.571 129.319 188.491 126.305 187.987 125.149ZM261.764 132.886C261.943 132.622 262.368 132.789 262.289 133.101C260.21 141.37 258.258 149.656 256.983 158.082C254.864 172.087 255.055 186.26 255.246 200.38C255.262 201.593 255.279 202.807 255.293 204.02L255.303 204.812C255.4 213.065 255.534 221.319 255.815 229.568C255.849 230.573 255.892 231.58 255.934 232.589L255.934 232.589C256.067 235.765 256.201 238.953 256.085 242.119C256.002 244.382 255.38 246.522 255.16 248.758C255 250.381 255.091 252.026 255.182 253.659C255.201 253.992 255.219 254.324 255.235 254.656C255.3 255.957 253.321 255.902 253.186 254.656L253.014 253.044C252.79 251.004 252.514 248.977 251.825 247.024C250.997 244.676 250.599 242.37 250.312 239.904C249.872 236.126 249.676 232.311 249.506 228.506L249.39 225.875C248.681 209.975 248.706 194.001 249.854 178.118L249.938 176.984C251.075 161.971 253.048 145.75 261.764 132.886ZM155.777 139.421L155.72 139.417C155.199 139.405 154.947 140.052 155.169 140.448C155.786 141.547 155.383 142.859 154.979 144.172C154.701 145.076 154.423 145.98 154.478 146.816C154.549 147.899 154.771 148.941 155.214 149.937C155.66 150.943 156.45 151.778 156.879 152.777C157.297 153.751 157.275 154.866 157.253 155.988C157.235 156.943 157.216 157.903 157.468 158.785C158.103 161.007 159.999 162.763 162.456 162.001C163.209 161.767 163.575 161.199 163.657 160.469C163.746 159.67 163.599 158.952 163.419 158.207L163.25 157.509C163.016 156.512 163.055 155.496 162.971 154.477C162.767 152.001 161.906 150.397 160.505 148.393C159.142 146.445 159.42 144.493 158.854 142.334C158.464 140.849 157.37 139.597 155.777 139.421ZM62.1167 181.844C62.1863 181.764 62.2517 181.681 62.3114 181.593L62.5655 181.748L62.0094 181.962L62.1167 181.844ZM182.082 185.178C182.316 184.672 183.134 184.727 183.386 185.178C184.372 186.944 184.481 189.197 184.668 191.191L184.687 191.396C184.925 193.828 185.134 196.269 185.263 198.709C185.506 203.34 185.623 207.965 185.608 212.603C185.593 217.355 185.494 222.101 185.23 226.847L185.159 228.118C184.918 232.242 184.514 236.841 182.495 240.446C181.761 241.757 179.765 241.372 179.34 240.046C178.124 236.257 178.515 231.853 178.872 227.838C178.923 227.255 178.974 226.68 179.02 226.116L179.297 222.648C179.572 219.18 179.834 215.71 180.041 212.237C180.326 207.486 180.561 202.731 180.787 197.978C180.86 196.434 180.939 194.89 181.023 193.346L181.152 191.03C181.262 189.094 181.253 186.968 182.082 185.178ZM26.1333 190.751L25.5169 191.328C23.4145 193.314 21.4606 195.407 19.6552 197.655C17.845 199.909 15.7721 202.35 14.5883 204.989C13.9722 206.363 13.8706 207.718 15.5001 208.218C15.6885 208.276 15.8776 208.049 15.764 207.885L15.7418 207.846C15.4063 207.139 17.8983 204.774 19.0892 203.643C19.3465 203.399 19.5431 203.212 19.6372 203.113L20.1899 202.531C21.6682 200.986 23.1829 199.488 24.7579 198.031C26.5332 196.388 28.3119 194.761 30.1992 193.238C31.9219 191.848 34.3152 190.666 34.8093 188.389C35.0406 187.324 34.3298 186.425 33.2143 186.357C30.7691 186.207 28.6342 188.303 26.8716 190.033C26.6177 190.283 26.3716 190.524 26.1333 190.751Z" transform="translate(9.205273 2.60627)" id="ðŸ–-Ink" fill="#000000" fill-rule="evenodd" stroke="none" />
  </g>
</svg>