<?xml version="1.0" encoding="utf-8"?>
<svg width="314px" height="273px" viewBox="0 0 314 273" version="1.1" xmlns:xlink="http://www.w3.org/1999/xlink" xmlns="http://www.w3.org/2000/svg">
  <desc>Created with Lunacy</desc>
  <defs>
    <rect width="313.783173" height="272.9061" id="artboard_1" />
    <clipPath id="clip_1">
      <use xlink:href="#artboard_1" clip-rule="evenodd" />
    </clipPath>
  </defs>
  <g id="body/Tee-Selena" clip-path="url(#clip_1)">
    <use xlink:href="#artboard_1" stroke="none" fill="#FFFFFF" />
    <path d="M199.412 279.164C168.283 279.249 149.638 278.895 114.427 278.401C73.6731 277.354 62.6899 279.236 39.8589 274.885C36.3682 274.165 33.7125 273.075 31.0189 271.555C30.0534 272.614 28.4166 274.189 26.8622 273.146C23.999 271.31 25.3117 264.894 24.6017 261.272C23.4263 229.37 21.5463 196.517 27.9731 165.002C24.0769 163.772 1.24669 154.657 0 151.603C20.6456 99.2073 65.9355 37.8927 125.523 40.2018C126.722 41.636 127.788 43.7586 129.118 45.2188C137.219 42.2745 148.465 39.3236 149.02 27.987C150.423 20.4212 151.434 13.3573 152.109 6.40393C152.232 5.60867 153.214 5.33539 153.818 4.99659C154.075 3.19868 154.664 1.36094 155.943 0.128209C166.386 -0.782471 190.225 3.3975 196.48 5.11982C205.015 6.53722 204.127 15.4266 205.717 22.1655C208.237 30.496 209.991 39.1419 213.737 47.2806C214.584 47.3938 216.958 47.7948 217.833 47.9434C217.878 47.0211 217.433 44.2839 218.304 43.7254C219.918 42.1505 220.291 45.1462 220.649 46.1231C255.914 39.6597 278.975 68.7043 286.703 101.148C292.299 117.464 299.715 133.976 309.396 151.685C315.467 162.68 298.025 164.723 290.714 169.111C298.259 197.602 299.167 226.618 300.405 255.335C300.732 259.752 301.176 265.759 299.564 267.957C298.799 268.534 298.267 268.518 297.492 268.56C295.995 270.127 293.428 270.023 291.268 270.47C284.436 271.676 277.436 272.482 270.859 272.603C252.399 283.693 223.939 277.492 199.412 279.164" transform="translate(-1.533588 -11.91404)" id="âœ‹-Skin" fill="#D08B5B" stroke="none" />
    <path d="M0 0L168.016 0L168.016 107.226L0 107.226L0 0Z" transform="translate(89.76313 73.34586)" id="ðŸ‘•-Top" fill="#FFFFFF" stroke="none" />
    <path d="M152.226 3.03144C153.196 -1.6802 161.209 -0.588573 160.845 4.16327C160.103 7.40586 159.58 10.7777 159.063 14.1116C156.761 28.9605 154.575 43.0573 133.697 41.6359C149.926 69.342 200.04 86.193 216.239 49.8175C208.257 48.8931 206.678 30.5793 205.714 24.1714L205.674 23.5986C205.46 20.3032 205.532 17.2487 207.573 14.4302C209.61 15.9101 210.429 18.5904 211.119 21.0347L211.624 22.9924C213.312 29.5159 215.079 36.01 217.758 42.2361L217.853 42.251C217.719 38.0282 223.305 36.0977 224.689 40.6214C262.481 35.5702 283.154 65.8389 291.31 97.4953C297.259 114.824 305.015 131.495 313.824 147.61C319.228 157.843 309.577 161.663 301.188 164.983C299.254 165.749 297.387 166.488 295.788 167.272C302.356 192.814 303.645 219.274 304.863 245.471C304.734 247.246 304.91 249.613 305.097 252.148C305.499 257.593 305.959 263.803 303.585 266.539C298.434 270.45 295.659 263.746 296.452 259.447C296.92 240.222 295.787 221.051 294.655 201.879C293.996 190.736 293.338 179.594 292.994 168.439C286.546 171.083 280.019 173.519 273.42 175.782C273.756 204.261 277.245 232.739 278.489 261.072C280.122 262.321 281.024 264.486 279.63 266.372C272.163 276.478 258.665 277.987 246.788 278.132C219.953 278.459 193.091 278.38 166.251 278.301C164.822 278.297 163.392 278.292 161.963 278.288C152.893 278.089 143.799 278.139 134.7 278.189L134.697 278.189C115.94 278.292 97.1671 278.395 78.5706 276.315C73.158 280.261 72.051 271.755 72.776 268.127L73.0513 260.86C73.2365 256.015 73.4327 251.17 73.6851 246.329L74.3144 234.523C75.368 214.849 76.4849 195.186 78.2564 175.55C62.2128 173.421 46.3998 169.642 31.0908 164.543C31.5419 176.745 31.5002 188.995 31.4585 201.25C31.3837 223.228 31.3089 245.223 34.0763 266.996C36.9207 270.743 31.2162 274.26 27.8862 271.913C25.0187 269.791 24.9961 266.26 24.974 262.826C24.9644 261.315 24.9548 259.822 24.7027 258.477L24.5969 255.633C24.5381 254.071 24.4781 252.508 24.4181 250.943C23.2995 221.77 22.1617 192.094 27.7531 163.379L25.219 162.425C17.4943 159.497 -2.37135 151.67 0.233751 147.808C20.973 95.0644 67.3657 31.9796 128.809 34.9775C130.366 36.0259 131.161 38.0684 132.315 39.5323L134.143 38.8885C141.223 36.3734 148.911 33.1847 149.12 24.7273C150.461 17.5208 151.524 10.3128 152.226 3.03144ZM157.023 130.608C157.776 127.63 162.835 100.257 154.433 107.767C152.193 111.705 151.333 116.269 150.929 120.704C150.479 122.853 150.688 125.07 150.896 127.271C151.187 130.367 151.476 133.428 149.921 136.214C147.54 142.44 138.789 149.713 138.205 138.146C152.522 137.671 148.224 120.064 138.476 125.507C133.139 129.941 132.215 138.29 134.887 144.407C130.572 139.849 123.575 139.833 118.581 136.393C109.561 126.93 124.711 117.083 132.96 113.675C133.133 113.491 134.174 113.059 135.342 112.575C137.318 111.757 139.655 110.788 138.754 110.615C132.279 110.673 125.789 112.01 120.2 115.316C108.633 120.793 104.696 137.751 117.928 143.693C120.789 145.032 123.921 145.751 126.754 147.133C133.892 150.724 131.586 155.237 124.216 155.37C123.342 155.555 121.889 155.463 120.29 155.362C116.342 155.112 111.505 154.806 112.302 158.476C114.111 161.699 118.052 162.18 121.504 162.27C130.73 162.884 142.203 157.825 136.988 147.292C143.282 152.496 151.142 145.22 153.839 139.566C157.126 145.822 165.389 143.938 170.052 140.236C177.177 145.682 186.117 139.629 189.291 132.868C189.356 134.275 189.421 135.681 189.491 137.088C189.634 139.97 194.238 140.896 194.918 137.8C195.953 133.094 197.38 128.441 199.343 124.017C203.859 112.389 206.62 117.632 206.777 126.745C207.333 130.166 209.099 133.231 212.995 133.462C214.081 133.526 215.497 132.589 215.667 131.488L215.891 130.03C216.366 126.977 216.916 123.833 218.104 120.964C219.248 130.461 232.062 130.415 235.634 122.541C243.046 126.858 250.823 120.827 254.279 114.589L254.382 114.4C255.59 112.266 252.522 109.686 250.767 111.693L250.158 112.308C246.85 115.631 241.587 120.45 237.237 116.346C237.381 114.495 237.323 112.605 237.206 110.784C237.065 108.613 233.977 106.681 232.221 108.623C229.747 106.582 226.672 106.876 224.084 108.299C217.379 110.138 213.155 116.474 211.7 122.77C211.546 117.739 209.85 112.281 204.155 111.807C198.883 111.764 196.551 116.929 194.683 121.069C194.484 121.51 194.29 121.94 194.098 122.35C193.983 120.442 193.871 118.534 193.771 116.626C193.6 113.342 188.907 113.377 188.522 116.529L188.512 116.626C187.773 123.438 183.885 139.757 174.075 136.564C178.212 132.141 185.695 118.664 178.581 114.466C167.632 111.792 162.017 128.554 166.686 136.354L166.443 136.519C163.776 138.305 159.368 140.293 157.879 136.29L157.71 135.921C156.946 134.228 156.27 132.395 157.023 130.608ZM230.245 113.394C228.86 113.03 227.436 112.934 226.093 113.278C219.193 120.251 227.597 128.272 231.172 117.853C230.486 116.45 230.145 114.922 230.245 113.394ZM176.255 119.011C176.286 119.198 176.262 119.413 176.24 119.613C176.229 119.712 176.219 119.807 176.216 119.894C175.861 124.478 173.76 128.88 170.837 132.457C169.155 127.597 171.323 121.174 176.255 119.011ZM143.642 132.739C144.171 131.434 143.434 127.545 141.361 128.719C139.109 129.997 138.287 134.17 138.185 136.561L138.177 136.798C140.482 136 142.794 134.833 143.642 132.739ZM198.504 142.203C209.129 139.033 261.692 123.352 253.482 134.497C248.95 137.429 243.115 137.416 237.944 138.635C232.818 139.633 227.712 140.73 222.63 141.922C187.66 150.981 151.871 161.339 121.067 180.193C122.897 179.854 121.621 180.384 120.409 180.887C119.898 181.099 119.399 181.306 119.148 181.442L119.073 181.484C118.494 181.751 117.936 181.094 118.384 180.617C139.704 161.813 168.527 152.691 195.264 143.257L196.898 142.679C197.19 142.595 197.738 142.432 198.504 142.203Z" transform="translate(-4.219475 -8.563046)" id="ðŸ–-Ink" fill="#000000" fill-rule="evenodd" stroke="none" />
  </g>
</svg>