<?xml version="1.0" encoding="utf-8"?>
<svg width="314px" height="273px" viewBox="0 0 314 273" version="1.1" xmlns:xlink="http://www.w3.org/1999/xlink" xmlns="http://www.w3.org/2000/svg">
  <desc>Created with Lunacy</desc>
  <defs>
    <rect width="313.783173" height="272.9061" id="artboard_1" />
    <clipPath id="clip_1">
      <use xlink:href="#artboard_1" clip-rule="evenodd" />
    </clipPath>
  </defs>
  <g id="body/jacket-polka-dots" clip-path="url(#clip_1)">
    <use xlink:href="#artboard_1" stroke="none" fill="#FFFFFF" />
    <path d="M153.977 0.0681255C165.152 0.603372 182.552 5.25325 183.422 8.22506C184.78 12.8655 181.861 30.2628 186.743 39.6336C188.825 43.6282 196.728 43.2701 199.79 44.571C210.036 48.9238 240.367 57.1791 246.621 67.574C249.127 71.7385 264.524 123.412 272.706 149.774C273.628 152.746 274.67 155.495 275.802 158.041L276.219 156.063C279.555 140.129 281.223 130.484 281.223 127.125C281.223 121.879 276.91 99.741 281.223 94.1113C285.492 88.5379 295.78 83.9809 300.409 83.8903L300.548 83.8889C303.587 83.8889 306.224 82.9668 308.459 81.1227L311.736 79.5231C328.407 71.404 338.146 66.9504 340.955 66.1623C345.437 64.9046 353.065 67.584 349.251 71.6065C346.709 74.2882 340.319 79.0321 330.083 85.8382L326.223 88.8147L326.69 89.0511C331.678 91.5998 334.611 93.7451 335.489 95.4869C336.393 97.2822 335.959 99.4059 334.186 101.858L334.455 102.113C336.697 104.248 337.818 105.681 337.818 106.41L337.818 109.974C340.049 113.144 340.607 115.789 339.491 117.906C338.376 120.024 336.608 121.859 334.186 123.412C332.402 127.967 330.277 131.21 327.811 133.139C325.346 135.068 321.085 136.674 315.028 137.956L309.547 150.675L305.107 168.544L302.869 188.483L303.518 188.939C306.53 191.068 308.459 192.647 308.459 194.277C308.459 196.818 296.308 256.566 277.403 259.241C273.314 259.819 252.11 256.982 245.148 251.485L245.251 252.079C246.889 261.682 246.542 266.669 244.211 267.04C215.561 271.599 134.194 273.007 0.108355 271.266C-0.689396 202.193 2.91786 156.192 10.9301 133.262C31.4219 74.618 54.0151 54.588 61.9193 52.8725C68.843 51.3698 92.8518 42.0951 99.5633 39.6336C103.944 38.0267 104.883 33.2091 109.875 33.2091L110.279 33.2111C115.107 33.2582 119.388 34.0962 121.794 31.6862C128.106 25.3617 126.342 16.6073 128.961 8.22506C130.404 3.60651 140.264 -0.588689 153.977 0.0681255Z" transform="translate(21.29083 -14.52022)" id="âœ‹-Skin" fill="#D08B5B" stroke="none" />
    <path d="M109.875 0L110.279 0.00200412C111.472 0.013635 112.632 0.0735818 113.738 0.120868L111.407 7.83046L111.357 8.64018C109.843 35.2209 123.254 47.9453 151.589 46.8134C179.925 45.6814 194.019 36.9827 193.872 20.7171L193.864 20.2219L193.864 10.0998L194.31 10.1827C196.46 10.5734 198.533 10.8279 199.79 11.3619C210.036 15.7147 240.367 23.97 246.621 34.3649C249.127 38.5294 264.524 90.2027 272.706 116.565C273.005 117.528 273.316 118.468 273.639 119.385L273.639 124.595L273.55 124.911C270.683 135.321 274.501 143.831 285.004 150.443C292.449 155.13 300.095 158.172 307.942 159.57C308.279 160.076 308.459 160.57 308.459 161.068C308.459 163.609 296.308 223.357 277.403 226.032C273.314 226.61 252.11 223.773 245.148 218.276L245.251 218.87L245.347 219.441C246.874 228.671 246.496 233.467 244.211 233.831C215.561 238.39 134.194 239.798 0.108355 238.057C-0.689396 168.984 2.91786 122.983 10.9301 100.053C31.4219 41.4089 54.0151 21.3789 61.9193 19.6634C68.843 18.1607 92.8518 8.88601 99.5633 6.42444C103.944 4.81762 104.883 0 109.875 0Z" transform="translate(21.29083 18.68889)" id="ðŸ‘•-Top" fill="#BA98DE" stroke="none" />
    <path d="M126.538 0.957308C127.194 -0.304091 128.935 -0.140645 130.084 0.431601C132.72 2.30235 131.229 5.5162 129.955 8.25929C129.565 9.10121 129.195 9.89876 128.971 10.5995C126.519 16.3867 122.26 22.0426 116.381 24.7474C116.868 30.5004 117.42 36.2407 117.624 42.0116C125.14 51.0607 137.813 54.3635 149.063 56.9034C166.732 61.646 186.673 51.9293 192.636 34.9782C185.849 31.2354 183.653 21.4353 185.678 14.5981C185.854 14.1179 186.621 13.9056 186.894 14.4418C188.753 18.1519 188.505 22.6781 190.618 26.3435C210.898 28.2278 237.071 35.6547 250.356 51.5726C256.244 59.5364 258.577 69.8942 261.477 79.1239C267.664 98.1521 272.594 117.565 278.662 136.613L279.378 133.009C281.338 123.081 283.119 113.018 281.795 102.922L281.772 102.439C281.702 101.148 281.577 99.6784 281.442 98.0992C280.739 89.849 279.781 78.6036 285.168 74.0522C290.975 69.7456 299.386 66.285 306.672 68.2702C319.639 62.6698 330.831 53.2391 344.641 49.5659C348.891 48.717 355.006 49.7222 354.001 55.3185C351.217 65.1062 339.558 68.9053 331.587 73.9524C336.696 75.2961 342.925 81.3265 338.933 86.585C338.899 86.6781 338.868 86.7488 338.837 86.8047C342.074 88.1971 342.528 91.6969 341.733 94.6978C341.692 95.1047 341.615 95.1234 341.615 95.1423C341.615 95.1471 341.62 95.152 341.633 95.1637C341.665 95.1947 341.748 95.2737 341.918 95.528C345.57 98.8714 343.956 108.192 338.454 108.506C338.814 112.923 335.891 117.212 332.189 119.62C328.2 122.215 322.431 122.327 319.128 125.879C311.372 139.151 308.697 154.82 307.852 170.018C312.964 171.875 317.551 177.429 312.906 182.141C312.814 182.151 312.723 182.162 312.63 182.169C309.937 189.143 308.898 196.577 307.474 203.86C305.283 216.288 299.574 227.698 292.284 238.051C283.853 251.754 261.183 249.582 249.762 240.738C249.772 241.276 249.802 241.813 249.831 242.349C249.928 244.124 250.024 245.885 249.436 247.607C248.306 250.026 245.55 248.981 245.278 246.598C239.24 249.893 237.818 239.016 244.53 240.741C244.013 232.878 243.714 225.003 243.471 217.126C235.873 219.513 235.545 207.278 243.317 209.724L243.308 206.342C243.251 180.406 243.546 154.381 247.073 128.649C247.399 126.724 247.951 124.863 248.274 122.949C248.308 122.751 248.626 122.807 248.628 122.997C248.832 136.498 248.619 150.009 248.407 163.524L248.407 163.525C248.051 186.073 247.696 208.63 249.279 231.162C251.386 231.785 252.226 234.132 253.786 235.499C257.249 238.603 261.966 240.114 266.578 240.64C279.494 242.398 285.071 238.57 290.822 227.673C288.228 229.356 284.723 226.385 286.304 223.722L286.353 223.641C287.995 220.819 292.633 222.51 292.046 225.67C297.828 216.683 300.855 206.548 303.09 196.265L303.392 195.036C304.479 190.671 305.889 185.668 308.498 181.719C292.586 177.783 277.02 165.79 274.53 149.336C270.49 161.656 265.017 173.698 259.801 185.68C258.19 189.846 257.518 194.325 255.209 198.19C254.672 199.083 253.31 198.853 253.006 197.91C251.441 191.116 254.633 184.571 257.699 178.285C258.699 176.233 259.686 174.209 260.49 172.213C263.159 167.628 270.818 146.69 275.566 146.64C270.23 123.94 263.113 101.411 256.336 78.9943C249.782 48.7259 236.426 42.8892 208.133 33.359C209.849 41.8496 213.625 50.2488 217.408 58.6649C224.872 75.2689 232.365 91.939 224.138 109.508L223.836 110.195C222.568 113.114 221.515 116.056 222.4 119.259C223.259 122.368 225.215 125.067 226.781 127.863C234.358 141.542 230.856 157.209 227.584 171.844C227.078 174.108 226.578 176.347 226.125 178.55C221.851 197.839 217.63 217.145 213.213 236.404C212.342 240.246 211.778 244.204 210.462 247.927C209.783 249.848 206.396 249.666 206.615 247.425C207.033 243.076 208.291 238.835 209.213 234.565C214.713 206.917 222.155 179.595 226.887 151.826C228.643 139.967 225.398 133.898 222.423 128.335C220.241 124.256 218.205 120.448 218.395 114.829C219 112.304 219.976 109.88 220.951 107.46C222.598 103.367 224.243 99.2834 224.087 94.735C224.611 82.6268 219.883 71.6765 215.151 60.7177C211.224 51.6213 207.294 42.5192 206.363 32.7443L202.738 31.4893C200.926 30.8598 199.116 30.2252 197.312 29.5756C206.808 94.0324 203.925 159.897 199.178 224.673C198.872 225.615 198.754 229.297 198.609 233.84C198.294 243.707 197.849 257.636 195.065 256.368C194.859 257.534 194.221 258.682 192.832 258.676C180.223 258.788 167.611 258.981 155.002 259.127C153.015 258.949 150.784 259.071 148.5 259.196C143.815 259.452 138.91 259.719 135.442 257.436C129.486 255.786 128.801 230.45 127.208 224.87L126.588 220.812C116.467 154.499 107.41 86.8185 114.685 19.8493C104.563 20.2268 102.474 30.8292 101.723 38.5487C99.8464 55.5869 88.5042 70.2598 87.9603 87.4935C87.9142 91.6746 88.7274 95.725 90.4494 99.5639C91.1718 101.051 91.9775 102.575 92.7988 104.128C97.1716 112.399 101.986 121.504 97.0139 130.347C90.0747 138.472 90.6269 140.649 93.1479 150.589L93.1971 150.783C100.408 184.191 112.382 216.309 123.773 248.52C121.654 259.238 110.439 226.717 106.376 214.936C105.693 212.956 105.212 211.561 105.011 211.057C98.421 214.273 94.8213 203.6 102.38 202.84C97.5249 187.068 93.0571 171.178 89.3374 155.113L89.2388 154.66C89.0166 153.657 88.7654 152.63 88.5105 151.588C86.8805 144.926 85.1018 137.656 89.8215 131.962C97.9247 124.009 93.6134 115.516 89.0606 106.548C85.7067 99.9411 82.2217 93.076 83.4722 85.9782C80.9266 87.8099 77.0733 85.8828 77.1313 82.806C77.0158 79.342 81.81 77.5676 84.117 80.2106C86.4889 66.6349 94.7411 54.7833 97.2383 41.2475L97.3511 40.6117C98.1973 35.8279 98.4359 30.7942 100.857 26.434C97.5613 28.5115 94.0518 30.1906 90.4421 31.6725C96.8962 36.9046 84.3982 41.6799 85.4323 33.5973C50.0385 43.5359 42.0386 57.3956 29.0434 89.2247C31.4708 86.9358 35.629 89.8979 34.176 92.8172C33.0167 95.8925 27.9598 94.9934 27.9617 91.7155L27.3694 93.0863C19.4893 111.374 12.3171 130.106 8.71273 149.677C15.7832 148.709 13.983 159.676 7.5769 156.584C5.00602 173.989 4.96536 191.642 5.27953 209.188C11.2433 206.153 11.4228 216.466 5.33707 213.525C5.55955 227.904 5.88561 242.283 6.13111 256.662C6.18098 259.722 1.31696 259.707 1.24024 256.662C1.10737 251.495 0.948947 246.325 0.790484 241.155C0.271401 224.217 -0.248095 207.266 0.128956 190.334C-0.334047 151.976 11.0274 115.006 27.9555 80.6448C42.9339 41.0808 63.6236 36.5814 101.689 25.0784C105.203 20.0161 112.71 15.2281 118.835 18.4069C122.262 13.0381 124.002 6.67754 126.538 0.957308ZM217.017 42.8159C216.668 42.7262 216.32 42.7262 215.971 42.8159C215.448 42.8379 214.962 42.9905 214.509 43.2698C214.474 43.2884 214.444 43.3074 214.409 43.3219C213.224 43.9511 212.491 45.2728 212.491 46.5651C212.491 47.8571 213.224 49.1751 214.409 49.8039L214.509 49.8601C214.823 49.9863 215.138 50.1129 215.448 50.2432C215.971 50.4037 216.496 50.4257 217.017 50.3106C217.37 50.3106 217.704 50.225 218.011 50.0496C218.498 49.897 218.916 49.6326 219.273 49.2603L219.399 49.1399C219.727 48.8168 219.965 48.4431 220.11 48.0134C220.351 47.5663 220.462 47.0826 220.443 46.5651L220.305 45.5636C220.121 44.9269 219.787 44.3718 219.308 43.9031C219.296 43.8882 219.284 43.8767 219.273 43.8659L218.479 43.2698C218.027 42.9905 217.539 42.8379 217.017 42.8159ZM346.571 52.6929C350.359 51.9557 351.826 54.0768 349.306 57.0568C343.686 65.0143 332.461 66.457 325.684 72.7573C321.948 72.8946 318.121 73.9498 315.127 76.1565C313.627 73.3463 311.663 70.8834 309.024 69.3108C315.422 66.2894 321.886 63.6374 328.158 60.4221C333.905 57.552 340.046 53.5496 346.571 52.6929ZM73.9338 53.0523L74.0676 53.0542C74.831 53.058 75.5406 53.2441 76.2004 53.6164C76.4843 53.829 76.7685 54.0412 77.052 54.2572C77.5775 54.7669 77.9381 55.37 78.1418 56.0662L78.291 57.1534C78.314 57.7193 78.1913 58.2443 77.9266 58.732C77.7582 59.2425 77.4663 59.6814 77.052 60.0537C76.6726 60.4525 76.2196 60.7351 75.6941 60.8993C75.1916 61.1558 74.6507 61.2753 74.0676 61.2526C73.3043 61.2526 72.5946 61.0664 71.9348 60.6941C71.6513 60.4819 71.3675 60.2663 71.0798 60.0537C70.5577 59.5399 70.1971 58.9368 69.9938 58.2443L69.8442 57.1534C69.8212 56.5912 69.9439 56.0629 70.2086 55.5748C70.3774 55.0688 70.6689 54.6254 71.0798 54.2572C71.4634 53.8551 71.9156 53.5717 72.4412 53.4079C72.905 53.1708 73.4016 53.0542 73.9338 53.0523ZM231.058 57.4626C230.613 57.2131 230.133 57.0865 229.615 57.0865L229.499 57.0849C229.151 57.0883 228.822 57.1673 228.515 57.3248C228.162 57.4365 227.855 57.626 227.594 57.8982C227.318 58.1476 227.118 58.4459 227.003 58.7917C226.823 59.1231 226.742 59.4768 226.758 59.8599L226.861 60.5975L226.897 60.7135C227.037 61.1344 227.27 61.505 227.594 61.8224C227.785 61.9676 227.981 62.1128 228.173 62.2543C228.618 62.5074 229.101 62.6344 229.615 62.6344C230.01 62.6489 230.379 62.5707 230.717 62.3957C231.073 62.284 231.38 62.0938 231.637 61.8224C231.917 61.5692 232.113 61.2714 232.228 60.9292C232.408 60.5975 232.488 60.2438 232.477 59.8599L232.373 59.1231C232.239 58.654 231.994 58.2444 231.637 57.8982C231.445 57.753 231.253 57.6082 231.058 57.4626ZM51.5113 66.9495C52.1948 66.9526 52.8352 67.1085 53.4352 67.4199L53.5632 67.489L54.3841 68.107C54.783 68.4644 55.0631 68.8885 55.228 69.3766C55.4812 69.8457 55.5963 70.3558 55.5771 70.8994C55.5963 71.443 55.4812 71.9493 55.228 72.4184C55.0631 72.9099 54.783 73.3306 54.3841 73.688C54.1578 73.9747 53.8662 74.1981 53.5172 74.3623C53.1907 74.4922 52.8689 74.6262 52.5428 74.7603C52.1784 74.872 51.7565 74.8869 51.3613 74.9055C50.644 74.9017 49.9769 74.7268 49.3547 74.3768L48.5496 73.774C48.1621 73.4237 47.8856 73.0104 47.7245 72.5301C47.4962 72.1073 47.3805 71.6556 47.3806 71.1732L47.3834 71.0409C47.3834 71.0114 47.3834 70.9776 47.3877 70.9441C47.4333 70.5941 47.4836 70.2441 47.5327 69.8945C47.6596 69.3803 47.9013 68.9298 48.2619 68.5501C48.3539 68.3714 48.4767 68.2262 48.6343 68.107C49.1403 67.6156 49.7383 67.2805 50.4292 67.0902C50.7898 67.0459 51.1504 66.9972 51.5113 66.9495ZM295.511 72.0797C307.528 67.1831 311.468 76.1543 312.516 84.493C312.155 86.0266 310.935 87.5605 309.133 87.2143C307.623 87.118 306.568 85.8251 305.553 84.5807C304.345 83.1006 303.193 81.6891 301.399 82.4409C299.221 83.6475 296.942 84.2879 294.467 84.6267C292.159 84.9432 292.68 88.8074 295.019 88.603C297.464 88.3871 299.75 87.7765 301.924 86.7712C302.246 87.132 302.591 87.4883 302.947 87.8375C299.175 90.9296 292.411 100.208 301.522 100.748C299.017 102.44 299.888 106.987 302.496 108.164C290.921 113.05 298.885 115.823 303.877 108.656C305.879 109.088 308.088 108.622 309.9 107.844C308.472 115.983 320.476 112.659 325.426 111.044L326.007 110.853C327.989 116.149 334.466 113.978 327.073 110.532C327.539 110.302 328.257 110.154 329.017 109.998C330.898 109.611 333.039 109.17 332.287 107.293C330.505 106.164 327.742 107.189 325.181 108.139C323.858 108.629 322.59 109.1 321.538 109.243C321.41 109.276 321.273 109.312 321.129 109.35C317.936 110.184 310.862 112.031 311.511 107.11C318.4 103.401 325.094 98.4113 333.318 98.3614C335.052 98.339 335.06 95.7328 333.318 95.744C327.008 95.7789 321.515 98.4076 316.104 101.245L315.04 101.805C311.203 104.235 300.901 109.596 302.396 100.785C306.453 100.836 309.328 98.5492 312.238 96.2343C313.98 94.8487 315.735 93.453 317.764 92.5425C321.671 89.9769 327.236 90.0141 330.61 86.8535C330.98 83.808 324.863 86.2002 321.582 87.4831C320.902 87.7489 320.344 87.9671 319.991 88.0794L319.874 88.1149C314.328 90.0204 310.216 94.0202 305.439 97.1145C295.679 101.029 300.169 92.6326 304.184 88.9493C311.563 95.4525 319.737 87.6119 316.497 79.4698C319.473 78.7698 322.059 76.5449 325.313 76.25C325.926 76.2524 326.557 76.218 327.197 76.1832C328.864 76.0925 330.584 75.9989 332.169 76.546C339.029 79.6227 337.762 81.8493 336.44 84.1719C335.698 85.4769 334.938 86.8123 335.593 88.3457C336.28 89.504 337.795 89.5375 338.497 90.5424C339.024 91.5176 338.809 92.6501 338.597 93.7657C338.303 95.3173 338.015 96.8364 339.736 97.855C342.576 99.6537 341.902 107.118 337.753 106.404C336.556 106.083 336.007 107.751 337.001 108.239C332.271 120.406 322.385 116.119 315.197 123.693C311.663 128.036 311.153 133.396 310.134 138.617L310.034 139.122C307.486 150.703 305.092 162.352 304.579 174.22C292.444 169.869 283.549 160.134 276.903 149.696C283.544 135.701 286.88 119.747 285.826 104.348C285.009 97.7787 284.589 91.1906 285.373 84.5932C285.418 84.0573 285.422 83.428 285.427 82.7598C285.439 80.8981 285.453 78.7355 286.37 77.4559C288.18 74.9323 291.645 73.4969 294.618 72.4043L295.511 72.0797ZM235.463 77.0837C235.82 77.0721 236.15 77.1429 236.461 77.2996C236.779 77.3998 237.055 77.5747 237.289 77.8167C237.784 78.2006 238.087 78.9672 238.087 79.589C238.087 80.2107 237.784 80.9781 237.289 81.3612C236.967 81.6702 236.587 81.8861 236.15 82.0053L235.463 82.095C234.796 82.1248 234.117 81.786 233.641 81.3612C233.545 81.2759 233.453 81.1903 233.357 81.108C232.924 80.7208 232.736 80.1437 232.709 79.589C232.697 79.2952 232.763 79.0197 232.901 78.7628C232.989 78.4947 233.142 78.2673 233.357 78.0699C233.453 77.988 233.545 77.9028 233.641 77.8167C234.159 77.3514 234.765 77.1172 235.463 77.0837ZM253.556 88.3275L253.431 88.3253C252.972 88.3268 252.542 88.4318 252.141 88.6365C251.689 88.7776 251.293 89.0234 250.96 89.37C250.603 89.6939 250.35 90.0737 250.204 90.5167C249.973 90.9412 249.866 91.3991 249.886 91.8868L250.02 92.8362L250.062 92.974C250.242 93.5191 250.542 93.995 250.96 94.4074C251.209 94.5898 251.455 94.776 251.704 94.9622C252.275 95.2861 252.893 95.4458 253.556 95.4499C254.059 95.4685 254.531 95.3643 254.968 95.1409C255.424 94.9994 255.816 94.7537 256.149 94.4074C256.507 94.0831 256.76 93.7 256.906 93.2607C257.135 92.8362 257.243 92.3783 257.224 91.8868C257.178 91.5741 257.135 91.2573 257.093 90.9412C256.917 90.338 256.602 89.8168 256.149 89.37L255.406 88.8152C254.834 88.4913 254.216 88.3312 253.556 88.3275ZM52.853 96.7453C56.8421 96.7453 56.8344 102.751 52.853 102.751C48.8671 102.751 48.8747 96.7453 52.853 96.7453ZM72.3195 104.583L72.2151 104.585C71.5131 104.613 70.7077 104.921 70.2327 105.424C69.7183 105.968 69.3347 106.682 69.3697 107.446C69.4042 107.699 69.4383 107.952 69.4771 108.209C69.6148 108.693 69.8683 109.114 70.2327 109.471L70.7122 110.007C70.7809 110.085 70.8461 110.163 70.9156 110.238C71.514 110.863 72.3038 111.035 73.1362 111.105C73.5432 111.12 73.9268 111.039 74.2797 110.86C74.6476 110.741 74.9663 110.544 75.2349 110.264C75.7335 109.736 76.1858 108.972 76.1018 108.227C76.0707 107.941 76.0327 107.658 75.9867 107.371C75.841 106.872 75.5839 106.44 75.2076 106.072C75.1821 106.05 75.1557 106.028 75.1289 106.006L74.9663 105.878L74.4063 105.424C74.1374 105.145 73.819 104.947 73.4546 104.832C73.1055 104.65 72.7261 104.568 72.3195 104.583ZM231.519 108.89C232.133 108.89 232.704 109.043 233.234 109.341C233.252 109.348 233.272 109.356 233.287 109.364C233.794 109.654 234.196 110.045 234.496 110.536C234.803 111.046 234.956 111.597 234.956 112.186C234.956 112.777 234.803 113.325 234.496 113.835C234.196 114.326 233.794 114.717 233.287 115.008C233.272 115.019 233.252 115.026 233.234 115.033C232.704 115.331 232.133 115.48 231.519 115.484C230.909 115.48 230.338 115.331 229.808 115.033C228.772 114.445 228.124 113.347 228.124 112.186C228.124 111.023 228.772 109.925 229.808 109.341C230.338 109.043 230.909 108.89 231.519 108.89ZM34.3882 111.742C34.0928 111.59 33.7745 111.523 33.4331 111.534C32.9842 111.534 32.5661 111.645 32.1825 111.861C32.0905 111.925 31.998 111.984 31.9102 112.044L31.8817 112.062L31.8565 112.081C31.5726 112.23 31.3424 112.431 31.1737 112.688C30.9776 112.934 30.8054 113.224 30.7206 113.529C30.6827 113.675 30.6366 114.028 30.6366 114.173C30.6405 114.2 30.6405 114.222 30.6405 114.248C30.652 114.42 30.6711 114.665 30.7172 114.829L30.9282 115.313C31.1123 115.618 31.3612 115.86 31.6762 116.039C31.998 116.277 32.3628 116.381 32.7579 116.434C33.1339 116.482 33.4868 116.474 33.8473 116.348L34.0928 116.266C34.5148 116.15 34.8792 115.946 35.1861 115.644C35.3165 115.484 35.4469 115.321 35.5774 115.156C35.7999 114.784 35.9149 114.378 35.9149 113.943C35.9264 113.612 35.8574 113.303 35.7001 113.016C35.6004 112.718 35.4316 112.457 35.1861 112.241C34.9636 112.003 34.6989 111.839 34.3882 111.742ZM84.9223 120.83C84.4274 120.722 83.9287 120.745 83.4335 120.894C83.119 120.987 82.8159 121.08 82.5248 121.262L81.7802 121.82C81.3279 122.264 81.013 122.789 80.8366 123.392L80.8293 123.422L80.6946 124.386L80.8293 125.35C80.952 125.637 81.0782 125.927 81.2048 126.214C81.4392 126.635 81.7576 126.974 82.1638 127.231C82.3982 127.454 82.674 127.61 82.9889 127.696C83.2801 127.86 83.595 127.942 83.9287 127.942C84.2621 128.031 84.592 128.031 84.9223 127.942C85.4171 127.923 85.8813 127.777 86.3105 127.513C86.9843 127.028 87.0287 127.024 87.3065 126.665L87.6493 126.214C87.772 125.927 87.8986 125.637 88.0252 125.35L88.1556 124.386L88.0252 123.422C87.9105 122.953 87.688 122.543 87.3577 122.193C87.1893 121.921 86.9668 121.702 86.6864 121.541C86.4528 121.318 86.1801 121.162 85.8617 121.076C85.574 120.912 85.2598 120.83 84.9223 120.83ZM292.513 121.221C292.497 121.013 292.773 120.939 292.912 121.061C294.76 122.67 295.938 124.598 298.182 125.845C300.438 127.097 302.762 126.996 305.114 127.804C305.912 128.079 305.916 129.115 305.114 129.386C300.664 130.894 292.85 125.782 292.513 121.221ZM262.503 121.616C263.565 121.333 264.732 121.631 265.51 122.387C266.289 123.143 266.596 124.27 266.305 125.302C266.017 126.307 265.184 127.122 264.145 127.394C263.834 127.476 263.52 127.521 263.201 127.506C262.668 127.502 262.169 127.372 261.705 127.112L261.107 126.661C260.815 126.4 260.612 126.091 260.493 125.734C260.305 125.391 260.22 125.023 260.236 124.624L260.232 124.554C260.22 124.412 260.24 124.27 260.286 124.133C260.286 123.987 260.309 123.846 260.347 123.708C260.627 122.703 261.471 121.891 262.503 121.616ZM32.8763 141.985C35.0509 141.449 35.7371 138.679 34.184 137.171C32.6304 135.663 29.7764 136.33 29.224 138.441L29.1627 138.679C28.6295 140.719 30.5244 142.562 32.6265 142.045L32.8763 141.985ZM62.2007 138.962C62.1777 138.481 61.4604 138.359 61.3185 138.847C60.0104 143.4 59.1699 148.058 58.4837 152.734C57.6129 151.669 56.769 150.589 55.9788 149.461L55.3557 148.582L54.0953 146.833C53.727 146.319 53.144 145.801 52.7719 145.247C52.806 145.195 52.8221 145.128 52.8026 145.068C52.6487 144.61 52.3499 144.461 51.8781 144.67C51.0028 145.058 51.2949 146.444 51.4716 147.283C51.4775 147.311 51.4833 147.338 51.4888 147.365L51.5252 147.544C51.9049 149.487 52.6415 151.319 53.4393 153.129L53.6083 153.515C54.3433 155.211 55.1272 157.18 56.4195 158.497C56.7421 158.825 57.1487 159.119 57.586 159.331C57.5438 159.629 57.5051 159.927 57.4671 160.225C56.6526 166.459 56.0773 172.732 55.5213 178.998L55.104 183.711C53.8744 197.672 52.8008 211.673 52.2306 225.674C52.0622 229.848 51.9241 234.021 51.8052 238.198C51.7511 240.161 51.6825 242.127 51.6825 244.092C51.6832 244.295 51.6807 244.5 51.6781 244.704C51.6669 245.621 51.6555 246.544 51.9318 247.421C52.0388 247.76 52.2195 248.076 52.3384 248.411C52.3576 248.452 52.3806 248.489 52.396 248.53C51.6245 249.148 51.1723 250.466 51.694 251.382C52.3154 252.477 53.7731 252.685 54.8544 252.123C56.2093 251.419 56.604 249.658 57.1104 248.393L57.1948 248.174C57.8986 246.279 57.8853 244.355 57.9124 242.346L57.9959 237.46L58.0387 235.25C58.1308 230.831 58.2688 226.411 58.3724 221.992C58.4875 216.921 58.6448 211.85 58.8366 206.783L58.9129 206.805C59.4196 207.062 59.9678 207.181 60.5551 207.159C60.6391 207.155 60.7239 207.148 60.8083 207.14C61.5981 207.137 62.3312 206.947 63.014 206.563C63.6699 206.183 64.1916 205.677 64.579 205.04C64.978 204.377 65.1736 203.666 65.1771 202.9L65.1798 202.765C65.1801 202.232 65.0529 201.732 64.8015 201.265C64.6251 200.74 64.322 200.286 63.8962 199.902L63.786 199.799C63.2657 199.326 62.6616 198.999 61.9706 198.812C61.1961 198.606 60.4208 198.606 59.646 198.812C59.4772 198.856 59.3161 198.912 59.1588 198.975C59.6076 188.986 60.1983 179.004 60.931 169.034C61.2072 165.255 61.5329 161.454 61.798 157.649C62.2353 151.416 62.5191 145.169 62.2007 138.962ZM260.107 143.567L259.979 143.565C259.513 143.567 259.077 143.672 258.669 143.88C258.205 144.026 257.806 144.275 257.468 144.629L257.371 144.727C256.959 145.159 256.673 145.659 256.509 146.23C256.329 146.87 256.329 147.514 256.509 148.154C256.57 148.523 256.712 148.881 256.939 149.19C257.265 149.722 257.702 150.15 258.254 150.466C258.826 150.791 259.444 150.95 260.107 150.954C260.771 150.95 261.388 150.791 261.96 150.466C262.513 150.15 262.95 149.722 263.28 149.19C263.502 148.881 263.644 148.523 263.706 148.154C263.886 147.514 263.886 146.87 263.706 146.23C263.529 145.615 263.211 145.083 262.747 144.629C262.497 144.439 262.244 144.252 261.991 144.063C261.408 143.735 260.782 143.571 260.107 143.567ZM75.4694 143.765C75.7536 143.69 76.0336 143.69 76.3175 143.765C76.7395 143.783 77.1342 143.906 77.499 144.13C77.7138 144.293 77.9286 144.454 78.1434 144.614L78.3307 144.832C78.731 145.305 78.7412 145.386 79.0483 146.107C79.1753 146.509 79.1945 146.911 79.1024 147.313C79.1024 147.585 79.0295 147.838 78.8911 148.073C78.8147 148.33 78.6843 148.553 78.4887 148.739C78.3502 148.966 78.1665 149.148 77.9321 149.283C77.6332 149.547 77.2803 149.73 76.8737 149.823L76.0486 149.93C75.9416 149.916 75.8303 149.901 75.7229 149.89C75.5935 149.886 75.4677 149.872 75.3446 149.849L75.22 149.822L75.1066 149.793C74.9564 149.75 74.8101 149.694 74.668 149.622C74.3995 149.547 74.1655 149.417 73.9657 149.223C73.6208 149.007 73.3446 148.716 73.1451 148.356L73.0914 148.237C73.0186 148.11 72.9572 147.98 72.9108 147.838C72.7807 147.615 72.7155 147.377 72.7117 147.12C72.6354 146.778 72.6405 146.439 72.7318 146.1L72.7654 145.987L73.0608 145.306C73.2142 145.076 73.3753 144.841 73.5821 144.651C73.7067 144.544 74.0112 144.313 74.1827 144.197L74.2879 144.13C74.6527 143.906 75.0478 143.783 75.4694 143.765ZM235.802 161.223C236.6 161.223 237.309 161.547 237.888 162.06C238.468 162.574 238.717 163.345 238.752 164.082C238.767 164.477 238.683 164.845 238.498 165.188C238.379 165.542 238.176 165.847 237.888 166.108C237.351 166.625 236.557 166.946 235.802 166.946C235.004 166.946 234.295 166.621 233.715 166.108C233.136 165.59 232.886 164.823 232.852 164.082C232.836 163.691 232.921 163.323 233.105 162.98C233.212 162.662 233.387 162.38 233.631 162.139L233.715 162.06C234.252 161.539 235.046 161.223 235.802 161.223ZM23.0554 168.096C23.6343 167.943 24.2139 167.943 24.7931 168.096L25.5715 168.412C25.9551 168.613 26.2585 168.885 26.4887 169.231C26.7802 169.536 26.9754 169.898 27.0752 170.311C27.3019 170.877 27.275 171.774 27.0947 172.351C26.8914 173.006 26.5769 173.528 26.0897 174.019C25.2803 174.831 24.0371 175.065 22.9365 174.82C22.6331 174.753 22.3454 174.622 22.0846 174.462C21.2525 173.963 20.6925 173.092 20.6963 172.128C20.6963 172.024 20.704 171.919 20.7193 171.815C20.6656 171.603 20.6461 171.383 20.6541 171.152L20.7692 170.311L20.7765 170.289C20.9303 169.756 21.2065 169.294 21.6089 168.904C21.981 168.546 22.415 168.287 22.911 168.132L23.0363 168.096L23.0554 168.096ZM269.389 181.35C268.832 181.231 268.276 181.253 267.716 181.425C267.386 181.559 267.052 181.696 266.719 181.834C266.435 182.042 266.154 182.255 265.871 182.467C265.461 182.836 265.173 183.271 265.004 183.777C264.816 184.094 264.72 184.433 264.72 184.801C264.62 185.163 264.62 185.52 264.72 185.881C264.743 186.421 264.908 186.927 265.215 187.393C265.434 187.664 265.652 187.94 265.871 188.215C266.154 188.428 266.435 188.64 266.719 188.849C267.052 188.986 267.386 189.124 267.716 189.258C268.276 189.429 268.832 189.451 269.389 189.332C269.584 189.325 269.772 189.299 269.956 189.254C269.96 189.254 269.968 189.254 269.972 189.25C269.979 189.25 269.987 189.25 269.995 189.247L270.041 189.235L270.169 189.202C270.633 189.069 271.043 188.846 271.398 188.532C271.709 188.353 271.955 188.115 272.139 187.813C272.503 187.426 272.749 186.972 272.875 186.451C273.029 185.818 273.121 184.891 272.867 184.262L272.446 183.29C272.181 182.817 271.824 182.437 271.368 182.151C271.107 181.897 270.8 181.726 270.443 181.629C270.117 181.443 269.764 181.35 269.389 181.35ZM77.4804 187.706C78.0116 187.565 78.5398 187.554 79.0674 187.673L79.1993 187.706C79.6209 187.802 79.9857 187.988 80.2999 188.264C80.6489 188.487 80.9294 188.781 81.1323 189.146C81.4242 189.634 81.57 190.163 81.5734 190.728C81.57 191.295 81.4242 191.823 81.1323 192.311C80.8446 192.784 80.4571 193.156 79.9704 193.435L79.5484 193.633C79.1955 193.849 78.8196 193.964 78.4126 193.982C78.1406 194.053 77.8679 194.053 77.5997 193.982C77.3232 193.982 77.0661 193.916 76.8287 193.782C76.5678 193.711 76.345 193.584 76.1532 193.398C75.8195 193.189 75.559 192.914 75.3672 192.568L75.0561 191.856L74.9491 191.067L75.0561 190.282L75.2253 189.895C75.3783 189.362 75.6549 188.901 76.0573 188.51C76.4601 188.122 76.9357 187.854 77.4804 187.706ZM290.978 191.667C290.618 191.481 290.227 191.395 289.808 191.41L289.67 191.413C289.165 191.435 288.69 191.569 288.247 191.82C287.89 192.006 287.602 192.263 287.384 192.586C287.112 192.873 286.931 193.212 286.835 193.599Q286.617 194.392 286.835 195.185C286.878 195.323 286.958 195.475 287.009 195.595C287.066 195.721 287.112 195.878 287.192 196C287.764 196.876 288.7 197.445 289.785 197.445C290.33 197.441 290.833 197.307 291.301 197.047C291.723 196.805 292.064 196.481 292.321 196.086C292.344 196.06 292.363 196.03 292.379 196C292.547 195.751 292.674 195.48 292.758 195.185L292.791 195.078C292.892 194.718 292.899 194.356 292.816 193.997C292.797 193.599 292.674 193.231 292.451 192.888C292.179 192.441 291.811 192.084 291.347 191.82C291.228 191.76 291.105 191.708 290.978 191.667ZM41.0764 196.82C41.6061 196.704 42.1355 196.727 42.661 196.887C42.9794 197.017 43.294 197.147 43.6085 197.274L44.4141 197.877C44.5637 198 44.6366 198.134 44.7747 198.309L44.9473 198.528C45.1968 198.852 45.2028 198.921 45.4767 199.612C45.6608 200.275 45.6608 200.937 45.4767 201.601C45.388 201.92 45.2542 202.222 45.0815 202.501C44.9237 202.769 44.7349 203.005 44.5223 203.221L44.4141 203.328C44.0535 203.704 43.6277 203.968 43.1367 204.125C42.826 204.3 42.4923 204.385 42.1355 204.385C41.6061 204.501 41.0764 204.478 40.5513 204.318C40.2329 204.188 39.9183 204.057 39.6034 203.931L38.7982 203.328L38.1768 202.546L37.9786 202.087L37.7778 201.626L37.6359 200.602C37.6167 200.07 37.728 199.579 37.9769 199.117C38.0728 198.793 38.242 198.506 38.4871 198.268C38.6639 197.978 38.9014 197.747 39.201 197.575C39.4461 197.337 39.7419 197.173 40.0756 197.08C40.3863 196.905 40.72 196.82 41.0764 196.82ZM225.195 205.349C230.216 205.349 230.224 197.777 225.195 197.777C220.174 197.777 220.167 205.349 225.195 205.349ZM263.818 217.479C264.374 217.334 264.934 217.334 265.49 217.479C265.901 217.573 266.257 217.755 266.561 218.026C266.868 218.221 267.119 218.469 267.309 218.778L267.37 218.883C267.808 219.605 267.876 220.432 267.688 221.236C267.455 222.23 266.511 223.135 265.49 223.369L265.456 223.375L265.422 223.384C265.007 223.511 264.589 223.53 264.175 223.437C263.756 223.418 263.369 223.299 263.013 223.075C262.56 222.792 262.18 222.428 261.889 221.988C261.658 221.638 261.536 221.262 261.516 220.856C261.444 220.588 261.444 220.32 261.516 220.052C261.536 219.646 261.658 219.27 261.889 218.92L262.379 218.306L262.429 218.265C262.821 217.885 263.284 217.624 263.818 217.479ZM68.3394 228.038C69.1408 228.031 69.9544 228.25 70.6103 228.701C71.2471 229.14 71.7301 229.613 72.0412 230.324C72.1255 230.518 72.2096 230.708 72.2828 230.901C72.6127 231.754 72.6741 232.61 72.2176 233.444C71.7765 234.252 70.8252 234.606 69.9732 234.847C69.2524 235.056 68.4353 235.09 67.718 234.84C67.3613 234.717 67.0122 234.587 66.69 234.397C66.0877 234.036 65.7617 233.608 65.3589 233.079C65.0443 232.558 64.8871 231.992 64.8871 231.389C64.8871 230.782 65.0443 230.22 65.3589 229.695C65.9761 228.671 67.1196 228.046 68.3394 228.038ZM30.191 229.978C29.5807 229.211 28.6911 228.757 27.678 228.757C27.0988 228.757 26.5618 228.898 26.0593 229.181C25.5798 229.457 25.1962 229.825 24.9123 230.294C24.8931 230.335 24.8739 230.376 24.8513 230.414C24.7819 230.477 24.7132 230.54 24.6438 230.6L24.8279 230.462L24.8245 230.473C24.3296 230.879 24.0032 231.326 23.9111 232.011C23.8152 232.696 23.9955 233.544 24.5824 234.01C25.0968 234.412 25.6104 234.799 26.2817 234.911C27.0758 235.041 27.7283 235.049 28.5258 234.859C29.6041 234.602 30.4745 233.709 30.7622 232.689C31.0345 231.724 30.8082 230.756 30.191 229.978ZM95.3451 229.68C94.8622 229.408 94.3401 229.274 93.7839 229.271L93.656 229.269C93.2755 229.274 92.9219 229.36 92.5871 229.531C92.2035 229.65 91.8697 229.859 91.5897 230.153C91.2867 230.425 91.0757 230.749 90.9491 231.121C90.7535 231.479 90.6652 231.866 90.6806 232.279C90.7189 232.547 90.7573 232.811 90.7918 233.079C90.9414 233.589 91.2061 234.032 91.5897 234.408L92.2188 234.877C92.7021 235.149 93.2238 235.287 93.7839 235.287L93.8993 235.29C94.282 235.289 94.6421 235.199 94.9769 235.03C95.3605 234.907 95.6946 234.699 95.9742 234.408C96.2773 234.133 96.4925 233.813 96.6148 233.44C96.8109 233.079 96.8987 232.692 96.8834 232.279C96.8454 232.014 96.8066 231.746 96.7721 231.479C96.6225 230.968 96.3578 230.529 95.9742 230.153L95.3451 229.68ZM223.892 231.653L224.897 231.784C225.86 231.996 226.635 232.685 227.153 233.47C227.429 233.891 227.578 234.345 227.601 234.833C227.713 235.317 227.69 235.805 227.532 236.292C227.417 236.769 227.191 237.186 226.857 237.54C226.743 237.715 226.608 237.875 226.455 238.016C226.14 238.526 225.665 238.861 225.173 239.204C224.759 239.461 224.31 239.599 223.827 239.621C223.508 239.703 223.186 239.703 222.864 239.621C222.385 239.599 221.936 239.461 221.521 239.204C221.276 239.021 221.031 238.835 220.789 238.653C220.574 238.411 220.374 238.161 220.187 237.901C220.06 237.614 219.937 237.331 219.815 237.048C219.59 236.371 219.698 235.772 219.82 235.096L219.823 235.082C219.841 234.967 219.872 234.863 219.915 234.751L219.997 234.534C220.218 233.969 220.336 233.777 220.727 233.284L220.877 233.09C220.951 232.994 221.028 232.9 221.115 232.815C221.36 232.569 221.71 232.364 221.986 232.152C222.576 231.821 223.213 231.657 223.892 231.653ZM46.4545 239.26C45.8369 238.91 45.1733 238.735 44.4598 238.735L44.3243 238.732C43.8303 238.732 43.3656 238.844 42.9331 239.066C42.4421 239.219 42.0205 239.483 41.6595 239.859C41.2759 240.206 41.0036 240.618 40.8425 241.095C40.597 241.553 40.4823 242.044 40.5011 242.573C40.5513 242.912 40.597 243.254 40.6434 243.593C40.831 244.245 41.1724 244.811 41.6595 245.288C41.9281 245.488 42.1927 245.69 42.4613 245.887C43.0788 246.237 43.7429 246.412 44.4598 246.412L44.5952 246.415C45.0887 246.415 45.5502 246.302 45.9831 246.08C46.4737 245.928 46.8956 245.664 47.2562 245.288C47.6398 244.941 47.9122 244.528 48.0733 244.052C48.3226 243.593 48.4339 243.102 48.4151 242.573L48.2728 241.553C48.0848 240.902 47.7472 240.335 47.2562 239.859C46.9877 239.658 46.723 239.457 46.4545 239.26ZM113.006 243.054C114.583 241.855 117.149 242.506 117.149 244.718C117.149 246.94 114.579 247.581 113.006 246.382L112.928 246.326L112.853 246.266C111.996 245.617 111.968 243.926 112.788 243.221L112.853 243.169C112.902 243.128 112.953 243.091 113.006 243.054Z" transform="translate(18.02785 1.151112)" id="ðŸ–-Ink" fill="#000000" fill-rule="evenodd" stroke="none" />
  </g>
</svg>
