<?xml version="1.0" encoding="utf-8"?>
<svg width="314px" height="273px" viewBox="0 0 314 273" version="1.1" xmlns:xlink="http://www.w3.org/1999/xlink" xmlns="http://www.w3.org/2000/svg">
  <desc>Created with Lunacy</desc>
  <defs>
    <rect width="313.783173" height="272.9061" id="artboard_1" />
    <clipPath id="clip_1">
      <use xlink:href="#artboard_1" clip-rule="evenodd" />
    </clipPath>
  </defs>
  <g id="body/Shirt-and-Coat" clip-path="url(#clip_1)">
    <use xlink:href="#artboard_1" stroke="none" fill="#FFFFFF" />
    <path d="M131.756 0L127.063 11.261L129.649 46.9548L131.573 47.2458C151.894 50.3031 165.703 51.8474 172.999 51.8789L173.225 51.8794C180.572 51.8794 189.376 50.2865 199.637 47.1007L200.104 46.9548L201.289 20.2282L198.495 20.2282L193.442 8.73012L193.447 8.72634C193.503 8.81842 193.561 8.90779 193.621 8.99434C195.728 12.0186 196.949 9.57619 201.898 10.6459C207.824 11.9266 210.454 17.7395 215.671 22.0837C218.094 24.1008 223.178 25.0515 225.611 26.4382L228.166 27.8957C236.174 32.4799 245.378 38.0486 250.211 45.3028C255.875 53.8072 259.781 61.8779 263.386 71.3384C271.159 91.7296 276.554 112.538 280.409 133.937C284.316 155.625 286.664 177.583 288.457 199.523C289.288 209.691 289.992 219.867 290.577 230.05L290.721 232.596C291.028 238.137 290.761 243.558 285.571 246.97C281.852 249.414 276.916 249.787 272.553 250.038L272.316 250.051C240.058 251.888 207.799 253.71 175.54 255.537L127.153 258.282C119.101 258.741 111.05 259.195 102.999 259.647L83.3461 260.748C74.0836 261.26 64.8098 261.703 55.5349 261.65C43.8657 261.584 32.2462 260.748 20.6846 259.238L19.6647 259.103C12.3909 258.129 1.84422 255.662 0.537686 247.196C0.350107 245.98 1.45257 245.22 2.37819 245.395C2.07361 244.017 1.8845 242.637 1.70382 241.438C0.928573 236.315 0.441787 231.159 0.201271 225.987C-0.281295 215.638 0.125318 205.24 1.19134 194.936C2.95491 177.888 5.42707 160.87 7.98152 143.912L8.55028 140.144C11.2673 122.177 14.5022 104.24 19.5641 86.7387C24.2402 70.5714 31.535 53.7525 41.5726 43.5294C51.6101 33.3062 65.9215 24.4244 80.6267 18.9837C81.9002 18.5124 107.202 13.1357 108.907 13.9187L109.213 13.6858C114.258 9.82043 121.454 3.0306 128.863 5.16887L128.88 5.14194C129.055 4.83003 129.739 2.74402 130.685 0.00029391L131.756 0Z" transform="translate(16.49567 8.805093)" id="ðŸ‘•-Top" fill="#8FA7DF" stroke="none" />
    <path d="M10.0443 9.4545C16.1726 1.91366 22.6325 -0.483596 32.1779 0.0782252C38.6511 -0.14628 45.1071 1.48445 50.5883 5.08696C55.6104 7.63396 60.064 11.14 63.2428 15.6532C65.9615 19.5119 63.896 29.0468 66.3791 33.1724C66.3549 33.6213 66.3425 34.0307 66.3425 34.4003C66.3425 37.9704 68.9023 41.9543 74.022 46.3522L74.2254 46.526L74.2254 72.4687C65.6181 75.0374 54.9616 76.3217 42.2558 76.3217C29.7396 76.3217 16.7212 74.2821 3.20067 70.2027L2.58575 70.0159L0 41.8208L2.58575 34.0185L2.58541 27.4836L3.58455 24.5606C5.35388 19.4213 8.06226 11.8936 10.0443 9.4545Z" transform="translate(143.5596 -15.63716)" id="âœ‹-Skin" fill="#D08B5B" stroke="none" />
    <path d="M0 0C0 0 22.7262 6.42306 38.2407 6.42306C53.7552 6.42306 70.4554 0 70.4554 0L67.7461 211.441L24.141 211.959L0 0Z" transform="translate(146.1443 54.3787)" id="ðŸ‘•-Top" fill="#9FD8E5" stroke="none" />
    <path d="M135.501 0.0841525C135.592 -0.0673792 135.833 8.18653e-05 135.836 0.172391C135.882 2.84588 135.406 5.56297 134.937 8.24206C134.777 9.15885 134.617 10.0712 134.479 10.9758C133.936 14.5366 133.762 18.2951 132.977 21.818C132.961 21.9821 132.928 22.1438 132.882 22.3026L132.844 22.4234C132.513 23.4104 131.651 24.2469 130.593 24.5083C130.926 26.2969 131.239 28.0885 131.503 29.8897C131.955 32.9858 132.369 36.0864 132.775 39.1881L133.261 42.9103C133.72 46.4182 134.167 49.9277 134.608 53.4375C135.731 53.8932 136.877 54.2692 138.05 54.595C140.753 55.3456 143.521 55.6509 146.31 55.9163C151.989 56.457 157.712 56.7075 163.411 57.0145L164.632 57.0813C171.04 57.4376 177.482 57.5009 183.874 56.8628C187.043 56.5463 190.188 56.0154 193.278 55.2629C194.849 54.8806 196.375 54.3094 197.942 53.9356C198.462 53.8116 198.927 53.5257 199.448 53.2204C199.679 52.9367 200.003 52.7219 200.426 52.6389L200.541 52.6195L200.654 52.6035L200.693 52.5864L200.69 52.5983C201.011 52.5562 201.315 52.5566 201.603 52.5946C201.717 49.858 201.841 47.1215 201.996 44.3858C202.084 42.8374 202.205 41.2749 202.326 39.7049C202.779 33.8243 203.241 27.8377 202.028 22.0886C201.976 21.8437 202.32 21.7573 202.409 21.9866C205.038 28.7096 205.117 35.9805 205.195 43.1121C205.207 44.1602 205.218 45.2052 205.238 46.2451C205.361 52.8254 205.32 59.4095 205.279 65.9922C205.271 67.349 205.263 68.7057 205.256 70.0624C205.841 70.3044 206.364 70.6324 206.778 71.0926C207.604 72.0122 207.842 73.6109 206.778 74.4985C206.306 74.8921 205.784 75.1653 205.23 75.3549C205.2 82.2512 205.15 89.1483 205.079 96.0451C206.43 97.0581 206.556 99.4637 205.028 100.463C204.773 122.798 204.355 145.133 204.009 167.464L203.282 214.315C203.185 220.557 203.025 226.799 202.967 233.041L203.013 233.058L203.174 233.13C203.445 233.254 203.848 233.453 203.931 233.657C203.953 233.711 203.959 233.748 203.956 233.775C204.399 233.835 204.839 234.039 205.219 234.389C206.157 235.254 205.966 236.558 205.219 237.439L205.019 237.675C204.553 238.224 203.668 238.436 202.945 238.324C202.948 239.587 202.952 240.851 202.956 242.114C202.965 244.746 202.974 247.379 202.966 250.011C202.961 251.201 202.943 252.391 202.922 253.581L202.871 256.434C202.838 258.062 202.689 260.131 200.971 260.862C199.033 261.688 197.294 261.012 196.51 259.101C196.297 258.584 196.343 258.101 196.42 257.59C196.41 257.268 196.383 256.925 196.355 256.583C196.317 256.106 196.279 255.631 196.288 255.217L196.352 252.242C196.362 251.784 196.381 251.325 196.394 250.867L196.338 250.872C191.119 251.118 185.873 251.087 180.634 251.055L180.633 251.055C178.96 251.045 177.287 251.035 175.617 251.034L172.549 251.039C169.989 251.041 167.423 251.028 164.867 250.933L163.909 250.893C161.995 250.806 159.982 250.778 157.998 250.612C158.251 252.589 158.487 254.567 158.698 256.547C158.897 258.424 156.901 260.02 155.12 260.02C153.005 260.02 151.795 258.406 151.542 256.547C150.346 247.776 149.857 238.924 148.715 230.148C147.692 222.288 146.805 214.41 145.904 206.535L145.603 203.91C142.304 175.25 139.101 146.58 136.037 117.896L134.61 104.487C133.17 90.9724 131.721 77.4566 130.499 63.9218C129.8 56.1837 129.156 48.444 128.549 40.6984C128.105 35.0079 127.826 29.3491 127.644 23.6699C126.927 22.9539 126.567 21.9084 126.885 20.8287C127.071 20.1988 127.287 19.5722 127.515 18.9467C127.5 18.332 127.485 17.7177 127.473 17.1022C127.462 16.5199 128.071 16.2202 128.558 16.3167C129.444 14.2343 130.42 12.1698 131.235 10.1076C132.553 6.76942 133.639 3.1725 135.501 0.0841525ZM193.471 6.40022C193.355 6.18763 193.004 6.23938 192.945 6.46687C192.596 7.7997 192.699 9.2923 192.795 10.7039C192.816 11.0041 192.836 11.3005 192.852 11.591C192.956 13.52 193.275 15.4445 193.634 17.3429C194.368 21.234 195.582 25.0412 197.06 28.7234C198.49 32.2917 203.935 29.9651 201.99 26.7059C200.027 23.4142 198.38 19.9997 196.984 16.4464C196.316 14.7456 195.751 13.0114 195.145 11.2898C194.583 9.6885 194.281 7.89469 193.471 6.40022ZM127.828 13.3086C128.019 13.2528 127.988 12.9657 127.78 12.9657C125.12 12.994 122.709 13.6456 120.365 14.8668C117.977 16.1107 116.111 18.1338 113.733 19.3405C112.246 20.0952 111.374 20.762 110.415 22.1299C109.558 23.3496 108.77 24.6143 108.035 25.9066C106.51 28.5865 105.22 31.377 104.037 34.2122C101.044 41.3762 98.3198 48.655 95.475 55.8753L90.9984 67.2379C90.2749 69.0734 89.5695 70.9149 88.866 72.7575L88.7972 72.936C88.7053 73.1728 88.6105 73.41 88.5154 73.6477C87.8699 75.263 87.213 76.9069 87.3542 78.6609C87.513 80.6297 88.7551 82.1841 90.2784 83.3948C92.1258 84.8625 94.0296 86.2684 95.9039 87.7033C98.2273 89.4818 100.528 91.3009 102.857 93.0806C101.276 93.6476 99.6884 94.1975 98.1126 94.7683L97.9328 94.8325C95.4562 95.7044 92.2253 96.3632 90.3432 98.2222C88.4158 100.127 88.6402 102.634 89.0344 105.041L89.6095 108.417C90.004 110.713 90.4069 113.007 90.8177 115.3C92.9874 127.411 95.3829 139.485 98.0021 151.512C103.287 175.779 109.262 199.988 116.844 223.682C121.111 237.016 125.244 250.392 129.761 263.651C130.84 266.817 136.034 265.448 134.928 262.269C131.008 250.995 126.904 239.649 123.784 228.137C120.656 216.595 117.374 205.093 114.314 193.534C108.255 170.644 102.942 147.578 98.4958 124.341C97.2388 117.77 96.0477 111.188 94.9241 104.594C94.8244 104.009 94.6506 103.39 94.638 102.795C94.634 102.618 94.6165 102.496 94.6039 102.409C94.5759 102.215 94.5718 102.186 94.7897 102.091L95.6004 101.751C96.9321 101.211 98.3352 100.785 99.6827 100.296C103.018 99.0845 106.336 97.803 109.723 96.7322C111.743 96.093 112.871 93.3513 111.059 91.8203C108.174 89.382 105.124 87.1135 102.15 84.7795L97.9783 81.5065C96.7669 80.5559 94.6299 79.4628 93.8286 78.1545L93.7964 78.0998C93.8907 77.939 94.0165 77.2766 94.0561 77.1668C94.3438 76.3622 94.6821 75.5733 94.9966 74.7784C95.7236 72.9436 96.4509 71.1092 97.1582 69.267C98.4387 65.9303 99.7195 62.5933 101 59.2566L104.973 48.9009L108.948 38.5463C110.774 33.7974 112.77 29.0545 115.619 24.7845L115.705 24.655C116.204 23.8917 116.449 23.361 116.619 22.4076L116.652 22.231C116.755 21.7033 116.895 21.1943 117.149 20.7125C117.811 19.4533 118.891 18.3918 119.963 17.4566C122.205 15.5019 124.953 14.1478 127.828 13.3086ZM199.534 18.0616C202.565 17.7823 204.909 18.6651 207.598 19.6784C207.813 19.7592 208.03 19.8409 208.249 19.9228C209.543 20.4057 210.769 20.9638 212.01 21.5416C213.565 22.265 214.565 23.5441 215.522 24.8964L216.034 25.6251C220.02 31.2932 222.701 37.8326 225.726 44.0037C229.265 51.2225 232.84 58.4256 236.303 65.6787L238.013 69.2521C238.867 71.0389 239.719 72.8268 240.558 74.6203L242.008 77.7418C243.465 80.9075 244.771 84.2565 242.695 87.5223C240.764 90.5596 237.341 92.9097 234.631 95.2575C232.37 97.2166 230.109 99.1754 227.847 101.134C232.523 105.678 235.662 111.4 237.507 117.537C240.128 116.477 243.328 116.274 246.038 115.815C249.832 115.173 250.297 120.748 246.717 120.68C245.984 120.666 245.216 120.676 244.429 120.686L244.428 120.686L244.427 120.686C242.38 120.713 240.217 120.742 238.257 120.351C238.728 122.368 239.07 124.415 239.288 126.467C240.428 137.225 237.937 148.046 235.339 158.455L235.125 159.309C232.304 170.575 229.628 181.871 227.235 193.231C224.836 204.615 222.679 216.047 220.763 227.516C218.814 239.191 217.435 250.93 215.952 262.667C215.728 264.443 214.576 265.965 212.554 265.965C210.869 265.965 208.943 264.439 209.155 262.667C210.685 249.886 212.854 237.172 215.01 224.479C218.722 202.619 223.395 180.95 228.771 159.422L229.71 155.674C232.128 145.951 234.322 135.932 233.109 125.903C232.121 117.737 228.603 109.03 221.65 103.957L221.438 103.805C219.814 102.649 219.189 100.438 220.789 98.9155C221.807 97.9466 222.826 96.9789 223.846 96.0117L229.966 90.2119L231.2 89.0405C232.229 88.0654 233.263 87.0963 234.328 86.157C234.972 85.5889 236.72 84.5055 236.847 83.571C236.913 83.0855 236.456 82.3081 236.114 81.7277C236.026 81.5787 235.946 81.4426 235.885 81.3279L234.503 78.6214C233.719 77.0782 232.958 75.5238 232.192 73.9716C230.605 70.7563 228.995 67.5507 227.442 64.3193L218.112 44.9173C215.48 39.4436 213.136 33.6649 209.695 28.6044L209.017 27.6181C208.45 26.7875 207.95 25.988 207.592 24.9721C207.248 23.9948 206.816 22.9218 206.18 22.0878C204.69 20.1305 201.841 19.0203 199.458 18.6104C199.113 18.5508 199.239 18.0891 199.534 18.0616ZM108.497 22.3997C92.0698 21.7504 75.6686 27.7811 61.8902 36.1619C47.7136 44.7854 35.5934 56.7453 27.7427 71.14C18.5471 88.0009 13.9591 107.07 10.1554 125.688L9.80102 127.432C5.73219 147.556 3.20543 167.966 1.7585 188.419C0.149308 211.17 -0.814674 234.301 0.925327 257.068C1.18502 260.47 6.29455 260.538 6.42727 257.068C7.19524 237.043 6.75142 217.006 7.82817 196.984C8.88652 177.301 10.8755 157.652 14.2918 138.216C16.0214 128.377 18.1017 118.597 20.6258 108.921C23.011 99.7781 25.7426 90.6385 29.6396 81.9815C36.2927 67.2032 46.3967 54.0929 59.396 44.0136C66.4416 38.5507 74.3521 34.0047 82.6716 30.6286C90.9669 27.2625 99.8254 24.9497 108.588 23.0509C108.975 22.9671 108.87 22.4146 108.497 22.3997ZM221.45 32.0143C221.008 31.8665 220.787 32.486 221.145 32.7161C226.836 36.3737 232.151 41.0321 236.974 45.7147C241.767 50.3682 246.091 55.3822 249.923 60.8105C258.556 73.0381 264.576 86.9287 268.942 101.079C278.344 131.55 283.941 163.403 286.591 195.076C287.353 204.176 287.879 213.301 288.257 222.423C288.446 226.988 288.633 231.554 288.763 236.121C288.825 238.287 288.827 240.445 288.791 242.611C288.782 243.144 288.756 243.686 288.728 244.231C288.551 244.578 288.474 244.981 288.565 245.417C288.596 245.569 288.624 245.718 288.651 245.865C288.608 247.001 288.614 248.135 288.78 249.233C288.599 252.531 294.096 253.133 294.905 249.906C295.291 248.366 295.231 246.738 295.172 245.136C295.154 244.651 295.137 244.17 295.131 243.693L295.089 240.448C295.076 239.367 295.069 238.285 295.078 237.203C295.114 232.995 295.118 228.791 294.989 224.585C294.738 216.408 294.239 208.255 293.496 200.107C291.987 183.565 289.69 167.065 286.714 150.713C283.785 134.622 280.198 118.577 275.538 102.87C271.168 88.1384 265.756 73.4156 257.003 60.56C252.641 54.1536 247.509 48.007 241.476 43.0087C238.562 40.5939 235.511 38.3429 232.207 36.4534C229.132 34.6949 225.647 33.4283 222.261 32.2862L221.45 32.0143ZM134.989 56.4596C135.515 60.6664 136.032 64.8739 136.548 69.0821L136.705 70.3845C141.816 69.4202 147.203 69.1376 152.357 68.925C158.47 68.6726 164.572 68.5427 170.69 68.5609C176.802 68.5788 182.904 68.7191 189.011 68.9641C192.063 69.0862 195.114 69.2277 198.163 69.3885C198.702 69.4168 199.3 69.4172 199.928 69.4176C200.277 69.4179 200.635 69.4181 200.997 69.4232C201.019 68.7619 201.038 68.1007 201.061 67.4399C201.154 64.7614 201.245 62.083 201.34 59.405C199.277 60.4332 196.595 60.8479 194.522 61.2862L194.286 61.3369C190.863 62.083 187.368 62.5666 183.874 62.8623C177.013 63.4431 170.081 63.226 163.226 62.6634L162.025 62.5637C156.006 62.0572 149.766 61.4151 143.931 59.9694C141.151 59.281 138.278 58.3174 135.787 56.9209C135.528 56.7757 135.261 56.6219 134.989 56.4596ZM138.398 84.5674C137.911 80.4116 137.416 76.2566 136.912 72.1031C141.113 72.6794 145.435 72.8732 149.685 73.0266L152.358 73.1213C158.469 73.341 164.581 73.5931 170.69 73.8511C176.798 74.1091 182.908 74.3991 189.012 74.739C191.937 74.9017 194.86 75.0827 197.783 75.2808C198.734 75.3452 199.762 75.4956 200.798 75.6017C200.717 78.196 200.639 80.7899 200.564 83.3838C200.073 82.806 199.324 82.4188 198.316 82.4266C187.585 82.5089 176.846 82.5074 166.117 82.7285C160.874 82.8365 155.636 82.9813 150.4 83.2688C147.71 83.4162 145.022 83.6969 142.35 84.0495C141.107 84.2137 139.73 84.3365 138.398 84.5674ZM138.628 86.5522C139.101 90.6071 139.568 94.663 140.029 98.7194C141.481 98.5586 142.949 98.4696 144.335 98.3486C147.13 98.1055 149.937 97.8925 152.74 97.7674L158.342 97.5149C162.077 97.3473 165.811 97.1852 169.548 97.0529C179.775 96.6907 190.002 96.2755 200.224 95.7688C200.296 93.0178 200.37 90.2668 200.446 87.5157C199.955 88.0258 199.247 88.3613 198.315 88.359C195.354 88.3513 192.393 88.3503 189.431 88.3493C181.659 88.3467 173.885 88.3442 166.116 88.2201C160.745 88.1341 155.38 88.0079 150.016 87.7406C147.391 87.6099 144.751 87.3433 142.146 86.993C141.035 86.8437 139.82 86.7372 138.628 86.5522ZM169.547 101.873C179.732 101.74 189.91 101.439 200.086 101.041L199.839 110.687L199.721 110.732C199.527 110.811 199.344 110.915 199.174 111.041C199.107 111.048 199.035 111.056 198.953 111.066L198.775 111.089C198.357 111.068 197.929 111.098 197.505 111.128C197.294 111.142 197.084 111.157 196.876 111.165C195.61 111.216 194.344 111.266 193.078 111.317C192.192 111.354 191.306 111.391 190.42 111.429L185.103 111.66C179.787 111.89 174.469 112.1 169.153 112.348C163.962 112.591 158.76 112.876 153.583 113.319C150.924 113.546 148.253 113.752 145.607 114.105L145.366 114.136C144.301 114.268 143.031 114.369 141.816 114.589C141.314 110.083 140.807 105.578 140.297 101.074C141.532 101.189 142.772 101.259 143.953 101.355L144.883 101.428C147.367 101.613 149.873 101.728 152.358 101.779C158.09 101.895 163.815 101.947 169.547 101.873ZM199.698 116.33C198.912 116.423 198.087 116.42 197.3 116.417C196.891 116.415 196.494 116.414 196.117 116.426C193.333 116.514 190.548 116.596 187.763 116.676L171.053 117.155C165.364 117.317 159.655 117.439 153.963 117.361C151.46 117.327 148.945 117.323 146.442 117.191L145.609 117.142C144.579 117.075 143.315 117.066 142.08 116.944L143.538 130.045C146.886 129.575 150.336 129.4 153.656 129.124L154.365 129.064C159.262 128.631 164.181 128.344 169.086 128.022C174.118 127.691 179.142 127.29 184.167 126.879C186.679 126.675 189.19 126.47 191.699 126.246L192.009 126.216C192.328 126.184 192.644 126.147 192.957 126.11C194.976 125.873 196.891 125.647 198.708 126.822C199.015 127.02 199.256 127.285 199.421 127.582C199.512 123.831 199.602 120.081 199.698 116.33ZM253.224 125.144C253.296 124.944 253.568 124.947 253.64 125.144C255.211 129.411 255.267 134.227 255.685 138.725L255.718 139.071C256.118 143.174 256.419 147.282 256.7 151.393L256.804 152.935C257.929 169.708 259.335 186.462 261.455 203.147C263.566 219.768 266.422 236.274 269.509 252.747C269.853 254.581 269.016 256.449 267.035 256.978C265.288 257.443 263.045 256.399 262.676 254.576C260.759 245.121 259.209 235.653 257.826 226.115C255.392 209.321 253.575 192.45 252.407 175.528C251.821 167.03 251.46 158.534 251.316 150.017C251.25 146.065 251.356 142.104 251.573 138.157L251.625 137.246C251.864 133.211 251.84 128.992 253.224 125.144ZM199.103 129.809C199.21 129.708 199.297 129.599 199.372 129.487C199.264 133.923 199.157 138.36 199.053 142.797C198.611 142.152 197.737 141.744 196.964 141.76C192.276 141.853 187.544 142.482 182.87 142.864L180.52 143.061C176.603 143.397 172.69 143.771 168.776 144.139C164.199 144.57 159.63 145.048 155.062 145.558C152.777 145.813 150.502 146.162 148.229 146.509C147.327 146.647 146.375 146.78 145.429 146.953C144.905 142.312 144.385 137.671 143.869 133.029C147.233 133.341 150.688 133.329 153.986 133.395C159.137 133.497 164.316 133.342 169.462 133.118C174.491 132.899 179.521 132.652 184.542 132.301C187.054 132.125 189.564 131.93 192.074 131.725L192.231 131.713C194.791 131.519 197.171 131.662 199.103 129.809ZM198.985 145.738C198.512 146.321 197.806 146.627 196.963 146.733C192.575 147.285 188.074 147.374 183.649 147.634L182.869 147.682C178.3 147.974 173.728 148.204 169.156 148.439C164.459 148.681 159.762 148.879 155.061 149.038C153.066 149.105 151.06 149.113 149.061 149.088L148.205 149.076C147.384 149.062 146.524 149.064 145.663 149.037C146.14 153.252 146.621 157.466 147.109 161.679C147.988 161.586 148.866 161.515 149.718 161.428C152.229 161.17 154.737 160.916 157.254 160.723C162.022 160.358 166.795 160.139 171.572 159.91C176.461 159.675 181.352 159.518 186.241 159.297C188.611 159.189 190.98 159.056 193.344 158.844C193.89 158.795 194.471 158.703 195.066 158.608C196.273 158.416 197.538 158.215 198.696 158.35C198.79 154.146 198.888 149.942 198.985 145.738ZM57.6188 145.969C57.3602 145.749 56.9705 146.024 57.1385 146.329C60.5982 152.611 60.7812 159.18 60.5506 166.138L60.4719 168.448C60.2291 175.378 59.9268 182.293 59.5325 189.224L59.2458 194.374C58.4025 209.822 57.7022 225.273 56.9172 240.724L55.8059 262.584C55.7766 263.16 55.7234 263.757 55.6693 264.363C55.4979 266.285 55.3179 268.303 55.865 270.069L55.9394 270.014L55.9649 270.098C56.7805 272.677 60.6615 273.154 61.968 270.069C62.6014 268.574 62.6211 266.723 62.6395 264.99C62.6456 264.416 62.6515 263.855 62.6796 263.325L63.7402 243.318C64.2117 234.423 64.7618 225.534 65.2723 216.642C65.7752 207.877 66.1454 199.105 66.5574 190.336C66.6544 188.274 66.7924 186.192 66.931 184.102C67.3217 178.211 67.7172 172.247 67.213 166.434C66.5681 159.007 63.4928 150.972 57.6188 145.969ZM194.335 164.272C195.648 164.191 197.206 164.207 198.573 163.88L198.357 173.692C197.808 173.578 197.259 173.624 196.766 173.824C195.518 174.089 194.123 174.115 192.777 174.14C192.157 174.152 191.548 174.163 190.968 174.198C189.891 174.262 188.815 174.332 187.74 174.404L184.512 174.625C179.955 174.935 175.395 175.206 170.838 175.527C166.4 175.839 161.96 176.209 157.542 176.722C155.503 176.96 153.481 177.225 151.456 177.557C150.666 177.686 149.836 177.783 149.011 177.911C148.482 173.404 147.951 168.898 147.426 164.391C148.198 164.428 148.967 164.452 149.72 164.489C152.232 164.611 154.741 164.731 157.256 164.788C161.176 164.876 165.092 164.867 169.011 164.844L171.951 164.827C176.839 164.798 181.729 164.739 186.617 164.622C189.11 164.563 191.604 164.471 194.092 164.288L194.335 164.272ZM198.231 179.379C197.299 179.679 196.199 179.699 194.993 179.752L191.88 179.903C190.437 179.971 188.994 180.036 187.55 180.087C182.739 180.258 177.929 180.418 173.117 180.566C168.187 180.718 163.233 180.806 158.301 180.656C155.886 180.582 153.491 180.459 151.083 180.263C150.487 180.215 149.88 180.183 149.272 180.141C149.833 184.902 150.396 189.662 150.96 194.422C158.068 193.576 165.23 193.048 172.329 192.173L178.748 191.377C185.164 190.583 191.575 189.803 198.014 189.146L198.231 179.379ZM173.786 195.664C181.848 195.587 189.847 195.328 197.888 194.709L197.638 205.982C195.599 205.976 193.551 206.06 191.505 206.144C190.029 206.204 188.554 206.265 187.086 206.292C182.766 206.371 178.447 206.441 174.127 206.45C172.087 206.454 170.047 206.448 168.007 206.441L167.927 206.441L167.919 206.441L167.911 206.441C165.791 206.434 163.672 206.428 161.552 206.432C159.517 206.437 157.491 206.455 155.457 206.526C154.458 206.561 153.43 206.561 152.407 206.607C151.978 203.015 151.552 199.422 151.125 195.829C155.901 195.951 160.696 195.864 165.479 195.777C167.849 195.734 170.216 195.691 172.576 195.674L173.786 195.664ZM152.764 209.584C153.182 213.09 153.574 216.602 153.975 220.113C154.24 220.073 154.51 220.039 154.784 220.011C156.941 219.792 159.094 219.604 161.259 219.474C165.575 219.215 169.89 219.078 174.213 218.965C178.658 218.849 183.104 218.761 187.551 218.7C189.711 218.67 191.87 218.673 194.03 218.688C194.309 218.69 194.589 218.689 194.87 218.688L194.882 218.688C195.615 218.685 196.35 218.682 197.079 218.73C197.199 218.737 197.315 218.75 197.429 218.762L197.505 213.491C197.518 212.613 197.532 211.734 197.547 210.856C194.936 211.012 192.291 211 189.666 210.987C188.934 210.984 188.204 210.98 187.477 210.981L186.708 210.982C182.515 211.001 178.321 210.945 174.13 210.861C169.806 210.773 165.49 210.636 161.174 210.367C159.425 210.259 157.688 210.114 155.949 209.928L155.079 209.832C154.322 209.745 153.543 209.675 152.764 209.584ZM196.701 223.847C196.927 223.838 197.139 223.818 197.348 223.794C197.292 226.71 197.221 229.624 197.11 232.535L197.103 232.719L193.332 232.689C188.741 232.653 184.152 232.638 179.561 232.633C178.323 232.632 177.084 232.626 175.845 232.621C172.621 232.607 169.396 232.594 166.174 232.647L165.749 232.653C164.855 232.661 163.936 232.65 163.004 232.64L163.003 232.64C160.53 232.611 157.969 232.582 155.54 232.9C155.138 229.939 154.774 226.971 154.426 224.001C156.579 224.059 158.727 224.115 160.881 224.111C165.327 224.102 169.77 224.028 174.216 223.976C178.535 223.925 182.854 223.9 187.173 223.9C189.333 223.9 191.492 223.886 193.652 223.868C193.998 223.865 194.344 223.867 194.692 223.868L194.704 223.868C195.37 223.871 196.037 223.874 196.701 223.847ZM231.058 229.869C230.859 229.501 231.314 229.202 231.623 229.446C233.775 231.144 235.704 233.171 237.782 234.963C239.84 236.738 241.975 238.394 244.168 240.01C246.37 241.631 248.62 243.188 250.931 244.662C252.848 245.884 254.824 246.862 256.831 247.877C257.76 247.993 258.621 248.436 259.31 249.275C260.4 250.603 260.515 253.106 259.004 254.259L258.733 254.466C256.97 255.811 254.876 255.975 253.141 254.466C251.202 252.781 249.37 250.927 247.509 249.147L246.95 248.616C244.95 246.729 242.998 244.781 241.159 242.745L239.493 240.906C236.403 237.487 233.187 233.801 231.058 229.869ZM104.635 232.263C104.752 232.078 104.524 231.88 104.34 231.976C100.52 233.984 97.0925 236.689 93.7636 239.419L91.9881 240.88C87.9281 244.219 83.7588 247.464 79.7697 250.878C76.9326 253.308 81.2569 257.579 83.9452 254.931C87.6657 251.266 91.2224 247.415 94.8693 243.676C98.3577 240.1 101.967 236.471 104.635 232.263ZM156.093 236.893L156.745 241.467C157.07 243.754 157.393 246.042 157.699 248.331C159.779 248.055 161.906 247.939 163.91 247.767C167.418 247.465 170.95 247.32 174.469 247.178C176.524 247.096 178.583 246.997 180.643 246.897C185.874 246.645 191.114 246.392 196.339 246.417C196.414 246.418 196.485 246.423 196.555 246.428L196.917 237.404L191.799 237.396C187.464 237.389 183.129 237.353 178.794 237.317C174.889 237.285 170.983 237.28 167.079 237.201L165.406 237.162C164.468 237.138 163.498 237.137 162.513 237.136C160.391 237.135 158.199 237.133 156.093 236.893Z" transform="translate(14.19388 0.3719305)" id="ðŸ–-Ink" fill="#000000" fill-rule="evenodd" stroke="none" />
  </g>
</svg>