<?xml version="1.0" encoding="utf-8"?>
<svg width="314px" height="273px" viewBox="0 0 314 273" version="1.1" xmlns:xlink="http://www.w3.org/1999/xlink" xmlns="http://www.w3.org/2000/svg">
  <desc>Created with Lunacy</desc>
  <defs>
    <!-- <rect width="313.783173" height="272.9061" id="artboard_1" /> -->
    <clipPath id="clip_1">
      <use xlink:href="#artboard_1" clip-rule="evenodd" />
    </clipPath>
  </defs>
  <g id="body/Button-Shirt-2" clip-path="url(#clip_1)">
    <use xlink:href="#artboard_1" stroke="none" fill="#FFFFFF" />
    <path d="M147.885 287.762C116.323 287.762 84.9317 286.257 54.548 283.287L54.5346 283.228L52.9212 283.039C48.3299 282.483 43.6362 282.046 39.0971 281.622C27.1231 280.505 14.7405 279.35 3.19115 275.92L1.15079 275.314L0.950939 275.81C0.650582 275.659 0.335265 275.502 0 275.352C1.8171 246.548 4.84829 218.278 7.58565 194.343L7.69804 193.363L7.0279 192.623C3.15778 188.345 1.73194 184.761 2.67406 181.672C10.3917 166.037 12.0277 146.091 13.6101 126.799C16.8902 86.8135 19.9881 49.0464 73.4928 47.4116L73.5783 47.4078L74.1426 47.3699C85.3003 46.6278 96.8378 45.8601 107.144 40.8812L108.345 40.3015L108.417 39.0014C108.503 37.4324 110.493 35.5664 112.092 34.0675C112.643 33.5514 113.162 33.0641 113.629 32.576L113.727 32.4736L113.811 32.3608C116.223 29.1075 119.056 27.1659 121.389 27.1659C124.787 27.1659 126.434 31.3049 127.112 33.7722L128.183 37.6618L131.017 34.7212C137.675 27.8137 140.861 20.2174 140.503 12.1166L140.745 12.0436L140.435 10.1083C139.85 6.74968 140.239 4.25815 141.592 2.70412C143.176 0.884618 146.283 0 151.09 0C154.266 0 157.722 0.388696 160.772 0.731597C161.769 0.843663 162.73 0.951634 163.638 1.04211C169.742 1.6661 175.983 2.789 182.018 3.87467L182.865 4.02695L182.292 5.54189L183.758 6.52555C185.711 7.83646 187.166 10.4661 187.75 13.7399L187.776 13.8877L187.823 14.0314C188.69 16.7009 189.019 19.682 189.368 22.8381C189.954 28.1484 190.56 33.6389 193.835 38.3658L195.803 41.2055L197.69 38.3141C198.61 36.9034 199.844 36.2172 201.462 36.2172C205.826 36.2172 211.157 40.9017 212.104 44.5325L212.408 45.6986L213.579 46.0936C221.615 48.8096 228.237 50.7918 234.08 52.5406C248.749 56.9313 256.113 59.1354 260.837 65.5954C265.698 72.2408 268.158 83.8399 272.249 106.917C276.727 131.925 279.719 157.629 282.611 182.487C286.244 213.709 290 245.983 296.742 277.29C296.273 277.758 295.917 278.224 295.675 278.687C292.699 278.943 289.672 279.174 286.728 279.399C281.828 279.773 276.761 280.161 271.81 280.664L270.712 280.776L270.468 281.144C270.016 281.181 269.571 281.224 269.133 281.267C268.435 281.335 267.762 281.4 267.104 281.438L266.905 281.051L265.307 281.225C225.544 285.563 186.038 287.762 147.885 287.762" transform="translate(13.80838 -11.91407)" id="âœ‹-Skin" fill="#D08B5B" stroke="none" />
    <path d="M121.389 0C124.787 0 126.434 4.13901 127.112 6.60634L128.183 10.4959L129.837 8.77953L126.827 13.8904L150.256 34.761L151.154 35.3743C160.728 41.8839 167.247 45.1388 170.709 45.1388C174.279 45.1388 184.902 36.6519 202.581 19.6783L193.035 13.8904L193.895 11.2874L195.803 14.0396L197.69 11.1482C198.61 9.7375 199.844 9.05132 201.462 9.05132C205.826 9.05132 211.157 13.7358 212.104 17.3666L212.408 18.5327L214.536 19.2501C220.876 21.3766 226.326 23.0463 231.213 24.5153L237.463 26.3898C249.911 30.1453 256.491 32.4863 260.837 38.4295C265.601 44.942 268.058 56.212 272.006 78.3802L272.249 79.7511C276.523 103.622 279.443 128.128 282.216 151.926L283.295 161.187C286.725 190.574 290.422 220.773 296.742 250.124C296.273 250.592 295.917 251.058 295.675 251.522C293.691 251.692 291.685 251.851 289.695 252.005L284.041 252.439C279.99 252.752 275.861 253.086 271.81 253.498L270.712 253.61L270.468 253.978C270.167 254.003 269.868 254.03 269.573 254.058L269.133 254.101C268.435 254.169 267.762 254.235 267.104 254.272L266.905 253.885L265.307 254.059C225.545 258.397 186.038 260.596 147.885 260.596C116.323 260.596 84.9317 259.091 54.548 256.121L54.5346 256.062L52.9212 255.873C49.2482 255.429 45.5096 255.06 41.837 254.713L36.5254 254.216C25.3584 253.163 13.9156 251.939 3.19115 248.754L1.15079 248.148L0.950939 248.644C0.650582 248.493 0.335265 248.336 0 248.186L0.124324 246.245C1.95319 218.114 4.90981 190.574 7.58565 167.177L7.69805 166.197L7.0279 165.457C3.15778 161.179 1.73195 157.595 2.67406 154.506C10.3917 138.871 12.0277 118.925 13.6101 99.6327L13.8071 97.2365C17.0014 58.5503 20.9762 22.589 71.9027 20.3055L73.5783 20.242L76.1152 20.0719C86.6534 19.3571 97.444 18.4014 107.144 13.7153L108.345 13.1356L108.417 11.8355C108.494 10.4371 110.083 8.80267 111.56 7.40252L112.556 6.46561C112.935 6.107 113.296 5.75874 113.629 5.41009L113.727 5.30771L113.811 5.1949C116.223 1.94162 119.056 0 121.389 0Z" transform="translate(13.80838 15.25179)" id="ðŸ‘•-Top" fill="#FFFFFF" stroke="none" />
    <path d="M139.17 0C142.271 0.238653 144.069 5.23511 144.687 7.97608C146.954 18.7196 140.859 29.9009 132.838 36.9466C144.682 47.3036 157.544 56.534 171.425 64.1769C173.313 62.1012 176.648 62.3994 178.972 63.6511C186.488 56.7507 194.102 49.9969 201.419 42.9036C190.044 35.9199 189.093 21.541 191.371 9.8421L191.441 9.48842C191.613 8.48429 193.054 8.84878 193.136 9.71143L193.187 10.267C193.87 17.8754 193.931 26.0897 198.29 32.7379C203.25 25.1349 215.137 32.9155 216.881 39.603C266.732 56.448 267.198 46.5199 277.064 102.157C287.038 159.036 289.86 216.891 301.544 273.51C301.688 275.115 300.186 276.429 298.69 276.647C294.448 277.195 293.257 269.08 292.386 263.148C292.083 261.087 291.819 259.29 291.48 258.21C288.668 242.583 286.544 226.847 284.714 211.086C279.094 164.398 277.17 117.001 266.289 71.0762C265.194 67.2123 263.636 63.3898 260.881 60.342C249.398 48.215 229.483 50.8663 217.038 40.0587C218.243 43.6605 218.34 47.6417 218.103 51.4039C216.742 71.4541 215.92 91.5423 214.457 111.585C214.288 113.836 211.48 114.576 210.166 112.713C199.752 97.961 189.064 83.4318 178.913 68.5009C177.277 69.2537 175.532 69.597 173.659 69.2362C171.729 71.602 171.595 76.4525 171.472 80.9289C171.405 83.3394 171.342 85.6415 171.002 87.3888L170.643 91.2081C165.097 150.411 161.026 209.762 161.328 269.24L161.339 271.158C161.338 271.777 161.354 272.404 161.37 273.033C161.402 274.259 161.433 275.493 161.34 276.694C160.072 282.606 154.076 280.49 154.413 275.218C154.146 208.577 156.983 141.502 168.312 75.6929C158.084 88.2049 147.868 100.726 137.636 113.236C136.87 114.179 135.415 113.764 134.808 112.891L134.769 112.833L135.021 113.488C134.406 113.297 133.868 112.934 133.311 112.62C128.166 100.36 124.837 87.5005 120.795 74.8861C117.422 62.5171 112.365 50.3849 110.501 37.7102L110.417 37.6759C105.355 40.1459 99.7464 41.7312 94.0788 41.8254C87.6693 43.4278 80.9279 44.1836 74.5341 44.9982C28.0547 46.9283 18.8656 91.7199 19.2906 128.847L19.2099 130.62C18.7242 141.661 18.4951 152.894 15.6748 163.634C15.4608 164.051 15.1517 164.932 14.7667 166.03C13.2788 170.272 10.6588 177.742 8.02664 174.064C5.23328 177.688 6.10789 179.798 9.83071 182.037C16.3331 187.455 22.6778 196.081 23.9291 204.971C24.1619 206.611 21.7353 208.053 20.8726 206.222L20.4419 205.311C17.9224 200.002 15.2586 194.81 11.6605 190.198C11.5013 190.456 11.2845 190.674 11.0252 190.819C10.1606 212.817 8.40986 234.776 6.8444 256.735C6.62946 257.525 6.57022 259.376 6.49816 261.628C6.28327 268.343 5.95443 278.619 1.04125 274.923L0.839936 274.766C-0.375071 272.269 -0.0121235 269.35 0.331935 266.582C0.412198 265.936 0.491433 265.299 0.549367 264.677L1.47134 254.149C3.4626 232.66 5.09289 211.129 7.84405 189.715L7.62805 189.475C4.46403 185.917 1.5079 181.218 3.06596 176.471C3.86461 173.616 6.51258 172.194 8.30399 170.013C10.5096 158.722 11.3499 146.026 12.2045 133.116C15.1156 89.1347 18.1913 42.6681 75.9661 40.7978L79.0946 40.5876C89.1689 39.894 99.544 38.9059 108.664 34.5005C108.836 31.3939 112.492 28.7616 114.489 26.6744C120.639 18.38 128.896 17.9641 131.881 28.8145C139.821 20.5286 143.027 10.9077 139.17 0ZM131.046 29.726C125.807 21.1873 122.375 26.2553 118.85 31.4595C117.669 33.2029 116.478 34.9616 115.206 36.2292C118.789 61.0952 129.634 84.3235 137.015 108.294C147.299 95.5361 157.594 82.7866 167.88 70.0308C168.496 69.2661 169.088 68.4645 169.702 67.68C156.789 60.4374 144.614 51.8745 134.365 41.2509C132.962 41.5422 131.791 40.3298 130.723 39.223C130.29 38.7751 129.875 38.3445 129.467 38.0379L129.318 37.9193C128.01 36.8489 126.796 35.16 127.62 33.4949C127.511 33.2693 127.677 33.0615 127.903 32.993C128.926 31.9025 130.012 30.8511 131.046 29.726ZM200.649 35.6685C211.921 33.8125 213.304 45.4763 212.621 53.6121C211.926 70.8007 210.753 87.9756 210.087 105.168C200.434 92.5025 190.904 79.7929 180.977 67.3196C189.91 59.7479 198.181 51.8701 206.93 44.1796C208.253 43.9569 209.146 42.5038 208.418 41.3306C206.431 38.7683 202.656 38.3372 200.649 35.6685ZM128.832 95.6921C128.214 93.59 127.609 91.4838 127.009 89.3765C129.438 96.8005 131.873 104.223 134.317 111.643C132.32 106.38 130.426 101.108 128.832 95.6921ZM251.915 105.176C252.005 104.925 251.668 104.566 251.55 104.96C250.887 110.138 250.366 115.492 250.355 120.718C250.313 123.183 250.258 125.659 250.204 128.142C249.903 141.814 249.597 155.69 251.297 169.09C252.786 205.174 259.446 241.016 267.797 276.117C266.586 283.633 277.622 280.838 274.886 273.935C262.262 223.889 254.903 172.521 252.404 121.064C252.728 118.6 253.473 116.228 255.176 114.261C255.862 113.47 254.666 112.325 254.006 113.126C253.246 114.051 252.66 115.038 252.208 116.071C252.149 114.755 252.188 113.411 252.227 112.066C252.295 109.725 252.363 107.381 251.915 105.176ZM171.934 109.303C172.74 103.038 180.046 105.679 177.466 106.723C177.414 106.777 177.36 106.83 177.303 106.884C180.253 107.163 180.046 110.525 179.718 112.677C178.56 117.492 171.06 113.111 171.934 109.303ZM84.2012 127.699C84.2258 127.502 83.9227 127.448 83.8322 127.602C80.4028 133.598 78.4365 140.432 75.9899 146.845C75.2538 144.456 74.5108 142.077 73.6776 139.717L73.6392 139.607C73.0782 137.957 72.5649 135.172 71.017 134.224C69.7434 135.004 70.1309 137.298 70.443 139.146C70.552 139.792 70.6519 140.383 70.6686 140.836C70.911 142.555 71.1316 144.073 71.3281 145.426C72.2379 151.688 72.6331 154.407 72.2884 157.03C71.8846 160.102 70.4653 163.04 67.6687 171.385L67.3125 172.455C58.6966 203.387 55.3412 235.609 54.7873 267.583C54.8544 269.122 54.8047 270.704 54.7547 272.295C54.6154 276.725 54.4739 281.226 56.8445 285.086C61.2314 289.455 62.8551 280.536 62.7351 277.525C61.9174 239.694 67.7801 202.241 75.0437 165.184L75.4901 162.915C81.0741 165.682 78.7907 155.732 77.7975 152.973L77.7383 152.814C79.6847 144.426 82.8828 136.195 84.2012 127.699ZM179.584 156.203C179.538 150.613 171.625 151.504 172.928 156.856C172.016 158.913 172.402 161.428 174.197 163.283C175.273 164.393 176.955 163.456 177.072 162.126C177.295 161.312 177.779 160.58 178.265 159.845C178.999 158.734 179.738 157.617 179.584 156.203ZM173.041 192.747C180.107 190.537 178.347 203.027 173.685 204.731C170.868 206.089 169.903 202.691 170.417 200.617C168.587 197.919 170.263 194.368 173.041 192.747ZM174.668 248.702C181.686 244.042 176.501 237.447 172.631 241.068C170.366 241.94 170.433 244.269 170.491 246.266C170.494 246.378 170.497 246.49 170.5 246.6L170.507 246.999C169.915 249.369 173.395 250.966 174.668 248.702ZM174.898 274.222C178.062 273.314 180.91 276.809 179.805 279.67C179.09 282.655 173.113 284.506 172.886 280.345C171.251 278.649 171.782 275.53 174.014 274.588C174.001 274.585 174.254 274.483 174.501 274.384C174.66 274.32 174.817 274.257 174.898 274.222Z" transform="translate(9.973941 -6.329194)" id="ðŸ–-Ink" fill="#000000" fill-rule="evenodd" stroke="none" />
  </g>
</svg>
