<?xml version="1.0" encoding="utf-8"?>
<svg width="314px" height="273px" viewBox="0 0 314 273" version="1.1" xmlns:xlink="http://www.w3.org/1999/xlink" xmlns="http://www.w3.org/2000/svg">
  <desc>Created with Lunacy</desc>
  <defs>
    <rect width="313.783173" height="272.9061" id="artboard_1" />
    <clipPath id="clip_1">
      <use xlink:href="#artboard_1" clip-rule="evenodd" />
    </clipPath>
  </defs>
  <g id="body/Explaining" clip-path="url(#clip_1)">
    <use xlink:href="#artboard_1" stroke="none" fill="#FFFFFF" />
    <path d="M268.627 167.669C266.063 160.019 269.117 151.184 267.121 142.938C266.436 139.677 265.136 127.559 263.83 120.474C263.099 116.51 267.47 115.279 268.141 113.697C272.868 99.486 238.387 66.0534 236.283 64.8216C233.129 63.0525 230.338 61.5296 227.256 59.7223C218.266 56.6573 207.486 48.1306 199.336 53.6073C185.215 33.2051 190.801 8.06843 183.139 5.08088C175.476 2.09333 152.849 -3.94488 139.912 3.76572C132.158 9.33403 132.73 18.9198 129.192 26.8252C127.115 30.5465 126.095 35.9373 123.677 38.3643C115.463 46.6108 105.22 48.0327 93.7688 49.4323C92.8966 49.5389 91.979 47.2366 91.1315 47.5209C71.815 54.0008 49.3385 55.8915 27.4626 92.1751C24.3731 97.3641 16.0387 105.69 18.8255 111.686C0.463439 153.128 -17.6042 246.406 32.7795 269.668C34.39 270.668 45.3157 265.307 47.0959 265.356C50.0635 265.439 44.3775 272.432 47.0959 271.187C67.0541 272.656 176.873 268.864 218.969 272.656C247.916 272.446 266.251 277.372 272.935 272.446C270.263 266.179 270.387 259.465 271.232 252.839C277.383 248.396 269.778 217.083 270.422 207.914C276.181 201.214 271.596 176.086 268.627 167.669Z" transform="translate(18.95765 -18.24339)" id="âœ‹-Skin" fill="#D08B5B" stroke="none" />
    <path d="M67.7869 1.22445L67.6015 1.34012C67.5709 1.35964 67.5407 1.37971 67.5118 1.40093C67.3147 1.54464 67.3457 1.80452 67.5782 1.89164C67.8874 2.00892 68.2123 2.09753 68.5468 2.16752C69.5625 3.59758 70.3562 5.36533 70.9105 6.26111C72.5028 8.83529 86.1716 25.0202 88.2146 27.0999C91.5339 30.479 107.88 43.185 108.102 42.9314C110.731 44.4561 113.455 45.8239 116.285 46.9911C133.032 53.8979 154.511 54.5245 168.903 43.0513C169.975 43.3361 180.15 29.1171 181.723 24.0238C182.49 24.2304 183.44 18.7718 182.909 18.855C183.372 15.7689 177.799 4.68403 177.27 4.15387C177.35 4.12962 177.429 4.10649 177.509 4.08433C177.556 4.18153 177.662 4.25529 177.786 4.22381C178.849 3.95498 179.926 3.81292 181.003 3.8341C181.821 3.8502 187.666 6.4344 187.892 6.54027C188.032 6.6052 188.171 6.67051 188.312 6.73619C235.065 28.5499 242.271 63.9999 243.888 63.9197C243.208 64.7567 224.734 90.1073 223.741 92.3479C223.535 87.5034 226.948 216.651 227.187 219.348C227.285 220.46 227.292 223.086 227.453 224.143C226.28 224.205 185.166 221.481 108.714 221.927C84.3013 222.07 23.9612 224.648 23.9612 224.648L23.9412 224.486C23.7683 222.905 23.9188 219.838 23.8948 218.262C26.2121 216.963 28.4865 215.582 30.7344 214.226C35.8525 211.136 67.433 183.06 90.6426 157.94C104.402 143.048 121.567 133.026 122.496 132.052C122.514 132.032 122.522 132.01 122.536 131.99C122.584 132.024 122.644 132.057 122.721 132.047C133.412 130.564 149.363 133.755 161.106 127.854C166.349 125.221 184.138 107.288 189.381 102.333C189.538 102.184 189.652 102.027 189.731 101.867C193.227 99.7994 206.851 89.3181 207.815 88.0235L208.102 87.6337C209.167 86.1701 210.768 84.6276 208.912 83.2217C206.957 81.7405 203.208 83.52 201.145 84.3727L200.857 84.4895C199.854 84.8893 198.869 85.3246 197.9 85.7874C196.675 82.4589 193.691 82.39 190.474 82.8494C188.181 83.1774 185.955 83.9388 183.72 84.5185C180.883 85.2542 178.033 85.9467 175.174 86.5968C170.024 87.7666 164.072 89.9063 158.862 90.7924C158.724 90.6371 158.533 90.5146 158.278 90.4528C156.494 90.0202 154.526 90.3516 152.696 90.3843C151.129 90.4126 149.561 90.4155 147.993 90.3939L147.052 90.378C143.692 90.3114 139.184 88.7949 135.824 88.7383L135.623 88.6186L135.424 88.4965C134.557 87.9534 133.617 87.2268 133.361 86.3123C133.329 86.1981 136.764 78.5244 136.814 72.3149C136.842 68.8624 135.621 65.6323 135.33 63.9197C134.619 59.7386 133.028 62.4304 130.727 66.5259C128.425 70.6213 125.356 74.3445 123.055 77.323C120.088 81.1622 117.178 82.322 115.666 84.5472C115.41 84.9243 115.158 85.3134 114.912 85.7125C114.32 85.1399 109.333 96.5428 110.205 98.739C109.598 98.5436 85.0785 129.075 31.7583 151.041C32.0982 148.987 41.3483 94.8217 39.0467 85.8862C36.7451 76.9507 6.30692 43.926 3.14176 43.1928C3.45861 42.6917 -8.90307 50.8887 13.3456 29.6668C35.5943 8.44492 50.42 4.85114 61.4962 0.908029C62.1162 0.720933 62.7331 0.532147 63.3471 0.340793C63.1921 0.607098 63.5438 0.901004 63.8139 0.684596C65.3453 -0.544412 66.6744 0.0323026 67.7869 1.22445Z" transform="translate(43.8103 29.90343)" id="ðŸ‘•-Top" fill="#9DDADB" stroke="none" />
    <path d="M276.793 252.371C276.883 254.483 276.973 256.6 276.225 258.599C275.613 260.231 273.448 260.203 272.829 258.599C271.999 256.449 272.095 254.036 272.188 251.696C272.214 251.045 272.239 250.4 272.245 249.768C272.27 246.731 272.237 243.696 272.204 240.658C272.14 234.826 272.084 228.993 272 223.161C271.703 202.285 271.155 181.398 270.124 160.544C269.187 141.609 267.147 122.776 264.851 103.961C263.002 106.414 261.233 108.917 259.517 111.46C257.531 114.405 255.63 117.389 253.741 120.393C252.799 121.891 251.888 123.406 250.958 124.912C250.678 125.363 250.39 125.81 250.1 126.255C250.343 130.958 250.536 135.665 250.683 140.372C251.288 159.678 252.11 178.98 253.184 198.268C253.724 207.969 254.279 217.671 254.924 227.365C255.243 232.15 255.578 236.933 255.926 241.715C256.104 244.168 256.294 246.62 256.495 249.071C256.516 249.336 256.542 249.598 256.567 249.856C256.666 250.872 256.759 251.829 256.602 252.717C257.391 254.375 256.319 257.036 253.521 256.666C245.913 255.659 238.251 255.609 230.581 255.346C223.074 255.089 215.567 254.832 208.06 254.575C201.314 254.344 194.562 254.056 187.806 253.768C167.764 252.912 147.692 252.055 127.662 252.692C114.435 253.112 101.233 254.037 88.0145 254.642C81.3526 254.946 74.6852 255.17 68.0156 255.206C62.0464 255.238 55.9522 255.224 50.0506 254.217C49.3612 256.297 45.7205 256.154 45.8636 253.648C45.9323 252.442 46.0807 251.154 46.4098 249.925C45.7869 250.235 45.1612 250.538 44.5306 250.826C40.5527 252.643 34.8877 254.743 31.0828 251.702C31.0479 251.674 31.0187 251.642 30.9877 251.612C21.2903 250.647 15.1163 241.614 11.3233 233.686C7.09948 224.857 4.23784 215.451 2.47022 205.88C-0.821815 188.054 -0.560201 169.755 1.70955 151.828C3.93595 134.241 7.98483 116.676 13.9663 99.9248C20.0382 82.922 28.7118 66.3913 42.4009 53.9645C44.1006 52.4217 45.8598 50.9309 47.6726 49.4945C47.7275 49.1718 47.9185 48.8601 48.2066 48.6639C48.7663 48.2823 49.3543 47.9803 49.9623 47.7342C62.0219 38.7049 76.2434 32.0766 91.0526 28.964C91.2992 28.8777 91.5463 28.83 91.7945 28.8129C92.0415 28.7634 92.2878 28.7105 92.5348 28.6625C92.6898 28.6327 92.77 28.7894 92.7082 28.8903C93.549 29.085 94.3842 29.5992 95.1847 30.2809C96.7191 29.6067 98.5147 29.2258 100.027 28.7891C102.403 28.1033 104.787 27.4227 107.143 26.6765C111.395 25.3299 115.781 24.0268 119.641 21.7832C123.752 19.3937 125.902 17.779 127.387 13.4441C128.931 8.9343 130.106 6.64978 130.882 1.9549C131.387 -1.09919 136.811 -0.359775 136.438 2.68501C135.256 12.3164 131.796 19.3073 122.932 24.8187C118.743 27.423 113.688 29.0694 108.894 30.2526C106.33 30.8856 103.766 31.3915 101.142 31.7184C99.8738 31.8763 98.4035 32.0844 96.9707 32.0971C98.3785 33.7408 99.5654 35.5655 100.307 36.4643C104.491 41.5356 109.173 46.2517 113.688 51.0449C121.519 59.3601 130.239 67.064 140.75 72.0575C150.2 76.5469 160.962 78.8295 171.479 77.8738C181.644 76.9497 191.387 72.466 197.685 64.5304C200.689 60.7459 202.875 56.3284 204.016 51.6811C204.889 48.1308 204.927 44.5409 204.598 40.9548C202.086 39.9246 199.917 37.3958 198.39 35.4855C196.092 32.6097 194.399 29.4246 193.117 26.0112C191.779 22.4519 190.945 18.7671 190.427 15.0187C190.177 13.2122 190.07 11.4087 189.991 9.58845C189.979 9.30177 189.962 9.00916 189.946 8.71285C189.867 7.31401 189.784 5.83287 190.103 4.50562C190.168 4.23235 190.58 4.18692 190.717 4.42744C191.447 5.71155 191.736 7.26819 192.134 8.6774C192.591 10.2985 193.077 11.9121 193.525 13.5342C194.42 16.77 195.334 20.0266 196.624 23.1392C197.897 26.2126 199.578 29.2619 201.658 31.896C202.66 33.1637 203.812 34.37 205.091 35.3783C205.193 35.4591 205.3 35.5335 205.406 35.6091C206.474 35.0164 207.945 35.2513 208.404 36.8176C208.62 37.5537 208.795 38.2983 208.94 39.0485L208.94 39.0519C209.539 42.1655 209.538 45.3905 209.059 48.5868C211.046 48.2752 213.113 48.3069 215.101 48.1948C217.893 48.0369 220.689 48.0247 223.486 47.9524C227.252 47.8556 231.016 47.716 234.778 47.5228C231.148 45.0536 227.352 42.8044 223.468 40.756C220.531 39.2079 217.327 38.1267 214.462 36.468C212.853 35.5372 211.453 34.4218 209.611 33.9169C207.732 33.4017 205.811 33.4813 203.936 33.9557C203.683 34.0197 203.504 33.6481 203.753 33.5346C206.666 32.208 209.593 32.1362 212.558 33.389C214.38 34.1593 216.094 35.1184 217.943 35.8522C219.68 36.5406 221.423 37.1981 223.116 37.9867C234.832 43.4459 245.555 51.11 254.14 60.604C256.238 62.9232 258.205 65.3574 260.026 67.8898C261.064 68.4282 261.669 69.4346 261.836 70.5202C262.795 71.9741 263.711 73.4552 264.566 74.9679C265.984 77.4758 267.241 80.0634 268.36 82.7098C268.671 83.4466 271.608 90.7641 271.404 90.878C273.173 89.8873 274.771 92.5527 273.002 93.5303C272.922 93.5743 272.844 93.613 272.766 93.6499C272.768 93.9756 272.689 94.2981 272.5 94.5497C270.367 97.3842 267.898 99.9866 265.727 102.802C265.697 102.842 265.667 102.883 265.636 102.923C267.816 112.864 269.423 122.925 270.717 133.009C273.38 153.75 275.011 174.58 275.858 195.462C276.287 206.025 276.413 216.602 276.533 227.171C276.592 232.396 276.629 237.62 276.647 242.845C276.656 245.518 276.686 248.189 276.739 250.861C276.749 251.363 276.771 251.867 276.793 252.371ZM93.9362 30.9563C93.8457 31.0159 93.7479 31.0691 93.6612 31.1328C93.464 31.2765 93.4951 31.5364 93.7275 31.6235C94.0367 31.7408 94.3616 31.8294 94.6961 31.8994C95.7119 33.3294 96.5056 35.0972 97.0599 35.993C98.6522 38.5671 100.483 41.0192 102.346 43.4132C102.72 43.8938 103.102 44.3693 103.485 44.8436C94.4648 44.8228 85.4491 44.8674 76.4342 45.1984C71.6879 45.373 66.9255 45.5194 62.1893 45.8649C60.2417 46.0071 58.2954 46.2457 56.354 46.4818C66.4579 39.3929 77.8209 33.9799 89.5923 29.9611C89.5762 29.9786 89.5597 29.9916 89.5436 30.0091C89.2843 30.2884 89.6714 30.6502 89.9633 30.4164C91.4946 29.1874 92.8238 29.7641 93.9362 30.9563ZM50.0373 51.2727C46.5746 54.115 43.3021 57.1873 40.2617 60.502C37.9743 62.9954 35.8584 65.6262 33.894 68.3657C34.2803 68.3057 34.6738 68.2525 35.0843 68.2101C37.0901 68.0027 39.0956 67.7804 41.1033 67.5898C44.805 67.2383 48.549 67.1635 52.2637 66.9788C65.6478 66.3127 79.091 66.2044 92.4924 66.2386C99.2334 66.2561 105.974 66.283 112.715 66.3191C116.074 66.3366 119.434 66.357 122.793 66.379C123.435 66.3833 124.081 66.3789 124.727 66.3745L124.728 66.3744C124.815 66.3738 124.902 66.3733 124.989 66.3727C121.222 63.4348 117.683 60.2109 114.364 56.8318C112.321 54.752 110.294 52.6388 108.328 50.4756C107.762 51.2426 106.844 51.7705 105.572 51.7597C95.86 51.6778 86.1454 51.6804 76.4339 51.7318C71.6841 51.7568 66.9375 51.9023 62.1889 51.9496C60.6576 51.9649 59.1243 51.9322 57.5913 51.8995L57.5911 51.8995C56.6554 51.8796 55.7199 51.8596 54.7851 51.8506C53.169 51.8346 51.5652 51.7117 50.0373 51.2727ZM207.873 53.7557C209.979 54.3231 212.153 54.4173 214.38 54.5804C217.303 54.7952 220.219 54.8313 223.15 54.8496C227.822 54.8786 232.496 54.8473 237.167 54.7222C239.174 54.6686 240.346 53.3651 240.694 51.8722C240.742 51.9101 240.792 51.9474 240.84 51.9861C246.526 56.5324 251.677 61.7321 256.042 67.4877C245.53 67.5198 235.015 67.5265 224.503 67.595C218.945 67.6315 213.382 67.853 207.826 67.9919C205.1 68.0596 202.414 68.2789 199.7 68.5291C199.646 68.5343 199.589 68.5388 199.535 68.5436C199.822 68.2216 200.108 67.8951 200.387 67.5592C203.631 63.657 206.3 58.8489 207.873 53.7557ZM195.052 72.7832C180.661 84.2564 159.181 83.6298 142.435 76.723C139.605 75.5558 136.881 74.1879 134.252 72.6633C134.03 72.9168 133.758 73.1317 133.424 73.2769C132.467 73.6927 131.502 74.195 130.511 74.5297C129.442 74.8912 128.439 74.8942 127.317 74.8774C125.309 74.8477 123.3 74.8101 121.292 74.7777C117.569 74.7173 113.846 74.6596 110.122 74.6045C96.7073 74.4068 83.2975 74.2062 69.8849 73.8863C63.1375 73.7255 56.4122 73.4813 49.6728 73.1279C43.826 72.8212 37.5131 72.8952 31.7906 71.4306C31.4642 71.9254 31.1427 72.4235 30.8259 72.9247C39.0855 74.838 45.0359 82.7426 50.0552 88.917C50.537 89.5098 51.0081 90.1103 51.4838 90.7079C58.5677 89.636 65.7168 89.2238 72.8931 88.9814C87.3168 88.4933 101.714 88.1355 116.147 88.2316C123.419 88.28 130.692 88.3563 137.963 88.4609C141.663 88.5142 145.362 88.5745 149.062 88.6423C149.606 88.6522 150.157 88.6509 150.712 88.6497C153.446 88.6434 156.259 88.637 158.603 89.9662C158.844 89.9334 159.083 89.9007 159.319 89.8638C161.422 89.531 163.571 89.464 165.695 89.3106C169.777 89.0161 173.838 89.0153 177.929 88.9866C186.413 88.9281 194.897 88.9234 203.381 88.9187C209.681 88.9152 215.981 88.9117 222.282 88.8861C227.426 88.8653 232.571 88.8017 237.717 88.7381C247.356 88.619 256.997 88.5 266.632 88.6616C266.866 88.6657 267.085 88.6903 267.295 88.7257C266.314 85.6898 265.118 82.7206 263.708 79.8475C262.741 77.8775 261.681 75.9564 260.542 74.0826C259.962 74.5371 259.196 74.8201 258.239 74.8115C246.993 74.7144 235.747 74.6514 224.502 74.5167C218.943 74.45 213.382 74.198 207.826 74.0297C204.975 73.9429 202.164 73.6886 199.327 73.412C198.064 73.2891 196.482 73.1629 195.052 72.7832ZM39.5476 247.924C36.9772 248.687 34.4255 248.356 31.85 248.879C31.6916 248.911 31.5454 248.97 31.4115 249.049C23.6989 245.851 18.5579 239.433 15.0396 232.241C11.3309 224.66 8.77465 216.557 7.06227 208.342C3.53163 191.406 3.52549 173.847 5.35295 156.713C7.14858 139.881 10.7038 123.14 15.7772 106.952C19.2607 95.8372 23.7001 84.6078 29.8641 74.4731C36.9818 79.1017 42.5017 85.7661 47.7018 92.2801C53.9157 100.065 59.5154 108.303 64.5279 116.862C64.0097 118.328 63.9291 120.168 63.6806 121.478C63.2014 124.005 62.7687 126.564 62.4285 129.113C61.7016 134.561 61.0042 140.012 60.2612 145.458C58.7916 156.227 57.037 166.966 55.0987 177.664C54.9418 178.532 55.1927 179.265 55.6542 179.814C51.8097 181.781 48.0156 183.835 44.3188 186.061C36.1915 190.956 28.5959 196.658 22.6325 203.971C22.4775 204.161 22.7204 204.415 22.9122 204.243C35.7005 192.774 51.5884 185.574 67.1874 178.458C75.159 174.821 83.0914 171.126 90.7396 166.874C98.7376 162.428 106.365 157.404 113.676 151.96C122.024 145.743 129.882 138.946 137.248 131.654C138.115 130.794 137.905 129.718 137.252 129.038C137.473 128.972 137.651 128.786 137.662 128.475C137.839 123.713 139.313 119.656 142.197 115.802C144.873 112.226 148.284 109.279 151.36 106.043C152.727 104.606 154.034 103.108 155.201 101.51C156.402 99.8653 157.133 98.0499 158.178 96.3316C159.399 94.3237 160.438 95.3495 161.004 97.1671C161.646 99.2275 161.606 101.64 161.348 103.758C161.075 105.999 160.372 108.184 159.359 110.21C159.298 110.333 159.236 110.457 159.173 110.58C158.273 112.365 157.353 114.19 157.952 116.23C159.004 119.814 163.515 121.889 166.932 122.697C170.738 123.595 174.718 123.421 178.572 122.955C183.397 122.371 188.2 121.516 192.97 120.606C198.494 119.554 203.986 118.339 209.434 116.966C211.996 116.321 214.539 115.473 217.125 114.938C218.047 114.748 219.754 114.462 220.838 114.929C206.907 122.989 191.72 128.358 176.295 133.037C174.379 133.618 175.165 136.427 177.126 135.961C193.697 132.029 209.287 124.731 224.125 116.737C224.352 116.614 224.544 116.425 224.686 116.201C226.178 115.691 227.696 115.248 229.243 114.883C229.377 114.851 229.617 114.784 229.921 114.698C231.192 114.339 233.578 113.665 233.937 114.018C234.48 114.553 232.934 116.123 232.149 116.921C232.023 117.048 231.917 117.156 231.842 117.237C227.964 121.405 223.352 124.808 218.36 127.621C213.296 130.474 207.908 132.748 202.495 134.894C196.431 137.299 190.022 139.189 184.127 141.952C181.786 143.05 183.429 146.78 185.896 146.024C189.075 145.049 192.164 143.615 195.254 142.398C197.878 141.364 200.503 140.331 203.113 139.262C204.932 138.517 206.739 137.747 208.529 136.942C205.848 139.39 203.167 141.838 200.487 144.288C195.845 148.529 191.435 153.361 185.761 156.336C180.155 159.275 173.76 159.616 167.52 159.553C166.806 159.546 166.093 159.535 165.381 159.525L165.38 159.525C162.964 159.489 160.554 159.453 158.135 159.547C154.838 159.676 151.91 160.168 148.786 161.175C148.728 161.194 148.686 161.227 148.651 161.265C148.542 161.136 148.356 161.071 148.165 161.181C139.675 166.053 131.936 172.373 124.493 178.62C116.822 185.058 109.603 191.905 102.726 199.137C96.1429 206.059 89.6126 213.007 82.4492 219.376C75.4551 225.595 67.9807 231.241 60.176 236.467C55.9234 239.314 51.5658 242.056 47.057 244.508C44.6476 245.817 42.2006 247.137 39.5476 247.924ZM138.76 115.444C139.005 115.045 139.257 114.656 139.514 114.279C142.517 109.86 146.705 106.37 150.172 102.319C151.802 100.413 153.202 98.36 154.314 96.1291C154.364 96.03 154.415 95.9299 154.464 95.8297C153.803 95.8465 153.143 95.8294 152.505 95.8107C150.464 95.7508 148.423 95.6935 146.382 95.638C142.428 95.5308 138.473 95.431 134.518 95.3401C120.101 95.0088 105.68 94.9068 91.2667 94.4328C78.5454 94.0147 65.6792 94.1752 53.0296 92.6692C58.6048 99.8463 63.7101 107.352 68.3091 115.16C70.3046 114.586 72.4754 114.446 74.5188 114.333C77.4414 114.173 80.3644 114.005 83.2886 113.864C87.4583 113.664 91.6589 113.705 95.8492 113.745C97.5108 113.761 99.1707 113.778 100.826 113.779C112.65 113.786 124.461 114.099 136.277 114.457C137.342 114.489 138.168 114.872 138.76 115.444ZM260.762 103.405C258 107.303 255.463 111.316 253.17 115.49C251.987 117.643 250.884 119.839 249.891 122.08C249.684 117.235 249.639 112.333 249.055 107.536C249.014 107.19 248.419 107.022 248.356 107.444C247.712 111.794 247.605 116.256 247.362 120.652C247.081 120.569 246.772 120.521 246.43 120.521C243.116 120.521 239.851 120.784 236.549 121.044C235.069 121.161 233.521 121.25 232.011 121.478C233.226 120.176 234.358 118.8 235.402 117.366C236.468 115.902 237.685 113.615 235.829 112.209C234.029 110.845 230.709 112.245 228.584 113.141C228.288 113.266 228.016 113.38 227.774 113.477C226.77 113.877 225.786 114.312 224.816 114.775C223.592 111.446 219.84 111.005 216.624 111.464C214.331 111.792 212.105 112.554 209.87 113.133C207.032 113.869 204.183 114.562 201.323 115.212C196.173 116.382 190.988 117.404 185.779 118.29C185.641 118.135 185.45 118.013 185.195 117.951C183.907 117.639 182.524 117.724 181.165 117.809C180.642 117.841 180.122 117.873 179.613 117.882C177.732 117.916 175.85 117.914 173.969 117.876C170.609 117.809 167.251 117.782 163.891 117.726C162.936 117.164 161.725 116.357 161.429 115.3C161.143 114.281 161.766 113.179 162.312 112.212C162.474 111.925 162.629 111.651 162.751 111.394C164.812 107.08 165.533 102.251 164.725 97.5528C164.58 96.7151 164.283 95.7992 163.855 94.9411C167.536 95.3234 171.169 95.5829 174.871 95.7002C182.262 95.9337 189.652 96.1783 197.046 96.2315C211.83 96.3384 226.615 96.3391 241.399 96.2341C249.759 96.1749 258.099 96.1004 266.448 95.6861C265.767 96.523 265.106 97.3782 264.46 98.2465C264.326 98.2077 264.152 98.2774 264.172 98.4382C264.178 98.4944 264.185 98.5503 264.192 98.6061C263.013 100.204 261.879 101.827 260.762 103.405ZM124.012 138.329C123.574 137.148 122.508 136.239 120.809 136.314C111.127 136.741 101.427 137.037 91.7558 137.656C87.0448 137.957 82.3147 138.16 77.6114 138.56C75.1855 138.767 72.7638 139.15 70.3483 139.456C68.6923 139.665 66.9585 139.908 65.37 140.48C65.678 137.179 65.9496 133.876 66.1855 130.568C66.3746 127.91 66.4322 125.228 66.4176 122.564C66.4103 121.216 66.3631 119.859 66.296 118.511C66.4387 118.539 66.5818 118.553 66.7222 118.536C66.97 118.506 67.2013 118.478 67.4161 118.422C69.6421 119.268 72.1616 119.454 74.5192 119.618C77.3156 119.811 80.1113 120.017 82.9077 120.21C88.8577 120.623 94.8637 120.596 100.827 120.784C112.565 121.156 124.306 121.372 136.047 121.677C135.502 123.945 135.483 126.275 136.355 128.471C135.748 128.275 135.048 128.366 134.451 128.939C131.07 132.181 127.587 135.308 124.012 138.329ZM246.685 136.313C246.6 139.443 246.555 142.574 246.532 145.706C246.254 145.551 245.939 145.438 245.585 145.386C242.828 144.977 239.929 145.096 237.079 145.212C236.045 145.255 235.018 145.297 234.006 145.313C230.332 145.373 226.644 145.353 222.973 145.521C219.295 145.69 215.618 145.891 211.941 146.076C210.215 146.163 208.509 146.238 206.797 146.465C205.624 146.62 204.123 146.609 202.87 146.933C208.127 141.991 213.356 137.02 218.599 132.065C218.756 131.916 218.87 131.759 218.949 131.599C222.445 129.531 225.801 127.204 228.84 124.54C231.25 125.441 233.993 125.555 236.548 125.756C239.852 126.017 243.114 126.28 246.43 126.28C246.654 126.28 246.863 126.259 247.061 126.221C246.899 129.583 246.776 132.946 246.685 136.313ZM88.6341 160.819C89.1681 161.218 89.6192 161.807 89.8582 162.449C89.9955 162.368 90.1348 162.291 90.2721 162.209C99.9004 156.497 109.131 150.218 117.867 143.335C109.166 143.669 100.46 144.072 91.7555 144.212C90.1414 144.238 88.5244 144.282 86.9065 144.325C83.6788 144.411 80.448 144.497 77.229 144.448C74.81 144.411 72.3823 144.222 69.9656 144.111C68.3529 144.036 66.6536 143.857 65.0901 143.369C64.983 144.428 64.8749 145.487 64.7582 146.546C64.202 151.59 63.5798 156.625 62.894 161.652C66.2128 160.965 70.7316 160.742 71.617 160.7C74.5342 160.561 77.4519 160.423 80.3691 160.284C80.9118 160.258 81.5167 160.195 82.1521 160.129C84.4018 159.895 87.0332 159.621 88.6341 160.819ZM148.686 161.721C148.673 161.742 148.664 161.764 148.646 161.784C146.172 164.379 143.546 166.837 140.845 169.225C147.516 168.162 154.256 167.61 161.026 167.485C174.947 167.227 188.859 167.095 202.783 167.05C209.678 167.028 216.574 167.006 223.469 166.984C225.009 166.979 226.55 166.962 228.092 166.945C233.581 166.886 239.077 166.826 244.54 167.293C245.433 167.369 246.133 167.686 246.643 168.139C246.633 167.368 246.618 166.596 246.61 165.824C246.565 161.09 246.52 156.352 246.514 151.615C246.241 151.761 245.933 151.867 245.587 151.915C242.811 152.303 239.917 152.164 237.063 152.026C236.037 151.977 235.016 151.928 234.007 151.903C230.205 151.811 226.391 151.794 222.594 151.586C218.789 151.377 214.985 151.142 211.181 150.921C209.456 150.82 207.776 150.679 206.066 150.437C204.578 150.227 202.956 150.188 201.571 149.598C201.232 149.454 201.09 149.064 201.063 148.739C201.06 148.709 201.058 148.679 201.055 148.65C196.841 152.651 192.499 156.814 187.257 159.448C178.979 163.607 169.537 162.924 160.287 162.255C156.415 161.975 152.576 161.697 148.871 161.778C148.794 161.78 148.735 161.756 148.686 161.721ZM62.3642 165.432C63.0995 165.527 63.8287 165.558 64.3865 165.613C67.1868 165.887 69.9433 166.136 72.7578 166.175C75.5484 166.215 78.3387 166.254 81.1294 166.294C81.7228 166.302 82.3162 166.311 82.9097 166.319C75.5615 170.215 67.9877 173.704 60.521 177.378C61.1788 173.402 61.793 169.42 62.3642 165.432ZM138.397 171.354C151.81 173.724 165.433 173.561 179.03 173.796C188.505 173.96 197.988 173.938 207.469 173.916L207.478 173.916C211.915 173.906 216.352 173.896 220.787 173.905C222.677 173.909 224.572 173.931 226.468 173.953C232.499 174.024 238.546 174.095 244.538 173.576C245.469 173.495 246.19 173.152 246.704 172.666C246.848 180.796 247.111 188.923 247.473 197.046C246.962 196.836 246.405 196.707 245.825 196.674C228.045 195.659 210.264 194.738 192.463 194.175C190.575 194.116 188.688 194.055 186.801 193.994L186.799 193.994L186.799 193.994L186.798 193.994L186.792 193.994C170.89 193.481 154.975 192.968 139.069 193.154C137.226 193.176 135.361 193.169 133.484 193.162C126.515 193.135 119.382 193.107 112.634 194.554C115.889 191.197 119.214 187.902 122.692 184.747C127.763 180.148 133.174 175.84 138.397 171.354ZM135.254 200.065C126.904 199.567 118.209 199.595 110.183 197.107C101.998 205.706 94.1509 214.608 85.3914 222.663C85.4187 222.653 85.4421 222.639 85.4697 222.629C87.7714 221.806 90.3196 221.83 92.8047 221.853C93.4543 221.859 94.0996 221.865 94.7351 221.856C97.7862 221.813 100.837 221.774 103.889 221.738C109.991 221.666 116.094 221.609 122.197 221.567C123.964 221.555 125.732 221.542 127.499 221.529L127.501 221.529L127.509 221.529L127.51 221.529L127.514 221.529L127.515 221.529C147.317 221.386 167.147 221.243 186.936 221.864C197.513 222.196 208.088 223.106 218.646 223.785C224.064 224.134 229.471 224.507 234.881 224.951C239.699 225.346 244.445 225.903 249.228 226.486C249.168 225.674 249.104 224.863 249.046 224.052C248.581 217.564 248.181 211.073 247.84 204.579C247.233 204.907 246.546 205.086 245.825 205.051C235.664 204.555 225.502 204.098 215.337 203.684C197.541 202.958 179.754 202.046 161.955 201.375C153.044 201.038 144.156 200.596 135.254 200.065ZM234.017 251.441C237.452 251.547 240.887 251.653 244.323 251.759C246.672 251.832 248.98 251.764 251.302 251.641C251.14 250.584 251.133 249.448 251.035 248.336C250.797 245.638 250.555 242.941 250.32 240.244C249.965 236.16 249.646 232.072 249.341 227.984C246.922 228.283 244.489 228.615 242.07 228.742C239.05 228.9 236.015 228.921 232.993 228.987C227.482 229.108 221.975 229.01 216.465 228.911L216.464 228.911C215.934 228.901 215.404 228.892 214.874 228.882C193.388 228.506 171.914 228.222 150.425 228.391C139.744 228.475 129.063 228.603 118.383 228.777C112.916 228.866 107.449 228.967 101.982 229.079C99.1853 229.136 96.3885 229.197 93.5917 229.261C93.1176 229.272 92.6447 229.289 92.1731 229.307C89.9046 229.392 87.6659 229.476 85.4705 228.788C83.2959 228.107 82.6887 226.032 83.4474 224.423C82.3572 225.394 81.2559 226.354 80.1328 227.295C72.826 233.413 65.0796 239.01 56.8844 243.957C54.6365 245.314 52.3622 246.695 50.0449 247.994C50.0533 248.546 50.0403 249.097 50.0273 249.651C50.0005 250.789 49.9737 251.927 50.1335 253.068C54.5438 252.762 58.9827 252.756 63.4173 252.749C66.086 252.746 68.753 252.742 71.4113 252.673C78.8404 252.479 86.2611 252.075 93.6764 251.608C107.015 250.768 120.344 249.721 133.708 249.317C146.697 248.923 159.688 249.272 172.674 249.62L173.706 249.647C187.067 250.005 200.426 250.403 213.786 250.816C220.529 251.024 227.273 251.232 234.017 251.441Z" transform="translate(17.64516 0.1554401)" id="ðŸ–-Ink" fill="#000000" fill-rule="evenodd" stroke="none" />
  </g>
</svg>