<?xml version="1.0" encoding="utf-8"?>
<svg width="314px" height="273px" viewBox="0 0 314 273" version="1.1" xmlns:xlink="http://www.w3.org/1999/xlink" xmlns="http://www.w3.org/2000/svg">
  <desc>Created with Lunacy</desc>
  <defs>
    <rect width="313.783173" height="272.9061" id="artboard_1" />
    <clipPath id="clip_1">
      <use xlink:href="#artboard_1" clip-rule="evenodd" />
    </clipPath>
  </defs>
  <g id="body/Pointing-Up" clip-path="url(#clip_1)">
    <use xlink:href="#artboard_1" stroke="none" fill="#FFFFFF" />
    <path d="M300.84 36.5308C296.883 25.9508 299.855 12.5556 291.698 3.80106C289.285 2.3777 288.005 3.16961 287.012 5.65146C286.413 8.9174 285.008 20.1624 290.06 20.1572C290.695 27.1801 290.298 34.2541 288.742 41.1464C285.014 40.5658 282.296 42.4256 279.576 43.8088C277.548 44.8401 275.519 45.6064 273.069 44.8985C262.958 43.1688 260.077 53.4744 259.954 61.8864C259.805 65.9908 259.408 75.5585 257.545 79.5411C249.115 62.5945 231.408 54.8792 214.537 51.0697C211.893 50.3596 209.636 49.3894 207.94 47.7311C193.725 42.2838 200.554 24.4366 194.015 14.1793C183.779 1.98528 171.486 -1.5234 155.999 0.566396C142.449 2.02065 133.239 15.3796 134.074 27.9895C134.325 30.5626 132.734 33.269 131.798 35.9169C122.445 46.7791 107.891 51.6389 95.3742 58.2024C53.6246 78.0073 39.156 93.1422 22.9318 135.284C15.3419 151.14 6.25867 166.529 3.24205 183.991C-0.302779 204.569 -0.313903 225.634 0.920132 246.414C-1.38376 246.683 1.12344 262.657 3.14423 268.191C3.83663 270.087 5.49569 271.455 7.5629 271.423C11.7211 273.385 21.4841 281.29 25.8333 281.027C39.8857 280.187 53.545 281.486 67.0836 280.815C81.7306 280.088 96.2365 277.436 110.946 277.78C136.598 278.38 118.232 279.858 144.772 281.027C161.525 281.777 222.647 272.896 239.353 274.346C252.942 277.121 259.141 272.443 257.068 258.665C256.302 253.383 253.854 241.638 261.905 241.139C265.714 241.568 268.866 245.262 271.72 247.42C296.921 265.631 322.667 252.518 324.696 222.58C328.516 197.471 333.871 191.539 322.229 166.464C285.396 73.1196 340.889 85.8017 303.422 42.0801C300.496 44.5527 301.24 37.9534 300.84 36.5308Z" transform="translate(14.95271 -24.94505)" id="âœ‹-Skin" fill="#D08B5B" stroke="none" />
    <path d="M121.361 0C145.366 11.8832 164.35 17.8248 178.312 17.8248C192.274 17.8248 216.866 20.5917 252.087 26.1255L269.479 63.2225L307.856 70.4999L308.027 71.4695C309.896 81.8798 313.469 94.4782 319.599 110.013C331.241 135.088 325.885 141.02 322.066 166.13C320.037 196.067 294.291 209.18 269.089 190.969C266.236 188.811 263.083 185.117 259.275 184.688C251.385 185.177 253.578 196.467 254.39 201.89L254.438 202.214C256.511 215.992 250.312 220.67 236.723 217.895C220.017 216.446 158.895 225.326 142.142 224.577C115.602 223.407 133.968 221.929 108.316 221.329C93.6063 220.985 79.1004 223.637 64.4534 224.364C51.6269 225 38.6921 223.868 25.4174 224.461L4.93269 214.972C-2.64345 162.321 -1.49242 127.798 8.38579 111.404C18.2144 95.092 31.3755 68.2769 47.869 30.9585C48.1216 30.696 48.3767 30.4365 48.6336 30.1783L121.361 0Z" transform="translate(17.58239 31.50588)" id="ðŸ‘•-Top" fill="#78E185" stroke="none" />
    <path d="M297.07 1.50458C295.11 -0.200244 291.914 -0.677178 289.904 1.24024C287.991 3.06384 288.393 5.93908 288.732 8.35916C288.752 8.50386 288.772 8.64693 288.791 8.78804L288.959 10.0575C289.364 13.0104 289.909 15.9416 290.223 18.9065C290.599 22.4882 290.775 26.0066 290.852 29.5994C290.894 31.4945 290.909 33.3933 290.871 35.2921L290.865 35.6157C290.859 36.0438 290.862 36.4596 290.886 36.8707C290.05 36.9563 289.225 37.1313 288.42 37.4072C285.934 38.2557 283.46 40.1768 282.873 42.7383C281.661 41.8485 280.242 41.1821 278.937 40.6795C276.11 39.5923 272.742 39.2907 269.831 40.2699C263.674 42.3366 261.349 48.6805 260.954 54.4811C260.693 58.3271 261.081 62.2066 261.875 66.0121C261.196 65.6543 260.517 65.3192 259.911 64.9729L251.682 60.2612C247.471 57.8512 243.248 55.4448 238.951 53.1818C231.682 49.3544 223.945 46.2902 215.728 46.2939C215.728 46.2939 208.931 45.1658 208.931 45.1063C208.041 44.0005 207.247 42.8277 206.556 41.592C204.746 38.345 204.097 34.7559 202.544 31.4349C201.98 30.2212 200.365 30.8094 199.958 31.7625C198.305 35.6309 199.644 40.5938 201.263 44.2574C202.068 46.078 203.027 47.7944 204.228 49.3879C202.958 50.4047 201.635 51.3537 200.254 52.2398C195.731 55.1438 190.81 57.3889 185.596 58.845C175.627 61.6296 165.995 60.5982 156.355 57.1543C148.138 54.2209 139.918 49.7639 133.419 44.3951C132.334 43.5016 131.329 42.541 130.389 41.506L130.36 41.4748L130.331 41.4464C136.351 37.9057 141.072 32.63 140.65 25.1912C140.489 22.3951 135.963 22.3914 136.154 25.1912C136.622 32.0049 131.793 36.2526 126.043 39.0636C122.493 39.0247 118.671 40.1547 115.392 41.4314L114.892 41.6288C112.628 42.5336 110.453 43.6468 108.244 44.6636L107.888 44.8284C107.652 44.9391 107.417 45.0517 107.181 45.1658C100.967 46.8859 94.7528 48.6097 88.6344 50.6243C79.3782 53.6695 70.2562 57.4191 62.1239 62.7428C53.8344 68.1674 46.9258 75.1818 40.8573 82.8477C15.7546 114.561 3.79401 154.429 0.790442 193.89C-0.153209 206.262 -0.237601 218.664 0.460548 231.051C0.805786 237.243 1.28528 243.468 2.12153 249.622L2.17629 250.037C2.99068 256.372 3.90344 271.01 5.7005 276.76C5.76571 276.968 5.99587 277.017 6.14931 276.931C6.04957 277.315 6.21068 277.776 6.68634 277.884C22.1126 281.393 38.3823 281.348 54.1453 280.583L55.3266 280.524C59.9589 280.288 64.5859 279.979 69.2109 279.638C68.7962 276.167 68.34 272.524 67.8683 268.757C64.9462 245.421 61.4246 217.299 63.442 195.593C63.618 193.696 66.688 193.684 66.5107 195.593C64.4897 217.338 68.0271 245.561 70.952 268.897C71.3065 271.726 71.6519 274.482 71.9774 277.147L72.2517 279.41C83.1163 278.582 93.9718 277.628 104.857 277.076C112.799 276.674 120.741 277.498 128.684 278.322C134.444 278.92 140.204 279.518 145.963 279.647C145.982 278.839 146.088 266.603 146.267 265.435L146.278 265.378C146.319 265.219 146.395 264.995 146.483 264.735C146.843 263.678 147.41 262.014 146.672 261.571C146.186 261.28 144.822 261.522 143.876 261.69C143.556 261.746 143.283 261.795 143.109 261.811L140.316 262.077C139.851 262.12 139.385 262.164 138.919 262.206L138.8 262.217C136.684 262.395 134.572 262.166 133.381 260.207C132.349 258.508 132.586 256.307 133.63 254.675C134.172 253.827 134.902 253.083 135.636 252.393C136.303 251.767 137.393 251.034 137.455 250.04C137.565 248.29 132.726 247.133 130.547 246.68L129.87 246.543C129.591 246.488 129.69 246.12 129.932 246.097C133.366 245.769 140.354 245.501 140.621 250.247C140.73 252.19 139.726 253.756 138.616 255.265L138.41 255.542C138.391 255.567 138.367 255.598 138.34 255.632C138.005 256.063 137.141 257.172 137.547 257.582C137.532 257.567 139.16 257.335 139.829 257.245L140.699 257.135C140.964 257.099 141.235 257.062 141.513 257.023C145.565 256.46 150.787 255.734 152.007 260.583C152.513 262.594 151.552 268.656 151.054 270.605L151.049 270.623C150.935 271.146 149.911 277.961 149.701 279.495L149.664 279.78C167.246 280.277 186.358 281.247 203.921 281.969L205.351 282.027C223.46 282.753 241.591 283.145 259.711 282.412L259.745 282.41C259.889 282.406 260.174 282.402 260.565 282.397C263.459 282.36 272.142 282.249 272.102 281.112C272.018 278.721 265.699 250.239 264.041 242.532L263.82 241.495C263.745 241.143 263.766 240.782 263.786 240.422C263.796 240.245 263.806 240.069 263.804 239.893C264.856 242.265 266.57 244.436 268.346 246.141C272.002 249.648 276.467 252.474 280.944 254.898C290.898 260.293 302.061 261.294 312.617 257.214C314.654 256.774 316.53 255.896 318.279 254.771C322.1 252.318 325.253 248.911 327.547 245.072C332.456 236.873 333.849 226.54 334.416 217.164L334.475 216.151C335.031 205.939 334.045 195.823 332.426 185.737C328.855 163.506 323.427 141.562 320.32 119.26C320.677 118.917 320.972 118.515 321.194 118.035C321.705 116.933 321.079 115.958 319.875 115.805C318.681 115.652 317.631 115.916 316.532 116.191C316.208 116.272 315.881 116.354 315.544 116.427C315.371 116.464 315.199 116.497 315.022 116.524L315.078 116.317C315.427 114.93 315.306 113.473 315.188 112.037C315.153 111.615 315.118 111.195 315.095 110.779C314.984 108.735 314.873 106.691 314.811 104.643C314.696 100.689 314.75 96.728 315.149 92.7889C315.556 88.775 316.403 84.8247 317.788 81.0234C319.085 77.4529 320.903 74.0723 321.973 70.4236C324.045 63.3724 322.084 56.4432 317.953 50.4936C315.234 46.5769 311.394 43.6654 307.139 41.4352C304.815 30.3999 305.885 18.8511 301.29 8.30341C300.265 5.95746 299.065 3.23584 297.07 1.50458ZM293.417 4.84079L293.428 4.78839C293.574 4.82972 293.701 4.91907 293.808 5.05646C294.299 5.65588 294.733 6.21808 295.135 6.88824C298.153 11.925 299.25 17.5914 300.417 23.2215L300.628 24.2343C301.703 29.3239 302.232 34.5028 303.222 39.6076C302.431 39.2796 301.637 38.9705 300.839 38.6768C298.615 37.8648 296.167 37.1015 293.72 36.8744C294.357 34.9979 294.502 32.8534 294.748 31.0254L294.81 30.5471C295.227 27.1925 295.299 23.6979 295.112 20.3288C294.921 16.8253 294.334 13.3442 293.889 9.86675L293.86 9.64996C293.81 9.29305 293.75 8.92467 293.688 8.55036C293.487 7.32238 293.274 6.03059 293.409 4.8703C293.412 4.86037 293.414 4.85044 293.417 4.84079ZM291.804 39.9646C288.832 39.9646 286.023 40.9065 283.775 43.4718C284.577 44.2127 285.218 45.0727 285.571 46.0817C286.671 45.4972 287.838 45.0396 289.031 44.7153C292.671 43.7287 297.65 43.7436 300.711 46.1673C302.315 47.4332 300.554 49.7043 298.828 49.3134C297.282 48.9634 295.939 48.3156 294.317 48.2411C292.909 48.1741 291.528 48.3528 290.178 48.7475C288.118 49.351 286.246 50.4936 284.869 52.0685C284.408 52.5972 284.005 53.1706 283.668 53.789C281.098 58.5244 283.035 65.3154 286.583 69.2136C285.191 64.7235 286.579 59.4292 289.353 55.7101C292.692 51.232 297.686 50.7243 302.947 51.4233L303.121 51.4468C308.211 52.1433 314.513 53.3604 318.318 56.9905C317.939 56.1528 317.501 55.3412 317.01 54.5556C314.126 49.9463 309.342 46.3498 304.378 43.7845C303.546 43.3489 302.706 42.9468 301.87 42.5745C298.69 41.156 295.145 39.9646 291.804 39.9646ZM265.169 54.2168C265.633 48.5985 268.886 42.7644 275.606 43.7212C277.858 44.0414 282.856 45.7243 281.801 48.673C281.759 48.7925 281.713 48.9076 281.659 49.0155C281.245 49.4474 280.862 49.9054 280.516 50.3894C278.754 51.6539 275.848 51.4936 273.616 51.3705C273.362 51.3565 273.117 51.3429 272.883 51.332L272.603 51.3202C270.857 51.2569 270.455 53.9338 272.188 54.3024C274.202 54.7343 276.381 55.0656 278.464 54.8348C278.364 55.222 278.284 55.6129 278.222 56.0039C278.127 56.0229 278.034 56.0411 277.939 56.056C277.244 56.1677 276.542 56.164 275.844 56.1081C274.62 56.0191 273.75 57.333 274.049 58.3979C274.375 59.5409 275.729 60.0252 276.784 59.4738C277.225 59.2471 277.647 58.9936 278.054 58.7106C278.238 63.8001 281.238 68.648 286.75 70.1108C286.804 70.1257 286.853 70.122 286.896 70.1034C287.49 71.5703 288.434 72.8998 289.611 73.9755C287.916 74.1951 286.251 75.5876 285.334 76.8013C283.612 79.0948 283.002 82.6802 284.962 84.9438C286.301 86.4926 288.614 85.4357 289.213 83.8567C289.561 82.9449 289.577 81.9034 289.592 80.8634C289.603 80.1155 289.615 79.3683 289.75 78.6707C289.995 77.4007 290.563 76.2242 290.916 74.9993C292.646 76.1609 294.717 76.8237 296.885 76.7343C299.324 76.6338 302.052 75.4725 303.003 73.1415C303.325 72.3559 303.371 71.6075 303.275 70.8741C305.477 72.3187 309.056 73.1526 311.17 71.7304C311.975 71.1868 312.148 69.9172 311.17 69.4109C310.11 68.8618 309.158 68.8049 308.065 68.7943L307.295 68.7891C306.759 68.7836 306.224 68.7487 305.69 68.7139C304.823 68.6573 303.958 68.6009 303.087 68.67C302.961 68.6815 302.842 68.7147 302.735 68.7668C302.554 68.2232 302.37 67.6759 302.24 67.1174C303.191 66.913 304.104 66.5776 304.978 66.0753C305.412 65.8218 305.822 65.2745 305.757 64.7533C305.511 62.7786 303.583 63.2691 301.919 63.6924C301.325 63.8437 300.764 63.9864 300.325 64.0049L300.242 64.0099C299.326 64.0837 298.606 64.7735 298.588 65.6878C298.565 66.7302 298.768 67.7131 299.079 68.7113C299.138 68.8998 299.22 69.1122 299.307 69.3384C299.607 70.1175 299.969 71.0587 299.704 71.7453C298.944 73.6888 295.573 73.3127 294.096 72.6984C289.333 70.7245 288.98 65.157 290.52 60.9858L290.617 60.7323C291.483 58.5323 292.922 56.2388 295.204 55.2071C297.314 54.2572 299.8 54.3784 302.083 54.6271L302.665 54.6933C305.404 55.0135 308.147 55.5537 310.824 56.2124C313.349 56.8304 315.823 57.5639 318.435 57.6569C318.493 57.6607 318.542 57.6383 318.581 57.6085C319.413 59.6004 319.904 61.7077 319.977 63.8746C320.093 67.2854 319.03 70.498 317.741 73.6255C316.436 76.7902 315.025 79.8841 314.1 83.1791C313.184 86.4294 312.596 89.7768 312.221 93.1236C311.787 96.9472 311.68 100.801 311.73 104.643C311.757 106.691 311.822 108.735 311.929 110.779L311.939 110.983C311.954 111.309 311.962 111.64 311.971 111.973C312.013 113.52 312.056 115.114 312.662 116.524C312.712 116.643 312.781 116.751 312.861 116.847C312.648 116.874 312.434 116.898 312.22 116.922L310.154 117.142C307.286 117.439 304.41 117.657 301.53 117.76C298.549 117.864 295.477 117.838 292.523 117.436C290.383 117.145 288.38 116.598 286.366 115.995C287.305 114.058 286.673 111.62 286.118 109.477C286.067 109.279 286.016 109.083 285.968 108.891L285.784 108.153C285.036 105.198 284.073 102.304 282.78 99.5274C281.422 96.6121 279.761 93.9315 277.816 91.3476L277.614 91.0775L276.862 90.076C275.717 88.56 274.458 86.9824 272.986 85.8113C272.557 85.0071 272.173 84.1694 271.793 83.3354C270.547 80.5729 269.522 77.7064 268.579 74.8355C267.992 73.0484 267.432 71.2315 266.933 69.3927C265.602 64.4331 264.75 59.3175 265.169 54.2168ZM133.898 71.4213C133.421 68.6488 135.913 65.5784 138.898 67.1394C140.052 67.7433 140.436 69.3141 139.774 70.3853L139.707 70.4978C139.637 70.6089 139.561 70.716 139.481 70.8201L139.484 70.832C139.723 71.077 139.804 71.6643 139.846 72.1093L139.886 72.5721C139.964 73.7177 139.672 74.8033 138.881 75.6915C137.336 77.4249 135.254 77.5521 133.092 77.3625L132.694 77.3244C132.606 77.3153 132.498 77.2941 132.38 77.2711C132.123 77.2207 131.821 77.1618 131.596 77.2027C131.544 77.2664 131.4 77.4153 131.371 77.5765C131.239 78.3222 131.333 79.0561 131.525 79.7854C131.632 80.1954 131.751 80.6038 131.869 81.0119C132.384 82.79 132.898 84.5632 132.505 86.4428C132.067 88.5397 130.518 90.3171 128.384 90.9433C126.838 91.3965 125.28 91.2402 123.717 91.0835C123.291 91.0408 122.864 90.998 122.437 90.9675C120.385 90.8208 118.896 91.198 118.717 93.4643C118.653 94.2766 118.838 95.1039 119.022 95.928C119.305 97.194 119.586 98.4519 118.959 99.635C118.83 99.88 118.542 99.934 118.289 99.8997C115.73 99.5535 114.317 96.1807 114.06 93.9892C113.775 91.5629 114.668 88.9127 116.683 87.3792C118.634 85.894 121.102 85.8981 123.45 86.1285L123.516 86.1353C123.73 86.1578 123.958 86.1885 124.193 86.2201C125.811 86.438 127.738 86.6975 127.391 84.5808C127.233 83.6175 126.921 82.7151 126.61 81.8167C126.156 80.5046 125.705 79.2011 125.741 77.7284C125.803 75.2387 127.07 72.8094 129.645 72.0074C130.736 71.6679 131.793 71.7318 132.882 71.8548L133.576 71.9371C133.726 71.9743 133.877 72.0004 134.029 72.0182C133.979 71.8091 133.939 71.6264 133.921 71.5428L133.898 71.4213ZM215.276 85.2041C212.66 84.525 209.906 85.4502 208.107 87.3676C206.595 88.9793 205.812 90.9585 205.112 92.9817L204.712 94.1457C204.131 95.7935 203.463 97.1012 201.384 96.4729C200.593 96.2339 199.834 95.9424 199.081 95.6533C197.297 94.9683 195.55 94.2975 193.512 94.3753C190.878 94.4762 188.301 95.5756 186.467 97.4186C184.592 99.3035 183.696 101.93 184.095 104.518L184.121 104.676C184.328 105.868 186.124 110.123 188.029 108.164C188.878 107.291 188.711 106.324 188.912 105.214C189.104 104.157 189.515 103.12 190.187 102.262C191.379 100.743 193.297 100.15 195.172 100.688C197.644 101.397 199.828 102.859 202.492 102.893C205.294 102.93 207.673 101.52 209.219 99.3055C210.466 97.518 210.911 95.426 211.79 93.4825L211.874 93.2971C212.611 91.6979 213.114 91.1206 214.802 91.8852L215.392 92.1599C217.921 93.3258 220.764 94.393 223.378 92.749C225.807 91.2222 226.842 88.1536 224.8 85.9193C223.673 84.6858 221.064 84.8958 220.331 86.4781C220.203 86.7503 220.084 87.0262 219.966 87.3028C219.743 87.2365 219.525 87.1561 219.319 87.0437C217.949 86.4443 216.759 85.5891 215.276 85.2041ZM70.2421 99.0389C66.2596 95.0622 59.3483 97.2179 56.6243 101.436C56.0593 102.311 56.9926 103.42 57.9846 103.154C58.6454 102.977 59.3819 102.656 60.1549 102.318C62.1553 101.446 64.3997 100.466 66.207 101.612C67.7043 102.562 67.338 104.746 67.0506 106.459C66.9815 106.871 66.917 107.256 66.8841 107.59L66.8596 107.847C66.6446 110.191 66.5958 113.398 68.4768 115.152C69.5596 116.162 71.22 116.026 72.6479 115.881L73.1018 115.836C74.785 115.672 76.4571 115.383 78.0694 114.881C79.5516 114.419 80.956 113.792 82.3488 113.127L82.6967 112.96C82.7655 112.927 82.8521 112.883 82.9526 112.832C83.7537 112.425 85.4375 111.569 85.9846 112.226C86.2817 112.583 85.6226 114.057 85.3915 114.573C85.3729 114.615 85.3571 114.65 85.3447 114.678C84.7202 116.095 83.9262 117.43 83.3535 118.872C82.3442 121.413 82.2598 124.28 83.6772 126.705C85.0505 129.054 88.0261 130.958 90.6633 129.153C92.1731 128.12 92.1689 126.239 90.6633 125.205C89.8666 124.658 89.0633 124.297 88.7342 123.379C88.3046 122.182 88.8574 120.912 89.3926 119.804L90.0332 118.486C91.4526 115.542 92.8706 112.156 90.8877 109.147C88.8401 106.04 84.6784 105.991 81.5302 107.285C79.7334 108.024 78.0939 109.014 76.2216 109.586C74.9262 109.982 73.6258 110.246 72.2989 110.391C72.1103 109.402 72.2122 108.339 72.3119 107.299C72.3685 106.708 72.4244 106.125 72.4259 105.567C72.4328 103.229 71.984 100.778 70.2421 99.0389ZM263.146 124.983C263.559 122.844 266.078 122.449 267.767 123.159C268.666 123.537 269.839 124.604 270.911 124.948L270.968 124.823C271.068 124.028 271.619 123.25 272.458 123.096C276.721 122.313 278.237 127.155 275.442 129.855C273.952 131.294 271.631 131.565 269.675 131.05C269.161 130.916 268.685 130.716 268.225 130.486C267.505 132.712 266.459 134.815 264.689 136.477C261.887 139.107 258.084 139.826 254.417 138.596C253.919 138.429 253.301 138.138 252.622 137.818C250.256 136.703 247.146 135.238 245.763 137.444C244.806 138.972 244.372 140.84 243.842 142.536L243.798 142.675C243.299 144.308 242.931 146.049 241.476 147.109C241.035 147.43 240.31 147.262 239.951 146.918C237.488 144.56 239.008 139 240.133 136.093L240.255 135.785C241.649 132.326 244.585 130.112 248.528 130.474C250.47 130.653 252.2 131.298 253.974 132.051C254.161 132.13 254.354 132.215 254.552 132.303C255.925 132.91 257.551 133.629 258.99 133.118C261.624 132.181 262.405 128.93 262.896 126.329L263.146 124.983ZM139.5 129.636C138.498 127.923 135.133 128.536 135.412 130.711L135.501 131.387C135.615 132.314 135.64 133.184 134.981 134.008C134.181 135.008 132.811 135.31 131.568 135.157C130.47 135.023 129.539 134.532 128.616 134.047C127.324 133.367 126.049 132.696 124.36 133.018C122.008 133.467 120.385 135.335 119.444 137.371C118.449 139.528 118.47 141.865 117.729 144.086C116.875 146.64 115.054 146.522 112.78 145.628L112.29 145.433C112.161 145.381 112.031 145.328 111.901 145.276C109.854 144.444 107.788 143.605 105.508 144C101.482 144.697 98.0154 150.705 101.787 153.606C102.468 154.129 103.658 153.856 103.629 152.866L103.626 152.678C103.607 150.876 104.075 148.55 106.203 148.125C107.685 147.83 109.293 148.59 110.816 149.31C111.612 149.686 112.385 150.052 113.105 150.249C118.533 151.739 121.624 147.774 122.546 143.085L122.58 142.905C122.874 141.264 123.107 138.227 124.875 137.458C125.583 137.151 126.326 137.642 126.986 138.078C127.206 138.223 127.416 138.362 127.613 138.463C128.838 139.094 130.152 139.495 131.538 139.597C136.663 139.976 142.487 134.744 139.5 129.636ZM285.251 130.613C285.261 128.697 282.192 128.694 282.183 130.613C282.069 154.896 270.365 177.341 268.263 201.383C268.096 203.293 271.166 203.282 271.331 201.383C273.435 177.334 285.138 154.935 285.251 130.613ZM152.53 154.285C155.752 150.377 160.467 146.292 165.958 148.683C167.971 149.56 169.485 151.317 169.941 153.423C170.288 155.029 170.038 156.576 169.785 158.139C169.681 158.784 169.576 159.431 169.513 160.085C169.026 165.111 175.205 162.565 178.5 161.206C178.938 161.026 179.325 160.866 179.639 160.748L179.796 160.69C184.09 159.155 190.101 159.716 192.106 164.354C193.11 166.676 192.398 168.954 191.505 171.167L191.296 171.683C190.714 173.155 190.868 173.389 191.486 174.324C191.638 174.556 191.82 174.83 192.025 175.177C192.761 176.418 192.397 178.348 190.987 179.021C187.358 180.752 184.292 177.854 184.274 174.287C184.267 172.857 184.671 171.504 185.279 170.216C185.432 169.891 185.666 169.534 185.91 169.162C186.406 168.404 186.943 167.583 186.924 166.849C186.863 164.453 182.48 165.505 181.278 165.908L181.055 165.984C180.408 166.206 179.769 166.451 179.132 166.696C176.982 167.52 174.847 168.339 172.46 168.284C169.778 168.222 166.913 167.213 165.445 164.903C163.89 162.456 164.369 159.734 164.993 157.103L165.166 156.385C165.753 153.831 165.023 151.956 162.071 151.462C158.948 150.94 156.139 152.654 153.596 154.207C153.484 154.275 153.373 154.343 153.263 154.41L152.835 154.669C152.573 154.826 152.364 154.487 152.53 154.285ZM304.965 162.568C304.969 162.403 304.76 162.276 304.613 162.372C301.2 164.599 298.917 169.248 300.199 173.209C300.822 175.133 302.146 176.82 304.005 177.754C306.316 178.914 308.868 178.472 311.296 177.976L312.328 177.762C313.055 177.613 313.772 177.504 314.512 177.703C314.766 177.771 315.06 177.985 315.302 178.032C315.202 178.196 315.096 178.482 315.042 178.587L314.867 178.931C314.69 179.279 314.518 179.641 314.409 180.007C314.047 181.234 314.136 182.551 314.724 183.696C315.819 185.829 318.115 187.031 320.506 187.235C320.947 187.273 321.597 187.183 322.309 187.084C323.892 186.864 325.782 186.602 326.367 187.614C328.051 190.524 332.846 188.567 331.914 185.344C331.284 183.164 329.496 181.756 327.281 181.167C326.1 180.853 324.879 180.895 323.678 181.024C323.208 181.074 322.74 181.145 322.269 181.193L321.918 181.225C321.95 181.221 321.739 181.214 321.462 181.205C321.144 181.194 320.738 181.18 320.511 181.165L320.602 180.927C320.616 180.893 320.628 180.863 320.639 180.841C321.116 179.85 321.47 178.863 321.441 177.756C321.389 175.76 320.058 174.019 318.309 173.058C316.696 172.171 314.777 171.818 312.944 172.015C312.259 172.089 311.477 172.317 310.665 172.553C309.086 173.012 307.393 173.504 306.085 172.966C304.592 172.35 304.085 170.206 304.062 168.8C304.044 167.684 304.279 166.598 304.514 165.512C304.725 164.539 304.936 163.565 304.965 162.568ZM25.9436 170.027C27.8662 169.137 30.233 168.586 31.8487 170.362C33.2775 171.933 32.9197 174.065 32.46 175.979L31.9494 178.056C31.7003 179.062 31.4486 180.068 31.2184 181.079C31.1532 181.364 31.0761 181.656 30.9982 181.951C31.6398 181.711 32.3089 181.443 32.9932 181.169C38.0022 179.162 43.8294 176.827 45.7069 182.971C46.4521 185.41 45.6056 187.622 44.6289 189.796L44.1039 190.953C43.9612 191.27 43.8515 191.984 43.6888 192.448C43.7655 192.43 43.8411 192.412 43.9132 192.394C43.926 192.332 44.4502 192.001 44.7547 191.808L45.0143 191.641C45.9812 191.044 47.5027 191.511 48.0227 192.467C49.4182 195.029 47.4676 197.975 44.7721 198.676C41.9358 199.413 38.9924 198.18 37.7473 195.584C36.4292 192.835 37.5986 190.323 38.7573 187.833C38.8762 187.578 38.9951 187.322 39.1112 187.067L39.2326 186.797C39.4501 186.309 39.5508 185.827 39.6535 185.337L39.7328 184.967C39.2372 185.327 38.1301 185.471 37.5324 185.676L32.5158 187.402L32.2325 187.501C32.1002 187.549 31.967 187.597 31.833 187.646C30.575 188.105 29.2495 188.588 27.9133 188.303C23.9285 187.451 24.7675 183.423 25.6309 180.656L25.8377 179.996C26.2531 178.676 26.6814 177.358 27.1569 176.058C27.3959 175.405 27.6774 174.768 27.9199 174.117C28.0522 173.8 28.1646 173.476 28.257 173.146C26.7798 173.374 25.3053 174.015 23.8886 174.457C22.0036 175.045 20.1125 175.451 18.1696 175.814C17.4024 175.957 16.9915 175.029 17.6433 174.602C20.2924 172.865 23.0558 171.363 25.9436 170.027ZM127.301 196.773C129.189 195.426 131.581 197.277 131.668 199.206C131.819 202.519 127.839 203.961 125.006 203.517C124.456 203.431 123.916 203.243 123.4 203.063C122.039 202.588 120.842 202.171 120.042 203.835C119.034 205.933 119.183 208.44 118.657 210.664C118.073 213.135 116.78 215.547 114.435 216.831C111.238 218.581 108.232 217.497 105.194 216.402C103.771 215.889 102.341 215.373 100.88 215.145C98.7036 214.806 97.1784 215.814 96.7438 217.944C96.3228 220.008 97.0279 221.931 97.7309 223.848C98.0751 224.787 98.4188 225.724 98.6296 226.676C98.6775 226.89 98.4443 227.097 98.2333 226.972C93.405 224.091 90.5196 216.971 94.9305 212.488C98.1799 209.185 102.204 210.428 106.059 211.619C107.048 211.924 108.026 212.226 108.977 212.447L109.097 212.474C111.439 212.979 112.686 212.059 113.08 209.704C113.497 207.22 113.206 204.748 114.094 202.325C115.046 199.726 116.902 197.277 119.827 196.653C121.527 196.292 123.058 196.686 124.651 197.177L125.257 197.366C125.604 197.473 125.932 197.562 126.283 197.564L126.403 197.437C126.697 197.209 126.997 196.988 127.301 196.773ZM236.212 214.35C233.572 213.005 230.318 213.517 227.94 215.147C225.274 216.975 223.966 219.782 223.076 222.749C222.428 224.91 222.118 227.889 220.257 229.454C218.486 230.942 215.736 229.922 213.542 229.108C213.053 228.926 212.591 228.755 212.174 228.624C209.408 227.756 206.084 227.4 203.385 228.685C200.74 229.943 199.466 232.51 199.192 235.261C198.937 237.827 199.316 241.208 200.825 243.356C200.973 243.567 201.257 243.513 201.351 243.289C202.343 240.919 202.152 238.208 202.957 235.755C203.816 233.137 205.831 232.583 208.389 233.288C211.057 234.022 213.5 235.397 216.244 235.886C219.169 236.407 222.066 235.87 224.372 233.993C226.312 232.415 227.487 230.115 228.281 227.824C229.055 225.591 229.181 222.601 230.829 220.747C231.245 220.279 231.969 219.714 232.642 219.654C233.351 219.59 233.739 219.935 234.193 220.338C234.379 220.503 234.576 220.677 234.811 220.838C236.941 222.297 240.341 222.326 241.645 219.76C242.072 218.92 242.284 217.727 241.645 216.905C240.525 215.463 239.606 215.475 238.128 215.787C238.081 215.748 238.029 215.699 237.97 215.632L237.925 215.579C237.534 215.098 236.775 214.637 236.212 214.35ZM320.172 223.569C321.421 222.479 323.318 222.271 324.715 223.238C325.597 223.848 325.967 224.65 325.84 225.668L325.824 225.778L325.676 226.45C325.579 226.873 325.461 227.348 325.389 227.476C325.193 227.824 324.925 228.137 324.71 228.475C324.116 229.409 323.605 230.389 322.802 231.183C320.788 233.178 317.716 233.189 315.419 231.684C314.957 231.382 314.002 230.303 313.261 229.929C313.373 230.058 313.212 230.266 313.021 230.513C312.898 230.672 312.763 230.846 312.68 231.026C311.702 233.133 311.684 235.455 310.434 237.507C309.051 239.778 306.514 241.251 303.766 241.091C301.594 240.965 299.827 239.906 298.111 238.749L297.055 238.03L296.942 237.953C295.495 236.969 293.852 235.852 292.265 237.259C291.178 238.223 291.405 239.49 291.632 240.754C291.757 241.447 291.881 242.139 291.788 242.779C291.689 243.459 290.906 243.823 290.297 243.881C287.258 244.166 285.643 240.081 285.68 237.74C285.73 234.565 287.871 231.84 290.858 230.685C293.877 229.518 296.93 230.187 299.618 231.806C300.763 232.496 301.812 233.33 302.981 233.984C303.494 234.272 304.012 234.519 304.24 234.394C304.861 234.053 305.048 232.659 305.193 231.971L305.223 231.835C305.581 230.36 305.887 228.947 306.604 227.579C308.116 224.694 311.263 222.444 314.725 223.347C316.054 223.693 317.133 224.47 318.166 225.317L318.234 225.372C318.258 225.39 318.282 225.409 318.308 225.429L318.466 225.548C318.971 224.806 319.752 223.961 320.098 223.637L320.172 223.569ZM42.7342 243.687L42.0483 243.291C39.802 242.005 37.4882 240.818 34.7669 241.414C32.1745 241.981 30.3355 244.024 29.3693 246.326C28.9128 247.413 28.6746 248.51 28.4985 249.669C28.3995 250.317 28.3328 250.972 28.2154 251.618L28.1761 251.818C28.123 252.075 28.0417 252.433 27.9676 252.744C27.2602 252.441 26.5479 251.962 25.9691 251.678L25.5022 251.45C24.4066 250.921 23.2668 250.417 22.0729 250.172C19.4866 249.641 16.6177 250.409 15.1393 252.657C13.8749 254.58 13.9007 256.847 14.3844 259.002L14.4189 259.152C14.6288 260.046 15.7132 263.628 17.2905 263.105C18.8245 262.597 19.0294 260.618 19.1456 259.299L19.1543 259.173C19.1627 259.013 19.1645 258.823 19.1664 258.617C19.1765 257.548 19.1909 256.028 20.1637 255.712C21.2186 255.369 22.9828 256.416 24.3521 257.229C24.8643 257.533 25.3212 257.804 25.6649 257.957C27.9223 258.963 30.4023 259.26 32.2393 257.303C33.8864 255.548 34.0254 252.979 34.4517 250.753L34.5617 250.192C34.7879 249.061 35.2254 247.254 36.5149 247.3C37.5687 247.338 38.7256 248.398 39.5941 248.901C40.5527 249.456 41.5481 249.919 42.5884 250.314C45.0162 251.235 47.7156 251.529 50.2984 251.257C51.7948 251.1 52.7691 250.406 53.2981 249.041C53.4772 248.64 53.6138 248.226 53.7082 247.798C54.5467 244.741 49.965 242.558 48.2757 245.293C46.3266 245.222 44.5122 244.712 42.7342 243.687Z" transform="translate(11.8921 -23.08319)" id="ðŸ–-Ink" fill="#000000" fill-rule="evenodd" stroke="none" />
  </g>
</svg>