<?xml version="1.0" encoding="utf-8"?>
<svg width="314px" height="273px" viewBox="0 0 314 273" version="1.1" xmlns:xlink="http://www.w3.org/1999/xlink" xmlns="http://www.w3.org/2000/svg">
  <desc>Created with Lunacy</desc>
  <defs>
    <rect width="313.783173" height="272.9061" id="artboard_1" />
    <clipPath id="clip_1">
      <use xlink:href="#artboard_1" clip-rule="evenodd" />
    </clipPath>
  </defs>
  <g id="body/Gaming" clip-path="url(#clip_1)">
    <use xlink:href="#artboard_1" stroke="none" fill="#FFFFFF" />
    <path d="M281.234 162.37C281.234 159.358 276.938 154.01 276.93 151.281C280.542 150.655 283.562 145.905 282.762 142.931C281.352 141.885 277.657 139.826 276.129 138.865C266.817 139.139 270.356 126.566 269.302 120.176C268.241 113.923 267.453 107.385 265.901 101.097C263.143 96.0656 261.848 90.4251 259.212 85.4189C258.035 83.7599 256.132 82.239 255.563 80.3116C249.796 74.1982 241.857 70.5338 235.323 65.3561C237.859 64.5683 237.69 61.2491 237.526 59.1176C238.116 56.3368 237.486 52.8489 234.873 51.2822C233.989 48.4899 230.13 47.5152 227.873 49.2941C226.39 42.8445 220.59 38.9315 214.513 36.5382C214.519 36.5192 214.524 36.5006 214.53 36.4816C208.402 34.1212 201.057 32.9444 194.942 34.2713C198.17 -0.632671 170.626 -1.91393 156.648 1.01931C149.498 2.51966 138.77 7.19065 136.332 13.6842C134.956 17.3502 131.008 29.1734 130.446 32.9444C119.772 27.0324 107.397 19.2368 98.1383 31.1389C96.2843 33.2131 94.2329 34.7537 91.4587 35.4663C82.7971 37.6477 71.3006 37.7207 66.3775 46.2906C63.4349 51.5998 66.0814 55.0981 65.2908 60.4091C26.3007 86.9845 -6.28245 184.886 1.03353 230.432C2.79348 246.731 11.3861 275.582 32.5948 271.985C43.4122 283.468 224.978 283.468 243.701 271.985C259.112 275.897 274.771 269.841 281.234 255.515C289.441 235.871 280.744 214.656 279.202 194.505C278.266 189.417 276.873 185.379 276.129 180.17C275.818 178 276.889 174.389 276.129 172.388C276.487 171.086 281.234 165.383 281.234 162.37Z" transform="translate(11.89397 -16.7541)" id="âœ‹-Skin" fill="#D08B5B" stroke="none" />
    <path d="M125.636 4.77044L124.996 4.50449C116.88 1.15516 111.365 -0.302744 105.762 0.0519936C102.603 0.251507 99.6066 1.44814 97.6751 3.48653C97.0357 4.16152 96.5833 4.77874 95.9461 5.82755L95.7587 6.13938L95.5758 6.44919L95.1951 7.10454C94.6394 8.06304 94.2949 8.62122 93.9346 9.10992L93.831 9.24795L93.7205 9.39006L93.6111 9.52619C92.1351 11.3344 90.2211 12.2081 87.6682 12.2874L86.3132 12.3273L85.9975 12.3377L85.7567 12.3466C84.0144 12.4139 82.7776 12.5374 81.4635 12.8141C76.3402 13.8921 72.0191 15.508 68.6284 17.8652L68.5649 17.9088C67.0186 18.9559 66.7836 18.1021 65.1676 21.4222L64.9641 21.847C63.4038 25.1513 64.556 29.2739 64.9382 30.6414C64.9935 30.8391 65.0326 30.9792 65.0452 31.0509L65.0493 31.0827L65.1501 32.8092Q58.1079 38.9947 51.7463 45.0052C46.9737 49.5147 42.8448 54.7415 38.2008 61.8245L37.6921 62.6046L37.1878 63.3859L36.6873 64.169L36.1384 65.0357L35.5922 65.9053L35.0602 66.7585L34.5716 67.5483C30.0258 74.9327 25.8793 82.679 22.1175 90.7785C14.5921 106.981 8.88866 124.116 5.12497 141.744C1.24452 159.918 -0.51274 177.361 0.129646 193.888C0.484572 203.025 1.67346 211.103 3.9429 218.56C5.16245 222.568 6.6457 226.293 8.43203 229.756C8.87479 230.613 9.29303 231.359 9.88011 232.334L10.1244 232.737L10.5652 233.453L12.0053 235.759C15.9555 242.028 23.2439 245.751 29.5043 244.984C35.3403 244.268 26.8049 246.198 26.8049 246.198L31.0643 248.182L31.7535 248.481C55.841 258.245 211.962 258.072 238.892 248.089L239.509 245.999L239.495 245.857L239.458 245.453C239.406 244.839 239.213 239.967 239.213 239.967C239.113 236.587 240.179 237.434 240.218 239.601L240.237 240.617L241.281 240.695L241.365 240.703C241.422 240.711 241.481 240.721 241.542 240.735C242.033 240.847 242.441 241.11 243.364 241.869L243.596 242.059C244.296 242.626 244.679 242.893 245.218 243.154C248.173 244.581 251.839 244.765 255.535 243.918C262.547 242.306 268.769 237.631 273.032 231.19C277.504 224.44 279.566 216.25 279.51 207.074C279.447 198.539 278.189 190.019 275.706 179.7L275.567 179.126L275.513 178.902L275.434 178.557C275.001 176.638 274.583 174.108 274.161 170.962L273.997 169.713L273.847 168.52C273.832 168.401 273.817 168.283 273.803 168.163L273.626 166.689L273.435 165.037L272.739 158.815C272.676 158.269 272.62 157.806 272.57 157.407L272.505 156.911L272.445 156.483L272.392 156.135L272.341 155.838L272.309 155.666L272.277 155.516C272.242 155.365 272.207 155.239 272.163 155.126C271.992 154.683 271.811 154.42 271.203 154.328L270.994 154.297L270.58 154.382L270.217 154.597L270.058 154.697C268.211 155.878 266.75 157.663 265.233 160.247C265.231 160.25 262.882 164.544 262.33 165.28L262.042 165.664L262.081 165.879L260.758 166.936L260.622 167.041C259.76 167.696 258.787 168.107 257.628 168.276C255.803 168.544 254.069 167.972 251.439 166.448L251.083 166.239L250.794 166.067L249.94 165.552L249.057 165.025L248.602 164.758L248.387 164.634C246.539 163.574 245.15 162.952 243.573 162.571C242.398 162.286 241.419 162.159 239.513 162.001L238.171 161.891L237.68 161.847L237.36 161.815L236.886 161.761L236.268 161.679L235.415 161.549L234.832 161.427L234.626 161.383C231.967 160.802 230.018 159.787 228.813 158.192C227.37 156.28 227.212 153.928 228.419 152.083L228.84 151.44L228.377 150.825L228.326 150.754C227.579 149.693 227.996 148.625 229.492 147.548L230.345 146.95L231.233 146.593L231.384 146.533C231.58 146.457 231.761 146.394 231.929 146.343C234.089 145.678 236.227 145.146 238.344 144.751L247.084 143.124L237.853 142.517L237.64 142.5L237.315 142.471L237.007 142.439C233.321 142.024 231.758 140.795 232.238 138.127C232.545 136.417 233.857 135.031 236.073 133.816L236.433 133.623L236.517 133.58L236.601 133.54L239.862 132.018L236.294 131.432L235.957 131.375C235.608 131.314 235.256 131.248 234.853 131.167L232.638 130.711C232.126 130.61 231.647 130.521 231.143 130.435L230.8 130.378C229.348 130.141 227.897 130.005 226.453 129.97L226.472 129.921L225.499 129.954L225.221 129.95L225.218 129.964L224.742 129.98L224.315 129.997C223.178 130.052 222.041 130.175 220.905 130.364C219.468 130.609 218.026 130.968 216.554 131.439L215.857 131.663L215.671 131.724L215.485 131.786C215.181 131.89 214.907 131.99 214.641 132.097L213.402 132.594L214.096 133.707L214.153 133.801C215.872 136.692 213.878 139.696 209.996 140.675C209.413 140.822 208.789 140.942 208.079 141.049L205.955 141.353L207.424 143.488L207.529 143.581L207.606 143.651C209.345 145.289 208.542 148.422 206.145 149.988C205.366 150.498 204.439 150.897 203.347 151.21L201.98 151.601L202.662 152.816L202.68 152.851C202.703 152.907 202.698 152.954 202.664 153.012C200.87 156.118 197.887 159.111 193.762 162.289C189.727 165.398 185.999 167.5 182.292 168.519C180.013 169.142 177.503 169.283 174.286 169.07L173.864 169.041C173.48 169.013 173.097 168.981 172.671 168.942L172.228 168.901L171.432 168.821L169.199 168.587L168.266 168.491L167.835 168.449L165.736 168.263L164.536 168.152C163.126 168.018 161.682 167.87 160.185 167.707L158.747 167.549L158.299 167.502L157.972 167.471L153.98 167.11L155.566 169.134L155.673 169.273C155.958 169.65 156.239 170.077 156.543 170.583L156.755 170.941L157.168 171.653L157.212 171.731C158.009 173.195 157.198 175.08 155.567 175.516C155.406 175.559 155.242 175.583 155.08 175.588L154.391 175.607L154.083 176.206L154.039 176.288C153.567 177.12 152.607 177.593 151.889 177.353C151.368 177.181 150.848 176.941 150.327 176.635L149.605 176.212L148.463 175.313L147.469 174.318C146.629 173.465 145.853 172.546 144.848 171.247L144.423 170.694C143.854 169.948 143.4 169.816 142.99 169.698C142.078 169.434 141.385 169.233 140.135 162.473C138.323 152.673 140.319 140.723 140.319 140.723C140.342 140.577 140.364 140.446 140.383 140.333L140.419 140.131L140.927 139.66C142.971 137.774 144.977 136.103 148.271 133.514L149.368 132.655L152.854 129.945C155.667 127.753 157.477 126.303 159.154 124.87L159.666 124.429L160.289 123.884L160.894 123.347C163.777 120.771 166.607 117.993 169.435 114.979L169.798 114.587C169.839 114.543 169.879 114.498 169.92 114.453L170.302 114.029L170.763 113.507L172.063 112.02C173.846 109.986 174.89 108.902 176.112 107.901L176.324 107.73L176.518 107.576C177.774 106.595 179.109 105.863 180.586 105.353C180.767 105.29 180.939 105.234 181.146 105.172L181.489 105.071L182.455 104.801C183.81 104.418 184.578 104.139 185.388 103.671C186.658 102.939 187.303 102.097 188.153 100.34L188.301 100.03L188.636 99.3079C189.343 97.8103 189.801 97.1687 190.609 96.6674C191.873 95.884 193.37 95.7363 195.734 96.0093L196.048 96.0471L196.359 96.0869L197.611 96.2563L198.102 96.3197L198.309 96.3453C200.622 96.6255 202.032 96.5831 203.541 95.9767C204.112 95.7479 204.563 95.5122 205.246 95.0946L205.532 94.9175L206.319 94.4202C206.936 94.0344 207.322 93.8145 207.711 93.6397L207.858 93.576L208 93.5179C210.071 92.6914 212.325 93.1364 213.056 94.6573C213.681 95.9554 213.171 97.2985 211.654 98.7647L211.496 98.9139L211.343 99.053L209.457 100.715L211.754 101.118L211.895 101.144C214.094 101.56 215.335 102.496 215.445 103.905L215.528 104.973L217.267 104.916L223.102 104.717L229.753 104.444L232.361 104.35C235.003 104.266 237.247 104.233 239.383 104.258L240.021 104.267L241.485 104.292L241.165 102.906L241.124 102.719C241.037 102.277 240.991 101.803 240.985 101.291L240.985 101.142L240.987 100.989C240.992 100.783 241.003 100.564 241.02 100.326L241.021 100.32L242.44 100.172L242.89 100.129L243.19 100.103L243.569 100.073C246.365 99.8732 248.166 100.169 249.418 101.224C250.223 101.905 250.781 103.493 250.476 104.301L250.074 105.371L251.184 105.741L251.449 105.831C252.501 106.2 253.459 106.648 254.314 107.178L254.777 107.466L255.299 107.296L255.476 107.24C257.195 106.723 259.03 106.781 260.849 107.396L261.086 107.478L261.2 107.519L261.356 107.577C263.014 108.205 264.344 109.048 264.824 109.899L267.909 115.364L266.971 109.199L266.787 107.997C264.856 95.5746 262.291 83.2714 259.099 71.1259L259.079 71.0515L258.838 70.482C256.706 65.5096 254.066 60.841 250.951 56.5724C248.078 52.6353 244.646 48.947 240.421 45.1219L240.293 45.0068L239.645 44.4248C237.3 42.3328 235.058 40.4779 231.295 37.4882L228.606 35.3613L229.578 35.9602L229.088 33.4326L229.067 33.3098C228.981 32.7698 229.001 32.1273 229.12 31.397L229.164 31.1381L229.346 30.1175L229.393 29.8398L229.42 29.6699C229.72 27.7055 229.556 26.3477 228.584 24.8975C227.704 23.5838 226.676 22.9176 224.44 21.8773L223.732 21.5451C223.532 21.4499 223.367 21.3686 223.217 21.2919L223.044 21.2015L222.881 21.1121L222.748 21.0373C221.061 20.0681 220.059 18.8694 218.75 16.4844C217.611 14.4118 215.787 12.8218 213.317 11.5411C211.501 10.6 209.729 9.96506 206.598 9.0206L205.829 8.78967L205.561 8.71199C200.941 7.38555 196.867 7.10662 193.187 8.17048L192.167 8.46542L192.391 9.47553L192.498 9.94517C192.737 10.9025 194.152 14.2077 196.743 19.8607L198.154 22.9217L175.805 53.6927C173.808 55.9275 172.419 57.4091 171.022 58.7487L170.751 59.0064L170.354 59.3772L170.113 59.599C167.972 61.5557 165.633 61.2661 163.254 58.9462C162.683 58.3901 157.295 52.7944 147.088 42.1591L122.891 16.9244C122.683 16.6944 122.48 16.4724 122.281 16.258L122.257 16.2329L122.719 15.4908L123.021 15.0024C124.619 12.387 126.077 9.60912 127.374 6.7215L127.835 5.69546L125.636 4.77044ZM198.065 111.552L198.521 109.372L196.448 110.319L194.401 111.231L193.569 111.606L193.303 111.729L193.265 111.748L193.124 111.815L186.205 115.189L193.773 113.943L194.576 113.813C195.381 113.685 196.194 113.562 197.014 113.444L198.028 113.298L197.996 112.304L197.995 112.157C197.998 111.96 198.022 111.758 198.065 111.552Z" transform="translate(14.73209 9.283617)" id="ðŸ‘•-Top" fill="#78E185" fill-rule="evenodd" stroke="none" />
    <path d="M141.773 2.32968C141.801 2.45068 141.821 2.57019 141.838 2.6897C141.967 3.19977 142.015 3.69011 141.999 4.18268C142.006 4.36028 141.993 4.53824 141.959 4.71435C141.89 5.29404 141.746 5.889 141.552 6.53943C141.138 7.92332 140.664 9.29046 140.134 10.6371C139.087 13.3003 137.851 15.8413 136.322 18.277C133.562 22.6766 130.052 26.3287 125.915 29.4855C126.7 30.1143 127.467 30.7685 128.236 31.4107C131.954 34.5158 135.571 37.7617 139.074 41.0931C145.296 47.0103 151.392 53.0373 157.346 59.2088C160.282 62.2525 163.164 65.336 166.03 68.4403L166.124 68.5448L166.226 68.6623C166.361 68.8202 166.513 69.007 166.679 69.2113C167.773 70.5524 169.479 72.6455 170.796 72.2484C171.563 72.0168 172.37 70.9069 172.892 70.3775L173.855 69.4035C174.175 69.0779 174.492 68.7505 174.805 68.4184C180.404 62.4643 185.702 56.2817 190.676 49.8194C193.104 46.6663 195.45 43.454 197.711 40.1858C198.874 38.5056 200.015 36.8104 201.132 35.1011C202.213 33.448 203.088 31.6714 204.681 30.4375C205.85 29.5321 207.47 30.3623 207.175 31.8467C206.711 34.1845 205.044 36.1615 203.731 38.1373C202.413 40.1229 201.063 42.0891 199.684 44.0344C197.028 47.7799 194.257 51.4464 191.387 55.0393C188.916 58.1334 186.338 61.148 183.69 64.1016L182.966 64.9056C180.118 68.0572 177.322 71.4028 174.175 74.2794C171.356 76.8554 168.278 76.1048 165.711 73.6014C162.464 70.4363 159.449 67.0133 156.325 63.7328C150.081 57.1771 143.773 50.6713 137.399 44.2347L135.303 42.1163C132.86 39.6413 130.427 37.1506 128.058 34.6145L127.752 34.2838C125.05 31.3334 122.302 27.6373 118.46 26.1373C118.182 26.0289 118.284 25.6462 118.584 25.6998C121.044 26.141 123.097 27.3436 125.007 28.7803C126.724 26.0226 128.256 23.1156 129.592 20.1423L128.735 19.7811C122.603 17.2097 115.693 14.617 109.11 15.0338C106.457 15.2013 103.626 16.1768 101.795 18.1098C100.136 19.8608 99.3078 22.222 97.7857 24.087C96.0422 26.2229 93.7683 27.1842 90.9776 27.271L89.6206 27.3109C88.0598 27.3601 86.5631 27.4396 84.98 27.7729C80.6906 28.6754 76.1684 30.1397 72.571 32.6405C71.266 33.5475 69.9188 34.7947 69.2878 36.1689C68.6621 37.5305 68.4822 39.1236 68.4212 40.5931C68.4101 40.8626 68.4345 41.1647 68.4594 41.4731C68.5007 41.9841 68.5434 42.5127 68.4284 42.9401C68.4493 42.8627 68.4588 42.9044 68.4615 42.986C69.0365 43.4261 69.4282 44.1577 69.4708 44.8867C73.0566 43.0727 76.7687 41.483 80.5529 40.0499C84.7664 38.4546 89.1106 37.176 93.4556 35.9653C97.7082 34.7809 102.159 34.291 106.495 33.4466C107.047 33.339 107.238 34.0624 106.724 34.2545C102.168 35.953 97.7588 37.9664 93.1645 39.5644C88.5724 41.162 84.0145 42.891 79.5556 44.8129C70.9369 48.529 62.6117 53.2574 55.8216 59.6727C49.1899 65.9388 44.0747 73.5507 39.3173 81.204C34.5261 88.9113 30.2502 96.8993 26.4391 105.105C18.8999 121.337 13.2464 138.404 9.52435 155.838C5.90204 172.803 3.87817 190.373 4.55215 207.713C4.87208 215.949 5.90856 224.19 8.31909 232.111C9.47065 235.895 10.9122 239.593 12.7335 243.123C14.6542 246.844 17.242 250.159 18.9958 253.944C19.14 254.256 19.1952 254.555 19.1872 254.832C26.6674 261.122 38.3755 256.884 46.471 253.128C65.0985 244.483 83.3808 235.023 100.758 224.166C117.908 213.45 134.162 201.492 150.031 189.079C148.803 187.85 147.721 186.473 146.77 185.226C144.806 182.649 143.33 179.73 142.313 176.684C141.124 173.118 140.755 169.301 141.093 165.575L141.189 164.521C141.512 161.002 141.886 157.431 142.681 153.992C142.689 153.947 142.723 153.928 142.762 153.928C142.8 153.928 142.839 153.951 142.854 153.992C144.998 160.653 145.171 167.812 147.579 174.387C148.55 177.031 150.054 179.585 151.857 181.778C152.636 182.727 153.549 183.55 154.48 184.354C154.542 183.944 154.626 183.539 154.753 183.141L154.853 182.825C154.978 182.442 155.132 182.017 155.347 181.64C155.044 181.555 154.749 181.461 154.458 181.357C154.227 181.275 154.177 180.914 154.458 180.855C155.221 180.683 156.007 180.598 156.809 180.56C156.936 180.542 157.058 180.538 157.181 180.546C158.158 180.516 159.146 180.55 160.116 180.584L160.117 180.584L160.118 180.584C160.637 180.602 161.15 180.62 161.654 180.627C164.159 180.665 166.656 180.709 169.157 180.817C170.359 180.868 171.6 180.962 172.859 181.057C176.615 181.341 180.532 181.637 184.06 180.828C188.341 179.846 192.561 177.075 195.993 174.469C198.993 172.191 201.307 169.484 203.796 166.785C203.617 166.812 203.44 166.838 203.263 166.862L201.658 167.075C199.631 167.338 197.226 167.544 195.618 166.599C195.004 166.238 195.18 165.418 195.806 165.195C196.882 164.812 198.128 164.888 199.352 164.963C199.995 165.002 200.631 165.041 201.233 165.013C202.607 164.949 203.996 164.808 205.35 164.532C205.795 164.443 206.235 164.339 206.673 164.216C209.88 163.319 213.647 160.161 211.1 156.714C211.004 156.583 211.111 156.464 211.241 156.442C211.299 156.431 211.361 156.442 211.411 156.483C214.31 158.813 212.803 162.991 210.06 164.782C209.117 165.4 208.05 165.832 206.945 166.148C207.156 166.524 207.194 166.986 206.941 167.425C204.793 171.141 201.157 174.406 197.75 177.031C194.252 179.726 190.217 182.269 185.878 183.461C181.82 184.57 177.437 184.105 173.216 183.656C172.227 183.551 171.246 183.447 170.281 183.364C167.527 183.129 164.78 182.85 162.03 182.541C161.293 182.459 160.53 182.396 159.755 182.325C160.484 183.256 161.063 184.328 161.443 184.972C162.678 187.064 161.539 189.82 159.145 190.46C158.896 190.527 158.639 190.565 158.386 190.572C157.741 191.826 156.207 192.75 154.787 192.277C154.17 192.072 153.575 191.793 153.004 191.458C144.077 199.068 134.679 206.209 125.013 212.903C107.087 225.316 88.2981 236.653 68.8156 246.62C64.4273 248.865 60.0054 251.05 55.546 253.15L51.7078 254.945C47.4594 256.93 43.1114 258.903 38.5996 260.135C37.72 260.375 36.799 260.569 35.8553 260.717C35.8431 260.799 35.84 260.878 35.8455 260.953C34.9972 261.063 34.2569 261.08 33.6248 261.003L33.4808 260.984C27.9505 261.359 22.035 260.049 18.4771 256.128C17.8841 256.532 17.0195 256.577 16.2565 255.996C12.4194 253.073 10.132 248.624 8.1246 244.377C6.08923 240.068 4.49385 235.577 3.32157 230.977C0.980089 221.789 0.0513977 212.311 0.00245616 202.86C-0.174542 166.441 9.22285 129.702 25.5457 97.0054C29.6855 88.7128 34.2488 80.5752 39.3146 72.78C44.3666 65.0061 50.2329 57.7814 57.7457 52.1118C59.9061 50.4818 62.1536 48.9914 64.4717 47.6183C62.9158 46.87 62.2979 44.9663 62.1889 43.2753C61.9473 39.5197 62.4083 35.1931 64.6739 32.0243C67.852 27.5789 73.5411 24.8379 78.8164 23.505C81.5702 22.8095 84.4188 22.4041 87.2594 22.2671C87.9047 22.2358 88.5611 22.2636 89.2173 22.2915C90.0504 22.3268 90.8832 22.3622 91.6926 22.2764C92.9692 22.1416 93.7587 21.4022 94.4929 20.4301C96.3737 17.9382 97.5981 15.3245 100.296 13.498C103.064 11.6241 106.651 10.907 109.986 11.1014C113.87 11.3281 117.414 12.8137 120.836 14.5207C123.924 16.0614 126.921 17.768 129.842 19.5887C130.378 18.3708 130.882 17.1437 131.351 15.9124C132.261 13.5252 133.053 11.0619 133.695 8.59423C134.346 6.09191 134.251 2.78725 136.217 0.905575C137.927 -0.73 141.219 -0.0877583 141.773 2.32968ZM195.946 14.431C196.008 13.2103 196.069 11.9758 195.795 10.8344C195.756 10.6762 195.55 10.6788 195.466 10.7927C194.589 11.9784 194.266 13.5659 194.048 15.0784L193.999 15.4259L193.8 16.9221C193.539 18.9595 193.44 21.0095 193.566 23.0608C193.698 25.1894 194.006 27.3205 194.488 29.401C194.987 31.5522 195.359 33.8103 197.221 35.1968C198.536 36.1763 200.12 34.8062 200.225 33.5243C200.328 32.2536 199.666 30.9573 199.031 29.7149C198.741 29.1463 198.456 28.589 198.253 28.0506C197.646 26.4396 197.16 24.7858 196.788 23.1081C200.747 21.9636 205.03 22.601 208.99 23.7921L209.529 23.9544C213.814 25.2471 218.8 26.8584 221.006 30.8768C222.159 32.9759 223.283 34.6297 225.435 35.8658C227.303 36.9385 229.648 37.5174 230.891 39.3738C231.886 40.8577 231.75 42.2722 231.485 43.7935L231.3 44.8256L231.256 45.0899C231.12 45.922 231.084 46.7538 231.23 47.5062C228.694 45.9444 226.102 44.4689 223.455 43.0716C224.199 42.2395 224.88 41.3731 225.417 40.4646C225.795 39.8254 225.812 39.0085 225.417 38.37C223.759 35.6897 221.355 38.6246 219.967 40.3185C219.775 40.5538 219.602 40.7651 219.453 40.9341L218.989 41.4571C217.123 43.5407 215.146 45.5285 213.104 47.45C208.726 51.5715 204.065 55.4123 199.511 59.348C190.851 66.8327 181.317 74.8988 176.719 85.5087C176.626 85.7235 176.96 85.8177 177.08 85.6561C183.785 76.6964 191.843 69.4091 200.756 62.5462C205.177 59.1421 209.63 55.7917 213.861 52.1616C215.885 50.4248 217.866 48.6388 219.765 46.7724L220.16 46.3866C221.092 45.4815 222.089 44.541 223.014 43.5526C233.501 52.3355 245.178 59.9754 253.284 71.0852C256.502 75.4942 259.156 80.2713 261.256 85.2693C264.546 97.7842 267.163 110.452 269.105 123.229C268.305 121.812 266.218 120.818 264.746 120.293L264.5 120.208C262.429 119.508 260.265 119.434 258.205 120.104C257.166 119.46 256.026 118.95 254.83 118.552C255.344 117.185 254.496 115.137 253.445 114.247C251.488 112.599 248.617 112.649 246.049 112.885L245.59 112.929L244.219 113.071C243.605 113.134 243.191 113.503 243.145 114.114C243.119 114.471 243.103 114.821 243.107 115.171C243.114 115.8 243.176 116.418 243.314 117.018C238.913 116.942 234.499 117.129 230.092 117.315C228.422 117.386 226.752 117.456 225.085 117.513C223.344 117.572 221.606 117.632 219.865 117.688C219.688 115.417 217.605 114.303 215.231 113.886C216.973 112.379 218.464 110.323 217.371 108.052C216.228 105.673 213.067 105.461 210.838 106.351C209.239 106.984 207.961 108.175 206.374 108.812C204.77 109.456 203.033 109.273 201.352 109.058L201.043 109.017C200.853 108.992 200.662 108.966 200.47 108.94C198.036 108.606 195.43 108.249 193.262 109.593C190.535 111.284 190.8 115.007 188.072 116.578C186.68 117.382 184.984 117.643 183.472 118.168C181.854 118.727 180.408 119.527 179.069 120.573C176.315 122.725 174.22 125.566 171.857 128.094C169.153 130.975 166.341 133.753 163.387 136.393C156.725 142.346 149.137 147.305 142.65 153.422C142.516 153.549 142.627 153.735 142.777 153.75C142.811 153.75 142.85 153.742 142.888 153.724C148.441 150.793 153.561 147.047 158.521 143.243L159.479 142.506C164.865 138.351 170.093 133.931 174.662 128.928C176.733 126.656 178.635 124.095 181.167 122.271C183.53 120.566 186.388 120.32 188.962 119.08C191.655 117.781 192.123 115.629 193.458 113.268C194.703 111.061 196.965 111.1 199.195 111.384L199.425 111.414L200.812 111.607C203.896 112.013 206.508 111.932 209.208 110.297C209.447 110.153 209.689 109.996 209.934 109.836C211.025 109.128 212.19 108.37 213.524 108.462C216.602 108.67 214.046 111.527 212.758 112.542L212.678 112.604L212.565 112.688C212.181 112.963 212.008 113.332 211.993 113.708C211.261 113.741 210.574 113.831 209.979 113.949C208.062 114.344 206.401 115.469 206.189 117.483C206.132 118.045 206.247 118.712 206.565 119.192C205.456 119.635 204.252 120.286 203.19 121.098C200.831 121.802 198.449 123.533 196.369 124.71C194.854 125.566 193.009 126.452 191.482 127.557C189.016 127.979 186.557 128.515 184.347 129.423C184.14 129.512 184.263 129.81 184.459 129.814C186.17 129.866 187.93 129.684 189.683 129.445C189.703 129.457 189.725 129.464 189.752 129.46C190.121 129.427 190.489 129.364 190.865 129.274C192.069 129.095 193.266 128.909 194.436 128.767C196.531 128.515 198.633 128.276 200.731 128.049C202.1 127.9 203.469 127.755 204.839 127.614C211.548 126.914 218.281 126.459 225.02 126.21C225.341 126.198 225.72 126.17 226.136 126.14C228.918 125.938 233.364 125.614 233.164 128.973C233.008 131.526 230.347 133.037 228.118 133.784L227.893 133.857C222.42 135.6 216.217 135.585 210.528 136.233C207.164 136.62 203.804 137.055 200.478 137.677C197.014 138.328 193.308 139.044 190.151 140.626C189.139 141.132 189.487 142.383 190.324 142.756C190.312 142.778 190.301 142.804 190.293 142.83C190.235 142.994 190.358 143.198 190.531 143.239C190.577 143.251 190.623 143.258 190.669 143.266C188.701 143.672 186.756 144.185 184.854 144.796C184.654 144.859 184.738 145.135 184.942 145.101C189.821 144.237 194.797 143.846 199.757 144.074C202.277 144.189 204.793 144.364 207.29 144.747C209.573 145.098 212.212 145.421 214.218 146.605C214.671 146.869 215.089 147.212 215.434 147.599C215.361 148.001 215.434 148.419 215.722 148.843C215.818 148.988 216.113 148.995 216.147 148.787C216.152 148.761 216.159 148.731 216.167 148.705C216.627 149.755 216.524 150.917 215.373 151.81C214.134 152.772 212.292 153.013 210.728 153.144L210.409 153.169C205.426 153.568 200.39 153.593 195.422 154.137C194.21 154.268 193.657 155.354 193.822 156.248C193.811 156.241 193.796 156.233 193.784 156.222C193.803 156.363 193.857 156.498 193.937 156.624C193.937 156.631 193.941 156.636 193.949 156.643C194.179 157.12 194.666 157.462 195.422 157.429C198.863 157.287 202.311 156.851 205.74 156.546C207.532 156.386 209.377 156.312 211.184 156.069C211.986 155.958 212.78 155.82 213.558 155.623C217.647 154.592 220.835 150.98 218.353 146.996C218.745 146.839 219.14 146.704 219.491 146.59L220.187 146.367C221.56 145.927 222.952 145.574 224.372 145.332C225.6 145.127 226.827 145.004 228.054 144.963C227.199 147.149 227.287 150.056 227.564 152C227.97 154.833 229.501 158.906 232.247 160.4C230.46 161.621 229.274 163.43 230.72 165.351C229.225 167.637 229.474 170.489 231.158 172.719C232.746 174.823 235.281 175.851 237.863 176.387C237.875 179.604 238.55 182.962 238.952 186.082C239.455 189.958 239.946 193.833 240.38 197.717C241.216 205.244 241.883 212.78 242.098 220.35C242.286 226.927 242.007 233.47 241.664 240.029L241.515 242.841C241.312 246.661 241.22 250.492 241.35 254.316C241.373 254.93 241.388 255.559 241.412 256.2L241.435 256.859C241.523 259.176 241.702 261.582 242.311 263.781L242.482 263.928C243.51 264.797 244.653 265.433 245.909 265.834C246.205 265.108 245.97 264.26 245.45 263.698C245.419 262.719 245.345 261.738 245.251 260.756C246.828 261.59 248.585 262.142 249.839 262.391C253.498 263.124 257.281 262.853 260.848 261.806C276.257 257.287 284.739 241.88 285.951 227.155C286.351 222.318 286.083 217.472 285.408 212.667C285.193 206.972 284.063 201.38 282.852 195.81L282.365 193.583L282.001 191.913C280.302 184.056 279.261 176.113 278.293 168.146C278.211 167.474 277.839 166.993 277.357 166.702C277.528 166.351 277.66 165.958 277.742 165.511C277.966 164.301 277.858 163.122 277.754 161.976C277.566 159.901 277.388 157.939 279.207 156.118C279.278 156.047 279.349 155.977 279.419 155.906C281.544 153.788 283.521 151.816 282.215 148.627C281.776 147.554 281.049 146.563 280.321 145.57C279.083 143.883 277.842 142.191 278.007 140.086C278.026 139.822 277.696 139.687 277.489 139.795C277.439 139.822 277.401 139.863 277.37 139.918C276.207 142.133 277.539 144.192 278.84 146.202C280.174 148.263 281.475 150.273 280.021 152.35C278.509 154.506 275.989 155.485 275.406 158.266C275.22 159.16 275.34 160.28 275.463 161.431C275.671 163.36 275.887 165.379 274.689 166.573C274.243 167.012 271.397 168.478 270.991 168.818C270.085 169.562 269.345 170.478 268.689 171.431C267.404 173.3 266.525 175.4 265.306 177.306C265.225 177.433 265.141 177.56 265.056 177.686C263.506 179.987 261.393 181.23 258.485 180.739C255.233 180.191 252.574 177.883 249.67 176.498C246.218 174.853 242.459 174.916 238.769 174.186C238.611 174.156 238.454 174.123 238.296 174.09C236.617 173.717 234.863 173.122 233.647 171.907C232.37 170.634 231.63 168.478 232.619 166.87C233.691 167.353 234.926 167.488 236.135 167.551L236.536 167.57L238.804 167.657C241.37 167.748 243.937 167.799 246.506 167.809C249.498 167.816 252.493 167.771 255.485 167.667L255.806 167.657C258.592 167.572 261.616 167.63 264.312 166.967C265.333 166.717 265.018 165.377 264.078 165.288C262.494 165.14 260.827 165.265 259.195 165.388C258.574 165.434 257.958 165.481 257.354 165.511C255.11 165.623 252.866 165.701 250.621 165.749C246.129 165.842 241.637 165.813 237.149 165.649C236.029 165.608 233.728 165.452 232.646 164.622C232.032 164.149 231.814 163.452 232.435 162.436C233.371 160.906 236.083 160.388 237.671 159.867L238.209 159.693C240.898 158.83 243.61 158.064 246.375 157.551L247.152 157.55C254.251 157.51 261.245 156.654 268.164 155.094C269.253 154.848 268.785 153.274 267.703 153.478C261.838 154.592 255.861 155.224 249.889 155.429C247.039 155.526 244.189 155.507 241.342 155.373L241.235 155.369C241.055 155.362 240.863 155.358 240.663 155.354C239.371 155.329 237.751 155.297 236.92 154.383C236.022 153.403 236.302 151.821 236.938 150.797C238.156 148.834 240.896 147.791 243.015 146.9L243.306 146.776L244.012 146.481C246.346 145.521 248.753 144.698 251.189 144.006C254.523 143.065 257.933 142.447 261.366 141.985C263.583 141.683 265.808 141.445 268.033 141.225C268.336 141.196 268.332 140.804 268.033 140.771C267.109 140.66 266.18 140.585 265.252 140.544C266.33 140.146 267.4 139.74 268.467 139.33C269.583 138.902 270.887 138.589 271.83 137.901C272.191 137.893 272.552 137.875 272.905 137.837C274.347 137.688 274.911 135.574 273.273 135.198C272.702 135.067 272.118 134.974 271.527 134.907C269.878 134.717 268.175 134.717 266.544 134.609L266.292 134.595C265.778 134.567 265.241 134.557 264.696 134.546C263.18 134.515 261.598 134.483 260.235 134.092C257.811 133.392 259.659 130.964 260.944 129.883L261.084 129.768L261.22 129.665C262.686 128.589 264.523 127.989 266.338 127.788C268.411 127.56 270.507 127.767 272.561 128.086L273.372 128.216C275.337 128.528 277.526 128.762 279.295 129.676C281.409 130.767 282.384 132.755 281.152 134.904C280.245 136.486 278.543 137.476 276.904 138.353L276.274 138.688L275.812 138.936C275.536 139.085 275.728 139.471 276.019 139.412C276.453 139.327 276.887 139.23 277.316 139.126C279.491 138.589 281.574 137.741 283.001 135.953C284.681 133.85 284.647 131.166 282.974 129.076C281.422 127.146 279.085 126.39 276.716 125.872L276.385 125.801L275.724 125.666C274.587 125.442 273.437 125.22 272.28 125.04C272.764 124.63 273.076 124.012 272.962 123.252C272.097 117.448 271.083 111.669 269.939 105.914C270.025 104.262 269.625 102.467 269.256 100.815C269.154 100.359 269.055 99.9135 268.969 99.4853L268.838 98.8426C268.349 96.4877 267.759 94.1522 267.063 91.8451C266.799 90.9746 266.516 90.1093 266.223 89.2474C265.814 87.5971 262.519 80.2564 261.26 77.7455L261.115 77.4612L260.99 77.2247C255.823 67.7009 248.37 59.6068 239.555 53.1136C238.042 51.9982 236.502 50.9263 234.941 49.8864C235.669 49.4285 236.116 48.4861 235.882 47.6559C235.584 46.5981 235.476 46.1473 235.696 45.0486C235.94 43.8274 236.153 42.6568 236.022 41.4047C235.775 39.0525 234.608 36.7732 232.729 35.2485C230.886 33.7529 228.509 33.2306 226.592 31.8809C225.353 31.0086 224.854 29.6333 224.072 28.4158C223.42 27.4013 222.642 26.4809 221.703 25.7035C217.9 22.5567 212.285 21.0079 207.432 20.3079C203.68 19.767 199.79 19.9829 196.498 21.6635C196.185 19.9412 195.972 18.2033 195.904 16.4552C195.878 15.7977 195.912 15.1169 195.946 14.431ZM119.587 53.1713C117.49 51.0833 115.461 48.6421 112.984 46.973C112.808 46.855 112.634 47.0787 112.713 47.2359C114.127 50.0297 116.491 52.4959 118.423 54.9703L119.343 56.1412C120.879 58.0888 122.438 60.0178 124.009 61.9408C127.365 66.05 130.807 70.0874 134.558 73.8656C141.801 81.1611 150.012 87.6099 159.923 91.0978C162.274 91.9243 163.301 88.2719 160.956 87.4625C151.266 84.1176 143.322 77.5686 136.301 70.4519C132.778 66.8806 129.366 63.2063 125.892 59.5911C123.813 57.4279 121.714 55.2897 119.587 53.1713ZM71.0918 68.2267C72.9479 70.8666 74.1067 74.3762 75.25 77.3931L75.3643 77.6931C76.5795 80.8637 77.7518 84.0593 78.8451 87.272C81.0274 93.6851 83.8714 100.396 84.3969 107.171C84.4939 108.421 82.5226 108.922 81.9511 107.814C80.3089 104.628 79.4258 101.307 78.4542 97.8915C77.5274 94.6341 76.5619 91.3879 75.596 88.1414C74.6305 84.8966 73.6964 81.6422 72.7455 78.3934C71.8206 75.2329 70.5329 71.7186 70.3211 68.4292C70.2935 68.0018 70.8785 67.9228 71.0918 68.2267ZM60.1964 93.2407C63.839 100.384 66.5794 107.979 68.647 115.685C69.6452 119.406 70.4923 123.164 71.1735 126.952L71.3972 128.217L71.5243 128.903C71.5663 129.126 71.609 129.35 71.652 129.575C72.2597 132.761 72.9071 136.155 72.0342 139.232C71.7293 140.308 69.888 140.734 69.3724 139.57C67.8173 136.055 68.036 132.015 67.5852 128.254C67.1115 124.308 66.4651 120.38 65.6596 116.484C64.1123 108.999 61.9405 101.689 59.5196 94.4342L59.2497 93.6283C59.044 93.0911 59.9394 92.737 60.1964 93.2407ZM231.635 122.947C231.429 122.22 231.891 121.261 232.706 121.116C234.155 120.857 235.657 120.828 237.057 121.33C237.838 121.609 238.364 122.33 238.129 123.162C237.923 123.891 237.019 124.481 236.242 124.202C235.358 123.886 234.449 123.822 233.522 123.988L233.443 124C232.651 124.11 231.863 123.752 231.635 122.947ZM242.687 121.619C242.524 121.671 242.379 121.754 242.254 121.868L242.193 121.927C242.043 122.062 241.937 122.222 241.876 122.406C241.78 122.584 241.735 122.776 241.743 122.981L241.798 123.376C241.871 123.629 242.003 123.847 242.193 124.033L242.503 124.266C242.713 124.384 242.937 124.451 243.175 124.466L243.278 124.47L243.588 124.47C243.766 124.464 243.933 124.421 244.09 124.341C244.253 124.29 244.397 124.207 244.522 124.093L244.584 124.033C244.734 123.898 244.839 123.739 244.901 123.554C244.983 123.402 245.027 123.24 245.033 123.067L245.033 122.981L244.978 122.584C244.915 122.364 244.806 122.168 244.652 121.998L244.584 121.927L244.273 121.694C244.064 121.577 243.84 121.51 243.602 121.495L243.499 121.491L243.278 121.491C243.066 121.483 242.869 121.526 242.687 121.619ZM197.079 126.601C198.038 126.147 199.124 125.693 200.209 125.197C200.141 125.525 200.106 125.863 200.117 126.206C199.028 126.363 197.938 126.53 196.853 126.709C196.93 126.671 197.007 126.638 197.079 126.601ZM229.337 145.434L229.436 144.949C230.917 144.971 232.401 145.105 233.882 145.347C236.165 145.719 237.514 146.095 239.375 146.401C239.264 146.452 239.149 146.512 239.038 146.572L238.78 146.711C236.723 147.838 234.804 149.43 234.377 151.803C233.622 156.001 237.117 157.177 240.822 157.481L241.049 157.499L241.4 157.522C239.183 157.935 236.997 158.486 234.856 159.145C234.599 159.223 234.334 159.32 234.066 159.428C234.047 159.301 234.001 159.171 233.928 159.041C233.226 157.816 232.125 156.877 231.366 155.683C230.564 154.413 230 153.028 229.597 151.595C229.186 150.146 229.01 148.646 229.087 147.145C229.114 146.572 229.222 146.001 229.337 145.434ZM76.6534 150.564C76.6824 152.364 76.1471 154.254 75.6305 156.078C75.4302 156.785 75.2328 157.482 75.0722 158.16C74.4531 160.774 73.8355 163.389 73.2094 166.003L72.6464 168.344C72.1776 170.296 71.7153 172.249 71.301 174.212C70.9604 175.826 70.8177 177.953 70.2596 179.732C76.8985 177.126 83.5478 174.546 90.186 171.949C98.3643 168.747 106.581 165.634 114.778 162.484C122.945 159.35 131.066 155.783 139.398 153.102C141.381 152.462 142.724 155.533 140.825 156.386C132.363 160.195 123.409 163.177 114.74 166.513L102.2 171.345C90.7036 175.772 79.1997 180.178 67.6381 184.432C59.7628 187.329 51.9182 190.312 43.9931 193.063C40.2146 194.373 36.4021 195.613 32.6424 196.972C29.4931 198.111 26.0867 199.802 24.9206 203.085C24.8592 203.256 24.6175 203.186 24.6444 203.011C25.1162 199.831 27.5486 197.843 30.291 196.339C33.9308 194.337 37.9286 192.881 41.7708 191.276L42.2937 191.056C50.1395 187.735 58.0485 184.548 65.9809 181.415C65.9023 181.229 65.8559 181.029 65.8524 180.821L65.8298 180.827C65.7134 179.679 66.1285 178.631 66.5472 177.574C66.6476 177.32 66.7482 177.066 66.8417 176.81L68.2292 173.011C69.1537 170.481 69.983 167.92 70.8373 165.368C71.7307 162.7 72.6325 160.034 73.5328 157.368C74.2954 155.11 74.8079 152.419 76.1125 150.401C76.2698 150.157 76.7033 150.294 76.6534 150.564ZM274.284 169.302L274.298 169.299C274.767 169.37 275.904 185.781 277.719 193.249L277.858 193.821C280.014 202.786 281.564 211.663 281.628 220.949C281.682 229.199 279.979 237.446 275.337 244.453C271.47 250.295 265.601 255.075 258.543 256.699C255.44 257.41 251.918 257.428 249.003 256.021C247.622 255.354 246.59 253.858 245.079 253.515C244.933 253.482 244.787 253.459 244.641 253.448C244.588 250.544 244.678 247.638 244.787 244.735L244.923 241.169C245.196 233.857 245.381 226.57 245.013 219.255C244.634 211.701 243.886 204.15 242.812 196.659C242.259 192.795 241.684 188.919 240.978 185.077C240.471 182.336 240.076 179.365 239.225 176.629C239.49 176.669 239.754 176.703 240.015 176.736C242.198 177.001 244.419 177.001 246.567 177.522C248.459 177.98 250.086 178.875 251.727 179.844L252.318 180.195C252.513 180.312 252.71 180.431 252.908 180.551C255.375 182.042 258.093 183.685 261.071 183.248C262.574 183.029 263.768 182.459 264.761 181.666C264.784 183.449 264.941 185.244 265.325 186.99C265.928 189.73 266.963 192.309 268.098 194.865L268.424 195.595L268.754 196.324C270.112 199.31 271.623 202.233 272.671 205.345L272.672 205.349C272.822 205.381 272.965 205.413 273.102 205.444C274.633 205.786 275.362 205.95 276.274 204.293C276.352 204.151 276.443 204.037 276.543 203.94C275.627 201.425 274.451 198.992 273.25 196.603C271.758 193.632 270.143 190.714 268.854 187.649C268.121 185.914 267.489 184.109 267.005 182.288C266.794 181.495 266.686 180.642 266.533 179.804C268.405 177.306 270.307 171.59 274.284 169.302Z" transform="translate(11.50846 -4.598304)" id="ðŸ–-Ink" fill="#000000" fill-rule="evenodd" stroke="none" />
  </g>
</svg>