<?xml version="1.0" encoding="utf-8"?>
<svg width="314px" height="273px" viewBox="0 0 314 273" version="1.1" xmlns:xlink="http://www.w3.org/1999/xlink" xmlns="http://www.w3.org/2000/svg">
  <desc>Created with Lunacy</desc>
  <defs>
    <rect width="313.783173" height="272.9061" id="artboard_1" />
    <clipPath id="clip_1">
      <use xlink:href="#artboard_1" clip-rule="evenodd" />
    </clipPath>
  </defs>
  <g id="body/Macbook" clip-path="url(#clip_1)">
    <use xlink:href="#artboard_1" stroke="none" fill="#FFFFFF" />
    <path d="M372.505 86.9249C367.027 87.4469 361.55 87.9681 356.072 88.4901C329.839 90.4355 303.616 94.4982 277.583 96.9364C276.935 95.9126 275.666 96.0812 274.896 96.7927C272.298 96.5719 269.387 94.6448 267.034 96.6494C266.957 96.639 266.881 96.6267 266.804 96.6196C262.614 88.8148 259.718 80.4902 256.907 72.1545C255.113 67.0296 252.699 62.0685 248.239 58.6276C240.627 53.499 223.186 43.0991 214.247 43.5362C214.099 41.9829 213.353 40.382 212.128 39.3477C214.828 34.8803 204.033 31.9654 203.271 32.4833C203.759 17.558 196.526 4.59627 180.576 1.62409C166.287 -1.26582 145.963 -1.75131 138.278 12.7425C137.433 12.6502 128.798 12.6065 127.962 12.6974C126.663 11.1005 112.397 26.2321 118.244 31.5C65.9703 53.9438 36.2473 51.2658 21.7787 114.361C19.8227 120.289 19.6802 126.775 17.6147 132.57C10.2664 149.224 4.30619 166.958 2.82285 185.079C-0.759732 185.97 -1.17175 192.101 2.97798 192.987C4.56308 193.327 5.88859 193.79 7.04439 194.668C6.14087 209.518 9.84134 243.441 12.1729 243.337C16.927 258.022 38.1329 262.166 53.146 257.006C50.5579 261.731 53.146 264.703 53.146 267.228C107.167 269.211 166.233 268.069 220.239 270.79C227.148 270.694 234.414 272.436 241.228 271.434C245.383 270.467 245.39 264.125 241.175 263.341L259.593 259.458C259.181 259.308 267.184 254.141 273.233 244.486C278.864 233.685 275.032 220.647 277.583 208.898C297.509 207.317 317.764 206.641 337.472 203.365C340.159 211.169 351.791 201.836 355.488 198.082C355.484 198.076 355.479 198.071 355.474 198.065C357.264 197.59 358.699 195.962 358.747 194.035C360.002 192.295 360.265 189.842 359.062 188.16C364.577 157.27 372.986 125.73 376.025 94.5499C377.099 94.3191 378.111 93.8619 378.969 93.1575L378.899 93.0901C380.353 91.5174 380.635 88.8029 378.212 87.4666C376.258 86.3877 374.626 86.7224 372.505 86.9249Z" transform="translate(9.590777 -8.935463)" id="âœ‹-Skin" fill="#D08B5B" stroke="none" />
    <path d="M140.028 2.29794L136.857 0C136.338 0.733556 135.857 1.51379 135.418 2.34307C134.66 2.26021 127.628 2.21657 125.589 2.27413L125.361 2.28185L125.184 2.29105L125.102 2.29794C123.803 0.70109 109.537 15.8327 115.384 21.1006C63.1104 43.5444 33.3873 40.8664 18.9188 103.962C16.9628 109.889 16.8203 116.375 14.7548 122.17C7.46623 138.689 1.54326 156.27 0 174.238L4.67336 175.735L56.5299 187.889L65.4416 187.889L135.422 169.164L166.076 161.435L192.433 152.209L202.413 150.768L221.007 165.417L242.358 92.7252L274.723 86.537L274.677 86.4675C274.016 85.5213 272.788 85.6984 272.036 86.3933C271.256 86.327 270.448 86.1071 269.636 85.8858C267.741 85.3699 265.821 84.8471 264.174 86.25C264.097 86.2395 264.021 86.2272 263.944 86.2202C260.394 79.6072 257.773 72.621 255.345 65.5711L254.906 64.2887L254.47 63.0053L254.047 61.7551C252.253 56.6302 249.84 51.6691 245.379 48.2281C237.767 43.0995 220.326 32.6997 211.387 33.1368C211.239 31.5835 210.493 29.9825 209.268 28.9482C211.968 24.4809 201.173 21.566 200.411 22.0839C200.438 21.2605 200.442 20.443 200.422 19.6329L196.237 20.0156L198.318 31.8688L192.207 49.8605L183.608 60.9597L177.505 70.7607L166.829 60.9597L166.829 39.8126L133.105 13.3371L140.028 2.29794ZM165.539 194.746L161.32 192.139L140.605 201.447L97.6424 224.903L49.6926 247.986L49.6926 258.039Q74.8876 257.316 100.711 258.039L101.541 258.061C116.192 258.433 180.539 259.277 198.145 261.017Q239.574 265.113 241.875 261.017L238.423 234.211L238.423 205.543L221.161 208.149L200.063 205.543L165.539 194.746Z" transform="translate(12.44998 1.463945)" id="ðŸ‘•-Top" fill="#FFCF77" fill-rule="evenodd" stroke="none" />
    <path d="M210.967 0L210.003 5.21415C209.774 5.28697 209.541 5.34864 209.305 5.39937C209.002 8.50773 208.645 11.6197 208.244 14.7341L202.267 47.0657C201.236 52.7856 200.258 58.5178 199.286 64.2519L197.999 70.4111L197.202 74.2392C195.48 82.5293 193.809 90.7924 192.341 99.0095C192.563 99.319 192.735 99.6546 192.86 100.007L192.747 100.47L192.668 100.779L192.588 101.084C191.43 105.403 189.416 109.591 184.669 110.862C181.089 111.821 177.16 111.908 173.462 112.286L173.053 112.329L108.355 119.391C100.538 120.244 92.7242 121.123 84.9112 122.011L78.1382 122.782C68.6977 123.843 59.203 124.678 49.9016 126.598C49.5598 126.669 49.2767 126.802 49.0458 126.976C50.9189 120.094 52.7118 113.222 54.3367 106.271C56.1657 98.4473 57.9015 90.6086 59.8579 82.8134C63.7989 67.1092 68.2168 51.5082 73.0532 36.0411C74.0682 32.7948 75.1066 29.555 76.1677 26.3228L76.9123 24.0634L77.4855 22.2629C78.3722 19.5177 79.4696 16.6961 82.0701 15.1818C85.1134 13.4095 89.2634 13.1157 92.715 12.5028L95.0524 12.0767C98.5494 11.4434 102.051 10.8342 105.557 10.2491C122.341 7.44702 139.221 5.19937 156.163 3.51092C173.793 1.75372 191.483 0.611939 209.196 0.0538631L210.967 0ZM143.554 46.0238L143.599 46.2487C144.128 49.0141 142.801 51.6595 140.792 53.588C139.145 55.1696 136.229 56.0486 135.403 58.3238C134.933 59.6183 135.433 60.8459 136.399 61.7018L136.176 61.8085L135.959 61.9164L135.747 62.0253L135.54 62.1352L135.338 62.2458C132.057 64.0754 129.384 67.0509 132.344 70.6448C135.701 74.7219 142.716 74.854 147.658 74.535L147.991 74.5124C152.784 74.1636 158.461 72.6012 161.059 68.3063C162.251 66.336 162.12 63.9532 160.459 62.267C159.456 61.2498 157.668 60.2051 156.029 60.0815C156.1 59.185 155.99 58.319 155.665 57.5881C154.963 56.0084 153.093 54.9447 151.289 54.9063C151.424 51.8113 149.078 48.7531 147.113 46.1923C146.948 45.9777 146.786 45.7666 146.629 45.5592L146.421 45.2841L146.219 45.0136C145.283 43.7507 143.282 44.4582 143.554 46.0238ZM148.144 56.3456L146.287 49.5941L146.237 49.7967C145.662 52.02 144.346 54.0514 142.533 55.671C141.818 56.3091 141.037 56.8773 140.207 57.3654L140.107 57.4216L139.992 57.4828C139.911 57.5249 139.822 57.5702 139.727 57.6185C138.885 58.045 137.58 58.7061 137.699 59.4757C137.842 60.4012 140.793 61.8499 141.597 61.8507C141.78 61.8507 141.883 62.128 141.697 62.2085C140.239 62.8332 138.966 63.1009 137.541 62.4408C136.589 63.3842 135.664 64.3604 134.748 65.3281C133.128 67.0403 133.683 68.8483 135.597 70.1231C138.673 72.1716 143.348 72.1217 146.936 71.9728L147.141 71.9636C150.694 71.793 154.463 70.9972 157.231 68.7061L157.354 68.6022L157.415 68.5488C158.924 67.2189 160.256 65.0187 157.939 63.761C157.02 63.2617 156.026 63.2911 155.153 63.0484C154.336 64.6028 153.011 65.8478 151.393 66.088C150.086 66.282 149.186 64.6875 150.375 63.9249L150.642 63.7638L150.744 63.7C152.193 62.774 153.409 61.3723 153.376 59.5594C153.352 58.2717 151.5 56.6452 150.293 57.8552L150.19 57.9623C149.173 58.9753 147.458 57.6068 148.113 56.4012L148.144 56.3456ZM50.5506 107.814L50.3855 107.801C49.1951 107.685 47.8147 107.139 46.4941 106.616C45.0463 106.043 43.6702 105.499 42.6952 105.581C43.6957 107.21 44.1472 109.068 43.5706 111.053C42.1354 115.992 36.1788 114.228 32.436 112.593L32.0952 112.442L31.7586 112.288L31.4283 112.133L30.9371 111.896C28.1693 110.539 25.4787 108.933 22.4083 108.305C19.7035 107.753 17.6552 108.402 15.5131 109.439L15.2135 109.586L14.9123 109.737L14.4563 109.972L13.3423 110.558C10.8482 111.871 8.1319 112.814 5.33853 113.303C3.85324 113.562 2.44237 113.59 1.03418 113.489C0.949405 113.556 0.853889 113.618 0.744948 113.673L0 114.053L0.348661 114.071C2.90693 114.229 5.49406 114.862 7.95347 115.559L8.62094 115.751L9.93404 116.135C13.1823 117.092 16.3712 118.245 19.5432 119.425L22.6636 120.589L23.7828 121.003C31.1326 123.706 38.7312 126.165 46.6582 126.143C47.257 126.141 47.7476 126.302 48.1339 126.564L50.5506 107.814Z" transform="translate(176.3008 80.19662)" id="ðŸ’»-Computer" fill="#FFFFFF" fill-rule="evenodd" stroke="none" />
    <path d="M141.575 2.3024C143.203 -1.66758 148.705 -0.124341 148.091 4.04632C147.724 6.54454 146.315 9.18313 145.048 11.3727C144.017 13.155 142.841 14.8944 141.246 16.2303C144.085 18.8007 147.032 21.2774 150.053 23.6289C153.349 26.1945 156.816 28.5595 160.399 30.733C163.541 32.6393 166.825 34.3281 169.787 36.5032C172.541 38.5252 175.05 40.9571 176.326 44.1319C177.686 47.5126 177.095 51.004 176.094 54.3824L175.979 54.7644C174.956 58.1115 173.184 62.1463 175.64 65.2998C176.89 66.9052 178.708 68.0422 180.277 69.3256C181.672 70.4664 182.981 71.7069 184.182 73.0394C186.8 75.9442 188.929 79.2128 190.273 82.8547L190.393 83.1856C191.545 86.4096 192.387 90.3592 190.83 93.5245C190.384 94.4318 188.944 94.137 188.694 93.2535C188.128 91.2519 188.158 89.1558 187.684 87.1259C187.19 85.0149 186.369 83.0111 185.297 81.1153C183.223 77.4477 180.413 74.3149 177.094 71.6663L176.101 70.8821C173.511 68.8196 171.132 66.6316 170.607 63.2182C170.044 59.5661 171.552 56.0872 172.521 52.6307C173.197 50.2218 173.417 47.9127 172.687 45.7358C171.795 47.1487 170.579 48.4898 169.616 49.686C167.699 52.0692 165.765 54.4379 163.835 56.811C161.856 59.2445 159.926 61.7162 158.088 64.2521C157.266 65.3865 156.453 66.5277 155.643 67.6699C155.033 68.5285 154.183 69.3863 153.519 70.262C153.68 70.7303 153.668 71.2702 153.375 71.6537C149.852 76.2741 144.839 66.6334 143.532 64.1977C140.87 59.2374 138.888 53.9677 136.217 49.0084C133.45 43.8675 130.298 38.8636 126.786 34.1702C124.661 31.3313 122.279 28.6648 120.336 25.7358C115.757 29.7658 109.731 32.4673 104.197 34.9171C98.1157 37.6084 91.7982 39.807 85.5635 42.1416L83.7218 42.8359C72.9792 46.9051 61.9741 51.3755 53.045 58.6033C42.5525 67.0969 36.3451 78.935 31.7239 91.1938C26.4041 105.306 22.0031 119.8 17.9005 134.284C15.8011 141.695 13.8091 149.139 11.9363 156.608C10.2861 163.187 8.91819 169.832 7.00788 176.344C10.8822 176.211 15.3009 177.667 18.6086 178.087C33.6837 180.002 48.5558 183.055 62.7884 188.341C64.5464 188.994 65.0551 190.698 64.6722 192.079C65.6861 191.802 66.6992 191.52 67.713 191.244C66.6023 189.592 67.1324 186.639 67.2197 184.808L67.2251 184.682C67.3149 182.242 67.5876 179.8 67.7644 177.364C68.1012 172.722 68.5396 168.114 69.1225 163.498L69.2712 162.344C69.9318 157.322 70.4201 152.271 71.1409 147.258L71.226 146.684C70.8804 145.401 70.478 144.134 70.0557 142.873C68.9302 139.513 67.3417 136.35 65.9496 133.096C65.7855 132.712 66.3478 132.492 66.6106 132.722C68.9682 134.781 70.8409 137.392 72.3454 140.123C72.3714 139.995 72.3945 139.865 72.4217 139.736L72.5934 138.916C73.0167 136.916 73.5317 134.812 74.7958 133.19C74.9304 133.017 75.1966 132.981 75.324 133.19C76.5339 135.177 76.6693 137.693 76.8553 139.954C77.0659 142.512 77.0924 145.102 77.0552 147.667C76.9827 152.68 76.6186 157.706 76.3286 162.71C76.0441 167.628 75.4854 172.483 74.7654 177.353L74.6285 178.266C74.2766 180.583 73.9884 182.93 73.5241 185.232L73.393 185.858C73.1448 187 72.9921 188.609 72.498 189.946C85.2097 186.505 97.9409 183.142 110.696 179.839C119.915 177.451 129.144 175.098 138.369 172.731C138.855 171.88 139.462 171.085 140.218 170.374C142.71 168.031 146.013 166.986 149.042 168.789C149.289 168.936 149.309 169.311 149.042 169.453C148.462 169.761 147.88 170.076 147.309 170.405L152.848 168.949C156.989 167.86 161.178 166.5 165.416 165.74C173.221 162.002 181.616 159.296 189.838 156.622L190.806 156.304C195.016 154.911 199.371 153.351 203.72 152.579C206.905 152.014 210.642 152.696 211.923 155.862C213.544 156.899 215.069 158.117 216.541 159.316C217.605 160.182 218.625 161.102 219.662 161.999L219.854 162.162C220.702 162.876 221.373 163.354 221.581 164.491C221.689 165.078 221.305 165.872 220.558 165.794C218.276 165.557 216.419 162.989 214.871 161.455C213.675 160.27 212.47 159.044 211.378 157.741C210.741 158.077 209.869 158.017 209.464 157.272C207.363 153.412 201.609 156.087 198.425 157.003L193.864 158.313C191.584 158.969 189.304 159.628 187.029 160.299C180.775 162.142 174.551 164.205 168.24 165.898C168.805 166.501 168.727 167.572 167.655 167.98C162.715 169.861 157.295 170.834 152.163 172.125C148.923 172.941 145.684 173.761 142.447 174.587C141.892 175.459 141.493 176.447 141.325 177.596C140.707 181.822 141.898 186.698 143.059 190.785L143.234 191.395C144.188 194.681 145.591 198.709 148.513 200.784C149.226 201.29 150.134 201.643 151.049 201.722C156.767 198.866 162.485 196.009 168.206 193.158C169.266 192.63 170.246 193.345 170.484 194.195C172.501 193.874 174.514 193.368 176.347 192.764C179.427 191.748 181.832 189.812 184.72 188.473C190.308 185.882 196.013 189.064 201.016 191.484L202.169 192.034C204.413 193.09 209.08 195.12 210.156 192.23C211.197 189.435 207.906 186.447 205.78 185.189C203.246 183.689 200.295 182.887 197.431 182.218C195.796 181.836 194.141 181.524 192.476 181.297C190.587 181.039 188.636 181.077 186.817 180.483C185.913 180.188 185.775 178.795 186.817 178.565C189.617 177.946 192.958 178.621 195.879 179.31L197.406 179.675C200.35 180.376 203.321 181.256 206.002 182.655C207.952 183.672 210.009 185.217 211.354 187.108C212.521 186.056 213.974 186.091 215.487 186.482L216.308 186.703C217.665 187.068 218.764 187.319 220.084 187.067C220.26 186.135 220.439 185.202 220.631 184.27C222.511 175.106 224.574 165.977 226.85 156.896C230.776 141.234 235.318 125.744 240.439 110.412L240.953 108.879C242.134 105.372 243.085 101.552 244.989 98.33C246.79 95.2837 249.675 93.529 253.104 92.5997C256.994 91.5453 261.082 90.9935 265.051 90.2813C265.936 90.1227 266.824 89.9719 267.71 89.8159C266.961 88.5036 266.402 87.014 265.899 85.8708L265.81 85.6728C264.729 83.2793 263.757 80.8427 262.819 78.3931L262.117 76.5515C260.423 72.1169 258.674 67.7552 256.292 63.6076C253.785 59.2426 250.459 55.674 246.312 52.7204C237.859 46.6979 227.669 43.6259 219.47 37.1897C219.134 36.9261 219.565 36.4752 219.906 36.642C225.442 39.342 231.419 41.1779 237.177 43.3761L238.313 43.8111C242.865 45.5623 247.487 47.4688 251.427 50.3041C255.819 53.4658 259.278 57.3922 261.878 62.0614C264.441 66.6639 266.08 71.8156 267.888 76.7317L268.371 78.0416C269.101 80.0058 269.854 81.9641 270.717 83.8756C271.402 85.3932 272.681 87.1256 273.262 88.859C274.852 88.5914 276.441 88.3229 278.033 88.0649C312.506 82.4787 347.364 79.1964 382.299 78.2362C383.666 78.1986 384.373 79.4645 384.171 80.6216C380.819 99.8632 377.839 119.171 374.57 138.427C373.143 146.831 371.688 155.229 370.198 163.623C369.444 167.875 368.572 172.111 367.857 176.37C367.28 179.81 366.861 183.276 365.871 186.636C364.982 189.648 363.619 192.553 361.38 194.851C358.966 197.329 355.598 198.528 352.207 199.094C343.598 200.532 334.769 201.12 326.09 202.077L279.887 207.179C280.562 213.136 280.613 219 280.303 225.025L280.127 228.315C279.982 230.961 279.81 233.611 279.418 236.229C278.927 239.514 277.379 242.296 275.098 244.749C273.004 247.003 270.46 248.925 267.986 250.768C265.417 252.681 262.763 254.527 259.743 255.71L259.351 255.861C256.702 256.865 251.731 258.419 248.11 257.851C248.583 260.153 249.499 262.628 248.687 264.906C248.311 265.964 246.886 266.491 246.012 265.592C244.283 263.808 244.148 261.452 243.738 259.125C243.312 256.703 242.944 254.273 242.618 251.837C241.987 247.127 241.495 242.374 241.345 237.624C241.191 232.746 241.25 227.861 241.521 222.988C241.661 220.486 241.833 217.985 242.16 215.499C242.3 214.438 242.443 213.377 242.606 212.319C242.665 211.934 242.731 211.55 242.802 211.167L238.655 211.621C232.296 212.31 225.935 212.932 219.531 213.029C218.772 213.04 218.189 212.705 217.808 212.217C217.401 212.859 216.694 213.318 215.681 213.315C206.738 213.282 198.41 210.444 190.276 207.099C186.177 205.413 182.14 203.587 178.034 201.915C174.202 200.354 170.105 199.24 166.364 197.482L156.537 202.486C156.465 202.732 156.372 202.964 156.274 203.159C155.634 204.427 154.372 205.114 153.084 205.632C151.847 206.13 150.566 206.285 149.319 206.16C141.865 209.95 134.41 213.738 126.95 217.516L119.488 221.291C104.621 228.804 89.8133 236.441 74.8529 243.777L73.7516 244.315C68.5842 246.83 63.0355 249.379 57.301 251.281C57.199 252.69 57.2634 254.06 57.385 255.551L57.4143 255.876C57.5853 257.638 57.9519 259.846 56.4955 261.101C55.7379 261.753 54.3845 261.756 53.8694 260.772C52.9345 258.988 53.7738 256.176 54.07 254.238C54.1751 253.549 54.3032 252.841 54.4927 252.153C47.9186 254.053 41.1454 254.974 34.4555 253.907C27.942 252.87 22.8973 248.887 18.8304 244.016C14.5383 238.875 11.4883 232.884 9.85187 226.462C7.9895 219.154 7.8679 211.608 7.91163 204.122C7.95805 196.151 8.26186 188.141 9.26075 180.224C8.16634 179.974 6.95264 179.758 5.84673 179.832C5.29895 180.683 4.23638 181.041 3.27624 180.931C1.18831 183.166 6.48427 185.45 8.1767 186.022C8.76437 186.221 8.70146 187.147 8.02364 187.119L7.59669 187.099C4.98156 186.964 2.27979 186.531 0.742187 184.172C-0.48993 182.282 -0.119758 180.042 1.34904 178.5C2.31916 169.597 4.63839 160.928 6.7969 152.243C8.91513 143.719 11.2708 135.25 13.7676 126.823L14.887 123.052C18.8182 109.839 22.9273 96.5192 28.3501 83.8313C31.0579 77.496 34.1774 71.2773 38.4058 65.7533C42.3472 60.6038 47.0007 56.1974 52.3495 52.4341C62.3212 45.4176 74.0219 41.178 85.5183 37.1389L86.0329 36.9581C91.9906 34.8665 97.9336 32.7499 103.823 30.4836C109.032 28.4794 114.023 25.9384 119.207 23.9041C119.038 23.6073 118.876 23.3072 118.719 23.0038L118.623 23.082C118.607 23.0947 118.59 23.1069 118.573 23.1185C118.051 23.4692 117.284 23.2968 116.854 22.9033C115.641 21.7923 116.052 20.559 116.862 19.4068L116.967 19.2602C117.957 17.9135 118.841 16.4898 119.755 15.0944L120.327 14.2217C121.862 11.8904 123.474 9.54357 125.52 7.61681C126.468 6.724 127.505 6.05607 128.604 5.55829C128.51 5.36543 129.334 4.97115 129.567 5.16959C133.049 3.93276 137.055 4.19189 140.851 4.53293M277.652 207.426L272.811 207.96C267.485 208.548 262.157 209.117 256.829 209.68L245.254 210.901C245.225 211.541 245.145 212.168 245.13 212.651C245.055 215.145 244.998 217.639 244.945 220.133C244.838 225.133 244.955 230.137 245.294 235.127C245.623 239.962 246.056 244.797 246.729 249.6L246.866 250.56L246.946 251.064C247.495 251.116 248.034 251.369 248.483 251.889C249.462 253.023 253.007 251.921 254.391 251.443C256.668 250.656 258.812 249.328 260.79 247.996C262.722 246.695 264.461 245.178 266.133 243.581L267.501 242.268C268.861 240.955 270.223 239.557 271.057 237.907C272.187 235.668 272.333 232.921 272.665 230.483C273.073 227.484 273.559 224.486 274.073 221.502M137.118 175.949L136.616 176.078C118.376 180.782 100.162 185.625 81.866 190.121C72.8116 192.347 63.7142 194.411 54.6486 196.594L53.1808 196.95C46.0291 198.704 38.7915 200.816 33.3148 205.85C33.1126 206.036 32.8192 205.751 33.0094 205.554C38.9119 199.456 47.3065 196.874 55.3667 194.636C56.8566 194.222 58.3484 193.818 59.8387 193.407C48.877 189.614 37.7423 186.314 26.3506 183.961C23.4172 183.355 20.4497 182.91 17.5186 182.302C15.4744 181.877 13.4781 181.263 11.4556 180.754L9.86467 180.366L9.84354 185.246C9.81707 192.158 9.82971 199.064 10.193 205.975L10.2618 207.256C10.6857 214.947 11.3474 222.797 14.1594 230.049C16.4445 235.942 20.0868 241.494 24.8499 245.786C27.2601 247.958 29.8513 249.649 33.0543 250.483C36.0284 251.258 39.1443 251.349 42.2016 251.142C56.8662 250.149 69.92 242.418 82.6585 236.016C103.494 225.545 124.333 215.08 145.19 204.65C144.626 204.275 144.095 203.844 143.612 203.36C140.815 200.556 139.34 196.719 138.371 193.002C137.339 189.046 136.722 184.805 136.651 180.721M163.656 208.692C163.841 208.596 164.054 208.716 164.062 208.918C164.127 210.464 163.246 211.989 162.589 213.382L162.519 213.53C161.72 215.256 160.845 216.958 159.94 218.633C158.131 221.981 156.252 225.292 154.29 228.557C150.345 235.125 145.961 241.417 140.78 247.135C139.609 248.427 137.685 246.771 138.436 245.38C142.057 238.674 146.278 232.343 150.624 226.067C152.799 222.925 154.973 219.78 157.17 216.651C158.086 215.346 159.014 214.045 159.968 212.765L160.543 211.999M379.99 82.0765C361.685 82.6131 343.403 83.7717 325.186 85.5875C308.244 87.2759 291.364 89.5236 274.579 92.3256C271.073 92.9108 267.572 93.52 264.075 94.1532L261.977 94.536C258.48 95.1794 254.207 95.4448 251.093 97.2584C247.809 99.1702 246.922 103.166 245.83 106.461C244.545 110.336 243.294 114.222 242.076 118.118C237.239 133.585 232.821 149.186 228.88 164.89C226.924 172.685 225.188 180.524 223.359 188.347C221.734 195.298 219.941 202.171 218.068 209.052C218.299 208.878 218.582 208.746 218.924 208.675C228.226 206.754 237.72 205.919 247.161 204.858L248.074 204.755C257.84 203.64 267.606 202.533 277.378 201.467L342.075 194.406C345.891 193.989 349.978 193.933 353.692 192.939C360.005 191.249 361.485 184.398 362.544 178.943L362.576 178.778C365.769 162.294 368.311 145.667 371.29 129.142M219.573 189.891C217.061 189.73 213.623 187.497 211.718 187.657C212.718 189.287 213.17 191.145 212.593 193.129C210.989 198.651 203.732 195.794 200.237 194.107C197.371 192.723 194.604 191.03 191.431 190.382C187.836 189.649 185.401 191.036 182.365 192.635C179.871 193.948 177.154 194.891 174.361 195.379C172.876 195.639 171.465 195.667 170.057 195.565C169.972 195.632 169.876 195.695 169.767 195.75L169.023 196.129C172.391 196.279 175.822 197.288 178.957 198.212C182.205 199.168 185.394 200.322 188.566 201.502L191.686 202.666C199.383 205.526 207.351 208.243 215.681 208.219C216.28 208.218 216.77 208.379 217.156 208.641M205.52 172.588C208.001 172.294 210.292 172.609 212.274 174.177C214.666 176.068 216.272 179.203 219.71 179.409C220.712 179.469 220.945 180.837 219.949 181.123C217.39 181.858 215.318 180.515 213.575 178.77L212.403 177.581C210.68 175.85 209.091 174.511 206.167 174.615C203.036 174.725 199.9 175.428 196.789 175.785C193.266 176.189 189.743 176.534 186.208 176.831C186.044 176.845 186.016 176.594 186.169 176.557L190.129 175.601M203.123 162.742L203.532 162.702C207.135 162.362 210.431 162.349 213.649 164.23L214.266 164.593C217.168 166.304 220.326 168.321 222.14 171.092C222.437 171.546 221.947 172.08 221.45 171.964C217.963 171.152 215.413 168.668 212.481 166.81C209.189 164.724 205.789 165.068 202.037 165.392C198.403 165.706 194.772 166.137 191.174 166.725C187.793 167.277 184.402 168.148 180.987 168.426L180.988 168.419C180.598 168.418 180.375 167.85 180.773 167.657C184.238 165.977 188.252 165.182 192.022 164.415M312.59 128.174C312.241 126.557 314.29 125.807 315.24 127.09L315.442 127.361C317.494 130.089 320.462 133.513 320.311 136.983C322.114 137.021 323.984 138.085 324.687 139.665C325.012 140.395 325.122 141.261 325.05 142.158C326.69 142.282 328.478 143.326 329.48 144.343C331.142 146.03 331.273 148.412 330.081 150.383C327.482 154.678 321.805 156.24 317.013 156.589L316.842 156.601C311.892 156.933 304.759 156.843 301.365 152.721C298.091 148.745 301.71 145.526 305.42 143.778C304.455 142.922 303.954 141.695 304.425 140.4C305.251 138.125 308.166 137.246 309.814 135.664C311.822 133.736 313.149 131.091 312.62 128.325M315.31 131.671C314.764 133.973 313.423 136.079 311.555 137.748C310.841 138.386 310.06 138.954 309.23 139.442L309.13 139.498C308.393 139.9 306.582 140.652 306.722 141.552C306.865 142.478 309.815 143.926 310.619 143.927C310.802 143.927 310.906 144.205 310.719 144.285C309.262 144.91 307.989 145.177 306.564 144.517C305.612 145.461 304.687 146.437 303.771 147.405C302.151 149.117 302.705 150.925 304.619 152.2C307.695 154.248 312.37 154.198 315.959 154.049C319.571 153.9 323.432 153.118 326.253 150.783L326.376 150.679C327.91 149.355 329.31 147.112 326.962 145.838C326.042 145.338 325.049 145.368 324.176 145.125C323.359 146.679 322.033 147.924 320.416 148.164C319.109 148.359 318.209 146.764 319.398 146.001L319.665 145.84C321.158 144.916 322.432 143.491 322.398 141.636C322.375 140.348 320.522 138.722 319.315 139.932L319.26 139.99C318.25 141.095 316.471 139.702 317.135 138.478L317.167 138.422M79.7373 67.6404C79.7327 67.3638 80.1336 67.2603 80.2736 67.4996C82.6181 71.5031 83.8437 76.4106 85.0927 80.8214C86.4008 85.4418 87.4568 90.1092 88.4055 94.8107C90.3269 104.331 91.3507 113.797 91.4202 123.5C91.4298 124.886 89.1044 125.254 88.8769 123.834C87.3667 114.396 85.9198 104.948 84.398 95.5118C83.6324 90.7659 82.7413 86.0383 81.8885 81.3065M102.947 74.6136C102.775 74.0615 103.602 73.8768 103.814 74.3817C108.519 85.5917 110.113 98.2958 107.092 110.122C106.63 111.931 103.9 111.148 104.248 109.361M163.639 64.6528C163.616 64.2395 164.168 64.1743 164.377 64.4588C166.606 67.5077 167.531 71.5908 171.442 73.1665C173.395 73.9532 175.593 73.8161 177.318 75.1449C178.472 76.0337 179.356 77.4365 178.491 78.7824C178.211 79.2173 177.43 79.4351 177.051 78.9626C176.498 78.2742 176.205 77.4499 175.453 76.9339C174.394 76.206 172.964 76.161 171.749 75.8188C170.177 75.3765 168.791 74.6025 167.657 73.4524M200.883 13.8007C201.113 13.6872 201.333 13.7598 201.48 13.9526C201.69 14.2274 201.664 14.4947 201.407 14.6831C201.75 15.3641 202.156 17.07 202.214 17.3183C202.449 18.3251 202.698 19.3259 202.96 20.3259C203.487 22.3427 203.948 24.3752 204.476 26.3927C205.035 28.5313 205.702 30.6472 206.443 32.7325C206.491 32.8675 206.543 33.0054 206.599 33.1452L206.683 33.3565L206.704 33.3245C206.855 33.0933 207.168 33.2549 207.131 33.4991C207.097 33.7217 207.05 33.9433 207.011 34.1659L207.089 34.3654C207.574 35.6324 207.906 36.9669 207.016 38.0849C206.683 38.503 206.317 38.7506 205.86 38.8243C205.128 41.1662 204.21 43.4645 203.227 45.6715L202.939 46.3161C201.493 49.5367 199.95 52.7149 197.647 55.4567C195.133 58.4501 191.675 60.4941 189.485 63.7742C188.466 65.2999 187.758 66.9042 187.182 68.6273L186.966 69.2813C186.557 70.5001 186.086 71.6813 184.908 72.3962C184.532 72.6241 183.969 72.5515 183.666 72.2406C181.251 69.7606 183.779 65.1298 185.236 62.7287C187.26 59.3898 190.191 57.2538 193.125 54.7348C196.288 52.0195 198.305 48.3872 200.256 44.8089C201.452 42.6167 202.605 40.3772 203.82 38.1754C202.551 37.0866 202.145 34.9238 201.715 33.4206L201.676 33.2858C200.965 30.8784 200.4 28.4085 200.043 25.9277C199.7 23.5425 199.557 21.1915 199.648 18.7929L199.674 18.1819M205.606 25.1533C205.325 24.7802 205.789 24.3577 206.174 24.4355C208.513 24.9049 210.8 26.2793 212.9 27.3905L213.124 27.5085C214.8 28.3857 216.486 29.4602 217.366 31.1643C218.323 33.0164 218.245 35.1496 218.114 37.1623L218.102 37.3507C217.942 39.7644 217.916 42.2723 217.39 44.6424C217.12 45.8554 215.988 46.1972 215.021 45.9105C213.869 49.4397 210.634 52.0399 208.271 54.8248C205.258 58.3752 205.825 63.1688 206.14 67.4448C206.268 69.1761 204.049 69.6683 202.906 68.7446L200.273 66.6215C199.834 66.2672 199.396 65.9121 198.959 65.5557C198.585 65.2501 198.214 64.9423 197.847 64.6305L197.298 64.1599C197.054 63.9484 195.98 62.7834 195.665 62.735C194.904 62.6176 193.097 64.5641 192.478 65.1746L192.399 65.2508C191.235 66.3591 190.183 67.5517 189.203 68.8164C189.022 69.0487 188.67 68.8559 188.799 68.5874C189.677 66.7616 190.698 65.0159 191.91 63.382L192.155 63.0567C192.962 62.0016 194.045 60.1385 195.469 59.8269C197.208 59.4467 198.944 61.1389 200.209 62.0782L200.289 62.1371C200.891 62.5753 201.486 63.0213 202.08 63.4704C202.017 60.2867 202.432 57.0699 204.125 54.3263C205.319 52.3914 207.108 50.9584 208.639 49.2956C210.344 47.4441 211.234 45.1685 212.777 43.2403C212.975 42.9923 213.249 42.8587 213.546 42.8162C213.605 41.2661 213.84 39.7005 214.022 38.1671L214.075 37.7081C214.258 36.042 214.693 34.0069 213.852 32.4465C213.058 30.9727 211.237 29.9324 209.888 28.9325L208.786 28.1032M129.684 7.53607C128.979 7.93147 128.321 8.4233 127.724 9.03799C125.844 10.9736 124.5 13.3825 123.192 15.6998C122.487 16.9478 121.808 18.2096 121.098 19.4546C120.789 19.9963 120.472 20.5321 120.151 21.0671C120.002 21.3135 119.561 21.8035 119.343 22.1055C119.585 22.4359 119.837 22.7612 120.093 23.083C120.191 23.2058 126.935 30.3361 129.285 33.1267C132.885 37.4012 136.103 41.9163 138.853 46.7489C141.547 51.4814 143.598 56.492 146.093 61.3161C147.342 63.7313 148.737 66.1293 150.515 68.2195C150.584 68.301 150.656 68.3781 150.726 68.4585C151.405 66.6793 153.144 64.7743 153.998 63.6804L154.077 63.5771C156.014 61.0432 158.059 58.5855 160.149 56.1696C162.058 53.9635 164.015 51.8051 166.02 49.6823L166.774 48.8879C168.171 47.4235 169.945 45.2325 171.989 44.1863C171.77 43.8073 171.517 43.4323 171.225 43.0623C169.31 40.6326 166.602 38.8694 163.93 37.2784L162.197 36.2553C155.665 32.3919 149.235 28.3494 143.564 23.3296C140.564 20.6735 137.605 17.8912 135.083 14.7932L134.192 13.6978M140.584 5.62347C137.526 5.87254 134.223 5.81335 131.396 6.78062C133.909 9.08636 136.297 11.576 138.751 13.9205C138.97 12.3348 139.416 10.7685 139.794 9.22225" transform="translate(7.288523 -1.86149)" id="ðŸ–-Ink" fill="#000000" stroke="none" />
  </g>
</svg>