<?xml version="1.0" encoding="utf-8"?>
<svg width="314px" height="273px" viewBox="0 0 314 273" version="1.1" xmlns:xlink="http://www.w3.org/1999/xlink" xmlns="http://www.w3.org/2000/svg">
  <desc>Created with Lunacy</desc>
  <defs>
    <rect width="313.783173" height="272.9061" id="artboard_1" />
    <clipPath id="clip_1">
      <use xlink:href="#artboard_1" clip-rule="evenodd" />
    </clipPath>
  </defs>
  <g id="body/Sweater" clip-path="url(#clip_1)">
    <use xlink:href="#artboard_1" stroke="none" fill="#FFFFFF" />
    <path d="M114.626 280.023C91.5389 279.541 70.5227 280.894 48.2913 276.518L48.2629 275.791C43.4944 275.658 45.0729 271.333 46.0315 268.308C-43.6898 264.433 14.8315 52.1809 77.007 37.9097C80.0528 37.4056 83.3617 37.1394 86.7167 37.1074C91.0452 35.8244 95.3108 35.5969 99.8357 34.4267C100.27 32.8891 100.341 32 102.26 32.4553C109.15 26.0694 121.547 20.1872 125.731 32.6486C131.236 25.222 134.393 16.5389 136.693 7.74522L137.065 7.80442C138.042 5.46629 139.642 2.50788 141.589 2.01978C144.623 1.04469 150.345 1.26957 153.644 0.873797C160.797 0.392395 169.105 -0.787468 175.961 0.804919C193.094 4.8758 185.669 24.5057 199.56 37.285C205.934 34.7238 215.926 35.426 222.033 38.4756C225.966 41.5327 223.994 44.9792 223.304 48.2109C267.172 44.3731 278.843 93.7553 287.896 126.309C291.528 137.139 295.132 144.481 301.318 152.843C309.354 162.617 313.866 175.417 305.633 185.729C317.387 208.492 304.627 229.886 291.127 247.07C288.483 249.822 284.195 257.478 280.32 258.002C279.269 258.935 277.589 260.082 276.404 260.916L277.833 262.734C278.004 264.414 278.015 266.218 279.198 267.716C280.336 268.792 281.553 269.896 281.587 271.502C279.773 273.545 277.431 271.263 275.71 270.249C275.05 271.507 275.145 274.497 273.031 274.38C220.611 277.87 166.926 280.157 114.626 280.023" transform="translate(14.19388 -7.446291)" id="âœ‹-Skin" fill="#D08B5B" stroke="none" />
    <path d="M129.633 1.18455C128.478 3.30291 127.186 5.3546 125.73 7.31842C121.547 -5.14292 109.15 0.739262 102.26 7.12519C100.49 6.70515 100.292 7.42917 99.9312 8.751C99.9008 8.86208 99.8694 8.97739 99.8357 9.09659C95.3108 10.2668 91.0452 10.4943 86.7167 11.7773C83.3617 11.8093 80.0528 12.0755 77.007 12.5796C14.8315 26.8507 -43.6898 239.103 46.0315 242.977C45.9939 243.096 45.9553 243.217 45.9162 243.339C44.9588 246.335 43.6814 250.333 48.2629 250.461L48.2913 251.188C65.1346 254.504 81.2803 254.53 98.1574 254.558C103.556 254.567 109.03 254.576 114.626 254.693C166.926 254.827 220.611 252.54 273.031 249.05C274.542 249.133 274.925 247.628 275.261 246.304C275.395 245.776 275.522 245.277 275.71 244.919C276.013 245.097 276.335 245.315 276.67 245.542C278.239 246.603 280.092 247.856 281.587 246.172C281.553 244.565 280.336 243.462 279.198 242.385C278.015 240.888 278.004 239.083 277.833 237.404L276.404 235.586C277.589 234.752 279.269 233.604 280.32 232.672C284.195 232.148 288.483 224.492 291.127 221.74C304.627 204.556 317.387 183.161 305.633 160.399C313.866 150.087 309.354 137.287 301.318 127.512C295.132 119.151 291.528 111.809 287.896 100.979C287.522 99.6356 287.144 98.2633 286.759 96.8673C277.825 64.4396 265.361 19.2013 223.304 22.8808C223.424 22.3179 223.584 21.7486 223.743 21.176C224.502 18.4604 225.281 15.6702 222.033 13.1455C216.893 10.5789 209.002 9.67503 202.831 10.9798L202.831 17.756L201.987 17.878C192.775 19.1945 181.453 20.3318 168.021 21.29Q147.46 22.7567 127.906 7.99283L127.511 7.69292L129.633 1.18455ZM108.719 153.464Q118.042 158.902 128.788 167.655L109.861 173.64Q90.535 202.125 84.048 202.125Q77.5609 202.125 74.4493 193.871L73.6466 194.538Q64.453 202.125 61.6674 202.125Q61.4151 202.125 61.2081 202.028Q59.031 201.01 61.8592 189.288L62.4322 182.135L60.9064 183.155C53.1404 188.317 48.5428 190.898 47.1134 190.898C44.8326 190.898 49.7179 172.029 56.6417 165.468Q63.5655 158.907 80.6933 152.374L87.034 151.65C95.2753 149.234 102.504 149.838 108.719 153.464ZM235.077 153.4L232.833 153.078L238.604 178.475L252.861 177.782L248.928 161.993L235.077 153.4Z" transform="translate(14.19388 17.88391)" id="ðŸ‘•-Top" fill="#EC7495" fill-rule="evenodd" stroke="none" />
    <path d="M132.221 26.9611C135.346 21.3742 142.138 5.2675 137.97 0C136.38 1.80423 136.155 4.37134 135.522 6.61825C133.935 12.2763 131.665 17.7772 128.4 22.7286C123.062 13.3623 110.125 18.9802 103.878 24.7466C102.308 24.5422 100.826 25.7474 100.422 27.1845C82.8434 31.0454 73.11 27.979 58.6422 41.3533C13.197 75.824 -40.1132 254.28 45.4376 265.052C42.538 275.234 57.0108 274.013 52.093 264.897C83.5304 261.027 109.901 241.4 138.26 229.612C143.857 228.289 148.757 230.811 153.549 233.277C154.528 233.781 155.502 234.283 156.477 234.749L156.848 234.924C161.828 236.686 166.496 239.178 171.42 241.097C197.188 250.722 250.453 270.137 276.098 259.402C274.55 264.113 279.467 271.153 284.091 268.747C285.645 268.348 286.783 266.628 286.243 265.127L286.215 265.042C286.151 264.855 286.127 264.842 286.143 265.003L286.158 265.121C286.183 265.494 286.174 265.513 286.13 265.177L286.028 264.318C285.812 263.325 284.732 262.215 283.946 261.466L283.478 261.026C282.279 259.758 283.109 257.457 282.086 256.01C282.651 255.613 283.202 255.194 283.731 254.752C288.886 253.138 291.852 246.809 295.398 243.034L295.525 242.861C305.557 229.165 316.62 214.062 314.897 196.429C314.336 191.003 312.827 185.66 310.662 180.621C320.065 166.985 311.857 155.051 303.966 143.58C302.612 141.612 301.268 139.658 300.023 137.71C282.311 102.899 281.87 40.5085 228.746 40.3875C232.173 27.2139 211.251 27.0151 202.645 29.2319C196.568 22.9768 194.544 14.4934 192.889 6.31571L192.665 5.20271C187.785 11.3854 194.335 28.9746 200.264 34.4789C177.438 39.3968 153.59 35.6211 132.221 26.9611ZM127.566 23.9584C122.528 20.958 115.554 22.2361 111.474 26.1435C109.666 27.7084 108.096 29.8239 106.038 31.0532C105.781 31.2063 105.518 31.3105 105.254 31.376C106.672 33.9785 108.839 36.4734 110.671 38.6198C120.495 46.9455 131.554 53.9375 143.709 58.5378C144.206 51.4601 146.73 44.5865 149.614 38.0837C146.925 37.2973 144.275 36.3922 141.672 35.368C141.341 37.0698 139.697 38.3841 138.658 39.7051C136.299 42.3861 134.727 45.6643 132.481 48.3919C129.979 50.9367 125.729 47.6912 127.526 44.6818C130.424 40.5759 134.168 36.8591 138.518 34.0634C135.651 32.8147 132.916 31.3451 130.272 29.701C130.16 29.8142 130.044 29.9222 129.927 30.0264C129.751 28.9668 128.248 29.2457 127.449 29.4192C127.039 29.0823 126.524 29.2932 126.031 29.4951C125.839 29.5737 125.651 29.6509 125.473 29.6939C125.38 29.5301 125.302 29.357 125.247 29.1753C121.991 32.2971 119.541 37.2411 115.34 39.1053C113.609 39.5688 111.602 37.9008 112.262 36.1182C113.373 33.381 122.389 27.5717 125.368 26.0367C124.716 25.1163 125.237 24.6617 126.294 24.7984C126.475 24.578 126.753 24.5098 127.043 24.6967C127.226 24.457 127.399 24.209 127.566 23.9584ZM73.2906 36.8152C81.6841 31.7293 91.8943 32.7875 101.046 30.3321L101.738 31.5109C124.82 69.6638 204.858 89.5799 228.331 41.6712C283.341 48.4351 271.226 118.097 299 151.273C302.569 155.82 306.609 161.142 306.504 167.124C305.881 173.484 302.277 179.154 300.233 185.164C299.287 187.278 301.75 189.526 303.678 187.743C305.066 186.459 306.501 185.218 307.839 183.89C307.896 184.848 307.96 185.807 308.024 186.765C308.31 191.032 308.595 195.298 308.286 199.582C306.623 215.746 295.279 228.94 285.354 241.401L284.437 242.555C278.882 249.506 274.673 253.397 265.316 254.947C239.71 256.395 214.308 248.593 189.737 241.047C185.099 239.622 180.491 238.207 175.916 236.865C170.095 234.89 164.307 232.823 158.48 230.866C154.387 228.732 150.32 226.163 145.799 225.008C169.293 212.442 194.242 203.03 219.746 195.106C231.715 201.619 246.963 205.459 260.069 200.116C261.639 199.445 262.763 196.887 262.081 195.317C258.567 187.211 258.687 178.341 258.805 169.59C258.847 166.431 258.89 163.287 258.761 160.2C257.644 146.352 254.279 132.75 252.363 118.989C250.909 111.098 250.417 102.977 247.829 95.369C247.812 95.1932 247.538 95.1862 247.542 95.369C247.558 96.2422 247.334 97.0424 247.107 97.8479C246.935 98.4625 246.761 99.0801 246.694 99.7355C245.822 112.846 247.19 125.849 248.557 138.847C249.907 151.685 251.256 164.518 250.448 177.447C245.195 174.094 239.992 171.159 234.002 169.438C231.711 162.898 216.851 161.537 211.464 164.862C206.832 165.171 202.47 165.576 197.907 166.09C188.766 156.537 133.481 154.945 120.313 159.49C119.262 159.369 118.062 159.197 116.764 159.01C107.413 157.668 92.9768 155.595 92.3769 166.809C85.6697 167.089 78.9943 168.748 72.8345 172.017C75.0183 166.33 74.5254 160.353 75.6647 154.504C75.7094 153.188 75.9784 151.29 76.2804 149.161C77.0822 143.505 78.1161 136.212 75.7986 133.816C71.6423 137.735 71.3174 148.166 69.8275 153.738C69.5865 155.953 69.0925 158.134 68.5989 160.313C67.7696 163.975 66.9416 167.631 67.318 171.433C66.9248 173.046 66.4 174.623 66.1116 176.253C60.6426 180.097 55.6217 184.991 51.5352 190.19C47.4679 195.821 45.2258 202.586 45.1667 209.46C45.9935 216.006 56.7411 207.857 61.2517 204.437C61.7678 204.046 62.2023 203.717 62.5309 203.478L62.714 203.347C62.201 204.784 61.531 206.2 60.8591 207.621C59.263 210.994 57.6563 214.39 58.1181 218.143C61.0327 228.309 70.5263 220.147 74.8535 215.437L75.1119 215.154C76.7257 225.748 89.8459 223.673 95.1499 216.782C101.021 210.314 110.82 200.603 112.781 192.266C146.456 183.377 180.148 172.334 215.289 170.914C217.629 176.931 219.462 183.275 218.654 189.711C161.372 196.645 116.358 237.357 62.4938 254.292C41.0315 261.524 22.175 252.597 14.5146 231.777C-0.652522 186.011 13.7738 135.937 31.7983 92.8659L32.0666 92.2225C40.9493 70.985 52.7576 49.3598 73.2906 36.8152ZM212.902 33.0063C213.485 33.6739 213.683 34.6479 213.47 35.5228C216.025 39.3089 217.429 43.5949 218.712 47.8527L219.072 47.4197C224.892 40.3595 228.193 33.9579 215.401 33.2606C214.569 33.1463 213.735 33.0615 212.902 33.0063ZM96.6205 44.1216C103.171 39.5425 80.4331 35.4501 91.0004 42.941C92.6721 44.0416 94.6047 44.832 96.6205 44.1216ZM195.249 41.3082C199.416 40.7386 203.551 39.9422 207.615 38.8807C210.041 42.3298 213.534 44.9544 216.996 47.4138L218.29 48.3297C212.594 54.799 205.728 60.5352 197.044 62.6005C197.018 55.8713 195.219 49.3763 194.306 42.7748C194.888 42.5376 195.265 41.9441 195.249 41.3082ZM156.168 39.7523C156.131 40.3048 155.969 40.8514 155.703 41.313C152.191 47.2183 149.107 53.3801 145.395 59.1603C153.407 62.0409 161.826 63.9192 170.321 64.6616C169.508 59.9018 169.666 55.0821 169.824 50.2624C169.916 47.4674 170.008 44.6724 169.91 41.889C165.29 41.4586 160.697 40.7423 156.168 39.7523ZM176.74 42.3138C180.818 42.4419 184.901 42.3414 188.968 42.0063C190.891 49.0888 192.11 56.3233 194.921 63.159C187.354 65.0235 179.474 65.3355 171.71 64.7793C172.087 63.5819 172.481 62.3897 172.759 61.1622C173.819 55.9122 174.2 50.5416 175.04 45.2559C176.824 45.5195 177.369 43.6195 176.74 42.3138ZM64.1259 51.3195C63.4852 51.3899 62.8523 51.4594 62.2514 51.4566C61.8464 51.4547 61.6791 51.9279 61.9338 52.2016C64.5523 55.8089 71.2334 54.7795 68.5375 51.7846C67.2437 50.9769 65.6623 51.1507 64.1259 51.3195ZM87.6141 75.5922C91.0296 73.3509 88.9816 67.93 84.7459 68.9889C80.969 70.1036 70.9103 76.5007 68.8972 79.6776C69.8581 81.4636 85.9059 77.0137 87.6141 75.5922ZM249.504 69.1557C251.841 68.8693 253.069 68.7188 253.28 69.113C253.514 69.5495 252.501 70.6541 250.364 72.9826C249.591 73.8245 248.672 74.8265 247.612 76.0148C242.722 80.1802 237.767 71.6468 243.853 69.748C246.178 69.5633 248.054 69.3334 249.504 69.1557ZM124.23 80.3294C120.145 79.2627 128.497 96.1993 130.793 96.4577C133.635 98.3464 137.185 95.2327 136.39 92.2822C134.37 87.3328 129.38 83.6259 124.853 80.7258L124.23 80.3294ZM182.165 89.4905C182.496 89.3449 182.787 89.8014 182.455 89.973C181.037 90.7038 179.496 92.2512 178.605 93.5569C175.552 97.2625 171.941 90.7143 176.633 90.2221C178.344 90.3416 180.594 90.1811 182.165 89.4905ZM207.255 99.6767C204.157 97.3058 204.127 109.447 209.328 110.17C211.06 110.683 213.299 108.879 212.524 107.068C210.991 104.428 208.31 102.654 207.255 99.6767ZM51.4226 107.483C52.1657 107.594 53.9568 106.901 55.9271 106.139C59.8153 104.635 64.401 102.861 63.0053 106.46C61.637 107.979 59.9047 108.016 57.9629 108.156L57.9099 108.151C57.6791 108.137 57.1131 108.17 56.401 108.213L56.4006 108.213L56.4 108.213C54.0403 108.353 50.0807 108.589 51.4226 107.483ZM161.332 114.533C162.869 111.826 166.401 108.955 169.79 109.19C171.869 109.123 172.681 112.024 170.849 112.988L170.789 113.013C169.639 113.458 160.919 115.63 161.332 114.533ZM103.791 118.446C103.625 116.172 106.239 115.359 108.001 116.102C111.145 117.428 113.581 122.305 112.586 125.459C111.785 128.588 106.906 129.28 105.356 126.376C104.464 123.695 104.344 121.135 103.791 118.446ZM269.484 121.554C268.221 121.998 266.968 122.438 265.736 122.691C263.704 124.548 277.069 125.024 277.556 122.887C278.419 121.96 277.999 120.684 276.843 120.262C274.4 119.826 271.923 120.697 269.484 121.554ZM64.5176 132.282C65.7838 129.247 61.1584 129.328 59.3294 130.227C58.9928 130.504 58.036 130.581 57.0631 130.659C55.4968 130.785 53.8891 130.913 54.7608 131.887C57.5246 133.921 62.0503 135.458 64.5176 132.282ZM226.915 135.688L226.816 135.697C223.596 136.376 223.028 141.058 225.862 142.625C229.593 144.405 232.19 140.46 234.215 137.385C234.585 136.822 234.936 136.289 235.271 135.826L235.403 135.646C235.418 134.305 230.897 135.049 228.323 135.473C227.718 135.573 227.221 135.655 226.915 135.688ZM178.783 135.453C179.789 133.654 181.702 136.576 182.862 138.347C183.17 138.818 183.425 139.207 183.595 139.404C184.75 141.914 181.419 143.871 179.776 141.571C178.756 139.778 178.302 137.466 178.783 135.453ZM135.317 143.232C134.86 142.386 135.755 142.654 136.638 142.919C137.161 143.076 137.68 143.231 137.912 143.154C139.076 143.223 140.127 143.455 140.785 144.471C141.839 146.1 139.791 147.846 138.177 147.002C136.619 146.167 136.994 143.989 135.317 143.232ZM21.5759 164.157L21.6102 164.069C22.7383 160.994 29.5468 156.433 32.929 157.627C33.0871 157.62 33.2436 157.77 33.2344 157.924L33.2896 158.305C33.48 159.657 33.5782 160.98 32.659 162.186C31.0129 164.761 29.4413 167.969 26.2755 168.973C23.1558 169.933 20.4834 167.061 21.5759 164.157ZM191.089 167.007C170.273 159.763 147.586 159.975 125.75 160.65L126.325 160.818C135.738 163.59 146.761 167.897 151.667 176.419C164.53 172.347 177.691 168.976 191.089 167.007ZM287.848 172.847C280.562 176.998 275.288 157.564 284.471 161.738L285.126 162.419C287.786 165.206 291.899 169.917 287.848 172.847ZM108.19 162.821L109.229 162.874C107.998 164.441 107 166.228 106.392 168.005C102.329 167.166 98.2324 166.737 94.2046 166.764C96.5132 162.188 103.274 162.555 108.043 162.813L108.19 162.821ZM109.596 168.724C111.953 166.91 114.662 165.58 116.99 163.747C121.798 164.502 126.604 165.705 131.088 167.507C127.349 168.604 123.818 170.16 120.882 172.603C117.279 170.94 113.471 169.676 109.596 168.724ZM216.077 165.174C222.177 164.76 228.413 167.221 231.616 172.726C227.572 172.244 223.538 172.572 220.175 174.849C219.243 173.108 218.188 171.423 217.064 169.807C217.95 168.917 217.967 167.136 216.965 166.326C216.404 165.872 215.779 165.552 215.115 165.326L216.077 165.174ZM124.602 174.473C128.227 172.54 136.141 174.116 137.343 170.526C140.819 172.535 144.003 175.01 146.773 178.014C142.098 179.578 137.448 181.232 132.836 182.98C132.188 179.422 128.406 176.623 124.922 174.653L124.602 174.473ZM72.0233 175.629C89.8867 166.94 113.791 170.575 127.043 185.221C121.785 186.652 116.032 187.007 111.262 190.034C108.414 189.47 106.692 192.2 105.162 194.624C104.633 195.462 104.127 196.264 103.605 196.88C102.826 197.836 101.862 199.141 100.766 200.626C96.0453 207.02 88.8557 216.757 83.2228 216.404C81.0689 215.921 81.3639 214.31 81.8664 212.55L82.2703 211.154C83.7688 206.041 85.4547 200.97 87.0343 195.882C88.228 192.038 82.2416 190.527 80.8967 194.24C77.6979 202.896 72.0084 210.867 64.2988 216.284C66.3595 207.416 71.2811 199.135 74.4975 190.554C75.4941 187.515 70.8127 185.619 69.1828 188.38C64.2255 195.104 57.941 200.485 50.7873 204.779C51.9934 194.67 58.673 185.792 66.5198 179.31C65.9115 179.46 65.3088 179.636 64.7139 179.845C67.083 178.474 69.3918 176.378 72.0233 175.629ZM242.752 189.766C241.964 183.219 240.211 176.476 235.768 171.317C242.231 174.678 246.837 180.124 250.844 185.923C251.12 188.579 251.573 191.213 252.305 193.77C249.337 194.349 246.214 194.237 243.18 193.804C243.23 192.792 243.059 191.725 242.896 190.705C242.845 190.387 242.794 190.073 242.752 189.766ZM220.991 176.46C225.711 176.172 229.733 177.25 234.122 178.974C234.625 180.995 234.927 183.066 235.131 185.133C233.34 185.173 231.602 186.051 229.72 186.145C227.864 186.238 225.686 186.089 223.764 185.56C223.396 182.425 222.387 179.373 220.991 176.46ZM192.375 180.429C195.152 179.352 199.24 182.322 196.195 184.649C193.977 186.111 190.944 184.15 189.145 182.815C188.153 181.709 191.508 180.63 192.375 180.429ZM223.916 187.728C223.93 188.437 223.906 189.15 223.847 189.867C227.775 190.315 231.646 191.271 235.491 192.202L235.466 191.069C235.457 190.688 235.448 190.307 235.435 189.931C231.634 190.926 226.965 189.896 223.916 187.728ZM138.499 200.854C141.581 197.858 132.92 192.072 131.985 196.327C132.235 199.049 135.574 203.025 138.499 200.854ZM27.6544 196.921C35.7847 191.784 36.7644 204.224 24.7425 200.589C23.9492 199.425 25.6627 198.278 26.8849 197.461C27.1863 197.259 27.4577 197.078 27.6544 196.921ZM279.842 208.644C280.634 207.977 281.605 207.515 282.656 207.856L282.758 207.891C285.935 208.97 283.472 213.189 280.748 211.705C279.822 211.031 278.817 210.465 277.713 210.096C277.305 209.689 278.058 209.419 278.788 209.157C279.243 208.993 279.691 208.833 279.842 208.644ZM203.059 225.245C204.784 224.34 204.715 211.003 201.806 214.769C201.627 215.25 201.434 215.738 201.238 216.232C200.135 219.014 198.964 221.97 200.002 224.857C200.478 226.177 202.263 226.465 203.059 225.245ZM64.3167 217.116L64.201 217.342C63.607 218.565 65.0042 216.951 64.4655 217.189C64.4176 217.162 64.3668 217.139 64.3167 217.116ZM94.1674 229.136C88.3755 225.801 101.054 221.309 101.53 226.749C101.716 230.441 96.5802 230.245 94.1674 229.136ZM257.423 233.258C262.189 230.677 252.993 222.817 251.449 225.55C251.215 226.392 251.611 227.264 251.978 228.07C252.078 228.291 252.176 228.508 252.259 228.717C252.959 231.04 254.195 234.91 257.423 233.258ZM39.3983 232.27C39.63 225.74 50.3393 234.242 49.3504 237.807C48.7504 242.732 42.5956 240.431 41.202 237.106C40.337 235.584 39.6085 234.003 39.3983 232.27ZM152.375 262.522C147.798 260.135 146.66 249.247 154.089 254.481C160.699 256.762 158.883 264.924 152.375 262.522ZM202.058 259.121C197.183 254.504 194.333 257.146 197.579 263.076C200.538 267.675 206.509 262.38 202.058 259.121ZM104.48 267.429C99.9184 263.922 106.849 258.393 110.798 260.622C111.308 261.228 110.867 261.327 110.22 261.473C109.32 261.676 108.023 261.968 108.33 263.834C109.098 265.966 106.805 268.803 104.48 267.429Z" transform="translate(11.8921 0.3721746)" id="ðŸ–-Ink" fill="#000000" fill-rule="evenodd" stroke="none" />
  </g>
</svg>