<?xml version="1.0" encoding="utf-8"?>
<svg width="314px" height="273px" viewBox="0 0 314 273" version="1.1" xmlns:xlink="http://www.w3.org/1999/xlink" xmlns="http://www.w3.org/2000/svg">
  <desc>Created with Lunacy</desc>
  <defs>
    <rect width="313.783173" height="272.9061" id="artboard_1" />
    <clipPath id="clip_1">
      <use xlink:href="#artboard_1" clip-rule="evenodd" />
    </clipPath>
  </defs>
  <g id="body/Hoodie" clip-path="url(#clip_1)">
    <use xlink:href="#artboard_1" stroke="none" fill="#FFFFFF" />
    <path d="M298.533 279.065C305.946 278.718 302.965 266.132 302.433 261.51C296.563 244.627 297.943 226.208 295.634 208.513C294.196 191.994 292.349 175.527 290.794 159.021C287.741 125.515 265.82 57.3052 240.804 46.3355C237.652 32.9151 224.636 20.3874 208.169 20.3874C196.937 7.48335 183.418 -1.59824 166.078 0.23541C158.912 0.551877 151.963 7.92816 145.097 9.35263C141.253 9.86717 107.135 8.54285 100.301 12.4823C95.5409 14.8547 91.2434 19.2387 92.6432 24.82C94.8765 31.582 87.936 24.2653 73.4579 31.4826C43.935 48.6921 61.5766 71.7147 62.3584 72.4281C43.935 97.3072 27.832 117.491 20.3814 147.901C15.5526 170.477 16.0962 193.784 12.0504 216.476C10.6219 224.345 8.43035 231.944 6.05895 239.585C3.48884 249.585 2.23914 274.509 0.822516 274.732C-1.75795 275.354 2.31388 280.497 5.04817 280.501C80.8563 292.705 157.859 281.006 234.075 279.095C255.553 278.37 277.055 278.203 298.533 279.065Z" transform="translate(4.796559 -12.65862)" id="âœ‹-Skin" fill="#D08B5B" stroke="none" />
    <path d="M145.192 23.9982C145.192 31.8286 173.207 60.9257 182.875 59.0061C189.32 57.7264 199.058 49.3805 212.089 33.9685L212.089 23.9982L209.275 13.1443C225.217 13.6897 237.723 25.9551 240.804 39.0735C265.57 49.9335 287.303 116.894 290.697 150.743L290.794 151.759C292.349 168.265 294.196 184.732 295.634 201.251C297.943 218.946 296.563 237.365 302.433 254.248L302.467 254.534C303.08 259.368 305.798 271.463 298.533 271.803C277.055 270.941 255.553 271.108 234.075 271.833C157.859 273.744 80.8563 285.443 5.04817 273.239C2.31388 273.235 -1.75795 268.092 0.822516 267.47C2.23914 267.247 3.48884 242.323 6.05895 232.323L6.54683 230.743C8.729 223.633 10.7204 216.54 12.0504 209.214C16.0962 186.522 15.5526 163.215 20.3814 140.639C27.832 110.229 43.935 90.0452 62.3584 65.166C61.5766 64.4527 43.935 41.4301 73.4579 24.2206C87.936 17.0033 94.8765 24.32 92.6432 17.558C91.2434 11.9767 95.5409 7.59267 100.301 5.22029C107.135 1.28084 141.253 2.60516 145.097 2.09062C146.883 1.7201 148.675 0.9469 150.474 0L150.162 1.00886C146.849 11.7858 145.192 19.449 145.192 23.9982Z" transform="translate(4.79656 -5.396553)" id="ðŸ‘•-Top" fill="#9FD8E5" stroke="none" />
    <path d="M118.093 0.915484L117.803 0.962608C113.266 1.70945 108.447 2.86617 104.6 5.40969C100.995 7.79324 98.9975 11.0651 97.333 14.8825L97.2733 15.02C95.9753 18.0156 94.4934 21.9674 91.0363 23.0704C89.422 23.5851 87.6495 23.5599 85.9215 23.5354C85.3245 23.5269 84.7329 23.5185 84.1549 23.5324C81.7827 23.5894 79.4033 23.8783 77.165 24.6699C68.4688 27.7448 62.4686 35.3244 60.1566 43.8548C58.7235 49.1428 58.5505 54.7893 59.2671 60.1979C59.5732 62.51 60.569 65.0421 62.7072 66.3366C63.4061 66.7596 64.1672 66.9919 64.9083 67.0232C56.6571 75.2104 49.2755 84.1962 42.5545 93.6391C37.0199 101.416 31.7409 109.439 27.5059 117.962C22.8548 127.324 19.7707 137.131 18.1316 147.398C16.471 157.798 15.9259 168.308 15.0156 178.784C14.1387 188.88 12.5119 198.753 10.0879 208.609C7.3375 219.791 4.04968 230.875 1.91918 242.192C0.835894 247.946 0.066013 253.762 0.00617169 259.617C-0.053286 265.384 0.290801 271.457 2.18501 276.952C2.79263 278.714 4.47202 279.925 6.42684 279.64C8.12656 279.391 10.0261 277.828 9.77872 275.954C9.13312 271.064 8.33293 266.231 8.24854 261.288C8.16453 256.375 8.53624 251.434 9.15422 246.559C10.3118 237.434 12.6361 228.519 14.8881 219.604L15.4817 217.244C17.9705 207.29 20.1585 197.317 21.269 187.119C22.3519 177.176 22.6787 167.173 23.6477 157.22C24.624 147.196 26.4211 137.265 30.1163 127.821C33.4747 119.239 38.2111 111.222 43.2197 103.455L43.889 102.421C52.7029 88.8519 62.7923 76.0369 74.6348 64.8146C81.0919 58.6953 88.0473 52.9862 95.3871 47.8888C99.1996 45.2409 103.072 42.6776 107.062 40.2866C109.92 38.5735 112.849 36.9726 115.733 35.3028C117.264 36.1658 118.696 37.5918 119.701 38.5065L120.69 39.4157C122.659 41.2425 124.58 43.115 126.546 44.9446C131.084 49.167 135.485 53.516 140.151 57.61C144.618 61.5297 149.414 65.2145 154.615 68.1781C157.294 69.7042 160.103 71.0054 163.003 72.0881C165.408 72.9861 169.446 74.379 171.465 72.2229C172.661 71.412 173.088 69.8744 172.066 68.6695C170.917 66.1516 166.92 65.5607 164.465 64.6221C161.603 63.5286 158.875 62.0584 156.277 60.469C151.315 57.4322 146.835 53.7539 142.468 49.9686L141.565 49.1841C136.603 44.8567 131.708 40.4467 126.147 36.8393C124.211 35.5831 121.765 33.9915 119.274 33.1817L119.835 32.834C120.034 32.7081 119.913 32.3823 119.669 32.4512C119.18 32.5893 118.692 32.7349 118.205 32.8853C115.922 32.3704 113.657 32.6452 111.766 34.576C111.609 34.7361 111.807 34.9781 112.006 34.8772C112.459 34.6482 112.929 34.5567 113.404 34.5663C107.401 36.9026 101.604 39.9928 96.1086 43.1121C88.9077 47.1986 82.0701 51.9541 75.7219 57.2012C73.1752 59.3066 70.7079 61.4906 68.3096 63.7394C68.007 62.9862 67.1193 62.4947 66.1484 62.6254C65.7115 62.6842 64.8546 60.2333 64.7617 59.5605C64.471 57.4566 64.4821 55.2558 64.56 53.1377C64.7119 48.9775 65.4787 44.7123 67.2766 40.908C70.2457 34.6252 76.2133 29.4909 83.5124 28.9217C87.6579 28.5989 92.006 28.89 95.6214 26.5136C98.4127 24.6784 100.025 21.8952 101.298 18.9605L101.466 18.5684C102.721 15.5969 104.026 12.3693 106.648 10.2769C109.391 8.08808 112.957 7.09852 116.371 6.29004L117.342 6.0631C126.824 3.8641 136.437 4.08106 146.08 4.44758L149.126 4.56565C149.214 4.56937 149.25 4.44316 149.172 4.40332C139.708 -0.4416 128.448 -0.753971 118.093 0.915484ZM153.347 8.85373C150.993 8.226 148.579 9.6233 147.895 11.8583C147.189 14.1652 147.261 16.8119 147.009 19.2078C146.887 20.3655 146.965 21.5247 147.043 22.6811C147.098 23.4936 147.153 24.3048 147.138 25.113C145.856 23.7824 144.558 22.4685 143.209 21.2224C142.863 20.9018 142.42 21.3035 142.588 21.6874C145.35 27.9888 149.777 33.8446 154.257 39.0815C158.862 44.4656 164.051 49.373 169.506 53.9435C172.181 56.1852 174.942 58.3283 177.76 60.3987L178.056 60.6155C181.029 62.7744 184.189 64.6488 188.072 64.0816C191.39 63.5969 194.088 61.6339 196.572 59.5617L197.056 59.1552C199.821 56.8145 202.478 54.3468 205.003 51.7629C210.087 46.562 214.662 40.8288 218.674 34.8122C218.72 34.7425 218.767 34.6728 218.814 34.6029C219.762 33.1876 220.744 31.7224 220.234 29.9446C219.988 29.0875 219.464 28.5041 218.805 28.1839C218.648 27.991 218.466 27.8041 218.251 27.6273L218.212 27.5941C218.05 27.1641 217.891 26.7334 217.738 26.3004C217.487 25.6224 217.23 24.9481 216.961 24.2765C216.382 22.8326 215.812 21.3851 215.189 19.9584C214.594 18.5957 214.007 17.2282 213.393 15.8733L213.34 15.7561C212.836 14.6273 212.472 13.621 211.29 13.0199C211.226 12.9875 211.122 12.9857 211.072 13.0471C210.241 14.069 210.266 15.2537 210.291 16.4917C210.292 16.54 210.293 16.5885 210.294 16.637L210.3 17.039C210.311 19.0328 210.317 21.0254 210.397 23.0177C210.419 23.5603 210.418 24.1663 210.418 24.8079C210.416 27.5162 210.413 30.8589 212.079 32.7477C211.187 34.0545 210.27 35.3461 209.324 36.6161C205.062 42.3318 200.187 47.6477 194.922 52.5098L194.811 52.613C192.686 54.5965 189.893 57.7832 186.801 58.0587C185.529 58.1721 184.354 57.5142 183.301 56.8449L182.728 56.4768C181.193 55.4894 179.7 54.435 178.218 53.3746C171.709 48.7148 165.804 43.4521 159.992 38.0107C158.015 36.1606 156.093 34.2543 154.183 32.3377L151.73 29.8716C151.016 29.1545 150.31 28.4248 149.607 27.6908L148.2 26.2192C149.477 24.2616 151.304 22.6923 152.557 20.6993C153.913 18.5424 155.522 16.5189 156.443 14.1458C157.286 11.9711 155.505 9.42932 153.347 8.85373ZM216.195 16.0592C219.307 15.0115 223.197 15.9624 226.24 16.8775C229.63 17.8977 232.763 19.7764 235.449 22.0076C238.283 24.3607 240.625 27.2662 242.279 30.512L242.437 30.8247C243.949 33.8356 245.67 37.969 244.908 41.2767C244.886 41.3706 244.861 41.461 244.832 41.5485C251.006 44.4984 256.708 48.1932 261.673 52.8762C267.455 58.3287 272.351 64.5333 276.493 71.2365C292.947 97.8597 295.843 129.834 297.787 160.196L298.271 167.894C299.326 184.518 300.561 201.102 303.769 217.495L304.003 218.679C304.722 222.276 305.505 225.878 306.29 229.488C309.252 243.106 312.236 256.829 311.843 270.748C311.694 276.023 303.661 275.987 303.428 270.748C302.551 251.025 297.809 231.983 294.598 212.568C288.948 178.412 291.779 143.198 283.773 109.384C280.631 96.1141 275.765 83.2421 268.815 71.3969C265.382 65.5453 261.454 59.8909 256.854 54.8427C252.895 50.499 248.781 46.3186 244.155 42.667C242.677 44.1041 239.724 43.3718 238.952 41.2767C238.422 39.837 238.576 38.1538 238.236 36.6455C237.92 35.246 237.485 33.8584 236.905 32.5404C235.749 29.9137 234.052 27.3913 232.093 25.2654C229.976 22.9675 227.544 21.0582 224.822 19.4819C222.082 17.8947 219.085 17.4207 216.195 16.261C216.097 16.2219 216.088 16.0953 216.195 16.0592ZM188.203 69.8372C188.166 69.501 187.698 69.5003 187.663 69.8372C186.924 76.7779 186.101 83.6806 185.587 90.6421C185.084 97.4491 184.633 104.254 184.423 111.075C184.002 124.819 183.997 138.568 183.741 152.314C183.462 167.303 183.336 182.29 183.485 197.274L181.564 197.408C170.69 198.207 159.807 198.906 148.924 199.587L136.68 200.351C136.523 200.36 136.462 200.508 136.502 200.617C136.334 200.668 136.187 200.784 136.149 200.953C135.594 203.399 135.599 205.96 135.081 208.433C134.536 211.038 133.745 213.623 132.781 216.11C130.855 221.08 128.108 225.806 124.895 230.094C121.68 234.383 117.878 238.344 113.737 241.805C111.55 243.632 109.407 245.418 107.945 247.881C106.518 250.287 105.796 252.982 105.134 255.659L101.11 272.078C101.033 272.392 100.948 272.711 100.863 273.033C100.377 274.861 99.8624 276.794 100.6 278.578C101.71 281.266 104.837 282.356 107.197 280.268C109.726 278.031 109.922 273.507 110.614 270.406L112.793 260.642L112.858 260.345C113.415 257.766 113.806 254.958 114.935 252.557C116.04 250.206 118.105 248.351 119.905 246.505L120.154 246.249C127.785 238.367 134.485 228.834 137.082 218.19C137.807 215.219 138.231 212.201 138.262 209.146C138.288 206.482 138.185 203.314 137.102 200.832C137.085 200.794 137.06 200.765 137.036 200.737C152.005 200.873 166.971 200.81 181.94 200.746L181.944 200.746C182.471 200.745 182.998 200.738 183.525 200.734C183.67 211.964 183.973 223.193 184.493 234.419C185.212 249.901 185.936 265.396 187.034 280.858C187.113 281.98 188.751 281.982 188.832 280.858C189.806 267.128 190.493 253.368 191.13 239.62L191.366 234.536C191.888 223.239 192.37 211.944 192.41 200.634C196.399 200.568 200.387 200.48 204.377 200.371C208.18 200.268 211.98 200.133 215.781 199.989C217.555 199.923 219.329 199.855 221.103 199.785C222.983 199.712 224.645 199.771 225.727 198.077C226.196 197.342 225.944 196.538 225.44 195.919C224.358 194.589 222.695 194.729 221.106 194.862C220.849 194.884 220.593 194.905 220.343 194.921L217.682 195.079L211.219 195.459C208.685 195.609 206.151 195.762 203.617 195.921C199.882 196.154 196.148 196.396 192.416 196.647C192.362 169.857 192.235 143.06 191.598 116.277C191.416 108.587 191.037 100.915 190.47 93.2423C190.016 87.0892 189.389 80.9765 188.738 74.852L188.203 69.8372ZM268.222 88.7535C268.246 88.3968 268.789 88.3912 268.797 88.7535C268.866 91.8213 268.932 94.8892 268.998 97.9574C269.526 122.68 269.2 147.461 271.756 172.098C272.961 183.715 275.181 195.16 277.749 206.558C279.063 212.391 280.442 218.209 281.752 224.042C283.028 229.727 284.397 235.44 285.41 241.177C286.405 246.816 287.296 252.499 287.696 258.211L287.746 258.956C287.778 259.48 287.834 260.051 287.893 260.649C288.144 263.207 288.442 266.257 287.17 268.244C285.469 270.901 282.213 270.949 280.391 268.413C279.126 266.653 279.028 263.879 278.941 261.405C278.911 260.532 278.881 259.697 278.802 258.956C278.495 256.062 278.17 253.166 277.801 250.278C277.081 244.646 276.133 239.027 275.146 233.433C273.091 221.785 270.111 210.282 267.911 198.652C265.656 186.735 264.053 174.732 263.986 162.598C263.94 154.278 264.542 145.97 265.144 137.665C265.428 133.755 265.711 129.847 265.927 125.938C266.611 113.537 267.389 101.146 268.222 88.7535ZM72.7026 149.536C72.5722 148.773 73.5615 148.3 74.0175 148.998C79.231 156.974 81.7448 165.637 82.8043 174.971C83.7402 183.208 83.4644 191.565 82.9984 199.824C82.5012 208.633 81.9212 217.439 81.3347 226.243L80.4336 239.745L78.1723 273.591C78.0104 276.013 77.4442 278.214 75.2965 279.34C75.0245 279.56 74.741 279.758 74.4107 279.929C73.2504 280.531 71.7114 280.227 71.0404 279.071L71.3094 279.243C71.5438 279.386 71.2807 279.186 70.5199 278.644L69.8743 277.833C69.4052 277.148 69.1056 276.476 68.9851 275.662C68.8464 274.726 68.9436 273.722 69.0379 272.748C69.0709 272.407 69.1035 272.07 69.1255 271.741L70.6077 249.547C71.7605 232.293 73.1065 215.044 74.1211 197.78C74.5937 189.735 74.9248 181.681 74.7007 173.621C74.4775 165.606 74.0567 157.455 72.7026 149.536ZM228.562 198.491C228.458 198.399 228.29 198.464 228.285 198.603C228.214 200.917 229.431 203.576 230.48 205.87C230.708 206.369 230.928 206.85 231.125 207.307L231.315 207.744C232.458 210.366 233.705 212.991 235.262 215.404C237.082 218.225 239.101 220.927 241.34 223.448C243.451 225.824 245.828 227.884 248.115 230.091C250.385 232.282 251.769 234.564 252.495 237.588C253.318 241.022 253.68 244.586 254.125 248.081L254.317 249.616C254.694 252.688 255.031 255.764 255.329 258.845C255.407 259.654 255.444 260.53 255.482 261.436C255.618 264.698 255.771 268.342 257.936 270.608C259.546 272.294 262.254 271.677 263.445 269.92C264.557 268.277 264.51 266.369 264.332 264.489L264.271 263.88C264.071 261.959 263.827 260.042 263.583 258.126C263.079 254.187 262.521 250.254 261.898 246.331L261.786 245.616C260.765 239.006 259.982 231.967 255.141 226.838C252.82 224.38 249.958 222.399 247.404 220.179C245.047 218.131 242.775 215.958 240.643 213.689C238.35 211.249 236.076 208.759 234.033 206.117C233.013 204.798 232.041 203.445 231.115 202.063C230.312 200.864 229.653 199.466 228.562 198.491Z" transform="translate(0.7667941 -7.871763)" id="ðŸ–-Ink" fill="#000000" fill-rule="evenodd" stroke="none" />
  </g>
</svg>
