<?xml version="1.0" encoding="utf-8"?>
<svg width="314px" height="273px" viewBox="0 0 314 273" version="1.1" xmlns:xlink="http://www.w3.org/1999/xlink" xmlns="http://www.w3.org/2000/svg">
  <desc>Created with Lunacy</desc>
  <defs>
    <rect width="313.783173" height="272.9061" id="artboard_1" />
    <clipPath id="clip_1">
      <use xlink:href="#artboard_1" clip-rule="evenodd" />
    </clipPath>
  </defs>
  <g id="body/Whatever" clip-path="url(#clip_1)">
    <use xlink:href="#artboard_1" stroke="none" fill="#FFFFFF" />
    <path d="M423.105 113.689C427.035 111.698 430.871 109.535 434.647 107.284C437.306 105.74 434.952 101.851 432.225 103.256C430.83 103.975 429.441 104.701 428.047 105.415C429.144 104.498 430.161 103.5 431.073 102.411L431.01 102.351C434.526 99.2936 430.01 93.5258 426.012 96.0368C422.487 98.5174 418.929 101.048 414.882 102.682C406.5 106.132 397.254 106.702 388.257 106.802C384.964 106.562 381.82 107.115 378.625 107.732C379.877 102.856 383.012 99.1732 384.674 94.45C385.901 89.6814 378.809 86.4332 376.296 91.0169C375.679 92.1425 375.091 93.2812 374.516 94.4254C369.083 99.2213 360.012 98.7988 354.533 103.948C351.412 106.637 349.885 110.284 349.282 113.945C348.872 116.431 349.509 118.924 347.96 121.126C340.473 131.404 328.642 147.651 322.634 158.963C318.379 132.083 307.021 98.8354 295.286 74.2566C291.406 66.396 286.966 58.7151 281.139 52.0521C281.799 49.83 279.468 45.8857 277.985 47.1C273.421 41.689 265.354 40.2882 258.868 37.5982C250.111 33.9641 242.846 26.4104 239.275 17.825C234.686 1.47591 223.391 -0.600812 207.725 0.121753C192.732 0.103484 181.64 6.32731 178.368 21.1403C171.723 32.3833 156.031 30.5239 144.742 33.5003C136.469 35.3347 128.44 38.1709 120.809 41.7714C112.321 33.9563 81.9185 66.7551 79.155 75.1962C80.7819 75.5023 82.3987 75.8707 84.001 76.3195C85.428 76.72 84.8288 78.812 83.3895 78.4772C81.5985 78.0596 79.796 77.7721 77.985 77.5727C77.9298 77.7408 77.8815 77.9078 77.8454 78.073C77.6421 78.0596 77.4392 78.0428 77.2359 78.0294C77.6866 78.2572 78.1205 78.5215 78.5432 78.8623C79.5651 79.6859 78.2348 81.2753 77.1488 80.6191C76.1257 79.8761 74.7858 79.9935 73.5587 79.7441C73.4858 82.1933 64.4816 79.4533 63.083 78.6416C56.8668 77.887 50.4719 78.6968 44.6688 75.7871C36.9473 74.2089 29.168 72.4636 21.5332 70.4536C19.512 71.2183 17.6125 73.955 19.2178 75.9631C20.1208 76.8769 18.9601 78.369 17.8231 77.7196C14.0097 75.5411 11.0606 72.1404 8.56033 68.4768C7.38345 67.3244 5.29437 67.5723 3.71318 67.094C3.50182 67.4627 3.37715 67.8736 3.37907 68.2949C-3.32814 69.3664 1.45648 76.4765 4.8283 78.6919C3.03958 79.8224 2.97169 82.0359 3.1282 83.8845C2.7492 84.5429 2.62261 85.3591 2.95251 86.0969C4.21378 88.9178 6.94154 91.2936 9.01566 93.5791C11.3057 96.1032 13.3476 98.6411 16.1341 100.687C26.7551 108.545 39.5723 112.938 52.7213 114.657C57.39 115.353 64.1057 116.418 66.9965 120.249C66.2872 124.797 64.9849 129.158 63.8034 133.593C62.1513 139.479 62.2637 145.641 62.2418 151.642C62.0109 151.462 61.5674 151.499 61.5015 151.842C61.1171 154.33 60.8313 156.873 59.2735 158.963C57.9079 162.85 56.9992 166.996 56.4886 171.079C54.4432 190.438 53.9549 210.367 58.5665 229.424C60.3461 236.494 63.2403 243.213 67.1837 249.4C68.3594 251.245 70.2498 251.786 71.9472 251.423C77.6283 254.288 84.7851 255.206 90.9085 254.478C111.784 248.743 104.51 262.555 133.78 258.325C184.303 252.078 235.361 264.354 285.776 257.147C287.018 266.456 303.273 263.785 308.919 259.85C325.848 247.635 334.255 208.96 342.751 189.341C348.591 173.877 358.371 146.489 371.178 136.112C375.018 133.197 379.66 131.662 384.305 130.423C401.639 126.088 419.039 121.988 436.406 117.773C439.352 117.069 438.822 112.194 435.673 112.507C431.493 112.922 427.299 113.297 423.105 113.689Z" transform="translate(-33.08596 -8.190742)" id="âœ‹-Skin" fill="#D08B5B" stroke="none" />
    <path d="M38.2811 100.643C37.1073 100.502 35.9565 100.096 34.8134 99.7757C33.068 99.2806 31.3572 98.7035 29.6732 98.0445C26.1978 96.6934 22.8259 95.0958 19.6651 93.1411C14.5594 89.9802 10.0483 85.9294 6.64578 81.0521L6.41218 80.7119C4.4697 77.8402 0.886589 71.4635 4.90424 69.2832C2.31484 67.1833 -0.132516 63.4117 0.00557945 60.5002C0.201214 56.3824 5.4028 56.4387 8.09183 58.1844C9.85254 59.3274 11.1721 60.9284 12.4955 62.5037C13.9609 64.2532 15.526 65.9211 17.1524 67.5258C17.584 67.9502 18.0198 68.3663 18.4632 68.7756L18.9093 69.1826C18.8402 69.0227 18.7789 68.8588 18.7252 68.6909C17.8275 65.9771 18.8978 62.4439 21.6942 61.2003C23.4055 60.4389 25.1828 60.9037 26.8411 61.5501L27.0953 61.6508C29.3278 62.5477 31.5872 63.3411 33.9118 63.9778C43.3867 66.5728 53.2758 67.0047 62.9847 68.3004C66.7248 68.803 70.5339 69.4355 74.2548 70.3663C75.6741 64.5174 79.1533 58.9107 82.9279 54.2977C101.003 32.2303 130.812 24.9371 158.082 20.2161C159.383 19.9921 160.567 20.7598 161.608 21.4346C162.556 22.0493 163.385 22.5868 164.074 22.2265C166.817 20.7968 169.23 18.7714 171.347 16.571C175.862 11.8762 179.065 6.35474 182.828 1.12373C184.689 -1.46013 188.97 0.851942 187.244 3.62568L186.398 4.98124C182.916 10.5338 179.061 16.2561 174.067 20.5622C171.413 22.8482 168.467 24.654 165.099 25.7817C162.548 26.6347 158.969 27.3532 156.176 26.5263L155.841 26.0525C155.952 26.211 156.063 26.369 156.176 26.5266C163.464 36.7764 172.609 45.4513 182.245 53.6385C191.972 61.8978 202.464 69.2939 213.02 76.5255L213.9 77.1277C231.096 64.9535 245.623 49.0741 255.815 30.9314C253.679 30.6817 251.565 29.3529 249.739 28.3621C247.541 27.1637 245.474 25.7336 243.863 23.8274C240.353 19.6761 240.809 14.3259 240.176 9.2885C240.138 8.97576 240.564 8.89757 240.759 9.05394C242.662 10.5879 243.33 13.101 244.124 15.2716C244.998 17.6581 245.988 19.6243 247.994 21.3031C249.862 22.8672 252.141 24.0172 254.354 25.0411C255.496 25.5664 261.162 26.9165 261.807 28.0347C271.597 25.8045 281.133 29.6579 288.387 36.1585C295.395 42.4394 300.539 50.6043 305.081 58.6649C309.926 67.2653 313.896 76.2303 317.318 85.445C320.786 94.7979 323.444 104.355 324.906 114.199C326.139 122.499 326.896 130.928 327.385 139.32L327.445 140.369C334.687 129.337 342.11 118.421 349.686 107.602C347.963 103.138 349.87 98.5806 353.096 95.1329C356.671 91.3167 361.616 89.5445 366.346 87.4819L366.967 87.209C369.247 86.1997 371.519 85.0882 373.488 83.5763C375.383 82.1169 376.776 80.1064 378.77 78.7623C381.67 76.8039 386.933 77.2209 387.067 81.4988C387.137 83.8485 386.097 86.4245 385.146 88.5355C384.068 90.9224 382.614 93.0852 380.888 95.0734C380.808 95.166 380.721 95.2391 380.632 95.297L380.566 95.3377C382.952 95.7212 385.357 96.0302 387.808 96.1382C392.752 96.3579 397.751 96.0042 402.592 94.9915C407.548 93.9564 412.35 92.2739 416.808 89.928C420.617 87.9249 424.146 85.3336 428.473 84.7231C428.872 84.6636 429.275 84.6263 429.689 84.604C430.38 84.5668 431.07 85.3561 430.798 86.0184C430.648 86.3836 430.491 86.7448 430.318 87.1097C428.822 90.3076 426.528 93.4101 423.665 95.7649L423.444 95.9446C424.453 95.6058 425.447 95.2261 426.425 94.7979C432.175 92.2848 437.392 88.4872 443.556 86.9607C443.848 86.8862 444.143 86.8192 444.439 86.7559C446.345 86.3575 447.35 88.368 446.23 89.7456C446.05 89.969 445.869 90.1886 445.681 90.4083C442.931 93.7218 439.897 96.7971 436.552 99.5596C435.405 100.505 434.223 101.421 433.019 102.297C436.793 101.187 440.514 99.8724 444.155 98.417C445.601 97.8396 446.725 99.2618 446.878 100.431C447.385 104.293 443.036 107.102 440.119 108.985L439.996 109.065C437.073 110.957 433.855 112.394 430.56 113.547C424.224 115.77 417.57 116.779 410.926 117.683L407.699 118.119C394.927 119.853 381.586 121.925 372.422 131.572C367.285 136.977 363.81 143.694 360.63 150.302C357.454 156.904 354.665 163.68 352.018 170.493C349.275 177.545 346.886 184.726 344.346 191.849C342.014 198.389 339.228 204.845 336.469 211.236L336.034 212.244C330.176 225.827 323.179 238.619 313.428 249.96C311.821 251.832 309.224 249.174 310.708 247.32C320.908 234.557 328.005 219.497 333.862 204.474C336.528 197.639 338.761 190.639 341.323 183.766L342.848 179.683C344.884 174.24 346.938 168.804 349.08 163.404C351.792 156.572 354.772 149.822 358.183 143.292L358.544 142.604C361.883 136.304 365.85 130.095 371.309 125.327C381.136 116.743 394.212 114.683 406.855 113.052L410.832 112.543C416.177 111.854 421.538 111.092 426.735 109.705C429.735 108.909 432.666 107.888 435.42 106.481C436.517 105.922 437.587 105.309 438.623 104.638C435.669 105.48 432.673 106.168 429.624 106.708C428.132 106.972 426.655 107.17 425.182 107.308C421.388 107.672 417.625 107.657 413.739 107.46C413.409 107.441 413.302 106.939 413.655 106.876C416.361 106.409 419.07 105.825 421.768 105.191L422.577 104.999C422.593 104.564 422.769 104.102 423.137 103.663C424.48 102.077 427.031 101.265 428.799 100.144C430.652 98.9714 432.447 97.7059 434.158 96.3503C435.723 95.1109 437.227 93.8 438.673 92.43C434.768 94.1802 431.066 96.4249 426.989 97.8103C423.747 98.9157 420.349 99.6603 416.919 99.9247L416.706 99.941L416.493 99.9545C412.914 100.204 409.312 100.103 405.787 100.855C405.392 100.941 405.269 100.427 405.622 100.282C408.702 99.0386 411.906 98.5583 415.143 97.9775C415.212 97.7317 415.389 97.512 415.695 97.3705L416.524 96.9867C418.991 95.8368 421.29 94.6761 423.341 92.8097C425.151 91.1603 426.659 89.2321 427.79 87.0947C423.26 88.059 419.282 91.3912 415.162 93.2639C410.674 95.3079 405.925 96.7748 401.046 97.6092L400.49 97.7016C391.372 99.1779 380.406 98.9897 372.238 94.3883C371.977 94.2394 372.165 93.901 372.433 93.9415C374.75 94.3101 377.044 94.7457 379.338 95.1329C378.889 94.7346 378.69 94.0197 379.208 93.4464C381.268 91.1548 382.897 88.5355 383.939 85.6695L384.138 85.109C384.16 85.0479 384.183 84.9853 384.206 84.9213C384.689 83.5917 385.39 81.66 384.601 80.5159C383.811 79.3729 381.95 79.5293 380.838 80.0133C378.525 81.026 376.987 83.5544 375.038 85.0805C372.913 86.7484 370.496 87.9845 368.022 89.0903L367.499 89.3207C363.22 91.1891 358.647 92.7619 355.283 96.06C353.472 97.8322 351.915 100.047 351.393 102.531C351.155 103.67 351.155 104.843 351.47 105.971C351.544 106.236 351.644 106.47 351.738 106.692C351.958 107.211 352.151 107.666 351.941 108.294C351.55 109.452 350.165 110.837 349.452 111.868C348.623 113.06 347.799 114.255 346.974 115.45C345.328 117.84 343.69 120.238 342.052 122.632C338.776 127.427 335.535 132.245 332.32 137.078C331.274 138.651 330.232 140.227 329.193 141.804L327.636 144.171L327.652 144.524C327.709 145.779 326.934 146.486 325.995 146.669L326.814 145.418L327.579 144.258C327.324 144.644 327.069 145.031 326.814 145.418C326.54 145.835 326.267 146.252 325.995 146.669L325.412 147.558C325.462 147.756 325.458 147.964 325.393 148.146C325.154 148.808 324.706 149.259 324.149 149.587L324.05 149.643C315.864 162.202 307.808 174.842 299.672 187.43C299.239 191.272 298.832 195.118 298.479 198.964C297.678 207.668 297.129 216.396 296.953 225.134C296.891 228.223 297.061 231.326 297.23 234.421C297.292 235.564 297.355 236.705 297.405 237.844C297.497 239.861 297.623 241.876 297.788 243.89L297.909 245.317C298.071 247.279 298.163 249.226 297.436 251.096C296.792 252.737 294.827 253.106 293.665 251.855C278.502 251.263 263.326 250.812 248.151 250.533C220.989 250.027 193.815 250.105 166.648 250.615C153.004 250.872 139.355 251.233 125.714 251.68C118.994 251.896 112.269 252.201 105.545 252.29C101.922 252.338 96.22 251.058 95.9276 247.102L95.9204 246.981C95.4678 247.1 94.9998 247.197 94.5203 247.268C94.3068 247.3 94.1018 247.291 93.9124 247.248L93.8183 247.223C89.0839 248.624 83.2499 247.045 78.4253 245.739C77.7464 245.555 77.0876 245.377 76.4546 245.213L76.031 245.105C71.1324 243.865 67.1967 242.093 63.986 238.153C58.3663 231.255 56.4483 221.991 55.4509 213.454C54.5149 205.42 54.4612 197.237 55.6005 189.217C54.9292 182.683 55.5851 175.94 56.3485 169.443C56.7244 166.23 57.1656 163.021 57.6949 159.826C57.9903 158.043 58.3777 156.278 58.7728 154.517C58.9306 153.813 59.0619 153.056 59.2619 152.323L59.352 152.011C58.7383 152.089 58.067 151.959 57.4187 151.613C55.8766 150.79 55.4278 149.126 55.401 147.533C55.3226 143.072 55.8266 138.493 56.3167 134.039C56.3543 133.697 56.3918 133.356 56.429 133.016C56.9545 128.251 57.6757 123.466 58.6194 118.76L58.8636 117.547C59.5786 114.026 60.3967 110.392 61.8377 107.084C56.4253 106.191 51.0281 105.241 45.7766 103.625C43.2142 102.832 40.6901 101.846 38.2811 100.643ZM29.4383 94.6493C29.6992 94.8872 29.9639 95.1255 30.2287 95.3527C28.5102 94.69 26.8185 93.9677 25.1652 93.1486C20.3204 90.7472 15.8438 87.6607 12.1497 83.7663C10.3276 81.8489 8.73953 79.749 7.42379 77.4742C6.61823 76.0892 4.23609 71.4576 7.11687 71.2232C7.32401 71.2042 7.56185 71.2083 7.83036 71.2418C10.3391 71.5471 12.7404 73.6135 14.9039 74.7602C17.2937 76.0298 19.7564 77.1504 22.2767 78.1479C24.5437 79.0455 26.8492 79.8866 29.1853 80.6312L29.3521 80.6851L29.519 80.7358C33.2591 81.9231 37.0874 82.88 40.9579 83.4798C41.0346 83.4906 41.096 83.3904 41.0154 83.3491C34.9354 80.4045 28.4104 78.4271 22.2652 75.6236C19.1734 74.2166 16.1391 72.7125 13.2353 70.9659C11.5628 69.9607 9.56423 68.7138 7.50047 68.6617L7.28965 68.4095C7.16751 68.2647 7.03196 68.1059 6.88622 67.9351C4.86571 65.5671 0.885591 60.9025 3.49947 59.6291C6.02928 58.3951 8.95876 61.9632 10.7388 64.1313C11.0587 64.5209 11.3414 64.8653 11.578 65.1285L11.7976 65.3711C16.2098 70.2097 21.9053 74.2991 28.1648 76.5656C28.3068 76.614 28.372 76.4167 28.2646 76.3426C27.8579 76.0634 27.4552 75.7841 27.0524 75.5008L27.4422 75.6505C27.9597 75.8473 28.4679 76.0326 28.9589 76.2083C31.621 77.1652 34.3599 77.9206 37.141 78.4534L37.2049 78.4655C39.7158 78.9419 42.2566 79.424 44.7823 78.8514C45.7106 78.6395 45.5572 77.4444 44.7823 77.1689C42.7722 76.4503 40.6701 76.3573 38.5757 75.9887C36.4812 75.6201 34.4098 75.1249 32.3806 74.4994C29.0087 73.4644 24.5283 72.1315 22.2996 69.2572C21.3905 68.0844 21.0299 66.6324 21.636 65.2363C22.4876 63.2742 24.2368 63.6353 25.9515 64.2831L26.4613 64.4755C30.2 65.8757 33.9406 67.0442 37.8814 67.8313C49.6118 70.1769 62.3204 69.9609 73.978 73.0102C78.0556 74.0713 82.0067 75.5345 85.7391 77.6455C90.9522 80.5905 95.4518 84.6971 98.5513 89.6824C98.6779 92.1583 98.7891 94.5783 99.1573 97.0393C99.4307 98.8707 99.7504 100.693 100.081 102.514L100.68 105.792C101.689 111.362 102.905 116.902 104.033 122.453C106.288 133.56 108.552 144.669 110.216 155.876C113.408 177.325 114.106 199.269 108.479 220.409C106.308 228.578 103.369 236.672 96.8979 242.231L96.8942 242.234C96.6471 242.327 96.4015 242.42 96.1568 242.513C93.3579 243.576 90.6854 244.592 87.5459 244.26C83.8672 243.869 80.1846 242.577 76.6172 241.665L76.4012 241.609C72.4579 240.579 69.3735 239.157 66.7702 235.957C61.6662 229.688 59.7828 220.949 58.8039 213.159L58.7338 212.59C57.7403 204.351 57.6981 195.862 59.0522 187.66C61.0776 175.382 65.6156 163.691 69.5705 151.914L69.804 151.22L70.1673 150.125C73.8345 139.017 77.0872 127.395 76.3026 115.707C76.5635 115.416 76.7016 115.007 76.6325 114.475C76.5098 113.566 76.2643 112.695 75.8998 111.887C75.7732 111.016 75.0789 110.454 75.0789 110.454C74.3578 109.437 73.4026 108.573 72.2173 107.93C70.9975 107.267 69.1524 106.712 67.5336 106.842C66.0797 106.396 61.691 105.207 61.691 105.207C54.1007 103.232 46.3725 101.57 39.4656 97.9964C38.4452 97.4714 37.444 96.9051 36.4658 96.2871C32.2002 93.6027 27.5971 89.5448 25.9821 84.6969L25.9616 84.6358C25.9398 84.572 25.9179 84.511 25.897 84.4527C25.7209 83.9616 25.6144 83.6647 26.2084 83.465C26.5575 83.3437 27.0767 83.4654 27.5115 83.5886L28.254 83.8011C29.613 84.2032 30.8883 84.7895 32.1235 85.4602C34.452 86.7227 36.6078 88.2525 38.8863 89.5854C44.3871 92.8059 50.728 93.2382 56.7198 95.1999C57.6596 95.5089 58.1583 94.3365 57.6136 93.7107C55.4463 91.2311 52.0783 90.8479 48.9711 90.2519L48.6594 90.1909C45.3495 89.5263 42.5176 88.3907 39.6497 86.6147C37.0029 84.9762 34.475 83.1183 31.6095 81.8413C30.9497 81.5434 30.2094 81.2311 29.4422 80.9701C29.3309 80.9332 29.2197 80.8956 29.1084 80.8621C27.3899 80.3223 25.5333 80.0992 23.9912 80.9887C21.4101 82.4757 22.7588 85.4161 23.8571 87.4799L24.212 88.1353C25.5605 90.557 27.3817 92.7608 29.4383 94.6493ZM78.7591 84.705C81.0492 84.902 83.2932 85.3752 85.4337 86.1943L85.6403 86.2725C87.2234 86.8656 89.5382 87.6109 90.0561 89.251C90.2018 89.7164 89.8106 90.0995 89.3618 90.1371C88.2419 90.2244 86.9918 89.4959 85.8163 88.8108C85.1877 88.4445 84.5805 88.0906 84.0259 87.8805C82.2537 87.2103 80.3971 86.7114 78.5174 86.4471C74.294 85.8477 69.8903 86.3023 65.9162 87.7952C65.6822 87.8846 65.5365 87.5231 65.7475 87.4151C69.7522 85.3004 74.2058 84.3141 78.7591 84.705ZM320.54 150.69C320.621 150.667 320.701 150.645 320.786 150.626C315.381 159.037 310.087 167.514 304.913 176.059C303.213 178.863 301.587 181.7 299.999 184.559L300.205 182.767C301.238 173.804 302.326 164.845 303.06 155.857C306.562 154.26 310.245 153.233 314.012 152.313C316.19 151.777 318.377 151.278 320.54 150.69ZM60.6715 151.516C60.6797 152.277 60.5654 153.058 60.4546 153.816C60.4097 154.123 60.3655 154.426 60.3301 154.721C60.1306 156.39 59.9695 158.065 59.7662 159.733C59.3519 163.084 58.999 166.438 58.742 169.804C58.5771 171.952 58.4697 174.108 58.3738 176.264C60.5488 168.374 63.4296 160.656 66.1685 152.927C65.7107 152.88 65.2427 152.771 64.7599 152.647L63.9472 152.435C63.468 152.315 61.9134 151.944 60.6715 151.516Z" transform="translate(-34.13896 1.954875)" id="ðŸ–-Ink" fill="#000000" fill-rule="evenodd" stroke="none" />
  </g>
</svg>