<?xml version="1.0" encoding="utf-8"?>
<svg width="314px" height="273px" viewBox="0 0 314 273" version="1.1" xmlns:xlink="http://www.w3.org/1999/xlink" xmlns="http://www.w3.org/2000/svg">
  <desc>Created with Lunacy</desc>
  <defs>
    <rect width="313.783173" height="272.9061" id="artboard_1" />
    <clipPath id="clip_1">
      <use xlink:href="#artboard_1" clip-rule="evenodd" />
    </clipPath>
  </defs>
  <g id="body/Tee-Arms-Crossed" clip-path="url(#clip_1)">
    <use xlink:href="#artboard_1" stroke="none" fill="#FFFFFF" />
    <path d="M218.625 96.0484C215.294 94.8957 212.083 93.5643 209.158 91.6059C200.725 85.5138 195.227 76.3456 190.031 67.6591C182.713 55.0254 177.5 41.5633 173.896 27.5196C172.347 21.4859 171.821 14.4901 168.303 9.14067C160.327 -2.06039 136.939 -0.609109 124.52 1.35708C116.204 2.78528 114.485 11.8184 112.596 18.5025C111.024 24.0563 109.994 29.673 109.13 35.365C107.074 36.677 104.752 37.7426 102.54 38.6707C78.4273 45.8471 74.1893 59.1514 64.9795 79.7023C49.4242 109.573 7.21503 121.268 0.839247 156.619C-3.2687 179.958 8.41301 201.914 20.4568 221.316C31.6732 242.508 47.3321 252.68 72.2694 247.673C95.6593 242.581 118.138 234.062 141.116 227.479C152.246 224.823 163.357 217.915 175.064 220.324C199.187 225.582 223.972 228.054 248.693 227.372C283.403 228.734 283.397 196.4 279.835 171.361C277.339 132.394 257.089 107.373 218.625 96.0484L218.625 96.0484Z" transform="translate(34.52587 -14.89255)" id="âœ‹-Skin" fill="#D08B5B" stroke="none" />
    <path d="M304.842 141.436C304.645 142.612 304.412 143.675 303.862 144.755C303.149 146.157 302.15 147.453 300.959 148.527C304.58 156.368 306.04 165.027 306.436 173.567C306.722 180.792 306.413 188.155 304.961 195.263C303.835 200.775 301.646 206.056 297.711 210.25C294.461 213.715 290.239 216.141 285.712 217.686C277.729 220.41 268.986 220.41 260.594 219.638C260.781 220.41 260.935 221.182 261.095 221.912C261.608 224.255 262.153 245.399 263.249 250.213C263.713 252.25 263.941 255.024 265.189 256.736C266.377 258.366 267.054 260.188 266.635 262.201C266.32 263.709 265.354 265.586 264.218 266.682C263.688 267.194 263.573 267.413 263.391 267.519C263.054 267.714 262.489 267.516 258.621 268.052C212.876 274.395 99.2919 278.193 38.866 265.585C36.434 268.407 31.1833 268.524 29.0559 265.043C27.9229 263.19 27.843 260.464 27.7749 258.137C27.7597 257.62 27.7452 257.124 27.7198 256.66C27.5403 253.377 26.4386 226.489 26.1072 219.674C26.0555 218.612 26.0016 217.549 25.9477 216.487C25.6605 210.829 25.3731 205.168 25.4251 199.502C25.4558 196.145 25.6024 192.785 25.9449 189.443C26.083 188.101 26.098 186.038 26.8161 184.658C24.8804 179.208 22.4718 173.957 19.6098 168.904C14.9249 167.728 10.3777 166.069 6.06724 163.929C4.1036 162.954 2.05634 162.131 1.19018 160.045C0.421064 158.191 -0.0787644 156.305 0.0102303 154.275C0.235019 149.145 1.17407 143.952 1.92477 138.874C2.70155 133.618 3.60569 128.38 4.64103 123.166C7.73167 107.605 11.4196 91.7973 17.8537 77.1795C24.1596 62.8558 33.7162 50.6048 47.281 42.0863C62.671 32.4214 81.249 27.05 99.2919 24.6966C99.6497 24.65 100.006 24.5958 100.36 24.5419C102.027 24.2883 103.659 24.0399 105.293 24.6002C105.41 24.6402 105.528 24.6836 105.648 24.7274C106.128 24.9037 106.627 25.0865 107.113 25.082C108.047 25.0734 109.079 24.7763 110.025 24.6691C112.589 24.3783 115.17 24.2506 117.745 24.076C119.83 23.9353 122.091 23.9211 124.062 23.1597C128.273 21.5335 130.495 7.48717 131.175 5.22388C131.66 3.60841 132.167 1.22932 133.711 0.29891C134.53 -0.194034 135.855 -0.0771275 136.5 0.648512C137.7 1.99647 137.271 4.30546 136.91 6.24903C136.814 6.76896 136.722 7.26274 136.667 7.70498C136.35 10.2855 135.268 29.2463 121.001 30.1771C107.903 31.0316 108.011 32.117 108.116 33.1805C108.126 33.2755 108.135 33.3702 108.135 33.4646C109.846 36.4208 112.433 40.332 114.62 42.8663C117.535 46.2443 120.758 49.4205 124.228 52.2642C135.644 61.6212 150.596 67.0202 165.563 66.7863C173.411 66.6639 180.686 64.8038 185.946 58.8278C190.857 53.2468 193.611 43.3462 195.688 36.3798C190.759 30.4165 188.617 22.4125 190.483 16.4592C191.041 14.6798 192.097 13.1009 194.12 14.2938C195.822 15.2979 195.685 20.0662 196.122 21.7632C197.034 25.3061 199.046 27.2522 201.577 30.0382C203.368 29.8982 205.044 30.5885 206.299 31.8525C217.787 34.5831 228.786 38.0824 238.022 45.5108C245.328 51.386 251.145 58.8155 256.482 66.3697C262.723 75.204 268.678 84.2389 274.735 93.1935C281.561 103.284 288.375 113.381 295.237 123.448C296.917 125.914 298.6 128.377 300.286 130.839C301.13 132.07 301.974 133.3 302.819 134.529C303.584 135.642 304.65 136.808 305.042 138.112C305.324 139.053 305.118 140.057 304.949 140.881C304.909 141.078 304.871 141.264 304.842 141.436ZM239.356 138.285C242.256 140.147 244.695 142.97 246.654 145.94C238.479 145.114 230.317 144.163 222.174 143.079C223.24 142.418 224.316 141.771 225.417 141.161C225.767 140.969 226.129 140.767 226.499 140.56C230.374 138.393 235.264 135.659 239.356 138.285ZM100.872 157.684C101.456 158.955 102.036 161.171 103.534 161.741C104.705 162.185 106.292 161.993 107.703 161.822C108.216 161.76 108.706 161.701 109.143 161.676C118.602 161.139 128.223 162.069 137.426 164.248C145.649 166.195 153.481 169.331 160.841 173.374C168.064 177.34 174.863 181.979 181.988 186.103C196.599 194.559 212.435 200.796 228.957 204.715C237.488 206.739 246.23 208.249 254.932 209.391C261.135 210.205 267.489 210.726 273.745 210.238C279.128 209.819 284.93 208.484 289.043 204.88C294.475 200.12 295.526 192.686 296.016 185.965C296.549 177.904 296.466 169.701 294.58 161.798C293.677 158.016 292.302 154.497 290.539 151.019C289.529 149.028 287.683 146.543 287.273 144.128C280.03 143.756 273.052 145.089 266.371 147.534C267.204 147.583 268.036 147.632 268.868 147.686C270.91 147.817 272.948 147.986 274.978 148.239C276.59 148.44 278.634 148.453 280.045 149.325C282.31 150.723 282.251 153.894 280.441 155.614C278.517 157.442 274.853 157.028 272.046 156.711C271.518 156.651 271.022 156.595 270.572 156.558C255.94 155.346 241.335 153.966 226.777 152.08C211.917 150.155 197.161 147.702 182.404 145.15C167.63 142.594 152.743 140.21 137.716 139.734C130.297 139.499 122.838 139.752 115.487 140.798C108.65 141.771 102.233 143.797 95.6333 145.623C97.3714 149.646 99.0419 153.699 100.872 157.684ZM92.867 157.694C93.8341 160.74 94.5741 164.218 96.6382 166.777C98.6828 169.313 101.767 170.208 104.963 170.434C107.225 170.593 109.503 170.599 111.779 170.605C113.38 170.609 114.981 170.613 116.575 170.671C124.494 170.956 132.305 172.205 139.876 174.495C146.931 176.629 153.48 179.959 159.789 183.652C165.623 187.068 171.285 190.735 177.121 194.14C175.568 194.831 174.032 195.578 172.488 196.229C169.25 197.594 165.992 198.911 162.719 200.195C156.265 202.727 149.783 205.197 143.236 207.492C130.033 212.119 116.613 216.162 103.032 219.606C96.5546 221.249 89.9851 223.168 83.2556 223.441C77.2884 223.683 71.7611 222.046 66.9485 218.602C56.9665 211.46 49.0248 201.15 42.6049 190.981C38.7908 184.94 35.4624 178.592 32.7093 172.028C31.3168 168.709 30.054 165.339 28.9174 161.929C28.3842 160.328 27.8786 158.718 27.3999 157.101C27.1893 156.39 26.9875 155.677 26.7877 154.963C36.9948 151.939 47.3232 149.21 57.894 147.695C63.5379 146.886 69.257 146.477 74.9626 146.536C77.7947 146.566 80.6253 146.714 83.4424 146.998C84.9588 147.151 86.469 147.347 87.9727 147.591C88.5941 147.691 89.2328 147.839 89.8734 147.948C90.852 151.203 91.8386 154.454 92.867 157.694Z" transform="translate(16.11063 -0.7446938)" id="ðŸ–-Ink" fill="#000000" fill-rule="evenodd" stroke="none" />
  </g>
</svg>