<?xml version="1.0" encoding="utf-8"?>
<svg width="314px" height="273px" viewBox="0 0 314 273" version="1.1" xmlns:xlink="http://www.w3.org/1999/xlink" xmlns="http://www.w3.org/2000/svg">
  <desc>Created with Lunacy</desc>
  <defs>
    <rect width="313.783173" height="272.9061" id="artboard_1" />
    <clipPath id="clip_1">
      <use xlink:href="#artboard_1" clip-rule="evenodd" />
    </clipPath>
  </defs>
  <g id="body/Tee-2" clip-path="url(#clip_1)">
    <use xlink:href="#artboard_1" stroke="none" fill="#FFFFFF" />
    <path d="M189.853 8.22506C188.983 5.25325 177.721 0.603372 166.546 0.0681255C152.833 -0.588689 138.696 3.60651 137.253 8.22506C134.634 16.6073 133.489 27.4635 127.176 33.788C120.99 39.9861 110.151 40.11 92.0166 43.9549L90.8972 44.195Q72.0872 48.2775 69.5239 127.805C203.386 129.817 270.317 127.533 270.317 120.95C270.317 111.077 249.779 68.7026 243.525 58.3078C237.271 47.9129 215.398 51.8812 205.152 47.5284C194.906 43.1756 191.791 14.8437 189.853 8.22506ZM278.673 166.338L3.83598 145.161L0 211.127L3.45238 278.743L296.117 278.248L295.714 276.865C289.198 254.401 285.94 238.019 285.94 227.718L285.94 227.4C285.893 217.011 283.566 197.262 278.961 168.15L278.673 166.338Z" transform="translate(14.57705 -14.52022)" id="âœ‹-Skin" fill="#D08B5B" fill-rule="evenodd" stroke="none" />
    <path d="M141.639 0.0769823C141.57 -0.0570507 141.39 0.00251947 141.344 0.114214C140.2 2.91401 139.556 5.85902 138.482 8.6886C137.404 11.5256 135.996 14.2286 134.408 16.8237C131.47 21.6265 127.243 26.1985 122.041 28.7638C117.05 30.2903 120.901 38.2801 125.225 35.3165C125.969 34.8064 126.702 34.2852 127.415 33.7565C132.598 29.9105 136.971 25.4651 139.874 19.6048C142.648 14.0015 144.573 5.9521 141.639 0.0769823ZM195.404 8.39442C195.358 8.37209 195.315 8.38165 195.273 8.41304C194.475 9.02115 194.489 9.96332 194.444 10.8854L194.386 11.903C194.32 13.1336 194.286 14.3643 194.364 15.595C194.567 18.7075 195.055 21.8908 195.883 24.9065C196.704 27.8925 197.743 30.7854 198.983 33.6336L199.044 33.7754C200.312 36.715 201.575 40.2309 204.89 41.3777C205.596 41.6234 206.34 41.5862 207.027 41.3479C204.127 53.4816 193.635 63.5602 181.352 67.2833C164.65 72.3505 145.045 67.6035 131.715 56.8734C128.078 53.947 125.09 50.4771 122.808 46.4635C120.679 42.7143 118.646 38.9949 115.427 36.0983C115.968 35.0819 115.972 33.8235 114.921 32.781C114.602 32.4645 114.261 32.1704 113.9 31.8949C113.908 31.8912 113.92 31.8874 113.927 31.8874C114.062 31.8577 114.065 31.6454 113.927 31.6194L113.364 31.5114L113.36 31.5114L113.24 31.4327C111.04 30.0053 108.343 29.4576 106.071 30.7593C103.271 30.8375 100.49 31.2024 97.7356 31.6715C92.1735 32.6172 86.8645 34.3708 81.7319 36.6382C71.3211 41.2288 61.8999 47.6773 53.3035 54.9486C37.0965 68.6534 23.8432 85.7613 14.6406 104.604C12.0245 109.965 9.71524 115.468 7.72437 121.075C5.74117 126.653 3.5163 132.662 3.02913 138.57C2.87952 140.369 4.08786 141.359 5.50717 141.545C5.91939 142.134 6.48541 142.681 7.0077 143.153L7.28707 143.403C6.34725 146.467 5.90228 149.799 5.32304 152.863L5.07569 154.2C4.43082 157.765 3.89776 161.346 3.32833 164.926L3.18306 165.849C1.93221 173.844 0.898738 181.895 0.462857 189.976C-0.453942 206.849 -0.000239547 223.745 1.74791 240.555C2.25426 245.428 2.84116 250.294 3.57384 255.142L3.64875 255.648C4.30971 260.21 4.62914 264.997 5.8831 269.435C6.93032 273.136 13.3057 272.547 12.9835 268.5C12.6459 264.304 11.545 260.164 10.9351 255.998C10.3443 251.944 9.86484 247.863 9.4122 243.794C8.48773 235.521 7.84712 227.215 7.39831 218.908C6.49302 202.314 6.57357 185.638 7.04156 169.033C7.14705 165.226 7.38041 161.435 7.63951 157.639L7.79725 155.362C7.9622 152.968 8.16205 150.581 8.33045 148.187C8.41484 146.977 8.55678 145.76 8.64884 144.538C10.2024 145.7 11.9708 146.586 13.743 147.372C18.2703 149.374 23.1217 150.801 27.9072 152.139L29.0102 152.446C34.1965 153.887 39.4172 155.19 44.6955 156.292C47.3309 156.84 49.9742 157.357 52.6245 157.838C54.2586 158.132 56.2802 158.742 58.1752 158.917L58.1867 161.069L58.1971 162.225C58.2216 164.152 58.2807 166.078 58.3442 168.004L58.4207 170.314C58.4284 170.558 58.4303 170.817 58.4298 171.09L58.4245 171.941C58.1176 174.335 57.8338 176.732 57.5614 179.134C56.6945 186.83 55.9618 194.525 55.724 202.266C55.256 217.452 55.6281 232.624 56.6485 247.781C56.9362 252.059 57.3236 256.329 57.7647 260.6L57.9051 261.972C58.3034 265.783 58.8919 270.133 61.0483 273.251C61.992 274.614 63.7949 274.338 64.5007 273.005C66.7676 272.501 69.2069 272.629 71.5535 272.752C71.8539 272.767 72.1529 272.783 72.4497 272.797L73.0281 272.823C76.304 272.953 79.5761 273.076 82.8559 273.154C89.6264 273.314 96.3896 273.337 103.16 273.337C112.265 273.339 121.373 273.217 130.481 273.095C134.91 273.035 139.339 272.976 143.767 272.931L152.791 272.831C176.854 272.548 200.916 272.151 224.979 271.807C232.643 271.699 240.304 271.62 247.964 271.546L264.819 271.382C266.062 271.371 267.075 271.222 267.999 270.839C268.069 270.976 268.141 271.11 268.218 271.241C269.12 272.797 271.314 273.318 272.883 272.428C273.738 271.941 274.229 271.233 274.413 270.444C274.425 270.444 274.436 270.448 274.448 270.451C274.887 268.27 274.392 265.988 273.913 263.781C273.794 263.232 273.676 262.686 273.573 262.149C273.074 259.513 272.683 256.869 272.307 254.211C271.563 248.969 270.888 243.719 270.259 238.458C268.981 227.81 267.75 217.162 266.822 206.473C265.897 195.84 265.122 185.195 264.451 174.543C266.63 174.536 268.847 174.331 271.026 173.992C272.22 174.029 273.396 173.694 274.552 173.365C274.669 173.331 274.786 173.298 274.903 173.265L275.303 173.155L275.683 173.054L276.222 172.92C277.118 172.692 277.999 172.448 278.855 172.19C278.897 172.179 278.936 172.164 278.978 172.149C280.317 171.773 281.652 171.386 282.983 170.991L283.123 170.95L283.263 170.906C282.239 182.846 282.737 194.786 283.574 206.752L283.622 207.443C284.545 220.796 285.258 234.286 288.622 247.316C289.561 250.95 290.639 254.539 291.844 258.098L292.091 258.837C292.578 260.318 293.018 261.806 293.455 263.299C293.724 264.23 293.992 265.161 294.284 266.084L294.403 266.471C294.443 266.601 294.485 266.73 294.533 266.855C294.656 267.179 294.794 267.495 294.943 267.804C294.993 268.177 295.116 268.545 295.319 268.884C296.317 270.541 298.683 270.906 300.337 270.023C302.397 268.925 303.172 266.59 302.646 264.453C302.197 262.636 301.369 260.861 300.728 259.099C299.984 257.052 299.431 254.941 298.825 252.848L298.59 252.026C297.571 248.46 296.607 244.885 295.845 241.258C292.527 225.457 292.262 209.165 290.156 193.196C289.136 185.452 287.716 177.73 285.687 170.169C289.868 168.884 294.015 167.495 298.131 166.021C300.341 165.228 302.09 163.039 301.288 160.63C297.629 149.676 293.816 138.764 290.164 127.803C286.708 117.438 283.363 107.028 279.73 96.7185C273.151 78.0358 263.148 60.4741 248.329 46.2699C240.146 38.4271 210.214 31.4444 208.856 32.9076C208.365 33.1496 207.936 33.507 207.606 34.0357C207.514 34.1809 207.698 34.367 207.851 34.274C207.924 34.2293 208.001 34.1883 208.081 34.1511C208.005 34.3596 207.94 34.583 207.893 34.8175C207.287 34.0804 206.858 33.0007 206.397 32.2151C205.73 31.0832 205.074 29.944 204.464 28.7823C203.198 26.3809 202.093 23.9385 201.027 21.4515C199.988 19.0352 199.098 16.5816 198.165 14.1243C197.697 12.8994 197.191 11.6931 196.754 10.457C196.455 9.61189 196.274 8.80025 195.404 8.39442Z" transform="translate(10.35851 -6.295251)" id="ðŸ–-Ink" fill="#000000" fill-rule="evenodd" stroke="none" />
  </g>
</svg>