<?xml version="1.0" encoding="utf-8"?>
<svg width="314px" height="273px" viewBox="0 0 314 273" version="1.1" xmlns:xlink="http://www.w3.org/1999/xlink" xmlns="http://www.w3.org/2000/svg">
  <desc>Created with Lunacy</desc>
  <defs>
    <rect width="313.783173" height="272.9061" id="artboard_1" />
    <clipPath id="clip_1">
      <use xlink:href="#artboard_1" clip-rule="evenodd" />
    </clipPath>
  </defs>
  <g id="body/Button-Shirt-1" clip-path="url(#clip_1)">
    <use xlink:href="#artboard_1" stroke="none" fill="#FFFFFF" />
    <path d="M18.2841 277.746C68.3992 285.134 119.423 285.505 169.955 282.823C189.953 281.369 210.013 281.108 229.996 282.966C241.803 283.818 293.574 287.659 297.804 277.394C295.141 222.737 289.75 167.614 273.209 115.047C266.407 96.3816 260.564 80.8897 247.288 65.4438C243.103 61.2266 234.08 52.3819 228.909 49.4972C224.43 46.9986 222.557 47.89 219.985 43.6694C217.429 39.0071 215.544 31.2205 211.915 27.9306C208.219 24.5809 202.743 25.7793 195.955 26.8583C197.202 10.5023 189.424 6.33668 178.707 3.22637C159.871 -3.75117 141.268 -0.245855 136.527 22.01C127.736 22.01 122.799 25.6816 117.46 29.2095C115.278 30.6516 116.796 34.3258 114.19 35.4593C109.367 37.1258 100.845 36.7176 96.2021 38.7686C75.0875 48.0949 56.2815 61.6195 43.931 81.3713C16.2429 123.542 -2.77674 212.374 0.514512 262.356C-0.927495 264.551 1.06657 267.698 1.57341 270.058C2.2132 272.111 4.28503 273.477 6.44728 273.243C9.46461 276.393 14.1316 277.094 18.2841 277.746Z" transform="translate(11.50847 -11.91404)" id="âœ‹-Skin" fill="#D08B5B" stroke="none" />
    <path d="M122.546 4.89264C125.634 1.76579 130.476 -0.100838 135.061 0.00421121L135.276 0.0105822L136.832 0.0782484L135.792 5.03099L135.74 5.26575L135.528 6.12564L135.245 7.25142L135.145 7.66528L135.039 8.12343C135.022 8.19783 135.006 8.27137 134.99 8.34424L134.943 8.56101L134.5 10.6653L134.583 10.8523L134.559 11.3304C134.49 13.0589 134.874 14.009 135.719 14.3138L135.787 14.3365L136.269 14.4867L136.662 15.3154C137.568 17.2105 138.412 18.8659 139.28 20.4251C141.809 24.9721 144.826 29.5177 148.306 34.0856C151.611 38.4262 155.055 42.5693 158.635 46.5034C160.245 48.2722 161.945 50.0482 163.755 51.8564L165.313 53.405L165.809 53.8917L166.142 54.2144L166.558 54.6095L167.157 55.1638L167.591 55.5786L167.732 55.7084C167.909 55.8681 168.046 55.9761 168.169 56.053L168.215 56.0804L168.352 56.1593L175.575 63.5323L178.126 64.8938L179.338 65.5454L179.583 65.0715L179.633 64.9192L182.318 59.1971L183.957 55.6925C187.321 48.4823 189.939 42.7465 192.333 37.2851L192.631 36.6037L193.514 34.5717L193.981 33.4875C196.121 28.5109 197.701 24.6699 199.116 20.9388L199.317 20.4064L199.615 19.6092L200.057 18.4068L200.138 18.2014C200.522 17.2468 199.578 13.7769 198.648 11.8762L198.596 11.7703L198.354 11.2992L198.092 10.8025C197.478 9.63816 197.032 8.34579 196.658 6.78139C196.597 6.52818 196.54 6.27316 196.487 6.01601L196.409 5.62863L196.36 5.37431L196.29 5.01837L196.192 4.50846L198.272 4.17099L199.414 3.99034L199.911 3.91458C200.556 3.81795 201.13 3.73844 201.67 3.67197L201.872 3.64765L202.233 3.60607L202.246 3.67544L202.988 3.74646L203.54 3.8018C206.254 4.0804 208.348 4.38746 209.835 4.72772L209.982 4.76186L210.247 4.82683L210.368 4.85802C211.721 5.21135 212.763 5.97489 213.588 7.10083C214.153 7.87316 214.52 8.61295 215.101 10.0148L215.31 10.5209L216.001 12.18C216.082 12.3821 216.207 12.7048 216.377 13.1486L216.963 14.6991L219.904 22.5819L222.914 24.1189C224.313 24.8293 225.337 25.3417 225.842 25.5839L226.021 25.6685L226.149 25.7255L227.187 26.1245L227.075 26.4387L227.201 26.5083C239.592 33.4264 249.147 44.0689 256.587 58.1979L256.812 58.6271L257.042 59.0718C262.971 70.5803 267.219 83.4235 271.367 100.57L271.623 101.636L271.825 102.484L272.907 107.06C276.97 124.336 279.762 137.219 282.072 149.86L282.222 150.684L282.607 152.832C285.509 169.194 287.939 185.407 289.883 201.462L290.205 204.163C291.016 211.062 291.749 218.193 292.544 226.756L292.651 227.906L293.001 231.752C293.374 235.897 293.714 240.034 294.023 244.161L294.174 246.224L294.485 250.709L294.668 253.265L294.69 253.611L294.764 254.943L294.785 255.256C294.813 255.656 294.844 255.994 294.884 256.307L294.916 256.537L294.951 256.76C295.054 257.371 295.256 257.918 295.592 258.528L295.678 258.682L296.254 259.681L295.21 260.215C289.768 262.998 279.052 264.222 264.351 264.286L263.904 264.288L262.985 264.288C255.842 264.284 248.271 264.016 240.372 263.559L238.585 263.453L237.094 263.361C236.452 263.32 235.827 263.28 235.178 263.236L234.184 263.168L230.03 262.873C211.346 261.136 191.752 261.165 170.162 262.734C113.875 265.722 65.2908 264.461 19.6267 257.846L18.2438 257.644L17.2248 257.483L16.617 257.384C11.7734 256.582 8.732 255.553 6.35883 253.394L6.23453 253.28L6.13094 253.182L6.08604 253.182C3.6965 253.172 1.509 251.655 0.69733 249.418L0.65517 249.297L0.601634 249.13L0.564658 248.964C0.526845 248.803 0.479634 248.63 0.42223 248.44L0.377252 248.294L0 247.095L1.27088 246.869C1.38037 246.85 1.49423 246.776 1.60467 246.62L1.71054 246.473L1.8938 246.227L2.33649 245.638C2.80802 244.996 3.03999 244.593 3.15495 244.189C3.25665 243.83 3.29475 243.371 3.28372 242.732L3.27519 242.42L3.22511 241.288C3.22184 241.198 3.2196 241.118 3.21817 241.042L3.2166 240.928L3.21577 239.335L3.21984 237.584C3.22277 236.82 3.2272 236.075 3.23324 235.343L3.2435 234.255L3.25374 233.378C3.31494 228.528 3.4616 223.682 3.69374 218.844C4.14754 209.397 4.92595 199.965 6.02715 190.568C8.30086 171.168 11.7836 152.353 16.5214 134.171L16.9972 132.355C22.12 112.924 27.059 97.9431 33.3367 84.0901C41.3211 66.4708 51.0563 51.9699 63.3141 40.3773C70.0533 34.0029 77.5168 28.6231 85.4483 24.4967C89.096 22.5991 92.9728 20.915 97.1301 19.4002L97.726 19.1849L98.6877 18.8438L99.4255 18.5795L101.803 17.7173C102.303 17.5357 102.846 17.3322 103.489 17.0868L103.888 16.9343L108.145 15.286L108.852 15.0161L109.638 14.7194L110.216 14.5041C111.16 14.1544 112.016 13.8492 112.81 13.5802L113.279 13.4231L113.705 13.284L115.522 12.6738L115.487 14.2779C115.463 15.3445 115.746 16.1506 116.375 16.7295L116.396 16.7479L116.418 16.7648L116.437 16.7772L116.547 16.7742L116.977 16.7722C117.021 16.7486 117.063 16.7208 117.101 16.6888C117.712 16.1851 117.997 15.5097 118.272 13.9608L118.345 13.5299L118.473 12.7225L118.524 12.4171C118.707 11.3423 118.867 10.7487 119.179 10.0696C119.628 9.08808 120.223 8.13225 120.923 7.25378L121.087 7.05245L121.74 6.28955L121.84 6.16925C122.07 5.88438 122.187 5.68325 122.236 5.4988L122.248 5.44886L122.313 5.12844L122.546 4.89264Z" transform="translate(11.50847 8.545384)" id="ðŸ‘•-Top" fill="#FFCF77" stroke="none" />
    <path d="M140.316 0.0401047C140.374 -0.00345606 140.464 -0.0224441 140.52 0.0401047C141.28 0.900342 141.275 2.1414 141.27 3.28705C141.269 3.51018 141.268 3.72968 141.273 3.94203L141.276 4.06333C141.342 5.96772 141.354 7.86614 141.347 9.77165L141.327 15.837C141.326 16.1445 141.316 16.4565 141.306 16.7701C141.288 17.3071 141.271 17.8484 141.299 18.3781L141.322 18.7027C141.799 19.177 142.021 19.8625 141.859 20.5509C141.83 21.434 141.354 22.1708 140.66 22.634L142.147 24.6819L143.636 26.7287C146.704 30.9526 149.806 35.1389 153.039 39.2466C156.336 43.4348 159.853 47.4651 163.533 51.3401C165.331 53.2337 167.16 55.1009 169.031 56.9263C169.791 57.6683 170.571 58.3918 171.341 59.1234L172.108 59.8587C172.561 60.2984 173.131 60.7332 173.432 61.2906C173.609 61.6193 173.649 62.4295 173.712 62.5635C174.28 63.7747 173.311 65.7059 171.702 65.1016L171.775 65.0544C172.068 64.8566 171.88 64.8537 171.211 65.0461C170.789 65.0448 170.394 64.9505 170.024 64.7639L169.914 64.7051C169.393 64.4484 168.929 63.9515 168.506 63.5542L168.401 63.4571C167.434 62.5777 166.512 61.645 165.585 60.7258C163.651 58.808 161.76 56.8493 159.93 54.838C156.278 50.8252 152.816 46.6497 149.537 42.3447C146.198 37.9599 143.093 33.3499 140.424 28.5508C139.411 26.7294 138.482 24.8731 137.592 22.9951C135.859 22.4553 135.456 20.6663 135.577 18.651C134.938 17.2056 134.362 15.7305 134.021 14.2234C133.975 14.0168 134.248 13.8221 134.412 14.0026C134.966 14.614 135.479 15.2648 135.973 15.9323C136.27 14.5194 136.647 13.2189 136.824 12.3898L137.593 8.73066C133.263 8.51174 128.519 10.2382 125.534 13.2606C125.374 14.0477 124.749 14.611 124.141 15.3467C123.446 16.1877 122.839 17.1315 122.387 18.1186C121.384 20.3063 121.95 23.5301 120.004 25.1352C119.801 25.3024 119.574 25.4185 119.34 25.4904C120.055 28.8914 119.965 32.5605 119.879 36.1127C119.854 37.152 119.829 38.1812 119.824 39.1907L119.824 39.5832C119.828 44.5748 119.656 49.5705 119.458 54.558L119.256 59.4942C118.994 66.0774 118.823 72.6637 119.483 79.2108C122.492 76.624 125.604 74.1552 128.822 71.8033C130.939 70.2564 133.098 68.7646 135.296 67.3288L137.082 66.1705C139.222 64.7776 141.414 63.3443 143.757 62.3468C146.822 61.0426 149.737 61.4909 152.696 62.8286C155.643 64.1611 158.502 65.7088 161.392 67.153C164.332 68.6215 167.278 70.0776 170.222 71.5374C172.173 72.5047 175.03 73.3778 176.461 75.1582C176.552 74.7643 176.658 74.3715 176.783 73.9802C176.641 73.3834 176.696 72.7385 177.04 72.1238C181.847 63.552 186.294 54.7755 190.71 46.0097C192.945 41.5736 195.07 37.085 197.31 32.6515L199.487 28.3334C199.85 27.6141 200.215 26.8954 200.582 26.1777C201.131 25.1032 201.703 24.0391 202.259 22.9672C202.494 22.5144 202.788 22.0645 203.016 21.6074L203.125 21.3782C203.13 21.3662 203.657 19.7563 203.25 19.9098L203.215 19.9261C203.007 20.0404 202.84 19.7865 202.975 19.6246C203.551 18.9332 204.354 19.5456 204.682 20.1856C205.404 21.5881 204.498 23.6268 203.777 25.2508C203.593 25.6663 203.42 26.0547 203.29 26.3983L203.255 26.4926C201.274 31.9355 199.031 37.2763 196.732 42.5986C192.325 52.8026 187.59 62.8498 182.866 72.9146L182.81 73.0877C183.818 72.3383 184.893 71.6581 185.814 70.9961C188.138 69.3255 190.529 67.7372 192.917 66.1541C197.295 63.2508 201.792 60.5389 206.364 57.934L207.279 57.4144C209.563 56.1232 211.825 55.0763 214.535 55.4639C217.053 55.8241 219.394 57.137 221.669 58.2034L221.904 58.3128L228.934 61.5564C228.182 58.6479 227.369 55.7535 226.52 52.87C224.864 47.2454 223.043 41.6682 221.067 36.1408C219.222 30.9764 217.227 25.8686 215.118 20.8011L214.482 19.2802C213.622 17.1938 212.767 14.9186 210.308 14.2763C209.305 14.0141 208.242 14.0177 207.182 14.0212C205.646 14.0264 204.116 14.0315 202.787 13.2271C202.583 13.1035 202.609 12.777 202.856 12.7167L204.242 12.3777C206.843 11.7495 209.893 11.1177 212.354 11.7285C215.031 12.3942 217.246 14.5749 218.545 16.8419C219.989 19.3638 221.007 22.186 222.103 24.8752L222.277 25.2986C223.534 28.3419 224.744 31.4035 225.902 34.4844C228.217 40.6424 230.324 46.8746 232.231 53.163C233.15 56.1936 234.022 59.2388 234.86 62.2914C235.101 63.1693 235.498 64.2337 235.824 65.344C236.198 65.6977 236.552 66.0923 236.884 66.5425C237.434 67.2893 237.039 68.165 236.355 68.6122C236.328 69.3761 236.153 70.0947 235.735 70.7105C234.103 73.1153 229.788 72.4958 229.963 69.263C229.99 68.7682 230.188 68.2957 230.489 67.8966L230.481 67.8318L230.446 67.7134C229.697 67.3649 228.945 66.9766 228.152 66.5964L220.775 63.0583C218.638 62.0334 216.27 60.4499 213.894 60.0594C212.064 59.7586 210.15 60.7999 208.467 61.716C208.113 61.9086 207.769 62.0956 207.438 62.2635L207.315 62.3256C202.713 64.6146 198.146 66.9796 193.597 69.3639C191.377 70.5281 189.185 71.7407 186.973 72.9187C185.123 73.9039 183.127 75.3179 181.047 75.8738C180.159 76.5439 179.105 76.4542 178.257 75.9475C178.644 78.2763 178.62 80.6662 178.739 83.0471C178.899 86.2302 178.924 89.422 178.976 92.6094L178.998 93.8044C179.137 100.851 179.212 107.899 179.24 114.947C179.302 130.928 179.209 146.912 179.116 162.896C179.063 172.013 179.01 181.129 178.986 190.245C178.952 202.855 178.694 215.475 178.357 228.08C178.214 233.421 177.915 238.756 177.591 244.089L177.414 246.997C177.037 253.135 176.815 259.34 175.644 265.395C175.492 266.185 174.115 266.205 173.98 265.395C172.902 258.907 172.842 252.277 172.635 245.713L172.591 244.401C172.342 237.353 172.224 230.31 172.25 223.258C172.342 198.151 173.014 173.06 173.564 147.96C173.841 135.349 174.027 122.732 174.456 110.125C174.671 103.817 174.914 97.513 175.203 91.2075C175.332 88.3922 175.456 85.5797 175.648 82.7685L175.735 81.5638C175.795 80.7779 175.844 80.0016 175.902 79.2324C173.7 80.013 171.657 78.9209 169.661 77.8548C169.285 77.6537 168.91 77.4535 168.537 77.267C165.823 75.9121 163.111 74.555 160.396 73.2028L157.679 71.8529L152.242 69.1602C152.034 69.0573 151.83 68.9544 151.63 68.8531C149.468 67.7617 147.686 66.8616 145.296 68.1631C135.889 73.2854 127.245 80.101 119.411 87.2528C117.909 88.6244 114.735 88.2558 114.354 85.9571C112.817 76.6695 113.618 67.2548 114.411 57.9282C114.457 57.3936 114.502 56.8593 114.547 56.3253L114.853 52.6684C115.224 48.3008 115.628 43.9331 116.166 39.5832C116.406 37.6373 116.646 35.6927 116.911 33.7505L117.115 32.2944C117.446 29.9924 117.663 27.7041 118.369 25.4963C118.147 25.4263 117.932 25.3117 117.74 25.1352C115.616 23.179 116.64 19.7847 117.61 17.4577C118.567 15.1609 120.026 13.1564 121.854 11.4311C122.253 11.0543 122.815 10.8119 123.379 10.7992C127.811 7.94954 132.673 6.5273 137.733 8.08283C137.875 7.42328 138.02 6.76477 138.172 6.10794L138.328 5.45169C138.721 3.82207 138.867 1.13024 140.316 0.0401047ZM199.048 5.63458C199.283 4.60997 197.64 3.47665 196.734 4.75108C194.69 7.62646 193.821 11.4296 194.1 14.8903C194.371 18.2504 194.983 24.2696 199.439 24.4562C200.444 24.4982 201.37 23.8966 201.883 23.0954C202.971 21.396 202.344 19.935 201.536 18.3859L201.274 17.8882C200.65 16.7061 200.245 15.4142 199.936 14.1237C199.262 11.3049 199.11 8.5122 199.048 5.63458ZM114.568 23.6258C114.883 23.5904 114.896 23.1128 114.568 23.1364C110.465 23.4471 106.418 23.3462 102.352 24.0696C98.2413 24.8012 94.1989 26.0846 90.3495 27.6565C82.717 30.7731 75.6377 34.9118 69.1346 39.8777C55.1502 50.5564 44.5521 64.771 36.4735 80.0507C27.7728 96.5078 21.6651 114.222 16.5096 131.988C11.0448 150.821 6.87281 170.015 4.08942 189.394C2.52357 200.297 1.42993 211.263 0.765541 222.252C0.438332 227.667 0.218146 233.088 0.105752 238.511C0.0474452 241.34 0.0113869 244.17 0.0236621 247C0.0253001 247.429 0.018659 247.861 0.0119999 248.294C-0.00317327 249.281 -0.0184386 250.273 0.0639399 251.245C0.174681 252.55 0.93324 253.504 1.7085 254.502L1.97656 254.85C2.70348 255.806 3.99198 255.859 4.70893 254.85C5.31386 254 6.13169 253.101 6.42169 252.08C6.64796 251.283 6.60116 250.314 6.55745 249.41C6.54077 249.065 6.52454 248.729 6.52411 248.415C6.52105 245.939 6.53025 243.463 6.56171 240.987C6.6227 236.153 6.76885 231.32 7.00054 226.491C7.45319 217.069 8.22959 207.661 9.32783 198.289C11.5489 179.339 14.9755 160.533 19.7943 142.04C28.4671 108.754 40.303 73.3346 66.2745 48.7723C72.7795 42.6194 80.137 37.2447 88.1492 33.0763C92.2472 30.9444 96.5055 29.1558 100.873 27.6178L101.243 27.4867C105.567 25.9497 109.99 24.1413 114.568 23.6258ZM228.019 34.6517C227.712 34.4853 227.983 34.0586 228.292 34.1997C243.154 40.9669 254.556 52.8396 262.578 66.5575C270.886 80.7618 275.62 96.889 279.702 112.652L279.85 113.221C284.202 130.083 287.903 147.12 291.235 164.198C294.61 181.492 297.318 198.894 299.497 216.367C300.575 225.007 301.536 233.661 302.285 242.334C302.66 246.667 303 251.004 303.306 255.343C303.428 257.079 303.543 258.814 303.642 260.551L303.712 261.854C303.722 262.041 303.734 262.228 303.746 262.415C303.808 263.41 303.87 264.404 303.617 265.386C303.358 266.391 302.809 267.301 302.327 268.223C301.374 270.047 298.759 269.746 297.732 268.223L297.433 267.78C296.752 266.757 296.186 265.807 295.972 264.535C295.765 263.303 295.757 262.012 295.665 260.768C295.494 258.479 295.348 256.187 295.183 253.897C294.835 249.076 294.444 244.258 294.011 239.444C293.155 229.941 292.237 220.446 291.11 210.968C289.107 194.125 286.593 177.326 283.63 160.616C280.735 144.293 277.074 128.136 273.256 111.999L272.86 110.329C266.175 82.1549 255.87 49.7085 228.019 34.6517ZM184.26 100.685L184.393 100.688C185.102 100.69 185.766 100.852 186.385 101.174L186.517 101.245L187.368 101.883C187.89 102.393 188.25 102.994 188.45 103.686L188.6 104.771C188.623 105.334 188.501 105.858 188.238 106.345C188.068 106.851 187.778 107.289 187.368 107.659C186.987 108.057 186.535 108.339 186.014 108.504C185.551 108.739 185.055 108.858 184.526 108.858L184.393 108.855C183.633 108.853 182.925 108.667 182.269 108.298L181.417 107.659C180.896 107.149 180.535 106.549 180.336 105.857L180.185 104.771C180.163 104.209 180.284 103.684 180.548 103.198C180.717 102.692 181.007 102.253 181.417 101.883C181.799 101.485 182.25 101.204 182.772 101.039C183.235 100.803 183.731 100.685 184.26 100.685ZM237.831 112.949C236.22 112.932 234.608 112.929 232.997 112.94C228.838 112.968 224.68 113.114 220.529 113.345C216.487 113.571 212.47 113.919 208.453 114.412C204.559 114.889 200.379 115.293 196.663 116.541C196.128 116.721 196.25 117.412 196.792 117.467C199.636 117.754 202.576 117.648 205.482 117.542C206.606 117.502 207.724 117.461 208.83 117.444C212.727 117.383 216.631 117.347 220.529 117.363C224.435 117.38 228.339 117.488 232.241 117.657C234.256 117.745 236.271 117.854 238.284 117.985C238.675 118.01 239.072 118.054 239.472 118.098C241.027 118.27 242.616 118.446 243.937 117.549C245.033 116.804 245.541 115.145 244.387 114.156C243.002 112.97 241.51 112.969 239.812 112.969C239.559 112.969 239.302 112.969 239.039 112.965L237.831 112.949ZM267.392 124.386C267.618 124.134 267.984 124.456 267.843 124.724C265.701 128.8 263.314 132.846 260.967 136.819C261.155 137.92 261.342 139.012 261.556 140.076C262.47 144.613 263.59 149.068 264.32 153.648C266.944 170.112 268.306 186.754 269.475 203.365C270.647 220.036 270.797 236.714 270.973 253.417C270.989 254.865 269.841 256.547 268.304 256.82C267.6 256.945 267.073 256.921 266.371 256.82C264.771 256.592 263.77 254.813 263.701 253.417C263.243 244.082 262.625 234.758 261.91 225.438C260.643 208.913 259.868 192.345 258.845 175.803L258.484 170.021C258.097 163.757 257.743 157.488 257.628 151.214C257.593 149.334 257.621 147.453 257.649 145.573L257.649 145.571C257.683 143.297 257.716 141.023 257.639 138.751C257.617 138.102 257.588 137.443 257.558 136.779C257.41 133.518 257.256 130.113 257.98 126.984C258.012 126.843 258.242 126.807 258.308 126.942C259.213 128.792 259.787 130.802 260.229 132.855C262.562 129.991 264.938 127.121 267.392 124.386ZM184.267 142.904C184.828 142.733 185.389 142.709 185.95 142.831C186.331 142.832 186.687 142.925 187.016 143.11C187.373 143.208 187.684 143.383 187.947 143.638C188.264 143.819 188.517 144.064 188.704 144.372C189.078 144.768 189.329 145.232 189.46 145.765L189.61 146.854L189.46 147.944L189.034 148.923C188.917 149.071 188.799 149.219 188.681 149.366C188.493 149.675 188.239 149.921 187.921 150.104C187.715 150.303 187.478 150.453 187.213 150.556C186.273 151.21 185.021 151.423 183.907 151.125C183.246 150.946 182.671 150.621 182.185 150.151C181.701 149.678 181.366 149.121 181.181 148.48L181.105 147.967C181.007 147.28 180.991 146.899 181.192 146.026C181.279 145.641 181.534 145.1 181.668 144.872C182.239 143.898 183.171 143.23 184.267 142.904ZM70.3722 144.977C70.2928 144.63 69.8225 144.695 69.7131 144.977C67.9893 149.415 67.0636 154.178 66.3904 158.966C62.2817 156.927 58.5704 154.334 55.3336 151.081C55.052 150.798 54.668 151.208 54.9013 151.5C58.069 155.471 61.7838 158.972 66.0099 161.857C65.7268 164.144 65.4755 166.424 65.2001 168.664L65.0271 170.091C64.119 177.705 63.4419 185.375 62.9426 193.02C61.8828 209.25 61.3012 225.513 61.007 241.772C60.9268 246.206 60.8635 250.639 60.8167 255.074C60.8111 255.609 60.7997 256.147 60.7883 256.685C60.7528 258.366 60.7172 260.055 60.8543 261.725C60.9736 263.178 61.086 264.611 61.788 265.93C62.2926 266.879 62.9757 267.348 63.7661 267.948L64.0064 268.132C64.8338 268.777 65.7138 268.773 66.5492 268.132L66.6718 268.04C67.3268 267.557 67.9988 267.197 68.4703 266.486C69.1347 265.485 69.4485 264.371 69.5958 263.203C69.8191 261.427 69.8672 259.671 69.8902 257.893L69.9364 253.873C69.9742 250.824 70.0196 247.776 70.0737 244.728C70.2168 236.6 70.4032 228.473 70.6019 220.346C70.9993 204.1 71.4589 187.865 71.7036 171.616C71.77 167.195 71.7761 162.756 71.6254 158.337C71.4723 153.858 71.3734 149.352 70.3722 144.977ZM188.546 183.938C187.003 183.142 184.866 183.239 183.622 184.555C182.354 185.894 182.121 187.721 182.986 189.335L183.026 189.411C183.054 189.462 183.083 189.511 183.115 189.56L183.188 189.677C183.644 190.37 184.312 190.881 185.089 191.199C185.992 191.569 186.807 191.574 187.777 191.401C188.378 191.294 188.994 190.941 189.424 190.535L189.599 190.371C190.319 189.691 190.854 188.522 190.808 187.537C190.762 186.541 190.434 185.359 189.599 184.704C189.268 184.444 188.922 184.132 188.546 183.938ZM186.525 225.987C187.251 225.982 188.06 226.137 188.683 226.527L189.516 227.151C189.741 227.432 189.966 227.714 190.189 227.997C190.71 228.655 190.779 229.721 190.67 230.505C190.646 231.029 190.486 231.516 190.189 231.968L189.556 232.764C188.947 233.246 188.439 233.59 187.701 233.822C187.315 233.943 186.944 233.968 186.574 233.95L186.451 233.942L186.525 233.952L186.395 233.938C186.274 233.928 186.154 233.915 186.032 233.899C185.95 233.889 185.867 233.883 185.785 233.872C185.705 233.866 185.628 233.863 185.548 233.87C184.611 233.955 183.668 233.439 183.003 232.847C182.403 232.312 181.865 231.179 181.949 230.376L181.984 230.041C182.047 229.474 182.099 229.252 182.346 228.683C182.587 228.13 182.922 227.642 183.379 227.229C184.254 226.439 185.324 225.995 186.525 225.987ZM189.625 258.388C188.617 257.41 187.112 257.023 185.736 257.39C185.059 257.575 184.471 257.908 183.973 258.388C183.477 258.872 183.135 259.443 182.945 260.1L182.851 260.318C182.666 260.987 182.666 261.656 182.851 262.325C183.036 262.965 183.37 263.52 183.852 263.992C184.337 264.459 184.909 264.783 185.568 264.962C186.257 265.142 186.947 265.142 187.636 264.962L187.861 264.871L188.005 264.83C188.622 264.639 189.162 264.32 189.625 263.874C190.12 263.39 190.463 262.819 190.652 262.162C191.031 260.827 190.632 259.366 189.625 258.388Z" transform="translate(9.205273 1.695038)" id="ðŸ–-Ink" fill="#000000" fill-rule="evenodd" stroke="none" />
  </g>
</svg>
