<?xml version="1.0" encoding="utf-8"?>
<svg width="314px" height="273px" viewBox="0 0 314 273" version="1.1" xmlns:xlink="http://www.w3.org/1999/xlink" xmlns="http://www.w3.org/2000/svg">
  <desc>Created with Lunacy</desc>
  <defs>
    <rect width="313.783173" height="272.9061" id="artboard_1" />
    <clipPath id="clip_1">
      <use xlink:href="#artboard_1" clip-rule="evenodd" />
    </clipPath>
  </defs>
  <g id="body/Polo-and-Sweater" clip-path="url(#clip_1)">
    <use xlink:href="#artboard_1" stroke="none" fill="#FFFFFF" />
    <path d="M32.012 284.051C55.5005 284.689 77.6887 285.393 101.132 284.051C138.646 281.799 248.738 285.859 272.938 284.051C274.764 283.915 281.044 285.859 281.175 284.051C282.239 271.464 282.928 144.119 279.768 135.357C276.608 126.595 261.007 84.4733 241.13 64.8323C235.587 59.5261 227.153 57.4707 222.493 51.3387C218.476 44.6521 218.788 40.7276 214.821 37.2096C213.099 35.683 209.039 35.0641 206.022 32.9451C202.989 30.0191 205.861 23.5781 204.616 19.5035C202.049 9.32961 192.595 2.80257 182.261 1.26454C167.898 -2.07107 152.736 1.08269 145.856 12.0327C143.295 16.1087 144.658 21.063 141.508 27.5942C141.733 32.53 135.796 33.7225 132.248 35.6783L125.2 42.5911C103.489 54.4478 77.9475 60.8504 58.9237 76.7802C42.7497 92.7052 26.6623 111.112 19.486 132.657C18.0003 138.528 17.5154 144.596 16.8998 150.596C15.1421 168.127 10.2478 185.143 6.03587 202.22C1.23323 223.735 -3.24362 246.575 3.22921 268.294C5.09542 272.891 27.7637 283.836 32.012 284.051Z" transform="translate(5.110397 -20.10495)" id="âœ‹-Skin" fill="#D08B5B" stroke="none" />
    <path d="M141.535 0L143.369 0.190469L143.369 13.8982L167.356 38.1166L171.74 42.9802C169.126 52.0242 171.758 56.5462 179.634 56.5462C191.448 56.5462 182.314 53.2143 184.536 48.7048L184.629 48.5201C186.24 45.4326 191.751 38.8843 201.163 28.8752L211.959 11.3605L211.959 8.16221L212.324 8.30738C213.344 8.71924 214.223 9.13978 214.821 9.66967C218.788 13.1877 218.476 17.1122 222.493 23.7988C227.153 29.9308 235.587 31.9861 241.13 37.2923C261.007 56.9334 276.608 99.0547 279.768 107.817C282.928 116.579 282.239 243.924 281.175 256.511C281.044 258.319 274.764 256.375 272.938 256.511C248.738 258.319 138.646 254.259 101.132 256.511C77.6887 257.853 55.5005 257.149 32.012 256.511C27.7637 256.296 5.09542 245.351 3.22921 240.755C-3.24362 219.035 1.23323 196.196 6.03587 174.68L6.45223 173C10.4956 156.767 15.0428 140.571 16.8108 123.917L16.8998 123.056C17.5154 117.057 18.0003 110.989 19.486 105.118C26.6623 83.5717 42.7497 65.1653 58.9237 49.2403C77.7572 33.4697 102.979 27.0369 124.548 15.4053L125.2 15.0512L132.248 8.1383L132.463 8.02183C136.031 6.13334 141.729 4.8913 141.508 0.0542473L141.535 0L141.535 0Z" transform="translate(4.986736 7.443377)" id="Path" fill="#FDEA6B" stroke="none" />
    <path d="M147.329 0.512182C147.268 -0.0541076 146.458 -0.221649 146.27 0.374426C144.44 6.16726 143.416 12.1954 141.613 18.0109C141.505 18.3497 141.39 18.6923 141.264 19.0385C140.37 21.4437 139.062 23.927 138.882 26.4215C138.685 29.1891 140.585 30.9389 142.476 32.6802C142.722 32.9066 142.968 33.1328 143.209 33.3611L149.969 39.7502L156.727 46.1392C159.07 48.3508 161.414 50.5657 163.758 52.7813C165.182 54.1254 166.574 55.5476 168.028 56.8842C166.677 56.5119 165.269 56.3366 164.023 56.3146C159.573 56.2286 155.4 58.1166 151.686 60.324C145.548 63.9696 139.535 67.8526 133.542 71.7465L129.691 74.2489C130.562 64.7363 130.88 55.1828 130.615 45.6325C130.542 42.9668 130.401 40.3122 130.197 37.6542C130.125 36.7025 130.006 35.7362 129.887 34.7654C129.672 33.0162 129.456 31.2528 129.503 29.5337C129.566 27.2642 131.937 25.7232 133.637 24.3655L134.108 23.9839C136.159 22.3365 138.397 20.8484 140.148 18.9008C140.209 18.8297 140.152 18.7366 140.06 18.7518C137.406 19.2332 134.997 20.5856 132.715 21.9584L132.261 22.233C130.343 23.3946 127.942 24.6083 126.676 26.4997C126.12 27.3296 125.828 28.2347 125.686 29.1692L125.303 29.1092L125.307 29.0662C125.318 28.8353 125.162 28.5856 124.884 28.607C115.148 29.3438 105.628 31.1387 96.4408 34.4147C87.4297 37.6244 78.8486 42.036 71.0274 47.4275C55.4034 58.2018 43.2046 72.8006 34.1521 89.1192C29.6322 97.268 25.8622 105.776 22.6503 114.488C25.36 116.154 28.224 117.571 30.9092 119.277C32.5571 120.324 31.0177 122.901 29.3602 121.849C26.8434 120.25 24.1678 118.908 21.6111 117.374C18.7388 125.509 16.3286 133.805 14.243 142.14C11.9874 151.154 10.1116 160.257 8.14379 169.334L7.8712 170.593C5.87687 179.826 3.99014 189.089 2.56282 198.427C1.07024 208.174 0 218.011 0 227.877C0 232.568 0.245886 237.263 0.84008 241.92C1.34259 245.874 1.92183 249.891 3.42169 253.626C4.37225 255.991 5.62393 258.184 7.14912 260.159C9.25545 258.958 11.4059 257.826 13.4516 256.527C15.1111 255.473 16.6466 258.053 15.0006 259.098C13.1022 260.304 11.1144 261.365 9.15457 262.472C11.0825 264.439 13.3385 266.112 15.9005 267.42C21.5893 270.321 28.0065 271.452 34.3512 271.948C40.066 272.391 45.8032 272.274 51.5287 272.083L54.3904 271.984C60.0128 271.791 65.6321 271.771 71.2541 271.795C69.0285 258.946 67.5163 245.982 67.4879 232.936C67.4837 231.016 70.5525 231.02 70.5567 232.936C70.5851 245.997 72.1141 258.959 74.3605 271.812L80.0074 271.85C103.752 272.003 127.497 272.078 151.242 272.078L160.051 272.08C164.81 272.083 169.569 272.087 174.328 272.091C190.123 272.105 205.917 272.119 221.712 272.074C236.88 272.033 252.067 272.031 267.246 271.872C266.342 264.748 265.927 257.564 264.632 250.488C264.288 248.611 267.246 247.812 267.591 249.696C268.932 257.024 269.328 264.466 270.302 271.837C277.402 271.752 284.5 271.634 291.592 271.452C293.679 271.4 295.727 271.248 297.619 270.339C299.496 269.436 300.493 268.215 301.561 266.617L301.769 266.303C303.192 264.136 299.644 262.137 298.229 264.293C298.117 264.464 297.922 264.606 297.672 264.724C298.098 263.998 298.328 263.154 298.332 262.397C298.554 228.174 295.029 193.862 289.448 160.101C287.631 149.1 285.462 138.146 283.023 127.251C278.526 128.909 273.739 129.781 269.537 132.143C267.824 133.106 266.28 130.531 267.989 129.571C272.475 127.049 277.568 126.113 282.361 124.323C281.285 119.617 280.165 114.922 278.995 110.241C275.201 95.0721 270.606 79.7439 262.167 66.3295C254.464 54.0878 243.93 43.641 230.255 38.0299C229.798 37.7734 226.15 36.6936 225.614 36.8649L225.23 35.7495C223.795 31.5952 222.233 27.3855 219.226 24.042C217.907 22.5781 216.176 21.8195 214.4 21.0039L213.619 20.6425C211.741 19.7916 209.759 19.3211 207.68 19.5337C207.216 19.5821 207.07 20.215 207.565 20.3565C209.59 20.9407 211.712 21.8342 213.193 23.357C213.94 24.1243 214.163 25.0737 214.757 25.9334C215.329 26.764 215.908 27.5868 216.415 28.4618C218.533 32.1097 219.701 36.2635 220.974 40.2567L221.221 41.0274C222.499 44.9612 223.788 48.8923 225.081 52.8223L227.669 60.6815C226.561 60.1863 225.364 59.814 224.263 59.3784L218.087 56.9248C217.384 56.6456 216.657 56.3266 215.912 55.9998C212.962 54.7055 209.731 53.2882 206.61 53.7341C203.42 54.1924 200.351 56.2956 197.728 58.1947L196.573 59.0345C193.709 61.1424 190.97 63.5565 188.941 66.456C188.749 66.7353 189.026 67.0931 189.325 67.0931C189.394 67.0931 189.467 67.0741 189.532 67.0298C192.363 65.1455 195.068 63.113 198.01 61.3743C198.265 61.2233 198.529 61.0656 198.799 60.9038C201.359 59.3698 204.529 57.4702 207.458 57.487C208.864 57.496 210.199 57.9932 211.486 58.5275C211.486 58.5275 211.863 58.7343 211.998 59.0345C212.134 59.3346 212.134 59.4547 212.061 59.7994C211.988 60.1442 207.821 62.4383 207.595 62.5751L207.508 62.6253C206.51 63.1279 205.478 63.5706 204.435 63.9727C202.31 64.7918 200.12 65.4698 197.906 66.0096C195.09 66.6947 192.225 67.1188 189.34 67.3016C187.626 67.4129 185.903 67.4356 184.177 67.3794C175.707 67.0968 167.403 65.1273 159.726 61.6982C160.444 61.4674 161.18 61.2846 161.932 61.1617C163.57 60.894 165.289 60.9905 166.869 61.4894C168.434 61.9808 169.704 63.0084 171.242 63.5818C172.596 64.0919 173.87 62.5918 173.517 61.3706C173.344 60.7708 173.072 60.231 172.719 59.7544C173.621 59.6576 174.51 59.1885 175.005 58.5444C176.006 57.2413 175.776 55.7483 174.76 54.5312C172.884 52.2899 170.456 50.3646 168.319 48.3545L162.086 42.4906C157.839 38.499 153.593 34.5044 149.346 30.5132L147.176 28.4743L146.093 27.4524C145.844 27.2179 145.322 26.8754 145.146 26.5704C145.207 26.2871 145.272 26.0008 145.341 25.7175C145.878 23.0632 146.082 20.2634 146.435 17.5716C147.172 11.9943 147.939 6.12668 147.329 0.512182ZM211.256 22.8845C211.21 22.7504 211.356 22.5978 211.497 22.6458C214.905 23.8788 213.149 28.1772 212.075 30.8063L212.04 30.8904L211.846 31.3695C210.17 35.5692 207.827 39.6572 205.272 43.4176C202.598 47.3529 199.629 51.1208 196.415 54.6577C195.02 56.1933 193.574 57.6848 192.079 59.1319L191.516 59.6724C191.264 59.9123 191.001 60.1823 190.725 60.4646C189.345 61.8785 187.666 63.5989 185.712 63.3662C183.188 63.0717 181.78 60.4547 183.621 58.4665C184.922 57.0592 186.725 55.9381 188.178 54.6577C189.621 53.3915 191.017 52.0851 192.379 50.741C195.164 47.9822 197.803 45.0669 200.216 41.9953C202.55 39.025 204.783 35.9725 206.813 32.7989L207.217 32.1625C207.548 31.6336 207.972 31.0514 208.423 30.4318C210.078 28.1592 212.1 25.3828 211.256 22.8845ZM87.6914 56.6553C86.0687 55.5789 87.6054 52.9988 89.2403 54.0837C92.2224 56.0614 94.8512 58.461 98.0784 60.0884L98.1397 60.1207C99.7963 61.0333 98.2586 63.5318 96.5294 62.6599C93.2999 61.0322 90.675 58.6345 87.6914 56.6553ZM179.091 88.5443C177.174 88.0718 177.991 85.1998 179.906 85.6723C183.411 86.5368 186.748 87.7032 189.994 89.2536C191.768 90.101 190.212 92.6684 188.445 91.8255C185.428 90.3847 182.345 89.347 179.091 88.5443ZM240.683 104.46C242.109 103.16 240.003 101.09 238.564 102.309L238.513 102.354C235.848 104.784 232.015 105.435 228.585 106.259C226.668 106.72 227.48 109.593 229.4 109.132L230.963 108.757C234.469 107.908 237.986 106.919 240.683 104.46ZM74.8109 113.755C76.0203 112.343 78.6081 113.81 77.4182 115.31C75.7123 117.459 73.7571 119.389 71.5714 121.082C70.0696 122.246 68.3591 123.604 66.3713 123.768C64.4004 123.93 64.418 120.95 66.3713 120.789C67.656 120.683 69.3204 119.065 70.2349 118.31L70.5237 118.07C72.0598 116.78 73.5295 115.367 74.7683 113.807L74.8109 113.755ZM162.34 118.091L162.024 117.794C160.612 116.452 158.44 118.557 159.854 119.901C163.386 123.255 167.561 125.802 171.772 128.264L172.538 128.711C174.236 129.7 175.78 127.126 174.087 126.139L172.963 125.483C169.218 123.292 165.518 121.029 162.34 118.091ZM209.438 146.725L209.025 146.94C207.658 147.678 206.412 148.603 205.019 149.299C203.264 150.175 201.714 147.604 203.47 146.727L203.884 146.512C205.251 145.774 206.497 144.849 207.89 144.153C209.644 143.277 211.195 145.848 209.438 146.725ZM93.9192 154.689L94.177 154.595C96.0221 153.952 95.2265 151.073 93.3611 151.724C90.5501 152.704 88.3632 154.556 85.9247 156.162C84.2998 157.234 85.8334 159.815 87.4733 158.735C89.5744 157.35 91.5292 155.596 93.9192 154.689ZM264.344 159.796C262.366 159.795 262.369 156.816 264.344 156.817C266.76 156.818 269.083 156.863 271.305 157.878C273.092 158.695 271.533 161.262 269.756 160.45L269.582 160.374C268.14 159.772 266.514 159.783 264.955 159.793C264.876 159.793 264.797 159.794 264.718 159.794L264.344 159.796ZM150.224 178.464C151.848 177.393 150.315 174.811 148.675 175.893C146.438 177.368 144.411 179.111 142.21 180.631L141.605 181.039C139.98 182.111 141.514 184.692 143.154 183.611C145.594 182.002 147.784 180.073 150.224 178.464ZM39.7471 192.189C41.5139 191.332 39.9615 188.762 38.1985 189.617L27.5928 194.764C25.8259 195.621 27.3783 198.192 29.1413 197.336L39.7471 192.189ZM249.319 195.824C247.345 195.77 247.343 192.791 249.319 192.845C251.745 192.911 254.118 193.745 256.28 194.764C258.058 195.602 256.5 198.17 254.731 197.336C253.077 196.557 251.175 195.874 249.319 195.824ZM218.185 202.25C216.766 200.911 218.938 198.807 220.355 200.144C221.527 201.25 222.877 202.235 224.573 202.281L224.66 202.285C226.546 202.422 226.519 205.312 224.573 205.259C222.043 205.192 219.956 203.921 218.185 202.25ZM113.621 219.49C111.706 219.019 110.889 221.891 112.805 222.362L113.749 222.592C116.956 223.361 120.011 223.935 123.343 223.221C125.245 222.812 124.476 220.01 122.602 220.334L122.527 220.348C119.612 220.973 116.915 220.305 114.109 219.611C113.947 219.571 113.784 219.531 113.621 219.49ZM160.53 249.514C164.98 248.689 169.269 248.689 173.72 249.514C175.66 249.874 174.834 252.744 172.904 252.386C169.011 251.665 165.238 251.665 161.346 252.386C159.413 252.744 158.593 249.873 160.53 249.514ZM233.612 249.897C232.214 248.539 230.044 250.645 231.442 252.003L232.182 252.718C233.417 253.914 234.642 255.146 235.496 256.625L235.622 256.848C236.543 258.545 239.193 257.041 238.271 255.345C237.132 253.249 235.321 251.556 233.612 249.897Z" transform="translate(3.452211 -6.693528)" id="ðŸ–-Ink" fill="#000000" fill-rule="evenodd" stroke="none" />
  </g>
</svg>