<?xml version="1.0" encoding="utf-8"?>
<svg width="314px" height="273px" viewBox="0 0 314 273" version="1.1" xmlns:xlink="http://www.w3.org/1999/xlink" xmlns="http://www.w3.org/2000/svg">
  <desc>Created with Lunacy</desc>
  <defs>
    <rect width="313.783173" height="272.9061" id="artboard_1" />
    <clipPath id="clip_1">
      <use xlink:href="#artboard_1" clip-rule="evenodd" />
    </clipPath>
  </defs>
  <g id="body/Thunder-T-Shirt" clip-path="url(#clip_1)">
    <use xlink:href="#artboard_1" stroke="none" fill="#FFFFFF" />
    <path d="M153.499 0.245986C148.21 -0.108084 142.284 -0.269296 137.129 1.11571C132.341 2.40168 128.794 5.7607 127.323 10.3469C126.301 13.5324 126.341 16.9494 126.38 20.2844C126.388 20.9645 126.396 21.6412 126.395 22.3119C126.392 24.5283 124.538 31.4649 123.594 32.5658C120.775 35.8504 117.021 37.91 112.942 39.8095L112.785 39.8821C107.455 42.3278 87.7012 49.7399 86.3398 50.8398C83.7574 52.9266 80.8543 52.3148 77.8316 54.0148C70.5658 58.101 63.134 61.8204 56.0566 66.2293C48.6624 70.8352 17.9611 95.1637 15.2495 98.2714C12.2275 101.735 10.1434 105.612 9.22468 110.083C8.29599 114.603 8.06123 119.271 7.65308 123.855L7.34023 127.41C6.61766 135.704 5.94708 144.003 5.32848 152.306C3.90571 171.406 2.75875 190.526 1.88837 209.658C0.911346 231.135 0.286081 252.626 0.000293553 274.123C-0.0238663 276.08 1.44608 277.891 3.36829 278.414C18.7559 282.603 33.9901 286.081 50.0506 286.897C52.1871 287.005 52.0908 286.346 51.9682 285.508C51.8107 284.43 51.6098 283.055 56.0566 282.635C60.4953 282.216 70.1701 282.811 79.4649 283.383C87.4894 283.877 95.2307 284.354 99.0749 284.145C125.692 282.697 152.352 282.898 179.001 283.099C184.94 283.144 190.877 283.188 196.814 283.215C213.236 283.288 229.664 283.225 246.076 282.635C250.115 282.49 254.151 282.314 258.186 282.1L258.411 282.088C262.172 281.905 266.427 282.067 269.791 280.226C273.423 278.239 274.609 274.431 274.785 270.627C274.968 266.668 274.938 262.689 274.976 258.726L274.991 256.959C275.238 225.739 274.079 194.507 271.525 163.384C270.872 155.426 270.127 147.475 269.292 139.533C268.88 135.623 268.446 131.715 267.991 127.81C267.566 124.168 267.924 119.179 264.887 116.525L264.779 116.429C260.864 112.858 220.984 70.4994 219.935 65.4504C218.848 60.2168 214.93 56.9598 209.981 55.1493C202.248 52.3197 193.745 50.1007 188.537 43.4713C186.386 40.7329 185.423 37.5883 184.732 33.8246C184.482 32.4639 184.357 31.5495 184.214 30.3297L183.85 27.1401C183.673 25.607 183.487 24.0753 183.264 22.5472C182.72 18.8133 181.852 15.1371 180.001 11.7851C177.75 7.70753 174.055 4.86193 169.674 3.16977C164.634 1.22331 158.87 0.606014 153.499 0.245986ZM114.302 162.865L145.868 103.201L206.508 104.996L189.449 131.531L206.508 131.531L181.913 162.865L206.508 162.865L140.964 242.447L152.425 196.014L120.115 196.014L134.828 162.865L114.302 162.865Z" transform="translate(19.9432 -20.47731)" id="âœ‹-Skin" fill="#D08B5B" fill-rule="evenodd" stroke="none" />
    <path d="M114.419 6.6479L102.154 142.21L0 144.666L0 1.28489e-13L114.419 6.6479Z" transform="translate(124.3002 72.57642)" id="ðŸ‘•-Top" fill="#FDEA6B" stroke="none" />
    <path d="M283.682 232.078C283.996 237.503 284.292 242.928 284.556 248.352C284.691 251.066 284.821 253.781 284.952 256.491C284.982 257.156 285.037 257.842 285.093 258.537C285.268 260.714 285.451 262.985 284.913 265.013C283.782 269.28 277.897 268.751 276.535 265.013C276.067 263.734 276.033 262.329 276 260.955C275.991 260.573 275.982 260.194 275.964 259.82C275.887 258.219 275.81 256.614 275.734 255.013C275.588 252.053 275.438 249.093 275.285 246.133C274.982 240.217 274.694 234.298 274.391 228.381C273.305 207.189 272.178 186.001 271.088 164.805C270.54 154.101 269.941 143.393 269.642 132.674C269.443 125.459 269.45 118.243 269.435 111.024C269.232 111.203 269.028 111.389 268.825 111.571C266.309 113.865 263.842 116.185 261.456 118.605C260.225 119.855 259.005 121.114 257.82 122.406C257.08 123.214 256.397 124.078 255.606 124.833L255.606 124.707C255.553 124.802 255.497 124.896 255.438 124.991C255.071 125.327 254.68 125.638 254.248 125.909C253.071 126.703 251.437 126.271 250.455 125.433C250.37 125.358 250.286 125.287 250.201 125.217C250.098 125.131 250.002 125.031 249.914 124.922C249.902 126.952 249.891 128.981 249.883 131.01C249.818 153.692 250.351 176.421 252.238 199.032C253.19 210.465 254.409 221.888 255.752 233.284C256.408 238.858 257.121 244.428 257.885 249.99C258.272 252.805 258.679 255.616 259.101 258.427C259.323 259.924 259.753 261.517 259.788 263.029C259.826 264.645 259.078 265.724 258.061 266.889C257.517 267.511 256.5 267.709 255.671 267.508C255.411 268.077 255.042 268.61 254.567 269.064C252.429 271.096 249.331 270.974 246.412 270.859C245.55 270.825 244.704 270.791 243.903 270.814C236.112 271.037 228.321 271.26 220.53 271.484C192.432 272.292 164.337 273.1 136.242 273.904C122.195 274.31 108.147 274.66 94.0962 274.958C87.0725 275.103 80.0488 275.11 73.0251 275.062C67.812 275.025 62.4263 274.734 57.1787 274.101C56.4422 275.468 54.8694 276.316 53.1854 276.097C51.2636 275.848 49.4262 273.911 49.7676 271.931C49.3435 262.597 49.5185 253.207 49.6927 243.862C49.7075 243.064 49.7224 242.266 49.7369 241.468C50.0706 223.549 51.1294 205.685 52.5563 187.817C53.2813 178.77 54.1368 169.69 55.3528 160.691C55.9512 156.26 56.3923 151.737 57.4357 147.377C57.9421 145.266 58.3295 143.028 58.8282 140.828C58.3141 140.039 57.804 139.249 57.2669 138.49C55.6175 136.155 53.8951 133.862 52.0922 131.636C41.2939 118.299 27.845 106.824 13.3526 97.2264C13.9664 98.4104 13.5904 100.167 12.3668 100.785C12.1328 110.034 11.3656 119.245 10.7096 128.497C9.14455 150.612 7.82497 172.757 7.99375 194.936C8.07815 206.024 8.33516 217.119 8.79164 228.199C9.02563 233.802 9.28648 239.402 9.59336 245.002C9.75447 247.92 9.94627 250.839 10.1266 253.762C10.137 253.929 10.1481 254.098 10.1593 254.266C10.328 256.814 10.499 259.396 8.35434 260.985C8.3505 261.007 8.34666 261.033 8.34283 261.055C8.05897 263.141 5.03238 263.877 4.35341 261.58C4.31888 261.457 4.28053 261.339 4.246 261.216C1.44957 259.574 1.61835 256.145 1.41121 253.032C1.20023 249.867 1.01611 246.707 0.847323 243.542C0.509757 237.213 0.28727 230.879 0.15301 224.547C-0.322651 202.141 0.333301 179.664 1.80632 157.299C2.54283 146.093 3.521 134.915 4.89812 123.765C5.85711 116.025 7.0501 108.37 8.82616 100.815C7.05778 100.313 5.65764 99.0504 4.89428 97.1441C4.24984 95.525 4.22299 93.8793 4.67947 92.3301C4.46082 92.829 4.28436 93.3428 4.15394 93.8678C4.08105 94.1586 3.65526 94.0282 3.70129 93.7449C4.25367 90.3423 6.73172 87.3638 8.7341 84.6195C10.794 81.794 12.992 79.0534 15.3397 76.4472C31.6234 58.3714 53.1241 46.5024 75.2538 36.3978C76.7921 35.6937 78.3303 35.0016 79.8724 34.3162C80.371 34.0965 80.8544 34.0596 81.2917 34.1527C81.2917 34.1527 81.2955 34.1561 81.2955 34.1527C82.3734 33.8437 83.6009 34.2082 84.5139 34.9085C85.354 35.5523 86.0943 36.1107 86.7464 36.9522C87.1377 37.4622 87.2298 38.1402 87.1224 38.7839C89.8267 38.0769 92.4927 37.2128 95.1127 36.26C101.062 34.0965 106.793 31.4981 112.52 28.8324C117.039 26.7284 122.387 24.5172 125.114 20.1943C126.675 17.7262 127.162 14.7958 127.696 11.9885C128.313 8.7423 128.789 5.43988 129.575 2.22681C129.894 0.938603 131.259 0 132.59 0C133.192 0 133.634 0.186157 134.171 0.413641C135.513 0.987004 135.793 2.62891 135.605 3.84265C135.072 7.30852 134.209 10.7565 133.476 14.1893C132.82 17.272 132.011 20.4218 130.25 23.1062C126.955 28.1246 121.401 30.8685 116.007 33.2774C109.647 36.1185 103.172 39.004 96.4169 40.8544C93.118 41.7554 89.75 42.392 86.3398 42.7044C86.2132 42.7159 86.0828 42.7271 85.9562 42.7342C87.4829 43.5458 89.0173 44.3351 90.544 45.1174C95.4311 47.6227 100.368 50.0096 105.424 52.1802C123.38 59.8871 143.231 63.8783 162.864 63.5618C172.676 63.4054 182.435 62.2099 191.952 59.8573C197.065 58.5877 202.148 57.0236 206.974 54.9353C209.617 53.7923 212.202 52.519 214.688 51.0852C215.313 50.724 215.919 50.3447 216.518 49.9645C211.934 48.4604 207.4 46.7481 202.923 45.0649C197.372 42.9836 192.439 40.3741 188.803 35.6867C185.673 31.6545 184.234 26.788 183.674 21.8288C183.141 17.1007 183.099 11.8359 184.035 7.15215C184.115 6.75005 184.725 6.79101 184.829 7.15215C186.141 11.6162 186.704 16.2482 188.124 20.7048C189.416 24.7481 191.097 28.899 193.755 32.2912C196.866 36.26 201.477 38.1436 206.157 39.819C210.917 41.5208 215.758 43.0134 220.542 44.6442C223.012 44.8489 225.463 45.4264 227.841 46.2265C226.963 45.6531 226.1 45.0578 225.275 44.4249C225.114 44.2983 225.294 44.0596 225.471 44.1043C228.578 44.8787 231.735 46.3866 234.62 47.7493C237.543 49.1346 240.412 50.6198 243.193 52.2584C248.982 55.6721 254.586 59.4366 259.469 64.016C264.187 68.4354 268.192 73.4914 271.855 78.7556C273.624 81.2988 275.312 83.8972 276.95 86.5224C277.771 87.8326 278.58 89.1543 279.382 90.4764C280.298 91.988 281.472 93.5141 281.894 95.2304C282.128 96.1836 278.76 107.435 277.299 109.729C277.176 109.919 277.053 110.101 276.927 110.283C275.239 112.711 271.832 111.169 272.043 108.735C271.848 108.902 271.648 109.073 271.453 109.244C272.983 118.143 274.51 127.037 275.603 135.999C278.208 157.377 279.827 178.826 281.564 200.283C282.42 210.872 283.06 221.475 283.682 232.078ZM255.438 124.991C255.363 125.109 255.283 125.228 255.197 125.343C255.331 125.209 255.472 125.081 255.606 124.955L255.606 124.833C255.551 124.886 255.495 124.939 255.438 124.991L255.438 124.991ZM79.3924 39.1157C79.5382 39.0524 79.6801 38.9891 79.8221 38.9258C79.895 39.0263 79.9832 39.1194 80.0752 39.2125C80.3054 39.4396 80.5317 39.6849 80.7695 39.9087C80.3092 39.6477 79.8489 39.3834 79.3924 39.1157ZM185.419 121.702C188.173 118.124 191.173 110.972 194.008 107.457C197.053 103.682 200.091 99.903 203.26 96.2245L202.896 95.927C202.039 97.0171 200.386 96.9012 199.048 96.8074C198.883 96.7958 198.722 96.7845 198.569 96.7759C196.815 96.6828 195.062 96.5749 193.313 96.4557C186.178 95.9751 156.822 95.8339 154.535 95.1824C153.757 97.267 153.016 99.3184 152.076 101.355C150.926 103.857 149.771 106.359 148.616 108.857C146.415 113.623 144.094 118.336 141.754 123.035C139.36 127.845 136.967 132.652 134.573 137.462C133.403 139.804 132.152 142.127 131.063 144.507C130.791 145.102 130.288 146.353 130.33 147.161C139.326 144.693 148.482 143.393 157.815 143.148C158.158 143.138 158.5 143.133 158.842 143.127C150.339 154.716 143.163 167.371 137.929 180.479C137.687 181.085 137.872 181.57 138.244 181.884C138.132 182.106 138.017 182.327 137.906 182.55C138.272 182.442 138.639 182.34 139.005 182.234C139.542 182.336 140.144 182.212 140.553 181.789C149.649 179.201 158.86 177.016 168.161 175.237C170.067 174.872 171.59 176.667 170.662 178.395C170.428 178.83 170.194 179.262 169.964 179.698C165.491 188.037 161.106 196.422 156.68 204.784C154.351 209.185 152.023 213.582 149.694 217.983C149.683 218.001 149.675 218.02 149.664 218.039C152.249 214.96 154.792 211.85 157.301 208.708C167.267 196.217 177.321 183.841 186.642 170.877C189.032 167.552 191.338 164.168 193.632 160.78C194.809 159.038 195.979 157.288 197.142 155.53C197.245 155.378 197.767 154.384 198.139 153.833C197.96 153.824 197.78 153.81 197.6 153.795C196.999 153.748 196.388 153.701 195.757 153.818C193.762 154.194 191.783 154.801 189.815 155.292C186.255 156.175 182.699 157.061 179.139 157.947C178.633 158.07 178.127 158.197 177.62 158.323C175.173 158.934 173.378 157.906 175.169 155.638C175.641 155.043 176.113 154.447 176.592 153.855C183.67 145.024 190.068 134.67 197.775 126.334C194.023 126.609 190.271 126.881 186.516 127.075C184.636 127.175 183.11 124.8 184.253 123.247C184.636 122.73 185.024 122.216 185.419 121.702Z" transform="translate(16.49473 -8.563246)" id="ðŸ–-Ink" fill="#000000" fill-rule="evenodd" stroke="none" />
  </g>
</svg>