<?xml version="1.0" encoding="utf-8"?>
<svg width="314px" height="273px" viewBox="0 0 314 273" version="1.1" xmlns:xlink="http://www.w3.org/1999/xlink" xmlns="http://www.w3.org/2000/svg">
  <desc>Created with Lunacy</desc>
  <defs>
    <rect width="313.783173" height="272.9061" id="artboard_1" />
    <clipPath id="clip_1">
      <use xlink:href="#artboard_1" clip-rule="evenodd" />
    </clipPath>
  </defs>
  <g id="body/Turtleneck" clip-path="url(#clip_1)">
    <use xlink:href="#artboard_1" stroke="none" fill="#FFFFFF" />
    <path d="M21.6999 44.195C40.7974 40.1125 52.1243 40.1125 58.5334 33.788C64.9425 27.4635 66.1055 16.6073 68.7644 8.22506C70.2294 3.60651 84.582 -0.588689 98.5048 0.0681255C109.851 0.603372 121.285 5.25325 122.168 8.22506C124.135 14.8437 127.299 43.1756 137.701 47.5284C148.103 51.8812 170.311 47.9129 176.66 58.3078C183.01 68.7026 203.862 111.077 203.862 120.95C203.862 130.824 2.82915e-15 127.805 2.82915e-15 127.805C2.82915e-15 127.805 2.60248 48.2775 21.6999 44.195Z" transform="translate(80.64967 -11.91412)" id="âœ‹-Skin" fill="#D08B5B" stroke="none" />
    <path d="M305.852 218.962C307.134 224.274 308.411 229.591 309.692 234.904C310.39 237.804 311.088 240.701 311.787 243.601C311.942 244.246 312.133 244.919 312.329 245.607C312.868 247.501 313.44 249.509 313.375 251.353C313.129 258.218 304.828 257.999 299.707 258.68C294.252 259.406 288.755 260.381 283.259 260.735C278.398 261.048 273.473 260.363 269.368 257.842C269.242 258.617 269.115 259.391 268.988 260.166C269.073 261.193 268.835 262.161 268.493 263.219C267.757 265.523 265.313 266.983 262.855 266.327C262.168 266.145 261.593 265.84 261.125 265.441L261.121 265.441C260.07 265.68 258.95 265.78 257.841 265.81C254.139 265.91 250.438 265.996 246.74 266.082C239.337 266.257 231.933 266.424 224.53 266.61C198.238 267.273 171.938 267.794 145.635 267.906L144.985 267.909C131.925 267.964 118.862 268.019 105.798 267.858C99.2849 267.776 92.7753 267.656 86.2656 267.441C82.9433 267.329 79.6102 267.202 76.3036 266.834C74.2475 266.603 71.8692 266.621 70.0586 265.68C68.95 266.51 67.1125 266.379 66.7098 264.671C65.6894 260.329 64.669 255.992 63.6487 251.654C63.0196 253.043 62.3905 254.436 61.7575 255.821C60.9903 257.503 60.2193 259.183 59.5595 260.895C59.0301 262.284 58.3819 263.606 57.2579 264.648C54.6921 267.023 51.0978 266.53 47.7871 266.076C47.059 265.977 46.3446 265.879 45.6579 265.814C38.569 265.143 31.319 265.281 24.2915 266.432C20.5668 267.046 16.8881 267.902 13.2746 268.978C9.89891 269.987 6.18568 270.691 3.13607 268.45C-0.15615 266.024 -0.0605475 262.203 0.0299874 258.585C0.0335478 258.442 0.0371003 258.3 0.0404387 258.159L0.305121 246.677C1.01478 216.076 0.788455 185.256 4.03369 154.782C6.99891 126.978 12.983 98.2983 29.2399 74.6862C43.1991 54.4137 63.6717 38.8472 86.5456 29.0144C92.4262 26.4864 98.441 24.26 104.59 22.4282C110.217 20.7528 116.002 19.7215 121.649 18.1429C124.272 17.4094 126.194 16.8323 128.319 15.2984C128.285 15.3216 128.363 15.2578 128.47 15.1714C128.602 15.0635 128.778 14.9202 128.833 14.8665C129.006 14.7064 129.175 14.5463 129.343 14.3825C129.512 14.2112 129.612 14.1107 129.666 14.0586C129.812 13.8612 129.946 13.6453 130.072 13.4405C130.656 12.4874 130.859 11.471 131.185 10.0488C131.638 8.06432 132.09 6.33678 133.636 4.8587C134.676 3.8609 135.673 3.23913 137.012 2.69928C137.959 2.31579 139.053 2.27856 140.069 2.5429C140.625 1.45575 141.385 0.539855 142.444 0.00372314C142.463 -0.00372314 142.482 0 142.493 0.0148926C143.253 1.23184 143.271 2.33424 143.293 3.65864C143.296 3.82532 143.298 3.99553 143.303 4.16992C143.322 5.06719 143.345 5.96819 143.387 6.86547C146.095 8.66374 149.855 9.11797 152.939 9.66527C157.891 10.5439 162.87 11.3221 167.884 11.8061C173.028 12.3087 178.203 12.4576 183.37 12.2975C185.894 12.2193 188.417 12.0592 190.93 11.8172C191.614 11.7514 192.364 11.6201 193.14 11.4842C194.821 11.1901 196.625 10.8744 198.142 11.1545L198.146 11.1545C198.265 11.1024 198.384 11.0503 198.499 10.9982C198.391 10.704 198.303 10.4025 198.23 10.1009C197.866 8.5446 198.007 6.00915 199.707 5.17144C200.34 4.8587 200.954 4.96294 201.495 5.39483C202.292 6.02776 202.653 7.23778 203.209 8.06432C203.455 8.42174 203.735 8.71587 204.019 8.99138C204.897 8.73448 205.787 8.50737 206.692 8.31377C208.165 7.9973 209.416 8.54833 210.275 9.72856C212.308 12.5209 213.363 16.0765 214.042 19.3938C214.587 22.0484 215.001 25.0307 217.042 27.0374C218.687 28.657 218.423 30.6414 217.295 31.9818C226.271 32.4025 235.543 34.2454 243.786 37.5739C253.576 41.5316 260.968 49.3353 265.176 58.673C269.299 67.8207 271.283 77.7168 273.684 87.3821C276.427 98.41 279.465 109.371 282.123 120.417C287.359 142.153 292.591 163.889 297.828 185.625C300.501 196.738 303.179 207.852 305.852 218.962ZM8.20224 261.245C8.23752 261.272 8.27986 261.299 8.32219 261.326C7.89883 261.292 7.63776 260.883 8.20224 261.245ZM9.46829 262.262C9.52121 262.261 9.49299 262.169 9.22486 261.988C9.28131 262.173 9.41537 262.263 9.46829 262.262Z" transform="translate(5.369899 0.3722751)" id="ðŸ–-Ink" fill="#000000" fill-rule="evenodd" stroke="none" />
  </g>
</svg>
