<?xml version="1.0" encoding="utf-8"?>
<svg width="314px" height="273px" viewBox="0 0 314 273" version="1.1" xmlns:xlink="http://www.w3.org/1999/xlink" xmlns="http://www.w3.org/2000/svg">
  <desc>Created with Lunacy</desc>
  <defs>
    <rect width="313.783173" height="272.9061" id="artboard_1" />
    <clipPath id="clip_1">
      <use xlink:href="#artboard_1" clip-rule="evenodd" />
    </clipPath>
  </defs>
  <g id="body/Sweater-Dots" clip-path="url(#clip_1)">
    <use xlink:href="#artboard_1" stroke="none" fill="#FFFFFF" />
    <path d="M85.4204 31.7397C78.3156 26.7204 74.7921 18.5027 72.1414 17.1038C70.1908 16.0746 70.2265 8.97332 66.3169 6.45987C61.0706 3.08702 44.3524 0.579116 38.2699 0.11005C32.4319 -0.340166 22.2777 0.605525 16.8003 2.68036C7.66592 6.14044 4.02268 12.7407 0 21.2439C0 21.2439 90.3018 35.1881 85.4204 31.7397Z" transform="translate(137.8233 -5.212368)" id="âœ‹-Skin" fill="#D08B5B" stroke="none" />
    <path d="M74.6269 0L218.999 0L268.971 43.1478L291.151 224.505L259.603 234.04L64.6761 237.202L3.79848 220.496L0 94.2567L74.6269 0Z" transform="translate(16.11063 32.39127)" id="ðŸ‘•-Top" fill="#78E185" stroke="none" />
    <path d="M305.103 246.481C306.004 248.119 307.197 249.59 307.719 251.41C308.268 253.309 308.037 255.331 306.898 256.98C305.36 259.207 302.805 259.948 300.235 260.402C291.21 262.007 282.081 263.049 272.961 264.078C270.75 249.46 269.518 234.726 268.305 220.002C268.149 218.104 265.079 218.088 265.236 220.002C266.46 234.841 267.719 249.687 269.934 264.421C268.213 264.616 266.493 264.813 264.775 265.015C263.521 265.162 262.255 265.335 260.983 265.509C256.916 266.066 252.783 266.632 248.733 266.385C246.767 266.266 244.853 265.947 242.949 265.63C239.803 265.107 236.682 264.588 233.397 264.978C228.046 265.614 222.748 266.735 217.393 267.401C212.195 268.049 206.975 268.526 201.742 268.865C180.123 270.268 158.35 269.43 136.723 268.511C131.321 268.284 125.936 267.923 120.569 267.271C115.552 266.664 110.738 266.217 105.739 267.204C102.989 267.748 100.235 268.373 97.4152 268.503C95.1765 268.611 92.9468 268.347 90.727 268.084C90.482 268.055 90.2373 268.026 89.9926 267.997C86.9468 267.637 83.8907 267.392 80.8304 267.191C72.9425 244.266 73.9732 219.459 72.7625 195.554C72.6663 193.647 69.5967 193.636 69.6938 195.554C70.8994 219.357 69.9113 244.101 77.5299 266.988C76.493 266.928 75.4558 266.87 74.4185 266.813C63.7277 266.221 53.0214 265.793 42.334 265.149C36.9329 264.825 31.5361 264.553 26.1504 264.065C24.127 263.883 22.0816 263.923 20.0378 263.963C19.0013 263.983 17.9652 264.003 16.9325 263.995C16.7561 264.494 16.5451 264.985 16.2766 265.462C15.1028 267.535 11.3627 267.796 10.269 265.462C9.02236 262.803 7.85276 260.104 6.79787 257.367C2.5664 246.369 0.14628 234.586 0.00780135 222.839C-0.0492325 218.059 0.216349 213.277 0.481655 208.5C0.5536 207.204 0.625524 205.909 0.690989 204.614C1.00554 198.471 1.31625 192.324 1.7267 186.185C2.5476 173.895 2.6857 161.564 3.67155 149.281C4.60753 137.576 6.63292 125.978 10.0393 114.704C13.5147 103.222 18.5245 92.3394 23.8833 81.5869C28.8394 71.6462 33.7571 61.4448 41.8779 53.507C45.7331 49.7429 50.1598 46.6043 54.9126 44.0056C56.9226 42.9072 58.8594 41.8424 60.1794 39.9511C61.4759 38.0969 62.5538 36.0567 64.2072 34.4594C66.198 32.5383 68.5572 31.8086 71.2807 31.4698C73.5247 31.1905 74.8213 30.5017 76.3941 28.9455C78.0086 27.3482 79.5204 25.6654 81.4767 24.4405C83.8857 22.9326 86.709 22.5007 89.482 22.0837C101.305 20.3041 112.567 15.1996 123.462 10.609C124.892 10.0059 126.281 9.47718 127.831 9.26868C128.472 9.18009 129.113 9.1981 129.751 9.21602C130.346 9.23275 130.94 9.24942 131.529 9.17933C133.381 8.95594 134.087 6.27528 135 4.94612C135.441 4.30201 136.105 3.69142 136.872 3.1888C137.597 2.02718 138.886 1.40169 140.152 0.906512C143.102 -0.251384 147.785 -0.768901 149.665 2.29152C149.734 2.40321 149.792 2.51491 149.842 2.6266C158.568 4.43977 167.18 6.76673 176.057 7.92091C181.02 8.56501 186.03 8.88148 191.036 8.89637C193.595 8.90382 196.153 8.83308 198.708 8.6767C199.216 8.64626 199.742 8.58282 200.273 8.51871C201.041 8.42604 201.82 8.33197 202.575 8.33417C204.121 5.11738 208.436 2.87605 211.95 5.13227C213.292 5.99232 214.052 7.40711 214.466 8.95594C215.41 9.90162 216.158 11.0744 216.672 12.2956C217.428 14.0827 217.942 16.0225 218.536 17.8617C219.012 19.3435 219.403 21.3652 220.642 22.456C222.219 23.841 225.088 23.3086 227.033 23.9192C229.254 24.6147 231.243 25.8616 233.212 27.0657C231.291 27.7019 229.404 28.4261 227.903 29.8022C226.464 31.1205 228.637 33.2237 230.073 31.908C231.345 30.743 233.077 30.2434 234.699 29.7177C235.314 29.5181 235.634 29.0702 235.726 28.5828C240.046 31.1808 244.368 33.7789 248.691 36.3769C256.911 41.3175 264.656 46.6192 271.135 53.6597C277.231 60.2831 282.39 67.923 285.206 76.4267C285.934 78.6233 286.475 80.8758 286.821 83.1618C287.15 85.325 287.204 87.5551 287.818 89.6699C288.436 91.8181 289.82 93.6611 290.752 95.6865C291.723 97.79 292.149 99.9643 292.344 102.258C292.782 107.377 292.851 112.541 293.115 117.672C293.246 120.215 293.138 122.929 293.921 125.382C294.55 127.355 295.854 129.061 296.66 130.971C298.235 134.696 297.596 138.461 296.951 142.265C296.85 142.859 296.749 143.454 296.656 144.05C296.322 146.217 296.257 148.283 296.99 150.376C297.673 152.319 298.724 154.121 299.337 156.087C300.334 159.28 299.766 162.327 299.19 165.414C298.881 167.067 298.571 168.731 298.497 170.436C298.319 174.59 299.065 178.715 299.804 182.807C299.941 183.563 300.077 184.318 300.208 185.072C301.934 195.038 303.584 204.935 304.301 215.032C304.973 224.48 304.99 233.929 304.28 243.371C304.035 243.124 303.687 242.96 303.228 242.96C301.369 242.961 299.527 243.045 297.813 243.807C297.06 244.142 296.874 245.2 297.263 245.845C297.715 246.596 298.606 246.715 299.362 246.379C300.391 245.921 301.652 245.929 302.792 245.937C302.94 245.938 303.085 245.939 303.228 245.939C303.877 245.939 304.309 245.614 304.532 245.181C304.695 245.586 304.801 245.929 305.103 246.481ZM135.526 41.2571C134.884 40.0367 134.042 38.6055 132.762 37.9312C131.023 37.0157 132.574 34.4449 134.311 35.3593C136.051 36.2759 137.296 38.0824 138.176 39.7537C139.073 41.4593 136.424 42.9645 135.526 41.2571ZM85.2604 44.3648C86.4388 43.8093 87.8037 43.3171 89.1259 43.2814C91.0965 43.2278 91.1049 40.2489 89.1259 40.3029C87.2367 40.3542 85.3951 40.9991 83.7118 41.7929C81.9354 42.6302 83.4893 45.1995 85.2604 44.3648ZM193.967 46.2949C195.713 45.4669 197.484 44.8138 198.917 43.4884C200.351 42.1637 198.178 40.0598 196.748 41.3826C195.535 42.5033 193.897 43.0215 192.418 43.723C190.644 44.5644 192.198 47.1337 193.967 46.2949ZM255.503 62.5821C257.841 62.5829 260.101 62.6454 262.387 63.1723C264.307 63.6146 265.126 60.7437 263.203 60.3002C260.656 59.7131 258.111 59.6044 255.503 59.6036C253.528 59.6029 253.525 62.5814 255.503 62.5821ZM129.443 71.9139C130.13 72.0944 130.836 72.2128 131.548 72.2326C133.523 72.2866 133.522 69.308 131.548 69.2541C130.408 69.2228 129.373 68.6699 128.234 68.6107C127.405 68.5675 126.699 69.3259 126.699 70.1C126.699 70.9421 127.403 71.546 128.234 71.5892C128.028 71.5785 128.161 71.5999 128.319 71.6255C128.414 71.6408 128.519 71.6576 128.566 71.67C128.859 71.7475 129.149 71.8364 129.443 71.9139ZM76.1226 71.2373C74.2537 71.8301 75.0539 74.7069 76.9385 74.1094C79.1319 73.4135 81.3741 72.8748 83.5671 72.1793C85.4364 71.5866 84.6362 68.7093 82.7516 69.3069C80.5582 70.0028 78.3164 70.5415 76.1226 71.2373ZM195.072 77.8195C194.066 77.3321 193.018 76.7747 191.869 76.736C189.897 76.669 189.894 73.6905 191.869 73.7575C193.592 73.8156 195.105 74.5129 196.621 75.2475C198.39 76.1046 196.834 78.6728 195.072 77.8195ZM243.572 89.5086C243.117 88.6836 242.432 88.3351 241.582 88.3165C239.607 88.2725 239.607 85.294 241.582 85.338C243.519 85.3804 245.295 86.3246 246.221 88.0056C247.153 89.697 244.503 91.2 243.572 89.5086ZM99.4758 93.4101C97.6959 93.9976 96.107 94.8294 94.5396 95.8335C92.8852 96.8931 91.3496 94.3126 92.9907 93.2616C94.7794 92.116 96.6295 91.2083 98.6599 90.5377C100.537 89.9182 101.335 92.7962 99.4758 93.4101ZM159.81 108.292C159.303 107.77 158.958 106.921 158.933 106.128C158.877 104.215 155.808 104.207 155.865 106.128C155.912 107.704 156.519 109.246 157.64 110.398C158.999 111.794 161.166 109.686 159.81 108.292ZM221.937 109.754C222.49 110.321 223.557 110.336 224.107 109.754C224.682 109.146 224.697 108.253 224.107 107.648C224.073 107.613 224.04 107.579 224.023 107.565C223.976 107.498 223.929 107.43 223.888 107.36C223.794 107.203 223.713 107.039 223.628 106.877C223.405 106.453 223.12 106.065 222.781 105.718C222.228 105.151 221.161 105.137 220.611 105.718C220.036 106.326 220.021 107.219 220.611 107.824C220.645 107.86 220.679 107.893 220.695 107.907C220.742 107.974 220.789 108.043 220.831 108.113C220.924 108.27 221.004 108.434 221.09 108.595C221.314 109.02 221.598 109.407 221.937 109.754ZM39.1569 112.067C37.5355 112.593 35.8027 113.093 34.5315 114.258C33.0949 115.573 30.9222 113.47 32.3615 112.152C34.0378 110.616 36.194 109.891 38.3414 109.195C40.2218 108.586 41.0208 111.464 39.1569 112.067ZM121.607 119.841L118.292 119.841C116.315 119.841 116.318 116.862 118.292 116.862L121.607 116.862C123.585 116.862 123.581 119.841 121.607 119.841ZM70.0565 130.328C69.4719 132.156 66.5109 131.371 67.0971 129.536C67.6633 127.765 67.7039 125.982 67.7051 124.142C67.7062 122.222 70.775 122.225 70.7739 124.142C70.7727 126.236 70.7002 128.312 70.0565 130.328ZM254.728 135.721C253.403 135.078 252.077 134.435 250.752 133.791C248.982 132.933 250.539 130.365 252.3 131.219L256.277 133.15C258.046 134.008 256.49 136.576 254.728 135.721ZM284.426 137.886C283.392 136.972 282.036 136.807 280.69 136.806C279.86 136.806 279.155 137.491 279.155 138.295C279.155 139.104 279.857 139.784 280.69 139.785C280.858 139.785 281.026 139.785 281.195 139.791C281.225 139.793 281.292 139.797 281.364 139.803C281.483 139.811 281.615 139.821 281.617 139.816C281.779 139.845 281.938 139.883 282.098 139.922C282.123 139.928 282.138 139.931 282.154 139.935C282.158 139.939 282.168 139.946 282.185 139.954C282.221 139.974 282.289 140.028 282.323 140.054C282.335 140.064 282.342 140.07 282.343 140.069C282.343 140.069 282.322 140.051 282.267 140.002C282.88 140.534 283.824 140.576 284.426 139.992C284.992 139.443 285.041 138.43 284.426 137.886ZM170.234 150.929C169.623 150.385 169.666 149.374 170.234 148.823C170.897 148.18 171.56 147.536 172.223 146.893C172.829 146.304 173.78 146.347 174.392 146.893C175.003 147.437 174.961 148.447 174.392 148.999C173.729 149.642 173.067 150.285 172.404 150.929C171.797 151.518 170.846 151.475 170.234 150.929ZM222.471 153.735C220.472 154.623 218.28 154.623 216.282 153.735C215.525 153.399 215.345 152.338 215.732 151.698C216.179 150.955 217.078 150.829 217.831 151.163C218.737 151.566 220.017 151.565 220.922 151.163C221.678 150.828 222.568 150.947 223.021 151.698C223.41 152.342 223.224 153.401 222.471 153.735ZM266.263 170.216C265.824 172.087 262.866 171.29 263.304 169.424C263.942 166.711 263.825 163.932 263.304 161.209C262.945 159.332 265.903 158.535 266.263 160.417C266.889 163.683 267.029 166.961 266.263 170.216ZM108.802 160.813C108.801 161.805 108.794 162.386 108.349 163.278C107.988 164.002 108.145 164.888 108.899 165.316C109.572 165.698 110.635 165.508 110.999 164.782C111.65 163.478 111.87 162.252 111.871 160.813C111.872 158.896 108.804 158.893 108.802 160.813ZM30.0206 170.463C30.7713 170.802 31.6739 170.668 32.1196 169.929C32.5078 169.284 32.3241 168.232 31.5695 167.891C30.0359 167.199 28.4915 167.046 26.8175 167.044C24.8431 167.043 24.8401 170.021 26.8175 170.023L26.9274 170.023C27.9775 170.023 29.0479 170.024 30.0206 170.463ZM84.4844 177.1C83.9643 177.122 83.5197 176.849 83.2443 176.457C83.2155 176.457 83.1871 176.456 83.1587 176.456C82.2987 176.456 81.6619 175.774 81.6243 174.967C81.5871 174.163 82.3562 173.477 83.1587 173.478C83.7004 173.478 84.2378 173.51 84.7411 173.716C85.5539 174.049 85.9859 174.769 86.0188 175.61C86.0514 176.444 85.2896 177.065 84.4844 177.1ZM215.067 186.107C215.934 186.075 216.675 185.655 217.019 184.866C217.231 184.378 217.264 183.856 217.265 183.331C217.265 182.552 216.558 181.805 215.73 181.841C214.899 181.877 214.196 182.496 214.196 183.331C214.196 183.358 214.195 183.386 214.195 183.414C213.791 183.681 213.51 184.112 213.533 184.617C213.569 185.399 214.208 186.138 215.067 186.107ZM152.759 188.037C150.759 187.983 149.1 186.994 147.697 185.67C146.278 184.331 148.45 182.227 149.867 183.565C150.67 184.322 151.596 185.027 152.759 185.058C154.733 185.111 154.735 188.09 152.759 188.037ZM247.292 198.921C250.129 198.19 252.493 196.729 254.175 194.376C255.303 192.797 252.644 191.307 251.525 192.873C250.308 194.576 248.505 195.527 246.476 196.048C244.569 196.539 245.378 199.413 247.292 198.921ZM48.0281 198.974C48.8214 198.939 49.4275 198.405 49.5391 197.663C50.2691 197.552 50.9235 196.959 50.8882 196.198C50.8522 195.415 50.2131 194.678 49.3538 194.709C47.8095 194.763 46.5501 195.985 46.4937 197.485C46.4646 198.264 47.2206 199.009 48.0281 198.974ZM110.334 213.892C110.205 213.857 110.07 213.833 109.94 213.816C109.526 213.762 109.097 213.765 108.676 213.769L108.674 213.769C108.565 213.77 108.456 213.771 108.348 213.771C106.37 213.77 106.373 210.791 108.348 210.792C109.904 210.793 111.524 210.814 112.748 211.872C113.369 212.409 113.308 213.434 112.748 213.978C112.138 214.57 111.196 214.513 110.578 213.978C110.615 214.011 110.556 213.985 110.483 213.952C110.43 213.929 110.37 213.902 110.334 213.892ZM174.635 214.414C175.485 214.433 176.169 214.781 176.624 215.607C177.555 217.298 180.205 215.795 179.274 214.103C178.348 212.423 176.572 211.479 174.635 211.436C172.659 211.392 172.66 214.371 174.635 214.414ZM283.893 220.645C282.888 220.157 281.839 219.6 280.691 219.561C278.718 219.494 278.716 216.516 280.691 216.583C282.414 216.641 283.926 217.338 285.442 218.073C287.211 218.93 285.655 221.498 283.893 220.645ZM209.102 234.358C206.654 234.397 204.261 234.963 201.811 235.002C199.832 235.033 199.839 232.054 201.811 232.023C204.26 231.985 206.653 231.418 209.102 231.38C211.081 231.349 211.075 234.327 209.102 234.358ZM28.1407 240.149C27.2815 240.179 26.6424 239.442 26.6063 238.66C26.5711 237.899 27.2251 237.305 27.9558 237.194C28.0671 236.452 28.6736 235.918 29.4665 235.884C30.2743 235.848 31.0304 236.593 31.0008 237.373C30.9445 238.872 29.6859 240.094 28.1407 240.149ZM156.327 250.389C158.411 251.062 160.487 251.679 162.7 251.729C164.676 251.774 164.675 248.795 162.7 248.751C160.774 248.707 158.954 248.102 157.143 247.517C155.265 246.91 154.459 249.786 156.327 250.389ZM114.734 253.223C115.548 252.476 116.732 252.014 117.737 251.525C118.478 251.166 118.687 250.15 118.288 249.488C117.847 248.756 116.932 248.593 116.189 248.954C114.926 249.567 113.601 250.165 112.564 251.117C111.126 252.436 113.298 254.54 114.734 253.223Z" transform="translate(3.069048 3.305852)" id="ðŸ–-Ink" fill="#000000" fill-rule="evenodd" stroke="none" />
  </g>
</svg>