<?xml version="1.0" encoding="utf-8"?>
<svg width="314px" height="273px" viewBox="0 0 314 273" version="1.1" xmlns:xlink="http://www.w3.org/1999/xlink" xmlns="http://www.w3.org/2000/svg">
  <desc>Created with Lunacy</desc>
  <defs>
    <rect width="313.783173" height="272.9061" id="artboard_1" />
    <clipPath id="clip_1">
      <use xlink:href="#artboard_1" clip-rule="evenodd" />
    </clipPath>
  </defs>
  <g id="body/Dress" clip-path="url(#clip_1)">
    <use xlink:href="#artboard_1" stroke="none" fill="#FFFFFF" />
    <path d="M285.614 251.46C284.684 243.071 284.11 234.624 283.781 226.193C283.452 217.772 283.882 209.247 284.071 200.823C284.456 183.686 285.081 166.508 283.675 149.397C282.347 133.225 279.297 117.167 274.484 101.628C272.14 94.0611 269.67 86.1893 265.815 79.1972C261.939 72.1672 255.799 67.4857 249.055 63.1925C241.874 58.6217 234.751 53.9644 227.599 49.351C221.594 45.4786 210.79 40.9715 205.864 35.7945C200.68 30.3472 199.706 16.8444 196.254 10.3915C192.892 4.10608 183.375 0.00595533 176.048 0.00595533C163.92 0.00595533 154.73 -0.595614 144.757 10.2934C139.782 15.7266 143.741 21.2191 138.525 26.4337C133.73 31.228 121.468 36.1551 115.288 38.937C107.886 42.2689 100.297 45.2105 92.5981 47.8309C84.7447 50.5041 76.6934 52.4963 68.7959 55.0191C61.226 57.4373 51.3413 67.4045 45.4646 72.6783C40.001 77.5817 38.6451 77.0326 34.4915 82.9892C25.3757 96.0615 16.2499 109.284 8.99067 123.437C5.37487 130.488 1.87377 137.904 0.561867 145.733C-0.837498 154.084 0.549975 162.155 2.81934 170.24C5.12937 178.469 12.4649 186.303 14.8547 194.511C15.956 198.293 12.1757 202.421 13.9145 205.985C14.783 207.765 15.8766 209.35 17.1218 210.901C18.0812 212.096 21.8225 211.832 22.3066 213.294C22.7957 214.772 20.0889 217.838 20.0486 219.367C19.9915 221.555 19.9017 223.743 19.8277 225.931L19.3904 238.867C19.1031 247.368 18.8158 255.869 18.5284 264.369C18.4345 267.144 18.2975 269.855 18.983 272.488C18.7356 272.266 18.5004 272.023 18.2856 271.751C17.6569 270.954 16.3235 271.63 16.8571 272.562C17.7478 274.117 19.0287 275.212 20.5335 275.998C22.2823 278.5 287.128 284.089 288.431 276.773C289.162 272.669 287.831 268.274 287.299 264.196C286.745 259.948 286.087 255.719 285.614 251.46Z" transform="translate(8.055316 -11.16944)" id="âœ‹-Skin" fill="#D08B5B" stroke="none" />
    <path d="M0 0L273.542 14.5158C273.738 16.3542 273.912 18.1947 274.063 20.0366C275.469 37.1478 274.844 54.3256 274.459 71.4628C274.408 73.7344 274.339 76.0133 274.273 78.2955L247.288 82.6194L55.4545 87.0942L7.50947 81.5414L5.51951 78.1929L4.14087 72.3646C4.73252 69.9715 5.92492 67.4948 5.2424 65.1507C5.04343 64.4674 4.81019 63.7867 4.54842 63.1081L4.79595 58.4308L0 0Z" transform="translate(17.66858 118.1906)" id="ðŸ‘•-Top" fill="#FDEA6B" stroke="none" />
    <path d="M14.5182 187.786C12.0517 186.334 10.8625 183.959 9.57362 181.543C8.40748 179.35 7.36026 177.101 6.39359 174.819C4.5178 170.399 3.04478 165.827 2.00139 161.159C-1.83075 144.025 -0.196622 125.696 7.22216 109.672C11.3497 100.751 17.1804 92.7682 23.433 85.1506C29.9695 77.1905 37.1812 69.8895 45.0104 63.1282C45.4132 62.7786 45.9234 63.2995 45.5935 63.6942C45.091 64.2977 44.5923 64.9042 44.0974 65.511C44.7611 65.377 45.4247 65.2582 46.0922 65.1574C50.2312 58.4933 56.8252 53.2694 63.7146 49.4833C79.4613 40.8304 97.6362 38.0603 114.254 31.4965C121.573 28.6036 128.646 24.7799 134.485 19.5601C137.224 17.114 139.74 14.4039 141.769 11.3658C142.801 9.82033 143.729 8.20449 144.512 6.52908C145.298 4.83877 145.774 3.07028 146.737 1.45816C148.287 -1.14431 152.644 -0.0381654 152.598 2.99954C152.533 7.27743 149.898 11.7679 147.527 15.2751C145.045 18.9498 142.015 22.2668 138.604 25.1522C124.879 36.7572 107.069 41.1617 89.9182 45.73C81.5903 47.949 73.5309 50.3765 65.7324 54.014C59.4989 56.9296 53.8293 60.4736 48.6623 64.8148C50.5197 64.6064 62.0028 64.8983 73.4824 65.1901C83.7192 65.4503 93.9531 65.7104 97.3562 65.6157C123.978 64.8669 150.638 64.9563 177.264 65.4146C190.513 65.6414 203.762 65.9839 217.008 66.4385C223.759 66.6693 230.511 66.9337 237.258 67.2237C240.569 67.3655 243.879 67.5141 247.186 67.6742C248.632 67.7416 250.082 67.7673 251.524 67.8529C255.188 66.803 259.166 66.5573 263.074 66.9445C260.523 64.6551 257.842 62.4994 254.977 60.5894C243.446 52.8971 229.717 49.1408 218.347 41.2064C208.837 34.5643 200.575 24.0651 200.947 12.1845C200.955 11.861 201.472 11.7679 201.545 12.1063C202.965 18.5883 206.582 24.5267 211.665 28.9312C216.187 32.8479 220.951 36.3179 226.245 39.1996C232.321 42.5024 238.632 45.3428 244.85 48.3697C250.999 51.3598 256.914 54.6808 262.307 58.8392C265.031 60.939 267.601 63.2176 270.06 65.6008C271.448 66.9445 273.167 68.3816 274.544 69.9788C274.617 70.0086 274.69 70.0388 274.759 70.0719C292.32 78.1366 297.859 98.5655 299.179 115.826C299.313 117.584 299.397 119.345 299.432 121.106C300.933 129.418 301.593 137.87 301.391 146.37C301.216 153.708 300.392 161.119 298.423 168.22C296.615 174.737 293.78 181.516 289.423 186.904C290.659 188.501 291.023 190.881 291.426 192.746C291.468 192.941 291.512 193.139 291.556 193.339C292.007 195.389 292.516 197.699 292.005 199.73C291.418 202.061 289.428 203.338 287.095 203.751C286.988 203.77 286.88 203.789 286.773 203.803C287.111 205.684 287.272 207.627 287.529 209.452C288.035 212.999 288.469 216.551 288.902 220.111C289.761 227.166 290.667 223.045 291.541 230.1C292.408 237.099 293.379 244.092 294.407 251.073C294.94 254.695 295.508 258.314 296.106 261.929C296.386 263.616 296.67 265.302 296.965 266.989C296.999 267.183 297.033 267.373 297.067 267.561C297.4 269.407 297.684 270.986 296.793 272.801C296.018 274.383 293.628 274.48 292.458 273.344C290.92 271.848 290.812 269.96 290.479 267.968C290.199 266.278 289.926 264.591 289.662 262.901C289.09 259.278 288.549 255.652 288.043 252.022C287.057 244.97 286.244 237.911 285.58 230.826C284.924 223.793 284.514 227.903 284.33 220.841C284.234 217.181 284.188 213.536 284.291 209.876C284.345 208.033 284.303 206.074 284.448 204.153C282.484 204.414 280.509 204.612 278.549 204.857C277.743 204.959 276.904 205.102 276.05 205.248C274.009 205.595 271.885 205.957 269.941 205.81C270.574 212.363 271.306 207.739 272.196 214.262C273.382 222.9 274.728 231.522 276.128 240.126C277.406 247.982 279.032 255.797 280.313 263.649L280.313 263.653C280.977 264.967 281.142 266.505 280.697 267.924C280.087 269.878 277.92 270.757 276.132 270.344C276.37 271.263 275.929 272.35 274.813 272.652C274.575 272.715 274.339 272.779 274.105 272.842C272.393 273.307 270.758 273.75 268.94 273.721C267.156 273.694 265.368 273.601 263.585 273.534C259.76 273.393 255.939 273.389 252.111 273.378C244.715 273.355 237.32 273.337 229.924 273.314C203.275 273.24 176.627 273.169 149.978 273.095C136.717 273.058 123.456 273.024 110.199 272.957C103.44 272.923 96.6811 272.883 89.9259 272.756C85.3036 272.671 80.7196 272.555 76.1624 272.052C75.6637 272.216 75.1612 272.376 74.6587 272.529C71.5631 273.478 69.2193 270.972 68.8971 268.27C68.5211 265.083 68.5211 262.078 69.365 258.951C69.5377 258.306 69.7486 257.618 70.0018 256.922C69.9366 256.594 69.8867 256.262 69.8637 255.92C69.787 254.822 69.787 253.709 69.7525 252.606C69.6758 250.153 69.6221 247.699 69.5568 245.246C69.4379 240.58 69.3727 235.915 69.365 231.251C69.3535 224.783 69.4533 218.316 69.6719 211.853C67.5288 211.93 65.3518 211.838 63.2121 211.747C62.5675 211.72 61.9262 211.693 61.2903 211.671C57.5541 211.54 53.8178 211.309 50.0931 210.982C42.6781 210.326 35.3092 209.269 28.017 207.817C27.0619 207.627 26.0952 207.441 25.1362 207.221C25.2239 208.41 25.2069 209.621 25.1904 210.792C25.1853 211.157 25.1802 211.519 25.1784 211.875C25.163 214.574 25.1592 217.274 25.1055 219.973C24.9981 225.129 24.837 230.283 24.7066 235.439C24.5723 240.722 24.4035 246.002 24.2884 251.285C24.2309 253.865 24.1849 256.449 24.1503 259.029C24.1435 259.57 24.1535 260.12 24.1635 260.673C24.2041 262.923 24.2458 265.23 23.1683 267.235C22.1096 269.2 18.6611 269.32 17.6407 267.235C16.5929 265.099 16.7304 262.782 16.8676 260.47C16.8961 259.989 16.9247 259.508 16.9425 259.029C17.0461 256.322 17.1574 253.619 17.2839 250.916C17.5294 245.629 17.8248 240.346 18.2353 235.07C18.6457 229.78 19.1329 224.508 19.7543 219.236C20.065 216.585 20.4601 213.945 20.8552 211.309C21.0355 210.122 21.2005 208.882 21.4498 207.665C21.3961 207.14 21.4997 206.663 21.6761 206.182C20.6328 205.769 19.6392 205.248 18.7301 204.563C16.7738 203.093 15.7764 201.041 15.1742 198.744C14.5566 196.383 14.6294 193.908 14.967 191.513C15.1204 190.426 15.2931 189.25 15.5693 188.099C15.201 188.073 14.8404 187.973 14.5182 187.786ZM21.4586 139.127C22.1111 137.314 19.1474 136.534 18.4995 138.335C14.9766 148.128 17.3365 158.929 21.151 168.292C21.8687 170.054 24.8377 169.287 24.11 167.501C20.4839 158.599 18.1044 148.452 21.4586 139.127ZM38.0972 165C36.5187 162.605 35.7074 160.02 35.6553 157.174C35.62 155.26 32.5512 155.253 32.5865 157.174C32.6478 160.516 33.5892 163.683 35.4473 166.504C36.508 168.114 39.1652 166.622 38.0972 165ZM40.9906 191.599C50.4502 192.891 59.9174 193.688 69.4421 194.332C69.8679 194.361 70.2361 194.299 70.5545 194.164C70.2707 198.397 70.0405 202.634 69.8602 206.871C68.5513 206.836 67.2287 206.861 65.9092 206.885C64.6103 206.91 63.3151 206.934 62.0387 206.901C58.6745 206.812 55.3142 206.648 51.9577 206.399C45.4595 205.922 38.9729 205.162 32.5476 204.112C30.1463 203.721 27.0967 203.483 24.3617 202.709C21.7762 201.976 19.4746 200.762 18.2663 198.476C17.2382 196.54 17.0503 194.168 17.0503 192.027C17.0503 190.553 17.3111 189.056 17.4684 187.57C17.664 187.437 17.8405 187.276 17.9824 187.098C20.8364 187.973 23.7978 188.587 26.6978 189.183C31.4199 190.158 36.211 190.948 40.9906 191.599ZM278.139 188.218C279.42 188.288 280.709 188.33 281.994 188.397C283.127 189.337 284.696 189.819 286.128 189.52C286.178 189.64 286.223 189.775 286.264 189.931C286.517 190.888 286.644 191.915 286.789 192.891C286.935 193.851 287.046 194.82 287.123 195.788C287.131 195.89 287.148 196.02 287.167 196.165C287.239 196.709 287.339 197.467 287.096 197.802C286.82 198.185 286.21 198.152 285.788 198.2C284.653 198.319 283.502 198.375 282.359 198.468C280.199 198.651 278.04 198.833 275.884 199.015C273.77 199.194 271.449 199.139 269.382 199.678C269.029 195.653 268.707 191.629 268.407 187.6C271.61 188.059 274.959 188.047 278.139 188.218Z" transform="translate(6.138097 -3.756621)" id="ðŸ–-Ink" fill="#000000" fill-rule="evenodd" stroke="none" />
  </g>
</svg>