<?xml version="1.0" encoding="utf-8"?>
<svg width="213px" height="45px" viewBox="0 0 213 45" version="1.1" xmlns:xlink="http://www.w3.org/1999/xlink" xmlns="http://www.w3.org/2000/svg">
  <desc>Created with Lunacy</desc>
  <g id="bod">
    <path d="M17.2871 89.4502L17.0801 89.4502L17.0801 97.1104L8.5918 97.1104L8.5918 18.6455L17.0801 18.6455L17.0801 53.4268L17.2871 53.4268Q23.5498 42.8682 35.6094 42.8682Q45.8057 42.8682 51.5767 49.9849Q57.3476 57.1016 57.3477 69.0576Q57.3477 82.3594 50.8779 90.356Q44.4082 98.3525 33.1768 98.3525Q22.6699 98.3525 17.2871 89.4502ZM169.766 97.1104L178.254 97.1104L178.254 18.6455L169.766 18.6455L169.766 51.46L169.559 51.46Q164.59 42.8682 153.669 42.8682Q142.645 42.8682 136.02 50.7871Q129.395 58.7061 129.395 71.8525Q129.395 84.1191 135.373 91.2358Q141.351 98.3525 151.34 98.3525Q163.658 98.3525 169.559 88.1045L169.766 88.1045L169.766 97.1104ZM93.0605 98.3525Q81.3115 98.3525 74.2983 90.9253Q67.2852 83.498 67.2852 71.2314Q67.2852 57.8779 74.583 50.373Q81.8809 42.8682 94.3027 42.8682Q106.155 42.8682 112.806 50.166Q119.457 57.4639 119.457 70.4033Q119.457 83.084 112.289 90.7183Q105.12 98.3525 93.0605 98.3525ZM17.0801 68.0742L17.0801 75.4756Q17.0801 82.0488 21.3501 86.6294Q25.6201 91.21 32.1934 91.21Q39.9053 91.21 44.2788 85.3096Q48.6523 79.4092 48.6523 68.9023Q48.6523 60.0518 44.5635 55.0313Q40.4746 50.0107 33.4873 50.0107Q26.0859 50.0107 21.583 55.1606Q17.0801 60.3106 17.0801 68.0742ZM93.6816 50.0107Q85.5039 50.0107 80.7422 55.5747Q75.9805 61.1387 75.9805 70.9209Q75.9805 80.3408 80.7939 85.7754Q85.6074 91.21 93.6816 91.21Q101.911 91.21 106.336 85.8789Q110.762 80.5479 110.762 70.7139Q110.762 60.7764 106.336 55.3936Q101.911 50.0107 93.6816 50.0107ZM169.766 65.3311L169.766 73.1465Q169.766 80.9619 165.34 86.0859Q160.915 91.21 153.824 91.21Q146.63 91.21 142.36 85.9048Q138.09 80.5996 138.09 71.4385Q138.09 61.3975 142.541 55.7041Q146.992 50.0107 154.756 50.0107Q161.277 50.0107 165.521 54.4619Q169.766 58.9131 169.766 65.3311Z" />
  </g>
</svg>