<?xml version="1.0" encoding="utf-8"?>
<svg width="314px" height="273px" viewBox="0 0 314 273" version="1.1" xmlns:xlink="http://www.w3.org/1999/xlink" xmlns="http://www.w3.org/2000/svg">
  <desc>Created with Lunacy</desc>
  <defs>
    <rect width="313.783173" height="272.9061" id="artboard_1" />
    <clipPath id="clip_1">
      <use xlink:href="#artboard_1" clip-rule="evenodd" />
    </clipPath>
  </defs>
  <g id="body/Sporty-Tee" clip-path="url(#clip_1)">
    <use xlink:href="#artboard_1" stroke="none" fill="#FFFFFF" />
    <path d="M34.5777 277.064C39.1698 277.339 43.7616 277.557 48.3531 277.723C108.398 279.894 168.394 273.25 228.402 271.797C249.299 271.263 270.089 271.529 290.933 273.158C292.975 273.317 295.31 271.185 295.06 269.153C291.209 236.89 286.391 204.713 283.894 172.318C283.892 170.605 284.12 168.894 284.727 167.28C284.841 167.153 285.434 165.734 285.962 165.646C285.79 165.77 286.57 165.552 286.073 165.589C289.087 165.111 292.042 161.953 289.855 158.932C267.326 125.418 236.571 94.8282 226.677 55.0211C224.339 44.259 215.895 43.5937 206.9 39.1539C204.094 37.5339 197.231 33.0461 196.114 29.9261C193.446 18.6811 198.144 7.66469 184.418 3.11464C175.356 0.676356 159.34 -1.38663 150.172 1.18494C138.988 4.7975 139.825 17.0295 133.338 25.4449C129.983 30.3124 124.264 36.9769 118.982 37.7227C116.422 38.0841 114.537 33.0587 111.981 33.4046C72.1431 42.7955 17.8663 106.858 0.743993 142.321C-3.11462 153.482 9.32957 150.115 8.56506 161.332C7.62256 182.614 5.56122 209.859 6.78374 231.166C7.92878 243.533 7.08142 256.49 11.0421 268.392C9.97605 269.648 11.5078 270.917 12.7575 271.463C14.3322 274.062 29.8265 276.704 34.5777 277.064Z" transform="translate(9.269915 -11.91412)" id="âœ‹-Skin" fill="#D08B5B" stroke="none" />
    <path d="M111.981 0.0111186C114.365 -0.311474 114.52 6.49048 116.828 6.78496C127.541 21.3819 144.142 26.2273 163.341 26.2273C183.722 26.2273 200.248 20.2784 212.919 8.38049L214.08 8.85539C220.077 11.3296 224.982 13.8249 226.677 21.6277C236.571 61.4347 267.326 92.024 289.855 125.539C292.042 128.56 289.087 131.717 286.073 132.196C286.57 132.159 285.79 132.376 285.962 132.253C285.434 132.34 284.841 133.76 284.727 133.886C284.433 134.667 284.228 135.471 284.095 136.287C284.095 136.287 258.856 141.477 252.071 141.619C183.938 143.05 59.3396 141.007 59.3396 141.007L7.15221 121.848C4.16754 117.498 -2.15943 117.325 0.743994 108.927C17.8663 73.4645 72.1431 9.40199 111.981 0.0111186Z" transform="translate(9.269915 21.47933)" id="ðŸ‘•-Top" fill="#E86BBB" stroke="none" />
    <path d="M142.193 2.57522C143.229 -1.94803 150.644 -0.00827063 149.374 4.49635C147.406 11.4627 143.325 18.0452 137.564 22.6656C133.114 26.2324 127.049 29.4153 121.034 30.0036C121.598 30.5364 122.139 31.106 122.707 31.6492C123.988 32.8853 125.35 34.032 126.753 35.1341C129.639 37.3977 132.638 39.4343 135.914 41.1395C148.998 47.9532 163.779 49.5244 178.393 47.9379C185.329 47.1859 192.368 45.9092 198.889 43.4478C201.912 42.3089 204.85 40.8118 207.444 38.9209L208.122 38.4264C209.486 37.427 211.305 36.017 212.158 34.4754C209.565 35.041 206.285 32.3603 204.486 30.8007C202.518 29.0881 200.861 26.8799 199.637 24.6162C197.24 20.1749 195.97 14.445 197.98 9.68269C198.114 9.36622 198.544 9.41872 198.582 9.76124C199.177 15.3124 200.719 20.5174 204.824 24.6277C206.646 26.4484 208.828 27.9748 211.21 29.0356L211.546 29.185C212.56 29.6407 213.629 30.1752 214.057 31.1503C214.222 31.1317 214.386 31.1466 214.544 31.1879C214.686 31.2248 214.816 31.2661 214.943 31.3108C214.659 30.7709 214.51 30.1343 214.536 29.3818C214.636 26.4666 218.76 26.3776 219.331 28.9725C219.227 28.6301 219.089 28.9615 219.35 29.0657C219.361 29.1126 219.369 29.1615 219.375 29.2109L219.38 29.2758L219.377 29.2214C219.373 29.1812 219.368 29.1453 219.363 29.1125L219.354 29.0658C219.393 29.084 219.446 29.0955 219.507 29.0955L219.533 29.1052C219.629 29.1454 219.968 29.2988 220.068 29.3375C220.754 29.5832 221.521 29.661 222.223 29.8733C223.747 30.3279 225.089 31.0799 226.018 32.3603C226.685 33.2803 227.057 34.334 227.21 35.4282C233.95 38.5746 240.329 42.6622 245.673 47.7224C257.599 59.0105 265.915 73.1399 272.739 87.7647C276.213 95.2101 279.308 102.813 282.335 110.437L282.813 111.641C286.058 119.835 288.928 128.119 289.633 136.929C289.698 137.718 289.43 138.459 288.966 139.073C289.131 139.736 289.215 140.399 289.192 141.046C289.188 141.147 289.181 141.248 289.173 141.348C290.262 141.33 291.329 141.773 292.341 143.016C292.752 142.89 293.197 142.874 293.634 143.012C296.3 143.839 296.73 146.68 297.232 149.059C297.75 151.516 297.976 154.033 297.98 156.538C297.98 157.436 297.451 158.568 296.553 158.951C294.865 159.673 293.047 160.146 291.302 160.802C289.99 161.293 288.674 161.758 287.347 162.194C288.083 163.441 288.321 165.176 288.72 166.49C289.345 168.542 289.848 170.601 290.27 172.701C293.131 186.979 295.115 201.41 297.792 215.718C299.131 222.885 300.689 230.003 302.276 237.122C303.059 240.622 303.891 244.114 304.785 247.591C305.261 249.445 305.756 251.3 306.266 253.142C306.414 253.681 306.564 254.218 306.716 254.754L306.983 255.693C307.566 256.006 308.065 256.479 308.41 257.126C309.673 259.494 308.947 262.164 306.527 263.497C303.895 264.949 300.754 263.578 299.304 261.222C298.283 259.558 297.949 257.354 297.447 255.503C296.879 253.426 296.338 251.337 295.817 249.248C292.273 235.059 289.899 220.62 288.11 206.127L287.984 205.092C287.074 197.631 286.196 190.151 285.628 182.656C285.348 178.974 285.126 175.292 284.988 171.602C284.919 169.704 285.03 167.794 285.141 165.898C285.191 165.068 285.264 164.234 285.291 163.404L285.299 163.286C285.306 163.202 285.316 163.091 285.324 162.975L285.333 162.834C282.686 163.639 280.001 164.309 277.289 164.874C271.52 166.084 265.616 166.759 259.728 166.416C260.549 175.88 261.619 185.322 263.115 194.7C264.557 203.733 266.222 212.746 268.102 221.705C269.042 226.206 270.058 230.696 271.128 235.171C271.704 237.561 272.36 239.936 272.878 242.338C273.184 243.768 273.28 244.963 272.663 246.3C273.343 248.097 273.947 249.903 274.541 251.604L274.719 252.111C274.914 252.663 275.141 253.218 275.368 253.773C276.369 256.215 277.379 258.678 275.682 261.062C274.604 262.573 272.847 263.437 271.078 263.489C271.048 263.508 271.013 263.53 270.979 263.549C270.027 264.044 268.93 264.141 267.887 263.929C266.303 264.23 264.715 264.521 263.123 264.785C259.191 265.444 255.24 265.987 251.281 266.446C243.743 267.316 236.156 267.793 228.572 268.058C213.324 268.591 198.066 268.317 182.806 268.043L182.805 268.043C170.281 267.819 157.756 267.594 145.236 267.815C131.084 268.065 116.933 268.683 102.805 269.502C95.7549 269.912 88.7006 270.351 81.6462 270.69L79.4626 270.793C73.154 271.086 66.8408 271.312 60.5368 270.865C60.414 270.857 60.3181 270.809 60.2529 270.742C58.0779 270.504 55.8918 268.56 56.1101 266.315C57.0499 256.754 57.9897 247.193 58.9334 237.628C60.6097 220.588 62.3013 203.547 64.0122 186.509L64.2594 184.05C64.8343 178.309 65.3831 172.555 65.6617 166.792C64.2577 166.695 62.8579 166.572 61.4574 166.423C46.284 164.811 31.738 160.357 17.7715 154.505L17.2056 154.267C15.9474 153.735 14.5702 153.202 13.1586 152.633C13.1725 154.178 13.1469 155.724 13.1214 157.265C13.104 158.319 13.0866 159.371 13.0819 160.418C13.0685 163.413 13.0814 166.408 13.0942 169.402C13.0998 170.684 13.1053 171.966 13.1087 173.248C13.1356 182.057 13.4808 190.869 13.9335 199.664C14.7275 215.196 15.6597 230.707 17.0713 246.202C17.428 250.101 17.9118 253.991 18.2528 257.889C18.4565 260.187 17.9689 262.101 15.802 263.307C14.7352 263.903 13.9105 263.653 12.8517 263.173C10.2663 261.996 10.1934 259.215 9.94789 256.795C9.76031 254.97 9.5873 253.147 9.41852 251.318C9.05832 247.42 8.74722 243.522 8.49405 239.616C7.49324 224.098 7.20132 208.595 7.8918 193.059C8.21238 185.792 8.67518 178.508 9.28942 171.254L9.43386 169.581C9.94021 163.783 10.2663 157.7 11.3135 151.866C7.09008 150.049 2.90503 147.737 0.96402 143.894C-1.552 138.905 1.21336 134.639 5.15291 131.701C5.11455 131.206 5.15291 130.714 5.26032 130.268C6.39193 125.513 8.28691 120.815 10.1167 116.28C11.9618 111.723 13.9987 107.237 16.2389 102.847C25.2304 85.2624 37.5132 69.1937 52.1552 55.656C59.4282 48.9324 67.3879 42.7181 75.8846 37.5057C80.0965 34.9259 84.4158 32.5428 88.8885 30.4209L89.5498 30.1084C92.6635 28.6418 96.1557 27.0825 99.6181 26.2659C99.9783 26.0053 100.343 25.7596 100.711 25.525C102.073 24.646 103.922 25.2826 104.727 26.5373C105.119 26.2432 105.571 25.983 106.089 25.748L106.601 25.5213C109.708 24.1635 113.438 22.8939 116.811 23.7863C118.905 24.3411 120.555 25.8378 121.295 27.744C122.994 26.8728 124.663 25.9755 126.293 24.8772C128.913 23.1199 131.288 20.9377 133.42 18.648C137.698 14.0429 140.805 8.64803 142.193 2.57522ZM219.35 29.0657L219.354 29.0655L219.339 28.9999L219.331 28.9725C219.339 29.0021 219.346 29.0355 219.35 29.0657ZM110.361 28.2503C113.065 27.1334 117.35 26.3031 119.59 28.6037C119.54 28.6301 119.491 28.6562 119.441 28.6781C119.26 28.5519 119.076 28.4324 118.884 28.3211C118.746 28.2392 118.589 28.3732 118.62 28.5184C118.658 28.6897 118.705 28.8568 118.758 29.0285C118.439 29.1886 118.121 29.352 117.803 29.5158C117.519 29.661 117.672 30.0523 117.956 30.0669C118.359 30.0929 118.762 30.1045 119.168 30.1007C120.235 32.4023 122.311 34.5224 124.094 36.2762L124.619 36.7912C127.09 39.2146 130.009 41.2958 132.97 43.1206C139.43 47.1043 146.83 49.6621 154.337 51.0136C162.964 52.5662 171.844 52.6592 180.536 51.6089C188.197 50.686 195.892 49.2265 202.966 46.14C206.682 44.5201 210.196 42.3532 213.115 39.5798C214.508 38.2578 217.204 35.1084 216.698 32.9899C217.327 33.3321 218.053 33.5744 218.812 33.7457C220.665 34.1623 222.479 34.2852 222.621 36.4412C222.921 40.9245 218.645 45.3032 215.53 48.3282L214.827 49.0076C207.102 56.3707 196.98 60.86 186.486 63.084C164.621 67.723 139.503 62.8379 122.018 48.9878C117.082 45.0752 112.759 40.4436 109.475 35.1229C108.708 33.8831 107.902 32.5915 107.323 31.2545C106.878 30.2394 106.874 29.9367 107.785 29.4272L107.937 29.3449C108.719 28.9317 109.544 28.5891 110.361 28.2503ZM11.5064 131.243C10.9885 132.874 10.1945 134.397 8.38391 134.766C7.7433 134.896 7.20664 134.825 6.76129 134.613L6.65449 134.822C5.16582 137.788 4.72863 140.918 8.15375 143.202C9.70003 144.234 11.3836 145.127 13.1252 145.927C16.2395 147.366 19.5561 148.522 22.6831 149.698L23.3059 149.934C28.8987 152.063 34.5798 154.003 40.3491 155.626C46.2032 157.268 52.1601 158.586 58.1907 159.424C60.7335 159.774 63.296 160.02 65.8626 160.18C65.8998 157.203 65.8888 154.223 65.8778 151.246C65.8764 150.872 65.875 150.498 65.8737 150.124C64.9608 150.012 64.0555 149.893 63.1813 149.792C60.5187 149.491 57.8642 149.122 55.2251 148.664C49.7128 147.707 44.258 146.386 38.9375 144.695C29.079 141.557 19.9072 137.07 11.5064 131.243ZM289.692 147.853C290.008 147.889 290.313 147.859 290.603 147.778C290.837 148.619 291.163 149.461 291.355 150.28C291.723 151.829 291.976 153.366 292.114 154.934L291.518 155.263C290.821 155.647 290.116 156.026 289.364 156.345C287.852 156.985 286.322 157.581 284.78 158.143C281.838 159.215 278.861 160.209 275.842 161.058C271.82 162.189 267.749 163.119 263.672 164.027L259.597 164.934C259.301 161.43 259.037 157.923 258.799 154.412C260.863 154.982 263.229 155.071 265.224 155.034C268.205 154.974 271.254 154.602 274.162 153.966C277.135 153.314 280.031 152.424 282.835 151.266C284.259 150.674 285.658 150.045 287.028 149.345C287.615 149.047 288.194 148.738 288.769 148.418L288.793 148.406C288.879 148.363 289.025 148.308 289.183 148.248C289.604 148.089 290.101 147.902 289.692 147.853Z" transform="translate(5.369899 -2.447643)" id="ðŸ–-Ink" fill="#000000" fill-rule="evenodd" stroke="none" />
  </g>
</svg>