<?xml version="1.0" encoding="utf-8"?>
<svg width="314px" height="273px" viewBox="0 0 314 273" version="1.1" xmlns:xlink="http://www.w3.org/1999/xlink" xmlns="http://www.w3.org/2000/svg">
  <desc>Created with Lunacy</desc>
  <defs>
    <rect width="313.783173" height="272.9061" id="artboard_1" />
    <clipPath id="clip_1">
      <use xlink:href="#artboard_1" clip-rule="evenodd" />
    </clipPath>
  </defs>
  <g id="body/Striped-Pocket-Tee" clip-path="url(#clip_1)">
    <use xlink:href="#artboard_1" stroke="none" fill="#FFFFFF" />
    <path d="M297.633 25.5666C291.68 2.78851 263.461 -1.17126 242.878 0.259268C236.407 1.91336 235.971 5.9483 235.441 10.8519C235.259 12.5378 235.066 14.3263 234.613 16.1561C232.84 23.308 227.093 31.0896 215.929 37.6297C216.263 36.8755 205.682 38.1222 205.305 43.0069C187.497 49.7841 167.887 50.1033 150.51 58.2237C133.516 66.6801 118.944 78.9874 103.265 89.4597L42.5002 132.14C41.0433 133.164 40.3076 134.787 40.3617 136.332C25.8219 146.698 14.2167 160.501 3.96263 174.815L3.30993 175.729C1.39808 177.227 -0.591645 180.376 0.164427 182.574C0.578986 189.883 6.24346 195.667 10.5111 201.328L10.7966 201.709C24.5087 219.788 39.563 236.902 55.7351 252.946C63.8337 260.319 70.9724 270.497 82.8191 271.748C94.9828 272.674 107.283 271.138 119.353 269.432L123.091 268.9C126.229 268.39 127.117 264.016 124.949 262.06C99.4876 239.132 76.5334 213.452 56.9201 185.62C57.1204 185.481 57.3423 185.326 57.539 185.188L58.0406 184.834C60.7603 182.951 65.6786 179.488 68.6004 177.456L69.9585 176.514C72.534 174.74 75.4455 173.066 77.4069 170.639C85.8269 158.176 65.1632 139.63 54.2947 134.772C82.3806 115.202 110.168 95.2168 138.354 75.7864C145.267 71.0809 152.48 66.5806 160.434 63.7285C175.101 58.4914 191.057 57.3942 205.715 52.2127C212.673 99.2049 348.021 91.105 309.228 42.9141C303.117 37.4932 299.479 33.8552 297.633 25.5666ZM350.91 119.194C350.631 117.48 348.308 115.711 346.499 115.93C324.786 118.566 302.813 118.674 281.073 116.254C277.955 115.907 276.058 119.365 276.654 121.892L279.358 133.349L279.443 133.716C280.139 136.787 280.583 140.232 281.786 143.211C281.444 146.182 280.712 149.269 279.972 152.391C277.958 160.889 275.882 169.646 281.43 177.022C293.289 188.679 313.337 194.845 329.458 188.61C334.483 186.533 338.86 183.115 341.754 178.58C344.589 174.136 345.86 168.967 346.997 163.897L347.564 161.352C350.646 147.452 353.217 133.404 350.91 119.194ZM393.145 153.493C411.935 126.052 429.845 156.413 437.667 174.711C446.399 198.371 429.794 227.175 417.507 248.489C416.79 249.734 416.087 250.952 415.406 252.143C410.852 258.138 404.862 270.783 396.835 271.699C376.612 271.619 356.36 270.237 336.125 269.826C323.059 266.679 341.391 247.622 354.054 254.583C357.891 255.976 359.808 260.204 363.549 261.56C364.788 261.817 364.978 261.352 365.419 260.276C365.464 260.168 365.51 260.055 365.56 259.935L365.639 259.751C366.628 257.471 367.586 255.179 368.56 252.893C376.798 233.202 385.508 213.684 394.168 194.174C396.018 189.938 393.423 186.448 390.051 183.927C389.346 183.365 388.008 182.581 386.646 181.783C383.015 179.656 379.219 177.432 386.826 179.044C382.798 169.97 387.638 160.759 393.145 153.493Z" transform="translate(-85.92682 -11.1694)" id="âœ‹-Skin" fill="#D08B5B" fill-rule="evenodd" stroke="none" />
    <path d="M0 0L76.3361 0L76.3361 74.4628L0 74.4628L0 0Z" transform="translate(189.4969 105.3649)" id="ðŸ‘•-Top" fill="#FDEA6B" stroke="none" />
    <path d="M241.995 0.11285C241.972 -0.0431496 241.719 -0.0319801 241.685 0.11285C240.219 6.29736 238.037 12.2171 233.867 17.2285C231.849 19.6485 229.452 21.8456 226.744 23.5169C224.032 25.1923 221.166 25.6651 218.262 26.6555C217.706 26.2087 217.081 25.855 216.482 25.613C215.032 25.0322 213.183 25.2221 211.71 25.7656C205.772 25.8997 199.811 26.8007 193.988 27.8502C187.509 29.0159 181.057 30.3042 174.632 31.7189C168.214 33.1337 161.831 34.7202 155.483 36.4064L155.106 36.5057C149.446 37.9897 143.27 39.2014 138.132 42.0023C135.949 43.1925 133.988 44.736 132.068 46.2967L128.321 49.3502L120.659 55.6083C116.347 59.1267 112.024 62.6353 107.74 66.1878C97.4673 74.71 87.2175 83.2546 76.9103 91.7397C71.1716 96.4643 65.433 101.189 59.6944 105.91C56.8749 108.233 54.0555 110.556 51.236 112.876C48.2363 115.344 45.0486 117.701 42.2829 120.412C41.2702 121.402 41.5617 122.962 42.7163 123.692C43.0961 123.93 43.4682 124.176 43.8403 124.433C39.7051 127.195 35.8384 130.177 32.129 133.562C27.4069 137.862 22.7807 142.292 18.3579 146.887C13.9503 151.466 9.58113 156.09 5.28867 160.77L5.11343 160.962C3.24612 163.01 1.45118 165.186 0.543564 167.807C-0.446119 170.659 -0.00105056 173.589 1.20719 176.296C3.51261 181.442 7.19132 186.24 10.3713 190.906C13.6511 195.712 17.0728 200.414 20.6441 205.02C27.9708 214.458 35.7886 223.654 44.4157 232.005C53.8138 241.105 64.029 249.578 75.1495 256.634C77.7925 258.309 80.2591 254.191 77.6199 252.535C58.5781 240.583 42.6204 224.291 28.6306 207.102C21.6453 198.519 15.1241 189.55 9.03642 180.347L8.88816 180.123C7.3971 177.889 5.6672 175.595 4.9396 173.008C4.18551 170.325 5.3407 167.987 6.96349 165.874L7.14912 165.636C10.8662 160.93 15.2469 156.608 19.336 152.203L21.2988 150.09C25.2254 145.864 29.1644 141.644 33.2415 137.549C35.6965 135.089 38.163 132.627 40.6641 130.215C41.9346 128.987 43.1363 127.691 44.3262 126.385L45.2174 125.404C48.064 127.494 50.7309 129.933 53.2958 132.337L54.9915 133.93C58.7661 137.482 62.3335 141.232 65.6938 145.159C70.1628 150.379 74.1675 155.904 77.8194 161.653C77.6736 161.761 77.5317 161.869 77.3859 161.98C77.2593 162.077 77.1481 162.189 77.056 162.308C73.9984 163.834 71.1774 165.817 68.3712 167.749L67.5696 168.299C65.3256 169.829 63.0854 171.366 60.8874 172.96C60.8085 173.017 60.7288 173.075 60.6487 173.133C58.8884 174.409 56.88 175.864 57.4964 178.239C57.761 179.263 59.0883 180.123 60.17 179.714C60.803 179.475 61.2364 179.159 61.62 178.783C62.6181 181.279 64.264 183.714 65.8118 185.882L66.181 186.397C67.9456 188.854 69.7887 191.257 71.6416 193.652L73.0321 195.448C77.1289 200.742 81.3101 206.002 85.6179 211.137C94.13 221.283 103.221 231.019 113.325 239.697C119.091 244.653 125.094 249.362 131.439 253.603C134.791 255.848 138.01 250.498 134.634 248.301C113.276 234.405 96.6102 214.812 80.1131 195.904L77.7801 193.234C75.3702 190.482 72.9404 187.74 70.4236 185.082C68.0798 182.607 65.4637 179.758 62.4755 177.882C62.4895 177.864 62.5049 177.847 62.5209 177.83L62.6212 177.722C63.3117 176.988 64.1748 176.382 64.9573 175.745C66.929 174.144 68.9161 172.558 70.9108 170.979C72.7482 169.528 74.6163 168.094 76.354 166.53C77.7849 168.392 79.8179 169.914 81.8395 171.15L82.0351 171.271C82.1656 171.35 82.296 171.428 82.4264 171.504C83.0708 171.88 83.7268 171.962 84.3175 171.828L84.3214 171.828L84.4053 171.856C85.0527 172.056 85.7826 171.842 86.3046 171.393C92.047 169.784 97.4443 166.69 102.818 164.214C108.707 161.504 114.664 158.92 120.652 156.429C131.723 151.824 143.085 147.531 154.623 144.109C158.924 171.117 160.013 198.259 158.149 225.542C157.612 233.338 157.086 241.138 156.15 248.901C155.694 249.348 155.256 249.806 154.938 250.32C153.837 252.103 154.244 254.314 156.07 255.52C157.839 256.69 160.348 256.687 162.584 256.684C163.146 256.684 163.691 256.683 164.202 256.701L165.484 256.742C167.622 256.803 169.763 256.828 171.903 256.848L176.967 256.894C187.786 256.975 198.607 256.859 209.425 256.711L222.992 256.521C246.998 256.188 271.02 255.953 295.005 257.178C302.42 257.553 309.812 258.153 317.208 258.786C324.53 259.412 331.892 259.858 339.207 258.912C341.643 258.596 342.437 256.574 341.854 255.025C344.29 255.696 346.971 255.684 349.468 255.871L350.045 255.912C352.731 256.098 355.349 256.152 357.988 255.457C358.705 255.267 358.97 254.132 358.21 253.8C354.597 252.222 350.723 252.118 346.837 251.805L345.825 251.724C345.15 251.668 344.475 251.598 343.81 251.466C343.711 251.447 343.452 251.356 343.137 251.24L342.375 250.956C342.487 250.826 342.598 250.692 342.705 250.587C343.331 249.984 343.987 249.429 344.712 248.938C348.202 246.581 352.234 245.826 356.112 246.444C356.599 247.088 357.274 247.594 358.057 247.802C358.778 247.996 359.561 247.925 360.278 247.661C361.644 248.253 362.952 249.024 364.168 249.962C364.359 250.111 364.682 249.925 364.532 249.686C363.792 248.51 362.909 247.482 361.92 246.607C362.748 245.755 363.147 244.575 362.633 243.361C361.958 241.767 360.988 239.727 359.3 238.919C359.346 238.448 359.306 237.952 359.245 237.438L359.196 237.05C358.985 235.375 358.805 233.696 358.632 232.013C358.283 228.654 358.03 225.289 357.877 221.919C357.566 215.173 357.685 208.422 357.949 201.68C358.49 188.009 360.182 174.397 362.276 160.878C362.426 159.918 362.576 158.954 362.721 157.993C362.737 158.265 362.817 158.544 362.948 158.841C363.615 160.379 365.084 161.899 366.182 163.179C368.363 165.715 370.99 167.655 373.7 169.575L375.177 170.618C376.431 171.506 377.658 172.435 378.717 173.537C379.795 174.658 380.302 176.009 381.153 177.26C382.101 178.66 383.493 179.609 385.266 179.565C386.672 179.528 388.041 178.812 389.314 178.057L390.505 177.342C391.131 177.897 392.017 178.15 393.087 177.8C393.701 177.599 394.315 177.394 394.928 177.182C395.4 178.258 396.866 180.055 397.221 180.419L397.264 180.462C398.162 181.285 399.182 181.981 400.272 182.554C400.191 182.562 400.111 182.592 400.053 182.652C395.617 186.982 393.097 193.266 390.655 198.854L390.398 199.439C388.048 204.782 385.849 210.189 383.676 215.601L381.46 221.125C379.225 226.698 377.001 232.275 374.993 237.928C373.838 241.183 372.726 244.448 371.59 247.709C370.474 250.922 369.012 254.199 368.238 257.501C367.647 260.018 371.329 261.772 372.68 259.322C374.321 256.347 375.422 252.974 376.746 249.85C378.1 246.652 379.458 243.45 380.808 240.248C382.993 235.06 384.97 229.791 386.923 224.515L388.824 219.372C391.026 213.412 393.22 207.444 395.235 201.42C396.294 198.255 397.322 195.09 398.342 191.918L398.844 190.365C399.634 187.913 400.383 185.488 400.728 182.923C400.736 182.871 400.728 182.823 400.713 182.782C401.193 183.016 401.687 183.228 402.186 183.418C404.208 184.185 406.329 184.572 408.481 184.803L408.62 184.818C408.806 184.838 408.992 184.86 409.179 184.881C411.329 185.128 413.551 185.382 415.301 183.995C416.118 183.351 416.095 181.802 415.301 181.158C413.84 179.968 411.957 179.979 410.089 179.99C409.426 179.994 408.764 179.998 408.124 179.948C405.834 179.766 403.575 179.312 401.457 178.433C400.08 177.86 398.994 176.959 397.84 176.124C407.296 172.521 416.233 167.286 421.907 158.879C425.511 153.532 426.687 147.544 427.371 141.308L427.438 140.684C427.795 137.285 427.845 134.158 426.015 131.112C424.105 127.925 421.703 124.943 419.575 121.886C410.771 109.257 402.017 96.5984 393.264 83.9397C388.929 77.6662 384.798 71.2475 380.413 65.0075C378.495 62.2785 376.454 59.367 373.827 57.2373C371.245 55.1449 368.303 53.6296 365.334 52.1292L363.816 51.3647C356.73 47.8015 349.612 44.3061 342.387 41.0119C340.937 40.3492 339.395 39.6008 337.788 38.8562C335.141 37.3037 331.945 36.2575 329.118 35.1182L328.547 34.8892C325.686 33.7482 322.76 32.6681 319.793 31.8269C317.58 31.1977 314.937 31.4546 313.797 33.3646C311.864 31.9945 310.172 30.3634 308.611 28.5878C306.72 26.4433 305.143 23.9934 303.95 21.417C303.333 20.0879 302.865 18.6917 302.451 17.2881C302.094 16.0818 301.983 14.8085 301.403 13.6803C301.273 13.4272 300.813 13.4086 300.69 13.6803C299.615 16.0392 300.286 19.3422 300.954 21.839L301.081 22.3069C301.944 25.438 303.44 28.3718 305.42 30.978C307.318 33.4804 309.735 35.6212 312.37 37.3744C311.108 41.1348 310.069 44.951 308.55 48.6481C307.004 52.4196 305.293 56.4372 302.186 59.2631C296.812 64.1532 287.971 64.1778 280.736 64.198C280.187 64.1995 279.647 64.201 279.118 64.2046L277.913 64.2157C260.862 64.349 242.705 61.5648 229.774 49.8506C226.54 46.9205 223.982 43.5734 221.834 39.8317C220.633 37.7393 219.528 35.591 218.297 33.5172C217.883 32.821 217.476 32.1248 217.035 31.4624C217.142 31.5216 217.257 31.5734 217.38 31.6188C221.296 33.1031 225.558 30.8928 228.713 28.6039L228.953 28.4277C232.041 26.1417 234.661 23.2972 236.786 20.1474C240.68 14.3803 243.07 7.04608 241.995 0.11285ZM330.848 114.286C337.38 114.243 343.92 114.201 350.425 113.766C350.437 114.038 350.444 114.306 350.452 114.577C347.487 114.16 344.284 114.801 341.503 115.754C338.587 116.752 335.649 117.988 332.53 118.208C329.619 118.412 326.972 117.463 324.371 116.301L323.271 115.812C322.17 115.323 321.066 114.844 319.952 114.425C319.998 114.425 320.044 114.421 320.09 114.421L321.255 114.395C324.448 114.328 327.647 114.307 330.848 114.286ZM306.686 114.872C305.968 114.898 305.251 114.927 304.534 114.957C301.879 115.069 299.225 115.196 296.57 115.341C296.056 115.368 295.51 115.43 294.949 115.494C293.505 115.658 291.969 115.833 290.67 115.441C290.624 115.62 290.563 115.792 290.482 115.959C290.755 117.277 290.923 118.639 291.027 120.017C292.692 120.192 294.384 120.132 296.025 119.801C299.965 119.008 303.164 116.595 306.686 114.872ZM335.57 120.828C340.43 119.604 345.409 116.39 350.499 116.219C350.599 119.436 350.672 122.653 350.691 125.862C348.953 124.514 346.414 124.019 344.112 124.41C341.919 124.781 339.809 125.954 337.696 127.13C334.522 128.895 331.341 130.665 327.859 129.727C325.274 129.026 323.137 127.221 320.928 125.825C318.718 124.429 316.19 123.285 313.516 123.181C311.031 123.081 308.814 124.127 307.114 125.847C305.265 127.72 303.999 129.995 301.307 130.844C298.519 131.719 296.11 130.787 293.772 129.368L293.508 129.206C292.771 128.744 291.997 128.237 291.191 127.791C291.19 127.385 291.19 126.976 291.19 126.565L291.19 126.535C291.191 125.481 291.191 124.416 291.172 123.349C296.075 123.745 300.351 122.156 304.551 119.836L304.993 119.589C307.298 118.286 309.669 116.845 312.35 116.42C315.101 115.988 317.767 116.938 320.249 117.996L320.873 118.262C325.709 120.332 330.14 122.196 335.57 120.828ZM317.524 127.918C316.078 127.177 314.317 126.488 312.645 126.704C311.049 126.908 309.985 127.959 309.003 129.082L308.471 129.697C306.713 131.715 304.982 133.412 302.272 134.243C299.464 135.1 296.487 134.764 293.875 133.51C292.947 133.063 292.084 132.508 291.217 131.961L291.263 137.899C292.997 138.737 294.761 139.493 296.698 139.951C300.274 140.796 303.312 140.17 306.369 138.257L306.69 138.054C308.993 136.586 311.354 134.839 314.198 134.675C316.974 134.514 319.057 136.007 320.885 137.835L321.099 138.052C323.405 140.412 325.733 141.563 329.162 141.291C332.487 141.027 335.599 139.603 338.644 138.375L338.921 138.264C341.706 137.154 344.917 136.012 347.974 136.436C348.707 136.537 349.654 136.756 350.498 137.14C350.621 134.362 350.678 131.581 350.69 128.796C348.952 127.333 346.248 127.091 344.073 127.69C340.666 128.629 337.878 131.049 334.625 132.363C331.74 133.528 328.733 133.789 325.79 132.687C322.752 131.548 320.37 129.377 317.524 127.918ZM311.678 139.273C312.744 138.696 313.983 138.134 315.238 138.368C316.536 138.613 317.474 139.608 318.35 140.513L318.64 140.811C320.639 142.821 322.81 144.288 325.702 144.739C328.825 145.226 332.066 144.66 334.993 143.573C338.081 142.43 340.985 140.837 344.104 139.768C345.531 139.28 347.138 138.812 348.668 138.819C349.309 138.823 349.865 138.964 350.402 139.158C350.253 141.976 350.03 144.791 349.723 147.605C345.82 145.622 340.745 147.606 336.836 149.349L336.117 149.672C333.029 151.064 330.026 152.114 326.569 151.805C323.301 151.513 320.767 150.018 318.154 148.297L317.466 147.842C315.181 146.338 312.508 145.016 309.672 145.695C306.898 146.358 304.777 148.48 302.011 149.266C299.299 150.037 296.38 150.119 293.626 149.508C292.851 149.333 292.091 149.114 291.351 148.841C291.332 146.582 291.313 144.321 291.297 142.062C295.233 143.681 299.568 144.534 303.53 143.543C306.611 142.773 308.958 140.737 311.678 139.273ZM427.403 141.339C427.338 141.057 427.687 140.84 427.914 141.053C431.738 144.631 434.439 149.203 437.404 153.439C440.227 157.475 443.3 161.355 445.406 165.808C447.362 169.948 448.624 174.148 449 178.697C449.376 183.214 448.889 187.741 448.068 192.19C446.453 200.954 443.001 209.253 439.211 217.314C435.526 225.15 431.362 232.763 426.966 240.238L425.39 242.907C423.468 246.156 421.524 249.399 419.444 252.546C416.855 256.463 414.492 260.506 411.078 263.775C408.653 266.102 404.085 263.775 405.189 260.45C405.669 259.002 406.045 257.639 406.789 256.295C407.353 255.271 407.99 254.277 408.588 253.268C409.785 251.25 410.97 249.225 412.167 247.207C414.68 242.966 417.326 238.804 419.816 234.548C424.135 227.169 428.213 219.652 431.819 211.915L432.243 211.002C435.561 203.838 438.705 196.418 440.162 188.668C441.696 180.503 440.323 172.808 437.335 165.134C435.789 161.165 434.051 157.285 432.244 153.421L431.897 152.683C430.152 148.994 428.303 145.325 427.403 141.339ZM315.222 150.695L314.76 150.406C313.541 149.651 312.142 148.869 310.649 149.147C309.314 149.396 308.167 150.428 307.005 151.064C304.454 152.46 301.592 153.224 298.673 153.417C296.245 153.577 293.724 153.291 291.388 152.591L291.469 159.911C292.324 160.175 293.21 160.365 294.142 160.432C296.973 160.636 299.735 159.977 302.11 158.462L303.311 157.688C305.367 156.377 307.295 155.337 310.016 155.815C312.709 156.292 314.968 157.967 317.17 159.426L317.531 159.662C320.06 161.282 322.623 162.328 325.724 162.353C329.073 162.379 332.383 161.474 335.502 160.361C338.598 159.259 341.54 157.937 344.85 157.531C345.863 157.409 347.098 157.371 348.26 157.565C348.414 156.735 348.56 155.908 348.698 155.078C348.997 153.294 349.254 151.515 349.476 149.731C345.595 148.718 341.91 150.541 338.283 152.337C336.421 153.258 334.575 154.172 332.725 154.691C329.56 155.577 326.115 155.566 322.951 154.709C320.022 153.916 317.72 152.27 315.222 150.695ZM314.329 162.047L314.742 162.319C317.293 163.98 319.852 165.327 322.932 165.76C326.089 166.203 329.292 165.822 332.357 165.022C335.487 164.207 338.395 162.811 341.368 161.586C342.941 160.938 344.529 160.357 346.217 160.056C346.754 159.958 347.283 159.933 347.805 159.933C347.778 160.078 347.747 160.227 347.716 160.372C347.421 161.824 347.344 163.894 346.443 165.13C345.614 166.27 343.834 166.917 342.645 167.595L342.507 167.673L342.196 167.675C341.262 167.691 340.323 167.793 339.412 167.967C337.441 168.34 335.502 169.119 333.558 169.899C330.048 171.309 326.52 172.725 322.756 171.776C317.984 170.577 314.213 166.977 309.222 166.355C306.572 166.024 304.151 166.723 301.754 167.77L300.914 168.135C299.669 168.673 298.484 169.164 297.254 169.572C295.359 168.783 293.464 168.001 291.558 167.238L291.519 163.931C294.04 164.438 296.725 164.36 299.069 163.835C300.48 163.518 301.873 162.993 303.139 162.308C304.397 161.631 305.444 160.614 306.721 159.985C309.325 158.703 311.884 160.413 314.06 161.867C314.15 161.927 314.24 161.987 314.329 162.047ZM308.434 169.81C306.133 169.654 304.061 170.577 302.005 171.56C303.164 172.048 304.322 172.532 305.481 173.012L313.191 176.206C315.738 177.26 318.435 178.176 320.855 179.475C321.028 179.568 321.166 179.68 321.27 179.811C323.786 178.247 326.448 176.851 328.999 175.365C329.582 175.026 330.169 174.687 330.756 174.349C327.718 175.335 324.603 175.83 321.304 174.903C316.904 173.671 313.084 170.127 308.434 169.81Z" transform="translate(-90.91262 -2.60604)" id="ðŸ–-Ink" fill="#000000" fill-rule="evenodd" stroke="none" />
  </g>
</svg>