<?xml version="1.0" encoding="utf-8"?>
<svg width="314px" height="273px" viewBox="0 0 314 273" version="1.1" xmlns:xlink="http://www.w3.org/1999/xlink" xmlns="http://www.w3.org/2000/svg">
  <desc>Created with Lunacy</desc>
  <defs>
    <rect width="313.783173" height="272.9061" id="artboard_1" />
    <clipPath id="clip_1">
      <use xlink:href="#artboard_1" clip-rule="evenodd" />
    </clipPath>
  </defs>
  <g id="body/Gym-Shirt" clip-path="url(#clip_1)">
    <use xlink:href="#artboard_1" stroke="none" fill="#FFFFFF" />
    <path d="M68.165 266.57C53.6497 268.109 39.0445 269.645 24.4575 267.966C17.7537 266.932 10.4538 267.246 4.24529 264.36C-1.30884 261.16 -0.184958 255.229 0.858084 249.724C1.16878 248.084 1.47231 246.483 1.59002 245.002C14.121 186.323 7.7015 106.957 52.9883 62.0838C70.3204 47.8711 81.3083 45.163 103.345 40.7801C107.25 40.0858 120.772 36.3062 124.622 32.7086C126.204 31.4163 129.005 27.4106 130.184 25.749C134.964 18.8139 136.166 9.43604 143.838 4.60788C153.562 -0.80408 173.413 -2.32759 182.508 4.87966C192.886 13.7035 189.781 28.6597 196.455 39.6199C204.694 48.1057 224.665 51.2294 235.743 55.2325C237.972 56.1369 246.4 62.8728 248.75 64.9551C264.822 80.1243 265.246 117.855 271.115 139.668C278.041 178.578 284.506 217.592 289.342 256.804C292.609 270.34 280.223 269.768 270.298 269.31C269.041 269.252 267.823 269.196 266.681 269.17C235.413 265.109 203.983 266.561 172.592 268.012C167.138 268.263 161.686 268.515 156.236 268.738C141.713 269.665 127.254 268.637 112.802 267.61C97.9354 266.553 83.0768 265.497 68.165 266.57ZM9.04683 256.759C8.69403 256.823 8.39133 257.089 9.35165 257.059C9.25004 256.96 9.14843 256.858 9.04683 256.759Z" transform="translate(12.65842 -13.40322)" id="âœ‹-Skin" fill="#D08B5B" fill-rule="evenodd" stroke="none" />
    <path d="M141.75 0.24865C140.22 -0.347053 138.348 0.136955 137.503 1.60015C136.663 3.05962 136.288 4.74248 135.539 6.25817C134.799 7.76939 134.028 9.27019 133.123 10.6995C131.324 13.5481 128.723 16.0165 126.034 18.0862C123.357 20.1488 120.349 21.8764 117.207 23.1869C115.616 23.85 113.947 24.3787 112.282 24.8441C110.756 25.2681 108.979 25.4282 107.652 26.3255C107.537 26.4 107.533 26.5526 107.652 26.6275C110.105 28.1811 114.295 27.4324 117.24 26.7788L118.14 26.575C121.926 25.7075 125.608 24.1549 128.865 22.0815C132.137 19.9962 134.895 17.4458 137.473 14.6162C138.843 13.1162 140.166 11.5111 141.194 9.76872C142.176 8.10485 143.438 6.04558 143.718 4.13933C143.96 2.51232 143.449 0.911368 141.75 0.24865ZM195.968 10.5544C195.93 10.3757 195.677 10.4018 195.623 10.5544C194.441 13.8531 194.146 16.6864 195.07 20.1341C195.987 23.5519 197.794 26.7575 200.218 29.3898C204.825 34.3899 212.137 37.4578 219.064 37.3647C216.878 49.6958 213.157 61.8593 207.944 73.2744C203.203 83.6433 196.555 94.3436 186.375 100.438C181.123 103.584 175.181 105.107 169.005 104.731C162.127 104.31 155.468 101.645 149.649 98.1748C138.816 91.7151 130.653 81.8376 124.569 71.1411C116.329 56.6618 112.309 40.44 106.187 25.1156C105.999 24.6502 105.278 24.5497 105.009 24.8885C105.531 23.604 104.618 21.9621 102.758 22.3568C101.442 22.6376 100.342 23.4605 99.2971 24.2659L98.7257 24.7072C98.3287 25.0193 97.9427 25.3427 97.5717 25.6852C97.0343 26.1804 96.8386 26.6979 96.371 27.2006C96.2598 27.3234 96.3668 27.5505 96.5475 27.4947C96.7044 27.4426 96.8847 27.4202 97.0688 27.3979C88.8291 29.885 80.9538 33.4889 73.0632 36.8361L72.1836 37.2098C65.1444 40.2029 58.0599 43.2866 51.9653 47.8938C45.3444 52.8977 40.7834 59.7594 37.1776 67.027C33.4491 74.5436 30.1463 82.3105 27.1849 90.1402C15.209 121.809 8.9333 155.005 4.58714 188.375C3.35195 197.877 2.36994 207.397 1.60658 216.943C1.22298 221.708 0.88158 226.478 0.574701 231.247C0.428934 233.515 0.283167 235.786 0.156579 238.053C0.139532 238.346 0.117242 238.642 0.0948489 238.939C0.0315799 239.78 -0.0325136 240.631 0.0184841 241.456C0.0921349 242.636 0.58805 243.665 1.1311 244.687L1.54137 245.455C2.48886 247.227 5.03595 246.955 6.04481 245.455C6.59719 244.632 7.18793 243.853 7.52166 242.923C7.9206 241.806 7.93595 240.592 8.02034 239.416C8.15843 237.375 8.2505 235.331 8.37325 233.291C8.62642 229.088 8.89878 224.888 9.20566 220.692C9.80791 212.401 10.5252 204.12 11.3116 195.848C12.8537 179.629 15.1591 163.523 18.3852 147.536C21.6534 131.337 25.8423 115.301 31.251 99.6491C33.917 91.9348 36.8324 84.2912 40.0661 76.7816C43.0774 69.7933 46.2957 62.5443 51.2211 56.5947C56.8715 49.7628 64.4706 45.2913 72.4073 41.3522L73.1619 40.9784C81.2194 37.0002 89.5081 33.2955 97.1187 28.5335C95.8988 57.7895 90.3903 87.2138 80.413 114.843C77.325 123.388 73.9685 131.847 71.0723 140.447C70.8268 140.6 70.5852 140.756 70.3358 140.905C68.4946 142.015 66.5305 142.823 64.5857 143.72C64.532 143.731 64.4821 143.739 64.4323 143.753C64.1484 140.06 64.0141 136.147 62.6063 132.781C62.5872 132.733 62.5219 132.733 62.5028 132.781C61.1103 136.24 61.1487 140.187 60.7459 143.857L60.6504 144.762C60.283 148.381 60.0858 152.02 59.9442 155.656C59.6296 163.642 59.3304 171.632 58.9583 179.618C58.2218 195.46 57.0864 211.31 55.7706 227.118C55.4446 231.039 55.1722 234.963 54.8538 238.883C54.7042 240.719 54.5354 242.558 54.4012 244.394C54.3766 244.728 54.3374 245.086 54.2968 245.456C54.1087 247.171 53.8899 249.165 54.9497 250.503C54.9267 252.249 58.0339 254.878 58.1835 254.252L58.4405 254.308L58.4321 254.343C58.4092 254.474 58.4731 254.623 58.6208 254.647C64.5123 255.532 70.4766 255.64 76.4338 255.851L77.8083 255.902C84.56 256.166 91.3148 256.408 98.07 256.646C107.879 256.993 117.694 257.17 127.508 257.323L138.214 257.488C164.969 257.905 191.741 257.894 218.501 258.102C225.893 258.162 233.285 258.21 240.676 258.259C241.917 258.267 243.159 258.281 244.401 258.294C246.983 258.322 249.566 258.351 252.146 258.333C255.138 258.314 258.011 257.745 260.892 257.097C261.245 257.134 261.598 257.164 261.951 257.175C265.058 257.287 266.581 254.39 266.163 251.806C265.833 249.729 265.265 247.737 264.436 245.797C265.316 244.372 265.082 242.471 264.881 240.833C264.87 240.744 264.86 240.657 264.849 240.57L264.545 237.956C264.182 234.844 263.815 231.73 263.477 228.615C261.774 212.9 260.148 197.169 258.851 181.417C258.126 172.623 257.631 163.806 257.01 155.005C256.584 148.929 256.181 142.774 255.468 136.683C256.995 136.847 258.644 135.488 258.575 133.958C258.426 130.652 255.951 127.48 254.54 124.512C253.113 121.511 251.812 118.455 250.619 115.357C248.199 109.069 246.212 102.631 244.581 96.108C241.29 82.9434 239.361 69.5029 237.938 56.04C237.546 52.3243 237.159 48.6086 236.794 44.8892C236.652 43.4409 236.541 41.9852 236.388 40.5368C246.331 48.1172 253.492 58.9329 257.589 70.4821C260.098 77.5523 261.778 84.8422 263.274 92.1656C264.851 99.8986 266.389 107.635 267.885 115.383C273.377 143.845 277.551 172.528 281.556 201.217L282.754 209.824C283.962 218.529 285.101 227.241 286.179 235.964C286.712 240.265 287.226 244.568 287.736 248.873C288.001 251.132 288.262 253.389 288.53 255.645C288.653 256.702 288.707 257.808 288.907 258.854C288.909 258.872 288.915 258.911 288.921 258.963L288.929 259.052C288.327 259.61 287.963 260.411 288.039 261.457C288.423 266.721 295.197 266.751 297.434 262.641C298.356 260.946 298.132 259.165 297.904 257.359C297.877 257.145 297.85 256.931 297.825 256.717L297.559 254.458C297.381 252.953 297.201 251.449 297.019 249.945C296.007 241.512 294.956 233.086 293.835 224.668C291.76 209.055 289.292 193.521 286.758 177.978L285.956 173.069C283.191 156.166 280.007 139.326 276.643 122.524C274.936 113.998 273.324 105.453 271.575 96.9312C269.941 88.9637 268.315 80.9515 265.829 73.1851C261.241 58.8584 252.253 43.3069 236.238 39.2669L236.204 38.9877L236.173 38.7553C235.945 36.9631 235.828 34.9213 235.126 33.2693C234.696 32.2603 233.403 31.3552 232.272 32.1449C231.871 32.4257 230.079 31.664 228.917 31.1704C228.59 31.0313 228.313 30.9134 228.131 30.8463L228.033 30.812C227.542 30.6519 227.047 30.4993 226.552 30.3466C225.578 27.2676 220.587 27.1484 220.031 31.229L219.99 31.5269C219.96 31.7254 219.929 31.924 219.901 32.1226L219.755 32.1188C213.667 32.1151 208.117 30.1716 203.801 25.9124C201.741 23.8795 200.111 21.4855 198.918 18.8794C197.744 16.3067 196.586 13.298 195.968 10.5544Z" transform="translate(8.439417 0.7444928)" id="ðŸ–-Ink" fill="#000000" fill-rule="evenodd" stroke="none" />
  </g>
</svg>