<?xml version="1.0" encoding="utf-8"?>
<svg width="111px" height="110px" viewBox="0 0 111 110" version="1.1" xmlns:xlink="http://www.w3.org/1999/xlink" xmlns="http://www.w3.org/2000/svg">
  <desc>Created with Lunacy</desc>
  <defs>
    <rect width="110.859833" height="109.087975" id="artboard_1" />
    <clipPath id="clip_1">
      <use xlink:href="#artboard_1" clip-rule="evenodd" />
    </clipPath>
  </defs>
  <g id="face/Cheeky" clip-path="url(#clip_1)">
    <use xlink:href="#artboard_1" stroke="none" fill="#FFFFFF" />
    <path d="M15.8999 1.49522L16.6843 1.20363C19.3719 0.218246 23.0616 -0.920741 25.2467 1.20035C26.5946 2.50829 26.8512 4.43501 25.8892 6.03112C24.7234 7.96455 22.6324 8.0122 20.6132 8.29702C18.3166 8.62094 15.9808 9.23674 13.8427 10.1147C11.4341 11.1039 9.19884 12.337 7.00888 13.7142C4.92748 15.0229 2.85336 17.1618 0.361893 17.565C0.26024 17.5814 0.144777 17.539 0.118309 17.4306C-0.447498 15.0664 1.12487 12.7398 2.52807 10.8954C4.22587 8.66226 6.28311 6.82936 8.5824 5.18597C10.8015 3.59954 13.3371 2.45318 15.8999 1.49522ZM64.959 9.86008L64.7195 9.90083C62.172 10.3543 59.6725 10.9206 57.0893 11.1812C54.4459 11.4474 51.7857 11.6407 49.1297 11.7144C48.4892 11.7322 47.7974 11.711 47.0862 11.6892C45.2623 11.6332 43.3109 11.5733 41.7703 12.1589C41.2425 12.3596 40.9882 12.9799 41.4293 13.4132C42.6565 14.6192 44.5906 15.1085 46.2801 15.5769L47.2111 15.8389C49.2348 16.3907 51.3311 16.7406 53.4087 17.0265C57.9497 17.6513 62.9545 17.7876 67.4729 16.9625C68.8113 16.7183 69.7335 15.5339 70.1458 14.3682C70.5927 13.1046 70.2314 11.8659 69.2939 10.9102C68.0657 9.65739 66.5888 9.59675 64.959 9.86008ZM14.6036 21.182C16.3816 18.5929 20.44 18.9741 21.4194 22.0465C21.7473 23.0751 21.5926 24.0394 21.4356 25.0184C21.3386 25.6233 21.2407 26.2339 21.2552 26.8687C21.287 28.2727 21.1923 29.8371 20.7488 31.1968C19.7377 34.2975 16.8645 36.4874 13.4655 36.3966C10.0775 36.3061 7.09353 34.2249 5.6746 31.2936C4.25068 28.3512 4.55219 25.3061 5.59174 22.3142C5.64161 22.1704 5.83571 22.1008 5.95271 22.2218C7.1815 23.4892 8.08104 24.8272 9.01183 26.2466L9.96569 27.7012C10.6947 28.7966 11.7541 30.1959 13.1152 30.108L13.3195 30.0884C13.4852 30.0746 13.5672 30.0808 13.6315 30.0501C13.7141 30.0107 13.7676 29.9106 13.9315 29.6294C14.0666 29.3978 14.042 28.9674 14.1072 28.6941L14.1299 28.6018L14.1175 28.5521C14.0887 28.4197 14.0602 28.1703 14.0369 27.7375L14.032 27.642C14.0126 27.2419 13.9739 26.8193 13.9341 26.3846C13.7727 24.6195 13.5928 22.6538 14.6036 21.182ZM65.7462 21.3091C64.1516 18.8589 59.3551 19.5942 59.6738 22.9056C59.8764 25.008 61.2159 26.3372 61.7541 28.2911C62.1715 29.8045 61.5466 30.6717 59.9109 30.4676C58.2012 30.2543 57.0731 28.8857 56.3293 27.4813C55.6081 26.1197 55.4105 24.2135 54.1976 23.1684C54.0913 23.0768 53.9364 23.0921 53.8589 23.2109C52.5754 25.1703 53.626 28.8384 54.6829 30.7171C55.8682 32.8225 58.1168 34.2094 60.5814 34.3933C63.1623 34.5854 65.5548 33.3724 66.6549 31.0779C67.3535 29.621 67.2787 27.9962 67.0899 26.4344L67.004 25.7126C66.82 24.1919 66.5779 22.5868 65.7462 21.3091ZM49.3884 42.8309C52.5046 38.5942 48.0909 34.6093 45.1942 32.9004C44.4353 32.3717 45.0376 30.6204 46.6593 30.8911C61.3883 33.3472 53.7566 57.9723 34.9512 44.4591C32.7123 42.7061 35.4236 38.845 37.8367 40.3463C37.9591 40.4373 38.0874 40.5336 38.2212 40.634C40.9323 42.6684 45.8928 46.3908 49.3884 42.8309ZM43.709 61.5628C44.2974 60.5698 45.6523 59.6498 46.8921 59.791C52.4462 60.4231 52.4366 66.9588 50.2919 70.7742C48.3904 74.1574 44.4551 76.1434 40.5163 75.8533C36.3784 75.5484 32.8528 73.1872 31.3011 69.4302C30.275 66.945 29.8009 62.3569 32.5306 60.6871C32.5812 60.6558 32.6648 60.6637 32.7051 60.7087C34.0139 62.1864 34.0653 64.405 35.2111 66.0503C36.2768 67.5805 37.9324 68.8442 39.8719 69.0392C41.3203 69.1852 42.7857 68.6781 43.3522 67.416C43.6588 66.7333 43.6239 66.3626 43.5086 65.8927L43.4039 65.4844C43.0411 64.0542 42.8782 62.9652 43.709 61.5628Z" transform="translate(20.33011 20.84953)" id="ðŸ–-Ink" fill="#000000" fill-rule="evenodd" stroke="none" />
  </g>
</svg>