<?xml version="1.0" encoding="utf-8"?>
<svg width="111px" height="110px" viewBox="0 0 111 110" version="1.1" xmlns:xlink="http://www.w3.org/1999/xlink" xmlns="http://www.w3.org/2000/svg">
  <desc>Created with Lunacy</desc>
  <defs>
    <rect width="110.859833" height="109.087975" id="artboard_1" />
    <clipPath id="clip_1">
      <use xlink:href="#artboard_1" clip-rule="evenodd" />
    </clipPath>
  </defs>
  <g id="face/Fear" clip-path="url(#clip_1)">
    <use xlink:href="#artboard_1" stroke="none" fill="#FFFFFF" />
    <path d="M21.0979 31.6467C32.7499 31.6467 42.1958 24.5623 42.1958 15.8233C42.1958 7.08435 32.7499 0 21.0979 0C9.44585 0 0 7.08435 0 15.8233C0 24.5623 9.44585 31.6467 21.0979 31.6467Z" transform="translate(19.94788 29.41278)" id="eye" fill="#FFFFFF" stroke="none" />
    <path d="M14.9603 25.6897C24.0701 25.6897 32.9894 19.9388 32.9894 12.8448C32.9894 5.75083 25.6045 0 16.4947 0C7.38493 0 0 5.75083 0 12.8448C0 16.7364 1.32307 14.2118 4.83345 16.5673C7.72214 18.5057 10.848 25.6897 14.9603 25.6897Z" transform="translate(59.84084 29.41278)" id="eye" fill="#FFFFFF" stroke="none" />
    <path d="M47.2016 1.0321C46.1294 0.0592411 44.5736 -0.299297 42.997 0.275928C39.8522 1.42377 40.3517 5.69682 43.7883 5.94813C48.5764 6.29811 53.3745 7.19166 58.1483 7.73338C58.9797 7.82771 59.8235 7.93317 60.6754 8.03964C64.5982 8.52993 68.6934 9.04177 72.544 8.58784C72.9368 8.5413 73.2176 7.98804 72.7711 7.7747C68.5638 5.76607 63.5924 4.92166 59.0682 3.82594L58.0861 3.59172C54.4772 2.74343 50.7872 2.00101 47.2016 1.0321ZM26.8028 1.5814C29.3538 1.18228 31.7908 2.3856 32.1617 5.04653C32.5353 7.73054 30.4988 9.50424 27.9444 9.76784C23.1287 10.2645 18.2118 10.3825 13.3731 10.5877C11.3549 10.6729 9.33421 10.7091 7.31412 10.7264L6.30413 10.7336C5.91023 10.7359 5.49123 10.7535 5.05931 10.7717C3.43104 10.8401 1.61929 10.9163 0.277425 10.2068C0.166949 10.1487 0.171169 10.0165 0.241367 9.93315C1.43441 8.50734 3.90121 7.89974 5.66452 7.27176L5.8139 7.21786C8.04605 6.40063 10.3031 5.63553 12.5902 4.97318L13.7523 4.63856C18.0251 3.41713 22.4219 2.26807 26.8028 1.5814ZM48.4075 13.4792L48.6543 13.3188C51.3657 11.5811 55.2618 9.90802 58.386 11.2271C58.5625 11.3016 58.7117 11.3988 58.8413 11.5104C59.6081 11.525 60.3799 11.5868 61.154 11.7C67.2697 12.5946 72.9209 16.4901 75.684 21.8533C78.8245 27.9492 77.3327 34.3731 71.7755 38.5192C69.045 40.5561 65.8362 42.0227 62.3819 42.3533C61.2526 42.4613 60.0558 42.4825 58.9717 42.1504C59.485 43.2107 59.8755 44.3191 60.0765 45.4882C60.7643 49.4906 59.1286 52.7908 55.2877 54.519C51.9124 56.0384 47.2409 56.6207 43.9029 54.703C41.0811 53.0826 42.0052 47.7183 45.7181 48.199C46.2685 48.2702 46.807 48.365 47.3386 48.4585C49.2274 48.7908 51.0278 49.1075 52.9608 48.298C54.9256 47.4758 53.818 44.7528 53.1965 43.2248C53.1794 43.1829 53.1627 43.1418 53.1464 43.1017C52.1287 40.5948 50.6308 38.2347 49.4162 35.8007L49.1919 35.3434C48.4282 33.7562 47.4795 32.0793 46.7534 30.3689C46.3537 32.3779 45.6367 34.3493 44.792 36.1744C42.7874 40.5051 38.9069 43.1549 34.2834 44.3958C29.5298 45.671 23.9512 45.967 19.0503 45.8102C14.0658 45.6513 8.81822 44.3835 5.17136 40.8771C-1.50939 34.4535 0.40937 23.2149 7.43957 17.8457C11.9871 14.3724 18.3947 11.9922 24.2791 12.6088C27.2267 11.965 30.5233 12.3307 33.4725 12.9792C37.4626 13.8568 41.2722 15.7351 43.8806 18.7266C44.0739 18.256 44.2972 17.8052 44.5527 17.3748C44.4376 17.3234 44.3662 17.1581 44.4798 17.059C44.6877 16.8777 44.9014 16.7039 45.115 16.5296C45.9647 15.3732 47.0622 14.3661 48.4075 13.4792ZM58.3856 14.795C58.5091 14.7224 58.6203 14.6327 58.7243 14.5344C63.014 15.3557 67.0361 17.5941 69.8367 21.0413C72.6017 24.4443 74.4717 29.4783 70.9273 33.0507C69.3568 34.633 67.2524 35.8546 65.105 36.5344C64.0126 36.8803 62.9001 37.1216 61.7459 37.1141C60.8034 37.1082 60.2004 36.712 59.2981 36.5043C58.2674 36.2679 57.3656 36.6808 56.7813 37.4984C56.626 37.7154 56.5151 37.944 56.4365 38.1775C55.8369 37.3949 55.2128 36.6346 54.5979 35.8922C53.5635 34.643 52.4593 33.4394 51.3476 32.2492L50.3944 31.2316C49.3138 30.0793 48.2931 28.8041 47.0721 27.7787C47.1557 25.877 46.8876 23.983 46.092 22.1843C45.8039 21.5335 45.4679 20.9188 45.0924 20.3365C46.8446 19.144 48.7561 18.0505 50.6096 17.1365C51.7896 16.5538 53.0443 16.1771 54.3263 15.8684C55.718 15.5333 57.13 15.5259 58.3856 14.795ZM18.5853 15.9947L18.6677 15.8982L18.4671 15.963C14.5997 17.2267 11.4151 19.3101 8.82654 22.3516C4.41516 27.5345 4.36261 35.7757 10.959 39.2784C14.5153 41.1664 18.7134 41.2554 22.6622 41.0555L23.4607 41.014C26.9273 40.8285 30.4648 40.5532 33.8099 39.6433C37.4583 38.6507 39.9931 36.5107 41.389 33.0619L41.5049 32.7711C42.8974 29.2213 43.6225 25.2737 41.0373 22.0608C36.6581 16.6187 26.5392 15.5315 20.285 18.1329C18.787 18.7558 17.5849 17.2356 18.5853 15.9947ZM64.3855 25.773C64.1848 23.5581 62.5097 21.4021 59.9944 21.5112C57.6518 21.6128 55.5573 23.385 55.6034 25.773C55.6275 27.0519 55.9087 28.3562 56.4066 29.5416C56.7845 30.9791 58.1232 32.0975 59.6388 32.2952C61.543 32.5432 63.3091 31.4162 63.8645 29.6176C64.237 28.412 64.4998 27.0337 64.3855 25.773ZM27.1565 23.1149C28.2943 22.7962 29.9871 23.2988 30.4877 24.4307L30.8468 25.2546C30.8356 25.23 30.8268 25.211 30.8165 25.1887C30.9434 25.4806 31.065 25.7624 31.1625 26.0618L31.4989 26.3149C31.7862 26.6243 32.052 26.9508 32.296 27.2952C32.8729 28.2521 33.0402 29.4774 32.7448 30.5496C32.2573 32.3215 30.5809 33.4589 28.7212 33.4698C23.2776 33.501 21.9435 24.5759 27.1565 23.1149ZM0.631989 43.0362C0.29519 42.8259 -0.174334 43.2548 0.0657986 43.5854C2.14221 46.4373 5.04145 48.4497 8.33502 49.8027C11.5814 51.1367 15.437 52.1914 18.854 50.9345C19.8357 50.5737 20.021 49.1012 18.854 48.8142C15.7492 48.0502 12.5358 48.1425 9.44477 47.2486C6.28047 46.3334 3.39159 44.7634 0.631989 43.0362ZM60.052 60.2711L59.7355 60.2871C57.7369 60.376 55.7388 60.4784 53.7425 60.6028C49.9974 60.8347 46.242 61.1266 42.5138 61.5399C38.7806 61.9547 35.0364 62.4841 31.3553 63.2168C27.72 63.9413 23.8499 64.5798 20.4646 66.103C19.758 66.4209 20.0707 67.3357 20.6618 67.5286L20.6576 67.5356L20.8041 67.5602C23.4855 68.0746 26.2996 68.113 29.0629 68.1507C29.8155 68.1609 30.5644 68.1711 31.3059 68.1909L32.7528 68.2272C36.1296 68.3061 39.5102 68.3446 42.8878 68.3283C46.6318 68.3101 50.373 68.319 54.1165 68.357C55.9896 68.3763 57.8627 68.4091 59.7355 68.4564C60.1387 68.4665 60.5396 68.4876 60.9378 68.5084C62.785 68.6053 64.5715 68.699 66.239 67.6898C68.8152 66.1316 68.8037 62.5813 66.239 61.0201C64.5319 59.9808 62.6933 60.101 60.796 60.225C60.549 60.2412 60.3009 60.2574 60.052 60.2711Z" transform="translate(16.8779 16.38183)" id="ðŸ–-Ink" fill="#000000" fill-rule="evenodd" stroke="none" />
  </g>
</svg>