<?xml version="1.0" encoding="utf-8"?>
<svg width="111px" height="110px" viewBox="0 0 111 110" version="1.1" xmlns:xlink="http://www.w3.org/1999/xlink" xmlns="http://www.w3.org/2000/svg">
  <desc>Created with Lunacy</desc>
  <defs>
    <rect width="110.859833" height="109.087975" id="artboard_1" />
    <clipPath id="clip_1">
      <use xlink:href="#artboard_1" clip-rule="evenodd" />
    </clipPath>
  </defs>
  <g id="face/Concerned" clip-path="url(#clip_1)">
    <use xlink:href="#artboard_1" stroke="none" fill="#FFFFFF" />
    <path d="M0.398503 11.1287C2.15284 5.87902 21.1845 -1.84699 24.393 0.399544C27.6016 2.64608 23.4632 18.6956 23.4632 18.6956C23.4632 18.6956 5.71446 20.4818 4.44477 19.5887C3.17508 18.6956 -1.35584 16.3783 0.398503 11.1287Z" transform="translate(40.19274 74.93066)" id="teeth" fill="#FFFFFF" stroke="none" />
    <path d="M27.7691 2.03541C26.4468 -0.159012 23.9301 -0.420376 21.734 0.499611C19.6871 1.35668 17.8236 2.89843 15.8987 4.01202C14.0455 5.08428 12.1774 6.14017 10.3043 7.17892C8.4515 8.20613 6.58184 9.21622 4.68495 10.1649C3.20771 10.9032 0.905358 11.484 0.0380429 12.9416C-0.0417454 13.0756 0.00927308 13.2428 0.141614 13.3236C1.34295 14.0609 3.07676 13.7978 4.57102 13.571C4.92993 13.5165 5.27503 13.4641 5.59561 13.4282L6.23258 13.3551C8.35464 13.1053 10.4646 12.7921 12.5587 12.369C14.7997 11.9162 16.9708 11.3369 19.1405 10.6284L19.3876 10.5485C21.6262 9.83066 24.2396 9.14814 26.1864 7.89302C28.1688 6.61524 29.0208 4.11217 27.7691 2.03541ZM48.5463 0.145404C49.9549 0.134101 50.8781 0.867166 51.8783 1.66133C52.0856 1.82588 52.2961 1.99306 52.515 2.15677C53.828 3.13931 55.4111 3.92303 56.9459 4.5232C58.5463 5.14832 60.2571 5.64461 61.9419 5.99868C63.6884 6.36504 65.2953 6.1934 67.0292 6.50354C71.6254 7.32598 70.5376 14.7644 65.9286 14.3966C61.7804 14.0656 57.3272 11.592 54.1813 9.02708C52.678 7.80169 51.4091 6.39721 50.1742 4.92943L49.943 4.65351C48.8466 3.34073 47.8228 1.99705 48.3729 0.273611C48.3967 0.199148 48.465 0.14628 48.5463 0.145404ZM15.163 14.0595C11.6415 14.0595 10.2168 19.4802 10.2114 21.8544L10.2119 21.9383C10.2453 24.3444 11.9206 29.2393 15.163 29.2393C18.3714 29.2393 19.0399 24.0711 18.9378 21.7067L18.9297 21.5517C18.6985 17.7487 17.3629 14.0595 15.163 14.0595ZM62.0565 21.8544C62.0512 19.4802 60.6265 14.0595 57.105 14.0595C54.9601 14.0595 53.6368 17.5665 53.3576 21.2667L53.3382 21.5517C53.1993 23.8362 53.8245 29.2393 57.105 29.2393C60.3474 29.2393 62.0227 24.3444 62.056 21.9383L62.0565 21.8544ZM46.3184 35.0123C49.4346 30.7756 45.0209 26.7907 42.1242 25.0818C41.3653 24.5531 41.9676 22.8018 43.5893 23.0725C58.3183 25.5287 50.6867 50.1538 31.8813 36.6405C29.6424 34.8876 32.3536 31.0264 34.7668 32.5277C34.8891 32.6188 35.0174 32.7151 35.1512 32.8154C37.8623 34.8499 42.8228 38.5723 46.3184 35.0123ZM49.6095 49.673C49.7243 49.7948 49.4714 49.9586 49.3452 49.87C47.884 48.842 45.5826 49.4255 44.172 49.8908C44.172 49.8908 43.6564 66.0175 44.2268 66.3996C44.7972 66.7817 52.8363 66.5548 52.8363 67.5117C52.8363 70.6395 48.0018 71.8138 45.3776 71.6276C44.5181 71.5668 43.6531 71.4939 42.785 71.4208C39.4799 71.1422 36.1291 70.8598 32.8615 71.2266C32.0596 71.3167 31.0826 71.4857 29.9958 71.6737C25.4903 72.4532 19.0985 73.559 15.4838 70.7136C10.1325 66.5012 10.8561 59.5784 15.3085 55.0589C18.1152 52.2102 22.2453 50.5011 26.3175 49.2348C32.2766 47.3817 46.321 46.1856 49.6095 49.673ZM40.2557 50.3335C34.4085 51.2552 21.7816 55.4117 19.9676 57.6242C22.7241 57.2035 38.103 55.4117 39.8379 55.4117C40.09 54.1093 39.9229 51.826 40.2557 50.3335ZM23.1612 66.3997C25.7136 65.7725 36.4559 62.329 38.6168 61.5126C39.0371 61.3537 38.8735 63.8827 38.6168 64.8882C36.3303 65.9623 26.1443 66.1919 23.1612 66.3997Z" transform="translate(23.40009 26.0619)" id="ðŸ–-Ink" fill="#000000" fill-rule="evenodd" stroke="none" />
  </g>
</svg>