<?xml version="1.0" encoding="utf-8"?>
<svg width="111px" height="110px" viewBox="0 0 111 110" version="1.1" xmlns:xlink="http://www.w3.org/1999/xlink" xmlns="http://www.w3.org/2000/svg">
  <desc>Created with Lunacy</desc>
  <defs>
    <rect width="110.859833" height="109.087975" id="artboard_1" />
    <clipPath id="clip_1">
      <use xlink:href="#artboard_1" clip-rule="evenodd" />
    </clipPath>
  </defs>
  <g id="face/With_MaskCheers" clip-path="url(#clip_1)">
    <use xlink:href="#artboard_1" stroke="none" fill="#FFFFFF" />
    <path d="M67.2721 18.462C67.3971 18.4086 67.5093 18.3197 67.5904 18.1906C68.655 16.4972 68.7657 14.476 68.2947 12.4962C67.7286 10.1165 66.3229 7.80325 64.8058 6.23845C62.8937 4.26603 60.5676 2.88682 58.0172 1.84195C57.8314 1.76583 57.6414 1.68695 57.448 1.60659C54.84 0.523255 51.6307 -0.748467 49.0481 0.54754C48.0107 1.06836 47.4401 1.93745 47.2803 2.88528C47.1105 3.89195 47.4107 4.99268 48.1262 5.85337C49.3135 7.28222 51.1479 7.57781 52.9692 7.83591C53.5503 7.91827 54.1273 7.99954 54.6734 8.12497C56.5527 8.55656 58.5379 9.09788 60.2642 9.94987C63.7737 11.6818 65.418 14.3675 66.2648 17.9773C66.2991 18.1235 66.376 18.2429 66.477 18.3329C66.5823 18.4269 66.715 18.4883 66.8547 18.5112C66.995 18.5341 67.1412 18.518 67.2721 18.462ZM22.3999 7.146C21.1245 8.35211 19.6149 8.53894 18.0876 8.7051C17.2391 8.7983 16.5617 8.87343 15.8951 9.01941C14.0629 9.42083 12.2518 10.0254 10.5995 10.8961C8.87233 11.8063 6.99006 12.9041 5.63591 14.3103C5.3139 14.645 5.01037 14.9961 4.7064 15.348C4.42923 15.6689 4.16223 15.9778 3.88084 16.2757C3.55768 16.6178 3.2508 16.9764 2.94555 17.3341C2.7568 17.6358 2.71952 17.7101 2.68151 17.7873C2.62431 17.9034 2.55778 18.0334 2.48179 18.1728C2.37771 18.3637 2.25581 18.5726 2.12814 18.7621C1.91573 19.1084 1.80175 19.2038 1.70326 19.2465C1.53983 19.3171 1.38485 19.3519 1.23448 19.3331C1.0935 19.3154 0.960674 19.2497 0.829509 19.1421C0.174686 18.6051 -0.018438 17.7239 0.00135611 16.7884C0.0313934 15.3689 0.570844 13.7972 1.06814 12.831C2.22444 10.5861 3.82807 8.25232 5.75635 6.57681C7.95668 4.66424 10.3639 3.21633 13.1289 2.21863C14.8471 1.59839 16.8366 1.02907 18.7086 1.10099C20.056 1.15275 21.3424 1.54151 22.4047 2.51234C23.057 3.1083 23.3701 3.956 23.3701 4.8031C23.3701 5.66707 23.0449 6.53615 22.3999 7.146ZM63.1539 29.1634C63.8612 29.3691 64.36 29.2719 64.9976 28.9494C65.4879 28.7016 65.8217 28.3103 66.0132 27.8535C66.2092 27.386 66.2503 26.8468 66.1536 26.3472C65.7513 24.273 64.4611 22.4325 62.7198 21.247C61.0276 20.0949 58.9169 19.5628 56.7915 20.006C55.2397 20.3298 52.9399 21.759 51.7286 23.5022C51.2123 24.2453 50.8927 25.0417 50.8581 25.8283C50.8251 26.5785 51.022 27.3348 52.0454 28.3317C52.145 28.3619 52.2497 28.3781 52.3527 28.3781C52.6064 28.3781 52.8683 28.2751 53.042 28.1262C53.5005 27.735 53.8236 27.2399 54.1561 26.7072C54.3338 26.4224 54.5105 26.1356 54.736 25.8831C55.4107 25.1286 56.3903 24.4885 57.4185 24.3219C58.3714 24.1673 59.2305 24.4414 59.9111 24.9583C60.7073 25.5632 61.2661 26.4911 61.473 27.4823C61.5571 27.8839 61.7735 28.2459 62.0735 28.5371C62.3761 28.8308 62.7627 29.0494 63.1539 29.1634ZM17.7127 25.7311C16.7817 25.1532 15.6865 24.9548 14.4728 25.4908C13.5243 25.9094 11.8607 27.305 10.7029 29.1397C9.91087 30.3948 9.34921 31.8673 9.46614 33.401C9.4933 33.7572 9.35769 34.0199 9.1438 34.2141C8.97487 34.3674 8.73086 34.4801 8.44426 34.5154C8.20093 34.5453 7.92857 34.5183 7.70712 34.4512C7.28585 34.3236 7.0629 34.0584 6.97889 33.8418C6.16827 31.7524 6.5175 29.4207 7.426 27.3171C8.65208 24.4781 10.8787 22.1001 12.3375 21.3334C14.8338 20.021 17.7787 19.9606 20.2786 21.2976C22.4066 22.4356 23.7372 24.2728 25.0606 26.1456C25.3419 26.5437 25.6212 26.9388 25.9097 27.3271C26.4881 28.105 26.5456 28.8765 26.3217 29.5381C26.0736 30.2711 25.4409 30.8896 24.6498 31.2133C23.9186 31.5125 23.07 31.5546 22.319 31.2472C21.6847 30.9875 21.1025 30.4813 20.7341 29.6223C20.1137 28.1757 19.08 26.5797 17.7127 25.7311Z" transform="translate(20.71421 20.49942)" id="ðŸ–-Ink" fill="#000000" fill-rule="evenodd" stroke="none" />
  </g>
</svg>
