<?xml version="1.0" encoding="utf-8"?>
<svg width="111px" height="110px" viewBox="0 0 111 110" version="1.1" xmlns:xlink="http://www.w3.org/1999/xlink" xmlns="http://www.w3.org/2000/svg">
  <desc>Created with Lunacy</desc>
  <defs>
    <rect width="110.859833" height="109.087975" id="artboard_1" />
    <clipPath id="clip_1">
      <use xlink:href="#artboard_1" clip-rule="evenodd" />
    </clipPath>
  </defs>
  <g id="face/Explaining" clip-path="url(#clip_1)">
    <use xlink:href="#artboard_1" stroke="none" fill="#FFFFFF" />
    <path d="M0.74357 4.10975C3.81298 -1.84728 31.965 0.830325 31.965 0.830325L34.343 19.7655C34.343 19.7655 20.7595 24.0033 12.6738 23.1153C4.58812 22.2273 -2.32584 10.0668 0.74357 4.10975Z" transform="translate(35.25097 79.5706)" id="teeth" fill="#FFFFFF" stroke="none" />
    <path d="M0.0340433 5.04722C-0.9382 3.02783 19.1875 -2.4788 25.4187 1.28421C31.6499 5.04722 29.7015 10.1798 29.7015 10.1798C29.7015 10.1798 3.4932 15.9818 0.0340433 5.04722Z" transform="translate(37.94435 88.57889)" id="tongue" fill="#FF8181" stroke="none" />
    <path d="M11.836 0.105882C14.7099 -0.318184 18.5156 0.487504 19.8555 3.32379C20.4524 4.58742 19.7454 5.98472 18.2406 6.05471C17.3758 6.09491 16.5322 6.08113 15.7058 6.06762C13.0565 6.02434 10.5829 5.98394 8.14963 7.73348C6.77579 8.72146 5.62075 10.0894 4.65148 11.4539L4.28474 11.9731L3.98099 12.401C3.32283 13.3401 2.69959 14.3605 2.79691 15.4936C2.82568 15.8291 2.47238 16.1474 2.13674 16.134C0.0445925 16.0506 -0.180579 13.5047 0.0944602 11.9756C0.60618 9.13785 2.02127 6.47394 3.98261 4.32829C6.04253 2.07505 8.76186 0.559732 11.836 0.105882ZM58.2566 2.02047C55.9351 1.83841 53.4003 2.31348 51.4186 3.54994C50.1404 4.34744 48.695 6.13268 49.9713 7.5028C50.1792 7.72618 50.6318 7.49237 50.5121 7.19713C49.9011 5.68888 54.0639 5.67064 54.8882 5.73877L55.1162 5.75984C56.4859 5.8998 57.8821 6.28366 59.089 6.91715C60.3135 7.55939 61.457 8.31332 62.3592 9.35543C63.49 10.66 63.8598 12.2114 65.3793 13.2096C66.7924 14.1382 69.1907 13.255 69.5025 11.5815C70.5133 6.15502 62.8341 2.37827 58.2566 2.02047ZM61.6724 23.3434L61.6719 23.4273C61.6386 25.8334 59.9633 30.7283 56.7209 30.7283C53.4404 30.7283 52.8152 25.3253 52.9541 23.0407L52.9735 22.7557C53.2527 19.0555 54.576 15.5485 56.7209 15.5485C60.2424 15.5485 61.6671 20.9692 61.6724 23.3434ZM9.82782 24.1719L9.82733 24.088C9.8327 21.7139 11.2574 16.2931 14.7789 16.2931C16.9788 16.2931 18.3144 19.9823 18.5456 23.7853L18.5537 23.9404C18.6558 26.3048 17.9873 31.4729 14.7789 31.4729C11.5365 31.4729 9.86116 26.5781 9.82782 24.1719ZM46.9762 39.5683C46.8864 40.3862 46.5642 41.231 45.9352 42.0861C42.4397 45.646 37.4792 41.9236 34.768 39.8892C34.6343 39.7888 34.506 39.6925 34.3836 39.6014C31.9705 38.1002 29.2592 41.9613 31.4981 43.7143C50.3035 57.2275 57.9351 32.6024 43.2061 30.1462C41.5844 29.8756 40.9821 31.6269 41.741 32.1555C44.017 33.4983 47.2295 36.2461 46.9902 39.4171L46.8375 39.4692L46.8375 39.6406C46.8829 39.6142 46.9303 39.5923 46.9762 39.5683ZM46.9762 39.5683C46.9967 39.5575 47.0169 39.5463 47.0365 39.5341L47.2926 39.402L47.3792 39.3523C47.529 39.2602 47.4336 39.2701 47.093 39.3821L46.9902 39.4171C46.9864 39.4674 46.9818 39.5178 46.9762 39.5683ZM29.6279 54.2188C23.0741 52.8941 15.1624 53.263 10.4649 58.561C5.9856 63.6126 6.74705 71.0782 10.901 76.0773C15.3531 81.4353 23.0009 83.2574 29.8067 82.9294C34.0476 82.7247 38.2577 81.869 42.3812 80.8928L43.3312 80.6657L43.4548 80.6359C46.7125 79.8515 52.2338 78.5219 52.2122 74.4946C52.2069 73.5858 51.4707 73.0053 50.5938 72.9242C49.442 72.8171 48.5072 73.1381 47.5275 73.5789L47.259 73.7019L46.8495 73.8944L46.7199 73.9514C46.7632 73.5731 46.7337 73.1535 46.604 72.6881L46.5063 72.3202C45.9465 70.106 45.8464 67.7817 45.528 65.5285C45.3665 64.3837 45.2047 63.2403 45.0601 62.0932C44.996 61.5846 44.9166 61.0827 44.8295 60.5775C44.7969 60.388 44.7827 60.1646 44.7727 59.9356C47.9604 59.621 51.5958 59.105 54.2944 57.4962C54.5564 57.3395 54.4421 56.9541 54.1398 56.9433C53.0265 56.9027 51.9099 57.0087 50.7925 57.1148C49.9357 57.1962 49.0784 57.2776 48.2217 57.2929C46.212 57.3291 44.1954 57.2557 42.2003 57.0104C37.9286 56.4854 33.8337 55.0691 29.6279 54.2188ZM30.7898 59.3298L32.7445 59.6029L33.2426 59.6688C36.0654 60.0329 38.8924 60.2376 41.7319 60.1441C41.5623 60.7819 41.4576 62.2 41.3774 62.8553C40.626 62.722 36.6293 62.9204 36.0362 62.9808L34.3511 63.1506L32.6652 63.3162C30.293 63.5459 27.9197 63.7648 25.5452 63.9726L24.5099 64.0649C20.715 64.4094 16.9313 64.8231 13.1615 65.3654C13.4672 63.8233 14.2858 62.3877 15.7404 61.2871C19.7245 58.2717 25.1741 58.5971 30.02 59.2269L30.7898 59.3298ZM41.3719 75.6978C40.6578 69.5571 32.8828 69.2194 30.6462 73.1136C29.6537 67.6856 14.9712 72.6445 16.1193 73.7234C20.4708 77.8137 27.0745 78.1819 32.7513 77.4253C35.6425 77.04 38.536 76.4127 41.3719 75.6978Z" transform="translate(23.78419 21.59438)" id="ðŸ–-Ink" fill="#000000" fill-rule="evenodd" stroke="none" />
  </g>
</svg>