<?xml version="1.0" encoding="utf-8"?>
<svg width="111px" height="110px" viewBox="0 0 111 110" version="1.1" xmlns:xlink="http://www.w3.org/1999/xlink" xmlns="http://www.w3.org/2000/svg">
  <desc>Created with Lunacy</desc>
  <defs>
    <rect width="110.859833" height="109.087975" id="artboard_1" />
    <clipPath id="clip_1">
      <use xlink:href="#artboard_1" clip-rule="evenodd" />
    </clipPath>
  </defs>
  <g id="face/Solemn" clip-path="url(#clip_1)">
    <use xlink:href="#artboard_1" stroke="none" fill="#FFFFFF" />
    <path d="M57.1124 21.3457C56.1026 21.702 54.9298 22.5622 54.5888 23.5042C54.5137 23.7116 54.4716 23.9236 54.4681 24.1383C54.1394 23.49 54.0143 22.7266 54.0572 21.9711C54.1932 19.5711 56.5514 17.8293 58.5605 16.8115C59.2743 16.4497 60.0078 16.2094 60.7387 16.0829L63.3264 15.6352L60.8968 14.6616C58.6564 13.7638 56.5555 12.5287 54.6807 11.017C52.8897 9.57376 51.2342 7.70732 50.2624 5.64788C49.8236 4.7178 49.4793 3.80794 49.2377 2.82504L49.173 2.54893C49.0543 2.01941 48.9246 1.74935 48.7789 1.44969C48.6934 1.27387 48.6004 1.08453 48.5006 0.776696C48.4445 0.603848 48.4131 0.459136 48.4654 0.346391C48.5159 0.237305 48.6388 0.19049 48.7587 0.146467C49.5518 -0.144821 50.8292 0.0536354 51.3719 0.264128C52.6833 0.772941 53.8359 1.88224 54.9454 2.92114C55.4867 3.42809 56.0169 3.92344 56.5435 4.34713C59.9036 7.05082 64.0973 8.58914 68.1957 8.96429L68.442 8.98544C69.5259 9.07179 70.5309 9.48611 71.243 10.1773C71.8797 10.7953 72.2727 11.636 72.2727 12.6428C72.2727 13.6234 71.8182 14.5676 71.1119 15.2531C70.4374 15.9078 69.5251 16.3319 68.5347 16.2979C67.8389 16.2738 67.1483 16.2133 66.4625 16.1242L63.9116 15.7926L65.8592 17.4257C66.2457 17.7498 66.6092 18.1218 66.9361 18.5536C68.7108 20.899 69.4726 24.4745 69.4067 27.3449C69.3941 27.8927 69.2382 28.4577 68.9505 28.9446C68.6992 29.3697 68.3459 29.7367 67.8904 29.9657C67.3451 30.2404 66.8838 30.3868 66.2628 30.3986C65.5877 30.4114 65.0158 30.2041 64.5459 29.8569C63.9582 29.4226 63.5264 28.782 63.23 28.0833C62.8359 27.1542 62.8125 26.1728 62.7735 25.192C62.7466 24.5142 62.7175 23.8351 62.6011 23.1659C62.4352 22.3114 62.037 21.2225 61.5348 20.8788C60.7934 20.3708 58.8208 20.762 57.5957 21.1775L57.1124 21.3457ZM28.2083 8.03305C29.2315 7.98658 30.2137 7.54406 30.8806 6.67802C31.4232 5.97322 31.7114 5.01587 31.655 4.09679C31.607 3.31551 31.3057 2.55377 30.6547 2.02479C29.7743 1.30932 28.7809 0.798002 27.7346 0.637774C26.8327 0.499679 25.8948 0.629383 24.9679 1.10929C23.7982 1.71528 23.1066 2.62536 22.3537 3.58034C22.2618 3.6969 22.1692 3.81429 22.0753 3.93217L21.8547 4.20596C20.0141 6.46389 17.7037 8.52515 15.1876 10.0396C12.6214 11.5848 9.98738 12.663 7.08077 13.4437C5.58552 13.8454 4.08474 14.0942 2.54035 14.2304C2.21553 14.2593 1.88242 14.2739 1.54713 14.2882C1.03769 14.3101 0.515495 14.3179 0 14.4773C1.30897 15.4355 3.39851 15.7313 4.99253 15.9579L5.66185 16.0513C8.42128 16.4354 11.1263 16.2847 13.8666 15.7943C16.6281 15.3 19.3136 14.2644 21.7623 12.9367C23.1602 12.1793 24.4528 11.2766 25.6528 10.2476C26.1917 9.78582 26.7089 9.3005 27.2007 8.7921C27.3369 8.65136 27.4678 8.50636 27.6676 8.28552C27.7542 8.18982 27.8279 8.10842 27.8939 8.03474C27.9984 8.03839 28.1033 8.03781 28.2083 8.03305ZM26.0254 24.508C25.2338 23.6412 24.4629 22.8333 23.272 22.3732C21.8631 21.8281 20.156 21.7695 18.6905 22.1779C17.0289 22.641 15.7133 23.71 14.7387 25.0756C13.8824 26.2754 13.2926 27.7034 12.9564 29.1115C12.3287 28.4424 12.0351 27.6687 11.8934 26.8817C11.6601 25.5858 11.8255 24.2506 12.2805 22.9807C13.2935 20.1536 15.734 17.6402 18.5798 16.5584C21.8289 15.3232 25.8493 15.7356 28.834 17.4748C30.3568 18.3625 32.1119 19.9028 32.9959 21.4094C33.5998 22.439 33.6347 23.505 33.2508 24.4207C32.8283 25.4287 31.9165 26.2474 30.7524 26.6583C30.2009 26.8531 29.6333 26.8375 29.0948 26.6993C28.394 26.5194 27.7392 26.1353 27.2051 25.6879C26.7602 25.3156 26.3893 24.9064 26.0254 24.508ZM50.7655 39.8636C53.8817 35.6269 49.468 31.642 46.5713 29.933C45.8124 29.4044 46.4147 27.6531 48.0364 27.9238C62.7654 30.3799 55.1338 55.005 36.3284 41.4918C34.0895 39.7388 36.8008 35.8777 39.2139 37.3789C39.3363 37.47 39.4646 37.5663 39.5983 37.6667C42.3094 39.7011 47.27 43.4235 50.7655 39.8636ZM43.1559 57.0207C45.7077 56.269 48.491 56.1903 50.9244 57.3269C51.9364 57.7996 53.0623 58.6236 53.6612 59.3528C54.5527 60.4393 54.7985 61.3412 54.8399 62.3709C54.9017 63.3371 55.3335 64.2265 56.0101 64.8674C56.6552 65.4785 57.5247 65.8619 58.5053 65.8619C59.4662 65.8619 60.4966 65.3931 61.2304 64.6808C61.8595 64.0701 62.2835 63.2643 62.1801 62.3839C61.6885 58.1927 59.2481 54.7655 55.898 52.6963C52.5171 50.608 48.209 49.901 44.0341 51.1872C40.1136 52.3948 36.4873 54.8913 33.883 57.9717C31.7603 60.4828 29.2885 63.9547 28.8749 67.3736C30.1288 66.4662 31.2583 65.3471 32.3837 64.2389C33.2697 63.3664 34.1522 62.4987 35.081 61.73C37.461 59.761 40.1356 57.9112 43.1559 57.0207Z" transform="translate(18.95203 23.81684)" id="ðŸ–-Ink" fill="#000000" fill-rule="evenodd" stroke="none" />
  </g>
</svg>