<?xml version="1.0" encoding="utf-8"?>
<svg width="111px" height="110px" viewBox="0 0 111 110" version="1.1" xmlns:xlink="http://www.w3.org/1999/xlink" xmlns="http://www.w3.org/2000/svg">
  <desc>Created with Lunacy</desc>
  <defs>
    <rect width="110.859833" height="109.087975" id="artboard_1" />
    <clipPath id="clip_1">
      <use xlink:href="#artboard_1" clip-rule="evenodd" />
    </clipPath>
  </defs>
  <g id="face/With_MaskSmile" clip-path="url(#clip_1)">
    <use xlink:href="#artboard_1" stroke="none" fill="#FFFFFF" />
    <path d="M55.8632 0.176178L55.312 0.0666873C54.664 -0.0593058 54.012 -0.00600334 53.4394 0.220094C52.8777 0.441877 52.3885 0.8281 52.0467 1.38532C51.592 2.1273 51.5314 2.74998 51.7423 3.57245C51.9051 4.20797 52.2621 4.68609 52.7294 5.03142C53.2217 5.39523 53.8457 5.60751 54.4937 5.68132C57.4836 6.02219 60.4279 6.66055 63.2904 7.56674C64.6317 7.99146 65.8973 8.56678 67.1519 9.16383L68.2333 9.6809C69.2306 10.1543 70.2608 10.6106 71.5628 10.9418C71.6651 10.9678 71.7663 10.9923 71.8665 11.0155C72.2276 10.9054 72.2888 10.7721 72.3654 10.6755L72.3964 10.6378C72.4894 10.5245 72.6037 10.3512 72.4955 9.54262C69.7123 3.93961 62.1745 1.49269 56.2289 0.251436L55.8632 0.176178ZM16.7202 1.79849L17.4404 1.67615L17.8095 1.61543C19.9669 1.26922 22.5243 1.03766 24.0143 2.68125C24.8502 3.6031 25.1379 5.31649 24.0143 6.19887C22.5429 7.35477 20.9559 7.31658 19.2636 7.27586C18.6829 7.26189 18.0898 7.24761 17.4847 7.28119C15.533 7.38991 13.6572 7.7034 11.7772 8.22501C7.65272 9.36913 4.29202 11.4578 0.76944 13.7513C0.307204 14.0521 -0.164622 13.4784 0.0559472 13.0588C2.0894 9.19302 6.0301 6.01756 9.97733 4.0819C12.084 3.04873 14.3895 2.19166 16.7202 1.79849ZM20.0382 18.8822C19.4457 18.4675 18.7952 18.2434 18.115 18.2434C17.4348 18.2434 16.7842 18.4675 16.1917 18.8822C15.6086 19.2902 15.0807 19.8859 14.6411 20.6287C13.809 22.0345 13.2889 23.9754 13.2889 26.1216C13.2889 28.2678 13.809 30.2087 14.6411 31.6145C15.0807 32.3573 15.6086 32.9529 16.1917 33.361C16.7842 33.7757 17.4348 33.9998 18.115 33.9998C18.7952 33.9998 19.4457 33.7757 20.0382 33.361C20.6213 32.9529 21.1492 32.3573 21.5889 31.6145C22.4209 30.2087 22.941 28.2678 22.941 26.1216C22.941 23.9754 22.4209 22.0345 21.5889 20.6287C21.1492 19.8859 20.6213 19.2902 20.0382 18.8822ZM61.1678 18.2434C61.848 18.2434 62.4986 18.4675 63.0911 18.8822C63.6742 19.2902 64.2021 19.8859 64.6417 20.6287C65.4738 22.0345 65.9939 23.9754 65.9939 26.1216C65.9939 28.2678 65.4738 30.2087 64.6417 31.6145C64.2021 32.3573 63.6742 32.9529 63.0911 33.361C62.4986 33.7757 61.848 33.9998 61.1678 33.9998C60.4876 33.9998 59.8371 33.7757 59.2446 33.361C58.6615 32.9529 58.1336 32.3573 57.6939 31.6145C56.8619 30.2087 56.3418 28.2678 56.3418 26.1216C56.3418 23.9754 56.8619 22.0345 57.6939 20.6287C58.1336 19.8859 58.6615 19.2902 59.2446 18.8822C59.8371 18.4675 60.4876 18.2434 61.1678 18.2434Z" transform="translate(22.63283 19.36049)" id="ðŸ–-Ink" fill="#000000" fill-rule="evenodd" stroke="none" />
  </g>
</svg>
