<?xml version="1.0" encoding="utf-8"?>
<svg width="111px" height="110px" viewBox="0 0 111 110" version="1.1" xmlns:xlink="http://www.w3.org/1999/xlink" xmlns="http://www.w3.org/2000/svg">
  <desc>Created with Lunacy</desc>
  <defs>
    <rect width="110.859833" height="109.087975" id="artboard_1" />
    <clipPath id="clip_1">
      <use xlink:href="#artboard_1" clip-rule="evenodd" />
    </clipPath>
  </defs>
  <g id="face/Awe" clip-path="url(#clip_1)">
    <use xlink:href="#artboard_1" stroke="none" fill="#FFFFFF" />
    <path d="M21.1743 31.2744C31.3434 31.2744 39.587 24.2734 39.587 15.6372C39.587 7.001 31.3434 0 21.1743 0C11.0053 0 5.62565e-13 6.717 5.62565e-13 15.3532C5.62565e-13 19.0176 2.97439 25.421 5.46009 28.0867C8.83259 31.7035 15.3201 31.2744 21.1743 31.2744Z" transform="translate(15.26842 29.4128)" id="eye" fill="#FFFFFF" stroke="none" />
    <path d="M16.2091 28.2816C23.9936 28.2816 30.3042 21.9505 30.3042 14.1408C30.3042 6.33105 23.9936 0 16.2091 0C8.42463 0 4.30649e-13 6.07422 4.30649e-13 13.884C4.30649e-13 17.1977 2.27692 22.9883 4.17975 25.399C6.76143 28.6696 11.7277 28.2816 16.2091 28.2816Z" transform="translate(64.06218 29.4128)" id="eye" fill="#FFFFFF" stroke="none" />
    <path d="M24.814 0.122465L25.0631 0.0848516C26.9459 -0.179246 28.2261 0.124838 29.4502 1.68656C30.0337 2.43081 29.8538 3.55483 29.4502 4.31546C28.4824 6.14024 26.2563 6.32997 24.1855 6.50647C23.4672 6.56769 22.7677 6.62731 22.1457 6.753C19.7878 7.22919 17.4355 7.87739 15.2291 8.82084C12.9777 9.78364 10.8645 10.9225 8.80382 12.223C6.93992 13.3999 5.2494 15.1688 3.12005 15.8535C3.02415 15.8844 2.90868 15.801 2.9147 15.7023C3.06634 13.3519 5.08906 11.1943 6.65567 9.52041C8.46779 7.58475 10.6716 5.86615 12.9666 4.49976C15.335 3.09018 17.8951 1.92968 20.5458 1.12027C21.9417 0.693967 23.3698 0.355161 24.814 0.122465ZM65.2393 1.49362C61.762 0.594479 55.8687 -0.0507408 53.4981 3.31386C53.4149 3.43188 53.4973 3.61655 53.6377 3.64708C57.2079 4.42745 60.6307 5.1408 64.0087 6.60512C66.8897 7.85466 69.2308 9.55075 71.5949 11.4248L72.1208 11.8441L72.9427 12.5055C76.0222 14.9922 80.1194 11.1529 77.3809 8.19787C74.3236 4.89917 69.5992 2.62024 65.2393 1.49362ZM36.4279 17.5942C32.198 14.6049 26.8944 13.1111 21.6816 13.1543C20.5915 13.1636 19.5316 13.24 18.4993 13.3803C11.649 12.6837 4.77917 18.4874 2.06483 24.4384C-1.45047 32.1464 -1.15663 44.2049 8.33512 47.5465C10.3291 48.2481 12.4548 48.5598 14.5586 48.8231L16.0863 49.0101C18.9338 49.3487 21.8229 49.5952 24.691 49.5704C30.2086 49.5231 34.597 47.4705 37.955 43.2135C40.9467 39.4214 43.6442 34.6059 43.648 29.7081C43.6518 24.6778 40.4749 20.4547 36.4279 17.5942ZM81.386 37.3499C80.0287 41.3313 77.0684 44.3972 72.9446 45.7452C68.8578 47.0814 64.3124 46.5943 60.1348 45.8719C59.221 45.7139 58.2947 45.5394 57.3701 45.3359C58.1267 45.7908 58.7952 46.4312 59.4348 47.1082C60.3805 48.1093 61.2382 49.1642 61.4984 50.4172C61.7566 51.6604 61.3499 52.6063 60.608 53.3201C59.4669 54.4182 57.6262 55.0097 56.067 55.3366C52.5757 56.069 49.0783 55.955 45.604 55.2043C44.717 55.0126 44.1155 54.5509 43.7778 53.9488C43.3676 53.2173 43.334 52.3077 43.5694 51.4792C43.8046 50.6512 44.3129 49.8878 45.0505 49.4653C45.6577 49.1175 46.4172 49.0221 47.2792 49.3004C49.0094 49.8592 50.7271 50.2293 52.5545 50.2721C53.328 50.2895 54.1066 50.2673 54.8789 50.1984C55.3155 50.1595 55.7514 50.1055 56.1846 50.0381C55.9294 49.7083 55.6816 49.3724 55.4393 49.0329C55.1531 48.6319 54.8743 48.2253 54.6082 47.8123C53.8387 46.6161 53.1978 45.3864 52.6348 44.0885C52.4541 43.6727 52.2867 43.2551 52.1259 42.8361C52.1027 42.7757 52.0797 42.7153 52.0566 42.6547C52.007 42.6145 51.9577 42.5738 51.9089 42.5328C50.8075 41.608 49.8841 40.4688 49.231 39.0577C47.4627 35.2356 47.7506 30.4913 48.8236 26.5226C49.6834 23.3415 51.5815 20.3991 54.0892 18.4002C54.5271 17.701 54.8161 17.2768 55.1704 16.9196C56.6115 15.4644 58.6225 14.4829 60.585 13.8858C64.9682 12.5518 69.7419 13.5089 73.4574 16.0489C76.8881 18.3941 79.5737 21.9113 81.025 25.8233C82.3994 29.5279 82.6676 33.5914 81.386 37.3499ZM30.4848 18.825C23.9571 15.9813 16.0259 16.8328 9.69381 19.8675C7.18547 22.5236 5.35225 25.8711 4.61037 28.9442C3.81824 32.2246 3.93409 35.7582 5.12516 38.9378C6.57938 42.8192 10.1603 43.7805 14.0231 44.3769L15.5228 44.6055L16.152 44.6981C19.9476 45.2476 24.0972 45.675 27.7448 44.9872C31.8099 44.2199 34.3916 41.0325 36.4236 37.7645L36.5184 37.6112C38.6286 34.1871 40.3951 30.0227 38.6252 26.0993C37.1203 22.7645 33.8333 20.2838 30.4848 18.825ZM61.7996 19.1986C64.2185 18.3922 66.7737 18.6111 69.0139 19.8159C73.8775 22.4314 76.6402 28.1985 76.0759 33.4962C75.8373 35.7386 74.9167 38.0098 72.9649 39.3479C70.724 40.8842 67.7939 40.9458 65.12 40.7652L64.6004 40.7272L62.6453 40.5689C60.1085 40.3529 57.267 39.9806 55.3904 38.4294C53.333 36.7284 52.8768 33.6236 52.8284 31.0857L52.8246 30.7955L52.824 30.511C52.8303 28.3639 53.1414 26.1828 53.8951 24.166C54.5419 24.2442 55.2519 24.0089 55.6578 23.4206L55.7616 23.276C56.566 22.197 57.5675 21.7924 58.6399 20.9935L58.9875 20.7381C59.8595 20.1078 60.7588 19.5455 61.7996 19.1986ZM20.2526 20.3053C23.8473 18.5242 28.1655 18.9706 31.2105 21.203C30.9401 21.2543 30.6739 21.3199 30.4084 21.4491C29.7175 21.7853 29.2887 22.4584 29.1253 23.1747C28.9411 23.9845 29.3735 24.7511 30.197 25.0065C30.9136 25.2284 31.7633 25.3301 32.4288 24.9075C32.7775 24.6863 33.0211 24.3948 33.181 24.0277L33.2037 23.9737L33.2318 23.9341L33.2425 23.9156C33.2449 23.9085 33.2323 23.9219 33.2125 23.9521C33.2328 23.9063 33.2516 23.8605 33.2704 23.814C33.2984 23.7585 33.3253 23.7027 33.3471 23.645C33.3859 23.6126 33.4212 23.5765 33.4569 23.5403C34.01 24.3665 34.4442 25.2995 34.72 26.3375C36.49 33.0001 29.2323 39.9143 22.7483 40.6061C20.2979 40.8675 18.0634 40.3012 16.2091 39.185C16.226 39.163 16.2448 39.1433 16.2602 39.1202C17.0051 39.2501 17.8943 38.9266 18.1647 38.1202C18.8548 36.0631 18.1471 33.6569 15.8378 32.9848C14.3518 32.5522 12.8312 33.0303 11.769 34.0161C10.9657 32.108 10.6784 29.9598 11.0586 27.8082C11.5948 24.7727 13.4814 22.0373 16.4174 20.7744C17.8471 20.159 19.0792 20.0298 20.2526 20.3053ZM58.2169 24.2486L58.1075 24.416C56.6425 26.7101 56.2808 29.4522 57.0307 31.8652C57.0339 31.9098 57.0384 31.9542 57.0435 31.9986L57.0775 32.2643C58.0453 32.0238 59.0764 32.2126 59.7692 33.0358C60.0473 33.0365 60.322 33.0957 60.5437 33.2212L60.6185 33.2663C61.297 33.7007 61.4126 34.4925 61.1267 35.185L61.0965 35.2537L61.1017 35.244C61.1244 35.2022 61.0393 35.4403 61.0297 35.4662L60.9743 35.6074C60.9362 35.701 60.8961 35.7937 60.8544 35.8858C60.6887 36.2518 60.4643 36.5474 60.1915 36.8471C60.088 36.9611 59.9679 37.0471 59.8394 37.1133C61.4367 38.339 63.5196 38.9369 65.6026 38.7303C67.8524 38.5073 69.7255 37.4052 70.9407 35.7816C71.0677 35.6736 71.1962 35.5679 71.317 35.451C74.3103 32.5484 74.6628 27.3159 72.1115 24.0596C71.9561 23.8619 71.7931 23.6877 71.6251 23.5313C71.5537 23.783 71.4244 24.0276 71.2392 24.1944C70.8985 24.502 70.4835 24.7034 70.012 24.7116C69.6906 24.7179 69.3626 24.6349 69.0837 24.477C68.6771 24.2465 68.3768 23.8657 68.1662 23.4639C67.9721 23.0931 67.9168 22.7201 68.0116 22.3165C68.0146 22.3042 68.0187 22.2924 68.0232 22.2807L68.0515 22.2111C67.0119 21.5905 65.746 21.3239 64.5369 21.4832C64.2638 21.319 63.9608 21.1925 63.6516 21.1139C61.4511 20.5543 59.3277 22.5895 58.2169 24.2486ZM22.6809 56.9595C22.5838 56.9003 22.4565 56.9256 22.3759 56.9978C21.6643 57.6356 21.6551 58.5184 21.4008 59.3959C21.0494 60.6089 20.6444 61.8234 20.2067 63.0092C19.3535 65.3224 18.3719 67.7492 16.8053 69.7053L16.7417 69.7865C15.4093 71.5312 15.5833 73.9893 17.8732 74.9255C19.8242 75.7237 21.7852 74.6057 22.328 72.7985L22.3514 72.8387C23.3437 70.5478 24.165 68.1647 24.45 65.6973C24.7151 65.8329 24.9786 65.9665 25.2314 66.0983L25.6454 66.3124C27.1668 67.0916 28.7251 67.8041 30.3352 68.3918C34.1432 69.782 38.0758 70.7407 42.0909 71.3651C45.8049 71.9422 49.5496 72.2761 53.3089 71.9719C56.9868 71.6741 61.3337 70.9805 64.5199 69.0567C68.2316 66.8147 64.9994 61.7054 61.1427 63.4489C59.6022 64.1452 58.283 64.94 56.6266 65.4196C55.2253 65.825 53.7838 66.1288 52.3338 66.3109C48.957 66.7342 45.4724 66.6423 42.0859 66.3906C38.5967 66.1311 35.1087 65.6128 31.6847 64.9125L30.6603 64.7074C29.2936 64.4384 27.924 64.1834 26.5621 63.8909C25.9207 63.7531 25.2425 63.5558 24.5559 63.3823C24.5371 61.4038 24.3407 57.9782 22.6809 56.9595Z" transform="translate(13.81072 13.40325)" id="ðŸ–-Ink" fill="#000000" fill-rule="evenodd" stroke="none" />
  </g>
</svg>