<?xml version="1.0" encoding="utf-8"?>
<svg width="111px" height="110px" viewBox="0 0 111 110" version="1.1" xmlns:xlink="http://www.w3.org/1999/xlink" xmlns="http://www.w3.org/2000/svg">
  <desc>Created with Lunacy</desc>
  <defs>
    <rect width="110.859833" height="109.087975" id="artboard_1" />
    <clipPath id="clip_1">
      <use xlink:href="#artboard_1" clip-rule="evenodd" />
    </clipPath>
  </defs>
  <g id="face/Eyes-Closed" clip-path="url(#clip_1)">
    <use xlink:href="#artboard_1" stroke="none" fill="#FFFFFF" />
    <path d="M69.2379 5.16783C72.6603 5.08965 72.6649 -0.116047 69.2379 0.00197685C57.6762 0.400353 46.1012 0.719053 34.5483 1.32108C23.2345 1.91046 11.8693 2.36394 0.640974 3.915C-0.12277 3.86473 -0.292704 5.1105 0.62141 5.18496C10.6202 6.00193 20.6787 5.93201 30.711 5.86227C31.4245 5.85731 32.1379 5.85235 32.8511 5.84771L34.9296 5.83539C46.3651 5.77582 57.8059 5.42882 69.2379 5.16783ZM64.9116 12.2251L64.8838 12.1622C62.9712 7.9398 69.7939 6.12514 70.3723 9.91642L70.409 10.1722C70.9716 14.381 69.786 20.0407 64.4749 20.4603C58.513 20.9317 56.0304 14.4754 56.5628 9.7377C56.6583 8.88957 57.7186 8.77229 58.0462 9.54298L58.1159 9.71118C58.276 10.1073 58.4348 10.5642 58.6039 11.0508C59.4512 13.4889 60.5569 16.6704 63.3843 16.6665C65.6504 16.6632 65.5423 13.6942 64.9116 12.2251ZM14.6217 10.3662C14.4667 9.95518 13.848 8.44768 13.095 8.76973C10.9549 9.686 11.5376 13.6281 12.1137 15.3344L12.1631 15.4765C13.1256 18.1698 15.4683 20.4347 18.3787 21.0505C24.1012 22.2609 30.3139 15.3612 26.2984 10.3997C24.5208 8.20382 21.5644 10.307 21.2952 12.4113C21.2502 12.7615 21.2636 13.1031 21.2765 13.4354C21.3067 14.207 21.3348 14.9284 20.6269 15.5913C19.5594 16.5909 18.0848 15.8668 17.1646 15.0123C16.0652 13.9918 15.465 12.5939 14.9422 11.219L14.6217 10.3662ZM57.0159 34.7721C55.9806 35.8143 54.613 36.5261 53.0778 36.9691C49.2195 38.0826 44.2964 37.4895 41.1451 36.3548C40.4913 36.1195 39.8803 35.6397 39.5293 35.0398C39.2086 34.4918 39.1001 33.8473 39.3442 33.19C39.4137 33.0033 39.4982 32.82 39.5831 32.6395C39.8143 32.1483 40.2854 31.7663 40.8388 31.5478C41.4135 31.3209 42.067 31.2745 42.5911 31.4345C42.6615 31.456 42.7338 31.4781 42.8077 31.5007L42.8632 31.5177C44.8647 32.1302 48.1042 33.1214 50.7923 32.9272C52.4203 32.8095 53.8523 32.2513 54.5929 30.8053C54.9832 30.0429 54.8751 29.2888 54.5289 28.5984C54.007 27.5575 52.9615 26.6517 52.0807 26.0276C50.839 25.1476 49.5147 24.7962 48.145 24.4253C47.6288 24.2855 47.1061 24.1438 46.5784 23.9743C46.4046 23.9186 46.2521 23.8091 46.138 23.6668C46.0253 23.5263 45.9513 23.3547 45.9281 23.1825C45.9041 23.0042 45.9338 22.8264 46.0189 22.6732C46.0979 22.531 46.2242 22.4061 46.413 22.3241C49.0928 21.1588 52.5589 21.9288 55.1749 23.7621C56.4824 24.6784 57.573 25.8554 58.2451 27.1706C58.8689 28.3912 59.1339 29.7304 58.8895 31.0961C58.6159 32.625 57.9491 33.8327 57.0159 34.7721ZM53.678 53.9129L53.4127 53.9725C51.4705 54.3995 49.5195 54.8173 47.6046 55.3478C47.5068 55.3749 47.3214 55.4178 47.0732 55.4752C45.3188 55.8813 40.4288 57.0132 41.1943 58.4082C41.6954 59.3217 42.6533 59.5701 43.6258 59.7611L44.5775 59.9422C46.1871 60.2374 47.8258 60.4623 49.454 60.603C51.2005 60.7538 52.9831 60.7791 54.7365 60.7557L54.8686 60.754C54.9981 60.7526 55.1273 60.7516 55.2559 60.7507C57.2238 60.7358 59.0733 60.7218 60.487 59.1409C61.9523 57.5027 61.6911 55.257 59.8103 54.0428C58.0174 52.8851 56.1705 53.3232 54.2587 53.7768C54.0658 53.8225 53.8722 53.8685 53.678 53.9129Z" transform="translate(16.49473 30.15744)" id="ðŸ–-Ink" fill="#000000" fill-rule="evenodd" stroke="none" />
  </g>
</svg>