<?xml version="1.0" encoding="utf-8"?>
<svg width="111px" height="110px" viewBox="0 0 111 110" version="1.1" xmlns:xlink="http://www.w3.org/1999/xlink" xmlns="http://www.w3.org/2000/svg">
  <desc>Created with Lunacy</desc>
  <defs>
    <rect width="110.859833" height="109.087975" id="artboard_1" />
    <clipPath id="clip_1">
      <use xlink:href="#artboard_1" clip-rule="evenodd" />
    </clipPath>
  </defs>
  <g id="face/Cute" clip-path="url(#clip_1)">
    <use xlink:href="#artboard_1" stroke="none" fill="#FFFFFF" />
    <path d="M69.1788 6.71804C66.3555 2.72348 61.4984 -0.00148804 56.4506 0C54.5576 0.000373534 51.6664 0.198072 50.2007 1.50973C49.1646 2.4368 49.0108 3.62969 50.2651 4.29837C50.5432 4.44655 50.8444 4.1487 50.7277 3.90148C50.9702 3.76149 51.2333 3.66953 51.5199 3.63304C52.0548 3.54309 52.7409 3.63495 53.3323 3.73114L53.7543 3.80133C55.0601 4.0169 56.395 4.44171 57.6022 4.96555C60.0764 6.03856 62.1636 7.6868 63.7827 9.77957L63.8431 9.85573C64.8612 11.1126 66.513 11.7442 68.0579 10.8671C69.4351 10.0856 70.1382 8.07512 69.1788 6.71804ZM12.9375 1.91688L13.5122 1.75411C13.9344 1.63541 14.3579 1.50452 14.7813 1.37364C17.3526 0.578794 19.9218 -0.215415 22.1984 1.72693C23.2395 2.61528 23.4539 4.46121 22.709 5.56921C21.2957 7.67169 19.314 7.75578 17.1078 7.84939C16.6647 7.86819 16.2127 7.88737 15.7543 7.92336C13.6676 8.08717 11.6119 8.68213 9.66395 9.42564C8.07202 10.0336 6.59555 10.8896 5.20155 11.8442C3.83211 12.7828 2.89651 14.2501 1.49178 15.0949C0.97699 15.4046 0.382413 15.0859 0.197519 14.5837C-0.457667 12.8022 0.649397 10.5828 1.58614 9.06487C2.72965 7.21298 4.46658 5.69841 6.33432 4.55243C8.37955 3.29733 10.6411 2.57265 12.9375 1.91688ZM56.871 15.6413C57.748 14.7897 58.9803 14.9156 59.8954 15.5858L60.0169 15.6781C60.8796 16.0501 61.5935 16.8628 62.0622 17.616C62.549 18.3983 62.8724 19.195 62.885 20.0562C65.0079 20.0629 67.0413 20.6809 68.5999 22.3444C69.1032 22.8813 69.4469 23.7093 69.1699 24.4372L69.005 24.8702C68.4816 26.2449 66.1287 27.0363 65.329 25.4196L65.2921 25.3408C64.4425 23.4212 61.1807 23.6226 59.4472 23.8188C58.2389 23.9562 57.0455 24.2477 55.8786 24.5742C55.4675 24.6893 55.0601 24.8141 54.653 24.9417L54.246 25.0698C54.0289 25.1379 52.8981 25.734 53.6016 25.5929C53.7907 25.5549 53.933 25.8222 53.7401 25.9119C52.9015 26.301 52.007 25.5262 52.063 24.652C52.16 23.1345 54.6428 22.3025 55.8374 21.7793L55.9089 21.7476C56.367 21.5421 56.8468 21.3451 57.3421 21.1623C57.0636 20.7602 56.8334 20.3135 56.642 19.8339C56.4609 19.3812 56.3401 18.9411 56.2737 18.4597C56.2085 18.2244 56.2085 17.9891 56.2737 17.7534L56.2837 17.686C56.25 17.5304 56.2338 17.3696 56.2361 17.2076L56.2292 17.1447L56.2361 17.1447C56.2595 16.5777 56.4916 16.0095 56.871 15.6413ZM17.9015 15.6295C17.308 15.3845 16.6321 15.3152 15.9624 15.4943C14.9554 15.7639 14.1691 16.586 13.8679 17.5357L13.863 17.5324L13.8541 17.5886C13.7997 17.7729 13.7621 17.9609 13.7456 18.1512L13.5753 18.5547C13.4937 18.7509 13.4163 18.9477 13.3539 19.1501C12.9511 20.1267 13.1334 21.3248 13.7226 22.2343C9.67828 23.4961 5.57302 25.568 2.36652 28.1247C1.68794 28.666 2.46664 29.5916 3.15252 29.4308L3.15175 29.4334L3.69663 29.2991C7.69907 28.2853 11.4732 26.6695 15.5803 25.9407C17.5697 25.5874 19.6787 25.4627 21.6941 25.6805C22.5309 25.7708 23.3231 26.0026 24.1062 26.2318C25.3184 26.5865 26.5086 26.9349 27.8083 26.7419C29.1981 26.5357 29.9081 24.6078 29.1516 23.5371C27.8047 21.6316 25.3103 21.2557 23.0383 21.0507L22.632 21.0154C22.2116 20.98 21.7904 20.9662 21.3692 20.9621C21.4175 20.4372 21.3826 19.8955 21.2392 19.4185C21.1225 19.0306 20.7984 18.6244 20.7251 18.2379L20.8839 18.6303L20.8248 18.4758C20.787 18.3722 20.7528 18.2676 20.7221 18.1616C20.3331 16.9374 19.2264 15.8652 17.9015 15.6295ZM50.0315 39.813C51.7872 35.5645 46.2289 32.812 42.8597 31.8015C41.9521 31.4657 42.0047 29.8257 43.6799 29.7888C58.8937 29.4522 58.977 52.3715 36.3604 43.6873C33.6235 42.5268 35.0972 38.6767 37.9278 39.5866C38.076 39.6459 38.2315 39.7087 38.3937 39.7743C41.6808 41.102 47.6952 43.5314 50.0315 39.813ZM47.3874 54.4833C48.7035 52.2293 52.6308 52.5957 53.2311 55.2246C54.449 60.5539 47.9014 65.4751 42.9284 65.598C37.9866 65.7197 32.4416 61.6373 33.1571 56.4808C33.3339 55.2052 35.0892 55.3601 35.6876 56.1598L35.92 56.4666C37.5453 58.5859 39.6899 60.7794 42.7063 60.2627C43.9565 60.049 45.0919 59.291 45.8476 58.3152C46.7591 57.1375 46.6589 55.7313 47.3874 54.4833Z" transform="translate(20.71421 21.96664)" id="ðŸ–-Ink" fill="#000000" fill-rule="evenodd" stroke="none" />
  </g>
</svg>