<?xml version="1.0" encoding="utf-8"?>
<svg width="111px" height="110px" viewBox="0 0 111 110" version="1.1" xmlns:xlink="http://www.w3.org/1999/xlink" xmlns="http://www.w3.org/2000/svg">
  <desc>Created with Lunacy</desc>
  <defs>
    <rect width="110.859833" height="109.087975" id="artboard_1" />
    <clipPath id="clip_1">
      <use xlink:href="#artboard_1" clip-rule="evenodd" />
    </clipPath>
  </defs>
  <g id="face/Angry-with-Fang" clip-path="url(#clip_1)">
    <use xlink:href="#artboard_1" stroke="none" fill="#FFFFFF" />
    <path d="M73.1364 0.422578C72.714 -0.148552 72.0044 -0.145946 71.6914 0.462043C71.2878 0.495179 70.7412 0.782978 70.3614 0.892438C69.5114 1.13817 68.6851 1.40549 67.85 1.69552C66.1618 2.28117 64.4709 2.87389 62.7719 3.42715C61.0492 3.98823 59.3015 4.49048 57.5416 4.92758C55.7682 5.36877 53.9611 5.5795 52.3239 6.41423C50.0975 7.54978 49.6974 10.5465 51.1516 12.375C52.1973 13.6904 54.2162 14.3125 55.8603 13.7816C55.7862 14.2809 55.7375 14.7805 55.6781 15.25C55.5112 16.5687 56.9708 17.7002 58.2037 17.7013C60.5413 17.7035 62.3438 16.0374 63.0213 13.9521C63.3466 12.9521 63.3397 11.77 62.9787 10.7804C62.9085 10.5886 62.8226 10.4006 62.7282 10.2163C63.238 9.93744 63.7459 9.65448 64.2461 9.35774C66.6305 7.94258 69.0357 6.37737 71.0078 4.43538L71.0954 4.35021C71.1606 4.28754 71.2325 4.2195 71.3094 4.14672C72.2682 3.23967 74.0054 1.59632 73.1364 0.422578ZM0.154297 6.68956C4.97421 5.97583 9.9115 5.89392 14.7817 6.12997C17.3138 6.25246 19.8429 6.4349 22.3662 6.67765C23.6834 6.8046 24.9996 6.94683 26.313 7.10655C26.6112 7.14285 26.9608 7.2201 27.3277 7.30119C28.1199 7.47629 28.9931 7.66928 29.605 7.50642C32.3409 6.77929 34.9382 9.29203 34.1837 11.9507C33.4353 14.5889 30.228 15.2848 28.165 13.7002C27.1868 13.3655 26.2029 13.0483 25.2132 12.7519C25.1377 13.0546 25.0268 13.354 24.8703 13.6433C24.6946 13.9672 24.5254 14.2933 24.3651 14.6243C24.3947 14.579 24.2043 15.0255 24.1446 15.1655C24.1346 15.1889 24.1283 15.2037 24.1273 15.2062L23.9153 15.7435C23.5461 16.6699 23.1322 17.5484 22.1291 18.0284C20.7501 18.6881 18.5866 18.3244 18.0292 16.7502C17.1586 15.0947 17.7348 12.7818 18.2338 11.0669L18.2724 10.9351C12.2572 9.5467 6.14226 8.50571 0.154297 7.09352C-0.041338 7.04735 -0.0612851 6.72158 0.154297 6.68956ZM50.9238 31.6616C54.04 27.425 49.6264 23.44 46.7297 21.7311C45.9707 21.2024 46.5731 19.4512 48.1948 19.7218C62.9238 22.178 55.2921 46.8031 36.4867 33.2898C34.2478 31.5369 36.9591 27.6757 39.3722 29.177C39.4946 29.2681 39.6229 29.3644 39.7567 29.4648C42.4678 31.4992 47.4283 35.2216 50.9238 31.6616ZM56.5985 37.1995C57.0387 36.6414 57.9681 38.4005 58.4945 39.3968C58.6468 39.6851 58.7654 39.9095 58.8286 39.9954L58.8421 40.0127C60.0712 41.4562 61.0747 43.6666 61.2166 45.52C61.2208 45.5755 61.2208 45.6291 61.2208 45.6827C63.191 45.4202 65.1615 45.1529 67.1313 44.8595C67.8932 44.3037 68.9592 44.476 69.9907 44.982C72.2911 46.109 71.1714 49.6896 68.6929 49.6322C62.3853 49.4864 55.9508 50.2177 49.6747 50.931C49.283 50.9755 48.8919 51.02 48.5015 51.0641C45.0829 51.451 41.6715 51.8613 38.2713 52.3859C35.0947 52.8755 31.8468 53.5672 28.6319 53.702C28.4566 53.7091 28.3833 53.4555 28.5413 53.3766C31.3757 51.9637 34.6133 51.1081 37.6737 50.2804C40.9853 49.385 44.3214 48.5443 47.681 47.8347C50.6957 47.1977 53.7261 46.7211 56.7634 46.2918C56.74 46.2341 56.7174 46.1753 56.6982 46.1135C56.313 44.859 56.323 43.4198 56.2407 42.098L56.1931 41.3963C56.1182 40.1873 56.0434 37.9042 56.5985 37.1995Z" transform="translate(18.79746 32.0188)" id="ðŸ–-Ink" fill="#000000" fill-rule="evenodd" stroke="none" />
  </g>
</svg>