<?xml version="1.0" encoding="utf-8"?>
<svg width="111px" height="110px" viewBox="0 0 111 110" version="1.1" xmlns:xlink="http://www.w3.org/1999/xlink" xmlns="http://www.w3.org/2000/svg">
  <desc>Created with Lunacy</desc>
  <defs>
    <rect width="110.859833" height="109.087975" id="artboard_1" />
    <clipPath id="clip_1">
      <use xlink:href="#artboard_1" clip-rule="evenodd" />
    </clipPath>
  </defs>
  <g id="face/Concerned-Fear" clip-path="url(#clip_1)">
    <use xlink:href="#artboard_1" stroke="none" fill="#FFFFFF" />
    <path d="M31.5373 1.74961C30.1184 -0.603416 26.8851 -0.483531 25.287 1.51356C21.7341 3.90754 17.8091 5.6522 13.6667 6.87302C11.5699 7.49069 9.43443 7.91215 7.28129 8.29302C5.01768 8.69401 2.55268 8.69252 0.351595 9.30348C-0.0312359 9.40959 -0.147082 9.97514 0.235365 10.165C4.13974 12.0994 9.59265 11.8211 13.9133 11.3109L14.5858 11.2287C19.5503 10.6029 24.2056 9.0935 28.7509 7.12135C31.2416 6.61836 33.0031 4.18082 31.5373 1.74961ZM47.5389 0.527813C47.5262 0.295116 47.7786 0.138372 47.9942 0.190869C49.7457 0.618657 51.3311 1.85474 52.9261 2.6567C54.6669 3.53164 56.4499 4.23867 58.3402 4.75693C60.1823 5.26178 62.0435 5.51347 63.9584 5.49783C64.9468 5.48984 65.9251 5.31391 66.8986 5.13884C67.9658 4.94693 69.0272 4.75606 70.0898 4.78857C73.1448 4.88202 74.741 9.19342 71.7324 10.6752C67.3517 12.832 60.8547 11.265 56.5937 9.47191C53.164 8.02845 47.7621 4.61768 47.5389 0.527813ZM12.0995 14.061C17.0334 10.5255 24.4138 13.2467 25.6298 18.7782C26.4749 19.2097 26.9348 19.8959 27.0349 20.9004L27.0598 21.1517C27.1791 22.345 26.0851 23.4746 24.9915 23.7892C23.7605 24.1429 22.7862 23.9601 21.6434 23.4526C20.548 22.9657 20.1669 21.5854 20.3658 20.5351L20.3837 20.4484C20.6764 19.1449 19.5248 17.882 18.366 17.3656C17.0583 16.783 15.591 17.1478 14.454 17.92C13.1916 18.7767 12.1417 20.2421 11.7865 21.7024L11.7512 21.854C11.471 23.1145 11.2605 25.4795 12.5207 26.2036C12.744 26.3313 12.5848 26.6247 12.3542 26.586C9.61611 26.1314 7.98543 24.5327 7.9688 21.6729C7.95129 18.6445 9.62723 15.8325 12.0995 14.061ZM66.7242 21.1784C68.6222 15.9153 62.4601 11.3586 57.5328 13.0548C55.148 13.8754 53.2296 15.9917 52.8253 18.4247C52.4258 20.8248 53.398 22.3037 54.5826 24.1058C54.7008 24.2856 54.8211 24.4686 54.9424 24.6561L55.1065 24.9119C55.2776 25.1811 55.6884 24.9447 55.5415 24.6655C54.3443 22.3921 55.7222 18.4955 58.2773 17.6187C60.0012 17.0274 61.4075 17.8774 61.1217 19.6794L61.1065 19.785C60.6575 23.2486 65.4778 24.6339 66.7242 21.1784ZM49.0043 39.48C52.1204 35.2433 47.7068 31.2584 44.8101 29.5495C44.0512 29.0208 44.6535 27.2695 46.2752 27.5402C61.0042 29.9964 53.3725 54.6215 34.5671 41.1082C32.3283 39.3553 35.0395 35.4941 37.4526 36.9954C37.575 37.0865 37.7033 37.1828 37.8371 37.2831C40.5482 39.3176 45.5087 43.0399 49.0043 39.48ZM52.6711 55.6241C49.7086 53.9346 47.7802 53.216 43.2265 53.216C38.6729 53.216 34.0041 53.7827 29.9583 55.9808C25.4272 58.4414 18.3364 65.1051 23.4425 70.2449C25.4186 72.234 28.3555 72.4791 31.4328 72.2807C34.5101 72.0823 54.1273 70.5632 55.8297 69.9143C58.8735 68.7549 60.2487 65.7932 59.5498 62.7536C58.8005 59.4914 55.6336 57.3137 52.6711 55.6241ZM42.175 56.6823C38.7498 56.6823 33.1384 59.1139 33.1384 60.2978C33.1384 61.4817 49.493 60.3064 49.8437 59.2936C50.1944 58.2808 45.6002 56.6823 42.175 56.6823Z" transform="translate(20.71421 24.20041)" id="ðŸ–-Ink" fill="#000000" fill-rule="evenodd" stroke="none" />
    <path d="M0 6.1453C0 6.1453 3.89564 3.52692e-16 10.3043 0C16.7129 0 24.1335 3.23535 23.6148 4.77396C23.3377 5.59586 17.378 7.91789 7.43715 8.00962C4.97173 8.03237 0 6.1453 0 6.1453Z" transform="translate(51.11053 79.38358)" id="Path-4" fill="none" stroke="#22252B" stroke-width="1.5" />
  </g>
</svg>