<?xml version="1.0" encoding="utf-8"?>
<svg width="111px" height="110px" viewBox="0 0 111 110" version="1.1" xmlns:xlink="http://www.w3.org/1999/xlink" xmlns="http://www.w3.org/2000/svg">
  <desc>Created with Lunacy</desc>
  <defs>
    <rect width="110.859833" height="109.087975" id="artboard_1" />
    <clipPath id="clip_1">
      <use xlink:href="#artboard_1" clip-rule="evenodd" />
    </clipPath>
  </defs>
  <g id="face/Suspicious" clip-path="url(#clip_1)">
    <use xlink:href="#artboard_1" stroke="none" fill="#FFFFFF" />
    <path d="M58.4093 0.89869C55.1172 -0.363082 51.2306 -0.32585 48.0341 1.19878C45.0524 2.62176 42.7612 5.54703 42.0473 8.68117C41.5559 10.8369 41.6226 15.2812 44.5042 15.9283C44.5499 15.9387 44.6128 15.9316 44.6442 15.8925C45.6105 14.6899 45.7291 12.9851 46.3582 11.6046C47.0962 9.98352 48.176 8.37624 49.7492 7.42163C52.3431 5.84823 56.4694 6.39106 58.3096 8.86546C58.5984 12.1988 64.2975 12.7964 65.0912 9.2698C65.9586 5.41688 61.9523 2.32361 58.6275 0.984435L58.4093 0.89869ZM63.0911 25.2116C62.4986 24.797 61.848 24.5729 61.1678 24.5729C60.4877 24.5729 59.8371 24.797 59.2446 25.2116C58.6615 25.6197 58.1336 26.2153 57.6939 26.9582C56.8619 28.3639 56.3418 30.3049 56.3418 32.451C56.3418 34.5972 56.8619 36.5382 57.6939 37.9439C58.1336 38.6868 58.6615 39.2824 59.2446 39.6905C59.8371 40.1051 60.4877 40.3292 61.1678 40.3292C61.848 40.3292 62.4986 40.1051 63.0911 39.6905C63.6742 39.2824 64.2021 38.6868 64.6418 37.9439C65.4738 36.5382 65.9939 34.5972 65.9939 32.451C65.9939 30.3049 65.4738 28.3639 64.6418 26.9582C64.2021 26.2153 63.6742 25.6197 63.0911 25.2116ZM29.6701 26.7619L29.9261 26.7148C31.4202 26.451 32.1751 26.5398 33.4761 27.5281C34.4539 28.2709 34.1739 29.7337 33.4761 30.5148C32.4476 31.6668 31.4389 31.6712 30.144 31.6768C29.9089 31.6778 29.6643 31.6789 29.4084 31.6869L29.2915 31.691C27.904 31.7457 26.5154 31.7841 25.1267 31.8045C24.747 31.8105 24.3668 31.809 23.9871 31.8112C24.0273 35.222 22.0012 37.8189 19.3329 39.7933C17.6082 41.0699 15.4267 39.5971 14.8114 38.008C14.3024 36.693 14.193 35.0761 14.4569 33.6363C14.5547 33.1056 14.7585 32.5296 15.0701 32.0383L15.1578 31.9066L15.1436 31.7182C15.1416 31.6912 15.1419 31.6647 15.1422 31.6381C15.1425 31.6188 15.1427 31.5996 15.142 31.58C12.665 31.4339 10.2022 31.1928 7.74025 30.8899L6.91962 30.7866C4.81827 30.5167 1.73222 30.43 0.0317329 29.1034C-0.0219709 29.061 -0.00279095 28.9683 0.0539816 28.9388C0.988793 28.4502 1.93724 28.4778 2.98272 28.4328L3.13274 28.4258C4.26973 28.3688 5.40412 28.3213 6.54046 28.2835L7.67761 28.2489C10.5861 28.1681 13.4972 28.0311 16.4029 27.8811C16.9081 27.855 17.4133 27.8241 17.9193 27.794C18.4483 27.5788 19.0106 27.45 19.5661 27.4261C20.0264 27.406 20.4691 27.4678 20.8853 27.5963C21.9466 27.5167 23.0073 27.43 24.0671 27.3368L25.1267 27.2415C26.622 27.1033 28.194 27.043 29.6701 26.7619ZM46.3437 43.6975C49.2404 45.4064 53.6541 49.3913 50.5379 53.628C47.0423 57.188 42.0818 53.4656 39.3707 51.4311C39.2369 51.3308 39.1086 51.2345 38.9862 51.1434C36.5731 49.6421 33.8618 53.5033 36.1007 55.2562C54.9062 68.7695 62.5378 44.1444 47.8088 41.6882C46.1871 41.4176 45.5848 43.1688 46.3437 43.6975ZM37.2409 76.8926C37.2397 76.8699 37.2041 76.8699 37.2052 76.8926C37.2754 78.5025 37.7453 80.0089 38.6065 81.3861C38.6184 81.4054 38.6495 81.3879 38.6376 81.3682C37.7768 79.9921 37.3111 78.501 37.2409 76.8926ZM40.6157 83.3729C41.4582 83.2591 42.3192 83.0438 43.1846 82.8274C45.2978 82.2989 47.4379 81.7637 49.4028 82.6827C50.6974 83.288 51.312 85.3585 50.4366 86.5093C49.0997 88.267 47.7196 88.5578 45.5495 88.7268C43.9227 88.8534 42.287 88.8627 40.6644 88.6806L40.2517 88.6316C37.3564 88.2689 34.3471 87.4846 32.104 85.596C31.6453 85.2095 31.8804 84.3748 32.4692 84.2542C35.1329 83.7102 37.9194 83.7374 40.6157 83.3729Z" transform="translate(19.17875 10.0524)" id="ðŸ–-Ink" fill="#000000" fill-rule="evenodd" stroke="none" />
  </g>
</svg>