<?xml version="1.0" encoding="utf-8"?>
<svg width="111px" height="110px" viewBox="0 0 111 110" version="1.1" xmlns:xlink="http://www.w3.org/1999/xlink" xmlns="http://www.w3.org/2000/svg">
  <desc>Created with Lunacy</desc>
  <defs>
    <rect width="110.859833" height="109.087975" id="artboard_1" />
    <clipPath id="clip_1">
      <use xlink:href="#artboard_1" clip-rule="evenodd" />
    </clipPath>
  </defs>
  <g id="face/Eating-Happy" clip-path="url(#clip_1)">
    <use xlink:href="#artboard_1" stroke="none" fill="#FFFFFF" />
    <path d="M60.7328 0.258348C58.5486 -0.109498 56.1634 -0.121412 54.0133 0.464238C52.322 0.924418 49.6633 1.97099 48.9326 3.64752C48.7853 3.98595 48.7876 4.50757 49.2126 4.6833C49.7865 4.86759 50.7877 4.9644 50.6833 4.75664C51.1756 4.70557 51.6727 4.61226 52.1722 4.51848C52.9581 4.37096 53.7501 4.22229 54.5392 4.23503C56.2156 4.26221 57.7803 4.54703 59.3423 5.15502C60.7485 5.70232 62.0666 6.48344 63.1886 7.47416C64.5485 8.6745 65.3042 10.4772 66.9103 11.3771C68.8804 12.4807 71.1625 11.0566 71.2664 8.95113C71.3909 6.42977 69.0686 4.35892 67.1226 2.93562L66.9156 2.78561C65.1331 1.50448 62.9163 0.626194 60.7328 0.258348ZM4.31835 5.01707C7.7972 2.02814 14.1185 -0.858411 18.8095 0.612601C21.5066 1.45813 22.6823 5.67607 19.6715 7.01305C16.185 8.56113 12.1652 7.93117 8.61657 9.53585C7.12629 10.2101 5.72462 11.0527 4.68699 12.2884C3.86954 13.2623 3.0379 14.5438 1.85565 15.1053C1.54494 15.2531 1.12413 15.2568 0.875175 14.9828C-1.71641 12.1376 2.05551 6.96092 4.31835 5.01707ZM70.3333 23.6235C71.761 18.0679 65.4136 12.6112 59.9907 13.045C57.2426 13.265 54.7941 14.8004 53.2904 17.0157C52.2397 18.5638 51.2451 21.651 52.9022 23.1339C53.1362 23.3432 53.4534 23.3305 53.6905 23.1339C54.6533 22.3338 55.2092 21.011 56.1386 20.107C57.1678 19.1059 58.5223 18.3936 59.9907 18.2976C61.3229 18.2105 62.5623 18.7779 63.4346 19.7548C64.4915 20.938 64.4516 22.1987 64.8501 23.6235C65.5744 26.213 69.6485 26.2893 70.3333 23.6235ZM14.6438 14.8704C17.4747 14.3831 20.3747 15.0663 22.7174 16.6739L22.8949 16.7979C25.1518 18.3999 27.677 21.2129 26.3819 23.9743C25.8621 25.083 24.3055 25.2569 23.3177 24.7543C21.6732 23.9173 21.3752 21.858 19.9079 20.7184C18.7046 19.7842 17.0842 19.2176 15.5345 19.3542C11.8938 19.6751 9.65433 23.1604 8.52348 26.1638C8.37886 26.5481 7.79771 26.6974 7.57062 26.2848C4.90423 21.4477 9.62402 15.735 14.6438 14.8704ZM49.7715 40.597C52.8877 36.3604 48.474 32.3755 45.5774 30.6665C44.8184 30.1378 45.4207 28.3866 47.0425 28.6572C61.7714 31.1134 54.1398 55.7385 35.3344 42.2253C33.0955 40.4723 35.8068 36.6112 38.2199 38.1124C38.3423 38.2035 38.4706 38.2998 38.6044 38.4002C41.3155 40.4346 46.276 44.157 49.7715 40.597ZM28.4449 49.999C30.5908 46.5729 35.1648 54.9656 35.6507 56.4087C36.0812 57.6871 36.3653 58.9966 36.5097 60.3213C38.1733 60.6832 39.9009 60.6839 41.6055 60.3667C44.1391 59.8949 45.6878 58.573 47.8897 57.4379C49.4106 56.6535 51.3274 57.5733 52.1183 58.8742C53.0486 60.4053 52.4559 61.9945 51.2323 63.136C48.912 65.3006 44.3465 65.7978 41.3176 65.223C39.5822 64.8938 37.9917 64.2621 36.5872 63.3442C36.5779 63.5155 36.5717 63.6868 36.5577 63.8579L36.5309 64.1546C36.2982 66.5552 35.6184 69.5739 33.6972 71.136C30.5462 73.6984 26.6575 68.7705 29.7192 66.211L29.8141 66.1341C31.7172 64.6417 32.1324 60.6374 32.0299 58.4319C31.9627 56.9924 31.6925 55.5345 31.2243 54.1635L31.128 53.8905C30.987 53.5032 29.4501 49.8294 28.8947 50.2973L28.8682 50.3237C28.6392 50.5891 28.2691 50.2799 28.4449 49.999Z" transform="translate(19.94788 23.08335)" id="ðŸ–-Ink" fill="#000000" fill-rule="evenodd" stroke="none" />
  </g>
</svg>