<?xml version="1.0" encoding="utf-8"?>
<svg width="111px" height="110px" viewBox="0 0 111 110" version="1.1" xmlns:xlink="http://www.w3.org/1999/xlink" xmlns="http://www.w3.org/2000/svg">
  <desc>Created with Lunacy</desc>
  <defs>
    <rect width="110.859833" height="109.087975" id="artboard_1" />
    <clipPath id="clip_1">
      <use xlink:href="#artboard_1" clip-rule="evenodd" />
    </clipPath>
  </defs>
  <g id="face/Very-Angry" clip-path="url(#clip_1)">
    <use xlink:href="#artboard_1" stroke="none" fill="#FFFFFF" />
    <path d="M65.9835 1.81506C66.5624 1.24181 67.1435 0.669757 67.649 0C66.4462 0.535406 65.2224 1.02661 63.9986 1.51766C62.8369 1.98379 61.6752 2.44984 60.5317 2.95471C59.2127 3.53641 57.8893 4.10799 56.561 4.66875C56.2883 4.78401 55.9825 4.93212 55.6582 5.08894C55.2029 5.30917 54.7124 5.54597 53.9561 5.74677C53.3952 5.56109 52.7699 5.5776 52.1803 5.73153C51.5377 5.89926 50.9345 6.23112 50.4964 6.66251L49.9077 7.24461C49.2835 7.89571 48.9917 8.58692 48.9582 9.25812C48.9198 10.0271 49.2171 10.7627 49.7031 11.3699C50.255 12.0596 51.0521 12.5872 51.9076 12.8126C52.6638 13.0118 53.468 12.9734 54.1797 12.5832C54.4084 12.4577 54.6099 12.3056 54.7853 12.1327C54.7659 12.3929 54.7545 12.6524 54.7519 12.911C54.7366 14.4375 55.0265 16.0039 55.4773 17.5456C55.7827 18.5891 56.4716 19.3847 57.3503 19.8688C58.2693 20.3753 59.3937 20.542 60.5042 20.3029C60.7859 20.2422 61.2015 20.0673 61.4451 19.9165C62.4142 19.3174 63.0181 18.4946 63.2671 17.5728C63.5315 16.5942 63.3977 15.5098 62.9002 14.471L62.7768 14.2051C62.3947 13.3563 62.1099 12.4824 61.8265 11.6106C61.4129 10.3382 61.0043 9.06946 60.2687 7.90053C60.2168 7.8181 60.1547 7.74025 60.089 7.66489L59.8439 7.38409L60.1303 7.14297C60.3123 6.98982 60.4945 6.837 60.6767 6.68419C61.1675 6.27247 61.6583 5.86084 62.1437 5.44307C63.4829 4.29134 64.7329 3.05324 65.9835 1.81506ZM21.5776 22.8765C20.7973 23.2473 19.9322 23.3979 19.0836 23.226C18.3236 23.0721 17.581 22.6589 16.9234 21.9305C16.0204 20.9294 15.3649 19.5079 15.8029 18.1515L15.9283 17.8027C16.0766 17.3969 16.2764 17.0166 16.5196 16.6717C16.6757 15.9327 16.7071 15.4488 16.7366 14.9893C16.7442 14.8719 16.7516 14.7561 16.76 14.6406C16.8068 13.9971 16.9041 13.3233 17.1266 12.7038C17.1685 12.5871 17.2151 12.4716 17.2655 12.3575C17.1409 12.3151 17.0164 12.2726 16.8919 12.2301C16.0315 11.9357 15.1738 11.6366 14.3207 11.3238C11.8946 10.4335 9.49557 9.42992 7.17331 8.30702C6.02594 7.75206 4.90752 7.12768 3.80326 6.49597C3.27592 6.15558 2.11916 5.36309 1.60041 4.93639L1.20674 4.61258L1.00071 5.07176C0.779223 5.28832 0.600563 5.30515 0.450344 5.25652C0.288862 5.20425 0.169223 5.0807 0.0939943 4.93229C0.00343945 4.75364 -0.0248137 4.53615 0.0229596 4.32623C0.0659891 4.13716 0.172296 3.95456 0.351849 3.81079C0.989567 3.3004 1.87133 3.47222 2.6375 3.62152C2.69334 3.6324 2.74856 3.64316 2.80303 3.65353C2.91748 3.67532 3.02955 3.69664 3.13833 3.71592C4.38528 3.93706 5.62929 4.20044 6.86824 4.47229L8.3596 4.80205C8.92871 4.92807 9.49762 5.05461 10.0664 5.18114C16.5289 6.6186 22.9802 8.05255 29.5842 8.68268L30.2801 8.74601C31.4574 8.848 32.5049 9.33315 33.1949 10.1058C33.8305 10.8175 34.1553 11.7721 34.001 12.8791C33.8501 13.9624 33.2222 14.8644 32.3581 15.423C31.4984 15.9788 30.4044 16.1946 29.3127 15.9101C27.2628 15.3765 25.2174 14.8151 23.1817 14.2197L23.6578 15.3176C24.0674 16.2741 24.4451 17.2653 24.4896 18.277C24.5313 19.2277 24.2439 20.1479 23.7466 20.9352C23.2173 21.7732 22.4496 22.4622 21.5776 22.8765ZM50.1547 32.2461C53.2709 28.0095 48.8572 24.0245 45.9605 22.3156C45.2016 21.7869 45.8039 20.0357 47.4256 20.3063C62.1546 22.7625 54.523 47.3876 35.7176 33.8743C33.4787 32.1214 36.1899 28.2603 38.6031 29.7615C38.7254 29.8526 38.8537 29.9489 38.9875 30.0493C41.6986 32.0837 46.6591 35.8061 50.1547 32.2461ZM53.952 49.2621C50.7349 47.604 46.9602 47.8845 43.7298 49.3656C39.7812 51.1762 36.7282 54.1493 34.0238 57.4184C32.9854 58.6734 32.0139 59.9822 31.0436 61.2898C30.6442 61.828 30.245 62.3659 29.8413 62.8997C29.7625 62.9997 29.6762 63.1074 29.5847 63.2215C28.9383 64.0278 28.0558 65.1429 27.7181 66.1548C27.5825 66.561 27.532 66.9531 27.5929 67.3103C27.6223 67.4832 27.677 67.6489 27.7606 67.8055C27.2452 67.9349 26.901 67.8116 26.6631 67.5631C26.2863 67.1697 26.1543 66.5788 26.1489 65.9004C26.1299 63.5015 27.7387 60.0184 28.4281 58.5256L28.4543 58.4691C28.5237 58.3188 28.5831 58.1899 28.63 58.0858C31.0676 52.6725 34.9671 47.3993 40.3879 44.4815C45.6403 41.6547 51.8565 41.1203 57.2904 43.7929C63.2935 46.7455 64.9312 52.5922 65.6114 58.601C65.7156 59.5215 65.2865 60.3705 64.6266 61.011C63.8817 61.734 62.8352 62.2019 61.8572 62.2019C60.8416 62.2019 59.9116 61.7846 59.2316 61.1246C58.546 60.4592 58.1129 59.5459 58.1052 58.5563L58.0986 57.98C58.0672 55.9736 57.9222 54.0898 57.1719 52.4922C56.5686 51.208 55.5812 50.102 53.952 49.2621Z" transform="translate(21.09737 27.33879)" id="ðŸ–-Ink" fill="#000000" fill-rule="evenodd" stroke="none" />
  </g>
</svg>