<?xml version="1.0" encoding="utf-8"?>
<svg width="111px" height="110px" viewBox="0 0 111 110" version="1.1" xmlns:xlink="http://www.w3.org/1999/xlink" xmlns="http://www.w3.org/2000/svg">
  <desc>Created with Lunacy</desc>
  <defs>
    <rect width="110.859833" height="109.087975" id="artboard_1" />
    <clipPath id="clip_1">
      <use xlink:href="#artboard_1" clip-rule="evenodd" />
    </clipPath>
  </defs>
  <g id="face/Loving-Grin-2" clip-path="url(#clip_1)">
    <use xlink:href="#artboard_1" stroke="none" fill="#FFFFFF" />
    <path d="M4.23923 4.58062C10.3488 -0.0233756 42.8497 -1.40952 46.0743 1.58555C49.2989 4.58062 56.8767 13.2393 42.3768 18.7286C27.8769 24.2178 9.41503 23.8922 4.23923 18.7286C-0.936569 13.5649 -1.87033 9.18462 4.23923 4.58062Z" transform="translate(32.34774 74.04951)" id="teeth" fill="#FFFFFF" stroke="none" />
    <path d="M57.6005 0.614632C55.421 0.0359545 53.3089 -0.399769 51.144 0.579509C49.564 1.29435 49.1543 3.18533 49.4297 4.66863L49.4711 4.89351L49.4927 4.99987C49.971 7.17071 52.4526 7.65082 54.2899 7.07117C56.9032 6.99528 59.9067 7.8298 62.3345 8.62351L62.797 8.77637C65.3038 9.61333 67.0511 11.6141 69.4079 12.616C69.6166 12.7047 69.8759 12.6831 69.9982 12.466C71.8275 9.21271 67.9955 5.46802 65.4894 3.72289L65.3329 3.61536C63.3405 2.26423 60.8613 1.49428 58.539 0.86768L57.6005 0.614632ZM5.64258 10.5796C9.40223 6.49049 17.3646 2.17574 21.7529 7.70163C22.8734 9.11344 21.677 11.4207 20.0409 11.7855C18.0148 12.2379 15.9679 11.9628 13.9785 12.5238C12.1557 13.038 10.4096 14.0682 8.84716 15.095C7.06535 16.2656 5.42431 17.5724 3.91639 19.0613C3.01954 19.947 1.88946 22.0454 0.506204 22.0845C-0.815193 22.122 0.837377 18.2697 1.10415 17.6478C1.11501 17.6225 1.12358 17.6026 1.12955 17.5884C2.21398 15.0176 3.73725 12.6519 5.64258 10.5796ZM28.5365 32.22C30.9747 29.1253 31.8865 24.9025 29.4913 21.5081C27.3278 18.4421 19.7078 15.8929 17.3743 21.5081C10.0342 15.6208 5.00737 21.3424 4.06794 24.726C3.09135 28.2431 7.20385 32.0401 8.68723 33.2215C9.13172 33.5755 10.0188 34.4554 11.0811 35.5091C13.5638 37.9717 17.0032 41.3834 17.9844 41.247C19.121 41.0891 26.3789 34.9593 28.5365 32.22ZM74.7194 27.0949C73.7285 33.3803 63.5482 42.1447 62.1667 42.1447C60.7853 42.1447 48.9568 30.9932 48.9568 26.0327C48.9568 21.0721 54.0666 14.4135 62.1667 22.7972C66.7733 17.1991 75.7103 20.8096 74.7194 27.0949ZM50.5379 46.5541C53.654 42.3174 49.2404 38.3325 46.3437 36.6236C45.5848 36.0949 46.1871 34.3437 47.8088 34.6143C62.5378 37.0705 54.9061 61.6955 36.1007 48.1823C33.8618 46.4294 36.5731 42.5682 38.9862 44.0695C39.1086 44.1606 39.2369 44.2569 39.3707 44.3573C42.0818 46.3917 47.0423 50.114 50.5379 46.5541ZM45.2403 54.668C45.7723 54.6505 46.3049 54.6293 46.8379 54.6081C49.5706 54.4994 52.3124 54.3903 55.0255 54.7763C60.412 55.5421 65.8671 59.2567 65.8499 65.0339C65.8211 74.7252 54.5686 78.3929 46.5487 79.6569L45.6582 79.7964C36.002 81.2972 24.4913 82.6542 15.8275 77.3404C11.7449 74.8362 9.15636 70.6048 10.3517 65.8526C11.4902 61.3242 15.4282 58.0716 19.8484 56.6662C24.6982 55.1237 29.7064 55.7768 34.6503 56.4215C34.9632 56.4623 35.2759 56.5031 35.5882 56.5433C35.9706 56.5928 36.3519 56.6394 36.7332 56.687C37.9538 56.3087 39.1537 55.799 40.3774 55.4491C41.9893 54.9878 43.5567 54.7231 45.2403 54.668ZM38.6671 60.6501L41.7804 60.3869C42.436 60.5386 43.0971 60.6658 43.7701 60.7382L43.9941 60.7559C44.0274 61.6504 44.0396 62.5466 44.046 63.4322L44.0533 64.7512L38.6722 65.5154C36.7805 65.7842 34.8914 66.061 33.0036 66.3439C32.7305 64.5725 32.3315 62.8151 31.7782 61.0726C34.0752 60.9072 36.3726 60.8445 38.6671 60.6501ZM60.9329 62.4641C58.7921 60.5986 54.7923 60.7177 52.2181 60.7944L52.1809 60.7955C51.3914 60.8189 50.5974 60.8655 49.8016 60.9122C48.6536 60.9796 47.5021 61.0472 46.3561 61.0456C46.7195 62.1767 47.0644 63.315 47.3474 64.4823L51.4936 63.8953C54.6108 63.4544 57.7754 62.8467 60.9329 62.4641ZM29.4779 61.5039C27.205 61.7021 24.8034 61.7408 22.6137 62.2085C19.4138 62.8918 15.5639 64.6042 14.9585 68.1008C14.8595 68.6734 14.8931 69.2032 15.0261 69.6948C19.7639 68.8231 24.5085 68.0226 29.2652 67.2776C29.3793 65.3517 29.4374 63.4224 29.4779 61.5039ZM51.9416 66.4445C55.4093 66.0207 58.9904 65.7802 62.4653 65.227C62.5296 67.7097 59.8795 70.0496 57.8715 71.2268L57.6589 71.3484C55.1474 72.7498 52.2918 73.4898 49.4497 74.0425L48.8184 74.1625C48.6198 71.7431 48.3056 69.3323 47.8897 66.9395L51.9416 66.4445ZM38.9954 67.732L44.0543 67.0886C44.0568 69.7248 43.9257 72.3526 43.7042 74.9769C40.355 75.5239 36.9242 75.9523 33.512 76.0241C33.5977 73.4656 33.5561 70.9339 33.3136 68.4298C35.2074 68.205 37.1016 67.973 38.9954 67.732ZM29.0948 68.9501C24.4981 69.436 19.8975 69.8702 15.2853 70.2397C16.3246 72.1884 18.9889 73.4243 21.0296 74.1232C23.3631 74.9224 25.7712 75.4033 28.2146 75.6518C28.639 73.4442 28.9137 71.2031 29.0948 68.9501Z" transform="translate(19.17875 17.12629)" id="ðŸ–-Ink" fill="#000000" fill-rule="evenodd" stroke="none" />
  </g>
</svg>