<?xml version="1.0" encoding="utf-8"?>
<svg width="111px" height="110px" viewBox="0 0 111 110" version="1.1" xmlns:xlink="http://www.w3.org/1999/xlink" xmlns="http://www.w3.org/2000/svg">
  <desc>Created with Lunacy</desc>
  <defs>
    <rect width="110.859833" height="109.087975" id="artboard_1" />
    <clipPath id="clip_1">
      <use xlink:href="#artboard_1" clip-rule="evenodd" />
    </clipPath>
  </defs>
  <g id="face/With_MaskCalm" clip-path="url(#clip_1)">
    <use xlink:href="#artboard_1" stroke="none" fill="#FFFFFF" />
    <path d="M61.8604 1.39926C58.2553 0.0392 51.8109 -1.10343 48.7804 1.86987C47.1651 3.45518 48.1368 5.63545 50.011 6.39311C51.2175 6.88119 52.5345 6.76978 53.8344 6.65983C54.345 6.61663 54.8531 6.57365 55.3507 6.56735C57.0961 6.54576 58.8303 6.76282 60.5304 7.13811C61.8976 7.4406 63.2321 7.85948 64.5582 8.29789L65.4412 8.59199C65.7193 8.68476 66.001 8.79033 66.2858 8.89707C67.3671 9.3023 68.4938 9.72455 69.6367 9.52799C69.904 9.48182 70.0329 9.21934 70.0594 8.98962C70.234 7.48283 69.0074 6.04458 67.9074 4.99937L67.6627 4.77097L67.5039 4.62648C65.8743 3.1577 63.918 2.17591 61.8604 1.39926ZM12.8978 4.02879L13.73 3.80732L14.5785 3.58504L15.1523 3.43779C19.0937 2.4365 23.441 1.55531 27.3494 1.98553C28.7749 2.14264 29.9318 2.92115 30.1336 4.37057C30.3035 5.59362 29.4892 7.17149 28.1032 7.38892C23.5127 8.10972 18.8132 7.87591 14.2016 8.61905C11.905 8.98875 9.62607 9.44782 7.33829 9.86146C5.59868 10.1764 3.80114 10.287 2.04656 10.5417L2.44972 10.596C2.59088 10.6146 2.55559 10.8451 2.41635 10.8358C1.83803 10.7798 1.25882 10.7711 0.678739 10.8104L0.430077 10.8302C0.051466 10.882 -0.171788 10.4434 0.165778 10.2207C2.30357 8.81302 4.1176 7.28728 6.51126 6.24964C8.58153 5.35236 10.7124 4.61257 12.8978 4.02879ZM63.9211 17.002C64.6284 16.7963 65.1273 16.8935 65.7649 17.216C66.2551 17.4637 66.5889 17.855 66.7804 18.3119C66.9765 18.7794 67.0176 19.3186 66.9208 19.8181C66.5186 21.8923 65.2283 23.7329 63.4871 24.9183C61.7948 26.0705 59.6841 26.6026 57.5588 26.1593C56.0069 25.8356 53.7071 24.4064 52.4959 22.6632C51.9795 21.9201 51.66 21.1236 51.6254 20.337C51.5924 19.5869 51.7892 18.8306 52.8126 17.8337C52.9123 17.8035 53.0169 17.7872 53.12 17.7872C53.3736 17.7872 53.6355 17.8903 53.8093 18.0391C54.2678 18.4303 54.5909 18.9254 54.9233 19.4581L55.0123 19.6005C55.1613 19.8376 55.3154 20.0718 55.5033 20.2822C56.178 21.0368 57.1576 21.6768 58.1858 21.8434C59.1387 21.998 59.9977 21.724 60.6783 21.207C61.4746 20.6021 62.0334 19.6743 62.2402 18.6831C62.3244 18.2815 62.5408 17.9194 62.8407 17.6283C63.1434 17.3345 63.53 17.116 63.9211 17.002ZM18.8408 25.8498C18.0676 26.6161 17.0465 27.0485 15.7396 26.7913C14.7183 26.5905 12.7739 25.5938 11.2206 24.059C10.158 23.0089 9.26944 21.6968 9.0279 20.1769C8.97181 19.8239 8.77881 19.5976 8.52539 19.4551C8.32525 19.3425 8.06137 19.286 7.77394 19.3142C7.52992 19.3382 7.2708 19.424 7.07057 19.5377C6.68968 19.754 6.53391 20.0611 6.50224 20.2904C6.19666 22.5033 7.07736 24.699 8.45013 26.5504C10.3028 29.0489 13.0234 30.8797 14.6225 31.3083C17.359 32.042 20.2425 31.4579 22.3684 29.6093C24.0685 28.1313 24.9399 26.2056 25.7484 24.2254L25.9043 23.8416C26.0861 23.3923 26.2666 22.9463 26.4578 22.505C26.841 21.6207 26.7183 20.8564 26.3467 20.2606C25.9351 19.6007 25.1753 19.1361 24.3295 18.9934C23.5477 18.8615 22.711 19.0058 22.0506 19.4693C21.4927 19.8608 21.0427 20.4812 20.8829 21.3986C20.6229 22.8903 20.0199 24.6018 18.9565 25.731L18.8408 25.8498Z" transform="translate(19.94788 23.45569)" id="ðŸ–-Ink" fill="#000000" fill-rule="evenodd" stroke="none" />
  </g>
</svg>
