<?xml version="1.0" encoding="utf-8"?>
<svg width="111px" height="110px" viewBox="0 0 111 110" version="1.1" xmlns:xlink="http://www.w3.org/1999/xlink" xmlns="http://www.w3.org/2000/svg">
  <desc>Created with Lunacy</desc>
  <defs>
    <rect width="110.859833" height="109.087975" id="artboard_1" />
    <clipPath id="clip_1">
      <use xlink:href="#artboard_1" clip-rule="evenodd" />
    </clipPath>
  </defs>
  <g id="face/Cyclops" clip-path="url(#clip_1)">
    <use xlink:href="#artboard_1" stroke="none" fill="#FFFFFF" />
    <path d="M19.5635 38.7206C30.3681 38.7206 39.127 30.0527 39.127 19.3603C39.127 8.66791 30.3681 0 19.5635 0C8.75887 0 0 8.66791 0 19.3603C0 30.0527 8.75887 38.7206 19.5635 38.7206Z" transform="translate(46.03105 24.94507)" id="eye" fill="#FFFFFF" stroke="none" />
    <path d="M24.4976 0.0218856C21.9988 -0.0976271 19.4303 0.275431 17.0543 1.06511C8.79617 1.18425 2.79018 9.91166 1.02946 17.1852C-1.3124 26.8568 2.64326 36.8605 12.3656 40.8271C21.476 44.5443 34.1532 44.4795 39.5807 35.1564C42.1638 30.7192 43.5356 25.0108 43.5607 19.9418C43.5843 15.0071 41.7825 10.3298 38.4671 6.6003C34.9556 2.64968 29.8534 0.278782 24.4976 0.0218856ZM32.8953 8.26568C30.0268 6.03068 26.4144 5.02655 22.7645 5.28047C20.9512 5.40668 19.1088 5.86872 17.4628 6.61968C16.5878 7.0188 15.8056 7.57616 14.9441 7.99166C14.1759 8.36165 13.3443 8.57751 12.5518 8.88893L12.2566 9.01068C10.955 9.57511 9.64429 8.76756 9.57908 7.59068C6.74774 11.4464 5.40476 16.6748 5.42637 21.313C5.44274 24.7287 6.2809 28.2768 8.30093 31.1205C10.5461 34.2811 14.2712 35.9483 18.0075 36.8337C21.5857 37.6815 25.4873 37.9756 29.0739 37.0124C32.7967 36.0131 35.2015 33.271 36.5702 29.8528C39.5392 22.4382 39.7844 13.6333 32.8953 8.26568ZM26.253 17.46C24.6488 15.1933 21.7346 15.3076 20.1101 17.46C19.161 18.7174 19.1663 20.0824 19.2669 21.5326L19.3497 22.6357C19.4697 24.1398 19.6533 25.538 20.3644 26.916L20.382 26.9063C20.8891 27.7403 21.7634 28.3449 22.8071 28.4659C24.5801 28.6703 25.8318 27.6826 26.4759 26.1408C26.9774 24.9398 26.9711 23.5718 27.0185 22.2724L27.034 21.9032C27.0393 21.7946 27.0449 21.6871 27.0504 21.5808C27.1287 20.0792 27.1958 18.7923 26.253 17.46ZM34.9605 47.2205C35.0534 46.9383 35.4573 46.939 35.5501 47.2205C36.3933 49.7712 36.8885 52.2691 38.1475 54.6675C38.4586 54.9784 38.6814 55.3697 38.8007 55.7923C39.3888 56.7406 40.044 57.6408 40.777 58.493C41.6992 59.5653 42.3701 60.5724 41.8814 62.036C41.6405 62.7572 41.0183 63.2185 40.2342 63.2531C38.0815 63.3477 36.8551 61.355 36.0937 59.2775C30.7663 60.9946 24.9003 61.9667 19.3166 61.5397C14.7779 61.192 9.8337 60.0884 5.76986 57.8389C5.79403 58.6885 5.8274 59.5389 5.85809 60.3896C5.8798 60.9913 5.95698 61.6146 6.0346 62.2415C6.15997 63.2541 6.28647 64.2758 6.18223 65.2301C6.01498 66.7633 5.11813 67.9495 3.49282 68.187C2.09384 68.391 0.362277 67.4844 0.0895391 66.0302C-0.16848 64.6522 0.174177 63.6134 0.570641 62.4114C0.659861 62.1409 0.751805 61.8622 0.840241 61.5695C1.26565 60.1614 1.59938 58.7228 1.9661 57.2994C2.33589 55.8623 2.63855 54.4129 2.91282 52.9567C3.11383 51.8908 2.96883 50.6897 3.3578 49.6856C3.38848 49.607 3.4675 49.5508 3.55688 49.5758C5.62643 50.1529 5.74386 53.3869 5.73547 55.1223L5.73495 55.2078C5.73188 55.5614 5.73534 55.9151 5.73917 56.2685L6.52993 56.4365C10.871 57.3481 15.0875 58.0407 19.6519 57.7894C25.0062 57.4949 29.7144 55.595 34.7956 54.293C34.3736 51.9507 34.244 49.3956 34.9605 47.2205Z" transform="translate(42.96387 22.71114)" id="ðŸ–-Ink" fill="#000000" fill-rule="evenodd" stroke="none" />
  </g>
</svg>