<?xml version="1.0" encoding="utf-8"?>
<svg width="111px" height="110px" viewBox="0 0 111 110" version="1.1" xmlns:xlink="http://www.w3.org/1999/xlink" xmlns="http://www.w3.org/2000/svg">
  <desc>Created with Lunacy</desc>
  <defs>
    <rect width="110.859833" height="109.087975" id="artboard_1" />
    <clipPath id="clip_1">
      <use xlink:href="#artboard_1" clip-rule="evenodd" />
    </clipPath>
  </defs>
  <g id="face/Smile-Big" clip-path="url(#clip_1)">
    <use xlink:href="#artboard_1" stroke="none" fill="#FFFFFF" />
    <path d="M5.63219 1.24859C9.82181 -1.19996 25.4816 0.594807 37.7829 1.24859C47.5514 1.76775 54.5286 0.738883 56.7617 2.19768C61.8069 5.49355 59.3563 21.4307 50.6626 23.6102C41.969 25.7897 9.74182 28.8339 4.18522 23.6102C-1.37137 18.3865 -1.88437 5.6415 5.63219 1.24859Z" transform="translate(24.74725 72.3947)" id="teeth" fill="#FFFFFF" stroke="none" />
    <path d="M6.10888 4.34662C9.87658 0.615289 19.7013 -2.99541 22.2787 3.895C22.7697 5.20741 21.7244 6.97702 20.3166 7.24918C19.0445 7.49488 17.8516 7.30927 16.6531 7.12279C15.6795 6.9713 14.7022 6.81924 13.6757 6.89734C11.8218 7.03919 9.88808 7.64048 8.40586 8.75519C4.3006 11.8424 3.39761 17.0641 0.537116 20.9935C0.39787 21.1849 0.127434 21.1045 0.101733 20.8788C-0.549617 15.1582 1.98213 8.43314 6.10888 4.34662ZM63.0892 0.649993C60.5759 -0.110272 57.7446 -0.183618 55.2443 0.673449C54.0367 1.08746 52.9369 1.63886 51.9292 2.4021C50.9365 3.15418 50.5091 3.91928 49.7677 4.85156C49.6192 5.03846 49.8639 5.2961 50.0722 5.23616C53.9853 4.11326 59.3146 4.87241 62.5649 7.25521C63.9401 8.26381 65.0744 9.63691 65.7365 11.1887C66.7388 13.538 67.0906 15.7514 69.986 16.5646C71.2798 16.9283 72.7091 16.5336 73.657 15.623L73.8929 15.3959L73.9724 15.3174C75.7357 13.5281 74.8939 11.0131 72.9243 9.90944C72.5603 9.24858 72.2235 8.13872 71.9032 7.60147C71.3002 6.58766 70.5483 5.63528 69.7359 4.77225C67.9452 2.87122 65.621 1.41622 63.0892 0.649993ZM59.8541 16.5983C66.2433 16.3079 70.2178 23.0788 68.7486 28.6266C68.4946 29.5839 67.3914 30.5236 66.3265 30.416L66.0582 30.392C65.9219 30.3793 65.785 30.3626 65.6591 30.3289C64.6479 30.0571 63.7415 29.0362 63.8151 27.9781L63.8347 27.6698C63.9838 25.049 63.6911 22.0295 60.482 21.3948C57.7604 20.8565 56.241 23.399 56.2088 25.7394C56.2026 26.1549 55.7216 26.4449 55.343 26.2215C53.3755 25.0595 53.0349 22.7478 53.7863 20.757C54.7388 18.2346 57.1225 16.7223 59.8541 16.5983ZM24.3573 22.9401C22.106 18.9504 17.0897 16.5449 12.4401 18.0505C9.90604 18.8707 7.89829 20.9538 6.86526 23.296C6.07774 25.0809 5.68071 28.1994 7.88985 29.2355C8.18292 29.3729 8.47599 29.3398 8.72034 29.1317C10.8002 27.361 10.7143 24.3214 13.6795 23.3169C16.2178 22.4568 19.0042 24.0779 19.6909 26.5348L19.7165 26.6206C20.321 28.5213 23.0449 29.3108 24.4993 27.7668C25.4291 26.7798 25.6677 25.9592 25.8261 24.6576C25.9358 23.7529 25.1472 23.162 24.3573 22.9401ZM57.6214 32.7518C56.8733 24.5292 45.062 27.2036 40.3545 29.8202C40.0288 30.0011 40.1527 30.5655 40.5543 30.5358C41.4906 30.4665 42.4208 30.3441 43.3504 30.2218C44.9384 30.013 46.5252 29.8043 48.1392 29.8604C49.8535 29.9207 52.5909 30.2602 53.2341 32.1188C53.9611 34.2198 51.6173 35.8249 49.8593 36.3264L49.7573 36.3552C48.1282 36.813 45.0551 37.5219 43.5951 36.5598C40.7542 34.6871 37.7218 38.7859 40.0081 41.0719C42.755 43.8184 48.3813 42.388 51.5555 41.1214L51.6827 41.0697C55.0671 39.6708 57.9654 36.5356 57.6214 32.7518ZM16.6269 45.2275C21.4836 44.6554 26.2303 45.5718 30.9702 46.4868C32.6477 46.8106 34.3244 47.1343 36.0048 47.3918C39.3989 47.9115 42.7971 48.2995 46.2318 48.4439C46.9227 48.4732 47.6139 48.4902 48.3052 48.5039C48.3695 47.9134 48.7102 47.371 49.4482 47.046C50.9609 46.3805 52.1716 46.0804 53.8325 46.1446C55.3529 46.2028 56.8786 46.3545 58.3756 46.6205C61.0941 47.1043 63.8248 48.202 65.8133 50.1091C70.4154 54.5222 69.7149 61.6108 66.1589 66.4175C58.8122 76.3499 45.4034 76.8109 33.9193 76.6813L32.8596 76.6679C31.689 76.6516 30.462 76.6562 29.1991 76.6608C19.1814 76.6979 6.91083 76.7434 2.69204 66.4891C0.945061 62.2429 1.18774 57.3212 3.32668 53.2487C5.87786 48.3912 11.2482 45.8611 16.6269 45.2275ZM31.255 51.1876L29.9467 51.045C29.8394 51.0331 29.7321 51.0213 29.6248 51.0094C26.0984 50.6188 22.5738 50.2285 19.0472 50.4631C18.5213 50.4984 17.9873 50.554 17.4522 50.6301C18.0945 52.8796 18.0405 55.5217 18.3088 57.7487C18.4125 58.6097 18.5435 59.4637 18.6885 60.3143L19.319 60.2857C23.2183 60.0806 27.1214 59.9545 31.0238 59.8042C31.0235 59.0931 31.0275 58.3815 31.0392 57.6697L31.0536 56.9577C31.0666 56.4257 31.0655 55.874 31.0643 55.3119C31.0614 53.9532 31.0584 52.5343 31.255 51.1876ZM38.0261 51.6265C41.7646 51.6221 45.698 51.4952 49.5039 50.899C49.6628 51.0103 49.8304 51.1075 50.0072 51.178L50.1577 51.2307C49.9571 52.9411 49.8151 54.659 49.6859 56.3772L49.4962 58.954L48.8195 58.9892C44.0241 59.2255 39.228 59.4537 34.4314 59.6648L34.2682 58.324C34.0853 56.7916 33.9169 55.2579 33.7696 53.7218C33.6965 52.9616 33.646 52.1819 33.5488 51.411C35.0404 51.5393 36.5329 51.6284 38.0261 51.6265ZM8.5765 55.6886C10.0881 53.0491 12.9007 51.6064 15.8725 50.9235C15.1463 53.1084 15.1114 55.8278 15.0421 57.9933L15.0029 59.1287C14.9892 59.5717 14.9784 60.0156 14.97 60.4601C12.4272 60.5491 9.87219 60.6567 7.36043 60.9405C7.28464 59.1112 7.67928 57.2549 8.5765 55.6886ZM51.1555 51.5385C51.3653 53.968 51.4812 56.4076 51.6355 58.8411L54.7968 58.6772C55.3237 58.6494 55.8505 58.6209 56.3773 58.5915C56.9466 58.5596 57.561 58.4901 58.1949 58.4184C59.8421 58.2321 61.621 58.0308 63.0835 58.4364C63.2381 56.6494 62.7118 54.9085 61.0502 53.708C58.1331 51.5994 54.4186 52.3502 51.1555 51.5385ZM62.3679 61.1631C61.1307 61.4464 59.7545 61.4434 58.4432 61.4406C57.8619 61.4393 57.294 61.4381 56.7565 61.4618C55.1155 61.5341 53.4738 61.5972 51.8328 61.6617C51.9101 62.749 51.9856 63.836 52.0675 64.9226C52.1731 66.3271 52.1831 67.8113 52.4602 69.2099C55.7628 68.1159 58.722 66.3616 60.9421 63.5563C61.4952 62.8574 61.9905 62.0371 62.3679 61.1631ZM49.1951 61.7689L49.2889 61.7652C49.2211 62.6952 49.1511 63.6249 49.0864 64.5553C48.9827 66.0529 49.0072 67.6614 48.7388 69.1709C48.4694 69.3894 48.2665 69.7081 48.1972 70.1814L48.1896 70.262C44.3718 70.9227 40.3416 70.9931 36.5965 70.9646C36.5544 70.8763 36.5123 70.7876 36.4541 70.6997C36.2868 70.4456 36.0621 70.2705 35.8145 70.1618L35.8378 70.0056C35.8818 69.737 35.7901 69.3647 35.7072 69.0286C35.6682 68.8704 35.6312 68.7202 35.6112 68.5926C35.4639 67.6507 35.3222 66.7077 35.1902 65.7635C35.0218 64.5638 34.8744 63.3611 34.7301 62.1588C39.5538 62.0761 44.3741 61.9492 49.1951 61.7689ZM8.15119 64.5104C7.80019 63.6887 7.56555 62.8062 7.44497 61.9043C9.92343 62.1454 12.4478 62.1974 14.9554 62.22C14.9638 64.3939 15.0759 66.5704 15.3879 68.7113C15.5131 69.5723 16.0088 70.075 16.6331 70.2842C13.035 69.602 9.63444 67.982 8.15119 64.5104ZM31.0469 62.2226C27.572 62.28 24.0956 62.3241 20.6214 62.283L19.0443 62.2593C19.3773 63.9936 19.7397 65.722 20.041 67.4678C20.3552 69.2874 18.7051 70.4441 17.277 70.3973C17.4374 70.4229 17.5974 70.4493 17.7577 70.4712C21.4673 70.9803 25.2951 70.9539 29.0827 70.9277C29.8509 70.9224 30.6175 70.9171 31.381 70.9163C31.2062 69.9259 31.2077 68.8443 31.209 67.8867C31.2095 67.5099 31.21 67.1523 31.1997 66.8271L31.1927 66.6487C31.1234 65.1726 31.0748 63.6976 31.0469 62.2226Z" transform="translate(19.17875 24.20021)" id="ðŸ–-Ink" fill="#000000" fill-rule="evenodd" stroke="none" />
  </g>
</svg>