<?xml version="1.0" encoding="utf-8"?>
<svg width="111px" height="110px" viewBox="0 0 111 110" version="1.1" xmlns:xlink="http://www.w3.org/1999/xlink" xmlns="http://www.w3.org/2000/svg">
  <desc>Created with Lunacy</desc>
  <defs>
    <rect width="110.859833" height="109.087975" id="artboard_1" />
    <clipPath id="clip_1">
      <use xlink:href="#artboard_1" clip-rule="evenodd" />
    </clipPath>
  </defs>
  <g id="face/Old" clip-path="url(#clip_1)">
    <use xlink:href="#artboard_1" stroke="none" fill="#FFFFFF" />
    <path d="M58.1602 7.01397C59.8393 6.96426 61.4599 7.1029 63.0965 7.44823C66.3499 8.13369 70.2801 9.3402 72.8482 11.4312C72.3023 9.70408 71.7736 8.00784 70.6513 6.53403C69.3197 4.78548 67.6133 3.355 65.6504 2.29304C63.6608 1.21719 61.4225 0.539804 59.1718 0.255804C56.8942 -0.0308882 53.583 -0.371927 51.6531 1.04609C51.0153 1.51457 50.4876 2.04938 50.1744 2.68396C49.9092 3.22111 49.802 3.82941 49.9098 4.52498C50.0141 5.19833 50.3396 5.9065 50.8314 6.46059C51.2522 6.93455 51.7969 7.29762 52.4365 7.41035C53.6433 7.62289 54.7606 7.44807 55.8807 7.27281L55.9337 7.26453C56.6663 7.14996 57.4009 7.03612 58.1602 7.01397ZM26.311 6.9972C25.8443 7.05029 25.38 7.11986 24.9159 7.19142C23.5617 7.40079 22.2149 7.65212 20.8774 7.94502C18.3369 8.50169 15.8169 9.20453 13.345 9.99876C11.0319 10.7423 8.7548 11.5825 6.47826 12.4227C6.35677 12.4675 6.23529 12.5123 6.11376 12.5572C5.30997 12.8538 4.50886 13.1861 3.70528 13.5196C2.4823 14.0272 1.25372 14.5381 0 14.9231C3.30307 10.4904 8.39292 7.20587 13.2904 4.85551C16.0847 3.51453 19.0491 2.43316 22.0311 1.54711L23.6917 1.06278C26.137 0.362563 28.8107 -0.284231 31.1077 1.11194C32.0162 1.66415 32.596 2.52254 32.7785 3.45052C32.9576 4.36056 32.7533 5.33631 32.1059 6.15063C31.5418 6.86003 30.8388 7.26404 30.0907 7.4025C29.2649 7.55533 28.3898 7.38749 27.5931 6.97454C26.9549 6.9284 26.7666 6.94508 26.5778 6.96545L26.311 6.9972ZM66.2966 22.2363L66.2961 22.3202C66.2628 24.7263 64.5875 29.6212 61.3451 29.6212C58.0646 29.6212 57.4394 24.2182 57.5783 21.9336L57.5977 21.6487C57.8769 17.9485 59.2002 14.4414 61.3451 14.4414C64.8666 14.4414 66.2912 19.8622 66.2966 22.2363ZM14.4492 23.0648L14.4487 22.9809C14.4541 20.6067 15.8788 15.186 19.4002 15.186C21.6002 15.186 22.9358 18.8752 23.167 22.6782L23.175 22.8332C23.2771 25.1976 22.6086 30.3658 19.4002 30.3658C16.1579 30.3658 14.4825 25.4709 14.4492 23.0648ZM56.4556 48.964C58.8907 49.0725 60.6678 48.0738 61.7344 46.5206C62.9842 44.7005 63.2772 42.1671 62.6112 39.8127C61.448 35.701 58.7957 31.7236 55.8404 28.6124C54.3168 27.0087 52.6372 25.5326 50.8249 24.2418C49.5043 23.3005 48.0041 22.2195 46.2112 22.1099C46.3173 24.1664 47.8152 26.2151 49.1658 28.1028C49.4472 28.4962 49.7191 28.8765 49.9674 29.241L50.1712 29.5403C51.9033 32.0841 53.6834 34.751 54.7983 37.6026C55.0946 38.3611 55.3445 39.1359 55.5657 39.9176C55.6213 40.1137 55.677 40.3105 55.7292 40.5085C55.7797 40.7002 55.8268 40.8926 55.8736 41.0844C55.9178 41.2658 55.9619 41.4477 56.0032 41.6304C55.8116 41.6013 55.621 41.57 55.4315 41.5365C55.2308 41.5009 55.0297 41.4628 54.8285 41.4218C52.0672 40.86 49.5498 39.8344 46.9976 38.7228L45.6266 38.1222C44.2556 37.5214 42.6898 37.4857 41.5035 38.2536L40.7781 38.7231L40.2792 37.9509C35.9216 38.5699 32.1166 43.1237 29.7868 46.5646L29.5211 46.9622C27.0086 50.77 23.9112 56.2471 26.214 60.7922C26.3876 61.1348 26.7418 61.3068 27.1032 61.3519C27.5132 61.4031 27.9612 61.2995 28.2526 61.0098C30.1799 59.0945 31.0513 56.4143 31.9533 53.6892C32.4877 52.0751 33.0205 50.4753 33.7492 49.045C34.7786 47.0249 35.9122 45.0989 37.1487 43.1919C37.4709 42.6952 37.8124 42.2106 38.1541 41.7259C38.2782 41.5499 38.4022 41.374 38.5251 41.1976L39.7052 39.5046L39.9236 41.5377C40.0464 42.6805 40.7309 43.7471 41.7864 44.4143C45.8399 46.977 51.6159 48.7492 56.4556 48.964ZM48.3678 66.5213C45.9159 66.5407 43.1596 65.6477 41.3166 64.9485L40.836 64.7638C39.2407 64.1436 37.6022 63.4316 36.3803 62.237C35.9895 61.8487 35.5735 61.4094 35.3622 60.9473C35.2384 60.6767 35.1869 60.3965 35.3065 60.1181C35.7485 60.076 36.1672 60.0211 36.5638 59.9507C36.7526 59.9172 36.9335 59.8825 37.0723 59.8816C37.5753 59.8785 38.073 59.9396 38.5704 60.0006L38.5946 60.0036C38.6678 60.0126 38.7409 60.0215 38.8141 60.0303C39.2076 60.0776 39.5991 60.1286 39.9899 60.1796C41.1267 60.3278 42.2575 60.4747 43.4107 60.5283C44.2434 60.5671 45.1165 60.5216 45.9973 60.4751C46.0501 60.4723 46.103 60.4695 46.1559 60.4667C48.3908 60.3478 50.6844 60.2257 52.4039 61.7428C52.8649 62.1495 53.0576 62.6619 53.0576 63.1838C53.0576 63.818 52.7825 64.4636 52.363 64.9701C51.4128 66.1168 49.9505 66.5087 48.3678 66.5213Z" transform="translate(19.15907 22.70154)" id="ðŸ–-Ink" fill="#000000" fill-rule="evenodd" stroke="none" />
  </g>
</svg>