<?xml version="1.0" encoding="utf-8"?>
<svg width="111px" height="110px" viewBox="0 0 111 110" version="1.1" xmlns:xlink="http://www.w3.org/1999/xlink" xmlns="http://www.w3.org/2000/svg">
  <desc>Created with Lunacy</desc>
  <defs>
    <rect width="110.859833" height="109.087975" id="artboard_1" />
    <clipPath id="clip_1">
      <use xlink:href="#artboard_1" clip-rule="evenodd" />
    </clipPath>
  </defs>
  <g id="face/Rage" clip-path="url(#clip_1)">
    <use xlink:href="#artboard_1" stroke="none" fill="#FFFFFF" />
    <path d="M12.6587 21.5942C19.65 21.5942 25.3175 16.7602 25.3175 10.7971C25.3175 4.83403 19.65 0 12.6587 0C5.66751 0 0 4.83403 0 10.7971C0 16.7602 5.66751 21.5942 12.6587 21.5942Z" transform="translate(28.38589 33.50823)" id="eye" fill="#FFFFFF" stroke="none" />
    <path d="M11.3161 18.6157C17.5659 18.6157 22.6323 14.4484 22.6323 9.30784C22.6323 4.16726 17.5659 0 11.3161 0C5.06641 0 0 4.16726 0 9.30784C0 14.4484 5.06641 18.6157 11.3161 18.6157Z" transform="translate(75.56831 33.88057)" id="eye" fill="#FFFFFF" stroke="none" />
    <path d="M0.561753 8.90077C2.3763 4.12114 13.0021 4.0363e-16 20.3175 0C27.6329 0 39.3581 4.12114 39.3581 4.12114L36.004 13.1402C36.004 13.1402 5.2874 11.8765 3.5223 11.8765C1.75719 11.8765 -1.2528 13.6804 0.561753 8.90077Z" transform="translate(45.36309 71.74851)" id="teeth" fill="#FFFFFF" stroke="none" />
    <path d="M76.2952 0.388831C76.4271 0.261128 76.3385 -0.0210863 76.1294 0.00125255C68.3735 1.21512 61.1699 4.66017 54.2219 8.24317L53.1074 8.81988C52.7609 8.99957 52.2329 8.96617 51.5977 8.92598C50.3258 8.84553 48.6243 8.73788 47.0895 10.2592C44.493 12.8327 48.0566 17.3064 51.5788 17.2733C48.2116 23.4492 52.6885 29.2655 58.8629 31.3341C66.3469 34.1786 80.3667 29.8482 78.5895 20.4301C76.5905 14.5073 70.7104 9.73093 64.264 9.24246C68.2607 6.32165 72.7231 3.81226 76.2952 0.388831ZM27.7625 7.5113C18.6667 5.30136 4.96571 1.97251 0.0125965 9.90837C-0.0564512 10.2219 0.164118 10.5931 0.533139 10.5718C4.16635 9.39674 7.87039 9.94214 11.5289 10.764L11.9766 10.866C10.725 11.4572 8.60557 11.8995 8.41569 13.4554C-8.22555 25.8378 15.8797 43.1895 29.0099 32.5681C34.0469 28.578 35.4812 21.7249 31.7557 16.4853C38.6029 17.5911 37.9408 6.9682 31.361 8.35842C30.2832 8.12373 29.0705 7.82909 27.7625 7.5113ZM59.649 14.5467C61.0698 13.8 62.6981 12.9442 64.4402 13.3059C69.107 13.4109 77.9896 19.9446 74.1809 24.721C67.2209 33.5646 45.968 26.9169 56.4122 15.345C57.2824 15.7906 58.3834 15.2119 59.649 14.5467ZM28.2909 19.1235C23.8254 12.3113 6.30571 12.1907 6.776 22.6948C7.48374 36.5791 35.8082 33.4297 28.2909 19.1235ZM66.3086 18.6008C64.8191 14.8274 58.8956 16.5665 59.123 20.3823C59.4334 26.2812 68.41 23.719 66.3086 18.6008ZM20.2968 19.7133C24.6203 18.1839 24.5847 24.4045 21.3847 25.6339C17.7252 27.0304 16.5115 19.6288 20.2968 19.7133ZM46.3437 28.8048C49.2404 30.5137 53.654 34.4986 50.5379 38.7353C47.0423 42.2952 42.0818 38.5728 39.3707 36.5384C39.2369 36.438 39.1086 36.3418 38.9862 36.2507C36.5731 34.7494 33.8618 38.6105 36.1007 40.3635C54.9061 53.8767 62.5378 29.2516 47.8088 26.7955C46.1871 26.5248 45.5848 28.2761 46.3437 28.8048ZM66.2093 53.8333C60.2547 49.3075 45.6557 47.9046 37.7709 48.2077C25.9998 48.1552 15.5115 59.1999 18.9738 70.5729C21.6586 76.9004 29.3411 75.8594 35.1479 75.0726C35.3737 75.042 35.5967 75.0118 35.8165 74.9824L37.5679 74.7536C38.0158 74.6951 38.4636 74.6364 38.9116 74.5776C47.1656 73.4951 55.444 72.4093 63.7915 72.7134C64.6511 72.7447 72.3334 58.3145 66.2093 53.8333ZM51.6662 53.0277C46.9948 52.3459 42.2558 52.2417 37.4999 52.7023C33.2677 53.1125 29.2863 54.2332 26.6368 57.351C27.2736 57.4548 27.8375 57.9109 28.2242 58.5182C30.6844 58.5906 33.18 58.5862 35.6857 58.5817L35.686 58.5817C38.9593 58.5759 42.2499 58.5701 45.5018 58.7356C46.6391 58.7597 47.7869 58.817 48.9377 58.8744C51.0337 58.979 53.1393 59.084 55.2076 58.9903C57.2988 58.8955 57.371 57.5865 57.451 56.1343C57.4767 55.6691 57.5031 55.1892 57.597 54.7299C55.7688 53.9335 53.5785 53.3106 51.6662 53.0277Z" transform="translate(22.2506 21.9666)" id="Shape" fill="#231F20" fill-rule="evenodd" stroke="none" />
  </g>
</svg>