<?xml version="1.0" encoding="utf-8"?>
<svg width="111px" height="110px" viewBox="0 0 111 110" version="1.1" xmlns:xlink="http://www.w3.org/1999/xlink" xmlns="http://www.w3.org/2000/svg">
  <desc>Created with Lunacy</desc>
  <defs>
    <rect width="110.859833" height="109.087975" id="artboard_1" />
    <clipPath id="clip_1">
      <use xlink:href="#artboard_1" clip-rule="evenodd" />
    </clipPath>
  </defs>
  <g id="face/Tired" clip-path="url(#clip_1)">
    <use xlink:href="#artboard_1" stroke="none" fill="#FFFFFF" />
    <path d="M55.2293 2.38041C54.688 0.571333 52.8766 -0.268607 51.0477 0.0757836C47.0701 0.824135 47.0218 5.34365 48.6778 8.0891C50.1075 10.46 52.5863 11.9623 55.0536 13.15C60.3353 15.6925 65.9462 16.4613 71.7976 16.3519C72.0926 16.3459 72.2725 15.8973 71.9614 15.7662C68.2806 14.2143 65.0528 12.0397 61.8516 9.73972L60.0841 8.46446C58.8833 7.59579 57.6935 6.71363 56.5899 5.72528C55.6582 4.89067 55.5994 4.44944 55.5023 3.72189C55.4552 3.36834 55.399 2.94718 55.2293 2.38041ZM24.9491 1.23437C26.4137 0.69191 28.2534 1.59403 29.001 2.83495C29.8495 4.24304 29.487 5.86856 28.4398 7.05513C26.8334 8.87532 23.7741 9.99662 21.5193 11.0353L21.3383 11.1193C19.0229 12.2035 16.6442 13.1991 14.2333 14.0665C11.8622 14.9203 9.39571 15.5889 6.93761 16.163C5.64144 16.4657 4.31764 16.7159 2.99307 16.8738C2.3778 16.947 1.8454 16.8807 1.30756 16.8137C0.93132 16.7668 0.552422 16.7197 0.140638 16.7197C-0.00551256 16.72 -0.0511607 16.532 0.0681383 16.4598C1.00297 15.8894 1.6969 15.1384 2.7165 14.6101C3.7783 14.0602 4.84394 13.5196 5.91341 12.9842C8.07575 11.9023 10.1579 10.6982 12.2439 9.48634C14.4427 8.20893 16.5916 6.86376 18.6815 5.42365C20.7264 4.01444 22.611 2.1 24.9491 1.23437ZM25.342 18.2774C29.2167 17.652 29.8945 23.0133 26.0543 23.3878C25.2484 23.4664 24.4471 23.5349 23.6472 23.603C23.7251 23.8458 23.7769 24.0956 23.8053 24.3525C23.8417 24.5707 23.869 24.8022 23.8931 25.067C24.0147 26.3861 23.0511 27.7577 21.9253 28.3973C20.7553 29.0619 19.0759 29.1505 17.914 28.3973C17.3148 28.0086 16.7164 27.5704 16.3861 26.9278C15.9431 26.2677 15.7014 25.5037 15.6768 24.7196C13.9104 25.1649 12.1117 25.7669 10.3276 26.086C10.3932 26.1485 10.4576 26.2152 10.5201 26.2885C10.5677 26.3447 10.5025 26.4501 10.4331 26.3984L9.53812 26.2059C9.2627 26.2409 8.98728 26.2695 8.71262 26.2863L8.71914 26.2628C8.25997 26.255 7.88405 25.7282 8.29488 25.3067C9.87114 23.6897 12.3307 22.615 14.5731 21.7165L16.7336 20.8568C19.4963 19.767 22.4126 18.7503 25.342 18.2774ZM64.1047 19.9171C61.5626 19.7666 59.0497 19.6549 56.5118 19.936C54.4189 20.1676 51.9869 20.4115 50.0739 21.2838C49.8751 21.3743 49.9112 21.7302 50.1383 21.7622C52.2673 22.0608 54.3736 21.9663 56.5087 22.4376C56.7488 22.4901 56.9886 22.5463 57.228 22.6044C57.0638 22.8256 56.9452 23.0717 56.9073 23.3356C56.793 24.1324 56.7136 24.8055 56.9115 25.6101C57.167 26.6477 57.6185 27.4464 58.6197 28.013C59.5545 28.5425 60.7394 28.5439 61.6742 28.013C62.6808 27.4411 63.0383 26.5416 63.1726 25.4772C63.199 25.2706 63.1898 25.0487 63.1545 24.8271C66.5885 26.2252 68.383 20.1699 64.1047 19.9171ZM50.5379 40.9693C53.654 36.7326 49.2404 32.7477 46.3437 31.0387C45.5848 30.5101 46.1871 28.7588 47.8088 29.0295C62.5378 31.4856 54.9061 56.1107 36.1007 42.5975C33.8618 40.8445 36.5731 36.9834 38.9862 38.4846C39.1086 38.5757 39.2369 38.672 39.3707 38.7724C42.0818 40.8068 47.0423 44.5292 50.5379 40.9693ZM53.3424 62.5901C55.7668 62.0416 57.6709 64.0343 57.1945 66.3288C56.6901 68.7578 53.9991 69.5903 51.7428 69.514C49.1846 69.428 46.6283 68.9153 44.0574 68.8122C41.4164 68.7064 38.7653 68.6871 36.1227 68.7563C35.3713 68.776 34.6138 68.8292 33.8546 68.8824C32.1438 69.0025 30.4241 69.1231 28.7446 68.8632C27.8002 68.7169 27.8895 67.5068 28.5041 67.0768C30.3285 65.7998 32.693 65.2793 34.8434 64.7435C37.036 64.197 39.2774 63.7785 41.5261 63.5231C43.8058 63.2643 46.1043 63.1351 48.399 63.1098C48.7767 63.1056 49.1853 63.1324 49.6017 63.1597C50.3358 63.2079 51.0928 63.2575 51.7428 63.1411C52.2618 63.0476 52.7904 62.7152 53.3424 62.5901Z" transform="translate(19.17875 22.71114)" id="ðŸ–-Ink" fill="#000000" fill-rule="evenodd" stroke="none" />
  </g>
</svg>