<?xml version="1.0" encoding="utf-8"?>
<svg width="111px" height="110px" viewBox="0 0 111 110" version="1.1" xmlns:xlink="http://www.w3.org/1999/xlink" xmlns="http://www.w3.org/2000/svg">
  <desc>Created with Lunacy</desc>
  <defs>
    <rect width="110.859833" height="109.087975" id="artboard_1" />
    <clipPath id="clip_1">
      <use xlink:href="#artboard_1" clip-rule="evenodd" />
    </clipPath>
  </defs>
  <g id="face/Monster" clip-path="url(#clip_1)">
    <use xlink:href="#artboard_1" stroke="none" fill="#FFFFFF" />
    <path d="M0 0L4.05315 15.0179Q10.168 4.93473 10.2954 3.1895L10.2981 3.11901Q10.2981 1.56948 0.653677 0.0980111L0 0ZM39.9282 13.9837L41.3637 3.24566L32.4517 6.02976L39.9282 13.9837Z" transform="translate(38.66102 78.96111)" id="teeth" fill="#FFFFFF" fill-rule="evenodd" stroke="none" />
    <path d="M15.1521 26.8066C23.5204 26.8066 30.3042 20.8057 30.3042 13.4033C30.3042 6.00086 23.5204 0 15.1521 0C6.78384 0 0 6.00086 0 13.4033C0 20.8057 6.78384 26.8066 15.1521 26.8066Z" transform="translate(22.63283 28.66823)" id="eye" fill="#FFFFFF" stroke="none" />
    <path d="M13.8095 26.4343C21.4363 26.4343 27.6191 20.5168 27.6191 13.2171C27.6191 5.91752 21.4363 0 13.8095 0C6.18274 0 0 5.91752 0 13.2171C0 20.5168 6.18274 26.4343 13.8095 26.4343Z" transform="translate(46.41702 15.26489)" id="eye" fill="#FFFFFF" stroke="none" />
    <path d="M11.1243 22.8862C17.2681 22.8862 22.2487 17.5521 22.2487 10.9722C22.2487 4.39223 17.2681 0 11.1243 0C4.98054 0 0 4.39223 0 10.9722C0 17.5521 4.98054 22.8862 11.1243 22.8862Z" transform="translate(67.89662 29.98239)" id="eye" fill="#FFFFFF" stroke="none" />
    <path d="M37.2604 1.07701C42.1819 -0.963269 48.023 5.53187e-05 52.2621 3.08192C56.5998 6.23579 58.4967 11.3633 58.7476 16.4789C62.1781 13.6359 67.1185 15.7879 70.0078 18.4518C73.342 21.526 75.0283 26.1654 74.2511 30.5684C73.4766 34.9564 70.2049 38.8278 65.7786 40.1327C63.6607 40.7571 61.3005 40.7712 59.1699 40.1904C58.4465 39.9927 57.56 39.6867 56.741 39.2604C56.7878 39.4428 56.8354 39.6256 56.8799 39.8077C57.9428 44.1746 58.5455 49.0831 56.9505 53.4016C54.3869 60.3412 45.2814 64.2259 39.5965 58.0663C37.3643 55.6482 35.6293 51.861 35.7643 48.5641C35.8353 46.8318 36.8465 44.8276 38.934 44.9449C40.5527 45.0355 41.3203 46.3503 40.906 47.7418L40.8808 47.8221C40.0031 50.4823 41.5014 54.3261 43.6722 56.1404C47.0011 58.9227 51.5693 56.5015 53.3895 53.2389C55.5108 49.4365 55.2526 44.5614 54.5744 40.4246C53.9085 36.3627 52.4236 32.6474 50.8474 28.8888C50.6802 28.9183 50.5106 28.9454 50.3372 28.9682C47.2025 29.381 40.8244 29.5367 37.3609 27.3326C37.733 30.7344 37.003 34.2364 35.0117 37.117C32.793 40.3271 29.4503 42.0259 25.5599 42.5464C21.7814 43.0528 17.4015 43.1552 13.671 42.2862C5.72707 40.4358 2.92603 30.9168 5.32851 24.0454C6.74974 19.9809 10.7154 16.3251 15.1233 15.4018C17.3942 13.952 20.4434 13.5227 23.0642 13.7204C26.9784 14.0164 30.8336 15.6579 33.4551 18.5408C34.4566 19.6421 35.2802 20.8889 35.9151 22.2233C36.1284 22.0602 36.3769 21.9377 36.6577 21.8737C37.0962 21.7739 37.4798 21.7516 37.9086 21.8983C38.1223 21.9716 38.4303 22.2308 38.6156 22.399L39.0389 22.8816C39.5579 23.4686 40.0513 23.9609 40.9751 24.3258C43.5506 25.3433 47.0436 25.5641 49.7799 25.356C56.7613 24.8258 55.8821 15.8504 54.1625 11.2393C52.1256 5.77673 46.2872 2.37862 40.3476 3.34887C37.7955 3.76549 35.3608 5.08385 33.4927 6.80655C31.4074 8.72992 30.5144 11.0532 29.2635 13.4877C29.1895 13.6318 28.934 13.6005 28.9021 13.4416C27.8741 8.30809 32.7489 2.94751 37.2604 1.07701ZM47.0712 12.5289C46.2315 11.1368 44.5779 10.4026 42.9541 10.614C41.4972 10.8043 40.2988 11.693 39.7272 13.008C39.102 14.4459 39.374 16.2818 40.5815 17.3887L40.6724 17.4721C42.5501 19.194 45.6715 18.9081 47.0099 16.6794L47.0712 16.577C47.7978 15.367 47.8008 13.7389 47.0712 12.5289ZM68.3746 20.8372L68.2044 20.6444C65.9299 18.1115 62.3235 15.8045 58.7678 17.0802L58.7781 17.5068C58.7794 17.5779 58.7802 17.6491 58.78 17.7202C58.7693 22.6116 56.8164 27.1766 52.0164 28.6119C53.3042 30.3949 54.3387 32.3733 55.1673 34.4267C55.4596 34.2412 55.8152 34.1236 56.228 34.083C57.2874 33.9789 58.0631 34.5455 58.8556 35.1243C59.3272 35.4687 59.8046 35.8174 60.3513 36.0317C61.723 36.5701 63.2789 36.7089 64.727 36.4308C67.8947 35.8228 70.1173 33.1716 70.896 30.2296C71.7763 26.9037 70.6133 23.417 68.3746 20.8372ZM21.4327 17.499L21.6516 17.4972C24.1328 17.495 26.6046 18.1197 28.6742 19.4745C32.9356 22.2643 34.5694 27.9183 33.0396 32.5755C30.9724 38.8684 24.5924 39.2009 18.7931 39.091L18.4813 39.0842C15.4136 39.0068 12.2985 38.6066 10.3647 36.0127C8.66574 33.7338 7.96721 30.708 8.16131 27.9309C8.44134 23.9215 10.5043 20.8744 13.4972 18.9366C13.6817 19.0021 13.8861 19.0233 14.0898 18.9816C16.5471 18.4827 18.8825 17.5389 21.4327 17.499ZM63.5615 23.1549C64.4971 23.1549 65.3272 23.5347 66.0031 24.1367C66.9644 24.9934 67.0983 26.2265 66.8908 27.3967C66.8271 27.7538 66.7397 28.0989 66.648 28.4504L66.569 28.7682C66.5552 28.821 66.5404 28.8734 66.5237 28.9251C66.4661 29.1429 66.3745 29.3428 66.2655 29.5342C65.8654 30.9799 64.2455 31.6977 62.8174 31.3823C62.1453 31.2338 61.4751 30.6924 61.133 30.125C61.0202 29.9381 60.9412 29.752 60.8852 29.5651L60.6071 28.9251C60.5549 28.7717 60.5223 28.6071 60.4805 28.4504C60.3873 28.0993 60.2975 27.7534 60.2327 27.3967C60.0121 26.1874 60.1878 25.0415 61.1203 24.1367C61.7464 23.5287 62.6766 23.1549 63.5615 23.1549ZM24.8581 24.9995C23.8134 23.4726 21.2075 23.222 20.1512 24.9539C19.3878 24.9967 18.6233 25.3169 18.0728 25.8434C17.5385 26.3545 17.1115 27.1118 16.9335 27.8177C16.9171 27.8831 16.8538 28.1573 16.8138 28.3322L16.8342 28.2511C16.7536 28.5977 16.726 28.9462 16.7744 29.2951C16.8453 29.8078 17.039 30.3141 17.3409 30.7445C18.6881 32.6645 21.2655 32.9233 23.2921 31.937C25.8184 30.7065 26.6593 27.25 24.9193 25.0615L24.9082 25.0756L24.8581 24.9995ZM74.9575 39.0539C76.05 38.3968 77.3504 39.698 76.7044 40.7491C75.0457 43.4457 70.2381 43.6654 67.4489 43.0198C67.2307 42.9699 67.2805 42.6374 67.5015 42.6434C69.1046 42.6817 70.5534 42.3828 71.9344 41.5711C73.1143 40.8775 73.8182 39.739 74.9575 39.0539ZM0.444582 41.9982C0.140772 41.7979 -0.13772 42.2227 0.0744097 42.4643C1.94522 44.5977 4.48962 45.992 7.29641 46.6391C9.46681 47.1398 13.4474 47.6387 15.0643 45.7708C15.4122 45.3687 15.3086 44.7272 14.739 44.5746C13.9045 44.3511 13.1332 44.4947 12.3257 44.645C12.0975 44.6875 11.8665 44.7305 11.6303 44.7659C10.3717 44.954 9.09817 44.9447 7.8346 44.8106C5.14442 44.5243 2.66983 43.4655 0.444582 41.9982ZM21.9276 64.6605C24.0314 64.2664 26.5236 64.8196 28.8136 65.3279C29.5519 65.4918 30.2691 65.651 30.9456 65.7723L31.1524 65.8084C34.5169 66.3788 37.8741 67.0683 41.2759 67.4049C44.5234 67.7269 47.84 67.7846 51.088 67.4224C52.6477 67.2481 54.1939 66.9518 55.7092 66.5541C56.3574 66.384 57.0003 66.1941 57.6356 65.9834L57.7074 65.9567C57.8122 65.9147 57.957 65.8466 58.1185 65.7708C58.6763 65.5086 59.4328 65.1531 59.4212 65.4577C59.7761 65.0604 60.2648 64.7786 60.8014 64.6416C61.5586 64.4483 62.5307 64.6296 63.1644 65.1494C63.9887 64.5157 65.2254 64.9703 65.7782 65.7291C66.603 66.8612 66.4767 68.1628 66.3493 69.4762C66.3302 69.6724 66.3112 69.8689 66.2952 70.0652L66.285 70.1983C66.1809 71.6213 66.0216 73.0346 65.8251 74.4469L65.7387 75.0522C65.433 77.1412 65.349 80.5866 62.7409 81.2713C60.6781 81.8133 58.7906 79.7533 57.4608 78.1186L56.733 77.2131C55.871 76.1516 55.0885 75.0589 54.4579 73.8522C54.1705 73.3031 53.8928 72.7405 53.6523 72.1705C53.622 72.0986 53.5998 72.0342 53.5767 71.9694C49.7515 72.4691 45.8357 72.3976 42.0005 71.9069C39.5723 71.596 37.1802 71.147 34.8242 70.5438L33.7612 72.4087C32.5173 74.5834 31.2556 76.7515 29.9295 78.877L29.8265 79.0389C28.5851 80.9558 26.5064 82.8758 24.0489 81.44C21.8497 80.1548 21.7561 77.2313 21.5244 75.05C21.3697 73.5928 21.2443 72.1256 21.1841 70.6604L21.1623 70.0327C21.1547 69.7594 21.1398 69.4778 21.1246 69.1917C21.0608 67.9902 20.9928 66.7096 21.4473 65.6364C21.529 65.4428 21.8156 65.2939 21.9882 65.4975C23.1639 66.8848 23.5195 69.0349 24.0274 70.7374C24.5928 72.6318 25.4118 74.7007 25.7057 76.6658L25.7877 76.5273C26.0772 75.9936 26.3724 75.4628 26.6692 74.9327L27.5592 73.3425C28.3575 71.9069 29.1703 70.4802 29.9904 69.0568C29.054 68.7153 28.1262 68.3484 27.2021 67.9755L25.1048 67.1245C23.9069 66.6334 22.6854 66.0791 21.7849 65.1855C21.6253 65.0273 21.6809 64.7063 21.9276 64.6605ZM55.3328 71.6995C57.509 71.3094 59.6464 70.7211 61.7128 69.9057C61.6963 70.4851 61.6848 71.064 61.6365 71.6277C61.5444 72.6973 61.4566 73.7677 61.3461 74.8359C61.3258 75.0336 61.3043 75.2311 61.2822 75.4286L61.1455 76.613C61.1407 76.6547 61.1318 76.7086 61.1205 76.7707L61.0511 77.1309C59.768 76.333 58.5105 74.9603 57.6735 74.1267L57.3455 73.7995C56.799 73.2532 56.2558 72.7007 55.7437 72.1255C55.6132 71.9788 55.4732 71.8392 55.3328 71.6995Z" transform="translate(16.8779 13.77556)" id="ðŸ–-Ink" fill="#000000" fill-rule="evenodd" stroke="none" />
  </g>
</svg>