<?xml version="1.0" encoding="utf-8"?>
<svg width="111px" height="110px" viewBox="0 0 111 110" version="1.1" xmlns:xlink="http://www.w3.org/1999/xlink" xmlns="http://www.w3.org/2000/svg">
  <desc>Created with Lunacy</desc>
  <defs>
    <rect width="110.859833" height="109.087975" id="artboard_1" />
    <clipPath id="clip_1">
      <use xlink:href="#artboard_1" clip-rule="evenodd" />
    </clipPath>
  </defs>
  <g id="face/Smile-LOL" clip-path="url(#clip_1)">
    <use xlink:href="#artboard_1" stroke="none" fill="#FFFFFF" />
    <path d="M2.40847 7.46237C3.74267 4.53918 9.74901 0 9.74901 0C9.74901 0 11.5721 10.0438 10.1584 13.1412C8.99286 15.6948 4.79586 20.3032 1.71817 19.0074C-1.35952 17.7116 0.215429 12.2673 2.40847 7.46237Z" transform="translate(18.91924 54.94395)" id="eye" fill="#FFFFFF" stroke="none" />
    <path d="M1.97978 6.30669C3.07651 3.8362 8.01379 0 8.01379 0C8.01379 0 9.51237 8.48834 8.35028 11.1061C7.39222 13.2642 3.94225 17.1589 1.41236 16.0638C-1.11753 14.9686 0.177084 10.3674 1.97978 6.30669Z" transform="matrix(-1 0 0 1 97.9763 53.45462)" id="eye" fill="#FFFFFF" stroke="none" />
    <path d="M4.95573e-16 0L33.694 0L35.7098 5.40452C35.7098 5.40452 10.5666 11.0682 1.73781 7.4225L4.95573e-16 0Z" transform="translate(44.86283 74.17648)" id="teeth" fill="#FFFFFF" stroke="none" />
    <path d="M60.8499 0.176178L60.2987 0.0666873C59.6507 -0.0593058 58.9988 -0.00600334 58.4261 0.220094C57.8644 0.441877 57.3753 0.8281 57.0334 1.38532C56.5787 2.1273 56.5181 2.74998 56.729 3.57245C56.8918 4.20797 57.2488 4.68609 57.7161 5.03142C58.2084 5.39523 58.8324 5.60751 59.4805 5.68132C62.4704 6.02219 65.4146 6.66055 68.2771 7.56674C69.6184 7.99146 70.8841 8.56678 72.1386 9.16383L73.22 9.6809C74.2173 10.1543 75.2475 10.6106 76.5495 10.9417C76.6518 10.9678 76.753 10.9923 76.8532 11.0155C77.2143 10.9054 77.2755 10.7721 77.3521 10.6755L77.3831 10.6378C77.4761 10.5245 77.5904 10.3512 77.4822 9.54262C74.6417 3.82408 66.8483 1.39313 60.8499 0.176178ZM21.7069 1.79832L22.4271 1.67598C24.655 1.30201 27.4251 0.94267 29.0011 2.68108C29.8369 3.60293 30.1246 5.31632 29.0011 6.1987C27.5297 7.3546 25.9426 7.31641 24.2503 7.27569C23.6696 7.26171 23.0765 7.24744 22.4715 7.28102C20.5197 7.38973 18.6439 7.70322 16.7639 8.22483C12.6395 9.36896 9.27876 11.4576 5.75618 13.7511C5.29394 14.0519 4.82211 13.4782 5.04268 13.0586C7.07614 9.19285 11.0168 6.01738 14.9641 4.08172C17.0708 3.04855 19.3762 2.19149 21.7069 1.79832ZM75.4025 23.5904C75.5018 23.6262 75.602 23.5175 75.5728 23.4251C74.3553 19.5806 69.7686 17.9622 65.9192 18.2827C63.537 18.4812 61.3475 19.3267 59.5415 20.8703C57.8191 22.3428 56.4777 25.1292 58.0366 27.1665C59.6397 29.2612 62.9302 28.5839 63.1178 25.831C63.239 24.0458 66.4041 22.9441 68.0075 22.6693C70.4974 22.243 73.0733 22.7524 75.4025 23.5904ZM29.6446 28.3048C28.4792 28.9653 27.2337 28.6451 26.2409 27.8785C24.9068 26.8487 24.2723 25.1945 22.807 24.2585C21.5672 23.4662 19.9054 23.4245 18.48 23.6535C15.1281 24.1919 12.4935 26.2913 9.43205 27.5177C9.0028 27.6898 8.75155 27.1555 8.89578 26.8409C10.7501 22.7961 14.6217 19.1883 19.2272 18.4657C24.0433 17.7099 29.2537 20.7885 30.935 25.2262C31.3593 26.3457 30.6546 27.7322 29.6446 28.3048ZM82.8771 45.7743C82.0715 42.7999 79.8889 40.0087 78.29 37.3932C77.384 35.911 76.4775 34.4284 75.5715 32.9463C74.7901 31.6681 74.1932 30.2742 72.7781 29.588C71.9522 29.1877 71.0005 29.677 70.9652 30.5977C70.943 31.1766 71.0684 31.7552 71.2817 32.3271C70.9602 33.536 70.8739 34.8454 70.6234 36.051C70.1976 38.0998 69.6932 40.2306 69.643 42.3286C69.5471 46.3365 71.2349 51.4678 75.7809 52.4529C80.1374 53.3971 84.0678 50.1706 82.8771 45.7743ZM52.0715 44.32C55.1876 40.0833 50.774 36.0984 47.8773 34.3895C47.1183 33.8608 47.7207 32.1095 49.3424 32.3802C64.0714 34.8363 56.4397 59.4614 37.6343 45.9482C35.3954 44.1952 38.1067 40.3341 40.5198 41.8354C40.6422 41.9264 40.7705 42.0227 40.9043 42.1231C43.6154 44.1575 48.5759 47.8799 52.0715 44.32ZM12.4071 34.3928C13.1409 34.016 13.8271 34.5038 13.9223 35.2365C14.0302 36.0659 13.8229 36.9166 13.6142 37.7724C13.4529 38.4344 13.2908 39.0994 13.2732 39.7601C13.2521 40.5479 13.2842 41.3353 13.3163 42.1227C13.3502 42.9545 13.3841 43.7863 13.3553 44.6184C13.2575 47.4476 12.3867 50.288 10.7027 52.618C8.69268 55.3988 3.39097 58.4357 0.860761 54.4103C-0.958644 51.5159 0.471409 47.2946 1.79559 44.5019C2.83399 42.3127 4.34421 40.2884 6.03588 38.5303C6.11017 38.4531 6.18986 38.3695 6.27443 38.2807C7.47165 37.0245 9.64818 34.7405 11.3472 34.9881C11.417 34.9982 11.4485 35.0797 11.435 35.1386C11.4227 35.1903 11.4024 35.2361 11.3859 35.2852C11.6491 34.9215 11.9801 34.6117 12.4071 34.3928ZM79.1723 49.2178C77.7936 50.2122 75.7322 49.8217 74.5457 48.7676C71.7424 46.2776 72.0949 42.0027 72.5924 38.7111C72.7186 37.8749 72.9906 36.7423 73.1724 35.565C73.4743 36.0006 73.7655 36.4228 74.0117 36.8257C75.3716 39.0495 76.7406 41.2666 78.1308 43.473C78.217 43.6098 78.3131 43.7577 78.415 43.9144C79.425 45.468 81.0041 47.8968 79.1723 49.2178ZM6.29076 53.1403C8.34762 51.9702 9.56094 49.473 10.1371 47.3255C10.6022 45.5914 10.5338 43.8387 10.4651 42.0781C10.4389 41.4066 10.4127 40.7341 10.416 40.061C10.4217 38.8156 10.4451 37.1722 11.0232 35.913C10.7006 36.2864 10.2622 36.585 9.89083 36.9503C9.101 37.7269 8.31616 38.5065 7.60804 39.3558C6.31723 40.9035 5.2516 42.6329 4.40653 44.4453C3.39882 46.6055 1.73937 50.3089 2.92277 52.7107C3.55725 53.9978 5.18984 53.7669 6.29076 53.1403ZM63.5588 53.5489C59.7224 53.3294 54.3389 53.3746 49.9059 53.4119C48.8515 53.4208 47.8508 53.4292 46.9375 53.4335C42.1732 53.4518 37.4051 53.4518 32.637 53.5042C30.3699 53.5299 28.099 53.5862 25.8281 53.6308C25.7022 53.6331 25.5747 53.6345 25.4462 53.6359C23.8956 53.6524 22.2078 53.6705 21.5702 55.3174C21.13 56.4622 21.4051 57.9783 21.6322 59.2302C21.6644 59.4074 21.6956 59.5794 21.7236 59.7442C22.019 61.4867 22.5522 63.1658 23.281 64.7854C24.6313 67.7899 26.7027 70.4892 29.4378 72.4364C35.7326 76.9228 45.0541 76.4686 52.1123 74.0672C59.719 71.4796 66.6084 64.8003 65.6993 56.4269C65.6034 55.5259 64.9283 53.6271 63.5588 53.5489ZM47.1104 61.076C41.4792 61.3255 31.9429 60.8999 30.8151 60.4665C29.6874 60.0328 28.639 57.5353 29.0429 56.3223C29.626 56.3372 30.2014 56.3487 30.7499 56.3372C34.3941 56.259 57.9854 56.0956 60.122 55.8718C60.4864 55.8349 60.9107 56.7106 60.9107 57.6801C60.9107 58.6493 50.9502 60.9085 47.1104 61.076Z" transform="translate(17.64516 19.36043)" id="ðŸ–-Ink" fill="#000000" fill-rule="evenodd" stroke="none" />
  </g>
</svg>