<?xml version="1.0" encoding="utf-8"?>
<svg width="111px" height="110px" viewBox="0 0 111 110" version="1.1" xmlns:xlink="http://www.w3.org/1999/xlink" xmlns="http://www.w3.org/2000/svg">
  <desc>Created with Lunacy</desc>
  <defs>
    <rect width="110.859833" height="109.087975" id="artboard_1" />
    <clipPath id="clip_1">
      <use xlink:href="#artboard_1" clip-rule="evenodd" />
    </clipPath>
  </defs>
  <g id="face/Blank" clip-path="url(#clip_1)">
    <use xlink:href="#artboard_1" stroke="none" fill="#FFFFFF" />
    <path d="M53.5507 1.3275C52.0398 -0.723579 47.9257 -0.42126 47.3748 2.39753C46.3822 7.47788 51.9464 7.63245 55.8812 7.74175C56.2123 7.75094 56.5318 7.75982 56.8349 7.77128L57.7438 7.811C62.1762 7.98947 66.5081 7.73045 70.9139 7.17394C71.2266 7.13411 71.3159 6.7335 70.9906 6.62515C67.834 5.57635 64.7008 4.45121 61.4901 3.56362C59.9396 3.13508 58.3925 2.69277 56.8466 2.24786C55.9594 1.99245 54.5274 1.6529 53.5507 1.3275ZM28.2006 1.87671C30.2797 1.14363 32.4405 2.85925 32.7101 4.79268C33.0207 7.0207 31.365 8.48761 29.2664 8.75371L29.1611 8.76601C24.5288 9.26119 19.9313 10.1667 15.2929 10.6786C13.1862 10.9108 11.0637 11.0636 8.94293 11.1185L7.42733 11.1516C5.57009 11.1972 3.57809 11.2383 1.86347 10.6175L1.86999 10.6064C1.41466 10.4783 1.20522 9.84088 1.71195 9.49239C3.53749 8.23956 5.99828 7.76597 8.12341 7.17064C10.26 6.57159 12.4124 6.01945 14.5705 5.50082C19.1024 4.41292 23.8099 3.42479 28.2006 1.87671ZM58.8655 14.7764L58.7474 14.7879C56.6714 14.9827 53.1311 15.0373 51.695 16.6965C51.3447 17.1008 51.2922 17.5401 51.5196 18.0133C52.2737 19.5833 55.1172 19.9424 57.1659 20.1181L57.8513 20.1743C57.722 20.541 57.6131 20.9125 57.4919 21.245L57.4628 21.3296C56.8415 23.2456 58.8044 25.0319 60.6984 24.785C62.7364 24.5192 63.7399 22.439 62.8941 20.6974C64.5489 20.8455 66.2084 20.9207 67.7834 20.7659C72.074 20.344 72.0813 14.705 67.7834 14.2809C65.4544 14.0507 62.9368 14.3305 60.5389 14.5969C59.9731 14.6598 59.414 14.7219 58.8655 14.7764ZM21.7658 16.4907L22.2775 16.449C22.5255 16.4278 22.7737 16.4054 23.0223 16.3829C24.9988 16.2042 26.9897 16.0242 28.9344 16.4572C31.8755 17.1125 31.6599 21.2653 28.9344 22.0289C27.1199 22.5371 25.1573 22.4953 23.2369 22.4543L23.2367 22.4543C22.6149 22.4411 21.9975 22.4279 21.391 22.4336C21.0009 22.4373 20.6115 22.447 20.2218 22.4533C20.1451 23.3532 19.8409 24.1291 19.3752 24.9043C19.0414 25.4605 18.6157 25.9888 18.1968 26.4829C17.2009 27.6572 14.8522 27.6307 13.8471 26.4829C13.1037 25.6333 12.5118 24.6559 12.5023 23.5058C12.5 23.2113 12.5368 22.8986 12.6093 22.5911L11.2559 22.614C7.94351 22.6631 4.60581 22.6413 1.35336 22.1305C0.196424 22.3628 -0.750296 20.3367 0.846623 19.7302C5.1878 18.0823 10.0376 17.5972 14.6443 17.1024C17.0114 16.8478 19.3917 16.6724 21.7658 16.4907ZM49.7716 42.8309C52.8877 38.5943 48.4741 34.6093 45.5774 32.9004C44.8184 32.3717 45.4208 30.6205 47.0425 30.8911C61.7715 33.3473 54.1398 57.9724 35.3344 44.4592C33.0955 42.7062 35.8068 38.8451 38.2199 40.3463C38.3423 40.4374 38.4706 40.5337 38.6044 40.6341C41.3155 42.6685 46.276 46.3909 49.7716 42.8309ZM50.0465 58.8497C50.2671 58.6598 50.0327 58.3128 49.7665 58.3828C48.8408 58.6256 47.8212 58.5012 46.8761 58.6967C45.952 58.888 45.0678 59.2179 44.2166 59.6122C42.2875 60.5069 40.5628 61.7281 39.0226 63.1626C37.2619 64.8026 35.5292 67.0134 35.5917 69.4945C35.6712 72.6484 38.5259 75.3004 41.8532 74.3268C43.7984 73.7575 45.5231 71.4942 44.7014 69.4577L44.6774 69.3966C44.5944 69.1813 44.4818 68.8529 44.3378 68.5202L44.4329 68.2849C44.9139 67.1184 45.5108 66.0201 46.1288 64.9177C46.68 63.934 47.2842 63.004 47.911 62.0643C48.57 61.0765 49.1435 59.6275 50.0465 58.8497ZM43.4951 67.3742C43.7694 67.4859 44.0036 67.7588 44.2007 68.0775C44.1023 67.8072 43.8992 67.5384 43.4951 67.3742Z" transform="translate(19.94788 20.84952)" id="ðŸ–-Ink" fill="#000000" fill-rule="evenodd" stroke="none" />
  </g>
</svg>