<?xml version="1.0" encoding="utf-8"?>
<svg width="111px" height="110px" viewBox="0 0 111 110" version="1.1" xmlns:xlink="http://www.w3.org/1999/xlink" xmlns="http://www.w3.org/2000/svg">
  <desc>Created with Lunacy</desc>
  <defs>
    <rect width="110.859833" height="109.087975" id="artboard_1" />
    <clipPath id="clip_1">
      <use xlink:href="#artboard_1" clip-rule="evenodd" />
    </clipPath>
  </defs>
  <g id="face/Loving-Grin-1" clip-path="url(#clip_1)">
    <use xlink:href="#artboard_1" stroke="none" fill="#FFFFFF" />
    <path d="M0 5.26257C0 5.26257 5.43501 9.33504 15.5705 9.33504C25.7061 9.33504 31.5934 5.69176 31.5934 5.69176C31.5934 5.69176 22.7092 0.453761 15.5705 0.0295863C8.43188 -0.394589 0 5.26257 0 5.26257Z" transform="translate(49.01672 86.57888)" id="tongue" fill="#FF6C6C" stroke="none" />
    <path d="M21.7529 2.61931C22.8734 4.03113 21.677 6.33836 20.0409 6.70323C18.0148 7.15559 15.9679 6.88045 13.9786 7.44152C12.1557 7.95569 10.4096 8.98588 8.84716 10.0127C7.06535 11.1833 5.42431 12.4901 3.91639 13.979C3.01954 14.8647 1.88946 16.9631 0.506204 17.0022C-0.815194 17.0397 0.837379 13.1874 1.10415 12.5655C1.11501 12.5402 1.12358 12.5202 1.12955 12.5061C2.21398 9.93528 3.73725 7.5696 5.64258 5.4973C9.40223 1.40818 17.3646 -2.90657 21.7529 2.61931ZM64.6771 1.74238L63.7386 1.48933C61.5591 0.910649 59.447 0.474926 57.2821 1.4542C55.7021 2.16905 55.2924 4.06003 55.5678 5.54333L55.6092 5.7682L55.6308 5.87457C56.1091 8.0454 58.5907 8.52552 60.428 7.94587C63.0412 7.86997 66.0448 8.7045 68.4726 9.49821L68.935 9.65107C71.4419 10.488 73.1891 12.4888 75.546 13.4907C75.7546 13.5793 76.014 13.5578 76.1363 13.3407C77.9078 10.1901 74.37 6.57873 71.8686 4.76882L71.6275 4.59759L71.471 4.49005C69.4786 3.13892 66.9994 2.36898 64.6771 1.74238ZM53.2463 18.8611C56.3774 16.2682 60.3044 18.1791 62.6095 20.8052L63.0158 21.2747C63.4768 21.8105 63.9875 22.4345 64.2943 23.1017C66.8487 20.9907 70.3126 19.5052 73.6273 20.4695C76.8419 21.4081 78.6751 24.3866 78.1231 27.5844C77.4967 31.2208 74.6618 33.665 71.6159 35.555L70.7521 36.0874C67.0917 38.3522 63.6665 40.6338 60.654 43.7469C60.1626 44.2529 59.1004 44.1859 58.7782 43.5123L58.5188 42.9703L58.2565 42.4285C56.1195 38.0058 53.8298 33.6121 51.9498 29.0852C50.5573 25.7303 50.1051 21.4598 53.2463 18.8611ZM27.2779 18.8612C24.2126 16.3481 20.3267 18.0831 18.0328 20.6744L17.5558 21.2097C17.0599 21.7734 16.5348 22.4178 16.2299 23.1019C13.6713 20.9872 10.2151 19.5128 6.89311 20.4693C3.67472 21.3967 1.85263 24.3938 2.39734 27.5846C3.03412 31.2816 5.96097 33.7426 9.05699 35.6489L10.1217 36.3064C13.649 38.4995 16.9514 40.731 19.8702 43.7467C20.3578 44.253 21.4238 44.186 21.7464 43.5121C21.9186 43.151 22.0913 42.7899 22.2677 42.4287L22.6873 41.563C24.6519 37.5239 26.6967 33.4969 28.4475 29.3791C29.9013 25.965 30.5419 21.5382 27.2779 18.8612ZM44.7416 35.489C43.1199 35.2183 42.5176 36.9696 43.2765 37.4983C46.1732 39.2072 50.5869 43.1921 47.4707 47.4288C44.1695 50.7908 39.5616 47.6577 36.7759 45.5853L35.9191 44.9442C33.5059 43.4429 30.7947 47.304 33.0336 49.057C51.839 62.5702 59.4706 37.9451 44.7416 35.489ZM21.8672 60.9741C18.388 60.4272 14.7254 61.1346 14.6853 65.2367C14.6541 68.9696 17.5744 72.4116 20.3605 74.6816C22.1672 76.153 24.211 77.3511 26.4021 78.3106C33.1416 81.2619 41.2988 81.9477 48.3156 81.314C51.6253 81.0147 54.8225 80.1159 57.7202 78.5969C58.0513 78.5622 58.3378 78.3928 58.5342 78.1497C59.1603 77.7938 59.7687 77.4032 60.3636 76.9866C63.3062 74.9076 66.991 71.5955 67.385 67.8541C67.8134 63.8137 64.0701 62.0566 60.5229 61.7232L60.2919 61.7035C58.2061 61.5446 56.0787 61.6454 53.9692 61.7454C53.1435 61.7846 52.3206 61.8236 51.504 61.8468C48.1767 61.9421 44.7961 61.8859 41.4868 62.2329C41.1108 62.272 40.8339 62.45 40.6682 62.6845L39.6394 62.667C33.6694 62.5498 27.7574 61.899 21.8672 60.9741ZM42.7169 72.6261C39.904 72.5438 37.0956 72.9258 34.4166 73.768C32.601 74.3365 30.9462 75.43 29.2066 76.1899C35.0695 78.3601 41.8806 78.8333 47.8954 78.4383C50.5342 78.2648 53.0924 77.6743 55.4761 76.6586C55.1048 76.3984 54.7289 76.1336 54.3353 75.9032C53.1461 75.2043 51.9025 74.6098 50.6056 74.1366C48.0792 73.2166 45.4136 72.7087 42.7169 72.6261Z" transform="translate(22.2506 16.25159)" id="ðŸ–-Ink" fill="#000000" fill-rule="evenodd" stroke="none" />
  </g>
</svg>