<?xml version="1.0" encoding="utf-8"?>
<svg width="111px" height="110px" viewBox="0 0 111 110" version="1.1" xmlns:xlink="http://www.w3.org/1999/xlink" xmlns="http://www.w3.org/2000/svg">
  <desc>Created with Lunacy</desc>
  <defs>
    <rect width="110.859833" height="109.087975" id="artboard_1" />
    <clipPath id="clip_1">
      <use xlink:href="#artboard_1" clip-rule="evenodd" />
    </clipPath>
  </defs>
  <g id="face/Driven" clip-path="url(#clip_1)">
    <use xlink:href="#artboard_1" stroke="none" fill="#FFFFFF" />
    <path d="M69.9252 0.00580378L69.6733 0.00043205C67.2208 -0.021917 64.939 0.82657 62.6806 1.66641C62.4709 1.74438 62.2614 1.82227 62.0521 1.89939L60.5192 2.45806C58.6533 3.12812 56.4317 3.80775 54.625 3.13696L54.5242 3.10138C52.3004 2.35622 49.7329 4.09121 49.1484 6.15568C48.4913 8.47594 49.9543 10.7731 52.2578 11.4712C57.0119 12.9121 61.8794 10.7125 66.1841 8.76721C66.271 8.72795 66.3577 8.6888 66.4441 8.64978L67.6886 8.09176C68.1377 7.88764 68.6072 7.65896 69.0917 7.42297C72.2628 5.87851 76.0762 4.02117 79.0115 6.68847C79.1668 6.82995 79.4288 6.69107 79.3721 6.48481C78.2734 2.51036 74.0404 0.144305 69.9252 0.00580378ZM19.3286 2.89209C21.9593 2.77003 24.3819 3.49337 26.8188 4.22097C28.039 4.58532 29.2628 4.95073 30.5182 5.21161C33.9951 5.93464 37.4207 5.50052 40.8021 4.58091C46.2898 3.0883 48.5584 11.242 43.1455 12.831C39.2036 13.9882 35.0531 14.0686 31.008 13.4721C27.4149 12.942 24.4029 11.2442 20.977 10.2557C18.0369 9.40783 14.5782 9.76021 11.4733 10.1594L10.2681 10.3168C8.47666 10.551 6.67566 10.7859 4.90191 11.1258C3.36291 11.4211 1.8266 11.9613 0.255769 12.0238C0.0773963 12.0313 -0.0737412 11.8064 0.038653 11.6564C1.86339 9.22494 5.38025 7.30644 8.17774 6.02685L8.36733 5.9406C11.8205 4.378 15.4838 3.07006 19.3286 2.89209ZM69.7287 20.8211L69.7292 20.7372C69.7238 18.363 68.2991 12.9423 64.7776 12.9423C62.6327 12.9423 61.3094 16.4493 61.0303 20.1495L61.0108 20.4345C60.8719 22.7191 61.4971 28.1221 64.7776 28.1221C68.02 28.1221 69.6953 23.2272 69.7287 20.8211ZM17.8822 20.7372L17.8827 20.8211C17.916 23.2272 19.5913 28.1221 22.8337 28.1221C26.0421 28.1221 26.7106 22.954 26.6085 20.5896L26.6005 20.4345C26.3693 16.6315 25.0336 12.9423 22.8337 12.9423C19.3122 12.9423 17.8875 18.3631 17.8822 20.7372ZM53.9919 36.5014C57.1081 32.2647 52.6945 28.2798 49.7978 26.5708C49.0388 26.0422 49.6412 24.2909 51.2629 24.5616C65.9918 27.0177 58.3602 51.6428 39.5548 38.1296C37.3159 36.3766 40.0272 32.5155 42.4403 34.0167C42.5627 34.1078 42.691 34.2041 42.8248 34.3045C45.5359 36.3389 50.4964 40.0613 53.9919 36.5014ZM52.8859 61.7732C50.2824 62.7665 47.2065 63.0012 44.5193 62.1548C41.9498 61.3453 39.6166 59.5438 38.2048 57.2781C36.9474 55.2602 36.4222 52.8654 37.1654 50.4781C37.201 50.3638 37.3163 50.2907 37.4275 50.2622C38.0355 50.7995 38.4112 51.333 38.7865 51.864C39.4192 52.7592 40.0533 53.6452 40.9238 54.4105C42.1903 55.5239 43.8967 56.4282 45.5902 56.7265C47.2483 57.0191 48.9454 56.7605 50.4301 55.9902C51.333 55.5221 52.0631 54.8961 52.786 54.2673C53.5732 53.5826 54.3479 52.8875 55.432 52.5009C56.3008 52.191 57.2135 52.4525 57.9145 52.9709C58.6681 53.528 59.2099 54.4001 59.1799 55.3118C59.1333 56.7244 58.4963 57.9027 57.5719 58.8749C56.3222 60.1892 54.5552 61.1362 52.8859 61.7732Z" transform="translate(15.72747 24.20057)" id="ðŸ–-Ink" fill="#000000" fill-rule="evenodd" stroke="none" />
  </g>
</svg>