<?xml version="1.0" encoding="utf-8"?>
<svg width="111px" height="110px" viewBox="0 0 111 110" version="1.1" xmlns:xlink="http://www.w3.org/1999/xlink" xmlns="http://www.w3.org/2000/svg">
  <desc>Created with Lunacy</desc>
  <defs>
    <rect width="110.859833" height="109.087975" id="artboard_1" />
    <clipPath id="clip_1">
      <use xlink:href="#artboard_1" clip-rule="evenodd" />
    </clipPath>
  </defs>
  <g id="face/Hectic" clip-path="url(#clip_1)">
    <use xlink:href="#artboard_1" stroke="none" fill="#FFFFFF" />
    <path d="M0 8.32127C0 1.47368 10.3834 4.72104e-16 19.3458 0C28.3082 0 38.3793 2.00726 38.3793 8.32127C38.3793 14.6353 27.8194 15.6432 21.2442 15.6432C14.669 15.6432 4.36275e-16 15.1689 0 8.32127Z" transform="translate(38.65072 77.74002)" id="teeth" fill="#FFFFFF" stroke="none" />
    <path d="M14.5767 23.8281C22.6272 23.8281 29.1535 18.494 29.1535 11.914C29.1535 5.3341 22.6272 0 14.5767 0C6.52622 0 0 5.3341 0 11.914C0 18.494 6.52622 23.8281 14.5767 23.8281Z" transform="translate(24.16642 30.90205)" id="eye" fill="#FFFFFF" stroke="none" />
    <path d="M12.0833 23.8281C18.7568 23.8281 24.1667 18.494 24.1667 11.914C24.1667 5.3341 18.7568 0 12.0833 0C5.4099 0 0 5.3341 0 11.914C0 18.494 5.4099 23.8281 12.0833 23.8281Z" transform="translate(69.04704 30.90205)" id="eye" fill="#FFFFFF" stroke="none" />
    <path d="M54.3937 0.464238C56.5438 -0.121412 58.929 -0.109498 61.1132 0.258348C63.2966 0.626194 65.5134 1.50448 67.296 2.78561L67.5029 2.93562C69.449 4.35892 71.7712 6.42977 71.6468 8.95113C71.5428 11.0566 69.2608 12.4807 67.2906 11.3771C65.6845 10.4772 64.9288 8.6745 63.569 7.47416C62.4469 6.48344 61.1289 5.70232 59.7226 5.15502C58.1606 4.54703 56.5959 4.26221 54.9196 4.23503C54.1305 4.22229 53.3384 4.37096 52.5526 4.51848C52.053 4.61226 51.5559 4.70557 51.0637 4.75664C51.168 4.9644 50.1668 4.86759 49.593 4.6833C49.1679 4.50757 49.1656 3.98595 49.3129 3.64752C50.0437 1.97099 52.7024 0.924418 54.3937 0.464238ZM19.1927 0.612608C14.5017 -0.858405 8.18036 2.02815 4.70151 5.01708C2.43867 6.96093 -1.33325 12.1376 1.25834 14.9828C1.50729 15.2568 1.9281 15.2531 2.23881 15.1053C3.42106 14.5438 4.2527 13.2623 5.07015 12.2884C6.10778 11.0527 7.50945 10.2101 8.99973 9.53585C12.5484 7.93118 16.5681 8.56114 20.0546 7.01306C23.0655 5.67608 21.8898 1.45813 19.1927 0.612608ZM8.53755 16.6473C12.6539 9.70366 22.8381 9.62361 28.6646 14.9261C34.2275 19.9892 34.9157 28.6273 30.4725 34.5485C25.7369 40.8593 16.5379 42.605 9.07804 40.3559C2.08505 38.2475 -1.67383 30.8835 0.723278 24.1364C2.01984 20.487 5.00423 17.9638 8.53755 16.6473ZM67.3565 14.3609C64.3422 12.3116 60.3378 11.5517 56.7362 12.2457C53.046 12.9572 50.5833 15.203 49.2836 18.5602C49.2572 18.6279 49.2415 18.6938 49.2273 18.759C47.3787 20.653 46.1293 23.1586 45.8251 25.9387C45.1097 32.4691 50.24 38.9511 56.872 40.1015C63.3686 41.2285 70.1817 37.476 72.6743 31.5774C75.1861 25.6341 72.7614 18.0352 67.3565 14.3609ZM23.7797 17.5844C19.6503 15.1718 13.5791 16.5189 10.0319 19.4315C9.32767 20.01 8.53285 19.8406 8.10053 19.3358C5.69307 21.2219 3.99335 23.8605 3.72023 27.0736C3.23114 32.8366 7.45954 36.6268 13.1567 37.0628C18.979 37.5084 25.0045 35.9313 27.7469 30.5167C30.1148 25.8423 28.3768 20.2699 23.7797 17.5844ZM52.1769 19.4362C55.0002 17.3304 59.6375 16.6033 62.8708 17.8338C66.9799 19.3975 69.3337 23.7729 68.8807 27.9358C68.4096 32.2639 64.4455 35.6728 60.0579 36.1204C55.317 36.604 51.0015 33.2037 49.8078 28.8386C48.9815 25.8162 50.0276 22.1258 52.1769 19.4362ZM60.1268 24.3658C60.8637 23.8557 61.7429 24.4302 62.0125 25.1104L62.1669 25.4187C62.2484 25.5836 62.3323 25.7541 62.3351 25.7605L62.3643 25.8428C62.4034 25.9139 62.4502 25.9801 62.4947 26.0475C62.5292 26.0706 62.8158 26.4187 62.8541 26.4641C63.3164 27.0181 63.5619 27.5249 63.5473 28.2539C63.5193 29.6951 62.1337 30.71 60.6972 30.3612C59.152 29.9859 58.4942 28.4348 58.635 27.0107C58.7466 25.8833 59.1697 25.0281 60.1268 24.3658ZM20.5828 24.6411C19.91 23.9888 18.8582 24.0394 18.1765 24.6411C17.0817 25.6069 16.8194 28.0046 17.6832 29.1364C18.4132 30.0918 19.5233 30.5936 20.7221 30.1029C21.9274 29.6089 22.3067 28.5038 22.131 27.3165C22.0569 26.8122 21.7684 26.4175 21.4925 26.0064L21.3669 25.815C21.1019 25.3984 20.9523 24.9992 20.5828 24.6411ZM48.238 47.2987C51.3541 43.062 46.9405 39.0771 44.0438 37.3682C43.2848 36.8395 43.8872 35.0882 45.5089 35.3589C60.2379 37.8151 52.6062 62.4401 33.8008 48.9269C31.5619 47.174 34.2732 43.3128 36.6863 44.8141C36.8087 44.9052 36.937 45.0014 37.0708 45.1018C39.7819 47.1363 44.7424 50.8587 48.238 47.2987ZM36.7794 60.9604C40.3553 59.7168 44.1506 60.1845 47.758 61.476L48.0814 61.5937C51.3952 62.8199 55.4445 64.9493 56.8002 68.2752C57.0687 68.9346 57.1945 69.6092 57.2114 70.2805C57.6544 70.3229 58.0937 70.3788 58.529 70.4529C59.4251 70.6059 59.3829 71.9879 58.529 72.1696C57.9882 72.2847 57.4373 72.3688 56.8815 72.4317C56.3675 73.9828 55.3037 75.3905 53.9604 76.3779C50.8157 78.6888 46.4818 79.1241 42.6803 79.4774C38.4766 79.8682 34.252 79.7729 30.0639 79.2786L28.5895 79.0957C25.16 78.6631 21.3359 78.107 18.42 76.3261C15.6754 74.6504 13.798 71.4146 14.96 68.2719C16.1495 65.0536 20.2272 63.6879 23.2537 62.6548C27.6026 61.17 32.2303 60.5877 36.7794 60.9604ZM30.0413 64.0882C31.8407 63.6492 33.6667 63.3357 35.5064 63.1444C35.7174 63.357 35.9955 63.5077 36.307 63.5293L36.5168 63.5439C36.3867 65.7811 36.3472 68.0194 36.4086 70.2582C34.4837 70.2183 32.5588 70.1744 30.6339 70.1286C30.6009 69.5206 30.5649 68.9123 30.5208 68.3043C30.4214 66.9234 30.5112 65.4103 30.0413 64.0882ZM37.9857 70.2909C37.5522 68.0675 37.2269 65.8284 36.9925 63.5766C39.5277 63.7498 42.0618 63.9188 44.4827 64.4374C44.5536 66.3176 44.5809 68.1989 44.5095 70.0798C44.5061 70.1696 44.5011 70.26 44.4961 70.3509C42.5904 70.3487 40.6847 70.3367 38.7793 70.3073L37.9857 70.2909ZM28.8215 64.4058C27.9803 64.6392 27.1456 64.8983 26.3189 65.1887L25.4173 65.5049C23.2438 66.2737 20.3673 67.3868 19.1556 69.1059C18.9519 69.3948 18.8296 69.6744 18.7694 69.9443C21.1271 69.7331 23.5522 69.8501 25.9532 69.9659C26.655 69.9998 27.3547 70.0336 28.0501 70.059C28.0921 69.6688 28.1354 69.2788 28.1811 68.8889L28.2515 68.3043C28.4088 67.0417 28.4073 65.6392 28.8215 64.4058ZM45.4764 64.6735C45.6886 66.5615 45.8654 68.4528 46.0265 70.3464L47.6963 70.3437C47.9746 70.343 48.2528 70.3417 48.531 70.3393C50.095 70.3252 51.7019 70.2258 53.3068 70.1841C53.1872 69.3709 52.6938 68.544 51.7847 67.7916C49.8606 66.1992 47.7262 65.2595 45.4764 64.6735ZM18.7253 70.4242C18.8289 72.2214 21.7561 73.504 23.2633 73.9262C24.7014 74.3294 26.1652 74.6563 27.644 74.9162C27.616 74.7959 27.6022 74.6775 27.6121 74.5685C27.7061 73.5543 27.7986 72.5405 27.8971 71.5278L27.1035 71.4666C24.3142 71.2581 21.4138 71.0912 18.7253 70.4242ZM30.8297 74.5684C30.7914 73.6272 30.7549 72.686 30.7123 71.7456C32.6257 71.8818 34.5395 71.9898 36.4556 72.0807C36.4774 73.2791 36.4978 74.5681 36.8806 75.6906C34.7881 75.6921 32.6898 75.5804 30.6099 75.3432C30.7557 75.1176 30.8412 74.857 30.8297 74.5684ZM38.4137 72.1685L38.5806 72.7765C38.8391 73.7292 39.0741 74.7093 39.0393 75.6496C40.0148 75.6139 40.9873 75.5573 41.9543 75.4758L43.1881 75.374C43.4685 75.3506 43.7524 75.3262 44.0384 75.3C44.1017 74.3253 44.2198 73.3376 44.325 72.3629C42.354 72.3111 40.3835 72.2493 38.4137 72.1685ZM46.4402 75.0193C46.4049 74.147 46.3213 73.2665 46.2315 72.4053L47.7652 72.441C48.0208 72.4467 48.2764 72.4519 48.532 72.4559C49.8285 72.4764 51.165 72.5423 52.5053 72.5729C52.1063 73.0166 51.5712 73.4173 50.9038 73.7486C49.5769 74.4072 48.0237 74.7799 46.4402 75.0193Z" transform="translate(21.48334 15.63706)" id="ðŸ–-Ink" fill="#000000" fill-rule="evenodd" stroke="none" />
  </g>
</svg>