<?xml version="1.0" encoding="utf-8"?>
<svg width="111px" height="110px" viewBox="0 0 111 110" version="1.1" xmlns:xlink="http://www.w3.org/1999/xlink" xmlns="http://www.w3.org/2000/svg">
  <desc>Created with Lunacy</desc>
  <defs>
    <rect width="110.859833" height="109.087975" id="artboard_1" />
    <clipPath id="clip_1">
      <use xlink:href="#artboard_1" clip-rule="evenodd" />
    </clipPath>
  </defs>
  <g id="face/Serious" clip-path="url(#clip_1)">
    <use xlink:href="#artboard_1" stroke="none" fill="#FFFFFF" />
    <path d="M63.7985 7.04914C68.4757 7.0685 68.4715 -0.136891 63.7985 0.00198196C52.9649 0.323289 42.1087 0.353819 31.2863 0.942075C26.0003 1.2295 20.6928 1.62862 15.4525 2.37027C12.7301 2.75562 10.0365 3.20686 7.3413 3.74336L7.14922 3.78068C4.88912 4.20948 1.97331 4.4202 0.0966667 5.72221C-0.0115079 5.79705 -0.0514021 5.98842 0.0966667 6.05357C1.64385 6.73965 3.56707 6.73808 5.36645 6.73661C5.93109 6.73614 6.48353 6.73569 7.00834 6.7565C7.88562 6.7915 8.76215 6.82426 9.63943 6.8574C9.52474 7.31869 9.44763 7.79563 9.35404 8.20629C8.98195 9.84708 8.62673 11.7485 8.91904 13.4369C8.94129 13.5672 8.97044 13.6968 9.00305 13.8256C9.00389 13.8513 9.00392 13.8775 9.00394 13.9036C9.00398 13.9369 9.00401 13.9702 9.00573 14.0025C9.05138 14.9526 9.38741 16.0048 10.2666 16.5297C10.4101 16.6157 10.5535 16.6697 10.6959 16.7025C10.9993 17.0152 11.3756 17.255 11.7857 17.4356C12.297 17.6605 12.8939 17.9144 13.472 17.8675C13.8479 18.0097 14.2357 18.1098 14.5894 18.1059C15.2557 18.0976 15.7628 17.8328 16.1568 17.4326C16.3654 17.3403 16.563 17.21 16.7655 17.0272C17.4395 16.4169 17.6977 15.6071 17.9021 14.7612L17.9048 14.7464C18.3387 14.0334 18.565 13.1324 18.6881 12.3758C18.8569 11.3404 18.8746 10.2209 18.7273 9.18138C18.6409 8.57563 18.5247 7.86823 18.2504 7.3079C18.2063 7.21742 18.1522 7.13849 18.0982 7.05919C21.1402 7.08676 24.183 7.07867 27.2254 7.07057C28.5792 7.06697 29.9328 7.06337 31.2863 7.06291L38.056 7.05599C42.5691 7.04885 47.0823 7.03834 51.5955 7.03462C51.6277 7.16456 51.6672 7.29375 51.7224 7.42145L51.892 7.81127C51.0676 10.7913 51.5276 14.0777 53.8606 16.325C55.212 17.6266 57.5255 17.3373 58.4922 15.7456C59.9575 13.3342 60.4209 9.91074 59.6096 7.03983C61.0059 7.04281 62.4022 7.04318 63.7985 7.04914ZM43.6569 22.4755C46.5536 24.1845 50.9672 28.1694 47.851 32.4061C44.3555 35.966 39.395 32.2436 36.6839 30.2092C36.5501 30.1088 36.4218 30.0125 36.2994 29.9214C33.8863 28.4202 31.175 32.2813 33.4139 34.0343C52.2193 47.5475 59.851 22.9224 45.122 20.4662C43.5003 20.1956 42.8979 21.9469 43.6569 22.4755ZM39.5053 65.7217L38.687 65.9328C35.8878 66.6639 33.1544 67.5556 30.4969 68.6863C30.1313 68.842 30.2107 69.4909 30.6131 69.5475C33.6654 69.9768 36.7265 70.1261 39.8106 70.0848L39.9612 70.0832C40.4073 70.0797 40.8594 70.0865 41.3132 70.0933L41.3136 70.0933C43.9779 70.1334 46.7024 70.1744 48.6391 68.1435C49.4378 67.3058 49.2855 66.0113 48.2751 65.4025C45.8395 63.9352 43.2198 64.677 40.6494 65.4049C40.2667 65.5132 39.885 65.6213 39.5053 65.7217Z" transform="translate(21.86463 31.27435)" id="ðŸ–-Ink" fill="#000000" fill-rule="evenodd" stroke="none" />
  </g>
</svg>