<?xml version="1.0" encoding="utf-8"?>
<svg width="111px" height="110px" viewBox="0 0 111 110" version="1.1" xmlns:xlink="http://www.w3.org/1999/xlink" xmlns="http://www.w3.org/2000/svg">
  <desc>Created with Lunacy</desc>
  <defs>
    <rect width="110.859833" height="109.087975" id="artboard_1" />
    <clipPath id="clip_1">
      <use xlink:href="#artboard_1" clip-rule="evenodd" />
    </clipPath>
  </defs>
  <g id="face/Smile" clip-path="url(#clip_1)">
    <use xlink:href="#artboard_1" stroke="none" fill="#FFFFFF" />
    <path d="M53.9446 0.176178L53.3934 0.0666873C52.7453 -0.0593058 52.0934 -0.00600334 51.5208 0.220094C50.9591 0.441877 50.4699 0.8281 50.128 1.38532C49.6734 2.1273 49.6127 2.74998 49.8237 3.57245C49.9865 4.20797 50.3434 4.68609 50.8107 5.03142C51.303 5.39523 51.9271 5.60751 52.5751 5.68132C55.565 6.02219 58.5093 6.66055 61.3717 7.56674C62.7131 7.99146 63.9787 8.56678 65.2333 9.16383L66.3146 9.6809C67.312 10.1543 68.3421 10.6106 69.6442 10.9417C69.7465 10.9678 69.8477 10.9923 69.9479 11.0155C70.309 10.9054 70.3701 10.7721 70.4468 10.6755L70.4777 10.6378C70.5707 10.5245 70.6851 10.3512 70.5769 9.54262C67.7363 3.82408 59.943 1.39313 53.9446 0.176178ZM16.7202 1.79835L17.4404 1.67601C19.6682 1.30204 22.4383 0.942698 24.0143 2.68111C24.8502 3.60296 25.1379 5.31635 24.0143 6.19873C22.5429 7.35463 20.9559 7.31644 19.2636 7.27572C18.6829 7.26174 18.0898 7.24747 17.4847 7.28105C15.533 7.38976 13.6572 7.70325 11.7772 8.22486C7.65272 9.36898 4.29202 11.4577 0.76944 13.7511C0.307204 14.0519 -0.164622 13.4782 0.0559472 13.0586C2.0894 9.19288 6.0301 6.01741 9.97733 4.08175C12.084 3.04858 14.3895 2.19151 16.7202 1.79835ZM11.4925 18.6701C11.8125 14.8143 17.8629 13.9387 18.4647 17.7542C19.0037 21.1721 18.3692 24.3118 16.7831 27.3889C15.2675 30.3287 11.4581 28.9572 11.17 26.2803C10.8855 23.6361 11.0873 22.0589 11.2928 20.4523C11.3662 19.8786 11.4401 19.3012 11.4925 18.6701ZM61.0696 15.5725C59.6104 15.1588 58.3925 15.8908 57.549 16.9631C57.4515 17.0867 57.3721 17.2092 57.3008 17.3306C54.6674 19.6791 55.6594 24.4406 57.7308 26.8249C59.0017 28.287 61.8138 27.8659 62.6838 26.2054C64.285 23.1476 65.6287 16.8655 61.0696 15.5725ZM49.3884 44.32C52.5045 40.0833 48.0909 36.0984 45.1942 34.3895C44.4353 33.8608 45.0376 32.1095 46.6593 32.3802C61.3883 34.8364 53.7566 59.4615 34.9512 45.9482C32.7123 44.1953 35.4236 40.3341 37.8367 41.8354C37.9591 41.9265 38.0874 42.0228 38.2212 42.1231C40.9323 44.1576 45.8928 47.88 49.3884 44.32ZM35.9005 70.3399C33.3219 69.3189 31.0211 67.6158 29.339 65.4402C28.7542 64.6838 28.6025 63.8851 28.7252 63.1546C28.8631 62.3333 29.3638 61.5888 30.0466 61.0895C30.7316 60.5886 31.5883 60.3415 32.4166 60.4675C33.1364 60.5769 33.8528 60.9594 34.4199 61.7526L34.5383 61.9113C35.5384 63.2244 36.8415 64.3018 38.3264 64.9963C39.7575 65.6656 41.3581 65.978 43.0145 65.7963C46.1691 65.4505 48.3435 63.7946 50.6546 61.5459C50.941 61.262 51.2277 60.9692 51.5157 60.6717C51.6976 60.402 51.9501 60.2287 52.2303 60.1377C52.5415 60.0368 52.8935 60.0425 53.216 60.1517C53.527 60.257 53.805 60.4566 53.9914 60.7223C54.1686 60.9748 54.269 61.2867 54.2364 61.6455C54.0249 63.9759 52.7696 66.0556 50.9865 67.6887C49.0062 69.5024 46.3812 70.7571 43.9098 71.1972C41.1871 71.6819 38.4127 71.3346 35.9005 70.3399Z" transform="translate(20.33105 19.36043)" id="ðŸ–-Ink" fill="#000000" fill-rule="evenodd" stroke="none" />
  </g>
</svg>