<?xml version="1.0" encoding="utf-8"?>
<svg width="111px" height="110px" viewBox="0 0 111 110" version="1.1" xmlns:xlink="http://www.w3.org/1999/xlink" xmlns="http://www.w3.org/2000/svg">
  <desc>Created with Lunacy</desc>
  <defs>
    <rect width="110.859833" height="109.087975" id="artboard_1" />
    <clipPath id="clip_1">
      <use xlink:href="#artboard_1" clip-rule="evenodd" />
    </clipPath>
  </defs>
  <g id="face/Calm" clip-path="url(#clip_1)">
    <use xlink:href="#artboard_1" stroke="none" fill="#FFFFFF" />
    <path d="M67.2721 18.462C67.3971 18.4086 67.5093 18.3197 67.5904 18.1906C68.655 16.4972 68.7657 14.476 68.2947 12.4962C67.7286 10.1165 66.3229 7.80325 64.8058 6.23846C62.8937 4.26603 60.5676 2.88683 58.0172 1.84195C57.8314 1.76584 57.6414 1.68695 57.448 1.60659C54.84 0.523255 51.6307 -0.748467 49.0481 0.54754C48.0107 1.06836 47.4401 1.93745 47.2803 2.88528C47.1105 3.89195 47.4107 4.99268 48.1262 5.85337C49.3135 7.28222 51.1479 7.57781 52.9692 7.83592C53.5503 7.91827 54.1273 7.99954 54.6734 8.12497C56.5527 8.55656 58.5379 9.09788 60.2642 9.94987C63.7737 11.6818 65.418 14.3675 66.2648 17.9773C66.2991 18.1236 66.376 18.2429 66.477 18.3329C66.5823 18.4269 66.715 18.4883 66.8547 18.5112C66.995 18.5341 67.1412 18.518 67.2721 18.462ZM22.3999 7.14603C21.1245 8.35214 19.6149 8.53897 18.0876 8.70513C17.2391 8.79833 16.5617 8.87346 15.8951 9.01944C14.0629 9.42086 12.2518 10.0254 10.5995 10.8961C8.87233 11.8064 6.99006 12.9041 5.63591 14.3104C5.3139 14.645 5.01037 14.9961 4.7064 15.348C4.42923 15.6689 4.16223 15.9779 3.88084 16.2757C3.55768 16.6179 3.2508 16.9764 2.94555 17.3341C2.7568 17.6359 2.71952 17.7101 2.68151 17.7874C2.62431 17.9035 2.55778 18.0334 2.48179 18.1728C2.37771 18.3637 2.25581 18.5727 2.12814 18.7621C1.91573 19.1085 1.80175 19.2038 1.70326 19.2465C1.53983 19.3172 1.38485 19.352 1.23448 19.3331C1.0935 19.3154 0.960674 19.2497 0.829509 19.1421C0.174686 18.6052 -0.018438 17.7239 0.00135611 16.7884C0.0313934 15.3689 0.570844 13.7972 1.06814 12.831C2.22444 10.5861 3.82807 8.25235 5.75635 6.57684C7.95668 4.66427 10.3639 3.21636 13.1289 2.21866C14.8471 1.59842 16.8366 1.0291 18.7086 1.10101C20.056 1.15278 21.3424 1.54154 22.4047 2.51237C23.057 3.10833 23.3701 3.95603 23.3701 4.80313C23.3701 5.6671 23.0449 6.53618 22.3999 7.14603ZM63.1539 29.1633C63.8612 29.369 64.36 29.2718 64.9976 28.9493C65.4879 28.7015 65.8217 28.3103 66.0132 27.8534C66.2092 27.3859 66.2503 26.8467 66.1536 26.3471C65.7513 24.2729 64.4611 22.4324 62.7198 21.2469C61.0276 20.0948 58.9169 19.5627 56.7915 20.006C55.2397 20.3297 52.9399 21.7589 51.7286 23.5021C51.2123 24.2452 50.8927 25.0416 50.8581 25.8283C50.8251 26.5784 51.022 27.3347 52.0454 28.3316C52.145 28.3618 52.2497 28.3781 52.3527 28.3781C52.6064 28.3781 52.8683 28.275 53.042 28.1261C53.5005 27.735 53.8236 27.2398 54.1561 26.7072C54.3338 26.4223 54.5105 26.1356 54.736 25.8831C55.4107 25.1285 56.3903 24.4884 57.4185 24.3218C58.3714 24.1673 59.2305 24.4413 59.9111 24.9583C60.7073 25.5631 61.2661 26.491 61.473 27.4822C61.5571 27.8838 61.7735 28.2459 62.0735 28.537C62.3761 28.8307 62.7627 29.0493 63.1539 29.1633ZM17.7127 25.731C16.7817 25.1531 15.6865 24.9547 14.4728 25.4907C13.5243 25.9093 11.8607 27.305 10.7029 29.1396C9.91087 30.3948 9.34921 31.8672 9.46614 33.401C9.4933 33.7572 9.35769 34.0198 9.1438 34.214C8.97487 34.3673 8.73086 34.48 8.44426 34.5153C8.20093 34.5452 7.92857 34.5182 7.70712 34.4511C7.28585 34.3235 7.0629 34.0583 6.97889 33.8418C6.16827 31.7523 6.5175 29.4206 7.426 27.317C8.65208 24.478 10.8787 22.1 12.3375 21.3334C14.8338 20.0209 17.7787 19.9605 20.2786 21.2976C22.4066 22.4355 23.7372 24.2727 25.0606 26.1455C25.3419 26.5436 25.6212 26.9388 25.9097 27.327C26.4881 28.1049 26.5456 28.8765 26.3217 29.5381C26.0736 30.271 25.4409 30.8895 24.6498 31.2132C23.9186 31.5124 23.07 31.5546 22.319 31.2471C21.6847 30.9874 21.1025 30.4812 20.7341 29.6223C20.1137 28.1757 19.08 26.5797 17.7127 25.731ZM49.0043 43.1811C52.1205 38.9444 47.7068 34.9595 44.8101 33.2506C44.0512 32.7219 44.6535 30.9706 46.2752 31.2413C61.0042 33.6974 53.3726 58.3225 34.5671 44.8093C32.3283 43.0563 35.0395 39.1952 37.4526 40.6965C37.575 40.7876 37.7033 40.8838 37.8371 40.9842C40.5482 43.0187 45.5087 46.741 49.0043 43.1811ZM44.8971 68.9152C42.0713 69.7096 39.0381 69.7806 36.1577 68.9602C33.5451 68.216 30.8625 66.5784 28.9397 64.4114C27.2315 62.4863 26.1253 60.1469 26.1687 57.6497C26.1737 57.3645 26.2787 57.1265 26.4404 56.9417C26.6144 56.7428 26.8574 56.6062 27.1177 56.5469C27.3855 56.4859 27.6685 56.5075 27.9095 56.6138C28.1277 56.71 28.3146 56.8734 28.4315 57.1122C28.727 57.4889 29.0214 57.8601 29.3169 58.221C31.6929 61.0686 33.9938 63.1966 37.5666 63.9599C39.5051 64.3741 41.4412 64.1905 43.2176 63.5585C45.1191 62.882 46.8381 61.6926 48.1851 60.1705C48.7938 59.4826 49.5125 59.2018 50.2152 59.1971C51.0116 59.1918 51.7988 59.5509 52.3918 60.125C52.9746 60.6892 53.3649 61.456 53.4003 62.2581C53.4314 62.9621 53.1947 63.6975 52.5653 64.3536C50.4918 66.5146 47.8046 68.0978 44.8971 68.9152Z" transform="translate(20.71421 20.49928)" id="ðŸ–-Ink" fill="#000000" fill-rule="evenodd" stroke="none" />
  </g>
</svg>