<?xml version="1.0" encoding="utf-8"?>
<svg width="111px" height="110px" viewBox="0 0 111 110" version="1.1" xmlns:xlink="http://www.w3.org/1999/xlink" xmlns="http://www.w3.org/2000/svg">
  <desc>Created with Lunacy</desc>
  <defs>
    <rect width="110.859833" height="109.087975" id="artboard_1" />
    <clipPath id="clip_1">
      <use xlink:href="#artboard_1" clip-rule="evenodd" />
    </clipPath>
  </defs>
  <g id="face/Contempt" clip-path="url(#clip_1)">
    <use xlink:href="#artboard_1" stroke="none" fill="#FFFFFF" />
    <path d="M61.8604 1.39926C58.2553 0.0392 51.8109 -1.10343 48.7804 1.86987C47.1651 3.45518 48.1368 5.63545 50.011 6.39311C51.2175 6.88119 52.5345 6.76978 53.8344 6.65983C54.345 6.61663 54.8531 6.57365 55.3507 6.56735C57.0961 6.54576 58.8303 6.76282 60.5304 7.13811C61.8976 7.4406 63.2321 7.85948 64.5582 8.29789L65.4412 8.59199C65.7193 8.68476 66.001 8.79032 66.2858 8.89707C67.3671 9.3023 68.4938 9.72455 69.6367 9.52799C69.904 9.48182 70.0329 9.21934 70.0594 8.98962C70.234 7.48283 69.0074 6.04458 67.9074 4.99937L67.6627 4.77097L67.5039 4.62648C65.8743 3.1577 63.918 2.17591 61.8604 1.39926ZM12.8978 4.02883L13.73 3.80736L14.5785 3.58509L15.1523 3.43784C19.0937 2.43654 23.441 1.55535 27.3494 1.98557C28.7749 2.14269 29.9318 2.9212 30.1336 4.37061C30.3035 5.59366 29.4892 7.17153 28.1032 7.38896C23.5127 8.10976 18.8132 7.87595 14.2016 8.61909C11.905 8.98879 9.62607 9.44786 7.33829 9.8615C5.59868 10.1765 3.80114 10.2871 2.04656 10.5417L2.44972 10.5961C2.59088 10.6147 2.55559 10.8452 2.41635 10.8358C1.83803 10.7798 1.25882 10.7711 0.678739 10.8104L0.430077 10.8303C0.051466 10.882 -0.171788 10.4434 0.165778 10.2208C2.30357 8.81306 4.1176 7.28732 6.51126 6.24968C8.58153 5.3524 10.7124 4.61262 12.8978 4.02883ZM63.9211 17.0019C64.6284 16.7962 65.1273 16.8935 65.7649 17.2159C66.2551 17.4637 66.5889 17.855 66.7804 18.3118C66.9765 18.7793 67.0176 19.3185 66.9208 19.8181C66.5186 21.8923 65.2283 23.7328 63.4871 24.9183C61.7948 26.0704 59.6841 26.6026 57.5588 26.1593C56.0069 25.8355 53.7071 24.4063 52.4959 22.6632C51.9795 21.9201 51.66 21.1236 51.6254 20.337C51.5924 19.5868 51.7892 18.8306 52.8126 17.8336C52.9123 17.8035 53.0169 17.7872 53.12 17.7872C53.3736 17.7872 53.6355 17.8903 53.8093 18.0391C54.2678 18.4303 54.5909 18.9254 54.9233 19.4581L55.0123 19.6005C55.1613 19.8375 55.3154 20.0718 55.5033 20.2822C56.178 21.0368 57.1576 21.6768 58.1858 21.8434C59.1387 21.998 59.9977 21.724 60.6783 21.207C61.4746 20.6021 62.0334 19.6743 62.2402 18.683C62.3244 18.2814 62.5408 17.9194 62.8407 17.6282C63.1434 17.3345 63.53 17.1159 63.9211 17.0019ZM18.8408 25.8497C18.0676 26.6161 17.0465 27.0485 15.7396 26.7912C14.7183 26.5904 12.7739 25.5938 11.2206 24.0589C10.158 23.0089 9.26944 21.6968 9.0279 20.1768C8.97181 19.8238 8.77881 19.5975 8.52539 19.455C8.32525 19.3425 8.06137 19.2859 7.77394 19.3142C7.52992 19.3382 7.2708 19.4239 7.07057 19.5376C6.68968 19.754 6.53391 20.0611 6.50224 20.2904C6.19666 22.5033 7.07736 24.699 8.45013 26.5503C10.3028 29.0488 13.0234 30.8797 14.6225 31.3082C17.359 32.042 20.2425 31.4578 22.3684 29.6093C24.0685 28.1312 24.9399 26.2056 25.7484 24.2254L25.9043 23.8415C26.0861 23.3922 26.2666 22.9462 26.4578 22.5049C26.841 21.6207 26.7183 20.8563 26.3467 20.2606C25.9351 19.6006 25.1753 19.136 24.3295 18.9934C23.5477 18.8615 22.711 19.0057 22.0506 19.4692C21.4927 19.8608 21.0427 20.4811 20.8829 21.3985C20.6229 22.8902 20.0199 24.6017 18.9565 25.731L18.8408 25.8497ZM49.7715 40.2246C52.8877 35.9879 48.474 32.003 45.5773 30.294C44.8184 29.7654 45.4207 28.0141 47.0425 28.2848C61.7714 30.7409 54.1398 55.366 35.3344 41.8528C33.0955 40.0998 35.8068 36.2387 38.2199 37.7399C38.3423 37.831 38.4706 37.9273 38.6043 38.0277C41.3155 40.0621 46.276 43.7845 49.7715 40.2246ZM53.1587 58.3872C51.8929 59.9936 49.6008 61.2239 47.034 61.8122C44.5879 62.3729 41.8846 62.35 39.5517 61.4873L39.3514 61.4099C37.6071 60.7067 35.9328 59.287 35.297 57.8054C35.0442 57.2163 34.9587 56.6176 35.1317 56.0589C35.2873 55.5563 35.6522 55.0937 36.2598 54.6963C36.4506 54.5715 36.7065 54.5625 36.9503 54.6042C37.2528 54.656 37.551 54.7933 37.7309 54.9789C38.729 56.009 40.1771 57.0133 41.891 56.9962C43.2135 56.983 44.2934 56.4762 45.3407 55.9034L46.0766 55.4944C46.7867 55.1011 47.5067 54.7317 48.3215 54.5629C49.7799 54.2607 51.5487 54.8129 52.6267 55.7241C53.0967 56.1215 53.4382 56.5885 53.531 57.0915C53.6089 57.514 53.4995 57.9549 53.1587 58.3872Z" transform="translate(19.94788 23.45579)" id="ðŸ–-Ink" fill="#000000" fill-rule="evenodd" stroke="none" />
  </g>
</svg>