<?xml version="1.0" encoding="utf-8"?>
<svg width="111px" height="110px" viewBox="0 0 111 110" version="1.1" xmlns:xlink="http://www.w3.org/1999/xlink" xmlns="http://www.w3.org/2000/svg">
  <desc>Created with Lunacy</desc>
  <defs>
    <rect width="110.859833" height="109.087975" id="artboard_1" />
    <clipPath id="clip_1">
      <use xlink:href="#artboard_1" clip-rule="evenodd" />
    </clipPath>
  </defs>
  <g id="face/Smile-Teeth-Gap" clip-path="url(#clip_1)">
    <use xlink:href="#artboard_1" stroke="none" fill="#FFFFFF" />
    <path d="M4.71637 2.85268C11.1419 -1.32646 43.6633 -0.508768 46.6648 2.69733C49.6662 5.90342 56.6033 15.0541 41.7442 19.5482C26.8851 24.0424 8.49162 22.4677 3.69955 16.9662L3.41706 16.6373C-1.11438 11.2874 -1.58069 6.94823 4.71637 2.85268Z" transform="translate(32.79273 75.47323)" id="teeth" fill="#FFFFFF" stroke="none" />
    <path d="M55.8632 0.176178L55.312 0.0666873C54.664 -0.0593058 54.012 -0.00600334 53.4394 0.220094C52.8777 0.441877 52.3885 0.8281 52.0467 1.38532C51.592 2.1273 51.5314 2.74998 51.7423 3.57245C51.9051 4.20797 52.2621 4.68609 52.7294 5.03142C53.2217 5.39523 53.8457 5.60751 54.4937 5.68132C57.4836 6.02219 60.4279 6.66055 63.2904 7.56674C64.6317 7.99146 65.8973 8.56678 67.1519 9.16383L68.2333 9.6809C69.2306 10.1543 70.2608 10.6106 71.5628 10.9417C71.6651 10.9678 71.7663 10.9923 71.8665 11.0155C72.2276 10.9054 72.2888 10.7721 72.3654 10.6755L72.3964 10.6378C72.4894 10.5245 72.6037 10.3512 72.4955 9.54262C69.7123 3.93961 62.1745 1.49269 56.2289 0.251436L55.8632 0.176178ZM17.4404 1.67602L16.7202 1.79836C14.3895 2.19153 12.084 3.0486 9.97733 4.08177C6.0301 6.01743 2.0894 9.19289 0.0559472 13.0586C-0.164622 13.4782 0.307204 14.052 0.76944 13.7511C4.29202 11.4577 7.65272 9.369 11.7772 8.22488C13.6572 7.70327 15.533 7.38978 17.4847 7.28106C18.0898 7.24748 18.6829 7.26176 19.2636 7.27573C20.9559 7.31645 22.5429 7.35464 24.0143 6.19874C25.1379 5.31636 24.8502 3.60297 24.0143 2.68112C22.5243 1.03753 19.9669 1.2691 17.8095 1.6153L17.4404 1.67602ZM20.0382 18.8821C19.4457 18.4674 18.7952 18.2434 18.115 18.2434C17.4348 18.2434 16.7842 18.4674 16.1917 18.8821C15.6086 19.2902 15.0807 19.8858 14.6411 20.6286C13.809 22.0344 13.2889 23.9754 13.2889 26.1215C13.2889 28.2677 13.809 30.2087 14.6411 31.6144C15.0807 32.3573 15.6086 32.9529 16.1917 33.361C16.7842 33.7756 17.4348 33.9997 18.115 33.9997C18.7952 33.9997 19.4457 33.7756 20.0382 33.361C20.6213 32.9529 21.1492 32.3573 21.5889 31.6144C22.4209 30.2087 22.941 28.2677 22.941 26.1215C22.941 23.9754 22.4209 22.0344 21.5889 20.6286C21.1492 19.8858 20.6213 19.2902 20.0382 18.8821ZM61.1678 18.2434C61.848 18.2434 62.4986 18.4674 63.0911 18.8821C63.6742 19.2902 64.2021 19.8858 64.6417 20.6286C65.4738 22.0344 65.9939 23.9754 65.9939 26.1215C65.9939 28.2677 65.4738 30.2087 64.6417 31.6144C64.2021 32.3573 63.6742 32.9529 63.0911 33.361C62.4986 33.7756 61.848 33.9997 61.1678 33.9997C60.4876 33.9997 59.8371 33.7756 59.2446 33.361C58.6615 32.9529 58.1336 32.3573 57.6939 31.6144C56.8619 30.2087 56.3418 28.2677 56.3418 26.1215C56.3418 23.9754 56.8619 22.0344 57.6939 20.6286C58.1336 19.8858 58.6615 19.2902 59.2446 18.8821C59.8371 18.4674 60.4876 18.2434 61.1678 18.2434ZM42.8905 34.3895C45.7872 36.0984 50.2009 40.0833 47.0847 44.32C43.5892 47.8799 38.6287 44.1576 35.9175 42.1231C35.7838 42.0227 35.6555 41.9265 35.5331 41.8354C33.12 40.3341 30.4087 44.1952 32.6476 45.9482C51.453 59.4614 59.0846 34.8363 44.3556 32.3802C42.7339 32.1095 42.1316 33.8608 42.8905 34.3895ZM42.9966 54.9856L42.9968 54.9856C49.5414 54.5547 57.4545 54.0337 61.4344 57.1076C82.8112 83.0158 -1.93713 89.6769 7.21552 61.0135C11.705 53.8761 20.6895 54.4445 28.8515 54.961C31.288 55.1152 33.651 55.2647 35.7993 55.2032C37.6796 55.3357 40.2144 55.1688 42.9966 54.9856ZM41.1672 57.7912C40.6241 60.239 40.3687 63.2112 41.459 64.094C42.6102 65.0261 46.3164 64.8997 47.2856 64.2788C48.1338 63.7354 48.1122 61.2358 47.7973 58.4293C45.9203 58 42.6521 57.7912 41.1672 57.7912ZM27.5536 58.2886C29.7631 57.891 32.5423 57.7912 35.9302 58.0872C36.7929 59.7786 36.0131 64.9299 35.4131 65.0766C32.9842 65.6641 29.3619 65.7416 28.2705 64.9299C26.9901 63.9778 27.216 61.7159 27.4517 59.3561C27.4634 59.2392 27.475 59.1221 27.4866 59.005L27.5536 58.2886ZM24.9439 58.3228L26.0533 58.3132L26.1124 58.5627C27.9269 66.7022 16.179 65.5375 19.3959 58.7901C21.0152 58.4471 22.7282 58.3584 24.316 58.331L24.9439 58.3228ZM49.2938 58.4759L49.2733 58.8581C49.1769 60.7535 49.2408 63.2494 50.3227 63.9232C51.9146 64.9147 54.9039 64.7234 56.5232 60.1371C55.9873 58.7688 50.3038 58.576 49.2938 58.4759ZM55.7562 71.1167C53.2379 67.3351 47.8246 70.0425 48.2718 74.1737C48.7529 74.0267 49.2316 73.8729 49.708 73.7117C51.6866 73.0423 53.857 72.2466 55.7562 71.1167ZM23.1361 69.4602C24.6402 69.2045 26.9886 69.9048 27.9713 71.3561C28.8711 72.6845 28.8296 74.5323 28.7737 75.3205L28.7435 75.6883C28.2801 75.6135 27.8175 75.5342 27.356 75.4455C25.0575 75.0025 22.6535 74.4463 20.3891 73.6086C20.3891 72.9913 20.6799 69.9621 23.1361 69.4602ZM30.8104 72.845C31.2681 71.919 33.16 70.7205 34.7189 70.8438C38.0182 71.1889 38.0413 73.9213 38.7513 76.201C36.0182 76.3749 33.2689 76.3343 30.5435 76.0677C30.542 76.033 30.5389 75.9813 30.5349 75.9155C30.5001 75.3385 30.3997 73.6764 30.8104 72.845ZM47.3032 74.6682C46.8651 71.8386 44.7799 71.1684 43.092 71.5932C41.3655 72.0273 40.352 73.9563 40.4617 75.6738C40.4676 75.7689 40.4232 75.8525 40.3814 75.9311C40.3712 75.9503 40.3611 75.9693 40.352 75.988C42.6989 75.7188 45.0238 75.2758 47.3032 74.6682Z" transform="translate(22.63283 19.36041)" id="ðŸ–-Ink" fill="#000000" fill-rule="evenodd" stroke="none" />
  </g>
</svg>