<?xml version="1.0" encoding="utf-8"?>
<svg width="108px" height="86px" viewBox="0 0 108 86" version="1.1" xmlns:xlink="http://www.w3.org/1999/xlink" xmlns="http://www.w3.org/2000/svg">
  <desc>Created with Lunacy</desc>
  <defs>
    <rect width="107.407448" height="85.6321945" id="artboard_1" />
    <clipPath id="clip_1">
      <use xlink:href="#artboard_1" clip-rule="evenodd" />
    </clipPath>
  </defs>
  <g id="facial-hair/Chin" clip-path="url(#clip_1)">
    <use xlink:href="#artboard_1" stroke="none" fill="#FFFFFF" />
    <path d="M81.3392 56.9023C81.3392 56.9023 64.3113 59.3309 56.6892 55.8986C49.0901 52.4771 41.6982 49.1667 34.8049 44.6345C27.7429 39.9913 21.7511 34.4775 17.4739 27.4195C13.496 20.8524 10.1894 13.884 6.85979 6.96932C6.66522 6.56524 4.75384 2.54823 4.07871 1.20113C3.03916 -0.887602 0.00105931 -0.231966 0.00105931 3.0104C0.00105931 6.25277 -0.148544 30.8074 5.68982 40.4665C10.9566 49.1904 19.8829 55.286 28.7517 60.6063C38.5642 66.4891 51.5988 72.8485 63.3062 74.5288C73.9012 76.0479 85.9922 71.7808 93.6642 64.7479C101.685 57.3926 103.956 47.4001 108.095 37.8306C109.02 35.6917 105.742 34.4018 104.781 36.5053C102.97 40.4665 81.3392 56.9023 81.3392 56.9023Z" transform="translate(5 0)" id="💈-Hair" fill="#000000" stroke="none" />
  </g>
</svg>
