<?xml version="1.0" encoding="utf-8"?>
<svg width="108px" height="86px" viewBox="0 0 108 86" version="1.1" xmlns:xlink="http://www.w3.org/1999/xlink" xmlns="http://www.w3.org/2000/svg">
  <desc>Created with Lunacy</desc>
  <defs>
    <rect width="107.407448" height="85.6321945" id="artboard_1" />
    <clipPath id="clip_1">
      <use xlink:href="#artboard_1" clip-rule="evenodd" />
    </clipPath>
  </defs>
  <g id="facial-hair/Moustache-6" clip-path="url(#clip_1)">
    <use xlink:href="#artboard_1" stroke="none" fill="#FFFFFF" />
    <path d="M52.7561 3.06815C49.2841 1.49251 45.5525 0.554656 41.7188 0.222179C40.0609 0.0780939 36.8041 -0.376501 35.0407 0.673052C34.216 1.16451 33.519 1.85105 32.9663 2.6895C32.7507 2.40022 32.4668 2.15374 32.2873 1.841C31.3218 0.157397 25.3959 0.122399 23.6068 0.265368C19.3643 0.604173 15.2348 1.57107 11.3459 3.19659C4.36404 6.11554 -1.50118 12.1802 0.343162 19.8796C0.604009 20.9701 1.86259 21.3942 2.89946 21.2058C9.88823 19.9343 16.877 18.6625 23.8662 17.3911C25.4884 17.0962 27.111 16.8009 28.7332 16.5057C30.2005 16.2388 31.9988 16.1542 33.3913 15.5399C33.9513 15.7722 34.5751 15.9197 35.241 16.0478C43.6498 17.6688 52.0694 19.2415 60.4837 20.8383C61.4925 21.0301 62.8159 20.5334 62.997 19.4485C64.2046 12.2092 59.4545 6.10772 52.7561 3.06815" transform="translate(46.41515 10.79701)" id="💈-Hair" fill="#000000" stroke="none" />
  </g>
</svg>
