<?xml version="1.0" encoding="utf-8"?>
<svg width="108px" height="86px" viewBox="0 0 108 86" version="1.1" xmlns:xlink="http://www.w3.org/1999/xlink" xmlns="http://www.w3.org/2000/svg">
  <desc>Created with Lunacy</desc>
  <defs>
    <rect width="107.407448" height="85.6321945" id="artboard_1" />
    <clipPath id="clip_1">
      <use xlink:href="#artboard_1" clip-rule="evenodd" />
    </clipPath>
  </defs>
  <g id="facial-hair/Moustache-8" clip-path="url(#clip_1)">
    <use xlink:href="#artboard_1" stroke="none" fill="#FFFFFF" />
    <path d="M284.374 3.16274C278.237 8.59592 282.18 22.207 284.573 18.5274C284.93 15.12 286.026 8.59108 289.584 7.27011C315.757 6.18667 310.352 68.9979 261.598 61.2672C230.534 59.2328 197.724 15.5694 168.513 42.1407C136.774 17.0478 100.935 54.6664 68.2515 59.8185C41.6777 68.1594 1.96612 52.8432 9.11754 21.0472C10.904 11.717 24.1979 1.0439 32.3398 10.5126C34.745 12.7617 31.6896 20.9992 34.2183 19.2962C38.1548 15.0753 37.129 8.33455 33.491 4.13076C27.4654 -2.83077 16.7247 0.214758 10.4766 5.13116C-17.7113 32.0461 16.2394 72.6741 50.2178 69.9901C87.4521 74.4102 138.088 24.1866 163.682 48.585C166.292 51.0729 171.196 51.0738 173.465 48.5869C195.224 24.7387 237.219 73.4791 267.553 69.9983C299.814 72.8502 325.633 35.0585 307.013 8.3379C302.373 1.54466 291.224 -3.5754 284.374 3.16274Z" transform="translate(-84.77358 -24.94507)" id="💈-Hair" fill="#000000" stroke="none" />
  </g>
</svg>
