<?xml version="1.0" encoding="utf-8"?>
<svg width="108px" height="86px" viewBox="0 0 108 86" version="1.1" xmlns:xlink="http://www.w3.org/1999/xlink" xmlns="http://www.w3.org/2000/svg">
  <desc>Created with Lunacy</desc>
  <defs>
    <rect width="107.407448" height="85.6321945" id="artboard_1" />
    <clipPath id="clip_1">
      <use xlink:href="#artboard_1" clip-rule="evenodd" />
    </clipPath>
  </defs>
  <g id="facial-hair/Full" clip-path="url(#clip_1)">
    <use xlink:href="#artboard_1" stroke="none" fill="#FFFFFF" />
    <path d="M102.953 24.9748C103.925 26.5931 104.745 28.311 105.397 30.0847C105.703 30.9177 107.999 39.9347 106.546 45.1013C105.148 50.0751 102.62 54.7918 99.4209 58.9326C96.4826 62.7346 92.7781 65.8949 88.1887 67.6429C82.201 69.9243 75.0602 69.2828 68.812 68.6939C61.0085 67.956 53.3391 66.2713 45.9186 63.8338C42.2065 62.6187 38.5633 61.2173 34.9738 59.7004C31.4455 58.2136 27.6951 56.7485 24.389 54.8216C21.5465 53.163 19.1216 50.554 16.8 48.292C13.1415 44.7285 9.5635 41.0126 6.40301 37.0175C3.45323 33.2904 1.24664 29.8387 0.499612 25.1239C-0.655817 17.8136 0.418525 10.1332 1.44431 2.80003C1.52726 2.20698 1.6099 1.6162 1.69102 1.02807C1.72167 0.782077 2.12008 0.651628 2.20436 0.905072C2.1967 0.767168 2.18903 0.629638 2.18137 0.491734C2.15456 -0.0975233 3.03949 -0.17542 3.20422 0.357185C5.21927 6.82784 8.51 12.7163 13.2412 17.692C19.756 24.5402 28.0816 29.2934 36.1663 34.2337C36.4376 33.9855 36.767 33.8092 37.116 33.7421C38.2848 28.6389 42.1498 23.8947 45.9723 20.6663C57.1623 11.2221 75.0909 7.16291 88.9472 12.9213C94.8046 15.3588 99.7388 19.623 102.953 24.9748ZM62.8487 21.2923C55.0444 23.1898 48.266 28.3798 45.1603 35.4415C44.9254 36.9827 44.945 38.5421 45.2813 40.0885C51.9049 44.6065 60.0395 46.9807 68.1801 46.0601C70.7162 43.0061 73.5234 37.7982 77.788 37.1974C80.9448 36.753 83.1792 38.7716 85.4237 40.7995C86.5768 41.8413 87.7325 42.8855 89.0175 43.5995C89.2285 43.7165 89.4588 43.8306 89.6971 43.9416C92.1266 43.7459 94.5638 43.1951 96.6065 41.8485C98.6997 40.4694 99.4919 38.6025 99.865 36.4091C99.7581 35.9906 99.6436 35.5742 99.5218 35.1609C98.6637 32.2537 97.4416 29.4174 95.6449 26.9392C94.1355 24.8479 92.1282 23.0664 89.6649 22.1238C86.7802 21.0206 83.4972 20.7854 80.4363 20.4984C74.5942 19.9468 68.5797 19.9024 62.8487 21.2923Z" id="💈-Hair" fill="#000000" transform="translate(5 0)" fill-rule="evenodd" stroke="none" />
  </g>
</svg>
