<?xml version="1.0" encoding="utf-8"?>
<svg width="108px" height="86px" viewBox="0 0 108 86" version="1.1" xmlns:xlink="http://www.w3.org/1999/xlink" xmlns="http://www.w3.org/2000/svg">
  <desc>Created with Lunacy</desc>
  <defs>
    <rect width="107.407448" height="85.6321945" id="artboard_1" />
    <clipPath id="clip_1">
      <use xlink:href="#artboard_1" clip-rule="evenodd" />
    </clipPath>
  </defs>
  <g id="facial-hair/Goatee-1" clip-path="url(#clip_1)">
    <use xlink:href="#artboard_1" stroke="none" fill="#FFFFFF" />
    <path d="M22.0179 1.27644C24.799 0.629362 32.4595 -0.998022 36.7255 0.866898C41.5223 -0.803674 50.7908 0.845304 56.2709 4.91134C61.278 8.62666 63.117 17.7979 58.6243 18.3697C56.319 18.6633 54.7689 17.9274 52.9765 17.0764C51.8543 16.5437 50.6372 15.9658 49.0804 15.5673C44.3326 14.3514 38.4497 13.5997 35.8451 12.2091C32.2776 14.1727 28.261 14.6764 24.4534 15.2535C22.5895 15.5336 20.6246 16.1336 18.6523 16.7359C15.6617 17.6492 12.6544 18.5676 9.95721 18.3831C9.29244 18.6784 4.77288 16.8708 7.03803 11.1286C9.04809 6.0335 15.5524 2.78134 22.0179 1.27644ZM40.9507 31.6873C41.3318 35.1039 41.9714 40.8386 45.173 40.081C47.5732 39.513 52.5462 35.5637 55.4884 34.0387C59.6534 32.8872 61.0848 34.9895 60.4666 38.2566C60.1723 39.8116 56.0428 46.1584 54.5765 47.6874C48.1316 54.4087 37.5403 57.1464 28.488 55.3659C19.5621 54.6965 -0.552851 47.2961 0.0116391 44.8053C1.28698 39.1777 5.45114 40.4495 9.41789 41.661C10.3296 41.9395 11.2309 42.2148 12.0842 42.4024C15.964 43.0967 20.2326 43.3383 23.9225 43.351C29.1295 42.25 28.184 34.3092 27.8301 31.3367C27.7906 31.0053 27.7585 30.7357 27.7431 30.5442C27.5062 27.5993 29.2618 22.8644 33.9325 22.6206C38.6031 22.3767 40.4454 28.0281 40.772 30.2195C40.8315 30.6183 40.8875 31.121 40.9507 31.6873Z" transform="translate(43.02946 9.79701)" id="💈-Hair" fill="#000000" fill-rule="evenodd" stroke="none" />
  </g>
</svg>
