<?xml version="1.0" encoding="utf-8"?>
<svg width="108px" height="86px" viewBox="0 0 108 86" version="1.1" xmlns:xlink="http://www.w3.org/1999/xlink" xmlns="http://www.w3.org/2000/svg">
  <desc>Created with Lunacy</desc>
  <defs>
    <rect width="107.407448" height="85.6321945" id="artboard_1" />
    <clipPath id="clip_1">
      <use xlink:href="#artboard_1" clip-rule="evenodd" />
    </clipPath>
  </defs>
  <g id="facial-hair/Full-4" clip-path="url(#clip_1)">
    <use xlink:href="#artboard_1" stroke="none" fill="#FFFFFF" />
    <path d="M4.8696 6.12656C4.8696 6.12656 3.75917 0.000229729 1.04798 0.000229729C0.157138 0.000229729 -0.344396 10.3227 0.781811 23.9423C1.90802 37.5618 13.9932 48.9184 24.5388 57.8835C28.8504 61.0847 32.9231 65.3226 38.3985 66.7032C53.951 75.2979 73.2067 77.3082 90.9585 74.5608C94.3181 75.4334 98.5655 73.9395 101.593 72.3913C111.53 67.1577 113.776 55.9538 115.997 46.4329L116.275 45.2521C116.635 43.1725 115.444 37.0204 115.261 37.6034C111.675 40.8344 108.749 44.8309 104.591 47.469C100.427 50.4948 95.5064 49.186 90.8665 47.9518C90.0251 47.728 89.1929 47.5066 88.3761 47.314C83.427 46.0614 80.7173 47.6646 77.9208 49.3192C76.0048 50.4529 74.048 51.6107 71.3024 51.8905C56.3228 50.9356 43.3919 42.2273 30.2454 37.1141C18.4026 29.1744 11.7651 17.6667 4.8696 6.12656ZM82.0715 23.2952C72.7306 19.0047 60.7264 17.4753 54.6841 26.8925C51.5512 29.6016 42.4607 34.6657 40.8198 34.2356C39.3113 35.065 43.5568 37.3957 44.5931 37.4933C52.6499 42.2985 61.1674 42.8105 70.4185 39.7279C74.5561 38.7114 78.3652 36.996 81.3974 34.2296C84.0803 31.9879 84.8783 32.961 85.8922 34.1974C86.5956 35.0551 87.4028 36.0395 89.0152 36.1656C94.4716 39.6077 106.495 42.3247 112.282 37.6952C113.511 37.1319 113.164 35.5968 112.29 34.4543C108.7 30.1539 104.794 25.6577 99.637 22.9194L99.6378 22.9164C94.0394 20.5208 87.2315 19.8948 82.0715 23.2952Z" transform="translate(-1.686066 -4.448408)" id="ðŸ’ˆ-Hair" fill="#E8E1E1" fill-rule="evenodd" stroke="none" />
    <path d="M1.38026 1.3675L1.38313 1.72487C1.12974 4.56353 2.6119 7.41312 4.05317 10.1841C4.73877 11.5022 5.4151 12.8025 5.89098 14.0754C10.9181 24.034 15.0977 35.4757 26.3024 41.0845C28.2811 42.2174 30.4232 43.6219 32.6947 44.1824C34.2132 44.5573 35.4973 42.7338 34.2749 41.7179C17.8204 33.5951 16.5558 27.4146 8.38975 13.1555C6.35322 9.88069 4.74596 6.55644 2.8235 3.19728C2.6998 2.95051 2.53411 2.42498 2.35912 1.86997C1.90159 0.418798 1.38051 -1.23395 1.38026 1.3675ZM1.28221 15.2459C1.26446 14.726 0.472221 14.7506 0.410532 15.2459C-3.84432 55.0148 41.4397 88.1523 83.1968 82.3675C107.813 82.5713 111.145 72.4235 117.005 54.5731C117.336 53.5657 117.675 52.5338 118.026 51.4778C118.881 48.9071 117.528 48.1215 114.777 50.3144C109.474 66.6959 107.196 78.4275 85.8638 78.7081C56.6743 82.7612 26.3465 70.965 11.4879 47.417C5.30509 38.0878 1.64938 26.142 1.28221 15.2459ZM59.4044 24.032C66.2173 21.0801 74.3239 21.4966 80.0143 25.5785L80.4156 25.6672C81.4121 25.8834 82.3683 26.048 83.4886 25.9373C98.3661 18.3357 108.358 31.343 116.041 41.3455C116.134 41.4668 116.227 41.5877 116.319 41.7081C116.902 41.7273 117.376 42.1708 117.219 42.6904L117.466 42.9469C116.493 45.4784 114.736 47.9223 112.333 49.4577C104.875 59.0965 99.2047 56.7572 89.9122 52.9235C89.3894 52.7079 88.8551 52.4875 88.3084 52.2642C83.7862 51.6071 81.1233 53.4485 78.3983 55.3327C74.7635 57.846 71.0183 60.4356 62.6032 57.2742L62.0477 57.0985C57.2041 55.5457 51.6436 53.1906 48.1218 49.7873C48.0067 49.6757 48.1193 49.4607 48.2953 49.5165C50.4718 50.1533 52.8139 51.1744 55.2361 52.2304C61.9074 55.1389 69.1868 58.3125 75.288 54.4542C77.3902 53.085 79.2787 51.4227 81.629 50.3915C86.983 48.6527 90.9514 50.348 94.5334 51.8783C99.9279 54.1828 104.446 56.1131 111.502 45.3769C101.942 46.9938 91.1661 45.3861 84.0202 39.0685C73.3378 51.5557 52.5463 49.555 39.327 41.7988C37.5189 42.0515 34.8437 40.3158 36.5087 38.6635C38.3298 37.2585 41.2112 37.8092 43.4501 37.0473C50.5969 34.5796 52.2843 26.7143 59.4044 24.032ZM57.2172 29.3125C64.4434 23.1628 75.736 24.0406 83.2867 29.2537C83.7524 29.2512 83.3906 28.855 83.1096 28.5475C83.0009 28.4285 82.9043 28.3227 82.8725 28.2582L83.0303 28.1463C83.0667 28.3336 83.189 28.6985 83.4796 28.5558C96.3221 21.2017 104.984 31.6141 111.717 40.5557L112.984 42.2449C111.652 42.6475 110.286 42.9609 108.903 43.1812C100.323 44.6115 91.5126 42.1326 84.6244 37.4678C84.4353 36.6335 82.8696 36.2194 82.5675 37.1795C72.9472 48.2851 54.9957 48.1678 42.502 41.1879C49.7769 40.0244 52.7044 33.7116 57.2172 29.3125ZM114.206 44.9378C114.269 45.039 114.321 45.1496 114.365 45.2647C114.576 45.0676 114.795 44.8673 115.021 44.6753L114.96 44.5949C114.718 44.7182 114.465 44.8321 114.206 44.9378Z" transform="translate(-2.261759 -9.1694)" id="ðŸ–-Ink" fill="#000000" fill-rule="evenodd" stroke="none" />
  </g>
</svg>
