<?xml version="1.0" encoding="utf-8"?>
<svg width="108px" height="86px" viewBox="0 0 108 86" version="1.1" xmlns:xlink="http://www.w3.org/1999/xlink" xmlns="http://www.w3.org/2000/svg">
  <desc>Created with Lunacy</desc>
  <defs>
    <rect width="107.407448" height="85.6321945" id="artboard_1" />
    <clipPath id="clip_1">
      <use xlink:href="#artboard_1" clip-rule="evenodd" />
    </clipPath>
  </defs>
  <g id="facial-hair/Moustache-5" clip-path="url(#clip_1)">
    <use xlink:href="#artboard_1" stroke="none" fill="#FFFFFF" />
    <path d="M73.0341 4.36436C72.5228 2.88181 69.8917 3.011 70.0535 4.75604C70.2388 6.74978 69.5357 8.97324 67.5678 9.94125C65.5071 10.9547 63.1887 10.0436 61.9316 8.30493C60.8387 6.79371 60.085 5.14995 58.7098 3.83196C57.4312 2.6063 55.8761 1.66099 54.1749 1.09992C52.8499 0.663192 51.4755 0.54703 50.1425 0.690371C46.8205 -0.0382473 42.9715 1.61892 40.9012 4.13278C40.7677 4.29474 40.6438 4.46117 40.5242 4.62908C40.3189 4.35804 40.1041 4.0896 39.8766 3.82488C39.2901 3.1428 38.5621 2.99648 37.9046 3.18227C34.1603 0.479641 28.913 0.121475 24.6605 2.5605C21.2533 4.51478 18.4351 7.395 14.2454 7.61913C10.9269 7.79673 7.31224 5.95898 7.07825 2.4194C6.9555 0.571231 4.36084 -0.969404 2.90509 0.74175C-0.155258 4.33979 -0.767481 9.11918 0.925721 13.4697C2.71252 18.0599 6.35287 21.2935 10.9622 23.1956C15.9397 25.2497 21.7727 25.963 27.1573 25.8003C32.5254 25.638 37.4063 23.6346 40.6419 19.3727C41.0282 18.8641 41.3677 18.3474 41.6654 17.8246C44.807 21.7071 49.7317 23.339 54.7476 23.4562C59.9952 23.5784 66.1988 22.6844 69.9089 18.729C73.4844 14.9165 74.7185 9.24689 73.0341 4.36436" transform="translate(39.89483 7.818696)" id="💈-Hair" fill="#000000" stroke="none" />
  </g>
</svg>
