<?xml version="1.0" encoding="utf-8"?>
<svg width="108px" height="86px" viewBox="0 0 108 86" version="1.1" xmlns:xlink="http://www.w3.org/1999/xlink" xmlns="http://www.w3.org/2000/svg">
  <desc>Created with Lunacy</desc>
  <defs>
    <rect width="107.407448" height="85.6321945" id="artboard_1" />
    <clipPath id="clip_1">
      <use xlink:href="#artboard_1" clip-rule="evenodd" />
    </clipPath>
  </defs>
  <g id="facial-hair/Moustache-9" clip-path="url(#clip_1)">
    <use xlink:href="#artboard_1" stroke="none" fill="#FFFFFF" />
    <path d="M45.649 0.326084C40.2685 -0.554608 34.6786 0.746991 29.4909 2.13388C21.25 -3.11774 10.5718 2.18307 4.66986 8.74422C2.64995 10.3588 -1.59193 12.5034 0.642868 15.5839C-0.204266 17.7614 -0.430816 18.7861 1.32252 16.2404C11.2456 17.3492 21.8923 15.2546 31.7129 13.279C35.0567 14.3703 38.0096 16.922 41.6853 16.048C45.1609 16.7653 48.9233 17.4349 52.0608 15.2709C54.4498 15.1768 59.765 19.3407 59.6795 14.4985C58.9404 9.85699 49.4586 2.13388 45.649 0.326084Z" transform="translate(48.47337 12.89414)" id="ðŸ’ˆ-Hair" fill="#E8E1E1" stroke="none" />
    <path d="M42.4235 0.715891C54.521 -0.946118 63.1942 9.6276 67.5929 19.2441C68.2838 20.6328 66.5917 21.9705 65.3853 20.8964C62.3352 18.7409 58.6914 19.1796 54.5196 19.6819C49.2011 20.3222 43.0243 21.0659 36.1248 16.6699C33.0764 19.1172 27.3605 19.122 21.1309 19.1272C14.5455 19.1328 7.38588 19.1388 2.19636 22.0312C-6.03066 23.7297 11.2819 2.92595 14.3583 2.70293C21.6095 -1.49379 27.5859 -0.175056 34.8264 2.42034C36.3375 2.59988 37.8895 2.06961 39.4292 1.54353C40.4376 1.19902 41.4406 0.856299 42.4235 0.715891ZM37.0027 13.4821C41.894 16.7741 47.8179 17.696 53.6593 17.0686C54.1794 17.0127 54.7066 16.9491 55.2379 16.885C57.9252 16.5606 60.7202 16.2233 63.2596 16.8099C59.2391 8.76267 51.009 0.641755 41.0332 3.06775C40.848 3.08251 40.0376 3.34379 39.0722 3.65502C37.0655 4.30196 34.3894 5.16473 35.2685 4.47771C20.8502 -0.540715 11.5322 4.97772 4.79469 17.7607C10.6233 15.9837 16.8154 15.9453 22.9255 15.9074C24.2003 15.8994 25.4716 15.8916 26.7353 15.8679C27.0945 15.8604 27.5009 15.8672 27.9351 15.8746C30.2067 15.9129 33.2415 15.9641 34.2727 14.0365C34.5688 13.4832 35.0794 13.29 35.5784 13.3436C35.9889 13.1422 36.4922 13.1385 37.0027 13.4821Z" transform="translate(44.49653 11.05269)" id="ðŸ–-Ink" fill="#000000" fill-rule="evenodd" stroke="none" />
  </g>
</svg>
