<?xml version="1.0" encoding="utf-8"?>
<svg width="108px" height="86px" viewBox="0 0 108 86" version="1.1" xmlns:xlink="http://www.w3.org/1999/xlink" xmlns="http://www.w3.org/2000/svg">
  <desc>Created with Lunacy</desc>
  <defs>
    <rect width="107.407448" height="85.6321945" id="artboard_1" />
    <clipPath id="clip_1">
      <use xlink:href="#artboard_1" clip-rule="evenodd" />
    </clipPath>
  </defs>
  <g id="facial-hair/Goatee-2" clip-path="url(#clip_1)">
    <use xlink:href="#artboard_1" stroke="none" fill="#FFFFFF" />
    <path d="M57.4187 22.6884C57.9174 24.8999 58.2549 27.1152 58.4736 29.2448C59.0528 34.8816 58.4391 40.5222 55.7961 45.6303C55.762 45.6965 55.7146 45.7998 55.6522 45.9359C54.5548 48.3294 48.7954 60.8905 28.5031 60.7872C13.4453 60.7105 2.89675 49.6942 1.23692 45.5745C-0.42291 41.4548 -0.155543 33.8689 0.554114 28.1912C1.57448 20.03 4.60874 11.3179 11.1836 5.7667C16.7573 1.06065 24.6211 -1.56416 31.7023 1.00853C35.7377 0.152208 39.9918 0.777695 43.7357 2.55363C51.6494 6.30283 55.5966 14.4826 57.4187 22.6884ZM47.737 17.8C46.7856 16.6421 45.7768 15.5215 44.7257 14.4753C40.5905 10.3686 35.5155 9.99632 29.8805 10.2793C24.4334 10.5548 19.1973 11.0723 14.6516 14.2556C13.1441 15.3092 11.8168 16.5826 10.6545 17.9825C10.7466 19.2669 10.9806 20.5403 11.3565 21.7614C12.5418 25.6112 14.7974 29.0253 17.4097 32.108C18.2881 33.1431 19.1858 34.1632 20.0987 35.1759C20.3174 34.986 20.5284 34.7924 20.7317 34.6137C22.3735 33.1989 23.9462 31.6389 25.3464 29.997C26.6199 28.504 27.5329 26.6239 28.9598 25.2649C32.2434 22.1412 36.9387 23.9209 39.5126 26.9329C40.8054 28.4482 41.8718 30.1646 43.7821 31.0172C44.3843 31.2852 45.0019 31.4565 45.6272 31.5421C46.6859 28.9285 47.4685 26.2069 47.8214 23.422C48.063 21.5008 48.0016 19.6393 47.737 17.8Z" transform="translate(46.41703 10.05269)" id="💈-Hair" fill="#000000" fill-rule="evenodd" stroke="none" />
  </g>
</svg>
