<?xml version="1.0" encoding="utf-8"?>
<svg width="108px" height="86px" viewBox="0 0 108 86" version="1.1" xmlns:xlink="http://www.w3.org/1999/xlink" xmlns="http://www.w3.org/2000/svg">
  <desc>Created with Lunacy</desc>
  <defs>
    <rect width="107.407448" height="85.6321945" id="artboard_1" />
    <clipPath id="clip_1">
      <use xlink:href="#artboard_1" clip-rule="evenodd" />
    </clipPath>
  </defs>
  <g id="facial-hair/Full-3" clip-path="url(#clip_1)">
    <use xlink:href="#artboard_1" stroke="none" fill="#FFFFFF" />
    <path d="M116.185 31.0706C116.244 31.1939 116.293 31.3294 116.328 31.4794C120.461 50.2541 121.509 71.8881 113.01 89.6215C88.4609 111.076 35.3103 102.836 14.0256 79.486C-2.31068 69.066 -0.664664 45.1344 1.0247 28.0694C2.01784 19.5159 1.88435 10.1373 5.89448 2.32947C5.58338 0.398651 8.44464 -1.04034 9.36144 0.972014C13.6999 10.4809 18.1995 20.2802 25.1584 28.2995C31.6803 37.111 51.5442 48.9171 55.4507 31.9739C60.4041 21.3663 79.3823 19.4403 89.8825 21.1216C96.4065 22.7441 98.2889 26.7245 99.9671 30.2733C101.783 34.1134 103.36 37.4479 110.32 36.7424C110.479 36.7871 110.644 36.8035 110.804 36.7916C111.612 35.7383 112.15 34.2301 112.746 33.0111C112.692 32.739 112.608 32.4608 112.583 32.1864C113.355 31.0822 114.605 30.4909 116.185 31.0706ZM87.4008 47.0008C88.0759 47.6759 88.7328 48.333 89.3758 48.8889C92.1147 50.6723 94.1439 47.2508 94.025 44.9238C93.8409 41.4613 90.7951 34.8266 86.6599 33.1784C78.1955 31.3537 63.3372 34.4517 66.9315 45.7466C67.8099 47.7794 70.3647 50.4266 72.9425 49.615C74.8835 49.0044 75.3975 45.8918 76.6668 44.5035C80.8753 40.474 84.3254 43.9248 87.4008 47.0008Z" transform="translate(1 0)" id="💈-Hair" fill="#000000" fill-rule="evenodd" stroke="none" />
  </g>
</svg>
