<?xml version="1.0" encoding="utf-8"?>
<svg width="108px" height="86px" viewBox="0 0 108 86" version="1.1" xmlns:xlink="http://www.w3.org/1999/xlink" xmlns="http://www.w3.org/2000/svg">
  <desc>Created with Lunacy</desc>
  <defs>
    <rect width="107.407448" height="85.6321945" id="artboard_1" />
    <clipPath id="clip_1">
      <use xlink:href="#artboard_1" clip-rule="evenodd" />
    </clipPath>
  </defs>
  <g id="facial-hair/Moustache-7" clip-path="url(#clip_1)">
    <use xlink:href="#artboard_1" stroke="none" fill="#FFFFFF" />
    <path d="M59.3173 3.97051C56.7879 3.50922 54.1729 3.63878 51.6603 3.10191C49.2091 2.57769 47.2624 1.01881 44.894 0.293169C42.8099 -0.345722 40.3672 0.0869068 38.7442 1.32522C37.2363 0.648729 35.5227 0.502409 33.8073 0.725798C31.2057 1.0646 28.7783 2.13314 26.461 3.28881C26.1925 3.42284 25.9236 3.55054 25.6551 3.67974C21.3733 3.57586 16.9838 3.58405 12.7823 4.47463C9.06175 5.26356 5.54454 7.09981 3.32581 10.1669C0.842782 13.6 0.394356 17.9718 0.0115249 22.0285C-0.23206 24.6034 3.45278 25.1258 4.7014 23.2612C5.99604 21.3282 7.34362 19.3906 9.06866 17.7889C11.0281 15.9694 13.4114 15.2531 16.0824 15.0871C21.9775 14.7207 27.9118 15.0279 33.8127 14.7743C37.2332 14.6273 41.0416 13.3506 42.4202 10.4644C43.8917 12.7024 47.2259 14.033 49.9683 14.2348C52.8664 14.4485 55.8089 13.9374 58.6782 14.5234C61.4194 15.0833 64.6777 17.0648 64.0682 20.2339C63.7099 22.0955 66.1346 23.1931 67.2505 21.5363C71.8073 14.7665 67.3173 5.43036 59.3173 3.97051" transform="translate(39.89483 10.42474)" id="💈-Hair" fill="#000000" stroke="none" />
  </g>
</svg>
