<?xml version="1.0" encoding="utf-8"?>
<svg width="108px" height="86px" viewBox="0 0 108 86" version="1.1" xmlns:xlink="http://www.w3.org/1999/xlink" xmlns="http://www.w3.org/2000/svg">
  <desc>Created with Lunacy</desc>
  <defs>
    <rect width="107.407448" height="85.6321945" id="artboard_1" />
    <clipPath id="clip_1">
      <use xlink:href="#artboard_1" clip-rule="evenodd" />
    </clipPath>
  </defs>
  <g id="facial-hair/Moustache-4" clip-path="url(#clip_1)">
    <use xlink:href="#artboard_1" stroke="none" fill="#FFFFFF" />
    <path d="M80.2751 3.72505C79.0039 2.06862 76.7188 -0.105319 74.4072 0.011588C74.1115 0.0264806 74.0006 0.337363 74.1782 0.54772C74.9343 1.44388 75.9673 2.08128 76.7249 2.99606C77.6214 4.07875 78.2685 5.38445 78.6893 6.70505C79.3008 8.62358 79.4696 10.7949 78.9245 12.7458C77.964 16.1845 74.927 18.7051 71.6135 19.9922C68.3337 21.2662 64.3873 21.7015 61.2855 19.8347C56.7072 17.0788 52.8241 13.1062 47.0697 13.0277C45.7237 13.0094 44.775 13.6077 44.21 14.4618C43.6423 13.6383 42.7055 13.0556 41.3932 13.0411C34.9423 12.9707 30.1274 17.281 24.7129 19.968C21.0537 21.7841 16.319 21.2205 12.544 20.0205C8.98304 18.889 5.11753 16.6168 3.77417 13.0288C3.03267 11.0473 3.19877 8.73379 3.96021 6.78063C4.46081 5.49614 5.23376 4.25522 6.19007 3.24588C7.18167 2.19893 8.48514 1.54068 9.5009 0.548092C9.70843 0.345181 9.54463 0.0298314 9.27189 0.011588C4.95795 -0.272488 1.06251 4.72694 0.248134 8.35403C-0.55397 11.926 0.642089 15.4887 3.06298 18.2144C7.98569 23.7559 17.1007 25.5836 24.195 23.9551C29.9371 22.6375 35.3907 19.6024 41.3932 20.038C42.709 20.1337 43.6534 19.6013 44.2234 18.7941C44.7942 19.6247 45.7448 20.1679 47.0697 20.0436C52.6641 19.5175 57.6574 23.3627 63.0876 24.3017C67.4112 25.049 72.0815 24.0411 75.7863 21.7804C79.6587 19.4173 82.3845 15.6268 82.5641 11.1077C82.6672 8.50779 81.8812 5.81782 80.2751 3.72505" transform="translate(36.82391 1.11694)" id="💈-Hair" fill="#000000" stroke="none" />
  </g>
</svg>
