<?xml version="1.0" encoding="utf-8"?>
<svg width="108px" height="86px" viewBox="0 0 108 86" version="1.1" xmlns:xlink="http://www.w3.org/1999/xlink" xmlns="http://www.w3.org/2000/svg">
  <desc>Created with Lunacy</desc>
  <defs>
    <rect width="107.407448" height="85.6321945" id="artboard_1" />
    <clipPath id="clip_1">
      <use xlink:href="#artboard_1" clip-rule="evenodd" />
    </clipPath>
  </defs>
  <g id="facial-hair/Full-2" clip-path="url(#clip_1)">
    <use xlink:href="#artboard_1" stroke="none" fill="#FFFFFF" />
    <path d="M106.13 30.5383C106.923 29.6195 109.367 28.0781 109.959 27.6004C111.129 26.6584 113.35 27.16 113.234 28.9169L112.492 40.0856C112.416 41.2384 111.442 48.6427 111.183 50.5746C110.172 58.1227 107.86 65.4426 103.016 71.4746C100.312 74.8403 97.0087 77.3832 93.3377 79.2336C90.7484 81.0654 87.8944 82.5361 84.8755 83.5897C78.7341 85.7342 72.048 85.6672 65.688 84.5838C59.911 83.6009 54.157 81.7319 48.7828 79.3677C42.5953 77.5508 36.5652 75.2313 30.8112 72.6214C24.7695 69.8811 18.2637 66.817 13.4764 62.204C8.87708 57.7772 6.46808 51.7718 4.94136 45.7738C4.70737 44.8579 4.48872 43.9346 4.28541 43.0075C4.08594 42.516 3.92099 41.9874 3.79057 41.3954C3.37245 39.5152 2.99268 37.6276 2.65128 35.7362C1.97231 31.9945 1.4276 28.2266 1.01715 24.4476C0.602867 20.624 0.342021 16.7854 0.226941 12.9431C0.207741 12.2886 0.167186 11.6018 0.125595 10.8975C-0.0322425 8.2246 -0.204992 5.2992 0.717947 2.92418C1.40459 1.15941 2.93898 0.0387473 4.59996 0.00151593C5.51676 -0.024546 6.47575 0.284475 7.35036 1.00304C9.45631 2.73058 18.1755 22.4223 21.4821 26.7969C24.8693 31.2759 28.6976 35.4793 32.9363 39.2024C33.0092 39.2434 33.0821 39.2881 33.1512 39.3328C38.9013 37.9254 44.0722 35.1703 48.2764 30.8589C51.982 27.0576 55.0047 22.6494 59.3893 19.5108C61.5374 17.9731 64.0231 16.8822 66.6776 16.5285C68.6554 16.2668 70.6206 16.4452 72.5876 16.6237C74.2296 16.7728 75.8729 16.9219 77.5258 16.8152C78.1418 16.7762 78.7508 16.723 79.3542 16.6702C82.0948 16.4304 84.7215 16.2006 87.3843 17.3662C90.1423 18.5688 92.256 20.7394 94.3197 22.8132C97.2235 25.737 100.478 28.0688 104.133 29.7189C104.657 29.7077 105.17 29.8901 105.519 30.3056C105.721 30.3853 105.925 30.4628 106.13 30.5383ZM91.592 46.529C92.9131 47.0059 94.2281 47.5007 95.5668 47.9259C96.4184 48.194 97.293 48.4509 98.1753 48.6333C100.105 46.6154 101.516 44.1916 102.633 41.5966C100.903 41.5072 99.1266 40.9004 97.6459 40.2823C94.7843 39.0835 92.195 37.3038 89.2528 36.2874C83.0539 34.1466 76.3562 35.0885 70.1841 36.8124C63.5556 38.659 57.2876 41.5407 50.636 43.3092C48.4698 43.8871 46.0754 44.447 43.63 44.784C44.032 45.2438 44.406 45.7226 44.7666 46.2151C48.1461 48.0521 51.6268 49.722 55.3274 51.0757C55.8414 51.2619 56.3593 51.448 56.8771 51.623C57.7218 51.3944 58.5573 51.1219 59.3859 50.8218C62.8747 49.219 66.1169 46.7732 69.5938 45.4121C76.6777 42.6387 84.8372 43.2359 91.592 46.529Z" transform="translate(5 0)" id="💈-Hair" fill="#000000" fill-rule="evenodd" stroke="none" />
  </g>
</svg>
