<?xml version="1.0" encoding="utf-8"?>
<svg width="108px" height="86px" viewBox="0 0 108 86" version="1.1" xmlns:xlink="http://www.w3.org/1999/xlink" xmlns="http://www.w3.org/2000/svg">
  <desc>Created with Lunacy</desc>
  <defs>
    <rect width="107.407448" height="85.6321945" id="artboard_1" />
    <clipPath id="clip_1">
      <use xlink:href="#artboard_1" clip-rule="evenodd" />
    </clipPath>
  </defs>
  <g id="facial-hair/Moustache-2" clip-path="url(#clip_1)">
    <use xlink:href="#artboard_1" stroke="none" fill="#FFFFFF" />
    <path d="M65.4141 60.636C66.1886 61.349 67.8699 62.9183 69.4807 63.6082L70.9871 63.6082C71.3104 63.5494 71.6281 63.4596 71.9434 63.3584C72.3534 62.3818 72.4325 61.244 72.2311 60.098C71.0926 53.7516 70.0756 47.3251 70.6177 40.8658C71.1282 34.7758 72.9342 28.7157 72.4466 22.5677C71.7665 8.05972 57.3329 -1.98643 44.6968 0.950759C43.0653 1.09112 41.47 1.53678 40.0491 2.32906C20.3375 -5.69653 -4.02516 7.86388 0.563444 30.0471C1.44303 36.0451 2.86158 41.7336 2.42581 47.8467C2.21714 50.7723 1.73725 53.6659 1.17413 56.5447C0.751407 58.7048 -0.367548 61.3684 0.660494 63.5006C4.79031 66.032 9.09582 60.7712 11.8543 56.2561C13.2981 52.4615 14.4976 48.5764 15.8502 44.7524C18.2907 37.8791 18.8561 34.083 26.9097 32.2087C30.3882 31.0572 33.493 29.3594 36.1556 27.1211C38.2021 26.1698 39.3686 24.2643 40.066 22.3376C40.4135 23.2862 39.9329 24.4378 39.8458 25.4226C45.6868 32.9366 52.915 31.514 55.5154 36.7391C57.5051 41.6577 58.6233 46.9014 60.1458 51.9909C60.3541 52.6875 64.2081 59.5258 65.4141 60.636" transform="translate(41.81158 10.42497)" id="💈-Hair" fill="#000000" stroke="none" />
  </g>
</svg>
