<?xml version="1.0" encoding="utf-8"?>
<svg width="182px" height="212px" viewBox="0 0 182 212" version="1.1" xmlns:xlink="http://www.w3.org/1999/xlink" xmlns="http://www.w3.org/2000/svg">
  <desc>Created with Lunacy</desc>
  <defs>
    <rect width="181.825485" height="211.10199" id="artboard_1" />
    <clipPath id="clip_1">
      <use xlink:href="#artboard_1" clip-rule="evenodd" />
    </clipPath>
  </defs>
  <g id="head/Long-Afro" clip-path="url(#clip_1)">
    <use xlink:href="#artboard_1" stroke="none" fill="#FFFFFF" />
    <path d="M134.456 59.9221C131.823 28.7687 123.806 1.17651 86.1349 0C69.1346 0.147436 51.781 3.65277 36.1478 10.1385C-1.84984 28.6298 -13.9059 96.1977 19.571 123.397C19.372 123.507 19.324 123.824 19.5591 123.978C26.4754 128.494 34.1631 132.209 41.8627 135.332C62.3721 143.747 86.5162 147.403 107.433 138.274C139.353 125.091 139.832 88.4089 134.456 59.9221L134.456 59.9221Z" transform="translate(22.25061 42.44358)" id="âœ‹-Skin" fill="#D08B5B" stroke="none" />
    <path d="M277.075 132.523C278.387 131.376 279.365 129.872 279.86 128.185C280.313 126.648 280.343 124.968 279.864 123.435C279.35 121.789 278.241 120.478 278.491 118.766C278.517 118.598 278.552 118.423 278.606 118.248C279.565 115.024 281.924 112.697 281.08 109.123C280.842 108.114 280.393 107.205 279.768 106.49C279.837 105.716 279.898 104.934 279.948 104.152C281.333 101.006 281.283 97.2683 279.806 94.1706C279.626 92.5846 279.354 91.0134 278.97 89.4683C279.146 88.1019 278.901 86.5978 278.448 85.4026C277.653 83.2998 276.67 81.2275 275.604 79.1895C275.729 78.6321 275.673 78.0431 275.356 77.5192C274.78 76.5672 274.019 75.7303 273.24 74.9123C272.69 73.9581 272.135 73.0117 271.586 72.0775C271.331 71.6482 271.05 71.172 270.74 70.6676C271.585 69.1463 272.036 67.6637 271.142 65.8748C270.807 65.2027 269.884 64.7072 269.124 64.7511C268.293 64.7991 267.455 64.8353 266.612 64.8662C265.037 63.0202 263.253 61.3631 261.34 60.4092C259.403 58.8157 257.439 57.252 255.528 55.6547C254.987 55.2005 254.443 54.7463 253.902 54.2921C253.898 54.2809 253.894 54.266 253.89 54.2548C253.491 52.8438 253.043 51.4513 252.594 50.0514C252.314 49.1839 252.229 48.2755 251.359 47.8026C249.54 46.816 246.744 46.6596 244.657 46.4921C244.45 46.3134 244.243 46.1384 244.036 45.9597C244.983 43.5099 244.814 40.9074 243.621 38.4538C243.215 37.6199 241.803 37.2438 241.028 37.7948C239.241 39.0682 237.12 39.5187 235.021 39.3325C231.937 37.0316 219.497 26.6269 217.575 25.5286C217.551 25.4891 217.532 25.4497 217.507 25.4106C216.426 23.7359 215.114 22.3911 213.638 21.3129C213.428 21.0995 213.217 20.8858 213.007 20.6721C213.192 19.3955 213.679 18.1627 214.464 17.1314C214.549 17.0123 214.645 16.8969 214.74 16.7852C216.114 15.1991 214.437 13.1588 212.519 13.9891C212.381 14.0487 212.243 14.1082 212.105 14.1715C210.631 14.8097 208.999 15.5033 207.3 16.0886C206.678 15.8626 206.045 15.6578 205.467 15.4322L199.277 13.017C198.258 12.6193 197.181 12.2824 196.195 11.8151C195.852 9.59653 193.561 8.14153 191.182 8.21748C191.319 7.79155 191.524 7.37791 191.813 6.98586C191.897 6.87045 191.989 6.75875 192.085 6.65078C193.309 5.2695 191.675 2.70798 189.925 3.93661C189.803 4.02224 189.676 4.10788 189.553 4.19351C189.067 4.52449 188.57 4.835 188.067 5.13583C187.262 4.7948 186.355 4.71698 185.406 5.07775C183.305 5.87637 181.367 6.68838 179.517 7.9401C179.442 7.99111 179.364 8.03393 179.288 8.08195C178.37 7.00522 176.912 6.28517 175.599 6.29299C175.572 6.29299 175.551 6.29261 175.527 6.29224C174.546 4.84059 172.746 3.99693 171.009 4.20207C171.126 2.11897 168.978 0.260011 167.022 0.0340163C164.736 -0.229582 162.676 1.05825 161.99 3.22214C161.799 3.82454 161.609 4.42732 161.418 5.0301C159.643 4.16074 157.77 3.49467 155.814 3.1622C151.359 2.40491 147.004 3.21134 142.711 4.41168C142.282 4.53157 141.853 4.65481 141.425 4.77767C140.813 4.08926 140.238 3.38447 139.689 2.72659C138.742 1.59103 136.467 2.49948 136.621 3.95895C136.727 4.96606 136.306 5.69058 135.627 6.20549C134.882 6.31123 134.161 6.34325 133.075 6.32203C131.639 6.29373 130.986 6.25017 129.485 5.68202C128.785 5.41768 127.914 4.72257 127.506 4.09857C125.943 1.70571 121.972 1.06123 120.081 3.34277C118.091 2.49725 115.578 3.66333 114.474 5.30747C113.896 6.16714 112.69 6.6478 111.171 7.06107C110.032 7.37084 108.866 7.60539 107.695 7.81054C107.174 7.12362 106.075 6.66307 105.269 7.23904C104.723 7.63034 104.193 8.03206 103.67 8.44384C99.6388 8.98295 95.6283 9.00232 91.7842 7.47657C88.5298 6.18464 85.5415 9.71306 86.0786 12.6752C85.1361 13.1514 84.1134 13.4682 83.1824 13.9671C81.1513 15.0565 79.4834 16.7785 78.4668 18.8016C78.2846 19.1639 78.1201 19.5317 77.9632 19.9014C77.204 20.5012 76.4533 21.117 75.7207 21.7667C74.5008 21.1599 73.2848 20.553 72.065 19.9461C71.152 19.4919 69.6138 19.8084 69.4335 20.9849C69.1381 22.9209 68.4208 24.5256 67.3966 25.8696C64.067 27.5674 60.8639 29.4736 57.799 31.5921C54.2737 32.6644 50.526 33.2898 47.4457 33.9935C46.3908 34.2355 45.8154 35.5721 46.4099 36.462C47.039 37.4039 47.6681 38.3459 48.2934 39.2878C46.5404 40.9483 44.8947 42.6833 43.3412 44.4779C39.018 49.4669 35.4007 54.9362 32.1631 60.7294C30.8819 61.232 29.6007 61.7309 28.3195 62.2335C27.0843 62.7175 26.5281 64.11 27.5293 65.1339C28.0049 65.6216 28.4307 66.1354 28.7951 66.6752C26.9807 69.5905 24.8441 72.2488 21.8558 73.9912C20.9467 74.5199 20.2639 75.3502 19.8995 76.2921C19.5888 76.4932 19.2819 76.7091 18.9789 76.9288C18.1349 77.5468 17.6248 78.8946 18.6144 79.6951C19.3088 80.261 19.9609 80.9311 20.5133 81.672C20.6322 82.0928 20.7549 82.5172 20.8777 82.9379C18.1004 85.4175 15.7912 88.2992 14.0573 91.5309C13.6468 91.4676 13.2249 91.5086 12.8835 91.7543C9.78402 93.977 9.69195 97.5177 10.9386 100.682C10.1868 105.452 10.6701 110.34 12.1201 114.961C10.2136 116.807 9.06669 119.473 8.5987 122.042C7.77396 126.554 7.71642 133.494 7.50161 138.1C5.42251 140.047 3.94182 142.568 3.11708 145.278C2.42277 145.613 1.72846 145.948 1.03415 146.283C0.416553 146.581 -0.0360923 147.367 0.00226747 148.03C0.178723 151.235 1.5405 153.767 3.34724 156.06C3.98785 157.829 4.93534 159.46 6.17819 161.023C7.03745 162.096 7.87753 163.123 8.61788 164.281C8.6946 164.396 8.74063 164.504 8.77515 164.579C8.48362 164.884 8.24195 165.391 8.03097 165.752C6.25875 168.782 6.2319 172.334 8.7483 174.974C7.80081 175.726 7.77013 177.245 8.60637 178.176C14.0496 184.211 18.5876 191.549 26.1406 194.755C26.1752 194.811 26.2058 194.867 26.2327 194.923C24.7021 198.497 24.495 200.355 25.7455 204.048C25.7532 204.081 25.7647 204.111 25.7762 204.145C26.4437 206.081 27.6712 209.182 29.8845 209.785C30.5827 209.975 31.2693 210.061 31.9483 210.057C33.7052 211.699 35.4582 213.345 37.2113 214.99C37.3647 215.806 37.4606 216.628 37.4913 217.459C37.5412 218.847 38.8876 219.972 40.3376 219.562C40.8478 219.417 43.6711 216.755 44.1889 216.77C44.4498 217.023 44.7029 217.276 44.9561 217.533C45.8883 218.483 47.181 219.979 47.2884 220.973C47.4955 222.846 48.7614 224.991 50.806 225.37C51.5732 226.126 52.8007 226.353 53.7405 225.367C53.8019 225.303 53.8633 225.24 53.9285 225.184C54.0282 225.173 54.1241 225.162 54.2238 225.151C54.6765 226.461 55.1291 227.772 55.5856 229.079C56.4794 231.655 59.8934 233.312 62.3178 231.808C62.709 232.035 63.0926 232.277 63.4762 232.519C64.0593 232.88 64.65 233.248 65.2561 233.595C65.2906 233.692 65.3252 233.788 65.3559 233.881C65.7471 235.039 67.3736 235.661 68.3748 234.995C68.6855 235.091 69.0039 235.17 69.3261 235.233C71.0178 235.557 72.7209 235.467 74.3551 234.92C75.525 234.533 76.6413 233.792 77.8995 233.692C77.9781 233.685 78.0591 233.69 78.1389 233.688C79.1654 235.729 81.5111 237.488 83.3596 238.086C85.7809 238.869 88.2589 238.589 90.4639 237.63C91.0588 238.784 91.8061 239.878 92.6987 240.888C93.1936 241.447 94.0873 241.328 94.5975 240.888C95.5665 240.055 96.5293 239.217 97.4906 238.378C98.1865 238.118 98.8888 237.806 99.6215 237.515C101.913 236.607 104.425 236.23 106.545 234.918C107.551 234.294 108.497 233.499 109.277 232.578C110.745 231.755 112.094 230.73 113.309 229.555C113.916 229.559 114.548 229.421 115.162 229.12C117.728 227.854 119.079 225.277 119.198 222.641C121.277 217.894 122.504 212.831 122.842 207.648C122.949 205.947 122.968 204.23 122.834 202.529C122.742 201.33 122.431 200.53 121.963 199.446C121.806 199.092 121.664 198.769 121.553 198.411C121.58 197.264 121.595 196.118 121.61 194.975C121.929 194.01 122.497 193.113 123.287 192.357C124.51 191.188 125.071 188.761 123.958 187.316C123.233 186.382 122.512 185.447 121.787 184.513C121.99 180.503 122.98 174.121 120.786 173.451C120.874 172.855 121.062 172.267 121.169 171.675C121.683 168.831 121.376 166.288 119.819 163.801C119.493 163.283 119.217 162.825 118.991 162.379C118.849 161.559 118.707 160.74 118.565 159.921C118.346 158.659 118.131 157.386 117.947 156.105C117.851 154.474 117.763 152.844 117.667 151.209C117.579 149.705 117.479 148.201 117.376 146.693C117.418 146.019 117.479 145.345 117.567 144.671C118.093 140.654 119.785 139.168 122.715 136.376C123.176 136.305 123.632 136.227 124.081 136.138C126.171 135.717 128.358 135.066 130.51 135.3C132.846 135.553 134.937 136.533 137.208 135.282C137.875 134.909 139.344 133.882 139.471 133.066C139.478 133.014 139.49 132.969 139.505 132.936C139.663 132.914 139.866 132.895 139.992 132.891C141.795 132.832 143.518 133.52 145.336 133.331C147.488 133.107 149.414 132.18 150.68 130.806C152.302 131.194 153.959 131.369 155.643 131.153C157.055 130.974 158.321 130.527 159.571 129.864C160.48 129.388 160.193 129.25 161.182 129.637C163.434 130.523 165.471 131.692 168.007 131.086C169.322 130.773 170.458 130.084 171.413 129.157C171.639 128.941 172.023 128.617 172.28 128.312C173.484 128.904 176.515 130.24 177.014 130.36C178.425 130.695 179.921 130.643 181.294 130.196C182.303 129.868 183.539 128.975 184.425 128.792C185.572 128.554 188.119 130.103 189.488 130.635C191.889 131.57 194.433 131.8 196.865 130.836C197.701 130.505 199.327 129.183 199.953 129.194C200.969 130.412 203.808 137.072 204.659 139.504C208.108 149.333 209.002 180.023 207.41 187.852C207.348 188.083 207.283 188.31 207.218 188.541C205.262 195.351 203.225 202.276 199.953 208.62C196.865 214.599 192.595 219.983 186.469 223.248C180.117 226.636 172.66 227.526 165.517 227.068C160.918 226.778 156.395 225.88 151.945 224.756C149.621 224.171 147.315 223.52 145.021 222.842C144.02 222.548 143.004 222.273 142.022 221.93C140.288 221.323 139.379 221.275 137.718 222.053C136.206 222.76 135.819 224.849 136.605 226.163C137.887 228.308 140.234 228.457 142.501 229.082C144.811 229.719 147.127 230.33 149.46 230.877C153.929 231.919 158.47 232.72 163.051 233.088C171.252 233.755 179.703 232.727 187.167 229.254C188.011 228.859 188.825 228.438 189.611 227.984C189.319 228.379 189.024 228.773 188.725 229.164C187.896 230.248 188.51 232.091 189.672 232.683C190.041 232.869 190.409 233.047 190.781 233.222C190.831 233.338 190.884 233.453 190.946 233.569C192.008 235.639 194.233 236.86 196.5 237.389C199.193 238.014 202.208 237.571 204.947 237.493C207.487 237.418 210.026 237.344 212.562 237.27C213.16 237.255 213.758 237.236 214.357 237.217C217.372 237.128 220.383 237.042 223.394 236.953C226.08 236.875 225.953 237.076 228.473 236.033C229.597 235.564 230.518 234.902 231.293 234.019C231.776 233.811 232.244 233.572 232.693 233.301C234.135 232.429 235.416 231.26 236.598 229.972C238.604 230.586 241.416 230.017 241.807 227.571C242.436 223.658 247.676 221.986 250.123 219.156C252.099 216.874 253.511 213.884 253.438 211.014C258.417 208.676 261.125 202.514 261.758 197.287C262.053 194.863 262.007 192.268 262.433 189.803C262.621 189.606 262.79 189.397 262.932 189.174C264.182 187.212 265.272 185.19 266.231 183.12C267.535 182.208 269.104 181.646 270.746 181.553C274.781 181.326 275.541 176.042 271.693 174.769C271.674 174.762 271.659 174.758 271.639 174.751C272.683 172.219 272.595 169.222 271.329 166.824C271.382 166.563 271.432 166.306 271.482 166.046C273.642 163.793 274.881 160.662 274.743 157.613C275.729 156.939 276.833 156.418 278.042 156.094C279.91 155.595 279.921 153.383 278.54 152.393C277.984 151.995 277.524 151.529 277.14 151.016C278.095 148.231 277.72 145.01 275.767 142.724C277.006 141.183 278.245 139.641 279.484 138.1C280.305 137.08 280.738 135.349 279.484 134.381C278.682 133.759 277.881 133.141 277.075 132.523Z" transform="translate(-57.53905 -44.67764)" id="ðŸ–-Ink" fill="#000000" stroke="none" />
  </g>
</svg>