<?xml version="1.0" encoding="utf-8"?>
<svg width="182px" height="212px" viewBox="0 0 182 212" version="1.1" xmlns:xlink="http://www.w3.org/1999/xlink" xmlns="http://www.w3.org/2000/svg">
  <desc>Created with Lunacy</desc>
  <defs>
    <rect width="181.825485" height="211.10199" id="artboard_1" />
    <clipPath id="clip_1">
      <use xlink:href="#artboard_1" clip-rule="evenodd" />
    </clipPath>
  </defs>
  <g id="head/Medium-Bangs" clip-path="url(#clip_1)">
    <use xlink:href="#artboard_1" stroke="none" fill="#FFFFFF" />
    <path d="M100.734 0.0607208C56.5854 -1.503 14.4001 27.2951 0.196594 67.9998C-0.835443 71.1928 2.37632 74.1754 5.61708 73.6355C2.30265 89.8334 9.54638 111.636 28.415 113.934C32.2798 114.407 36.1649 114.135 40.035 114.479C43.4845 114.786 62.2639 125.039 69.2962 127.442C84.1012 132.461 121.357 131.542 136.177 127.442C136.717 128.633 148.226 82.8213 150.847 68.6175C151.803 62.4634 143.07 57.9072 143.714 51.5655C144.541 43.4193 154.358 33.4871 151.35 25.7318C143.422 5.99317 120.414 0.485531 100.734 0.0607208Z" transform="translate(13.42475 53.98552)" id="âœ‹-Skin" fill="#D08B5B" stroke="none" />
    <path d="M138.45 1.08273C136.49 0.725306 134.495 0.453517 132.512 0.293422C127.813 -0.0863383 123.098 -0.0826152 118.392 0.218959C109.45 0.792323 100.497 2.49752 91.9157 4.9883C83.6415 7.39345 75.7125 10.8187 69.13 16.3364C63.3952 21.143 58.9493 27.3532 55.5161 33.865C55.2138 34.4376 54.9188 35.0147 54.6281 35.594C50.5562 41.2025 47.0286 47.1797 44.2199 53.4807C42.5363 57.2575 41.1369 61.1541 39.9988 65.1174C38.8622 69.0754 38.062 73.0842 37.495 77.1528C37.3431 78.2407 37.2254 79.3312 37.1329 80.4236L37.1025 80.7643L37.0739 81.1053C35.6699 81.5986 34.2333 82.0335 33.0027 82.6604C29.7613 84.3135 26.892 86.6777 24.4216 89.2802C19.4882 94.4823 15.7738 100.71 12.3971 106.945L11.9585 107.758C8.28495 114.594 5.54443 121.882 3.0031 129.209L2.55655 130.503C-3.08311 146.904 1.0306 164.061 10.7502 170.173C16.3895 173.719 22.4423 176.48 28.8522 177.999C42.8228 181.309 57.3842 182.34 71.7078 181.13C73.1079 181.011 74.5042 180.866 75.9005 180.706C80.1738 181.48 84.4969 181.152 88.5055 179.909C91.4746 179.585 94.4705 179.023 97.0483 177.478C97.7464 177.061 98.3563 176.592 98.8972 176.081C99.511 176.398 100.267 176.443 100.934 176.018C103.343 174.492 105.522 172.686 106.093 169.789C106.669 166.867 106.454 160.132 105.721 157.257C105.319 155.671 104.218 154.707 102.921 154.316C101.793 151.982 98.8205 150.261 97.0214 148.653C94.4551 146.356 91.9809 143.925 89.71 141.352C87.5274 138.884 85.4751 136.333 83.4689 133.727C82.0726 131.91 80.8336 129.952 79.3836 128.172C80.2927 127.245 80.8834 126.106 80.8489 124.721C80.842 124.45 80.7726 124.168 80.6602 123.898C79.644 124.356 78.5884 124.748 77.5013 124.997C76.3758 125.255 75.1264 125.411 73.9955 125.091C73.5337 124.96 73.1631 124.763 72.8551 124.525C72.7466 124.561 72.6376 124.595 72.5248 124.62C71.0642 124.946 70.5576 123.592 70.323 122.402L70.2961 122.26C70.0757 121.067 70.0669 119.866 70.0581 118.664C70.0471 117.168 70.0362 115.671 69.6172 114.184C68.9983 112 67.8411 110.007 66.7425 108.018L66.4448 107.475C64.4156 103.752 64.4424 99.8055 67.4153 96.5329C68.9263 94.8701 71.1408 93.7736 73.4838 93.3607C77.3601 93.9695 80.923 96.5437 82.3634 100.135L82.3932 100.206C83.3296 102.323 86.9503 101.359 86.0624 99.145C85.2169 97.0373 83.9246 95.2033 82.3235 93.7189L82.3932 93.7184C84.957 93.5472 118.359 75.7762 132.132 57.3349C132.131 57.3457 132.13 57.3561 132.128 57.3665L132.067 57.7148C131.79 59.2208 131.358 60.6872 130.832 62.1296C130.208 63.8426 132.276 64.8035 133.65 64.2316C139.597 61.7576 145.004 58.3122 150.107 54.4837C152.4 53.1724 154.633 51.758 156.799 50.2561C157.407 54.2838 157.201 58.358 156.166 62.3645C155.829 63.668 157.091 65.1274 158.525 64.6546C164.262 62.7621 169.129 58.8837 172.199 53.9252C174.038 56.4611 175.427 59.2612 176.342 62.2725C176.705 63.4654 178.054 63.9457 179.16 63.385C182.218 61.8347 184.378 59.3547 185.905 56.4916C186.34 56.9157 186.761 57.3584 187.163 57.8271C187.292 57.9775 187.417 58.1302 187.542 58.2824L187.634 58.4395C188.135 59.2486 188.702 59.985 189.303 60.6891L189.438 60.894C189.998 61.7222 190.595 62.2968 191.29 62.8988L191.594 63.1594C192.016 63.5961 192.439 64.0358 192.855 64.4889C193.307 64.9804 193.696 65.4964 194.033 66.0325C193.733 67.3103 193.596 68.6328 193.362 69.9161L192.388 75.2439L192.255 75.9837C191.652 79.438 191.259 82.9176 190.984 86.4134C190.385 93.9378 190.37 101.507 190.266 109.05L190.237 111.248C190.156 117.845 190.133 124.448 189.937 131.043C189.749 137.29 188.364 142.733 184.773 147.972C182.967 150.611 180.811 153.02 178.805 155.519C178.678 155.679 178.551 155.835 178.425 155.991C177.542 156.52 176.676 157.079 175.835 157.741L175.589 157.932C174.021 159.129 172.301 160.136 170.442 160.858C165.705 162.698 160.471 163.073 155.407 163.337L153.782 163.418C149.049 163.645 144.261 163.708 139.543 163.237C137.13 162.995 134.79 162.44 132.451 161.852C130.072 161.252 127.916 160.191 125.611 159.406C125.377 159.327 125.154 159.618 125.289 159.819C128.143 164.085 133.766 166.45 138.592 167.864C144.001 169.451 149.674 169.882 155.298 169.894C157.58 169.901 159.901 169.849 162.206 169.666C161.784 172.053 163.476 174.924 165.026 176.603C166.161 177.831 168.045 179.09 170.039 179.771C171.879 181.074 174.396 181.884 176.375 182.401L176.806 182.511C180.757 183.502 184.9 183.732 188.939 183.23C197.382 182.187 205.2 178.274 210.398 171.647C216.428 163.955 217.989 153.661 217.049 144.245C215.841 132.104 211.445 120.484 208.553 108.674C207.126 102.855 206.063 96.9647 204.809 91.112C204.568 89.9868 204.341 88.858 204.117 87.7287C204.574 86.4383 204.987 85.1337 205.364 83.8195C205.194 83.6627 205.107 83.424 205.198 83.1214C205.715 81.3946 206.196 79.6573 206.63 77.9086C206.831 77.101 207.02 76.2905 207.201 75.4781C207.251 75.1576 207.303 74.837 207.349 74.5157L207.432 74.4111C207.765 72.8306 208.057 71.2419 208.302 69.6466L208.244 69.5196C208.413 68.1834 208.503 66.8382 208.488 65.4908C208.456 62.5819 208.035 59.6823 207.563 56.8062C207.711 55.3815 207.683 53.9432 207.622 52.7438L207.597 52.3057C207.379 48.6905 206.623 45.0828 205.28 41.7022C202.637 35.0378 198.345 29.3078 193.097 24.3337C182.901 14.6722 169.878 7.27059 156.349 3.00759C150.572 1.18698 144.407 0.13705 138.45 1.08273ZM82.1156 108.492C79.9329 104.046 74.0639 102.17 69.7561 104.906C69.5413 105.04 69.687 105.323 69.921 105.286C73.3082 104.795 76.8335 107.099 77.6544 110.316C78.4791 113.525 83.6922 111.712 82.1156 108.492Z" transform="translate(-40.27518 17.87087)" id="ðŸ–-Ink" fill="#000000" fill-rule="evenodd" stroke="none" />
  </g>
</svg>