<?xml version="1.0" encoding="utf-8"?>
<svg width="182px" height="212px" viewBox="0 0 182 212" version="1.1" xmlns:xlink="http://www.w3.org/1999/xlink" xmlns="http://www.w3.org/2000/svg">
  <desc>Created with Lunacy</desc>
  <defs>
    <rect width="181.825485" height="211.10199" id="artboard_1" />
    <clipPath id="clip_1">
      <use xlink:href="#artboard_1" clip-rule="evenodd" />
    </clipPath>
  </defs>
  <g id="head/Short-5" clip-path="url(#clip_1)">
    <use xlink:href="#artboard_1" stroke="none" fill="#FFFFFF" />
    <path d="M71.2057 0C92.9867 0 115.515 16.3863 123.499 26.8428C130.212 35.6341 133.826 75.3882 133.826 102.254C133.826 107.873 137.021 118.465 136.089 123.84C132.672 143.535 117.788 160.053 88.3279 160.053C58.8682 160.053 37.7459 148.719 15.8492 118.289C5.22485 118.289 0.0758438 110.381 0.00106713 97.9015C-0.0737096 85.422 10.2563 80.8816 10.2563 80.8816C10.2563 80.8816 6.57315 31.6322 15.8492 18.81C25.1253 5.98786 49.4248 -3.08021e-15 71.2057 0Z" transform="translate(21.64167 28.02022)" id="âœ‹-Skin" fill="#D08B5B" stroke="none" />
    <path d="M105.281 2.71319C91.7284 0.363515 78.2526 -0.772042 64.5006 0.579457C57.7834 1.24255 51.0938 2.31444 44.5727 4.03118C38.8379 5.5465 32.3167 7.32951 27.3683 10.7366C25.4771 8.37236 22.4544 6.38793 19.259 7.32243C15.8642 8.31651 15.308 11.209 15.9793 14.2028C16.0454 14.4949 16.1189 14.6706 16.1671 14.7857C16.2425 14.966 16.2559 14.998 16.0821 15.0964L15.8872 15.2006C15.2389 15.5431 14.4675 15.6064 13.8196 16.0193C12.6454 16.768 11.8671 18.0075 11.5253 19.3147C10.7777 22.1625 12.2119 24.6384 14.0229 26.7423C7.636 35.7114 4.03786 46.2925 2.61854 57.071C1.86285 62.7972 1.70941 68.676 2.27714 74.4246C2.54527 77.1462 2.84103 79.9162 3.44711 82.5894C3.96459 84.8751 4.76286 87.046 5.64129 89.2088L5.75599 89.4992C2.62199 92.1653 0.708224 96.2608 0.198039 100.215C-0.649713 106.767 1.26828 114.798 5.10809 120.29C6.25083 121.92 7.60148 123.354 9.1819 124.508C8.61418 125.577 8.1577 126.712 7.74341 127.754L7.59276 128.132C6.86281 129.959 6.02773 132.113 6.83812 134.009C7.72807 136.098 10.1175 136.537 12.0627 135.555C12.3082 135.431 12.551 135.299 12.7931 135.162C13.2634 135.169 13.7456 135.108 14.2281 135.003C14.7399 136.667 15.7928 138.197 17.1653 139.107C19.7734 140.838 23.5618 140.672 26.1811 138.942C28.8252 143.085 32.1548 146.849 35.842 150.142L35.9266 150.217C36.0724 150.348 36.2215 150.484 36.3739 150.623C38.3233 152.397 40.7997 154.651 43.5711 153.579C46.272 152.536 45.8266 149.39 44.1852 147.588C42.4974 145.741 40.2035 144.286 38.366 142.554C36.4212 140.726 34.5339 138.868 32.7498 136.891C30.859 134.795 28.9944 132.673 27.0729 130.607C26.0334 129.486 24.9593 128.388 23.9389 127.248C23.54 126.655 23.1121 126.085 22.7016 125.552L22.1049 124.784C22.1629 124.698 22.2242 124.616 22.2779 124.526C23.0797 123.231 22.2626 121.802 20.9353 121.321C18.9291 120.599 16.7925 120.837 14.8204 120.07C12.8338 119.299 11.3301 117.728 10.2326 115.99C7.73919 112.036 6.26272 106.838 6.30492 102.214C6.33944 98.2635 8.01155 93.967 11.6519 91.8824C13.2503 90.9676 15.86 90.5521 18.18 90.9315C19.1562 91.7517 20.218 92.5142 21.1053 93.4282L20.9929 93.6993C20.897 93.9338 21.2806 94.1572 21.4417 93.9521L21.5073 93.8694C21.7651 94.1717 22.0048 94.4901 22.2108 94.8367C23.2435 96.5761 23.6758 98.4113 25.8634 99.1403C27.2668 99.6077 28.5952 99.2729 29.9373 98.9347C30.5138 98.7894 31.0929 98.6434 31.6815 98.5602C33.321 98.3282 34.0667 96.381 33.7529 95.0191C32.7809 90.7978 31.8867 86.5691 30.8099 82.3701L30.4363 80.949C33.0459 76.6242 35.4411 72.1702 37.7366 67.6741C37.806 68.5197 37.8865 69.3685 37.9824 70.2137C38.1474 71.6505 40.1958 73.0619 41.3926 71.5835C45.3318 66.7136 49.2832 61.9666 52.5745 56.6391C54.7687 53.0873 56.7093 49.3641 58.4282 45.555C58.6047 46.1246 58.7965 46.6909 59.0036 47.2416C59.6822 49.0141 61.3666 50.2834 63.3843 49.7472C65.2908 49.2413 66.4569 47.491 67.3277 45.9087L68.2103 44.2983C68.7964 43.2234 69.3787 42.1461 69.9592 41.0686C72.8669 44.7028 76.4381 47.7591 80.573 50.0939C81.6125 50.6821 83.2355 50.1832 83.4845 48.9468C84.1331 45.7374 84.7772 42.5322 85.422 39.3265C90.942 43.2135 96.7573 46.6719 102.845 49.6731C104.218 50.3508 105.948 49.5276 105.952 47.9415C105.956 45.4023 106.167 42.8855 106.673 40.3951C109.336 42.3795 112.316 43.8688 115.527 44.8364C118.596 45.7638 121.918 46.1957 125.12 45.8938C125.147 45.8904 125.178 45.8867 125.205 45.8867L125.673 46.147L125.762 46.1942C126.62 46.6284 127.438 46.4243 128.009 45.9273C129.551 57.2088 132.179 68.3108 133.168 79.6891C133.709 85.9026 133.978 92.1538 133.897 98.3938C133.855 101.402 133.736 104.407 133.54 107.412C133.364 110.055 132.903 112.728 132.708 115.379C132.014 116.108 131.661 117.132 131.995 118.235C132.988 121.5 134.564 124.449 134.917 127.904C135.263 131.31 134.96 134.762 134.081 138.071C132.359 144.546 128.442 150.563 123.01 154.695C111.694 163.303 95.8444 166.55 81.7433 164.636C73.5876 163.526 66.081 161.248 59.6097 156.14C59.4332 155.999 59.1302 156.177 59.2721 156.393C68.3174 170.039 86.2276 173.341 101.705 170.887C118.427 168.236 135.075 158.035 140.591 141.869C142.053 137.591 142.709 132.952 142.294 128.454C141.961 124.821 141.17 120.796 139.206 117.553C139.782 114.478 139.789 111.213 139.943 108.104L139.993 107.025C140.117 104.149 140.166 101.27 140.142 98.3938C140.092 92.0238 139.686 85.6647 138.861 79.3425C137.704 70.4565 136.095 61.337 132.917 52.843C133.77 52.6613 134.577 51.9208 134.653 51.0243C134.881 48.3388 134.495 45.711 133.68 43.1975C135.635 42.3293 137.322 40.9982 137.714 38.7755C137.91 37.6511 137.729 36.5416 137.258 35.5993C140.507 32.6249 143.265 28.4099 143.05 24.2553C142.904 21.5039 140.84 19.4375 138.063 19.0801C137.541 19.0131 137.016 19.0019 136.494 19.0354C136.751 18.4505 136.977 17.8511 137.112 17.2256C137.637 14.7758 136.705 12.1141 134.327 10.9078C132.458 9.95998 130.386 10.2544 128.468 10.8515L128.189 10.941C128.411 10.5537 128.63 10.1665 128.841 9.76854C129.896 7.76512 128.584 5.5465 126.271 5.42363C119.896 5.08483 113.505 4.63023 107.122 4.34727C106.904 3.55462 106.317 2.89525 105.281 2.71319ZM15.7548 97.4486C13.4107 97.0498 11.0285 98.554 11.0519 100.993C11.0558 101.346 11.5924 101.421 11.6883 101.075L11.7117 101.004C11.9736 100.318 13.0737 100.086 13.6677 100.252C13.9756 100.337 14.2316 100.517 14.47 100.714L14.6267 100.847C15.3521 101.465 15.8162 102.285 16.3456 103.055L16.4662 103.233C17.6313 104.952 18.7698 106.803 20.546 107.959C23.1353 109.634 25.9083 106.418 24.5964 104.027C23.7013 102.408 21.9776 101.174 20.4761 100.03L19.875 99.5686C18.642 98.6262 17.3289 97.7144 15.7548 97.4486Z" transform="translate(19.17968 20.47707)" id="ðŸ–-Ink" fill="#000000" fill-rule="evenodd" stroke="none" />
  </g>
</svg>