<?xml version="1.0" encoding="utf-8"?>
<svg width="182px" height="212px" viewBox="0 0 182 212" version="1.1" xmlns:xlink="http://www.w3.org/1999/xlink" xmlns="http://www.w3.org/2000/svg">
  <desc>Created with Lunacy</desc>
  <defs>
    <rect width="181.825485" height="211.10199" id="artboard_1" />
    <clipPath id="clip_1">
      <use xlink:href="#artboard_1" clip-rule="evenodd" />
    </clipPath>
  </defs>
  <g id="head/Shaved-2" clip-path="url(#clip_1)">
    <use xlink:href="#artboard_1" stroke="none" fill="#FFFFFF" />
    <path d="M126.364 35.4794C123.649 25.9869 124.037 24.9602 119.99 15.8932C106.572 -10.448 16.9026 -1.62822 7.75109 24.6661C2.78634 38.9309 3.95271 59.0206 2.66036 71.39C2.26489 77.9482 1.87641 84.5068 1.47398 91.0644C1.33499 93.3291 1.19435 95.5937 1.05117 97.8581C0.772294 102.266 0.50109 106.675 0.247916 111.084C-1.438 124.668 5.59565 126.05 17.6602 125.648C20.8498 133.117 26.0157 139.352 32.3969 144.425C30.8567 148.491 36.4419 150.596 39.4547 152.222C55.847 161.105 75.9824 166.524 94.1393 161.529C99.4742 160.061 121.506 154.978 128.28 139.242C131.606 131.514 138.369 91.4958 129.451 55.4975L126.364 35.4794Z" transform="translate(22.63283 21.04112)" id="âœ‹-Skin" fill="#D08B5B" stroke="none" />
    <path d="M81.626 2.33701C80.1726 -0.0793032 77.3374 -0.246845 74.8022 0.188391C72.0016 0.672771 69.2205 1.35038 66.4739 2.06895C57.5898 4.39963 48.8438 7.676 40.7076 11.9312C40.2397 11.7752 39.7103 11.7715 39.1502 11.9762C30.209 15.241 22.3563 20.9043 16.6906 28.3841C13.9133 32.0514 11.685 36.0869 10.1349 40.3838C9.48916 42.174 9.14445 43.9665 8.81884 45.8071L8.4754 47.757C8.14691 49.6405 7.8438 51.6335 7.99057 53.5116C8.06729 54.4461 8.58514 56.1025 9.74361 55.9986C5.97668 66.0917 4.21213 77.3695 3.65591 88.0474C3.37205 93.472 3.49096 98.8516 4.02838 104.254C4.29652 106.946 4.63025 109.63 5.15194 112.288C5.58157 114.478 5.94983 117.251 7.49573 118.994C7.7489 119.281 8.19771 119.095 8.29745 118.785L8.30128 118.785L8.37485 118.605C9.02461 116.926 8.88987 114.83 8.76803 112.934C8.73573 112.432 8.70434 111.943 8.68871 111.48C8.59665 108.844 8.5276 106.201 8.53144 103.565C8.54295 98.3977 8.77311 93.1965 9.25644 88.0474C9.73594 82.9169 10.4609 77.7976 11.4932 72.7453C12.5132 67.7373 14.0054 62.8902 15.394 57.9793C20.4383 59.1406 24.8037 62.3131 29.9861 63.2103C31.5703 63.4855 33.0587 62.8083 33.5574 61.2408C33.5574 61.2371 33.5574 61.2371 33.5612 61.2334C37.3818 59.8595 41.1028 58.1655 44.9694 56.9067C48.8821 55.6334 53.1136 54.1519 57.2752 53.3813C58.123 54.0998 59.2891 54.5094 60.4936 54.528C62.8439 54.5657 65.0352 53.8393 67.23 53.1117C69.1547 52.4737 71.0821 51.8348 73.1217 51.7096C75.8436 51.5446 78.5777 51.7285 81.2969 51.9114C85.2073 52.1744 89.0867 52.4353 92.854 51.6537C93.1839 52.2271 93.5985 52.7595 94.078 53.2212C95.4471 54.5462 97.1234 55.2093 99.0261 55.4104C100.06 55.517 101.094 55.423 102.125 55.3292C103.182 55.233 104.236 55.1371 105.286 55.2577C107.116 55.4737 108.957 56.3039 110.699 56.8661C112.371 57.4019 114.052 57.9272 115.701 58.5304C118.421 59.5244 121.359 60.8905 123.058 63.2774L123.141 63.3894C123.789 64.2336 124.687 64.7328 125.625 64.9044C125.786 65.4513 126.154 65.9878 126.783 66.4495C127.712 67.1308 128.747 67.5999 129.833 67.8829C130.32 71.8815 130.911 75.8727 131.459 79.8565C132.526 87.6267 133.531 95.4155 134.267 103.219C135.748 118.909 136.335 134.616 134.428 150.302C133.769 155.726 132.974 161.188 130.347 166.092C128.279 169.953 125.429 173.278 122.007 176.085C115.03 181.807 105.866 184.912 96.8932 186.003C91.5574 186.655 86.0336 186.636 80.7246 185.798C78.1161 185.385 75.5153 184.804 72.9721 184.115L72.0778 183.878C71.4809 183.722 70.8826 183.571 70.2839 183.421L68.4878 182.973C68.6646 182.209 67.736 181.382 66.8844 181.535C65.9561 181.699 65.0354 181.897 64.1033 182.079C62.7994 182.328 62.17 184.305 63.2709 185.143C65.3887 186.755 67.4521 188.189 69.957 189.16C72.2854 190.061 74.6522 190.769 77.1038 191.268C82.267 192.317 87.5872 192.75 92.8578 192.522C103.192 192.072 113.695 189.231 122.291 183.52C130.746 177.905 137.083 169.618 139.173 159.785C142.454 144.342 142.137 127.941 140.775 112.286L140.673 111.142C139.837 101.89 138.464 92.6753 136.692 83.5499C135.694 78.4194 134.666 73.2587 133.416 68.1621C137.133 67.8457 140.788 65.7492 142.484 62.5923C142.729 62.1381 142.852 61.6504 142.856 61.1775C144.736 60.4437 146.462 59.3267 147.904 57.871C148.844 56.922 149.178 55.5258 148.763 54.2972C150.804 53.3362 152.396 51.7356 152.987 49.2147C153.635 46.4521 152.684 43.6974 150.865 41.8991C151.736 39.077 151.238 35.7745 149.615 33.2093C148.123 30.8447 145.909 29.3931 143.408 28.4958C143.792 28.0602 144.149 27.6097 144.49 27.1368C145.583 25.6178 144.805 23.1825 143.194 22.3377C137.443 19.322 130.811 18.0297 124.37 18.7337C124.106 18.3651 123.787 18.0412 123.442 17.7918C120.561 15.6696 117.266 14.3553 113.818 13.7927C113.883 13.6516 113.948 13.5102 114.01 13.3687C114.704 11.7603 113.246 9.79819 111.685 9.38864C109.491 8.81491 107.277 8.44259 105.06 8.26798C105.164 8.11495 105.26 7.95896 105.355 7.79886C106.284 6.23849 105.543 3.50943 103.434 3.21568C96.3562 2.22532 89.1637 2.38914 82.236 3.90073C82.1401 3.38322 81.9406 2.85788 81.626 2.33701ZM7.23491 120.234C10.929 117.985 18.551 117.397 20.611 122.188C20.6954 122.382 20.4575 122.553 20.2811 122.509L19.777 122.385C17.8407 121.919 16.1675 121.652 14.1819 122.423C12.4365 123.101 10.741 124.162 9.58636 125.621C6.85697 129.073 6.56102 133.761 6.81555 137.948L6.82829 138.15C7.06612 141.824 8.03663 146.3 11.7383 148.116C13.5198 148.99 15.4396 148.973 17.373 148.957C17.4754 148.956 17.5778 148.955 17.6803 148.954C20.001 148.939 22.3717 149.185 24.5889 149.878C25.8279 150.265 26.411 151.858 25.3829 152.793C25.0415 153.102 24.6848 153.392 24.3089 153.653C25.4328 154.815 26.5376 155.991 27.6078 157.231C29.4222 159.334 31.3517 161.367 33.3656 163.292C35.3143 165.15 37.378 166.948 39.6029 168.489C41.9429 170.106 44.7431 171.241 46.7685 173.222C48.0881 174.51 47.8618 176.308 46.7685 177.611C44.0545 180.85 39.435 177.445 36.84 175.53L36.5264 175.299C33.8298 173.318 31.2673 171.181 29.0846 168.664C26.8598 166.095 24.9341 163.363 23.511 160.299C22.6747 158.497 22.1415 156.795 21.8538 155.016C17.1893 156.982 11.3087 156.356 7.1275 153.589C1.57684 149.918 0.0194285 143.18 0 137.029L0.00056421 136.664C0.0416373 130.685 1.65992 123.627 7.23491 120.234ZM17.9305 128.901L17.7595 128.9C14.061 128.887 10.8632 130.73 9.2497 133.935C9.1772 134.084 9.33409 134.274 9.49559 134.173C12.1229 132.569 16.1046 132.464 18.6287 134.318C19.9713 135.301 20.8727 136.757 22.2422 137.729C24.0758 139.025 26.6344 139.3 28.3299 137.639C29.2658 136.724 29.3042 135.458 28.7672 134.352C27.8695 132.52 25.4375 131.735 23.742 130.756L23.5618 130.652C21.8169 129.663 19.9848 128.945 17.9305 128.901Z" transform="translate(16.8779 -5.584701)" id="ðŸ–-Ink" fill="#000000" fill-rule="evenodd" stroke="none" />
  </g>
</svg>