<?xml version="1.0" encoding="utf-8"?>
<svg width="182px" height="212px" viewBox="0 0 182 212" version="1.1" xmlns:xlink="http://www.w3.org/1999/xlink" xmlns="http://www.w3.org/2000/svg">
  <desc>Created with Lunacy</desc>
  <defs>
    <rect width="181.825485" height="211.10199" id="artboard_1" />
    <clipPath id="clip_1">
      <use xlink:href="#artboard_1" clip-rule="evenodd" />
    </clipPath>
  </defs>
  <g id="head/Bun" clip-path="url(#clip_1)">
    <use xlink:href="#artboard_1" stroke="none" fill="#FFFFFF" />
    <path d="M38.9577 0.124108C97.0996 -2.65102 136.549 41.8526 138.246 59.5993C139.424 71.9182 138.625 88.3475 138.625 99.3555C138.625 104.974 141.546 122.054 138.246 130.243C130.902 148.471 122.604 162.749 99.612 162.749C76.6203 162.749 41.5703 151.183 29.5347 136.266C27.3372 133.542 0.0308926 113.604 0.0308926 97.9329C0.0308926 64.4971 -2.52905 2.10428 38.9577 0.124108Z" transform="translate(18.38525 23.65457)" id="âœ‹-Skin" fill="#D08B5B" stroke="none" />
    <path d="M49.9328 3.00905C48.4241 0.766971 46.3093 -0.680213 42.9958 0.325035C42.0287 0.61879 41.1545 1.13407 40.3712 1.80238C38.4171 0.559592 35.7485 0.851859 34.1331 3.1468C33.6881 3.77936 33.3222 4.47112 33.0199 5.19862C31.3724 4.5199 29.6604 4.54968 28.0389 6.13686C27.3902 6.77165 26.9867 7.54606 26.8141 8.3659C26.7692 8.27319 26.722 8.1857 26.6783 8.09001L26.6365 8.00327C25.7799 6.31474 22.8932 5.65695 21.3486 6.73367C20.3278 7.44554 19.5457 8.24974 19.0769 9.23898C18.4313 9.23637 17.7961 9.31344 17.1858 9.52231C14.903 10.3042 13.9371 12.6006 14.1097 14.843C12.1668 15.5188 10.3178 16.4753 8.63191 17.7266C7.25095 18.7505 6.70241 20.1243 7.11669 21.5019C5.4864 22.1869 4.1323 23.1773 3.29989 24.7969C2.36008 26.6286 2.25267 28.7471 2.98151 30.4225C2.73485 30.8842 2.53538 31.3648 2.37197 31.8563C0.898954 32.2174 -0.195451 33.5853 0.0293376 35.1989C0.208862 36.486 1.08999 37.3431 2.18171 37.6532C2.44677 38.7475 2.87372 39.8063 3.44835 40.7773C2.13069 41.7249 0.979894 42.933 0.414854 44.3772C-0.0136253 45.4733 0.151705 46.4514 0.668412 47.2109C0.68529 48.5371 1.43944 49.8994 2.59599 50.542C1.72522 52.2211 2.35509 54.5518 4.18716 55.2168C3.44029 56.6882 3.01642 58.2794 3.17331 60.0032C3.38812 62.4047 4.65016 64.7018 6.58733 66.0682C6.04684 68.3278 6.08865 70.6771 6.77913 72.9966C7.35913 74.9479 9.45204 75.7525 11.2803 75.0659C11.5917 75.8776 12.2473 76.5813 13.0916 76.9651C13.1174 76.9769 13.1434 76.988 13.1695 76.9985L13.3268 77.0586C13.0786 77.5102 12.962 78.0448 13.046 78.6498C13.2585 80.1763 14.9018 81.4016 16.5118 80.8908C17.7757 80.4898 18.9281 79.7895 20.0294 79.0285C20.0336 79.3248 20.0754 79.6193 20.1448 79.8919C20.6243 81.7747 22.3801 82.9817 24.3004 83.2018C25.9939 83.3957 27.5813 82.8283 28.9039 81.87C30.3113 84.6084 33.5719 85.5793 36.4228 83.9427C37.8609 83.1172 39.5722 81.7374 40.863 80.1447C41.2711 79.8744 41.6658 79.5762 42.0421 79.2563C41.3885 80.7757 40.7717 82.313 40.1982 83.8719C39.8342 84.8623 39.4893 85.8597 39.159 86.8612C38.279 87.0839 37.4804 87.3698 36.8839 87.6438C35.3012 88.3698 34.575 90.3781 34.9322 92.0271C34.1093 92.9299 33.5715 94.0331 33.5715 95.4256C33.5715 96.1996 33.7257 96.891 33.9908 97.5083C33.486 98.3199 33.0479 99.196 32.6647 100.154C32.1261 101.501 32.5592 102.939 33.471 104.021C32.8224 104.92 32.4207 105.977 32.4326 107.242C32.438 107.814 32.5366 108.371 32.71 108.897C32.2596 109.952 32.28 111.134 32.6743 112.182C31.6087 113.507 30.8917 114.952 31.2834 116.47C31.4905 117.274 31.9539 117.933 32.5504 118.48C32.4894 118.992 32.509 119.509 32.6033 120.009C32.1772 120.75 31.9811 121.616 32.0429 122.485C32.2002 124.694 33.5056 125.893 35.2011 126.473C35.1381 126.604 35.0768 126.735 35.0292 126.875C34.6276 128.058 34.7089 129.471 35.3315 130.573C35.3959 130.687 35.4673 130.792 35.5375 130.899C36.0197 131.76 36.8014 132.438 37.7236 132.94C37.9619 133.069 38.2932 133.181 38.6549 133.292L39.2123 133.463C39.1884 133.489 39.166 133.514 39.146 133.536L38.9051 133.807C38.0618 134.776 37.3119 135.824 37.2326 137.138C37.1463 138.579 37.9173 139.973 39.1721 140.751C39.2975 140.829 39.4398 140.906 39.5894 140.981L39.591 141.12C39.263 141.563 39.0551 142.093 39.1126 142.613C39.3892 145.126 40.9451 146.326 43.2466 147.214L43.7081 147.404L43.7399 147.964C43.7503 148.149 43.7656 148.334 43.7802 148.519C43.6784 148.746 43.5952 148.948 43.5493 149.066L43.5186 149.149C42.6141 151.775 43.9329 154.615 46.2364 156.127C46.5579 156.339 46.8935 156.519 47.2391 156.675C47.5736 157.755 48.1429 158.732 48.8974 159.599C49.5169 160.312 50.3351 160.983 51.2439 161.477C51.7518 162.394 52.5466 163.068 53.5792 163.407C53.7296 163.456 53.8819 163.495 54.0353 163.526C53.8923 164.611 54.1895 165.752 54.9652 166.56C55.348 166.959 55.765 167.219 56.2046 167.388C56.4413 167.499 56.6994 167.567 56.966 167.592C57.5188 167.681 58.098 167.665 58.688 167.615C59.0762 168.162 59.5357 168.676 60.0686 169.151C60.6493 169.667 61.4315 169.92 62.1822 169.854C63.8109 170.827 65.7297 170.919 67.5901 170.698C68.0117 170.648 68.4164 170.537 68.7843 170.372C70.5377 172.381 72.4066 174.293 74.3499 176.132C77.1579 178.786 79.8661 181.456 83.7289 182.509C84.7147 182.777 85.9883 181.795 85.5433 180.752C83.3418 175.573 78.0286 172.196 74.2425 168.104C72.2862 165.989 70.4641 163.763 68.876 161.373C67.1805 158.826 65.9875 156.994 62.8688 156.049L62.6398 155.978C58.0752 154.535 54.4451 151.672 52.1511 147.53C50.2258 144.053 49.2204 139.03 50.9619 135.229C51.2573 134.886 51.4798 134.492 51.6102 134.064C51.7522 133.855 51.9018 133.647 52.0629 133.449C53.9041 131.19 56.6354 129.942 59.4586 129.305C61.0582 128.944 62.7844 128.78 64.4262 128.836C65.7566 128.884 67.0554 129.194 68.3727 129.36C68.5119 129.467 68.6504 129.572 68.7854 129.674L69.0339 129.861C70.7964 131.192 73.0422 132.809 75.3058 132.869C80.8796 133.015 80.4829 126.87 80.2174 122.757C80.1935 122.388 80.1707 122.035 80.1534 121.704L80.1365 121.342C79.952 116.751 79.8499 112.158 79.6631 107.568L79.662 107.534C79.6596 107.447 79.66 107.314 79.6622 107.145L79.6831 106.098C79.8868 104.668 80.1277 103.244 80.4188 101.825C82.3272 101.941 84.2794 101.422 85.9564 100.425C88.2024 100.645 90.4438 99.8051 91.9751 98.2034C92.3123 98.104 92.6429 97.9811 92.9598 97.8355C93.193 97.7287 93.4006 97.62 93.6023 97.5053C95.0707 98.0965 96.8242 97.9618 98.1763 96.678C99.0617 96.7301 99.9428 96.5514 100.622 96.1199C101.256 95.7178 101.872 95.2997 102.467 94.8578C103.444 94.8343 104.465 94.4728 105.423 93.7163L106.798 92.6287C107.302 92.6887 107.814 92.6593 108.311 92.5197C109.896 92.0736 111.397 91.4291 112.771 90.5914C113.437 90.587 114.137 90.4153 114.843 90.0348C119.226 87.6684 123.391 85.1195 127.286 82.0978C128.969 81.9344 130.364 80.8215 131.61 79.6737C134.126 78.963 136.344 78.244 138.514 76.6706C140.009 75.5868 141.365 74.3485 142.643 73.035C143.177 73.2829 143.751 73.4538 144.33 73.535C145.361 73.6794 146.388 73.3946 147.401 73.1134C148.62 72.7754 149.819 72.4427 150.985 72.8659C153.004 73.5998 154.609 75.1832 156.619 75.9844C157.718 76.4227 158.847 76.6755 159.965 76.6855C160.338 76.897 160.707 77.1129 161.074 77.3333C161.951 78.4112 163.155 79.1595 164.527 79.6562C164.633 79.737 164.742 79.8137 164.848 79.8956C165.926 80.7307 166.951 81.6213 167.931 82.5547C168.085 82.9728 168.275 83.3816 168.507 83.7733C169.194 84.9349 170.198 85.9371 171.4 86.5987C171.442 86.6219 171.514 86.656 171.606 86.697L171.727 86.7492C172.278 87.4625 172.8 88.1978 173.294 88.9525C173.312 89.1696 173.341 89.3863 173.398 89.6011C173.669 90.6305 174.371 91.4262 175.203 92.0665C177.483 95.8772 181.59 102.696 182.11 102.67C181.475 105.916 181.106 109.232 180.779 112.524L180.503 115.337C179.974 120.742 179.579 126.167 179.375 131.595C179.215 135.814 179.231 140.036 179.273 144.257L179.327 149.301C179.377 153.905 179.39 158.537 178.658 163.093C176.011 179.546 162.597 193.422 145.381 195.708C140.613 196.345 135.637 196.121 130.946 195.097C128.606 194.591 126.297 193.902 124.083 193.005C121.606 191.999 119.365 190.574 116.868 189.609C114.348 188.638 112.61 192.171 114.328 193.839C117.584 196.994 122.708 198.796 127.132 199.976L127.62 200.105C132.193 201.292 136.999 201.814 141.725 201.557C151.016 201.047 159.766 197.785 167.023 192.148C174.112 186.638 179.398 179.37 182.037 170.904C184.695 162.382 184.223 153.436 183.758 144.617C183.659 142.732 183.559 140.853 183.491 138.986C183.261 132.586 183.123 126.174 183.158 119.767C183.171 117.256 183.259 114.737 183.348 112.216C183.467 108.826 183.586 105.432 183.522 102.052C183.645 101.925 183.756 101.773 183.848 101.602C184.647 100.125 185.459 98.2801 185.836 96.4744C186.607 96.0108 186.996 95.0447 187.098 94.2181C187.17 93.6403 186.939 93.0547 186.552 92.5755C186.762 92.1667 186.818 91.5684 186.957 91.1402C187.319 90.0307 187.626 88.973 187.754 87.8114C187.86 86.8434 187.838 85.8202 187.522 84.8846C187.362 84.4054 187.149 83.9754 186.875 83.5718C187.214 83.0681 187.447 82.5037 187.447 81.7791C187.447 80.2865 186.558 78.9972 185.258 78.2544C184.984 78.1152 184.705 77.986 184.421 77.8669L184.416 77.8639L184.392 77.7342C184.367 77.6022 184.344 77.4661 184.324 77.349L184.246 76.8648C184.064 75.6656 183.949 74.5316 183.313 73.4438C182.478 72.0145 181.114 71.2006 179.546 70.6968C179.256 70.6038 178.715 70.5438 178.397 70.3737C178.713 70.5173 178.449 69.721 178.291 69.2415C178.264 69.1598 178.24 69.0873 178.222 69.0303L178.158 68.8025C177.413 66.2422 175.643 64.792 173.382 63.4852L173.09 63.3191C172.327 62.8894 171.525 62.5141 171.001 61.8112C170.278 60.8436 170.011 59.5885 169.383 58.5639C168.867 57.7198 168.202 56.9402 167.354 56.3992C167.127 55.3359 166.929 54.2715 166.393 53.2986C165.11 50.9675 162.412 50.036 159.888 49.5483C158.962 49.3688 157.792 49.4012 156.966 48.8893C156.809 48.7258 156.642 48.5702 156.466 48.425C155.962 47.8062 155.235 46.6804 154.754 46.107C152.554 43.487 149.696 42.4933 146.27 43.1382C146.02 43.1854 145.495 43.3928 145.157 43.4457C145.136 43.4047 145.113 43.3589 145.087 43.3042L145.005 43.136C144.445 42.0089 143.511 40.7739 142.641 39.9013C140.286 37.5417 137.208 37.413 134.065 37.4967L133.232 37.5206C132.455 37.5356 132.111 37.4684 131.518 36.8516L131.39 36.7199C130.117 35.4101 128.877 34.326 127.009 33.8385C125.223 33.3727 123.354 33.7004 121.607 34.1427L121.421 34.1888C119.777 34.5912 118.708 34.6611 117.01 34.2238L116.543 34.106C112.9 33.2031 109.514 32.7951 105.81 33.894C105.674 33.9342 105.542 33.9852 105.404 34.0291L105.073 34.1387C104.539 34.3191 104.014 34.5199 103.5 34.7473C102.465 34.1051 101.079 34.0902 99.9735 35.1126C99.1073 35.9138 98.1959 36.683 97.3259 37.4876C94.1697 37.9537 91.0445 38.6123 87.9734 39.4616C87.79 39.8272 87.4632 40.1362 86.9649 40.3004C80.0471 42.5752 73.5501 45.9696 68.1725 50.8063C67.5679 51.3499 66.8521 51.3637 66.2733 51.0938C66.9971 49.9701 67.7846 48.8863 68.642 47.8625C70.3593 45.8121 72.3115 43.9692 74.3618 42.226C77.6535 40.3331 81.1492 38.7709 84.7746 37.5024C86.0846 35.3386 87.2599 33.0671 88.6313 31.0108L88.6806 30.9342C89.6937 29.2993 88.2132 27.5611 86.4985 27.4031L86.4908 27.4031L86.5165 27.2476C87.1201 23.5142 86.8296 19.5566 83.6023 16.9894C82.9425 16.4645 82.2283 16.0456 81.4868 15.7325C81.6985 15.3591 81.9271 14.9916 82.1899 14.636L82.2542 14.5468C84.3247 11.5975 81.3285 8.16297 78.2304 7.93997C76.7927 7.8361 75.3108 7.98763 73.9295 8.39941C73.5517 8.51222 73.183 8.67678 72.8201 8.85214C72.3978 8.6012 71.9471 8.4143 71.491 8.31042C71.0905 7.56133 70.5623 6.90531 69.8442 6.38147C68.3696 5.30473 66.4685 4.87955 64.6591 5.33005C64.3388 5.4101 64.0396 5.51881 63.7565 5.64801C63.3533 5.36579 62.8853 5.13645 62.3866 4.97784C62.1645 4.51245 61.9045 4.07126 61.5826 3.67512C59.9197 1.62441 57.2606 1.23944 54.8079 2.06895L54.521 2.17134C53.9015 2.08198 53.2486 2.20857 52.6149 2.64343C52.3329 2.83704 52.0717 3.07718 51.8231 3.34041L51.7583 3.37354C51.6494 3.30801 51.5362 3.24621 51.4108 3.1952C51.2485 3.1334 51.0341 3.05484 50.9455 3.03399C50.5872 2.95022 50.2653 2.94612 49.9328 3.00905ZM64.9598 138.647C61.7453 137.459 57.7981 137.094 54.5455 138.33C54.2885 138.427 54.1926 138.885 54.5455 138.934C57.6868 139.384 60.6141 139.991 63.399 141.551C64.7335 142.3 65.9576 143.152 67.0505 144.213C68.1552 145.285 68.9339 146.763 70.3225 147.497C71.9187 148.342 73.4911 146.954 73.2034 145.348C72.6475 142.249 68.0347 139.825 65.1954 138.736L64.9598 138.647Z" transform="translate(-25.31684 -12.65888)" id="ðŸ–-Ink" fill="#000000" fill-rule="evenodd" stroke="none" />
  </g>
</svg>