<?xml version="1.0" encoding="utf-8"?>
<svg width="182px" height="212px" viewBox="0 0 182 212" version="1.1" xmlns:xlink="http://www.w3.org/1999/xlink" xmlns="http://www.w3.org/2000/svg">
  <desc>Created with Lunacy</desc>
  <defs>
    <rect width="181.825485" height="211.10199" id="artboard_1" />
    <clipPath id="clip_1">
      <use xlink:href="#artboard_1" clip-rule="evenodd" />
    </clipPath>
  </defs>
  <g id="head/Cornrows" clip-path="url(#clip_1)">
    <use xlink:href="#artboard_1" stroke="none" fill="#FFFFFF" />
    <path d="M168.226 106.802C170.602 90.1583 165.528 74.0963 158.954 58.885C158.593 57.9587 158.02 57.1564 157.284 56.586C138.732 20.294 111.473 17.0075 73.4432 19.5069C72.3196 19.4827 72.2529 19.502 71.3998 19.1316C71.2586 4.3887 53.9104 -3.42058 40.7089 1.4437C-17.8405 27.8516 0.569924 102.197 12.2209 150.734C16.3776 169.523 20.5354 188.31 24.6929 207.098C24.8325 207.727 25.1267 208.27 25.518 208.728C24.9142 208.95 24.31 209.159 23.7174 209.355C22.3648 209.801 22.9022 211.759 24.31 211.441C25.6898 211.131 27.0194 210.714 28.3347 210.26C30.3855 210.692 32.1048 209.391 33.7147 208.354C52.567 201.119 60.4814 177.339 65.317 159.82C84.9768 173.283 116.391 183.366 138.869 171.26C159.932 158.949 167.517 133.269 166.021 110.602C167.558 109.916 168.178 108.419 168.218 106.859L168.228 106.859C168.227 106.84 168.226 106.821 168.226 106.802L168.226 106.802Z" transform="translate(-3.06905 11.1698)" id="âœ‹-Skin" fill="#D08B5B" stroke="none" />
    <path d="M52.109 0.188084C48.2917 -0.274025 44.3431 0.104595 40.7089 1.4437C-17.3424 27.6269 0.262256 100.936 11.9222 149.489C12.0222 149.906 12.1218 150.321 12.2209 150.734C16.3776 169.523 20.5354 188.31 24.6929 207.098C24.8325 207.727 25.1267 208.27 25.518 208.728C24.9142 208.95 24.31 209.159 23.7174 209.355C22.3648 209.801 22.9022 211.759 24.31 211.441C25.6898 211.131 27.0194 210.714 28.3347 210.26C30.2019 210.653 31.7943 209.61 33.2796 208.638C33.4256 208.542 33.5706 208.447 33.7147 208.354C41.3171 205.436 47.1408 199.828 51.7012 193.025C55.2454 181.285 63.8604 162.654 63.8604 162.654L60.2313 154.533L43.6808 131.978C43.6808 131.978 29.8734 129.923 29.8734 116.621C29.8734 103.319 33.4772 104.01 33.4772 104.01L30.9248 78.6099C30.9248 78.6099 38.5855 47.3363 44.3955 41.8468C50.2056 36.3574 67.8933 23.9664 67.8933 23.9664C67.8933 23.9664 69.5719 14.5831 68.676 9.88143C68.0172 8.84985 67.254 7.88958 66.4035 7.00519C62.6799 5.41999 54.0213 1.13725 52.109 0.188086L52.109 0.188084Z" transform="translate(-3.06905 11.1698)" id="ðŸ’ˆ-Hair" fill="#A55728" fill-rule="evenodd" stroke="none" />
    <path d="M56.4906 0.0241967C51.3696 -0.174991 45.7909 0.842171 41.4444 3.57496C39.2257 4.96964 37.3595 6.70574 35.7974 8.67715C35.7223 8.65853 35.6417 8.64959 35.5512 8.66486C22.398 10.9177 14.2557 23.2968 9.43121 34.3154C3.63965 47.5423 0.933747 61.8183 0.204143 76.1315C-1.13228 102.353 4.31254 128.173 10.1257 153.668L12.5081 164.079C14.3896 172.329 16.4231 180.548 18.244 188.81C20.0688 197.09 21.5153 205.586 24.1783 213.643C24.8093 215.553 27.3268 215.008 27.5689 213.198C27.6659 212.474 27.7426 211.758 27.809 211.044C28.2068 211.345 28.6502 211.555 29.1113 211.674C29.2042 212.146 29.3768 212.606 29.6338 213.032C30.7466 214.88 32.7686 215.358 34.8116 215.078C45.3966 213.623 58.0385 210.155 61.1268 198.763C61.3873 197.802 61.5691 196.821 61.7091 195.832C62.6297 194.983 63.4506 193.943 64.0809 193.05C65.2305 191.421 66.0626 189.639 66.7496 187.784C68.101 184.135 69.1079 180.356 69.9703 176.573C71.304 170.719 71.983 164.295 70.986 158.258C71.6155 157.529 71.8119 156.517 71.0954 155.519C70.7724 155.07 70.4137 154.647 70.0389 154.237L69.9438 153.917C69.8349 153.582 69.4892 153.349 69.1367 153.303C67.9736 152.168 66.7097 151.111 65.6111 149.927C63.7832 147.958 62.1349 145.902 60.5698 143.732C60.0857 143.061 59.6131 142.386 59.1482 141.707C58.9871 141.206 58.7769 140.706 58.5544 140.245C58.012 139.12 57.213 138.156 56.3763 137.225C55.7848 136.125 55.1964 135.019 54.6344 133.906C54.3233 133.289 54.064 132.582 53.7099 131.952C54.3344 130.811 53.619 129.278 52.131 129.264C51.6644 129.26 51.1895 129.267 50.7106 129.274C50.4048 129.279 50.0975 129.284 49.7896 129.285L49.6288 129.212C48.3902 128.67 47.094 128.477 45.8895 128.904C45.636 128.835 45.3851 128.756 45.1388 128.661C43.1433 127.89 41.5487 126.324 40.4447 124.573C38.2287 121.056 37.6721 116.702 38.8873 112.758C40.0308 109.046 42.884 106.08 46.6793 104.837C50.7789 103.495 55.8658 104 59.1666 106.85C59.36 107.017 59.6055 106.768 59.4463 106.579C56.0449 102.524 51.0397 100.428 45.6344 101.158C43.5818 101.436 41.7298 102.159 40.111 103.204C41.2814 102.018 41.4758 100.359 41.238 98.6435L41.1529 98.0082C40.714 94.6186 40.5149 91.2011 40.5337 87.7846C40.7286 87.8129 40.9238 87.8415 41.116 87.8758C43.1011 88.2284 45.0732 88.6126 47.0445 89.0288C50.8537 89.8334 54.8074 90.7426 58.4259 92.1622C58.6465 92.249 58.816 91.9295 58.6534 91.7832C55.5359 88.9808 52.4375 86.4599 48.6138 84.5949C46.7315 83.6768 44.718 82.8849 42.7007 82.2966C42.0873 82.1176 41.4494 81.9269 40.7992 81.7501C40.9261 80.2515 41.1015 78.7559 41.3182 77.2648C41.8923 77.2492 42.4654 77.2316 43.0378 77.2141C46.4972 77.108 49.9304 77.0028 53.4196 77.327C58.0707 77.7593 62.8407 78.5016 67.2256 80.1074C67.445 80.1879 67.5559 79.8707 67.3783 79.7567C60.0328 75.0462 51.5925 70.9418 42.6332 70.4515C42.9746 69.0345 43.3532 67.626 43.7767 66.2306C44.306 65.9636 44.8296 65.6806 45.3674 65.4379C46.552 64.9021 47.786 64.4952 49.0343 64.1221C51.5169 63.3805 54.0605 62.9077 56.6303 62.5592C62.1115 61.816 67.3181 61.8317 72.5703 63.7576C72.7755 63.8329 72.8599 63.5462 72.7088 63.4386C67.8835 59.998 61.8879 57.3081 55.8431 56.913C52.8672 56.7187 49.7573 57.1126 46.875 57.8632C47.8194 55.7183 48.8662 53.567 50.0209 51.4538C50.1536 51.4478 50.2875 51.4445 50.4164 51.4314C52.0094 51.2725 53.5895 51.0167 55.1872 50.8935C58.6748 50.6239 62.194 50.7646 65.674 51.0751C72.5845 51.6917 79.6749 52.713 85.7753 56.1301C85.8957 56.1971 86.0392 56.031 85.928 55.9379C80.3029 51.2308 74.1538 46.9432 66.7952 45.2585C63.1112 44.4156 59.2687 44.1806 55.4956 44.3526C55.1438 44.3687 54.7944 44.3884 54.4464 44.41C55.1085 43.4986 55.7963 42.6069 56.5125 41.7412C58.2407 42.0295 60.0141 41.7375 61.777 41.4471C62.6941 41.2961 63.6084 41.1456 64.5121 41.0774C67.7013 40.8365 70.9546 41.0029 74.1135 41.4866C80.6489 42.4862 87.0277 44.327 92.5274 47.9812C92.6988 48.0951 92.9532 47.8621 92.8224 47.6945C88.4509 42.099 82.4433 37.7106 75.4028 35.8881C71.7793 34.9506 67.9644 34.6379 64.2228 34.8445L63.6064 34.8799C65.9728 33.1594 68.6027 31.8541 71.3359 30.7714C71.7855 30.7118 72.2381 30.647 72.7 30.5789C74.6421 30.2907 76.5979 30.2154 78.5574 30.1791L79.462 30.1645C81.3286 30.1377 83.1948 30.1805 85.0583 30.2721L87.5937 31.2964C92.8929 33.4304 98.195 35.4668 103.77 36.8524C104.14 36.9443 104.34 36.5285 104.12 36.269C101.457 33.1166 98.2415 30.2419 94.7208 27.8096C97.6331 27.6484 100.552 27.5818 103.471 27.5527C104.21 27.8941 104.951 28.2393 105.694 28.5624C108.662 29.8506 111.599 31.1947 114.62 32.3623C117.816 33.5972 121.21 34.5839 124.271 36.1081C124.56 36.2522 124.847 35.9067 124.62 35.6699C122.607 33.5708 120.923 31.1917 118.8 29.1898C118.352 28.7672 117.896 28.3551 117.437 27.9466C118.753 28.2426 120.066 28.5524 121.372 28.8901C123.865 29.5342 126.347 30.249 128.79 31.0536C130.499 31.6165 132.341 32.3203 133.658 32.8652L134.145 33.0697C136.435 34.0455 138.762 35.1889 141.007 36.4983C141.412 36.8464 141.816 37.1957 142.219 37.5464C147.964 42.5369 153.433 48.0099 157.721 54.2573C165.852 66.1017 168.129 81.1916 168.72 95.1236C169.313 109.09 168.199 123.212 165.735 136.979L165.311 139.374C164.513 143.851 163.591 148.449 161.443 152.459C158.502 157.949 153.873 162.432 148.5 165.71C135.783 173.47 118.916 175.142 105.699 167.822C101.632 165.57 98.0059 171.598 102.033 173.91C115.42 181.599 132.467 180.697 146.24 174.49C153.005 171.442 159.034 166.898 163.554 161.132C167.614 155.953 169.62 150.085 170.862 143.77C173.596 129.856 174.877 115.551 174.569 101.39C174.234 85.9751 172.286 69.2027 164.13 55.6434C160.171 49.0624 154.563 43.3094 148.698 38.2344C147.132 35.4182 145.203 32.8537 142.508 30.6493C136.649 25.8579 129.207 23.1162 121.954 21.0171C120.305 20.5398 118.647 20.093 116.981 19.6772C110.905 17.1086 104.138 16.1104 97.5072 16.7701C92.6386 17.2549 87.8594 18.1265 83.1043 19.2389C81.7337 19.5595 80.3608 19.8831 78.9902 20.2204C79.4428 19.5826 79.828 18.8834 80.1241 18.109C81.123 15.5002 81.1134 12.5414 79.6653 10.0886C77.8628 7.03412 74.4706 5.59736 70.9845 5.33153C58.3001 4.36463 47.1147 14.152 42.8748 25.0113C41.7946 27.7772 41.167 30.72 40.8709 33.6717C40.3523 34.7138 40.0473 35.8527 40.0688 37.1108C40.0769 37.5788 40.3185 38.0885 40.6941 38.4407C40.8203 41.2375 41.5038 44.3366 43.9416 45.4517C43.4065 46.3389 42.8898 47.237 42.3892 48.1439C41.7313 46.2276 40.3231 44.3902 39.717 42.564C38.7074 39.5211 38.0591 36.381 37.8704 33.1892C37.4972 26.8807 38.3917 19.803 41.8813 14.3352C44.5538 10.1485 49.083 7.74152 53.9524 6.63687C56.5957 6.03707 59.3247 5.8416 62.0064 5.4637L62.2778 5.42579C65.0063 5.04837 68.1658 4.72995 70.8568 5.25707C70.9872 5.28276 71.0915 5.09474 70.9534 5.03368C68.681 4.0262 66.6234 2.70411 64.2896 1.78375C61.7716 0.791164 59.2219 0.130306 56.4906 0.0241967ZM32.8363 13.3751C25.3078 22.7957 18.9903 32.8032 15.1681 44.3136C6.42057 70.6571 8.37347 98.8267 13.4427 125.679C15.8314 138.331 18.9117 150.835 21.7223 163.399C18.7137 140.838 14.834 118.325 14.2164 95.5463C13.8793 83.114 14.5417 70.6236 16.9012 58.3834L17.0409 57.6637C18.0522 52.4907 19.3048 47.01 21.8692 42.3612C23.2617 39.8369 24.7988 37.4813 26.6216 35.2266C27.3903 34.2757 28.2534 33.5132 29.1691 32.8158C28.9006 26.3216 29.9125 19.2792 32.8363 13.3751ZM68.1839 14.0503C69.7962 13.7949 72.3532 13.7015 73.2428 14.8474C73.6897 15.4234 73.9452 16.2053 74.0323 17.0389C72.5187 16.8814 70.9217 17.0982 69.3955 17.3055C69.1396 17.3402 68.8858 17.3747 68.6347 17.4071C64.854 17.8947 61.1099 19.3898 57.6534 20.9624L57.0281 21.249C56.1155 21.6697 55.2218 22.1228 54.3445 22.6031C56.1271 20.192 58.4052 18.1421 61.0463 16.629C63.2808 15.3482 65.577 14.4636 68.1839 14.0503ZM73.384 20.6002C71.7833 21.3023 70.2374 22.1095 68.6309 22.7957C65.4451 24.1569 62.328 25.7392 59.3796 27.5356C56.396 29.3536 53.5217 31.2677 50.8783 33.5351C50.5688 33.8009 50.2619 34.0697 49.9554 34.3382C49.8936 34.9246 49.8488 35.5132 49.8284 36.1067C49.8173 36.4257 49.8169 36.7593 49.8211 37.1022C54.8091 31.1054 60.8396 26.374 68.4901 23.3977C69.8162 22.8817 71.1641 22.4223 72.5244 21.9971C72.8481 21.5607 73.1385 21.0976 73.384 20.6002ZM28.1347 48.9764C28.8428 46.4997 29.5283 44.0153 30.3124 41.5588C30.8229 43.8652 31.5253 46.1289 32.5345 48.2824C32.6209 48.4659 32.7137 48.6491 32.8111 48.8308C32.0817 50.7264 31.467 52.6811 30.8887 54.5851L30.0331 57.4167C28.5957 62.2377 27.5156 67.12 26.9026 72.109C25.7111 81.8018 26.1138 91.7118 26.772 101.44L26.8592 102.708C27.3703 110.03 28.1507 117.329 28.9309 124.627C30.3677 138.065 31.8037 151.496 31.5556 165.05C31.5376 166.016 31.5096 166.983 31.4762 167.95C30.2165 158.097 28.7488 148.27 27.3989 138.428C24.141 114.675 21.6499 90.6688 24.6409 66.7596C25.3904 60.7713 26.4706 54.7941 28.1347 48.9764ZM34.5177 59.8517C34.6328 57.1465 34.8488 54.4453 35.1802 51.7572C35.4399 51.965 35.7088 52.1612 35.9953 52.3295C36.7813 52.7908 37.6598 53.185 38.5758 53.2926C38.9763 53.3395 39.3829 53.35 39.7834 53.2852C37.4572 58.307 35.6359 63.5547 34.3482 68.887L34.3432 68.9086L34.3467 67.7752C34.3594 65.1307 34.406 62.4872 34.5177 59.8517ZM38.9092 104.064C38.0764 104.481 37.249 104.565 36.3057 104.34C36.2712 104.332 36.238 104.322 36.2054 104.313L36.0126 104.252C36.0951 105.118 36.1818 105.985 36.2677 106.852C37.0288 105.812 37.9114 104.87 38.9092 104.064ZM55.5572 117.269C52.6077 114.906 48.8657 113.893 45.1203 113.75C44.6822 113.733 44.5955 114.286 44.9116 114.498C47.5645 116.274 49.7967 118.492 52.2855 120.444C54.574 122.24 57.8645 119.117 55.5572 117.269ZM39.6151 139.349C39.3615 136.478 39.0815 133.61 38.7888 130.741C40.0171 131.819 41.4705 132.788 43.0141 133.498C43.0425 133.683 43.0832 133.869 43.1422 134.052C43.5105 135.192 44.1035 136.303 44.8335 137.359C44.8654 140.6 44.6312 143.819 44.3591 147.062L44.1219 149.849C43.6336 155.64 43.321 161.443 42.899 167.239C42.2143 176.643 41.5219 186.244 37.7324 195.064C36.8819 197.044 35.6943 199.17 34.4104 201.061L34.3966 200.711C36.2256 199.023 36.5896 196.121 37.1608 193.799L37.3505 193.019C37.9133 190.675 38.417 188.305 38.8337 185.936C39.7581 180.678 40.2929 175.338 40.5591 170.013C41.0704 159.787 40.5146 149.54 39.6151 139.349ZM49.3798 142.16C50.4405 145.575 51.1977 149.076 51.6097 152.649C52.2727 158.403 51.9776 164.292 51.688 170.069C51.6779 170.271 51.6677 170.474 51.6576 170.676C51.3834 176.161 50.7324 181.695 49.6242 187.081C48.5605 192.254 46.8934 197.325 44.4149 202.029C44.0141 202.79 43.5833 203.531 43.1306 204.258C44.5012 203.815 45.7387 203.299 47.0276 202.583C48.6498 201.682 50.1344 200.52 50.9464 199.295C52.2499 197.33 52.6872 195.146 52.8779 192.804C53.3681 186.779 53.5948 180.736 53.9074 174.701L53.9768 173.387C54.0176 172.626 54.0594 171.864 54.1013 171.101C54.5787 162.399 55.0654 153.526 54.1552 144.849C52.7624 144.494 51.5057 143.796 50.3461 142.921C50.0262 142.68 49.7032 142.425 49.3798 142.16ZM59.5317 150.922C60.2931 153.381 60.9146 155.871 61.3572 158.372C62.0623 162.353 62.4854 166.359 62.6714 170.378L63.0604 168.958C64.0397 165.406 65.0806 161.85 66.3705 158.403C64.3301 157.017 62.6254 154.84 61.1424 153.02C60.5881 152.34 60.0507 151.638 59.5317 150.922Z" transform="translate(-9.206211 10.42474)" id="ðŸ–-Ink" fill="#000000" fill-rule="evenodd" stroke="none" />
  </g>
</svg>