<?xml version="1.0" encoding="utf-8"?>
<svg width="182px" height="212px" viewBox="0 0 182 212" version="1.1" xmlns:xlink="http://www.w3.org/1999/xlink" xmlns="http://www.w3.org/2000/svg">
  <desc>Created with Lunacy</desc>
  <defs>
    <rect width="181.825485" height="211.10199" id="artboard_1" />
    <clipPath id="clip_1">
      <use xlink:href="#artboard_1" clip-rule="evenodd" />
    </clipPath>
  </defs>
  <g id="head/Long-Curly" clip-path="url(#clip_1)">
    <use xlink:href="#artboard_1" stroke="none" fill="#FFFFFF" />
    <path d="M119.455 18.5105C94.2258 -1.39193 53.7957 -7.85419 26.7892 12.2251C5.8049 31.069 -2.87899 84.6175 0.834622 111.525C1.86727 128.784 15.4524 148.346 35.3945 142.887C38.7809 142.564 42.0691 141.304 45.4866 141.04C49.5746 140.583 53.6937 140.575 57.7736 141.135C66.6639 142.355 74.5449 146.936 83.1736 149.078C99.1846 153.053 117.049 150.379 130.831 141.427C176.374 112.365 155.745 46.6388 119.455 18.5105L119.455 18.5105Z" transform="translate(12.27432 36.11459)" id="âœ‹-Skin" fill="#D08B5B" stroke="none" />
    <path d="M250.995 150.517C251.552 153.593 251.981 156.686 252.319 159.791C252.43 160.817 252.547 161.842 252.665 162.867C253.345 168.802 254.027 174.744 253.389 180.712C252.63 187.82 250.697 194.711 247.428 201.126C245.943 204.034 243.814 206.934 240.776 208.461C239 209.358 237.029 209.812 235.088 209.745C233.818 211.395 232.015 212.646 229.775 213.438C226.783 214.5 223.61 214.112 220.603 213.256C219.701 214.008 218.62 214.581 217.469 214.943C215.52 215.553 213.625 215.55 211.703 215.382C211.285 215.62 210.825 215.825 210.323 215.985C207.595 216.86 205.04 215.888 202.574 214.775C202.436 214.712 202.301 214.652 202.168 214.593C201.603 214.574 201.039 214.567 200.479 214.567C200.311 216.961 196.498 218.61 194.729 216.54C194.3 216.037 193.866 215.818 193.402 215.501C192.554 216.29 191.212 216.596 190.088 216.357C189.225 216.175 188.412 215.907 187.656 215.564C186.72 215.65 185.784 215.646 184.81 215.412C182.489 214.853 181.488 212.709 181.821 210.743C179.88 210.315 177.947 209.459 176.436 208.174C175.983 208.271 175.527 208.349 175.047 208.401C173.563 208.565 172.032 208.446 170.59 208.059C168.545 207.511 166.554 206.383 165.265 204.752C165.281 204.886 165.319 205.05 165.377 205.236C165.411 205.348 165.23 205.423 165.177 205.315C164.817 204.574 164.341 203.796 164.072 202.995C160.24 203.71 156.312 203.97 152.4 203.762C147.271 203.49 142.157 202.514 137.324 200.832C134.696 199.916 132.034 198.87 129.644 197.458C127.362 196.107 125.693 194.737 124.32 192.492C123.522 191.185 124.834 189.826 126.226 190.08C131.551 191.062 136.189 194.257 141.382 195.809C146.396 197.306 151.586 198.021 156.83 197.839C174.491 197.228 190.268 185.251 194.48 168.523C195.75 163.481 196.148 158.295 196.433 153.127C196.732 147.621 196.912 142.107 196.989 136.593C197.065 131.06 197.043 125.528 197.1 119.995C197.131 117.449 197.231 114.909 197.334 112.366C196.157 112.102 194.998 111.696 193.862 111.134C192.447 110.434 191.097 109.459 190.003 108.334C189.021 107.329 188.338 105.996 187.245 105.103C186.125 104.183 184.506 104.272 183.125 104.045C181.564 103.788 180.053 103.271 178.676 102.508C176.754 101.435 175.254 99.9755 174.1 98.2483C169.987 99.0004 165.737 97.9393 161.809 96.6027C156.945 94.9455 152.108 93.1998 147.259 91.4983C145.08 90.735 142.844 89.7559 140.531 89.4617C138.203 89.1676 135.878 89.3645 133.557 88.8884C129.652 88.0875 125.927 86.0923 122.613 83.8882C119.533 85.5599 115.904 86.0513 112.425 84.9679C110.699 84.4277 109.18 83.5047 107.917 82.2686C107.909 83.5564 107.729 84.8633 107.726 86.1999C107.726 86.3752 107.714 86.4683 107.698 86.513C107.714 86.5577 107.733 86.6135 107.756 86.6805C107.86 86.9858 108.155 87.3168 108.278 87.6411C108.496 88.2256 108.608 88.8921 108.792 89.4915C109.21 90.8166 109.548 92.1532 109.463 93.5494C109.291 96.3384 107.913 98.7584 106.111 100.869C105.298 101.823 104.33 102.794 103.291 103.684C103.184 103.937 103.076 104.19 102.969 104.44C102.693 105.069 102.478 105.769 102.244 106.462C102.75 107.284 103.191 108.152 103.575 109.038C105.006 112.355 105.017 116.09 104.108 119.567C105.527 121.451 106.087 123.99 105.858 126.287C105.462 130.215 103.088 132.814 101.239 136.146C101.189 136.234 101.115 136.406 101.035 136.591C100.856 137.006 100.647 137.492 100.61 137.278C100.617 138.257 100.974 139.452 100.989 140.398C101.024 142.368 100.767 144.389 100.318 146.31C99.5896 149.415 98.1776 152.248 96.3137 154.814C96.774 159.743 95.8069 164.468 93.5172 168.776C94.1996 169.81 94.6254 171.024 94.7179 172.305C94.8057 173.553 94.599 174.773 94.2457 175.973C94.3607 176.047 94.4762 176.125 94.5875 176.203C96.4095 176.713 98.1392 178.75 99.3705 180.005C100.901 181.568 102.297 183.292 103.583 185.053C106.46 189.004 108.803 193.531 108.811 198.468C108.811 199.034 108.692 199.544 108.485 200.001C109.574 202.615 109.272 206.231 106.759 207.656C105.696 208.26 105.006 208.468 104.097 209.365C103.222 210.229 102.405 211.134 101.438 211.905C99.2558 213.643 96.54 214.738 93.7508 214.049C92.485 214.265 91.2344 214.28 90.015 214.124C88.1695 215.241 86.1176 215.948 83.816 215.829C83.4551 215.81 83.0949 215.777 82.7377 215.717C80.2904 217.083 77.6478 218.044 74.6519 218.238C72.0971 218.401 69.3774 217.824 67.1521 216.585C66.4962 216.22 65.238 215.479 64.5475 214.73C64.2867 214.846 63.9913 214.95 63.8302 215.032C58.8323 217.631 52.9705 219.857 47.2549 218.215C46.4459 217.981 45.6706 217.69 44.938 217.34C43.1274 216.48 41.5738 215.281 40.3808 213.81C36.3339 215.542 31.6041 215.758 27.6377 213.87C26.821 213.815 26.0001 213.695 25.1788 213.498C20.7713 212.448 16.6211 208.796 16.1915 204.257C14.2655 203.729 12.4476 202.738 10.9052 201.234C7.81374 198.226 6.82405 194.16 7.56402 190.307C3.13384 187.905 0.30634 182.827 0.022477 177.827C-0.307034 172.082 3.02989 166.937 7.17313 162.859C5.9951 161.303 5.27432 159.408 5.18993 157.524C4.9824 152.844 8.01666 148.562 11.0129 145.164C11.2853 144.855 11.5649 144.549 11.8607 144.244C11.5078 143.671 11.2047 143.053 10.9665 142.397C9.398 138.097 10.3225 132.609 11.7913 128.383C13.6095 123.167 16.8394 118.435 21.2853 115.416C21.5692 114.794 21.8649 114.209 22.1526 113.684L22.1526 113.681C21.4813 112.188 21.0935 110.572 21.036 108.967C20.8522 103.639 23.9095 98.6653 27.35 94.7523C32.0836 89.3686 38.8698 85.7274 46.047 84.3126C45.2299 80.1837 46.5606 75.6485 49.6221 72.1268C53.6994 67.433 59.85 66.4412 65.882 66.8526C65.8606 66.5931 65.8502 66.3328 65.8636 66.0726C66.0439 62.5267 69.466 59.4458 72.206 57.5101C74.8206 55.6623 77.7717 54.4311 80.8569 53.7669C80.4135 51.6249 80.5159 49.3765 81.2053 47.2004C82.3396 43.6187 84.6945 40.5855 87.708 38.4666C86.4464 35.681 86.8046 32.3257 88.6701 29.7307C90.7143 26.8869 93.8379 24.9989 97.2136 23.9393C97.6562 22.6511 98.3241 21.4377 99.1864 20.4049C102.497 16.4361 107.929 15.5016 112.935 16.0526C116.491 10.1213 123.457 6.4614 130.488 6.28307C132.111 5.69481 133.764 5.18809 135.441 4.74541C136.553 3.04021 138.31 1.7036 140.519 0.836113C144.158 -0.593989 147.793 0.0980365 151.449 0.7939C152.771 1.04569 154.097 1.29799 155.426 1.45043C155.84 1.49474 156.254 1.52824 156.669 1.55096C157.11 1.54723 157.551 1.55803 157.992 1.58446L158.012 1.58446C159.196 1.58446 160.387 1.51735 161.576 1.4503C164.798 1.26858 168.014 1.08726 171.096 2.24309C173.647 3.19658 175.883 4.81987 177.203 6.99419C185.661 7.05748 194.258 12.214 197.012 20.0769C201.677 19.0981 206.821 18.7556 211.243 20.4161C213.656 21.3205 215.839 22.8548 217.066 25.1184C218.451 27.6651 218.213 30.3606 218.796 33.0897C219.05 34.2811 219.341 34.9326 220.683 35.022C221.307 35.0647 221.927 35.032 222.548 34.9993C223.279 34.9607 224.011 34.9221 224.75 35.0067C227.734 35.3455 230.496 36.8538 232.43 39.0839C234.305 41.243 235.506 44.0245 235.421 46.8802C235.375 48.5184 234.896 50.0932 234.516 51.6793L234.496 51.7659C234.226 52.9047 233.963 54.0119 234.996 54.8365C236.058 55.6854 237.416 56.1806 238.505 57.0328C239.622 57.904 240.538 59.021 241.145 60.2868C242.384 62.886 242.445 65.7822 242.215 68.5898C242.164 69.1987 242.105 69.8051 242.047 70.4104C241.833 72.6328 241.62 74.8387 241.789 77.086C242.02 80.1315 242.722 83.1212 243.358 86.1031L243.4 86.2997C244.594 91.873 245.901 97.9786 243.922 103.528C243.415 104.946 242.752 106.335 241.862 107.567C241.721 107.765 241.444 108.059 241.124 108.398C240.366 109.204 239.372 110.259 239.418 110.851C239.423 110.913 239.412 110.924 239.412 110.933C239.413 110.948 239.444 110.961 239.606 111.153C239.986 111.6 240.807 111.894 241.302 112.218C242.465 112.977 243.481 113.818 244.313 114.917C247.9 119.656 246.2 126.135 244.474 131.235C244.175 132.121 243.83 133.22 243.569 134.389C245.395 136.678 246.933 139.207 248.467 141.809C250.013 144.423 250.462 147.572 250.995 150.517ZM168.915 7.14272C169.183 7.56008 169.422 7.99197 169.629 8.4421C170.02 8.27493 170.411 8.126 170.81 7.99569C170.219 7.63082 169.567 7.34787 168.915 7.14272ZM69.9756 67.3278C69.9488 67.3233 69.9223 67.3196 69.8958 67.3151C70.238 66.4309 70.8475 65.5962 71.5207 64.9934C71.6416 64.8851 71.7724 64.7849 71.899 64.6814C71.1843 65.5076 70.536 66.3888 69.9756 67.3278ZM170.568 201.309C171.037 201.152 171.504 200.988 171.968 200.821C171.999 200.925 172.049 201.025 172.107 201.122C172.172 201.279 172.237 201.431 172.31 201.584C171.727 201.588 171.144 201.487 170.568 201.309Z" transform="translate(-42.19568 -15.63722)" id="ðŸ–-Ink" fill="#000000" fill-rule="evenodd" stroke="none" />
  </g>
</svg>