<?xml version="1.0" encoding="utf-8"?>
<svg width="182px" height="212px" viewBox="0 0 182 212" version="1.1" xmlns:xlink="http://www.w3.org/1999/xlink" xmlns="http://www.w3.org/2000/svg">
  <desc>Created with Lunacy</desc>
  <defs>
    <rect width="181.825485" height="211.10199" id="artboard_1" />
    <clipPath id="clip_1">
      <use xlink:href="#artboard_1" clip-rule="evenodd" />
    </clipPath>
  </defs>
  <g id="head/No-Hair-3" clip-path="url(#clip_1)">
    <use xlink:href="#artboard_1" stroke="none" fill="#FFFFFF" />
    <path d="M159.52 48.6878C146.024 14.2275 121.698 -11.0031 80.6864 4.84408C79.5099 4.06668 77.9747 3.85819 76.5036 4.7685C54.1633 18.3836 38.0755 40.212 31.1036 64.8261C26.8607 65.6091 22.7377 66.9747 19.0552 69.2142C11.0518 74.0814 5.66725 81.8263 0.619865 89.3694C-0.898032 91.6372 0.507471 95.3916 3.35991 95.9065C4.59893 96.1306 5.82683 96.2639 7.04782 96.2989C6.75053 97.3462 6.35926 98.3582 5.86097 99.2863C4.0569 102.646 7.46517 106.213 10.6594 105.295C11.0138 105.477 11.3852 105.626 11.7699 105.739C11.8136 107.642 12.8214 110.19 14.8157 110.575C18.041 111.246 22.3273 108.85 21.5662 105.349C22.5406 105.516 23.5115 105.536 24.4578 105.421C24.5637 107.244 24.5307 109.147 24.79 110.828C25.6377 118.754 33.7969 124.078 41.5778 121.667C42.055 124.137 42.6154 127.607 45.1215 128.946C48.0514 136.924 53.1107 146.028 61.3971 149.663C60.6595 151.497 61.0596 153.729 63.2814 154.957C78.4492 163.35 96.6548 166.19 113.803 163.069C120.657 162.673 127.334 161.17 133.743 157.968C138.417 155.633 142.713 152.667 146.908 149.61C151.104 146.552 155.591 143.574 158.941 139.603C162.579 135.291 164.272 130.217 165.371 124.817C170.408 100.304 168.668 76.235 159.52 52.8842C148.195 23.9795 170.84 77.5939 159.52 48.6878Z" transform="translate(-6.521261 22.82769)" id="âœ‹-Skin" fill="#D08B5B" stroke="none" />
    <path d="M18.403 4.28272C31 -2.92918 47.065 -1.06253 54.6331 10.1089C55.9396 12.0375 56.8417 14.159 57.4789 16.615L57.5817 17.0233L57.6843 17.4528C58.0145 18.8727 58.2306 20.2089 58.5239 22.4807L58.8489 25.0586L58.9417 25.761C59.257 28.0942 59.5336 29.5679 59.9645 31.0703L60.0499 31.3616L60.5476 33.0255L58.6687 33.6993C55.0683 34.9614 54.3145 35.0741 52.2369 34.0201C50.6146 33.1971 49.7678 32.0891 48.6407 29.8436L48.4777 29.515L48.1181 28.7824L47.9231 28.3965C47.1888 26.9734 46.6007 25.456 45.7701 24.9051C44.6417 24.1567 41.0852 23.8587 38.6119 24.1537L38.4829 24.1695L38.3763 24.1911L38.1932 24.2311C34.0339 25.1853 30.2429 28.4441 27.7424 31.8878C25.7291 34.6608 24.5721 38.1537 24.4303 41.7834L24.4223 42.0255L24.373 43.8781L20.3412 43.7948L20.3807 43.0737L20.3203 43.2019C19.0501 45.8011 15.8586 47.5319 13.1885 45.8113L13.0933 45.7484L12.9964 45.6809C10.7423 44.0707 10.4708 40.8105 12.321 38.8308L12.4065 38.7417L12.4897 38.6596L12.4727 38.6519L12.4535 38.6456L12.4416 38.6444C11.8114 38.7569 11.2577 39.0706 10.5088 39.7384L10.3161 39.9135L9.92928 40.3198L9.529 40.7345L9.35701 40.9058C9.24709 41.0134 9.1462 41.1081 9.05152 41.1918C8.92359 41.3048 8.80518 41.3999 8.67627 41.4865C8.55713 41.5666 8.43405 41.6367 8.28522 41.6994C7.91787 41.8541 7.52521 41.9274 7.02271 41.8074C6.33349 41.6434 5.94501 41.2391 5.70984 40.7627C5.61851 40.5777 5.5663 40.4074 5.52929 40.2276C5.49064 40.0399 5.47149 39.8482 5.46156 39.6271C5.45506 39.4826 5.45276 39.3248 5.45405 39.1522L5.4586 38.8821L5.4681 38.5887L5.47828 38.3546L5.52393 37.4862C5.68718 34.6355 6.45917 31.8356 7.78086 29.1927L7.91485 28.9289L7.96477 28.8331L7.82661 29.0129C6.92525 30.1658 6.05481 30.9651 4.96854 31.4929L4.81905 31.5632L4.67289 31.6275C3.16567 32.27 1.64764 32.0207 0.730556 30.8294C0.0961071 30.0052 -0.0910774 28.9203 0.0388918 27.779C0.291273 25.5648 1.19349 23.5375 2.96002 20.5793L3.20756 20.1678L4.17727 18.5717C7.91395 12.468 12.7172 7.53742 18.403 4.28272Z" transform="translate(-5.910449 86.34965)" id="ðŸ’ˆ-Hair" fill="#E8E1E1" stroke="none" />
    <path d="M115.944 2.78522C109.366 0.763929 102.334 -0.366044 95.4273 0.107167C89.1443 0.537934 83.1008 2.26249 77.402 4.82625C56.0759 14.42 39.6947 34.9464 34.6381 57.1136C34.121 59.3799 33.805 61.5196 33.724 63.7829C18.9401 64.707 7.00718 76.3466 1.24745 89.1743C-0.101664 92.1797 -1.12779 96.631 2.44543 98.6322C3.62653 99.2938 4.80149 99.3936 5.91852 99.1323C5.3228 101.412 5.09302 103.762 5.48046 105.956C5.81304 107.84 7.27531 109.244 9.33216 109.067C9.96395 109.013 10.5616 108.816 11.1155 108.532C11.4611 110.372 12.5644 112.088 14.2998 113.026C18.6885 115.398 24.4567 111.457 24.1034 106.755C23.9407 104.588 20.946 104.662 20.687 106.755L20.6772 106.826C20.3844 108.763 17.9002 111.116 15.8825 109.674C14.4528 108.653 14.3953 106.475 15.6895 105.383L15.7501 105.33C17.2002 104.015 15.5147 102.009 13.844 102.306C12.5732 102.533 11.633 103.228 10.72 104.08C10.6724 104.124 10.5647 104.238 10.4277 104.383C10.0197 104.814 9.3512 105.521 9.22859 105.492C9.09198 105.46 9.1133 104.569 9.14295 103.942L9.18814 103.082C9.36597 99.9768 10.3344 96.9964 11.9073 94.2918L11.944 94.2263C13.0247 92.2213 10.018 90.5947 8.70958 92.4775C7.94239 93.5814 6.94235 94.8655 5.65077 95.4158C4.05424 96.0964 3.5406 94.8272 3.69442 93.4764C3.96121 91.1359 5.32299 88.7315 6.60887 86.6061L7.57532 85.0153C10.9299 79.5358 15.435 74.6368 21.1267 71.3789C31.9414 65.1873 47.3391 65.6411 54.7797 76.6244C58.9836 82.8301 57.9018 90.5031 59.9571 97.3734C55.1656 99.8069 50.2774 95.8689 50.0791 90.7552C50.0626 90.3352 49.4749 90.266 49.3372 90.6576C48.2819 93.6626 49.5056 97.1016 52.1122 99.0038C55.1154 101.196 59.2682 101.131 62.3711 99.1844C62.917 98.8422 63.1863 98.2368 63.0278 97.6184C60.9813 89.6509 62.3976 81.0512 57.158 74.0454C52.8705 68.3121 46.1357 64.6761 38.9072 63.8987C37.4978 63.7475 36.11 63.6965 34.7448 63.736C36.4038 59.0895 37.8262 54.3648 39.8892 49.8569C42.0784 45.0723 44.6136 40.4068 47.5895 36.0381C53.7263 27.0281 61.7297 19.0874 71.0389 13.1452C81.5353 6.44507 93.5803 2.84591 106.163 4.82513C116.863 6.50836 127.061 11.0212 135.599 17.4738C143.755 23.637 150.537 31.6176 155.169 40.5881C160.675 51.2509 162.263 63.3198 163.368 75.0666L163.559 77.1404C164.081 82.906 164.533 88.6794 165.287 94.4217C166.139 100.905 167.673 107.321 168.047 113.858C168.675 124.844 164.332 134.499 156.496 142.316C149.036 149.758 139.334 155.335 129.224 158.635C118.964 161.984 107.563 163.267 97.1823 159.666C94.6977 158.804 92.3808 157.556 90.1939 156.132C87.0863 154.109 84.0701 159.073 87.2532 161.015C107.828 173.561 135.338 165.249 153.009 151.614C161.611 144.976 168.858 135.994 171.275 125.412C172.73 119.045 172.137 112.595 171.085 106.218L170.914 105.185C169.837 98.6395 168.8 92.1311 168.171 85.5219C166.926 72.4407 166.264 59.0605 161.84 46.5291C158.172 36.1382 152.139 26.7302 143.982 19.0996C136.067 11.6954 126.434 6.00797 115.944 2.78522ZM39.5015 88.6567L39.7042 88.6124C42.0082 88.1306 48.0715 87.5646 47.3407 91.3277C47.3062 91.5046 47.0411 91.483 46.9939 91.3277C46.2781 88.9617 41.4156 90.8538 39.9959 91.4234C38.0388 92.2082 36.1082 93.3661 34.5101 94.712C31.0113 97.6593 28.666 101.813 28.3092 106.324C27.9556 110.799 29.2932 115.632 32.619 118.869C34.2493 120.455 36.3303 121.532 38.6679 121.612C39.5047 121.64 40.3764 121.405 41.245 121.171C42.5564 120.817 43.8606 120.466 45.0264 121.025C45.4085 121.208 45.7112 121.711 45.6766 122.125C45.6114 122.909 45.2501 123.519 44.7123 123.992C47.9567 129.731 50.612 135.805 54.7506 141.023C56.8275 143.641 59.1808 146.066 61.8457 148.129C63.1123 149.11 64.4894 149.972 65.9095 150.729C67.5736 151.617 69.0136 152.172 70.2012 153.676C71.2139 154.959 70.2008 157.439 68.5314 157.66C64.6272 158.176 60.8323 155.137 57.9532 152.832L57.8931 152.784C55.0096 150.475 52.5173 147.626 50.4578 144.604C46.5029 138.801 43.7974 131.955 42.7156 125.029C41.4597 125.415 40.0458 125.533 38.9821 125.536C36.1519 125.542 33.4495 124.554 31.2254 122.884C23.0831 116.772 22.1782 104.222 27.9241 96.3082C30.6737 92.5213 34.8519 89.7234 39.5015 88.6567ZM45.1031 103.965C43.3286 103.34 41.4421 103.051 39.554 103.212C36.6525 103.459 34.0804 104.583 32.4513 106.991C32.2675 107.262 32.6373 107.632 32.9185 107.444C35.0482 106.027 37.7664 105.911 40.1662 106.734C42.851 107.654 45.0337 109.85 47.7193 110.578C50.1482 111.236 51.846 108.259 50.1409 106.54C49.0248 105.416 47.38 104.771 45.8346 104.223L45.1031 103.965Z" transform="translate(-7.671686 20.8495)" id="ðŸ–-Ink" fill="#000000" fill-rule="evenodd" stroke="none" />
  </g>
</svg>