<?xml version="1.0" encoding="utf-8"?>
<svg width="182px" height="212px" viewBox="0 0 182 212" version="1.1" xmlns:xlink="http://www.w3.org/1999/xlink" xmlns="http://www.w3.org/2000/svg">
  <desc>Created with Lunacy</desc>
  <defs>
    <rect width="181.825485" height="211.10199" id="artboard_1" />
    <clipPath id="clip_1">
      <use xlink:href="#artboard_1" clip-rule="evenodd" />
    </clipPath>
  </defs>
  <g id="head/Short-4_2" clip-path="url(#clip_1)">
    <use xlink:href="#artboard_1" stroke="none" fill="#FFFFFF" />
    <path d="M138.635 44.62C138.506 40.1679 131.834 38.3194 129.906 42.7287C129.786 42.8467 129.656 42.9603 129.534 43.0619C130.138 42.5597 128.876 43.3907 128.671 43.4934C128.495 43.5813 128.316 43.6606 128.137 43.7425C126.897 32.4636 122.688 20.3046 111.812 14.6432C96.6432 7.50369 79.1154 6.11012 62.4738 6.81938C54.0435 7.30488 44.3085 8.61319 36.8188 4.4738C34.485 3.18411 32.6141 1.15388 29.9769 0.356754C21.6517 -1.8291 17.8755 6.46829 19.0095 13.2917C15.4585 13.3189 11.9359 15.227 10.4034 18.3686C9.50351 20.2279 9.51924 22.2343 8.74322 24.1003C6.36223 28.8324 2.95549 32.2339 4.88154 37.9713C1.49399 41.7126 3.4254 47.3767 6.15892 50.9587C7.5088 52.8217 9.11646 54.6103 10.1054 56.6957C11.0651 58.6924 9.61629 61.0603 8.80997 62.9532C2.84885 76.6725 3.18949 91.7814 6.39714 106.092C-0.0396393 108.802 -1.97144 117.276 2.22589 122.612C3.67014 124.498 5.432 125.198 7.43017 126.359C9.95884 127.709 7.89355 133.12 8.70333 135.733C9.80349 142.112 15.7876 146.04 21.7046 141.897C25.4593 141.346 28.4878 151.949 31.2144 154.611C32.8942 156.755 34.7592 158.681 36.7869 160.458C42.8286 175.546 73.7873 183.197 89.0936 182.323C105.122 180.694 115.935 167.483 124.939 155.757C129.563 149.509 132.57 142.516 133.663 134.889C134.762 127.224 134.281 119.545 133.539 111.871C131.979 95.5649 129.518 72.0733 127.928 55.5914C133.672 55.1323 138.809 50.3864 138.635 44.62L138.635 44.62Z" transform="translate(26.46821 8.93555)" id="âœ‹-Skin" fill="#D08B5B" stroke="none" />
    <path d="M19.7201 0.441952C20.8357 -0.626152 22.6633 0.469792 23.8722 1.32803L24.1396 1.52077L24.9059 2.08606C26.6429 3.38595 28.2686 4.79851 30.1451 5.92278C32.1932 7.15068 34.4173 8.12688 36.6763 8.92736C41.057 10.4795 45.7695 11.1761 50.4137 11.3962C56.6948 11.6938 63.3162 10.8342 69.9895 9.96785C83.5046 8.21334 97.2327 6.43119 108.778 14.1777C112.866 16.9206 115.687 20.9311 117.143 25.518C118.785 30.6906 118.223 36.0474 119.566 41.2379C120.149 43.4907 124.166 43.8034 124.614 41.3275L124.644 41.1357L124.995 40.9218L125.134 40.8414C125.277 40.7617 125.342 40.7389 125.218 40.851L125.191 40.8748L125.246 40.8289C125.288 40.7927 125.33 40.7554 125.371 40.7173L125.493 40.601C126.35 38.6425 128.142 37.9187 129.881 38.1091L129.832 38.2256L129.314 39.5206L129.149 39.9271C128.54 41.4104 127.87 42.8147 126.712 44.0858C125.073 45.8845 123.034 47.3503 120.737 48.2527C120.265 48.4382 120.336 49.0596 120.857 49.1098C125.987 49.6055 131.766 46.5804 134.179 41.9955C134.203 42.1571 134.217 42.3228 134.222 42.4924C134.239 43.0509 134.206 43.5999 134.127 44.1363C133.842 44.2394 133.565 44.3923 133.308 44.5993C131.642 45.943 130.824 48.1393 129.258 49.6386C127.616 51.2097 125.601 52.6666 123.413 53.3963C123.378 53.4079 123.35 53.4246 123.324 53.4432C123.16 52.8356 122.985 52.2314 122.785 51.6364C122.707 51.4026 122.386 51.461 122.362 51.6923C122.35 51.8061 121.883 51.5722 121.115 51.1878C119.102 50.1792 115.021 48.1348 111.664 48.6209C108.252 49.1152 105.867 50.1732 103.476 51.2338C99.7628 52.8814 96.0351 54.5353 88.4183 54.0917C82.987 53.7754 72.1881 49.351 61.9271 48.0779C69.7535 46.7477 78.1804 46.8349 85.1918 50.787C85.3349 50.8674 85.4481 50.666 85.3188 50.5759C74.4415 42.9617 60.3542 44.0425 47.8815 46.7258L47.163 46.8822L46.4573 47.0389C44.9266 47.382 43.3862 47.7465 41.8381 48.1128C31.7185 50.5072 21.2696 52.9795 11.0416 50.0773C7.97623 49.2076 5.00143 47.7791 2.60164 45.7101L2.40098 45.5358C1.38646 44.6469 0.227959 43.4965 0.0326832 42.1471C-0.0359808 41.672 -0.0144993 41.3466 0.27435 40.9706C0.417309 40.7844 0.611063 40.6871 0.742548 40.6211C0.887666 40.5483 0.95693 40.5135 0.798345 40.4393C4.33051 42.0916 7.35851 37.3436 4.04096 35.2865L3.80656 35.1462C-0.438271 32.536 1.68239 26.596 6.55198 26.6237L6.80093 26.6281C9.55886 26.6361 10.404 23.4745 8.92065 21.6238L8.77832 21.4511C6.03343 18.0201 10.6537 13.8815 14.2484 15.8212L14.4452 15.9309C16.1515 16.8469 17.9456 15.8271 18.5912 14.2097C19.656 11.5416 19.4832 8.80681 19.3092 6.05268C19.2569 5.22452 19.2045 4.39462 19.1856 3.56425L19.1811 3.32999L19.1752 2.93926L19.1742 2.6307L19.1772 2.42619C19.1952 1.66917 19.2961 0.847967 19.7201 0.441952ZM20.4109 100.056C20.7731 99.562 21.0024 98.95 21.0287 98.2306L21.0312 98.1133C21.0534 94.3185 22.3826 91.1935 24.1383 87.9319L24.3803 87.4863L24.7814 86.7592C26.8835 82.944 28.6631 79.1791 29.2548 74.8388C30.1141 68.5337 28.7676 62.023 25.5504 56.5106C37.0104 55.3504 48.1021 50.9471 59.2917 48.5814L59.8049 48.4749L60.3204 48.3719C60.8527 48.2677 61.3884 48.1695 61.9271 48.0779C60.6438 47.9187 59.3689 47.8088 58.114 47.7624C47.8728 47.3835 29.5699 53.0565 24.741 56.3256C24.5167 56.4774 24.3691 56.6605 24.2852 56.8699C24.256 56.7904 24.2263 56.7111 24.1963 56.6319C21.5011 56.8423 18.7849 56.8643 16.0414 56.6267C13.6849 56.4223 11.2606 56.0102 8.89763 55.3579L7.95229 59.215L7.82309 59.7465C6.62084 64.707 5.52741 69.6709 5.18786 74.8232C4.92893 78.7444 4.94274 82.685 5.33669 86.5965C5.59968 89.2048 6.08813 91.7414 6.63378 94.2802L6.87065 95.3686L7.12771 96.5313C7.75528 97.3348 8.07597 98.5645 7.89951 99.5441C11.9733 100.683 15.1775 103.803 16.3483 107.935C16.3559 107.962 16.3585 107.987 16.3571 108.012C16.2822 108.003 16.2147 107.993 16.1556 107.985C15.9142 107.949 15.8119 107.934 15.9209 108.11C16.0422 108.305 16.3446 108.213 16.3571 108.012C17.1775 108.106 18.875 108.045 20.0471 104.524C20.36 103.584 20.4046 101.95 20.4109 100.056ZM25.161 59.7561C25.4528 60.2312 25.7853 60.7252 26.1207 61.2235C27.3639 63.0706 28.6458 64.9752 28.0354 66.1881C24.3932 73.4254 25.8687 82.9994 22.0605 88.7221L21.9133 88.9376C20.4117 91.0792 20.4118 95.4109 20.412 99.0899C20.412 99.4179 20.412 99.7408 20.4109 100.056C18.84 102.201 14.7711 102.135 13.9477 99.0441C12.3267 92.9567 15.9567 87.7711 19.4726 82.7486C20.9961 80.5723 22.4982 78.4266 23.5423 76.2514C26.0154 71.098 26.4803 65.2282 25.161 59.7561ZM25.161 59.7561C24.4624 58.6185 23.9971 57.5891 24.2852 56.8699C24.6331 57.815 24.9255 58.7792 25.161 59.7561ZM70.5634 4.60783C66.3747 4.46924 62.191 4.51577 58.0619 4.69175C57.0351 4.75088 55.989 4.82222 54.9299 4.89443C51.1914 5.14937 47.2916 5.4153 43.5129 5.19413C46.6787 5.8144 49.9167 6.06803 53.1586 6.08178C57.9557 6.10217 62.7141 5.59899 67.4654 5.00425L68.7047 4.8473L70.5634 4.60783ZM35.704 14.8419C35.0139 14.5631 34.7254 15.5624 35.2325 15.9265C37.9576 17.8819 41.3026 18.7296 44.6372 18.0256C45.7232 17.7962 45.4888 16.0966 44.3744 16.1402C41.3578 16.2571 38.515 15.9779 35.704 14.8419ZM102.078 19.0072C101.581 18.8207 101.056 19.4842 101.368 19.9045C102.799 21.8309 104.514 23.5156 105.98 25.4125C107.451 27.3154 108.679 29.3151 110.419 31.008C111.353 31.9165 112.943 30.9924 112.613 29.7686C111.364 25.1359 106.612 20.708 102.078 19.0072ZM27.0812 21.9734C26.7175 21.6209 27.0835 20.9187 27.606 21.0981C30.5577 22.1127 33.5318 22.9906 36.6328 23.4512C38.5437 23.7347 40.4655 23.7181 42.3887 23.7014C43.6621 23.6903 44.936 23.6793 46.2078 23.7553C47.4993 23.8324 48.3789 25.7826 46.9431 26.3895C40.5631 29.0854 31.8976 26.6408 27.0812 21.9734ZM18.9832 31.4851C18.3031 30.8566 19.0105 29.7851 19.8755 29.9973C24.4376 31.1183 28.9556 32.4818 33.6988 32.6173C36.0679 32.6847 38.4236 32.5033 40.7705 32.2059L41.9587 32.0527L42.4367 31.9937C44.1121 31.7934 45.8076 31.6706 47.4593 32.0037C48.6653 32.2468 48.9008 33.7547 48.1493 34.5414C44.6007 38.2567 37.7558 37.9015 33.0494 37.2753L32.7938 37.2405C27.7672 36.5409 22.7187 34.9389 18.9832 31.4851ZM97.6536 32.3788C97.3434 32.3798 97.1782 32.8407 97.4153 33.0366C99.4414 34.7105 101.42 36.5658 102.859 38.7557C103.558 39.8187 104.142 40.952 104.564 42.1456C105.025 43.448 105.174 44.798 105.832 46.0296C106.935 48.0937 109.889 46.9407 110.038 44.9238C110.262 41.8817 107.644 38.4608 105.569 36.3878C103.464 34.284 100.883 32.8331 97.9034 32.4092L97.6949 32.3813L97.6536 32.3788ZM80.6477 34.9091C80.3639 34.7832 80.5699 34.3517 80.8557 34.4307C88.4666 36.5402 95.5628 41.2753 99.8031 47.8477C100.062 48.2487 100.101 48.9088 99.8031 49.3057L99.6659 49.4858L99.621 49.5415C99.4408 49.7595 99.2514 49.9184 98.9139 49.9692C98.2265 50.0727 97.6293 49.8988 97.2334 49.3057C93.056 43.0412 87.704 38.0417 80.6477 34.9091ZM123.606 53.9448L123.543 53.9373L123.707 54.2918L123.865 54.6469L123.742 53.948L123.606 53.9448ZM5.72944 54.5693L5.57695 54.2742L6.0708 54.4629L5.83281 54.7793L5.72944 54.5693Z" transform="translate(30.87879 11.0205)" id="ðŸ’ˆ-Hair" fill="#ECDCBF" fill-rule="evenodd" stroke="none" />
    <path d="M0.343138 0.276272C0.333259 0.317796 0.348077 0.349275 0.357955 0.393478C0.360072 0.380753 0.362189 0.374055 0.365717 0.358651C0.35725 0.325164 0.350899 0.303062 0.343138 0.276272" transform="translate(39.71215 43.59859)" id="Fill-4" fill="#4F66AF" stroke="none" />
    <path d="M0.42865 0.38812C0.389842 0.349275 0.334806 0.320475 0.279769 0.28163C0.278358 0.282969 0.277652 0.284309 0.276947 0.285648C0.328455 0.317796 0.377847 0.354633 0.42865 0.38812" transform="translate(39.66718 43.77349)" id="Fill-6" fill="#4F66AF" stroke="none" />
    <path d="M35.5123 1.33665C30.9387 -1.30193 24.7536 -0.0781382 23.3791 5.40083C22.8996 7.31142 23.0865 9.31213 23.2726 11.3042C23.3959 12.6239 23.5188 13.9396 23.4474 15.2228C20.1439 14.6506 16.5745 15.5624 14.276 18.0658C11.9587 20.5894 11.3388 23.8464 12.0971 26.8744C8.97426 28.0383 6.38919 30.5309 5.4371 33.7269C4.64037 36.4001 5.05811 39.1969 6.3493 41.5633C5.60474 42.1579 4.95684 42.9066 4.4597 43.7972C2.50872 47.2914 4.11714 51.2304 6.64007 53.9818C9.05443 56.6149 12.1823 58.5111 15.5806 59.8209C11.1262 65.833 8.69615 73.4334 7.52234 80.6001C6.79964 85.0124 6.51616 89.5181 6.74939 93.9821C6.87406 96.3724 7.20127 98.7641 7.59216 101.126L7.63089 101.364C7.86141 102.804 8.0657 104.431 8.67659 105.802C5.02167 107.512 2.16732 110.802 0.808995 114.583C-1.36255 120.628 1.02074 127.535 5.77083 131.785C6.9527 132.843 8.26959 133.805 9.69044 134.539L10.8493 135.156C10.7193 135.537 10.6765 136.432 10.643 136.919L10.6136 137.284C10.3747 140.324 10.9197 143.647 12.7707 146.164C14.9607 149.14 18.5542 150.426 22.2349 149.645C23.8594 149.301 25.3804 148.464 26.4916 147.27C27.3264 146.373 27.7552 145.423 27.8193 144.453C29.1845 150.011 32.2821 155.064 35.9865 159.454C37.8937 161.714 39.9605 163.827 42.2253 165.752L42.3764 165.882C42.5989 166.075 42.8404 166.293 43.0976 166.525C44.9794 168.222 47.7006 170.677 49.9544 169.822C50.7416 169.524 51.3848 168.901 51.3672 168.021C51.3108 165.312 47.6275 163.881 45.6857 162.393C43.4114 160.651 41.2356 158.76 39.2129 156.747C35.5412 153.094 32.3657 149.062 29.1345 145.055L28.29 144.011C28.1484 143.836 27.9259 143.921 27.8258 144.077C27.7974 143.163 27.4526 142.235 26.8116 141.323C25.9209 140.055 23.7919 139.385 22.5494 140.659L22.0711 140.865C21.5705 141.153 21.1623 141.531 20.8366 141.988L20.6974 142.093C20.6241 142.147 20.5371 142.207 20.4425 142.265L20.4132 142.281C20.4693 142.243 20.4068 142.253 20.2984 142.271C20.1995 142.288 20.0626 142.311 19.9436 142.309L19.7188 142.3L19.5178 142.241C19.3583 142.073 18.8688 141.607 18.8166 141.526C18.6421 141.256 18.5416 141.006 18.446 140.722L18.3636 140.47C18.0011 139.333 18.0164 138.117 18.0843 136.936L18.1283 136.222C18.2299 134.46 18.1937 132.83 17.1184 131.288C16.2896 130.099 15.1064 129.454 13.8176 128.862L13.323 128.636C10.8635 127.489 8.95613 125.823 7.66964 123.452C5.22382 118.942 6.92815 113.246 11.249 110.424C15.7735 107.469 22.9261 109.115 25.7037 113.588C25.8395 113.806 26.2024 113.665 26.1311 113.413C24.9603 109.281 21.7561 106.161 17.6823 105.022C17.8588 104.043 17.5381 102.813 16.9105 102.01C16.179 98.7113 15.4601 95.4532 15.1195 92.0748C14.7255 88.1632 14.7117 84.2227 14.9707 80.3015C15.3223 74.9652 16.4827 69.8309 17.7351 64.6933L18.6804 60.8361C21.0434 61.4884 23.4677 61.9006 25.8242 62.105C28.5677 62.3425 31.2839 62.3206 33.9791 62.1102C36.3678 68.4079 36.2768 75.579 33.3251 81.7297C32.281 83.9049 30.7789 86.0506 29.2554 88.2269C25.7395 93.2494 22.1095 98.435 23.7305 104.522C24.7539 108.364 30.7914 107.533 30.814 103.592C30.8372 99.6243 32.2889 96.3891 34.1631 92.9646L34.5642 92.2375C36.6663 88.4222 38.4459 84.6574 39.0376 80.3171C39.8969 74.012 38.5504 67.5013 35.3332 61.9888C46.7932 60.8287 57.8849 56.4253 69.0745 54.0597C77.6076 52.2558 87.1684 51.8652 94.9746 56.2653C95.1177 56.3457 95.2309 56.1443 95.1016 56.0542C84.2243 48.44 70.137 49.5208 57.6643 52.204C55.6661 52.6339 53.6501 53.1109 51.6209 53.5911C41.5013 55.9855 31.0524 58.4578 20.8244 55.5556C17.759 54.6859 14.7842 53.2573 12.3844 51.1884C11.328 50.2777 10.0238 49.0647 9.81549 47.6253C9.74683 47.1503 9.76831 46.8249 10.0572 46.4488C10.2001 46.2626 10.3939 46.1654 10.5254 46.0994C10.6705 46.0265 10.7397 45.9918 10.5812 45.9175C14.149 47.5866 17.2024 42.7253 13.7213 40.7033L13.5894 40.6244C9.30166 37.9879 11.5087 31.9539 16.4832 32.1047L16.5837 32.1064C19.3757 32.1145 20.2074 28.8742 18.6474 27.0341L18.5611 26.9293C15.7885 23.4637 20.5305 19.2761 24.1398 21.3601L24.228 21.4092C25.9343 22.3251 27.7284 21.3054 28.374 19.688C29.4388 17.0198 29.266 14.2851 29.092 11.5309C29.0348 10.6249 28.9774 9.71679 28.9639 8.80825L28.958 8.41752C28.9484 7.55301 28.9801 6.42091 29.5029 5.92021C30.7043 4.76995 32.7315 6.12946 33.9224 6.99903L34.6887 7.56432C36.4257 8.86421 38.0514 10.2768 39.9279 11.401C41.976 12.6289 44.2001 13.6051 46.4591 14.4056C50.8398 15.9578 55.5523 16.6544 60.1965 16.8744C66.4776 17.172 73.099 16.3124 79.7723 15.4461C93.2874 13.6916 107.015 11.9095 118.561 19.656C122.649 22.3988 125.47 26.4094 126.926 30.9963C128.568 36.1689 128.005 41.5257 129.349 46.7161C129.939 48.9958 134.044 49.2888 134.412 46.7161C134.461 46.3676 134.523 46.0133 134.585 45.6563C134.741 44.7631 134.9 43.853 134.881 42.9722C134.852 41.5991 134.537 40.1608 134.341 38.8022L134.255 38.2212C133.905 35.8967 133.461 33.5667 132.866 31.2919C131.591 26.4247 129.216 21.84 125.529 18.274C118.685 11.6542 108.671 8.94787 99.236 8.66119C92.8648 8.46762 86.5665 9.2819 80.2675 10.0963C74.5112 10.8405 68.7544 11.5847 62.9407 11.56C57.9382 11.5388 52.9453 10.9465 48.2121 9.31721C45.8296 8.497 43.5717 7.33575 41.5287 5.88968C39.4738 4.43542 37.7123 2.6055 35.5123 1.33665ZM45.4854 20.3202C44.7953 20.0413 44.5068 21.0406 45.014 21.4047C47.739 23.3601 51.084 24.2079 54.4186 23.5039C55.5046 23.2745 55.2702 21.5749 54.1559 21.6185C51.1392 21.7354 48.2964 21.4561 45.4854 20.3202ZM111.859 24.4855C111.362 24.299 110.836 24.9624 111.148 25.3828C112.58 27.3091 114.295 28.9939 115.76 30.8908C117.231 32.7937 118.459 34.7934 120.199 36.4863C121.133 37.3947 122.723 36.4707 122.393 35.2469C121.144 30.6142 116.392 26.1862 111.859 24.4855ZM36.8645 27.4517C36.5008 27.0991 36.8668 26.397 37.3892 26.5764C40.341 27.591 43.3151 28.4689 46.4161 28.9294C48.327 29.213 50.2488 29.1963 52.172 29.1797C53.4453 29.1686 54.7193 29.1575 55.9911 29.2336C57.2826 29.3107 58.1622 31.2609 56.7264 31.8677C50.3464 34.5637 41.6809 32.1191 36.8645 27.4517ZM28.7647 36.9633C28.0845 36.3349 28.7919 35.2633 29.6569 35.4756C34.219 36.5966 38.737 37.96 43.4802 38.0955C45.8493 38.1629 48.205 37.9816 50.5519 37.6841L51.7401 37.531C53.5702 37.2992 55.4317 37.1171 57.2407 37.482C58.4467 37.7251 58.6822 39.233 57.9308 40.0197C54.3821 43.735 47.5372 43.3798 42.8308 42.7536C37.7201 42.073 32.5634 40.4757 28.7647 36.9633ZM107.477 37.8596L107.436 37.8571C107.126 37.8581 106.961 38.319 107.198 38.5149C109.224 40.1888 111.202 42.044 112.641 44.234C113.34 45.297 113.924 46.4303 114.347 47.6239C114.807 48.9263 114.957 50.2763 115.615 51.5079C116.717 53.572 119.671 52.4189 119.82 50.4021C120.044 47.3599 117.426 43.9391 115.352 41.8661C113.198 39.7134 110.545 38.2442 107.477 37.8596ZM90.6389 39.9089C90.3532 39.83 90.1472 40.2615 90.431 40.3874C97.4873 43.52 102.839 48.5194 107.017 54.784C107.413 55.3771 108.01 55.551 108.697 55.4475C109.063 55.3924 109.255 55.2105 109.449 54.9641L109.586 54.784C109.884 54.3871 109.845 53.727 109.586 53.326C105.346 46.7536 98.2499 42.0185 90.6389 39.9089ZM141.385 41.6278C142.03 40.5679 143.74 40.7812 144.08 41.9696L144.129 42.073C144.313 42.4782 144.229 42.5611 143.887 42.3319C144.735 43.0102 145.119 44.0207 144.86 45.1071C143.459 50.9748 136.611 55.1648 130.642 54.5881C130.121 54.5378 130.05 53.9164 130.522 53.731C132.819 52.8285 134.857 51.3627 136.496 49.5641C138.089 47.8157 138.759 45.8153 139.616 43.7039C139.938 42.9112 140.438 42.3404 141.143 42.0288C141.236 41.9037 141.317 41.7704 141.385 41.6278ZM143.092 50.0776C144.978 48.5563 147.95 49.957 147.311 52.4615C146.615 55.1891 143.603 57.0529 141.117 58.1735C138.557 59.3266 136.064 59.5489 133.272 59.423L133.238 59.4156C134.013 62.4324 134.453 65.5684 135.046 68.6035C135.798 72.454 136.539 76.3064 137.268 80.1605C137.973 83.8859 138.865 87.6161 139.407 91.3601C139.954 95.1395 140.479 98.9214 141.016 102.702C141.912 109.016 142.635 115.359 143.398 121.691L143.762 124.689C144.525 131.033 145.141 137.385 143.693 143.698C142.336 149.615 139.279 155.134 135.734 160.073C132.262 164.909 128.384 169.559 124.126 173.766C115.914 181.879 105.787 188.377 93.9121 189.582C88.7991 190.101 83.3382 189.524 78.5313 187.72L78.2121 187.599C73.3463 185.734 67.3876 182.542 66.1211 177.303C65.3436 174.089 68.7557 171.58 71.7474 173.105C73.1335 173.812 74.1757 174.619 75.3136 175.632L75.5155 175.812C76.4453 176.651 76.8032 176.908 77.8761 177.564C80.0768 178.908 81.7263 179.543 84.2258 180.154C88.8344 181.279 93.8081 181.101 98.4865 179.771C108.419 176.945 116.125 169.574 122.726 162.182C126.311 158.168 129.713 153.958 132.337 149.279C135.09 144.371 136.361 139.218 136.284 133.633C136.198 127.332 135.301 121.006 134.712 114.734C134.112 108.341 133.557 101.949 133.069 95.5464C132.611 89.5421 132.567 83.5107 132.407 77.4877L132.375 76.3585C132.281 73.161 132.216 69.9625 132.141 66.7643C132.124 66.0108 132.096 65.255 132.068 64.4981C131.978 62.0519 131.887 59.5955 132.145 57.1705C132.169 56.9393 132.491 56.8809 132.569 57.1147C132.768 57.7096 132.943 58.3139 133.108 58.9215C133.133 58.9029 133.161 58.8862 133.196 58.8746C135.384 58.1449 137.399 56.688 139.041 55.1168C140.607 53.6175 141.426 51.4213 143.092 50.0776ZM14.1126 118.473C17.1415 117.034 20.7312 117.262 23.7566 118.626L23.9616 118.72C27.2647 120.275 31.6395 123.907 30.5896 127.77C29.9751 130.03 27.3889 130.801 25.3834 129.826C23.7083 129.011 23.3262 127.554 22.4857 126.09C21.8916 125.055 21.157 124.246 20.2943 123.414C18.4756 121.661 16.433 120.359 14.1126 119.317C13.7781 119.166 13.7896 118.626 14.1126 118.473Z" transform="translate(21.09737 5.584945)" id="ðŸ–-Ink" fill="#000000" fill-rule="evenodd" stroke="none" />
  </g>
</svg>
