<?xml version="1.0" encoding="utf-8"?>
<svg width="182px" height="212px" viewBox="0 0 182 212" version="1.1" xmlns:xlink="http://www.w3.org/1999/xlink" xmlns="http://www.w3.org/2000/svg">
  <desc>Created with Lunacy</desc>
  <defs>
    <rect width="181.825485" height="211.10199" id="artboard_1" />
    <clipPath id="clip_1">
      <use xlink:href="#artboard_1" clip-rule="evenodd" />
    </clipPath>
  </defs>
  <g id="head/Buns" clip-path="url(#clip_1)">
    <use xlink:href="#artboard_1" stroke="none" fill="#FFFFFF" />
    <path d="M128.968 19.2418C116.319 1.85282 84.5334 -0.106024 64.4447 0.00417771C24.7727 -0.316514 16.4659 43.9423 14.3941 74.9559C10.1625 75.6545 6.04747 77.0864 3.25537 80.3139C-0.144769 84.2442 -1.31917 90.9901 1.86838 95.3856C3.9857 98.3043 7.32874 99.2797 10.8257 99.4421C22.4065 98.3695 24.7816 108.389 30.4854 115.901C45.1218 135.093 70.4776 141.318 93.7334 141.413C101.632 141.617 111.148 142.193 116.207 134.979C132.184 108.1 132.532 72.4503 133.517 41.9892C133.653 34.1908 133.618 25.9352 128.968 19.2418L128.968 19.2418Z" transform="translate(23.40009 45.42216)" id="âœ‹-Skin" fill="#D08B5B" stroke="none" />
    <path d="M192.326 90.1723C192.486 90.4668 192.605 90.793 192.67 91.1478C192.878 92.2741 192.451 93.1352 191.889 93.9714C191.963 94.5545 192.004 95.1197 192.036 95.6167C192.215 98.4075 191.556 102.233 189.021 103.372C188.981 103.419 188.941 103.464 188.899 103.51C188.703 103.819 188.405 104.086 188.012 104.282C187.915 104.347 187.816 104.41 187.717 104.464C187.672 104.501 187.621 104.532 187.575 104.567C187.628 104.514 187.679 104.457 187.731 104.403C186.329 104.945 184.974 105.057 183.529 104.893C182.635 105.206 181.739 105.44 180.983 105.622C178.624 106.187 175.581 106.64 173.281 105.675C172.611 105.395 172.055 105.023 171.637 104.579C171.672 106.307 171.724 108.034 171.801 109.762C171.958 114.129 171.951 118.492 171.916 122.863C171.878 127.782 171.736 132.704 171.464 137.618C171.337 140.087 171.134 142.551 170.861 145.009C170.631 147.403 170.363 149.793 170.052 152.176C169.319 157.075 168.111 162.012 166.638 166.748C165.997 168.803 165.295 170.884 164.498 172.917C164.16 173.852 163.803 174.775 163.416 175.691C161.371 180.49 158.824 185.122 155.383 189.12C153.504 191.302 151.428 193.264 149.111 194.914C147.251 196.321 145.237 197.512 143.024 198.451C138.267 200.468 132.958 200.923 127.814 200.848C125.812 200.822 123.687 200.472 121.707 200.152C120.188 199.91 118.65 199.586 117.127 199.206C115.777 198.901 114.442 198.547 113.126 198.134C111.542 197.728 110.023 197.144 108.577 196.388L106.014 195.453C104.944 195.062 103.904 194.597 102.895 194.065L100.111 192.803C98.9559 192.263 97.832 191.671 96.7349 191.019C96.6198 190.96 96.4894 190.859 96.4395 190.747C96.1557 190.595 95.868 190.45 95.5841 190.293C95.5381 190.271 95.5726 190.14 95.634 190.014C95.5841 189.913 95.5918 189.802 95.7299 189.701C95.8334 189.623 95.9984 189.645 96.171 189.697C96.1557 189.686 96.1442 189.675 96.1326 189.664C95.9408 189.563 95.7529 189.467 95.5649 189.366C95.3731 189.266 95.3424 189.005 95.5227 188.867C95.5726 188.83 95.6301 188.811 95.6877 188.808C95.6838 188.808 95.68 188.804 95.6762 188.804C95.6416 188.782 95.6685 188.677 95.7184 188.562C95.6225 188.443 95.5918 188.298 95.7606 188.171C95.9919 187.995 96.5107 188.283 96.7528 188.418C96.7716 188.429 96.7887 188.438 96.8039 188.446C97.0456 188.577 97.2911 188.7 97.5328 188.826C97.5481 188.793 97.5788 188.763 97.6287 188.733C97.2719 188.551 96.919 188.365 96.5661 188.178C96.3475 188.067 96.0636 187.832 96.3513 187.612C96.5815 187.434 97.176 187.739 97.4599 187.895C97.4944 187.869 97.5328 187.858 97.5788 187.851C97.4561 187.784 97.3256 187.72 97.2029 187.65C96.8577 187.464 97.0916 186.883 97.4484 187.076C97.4906 187.102 97.5328 187.125 97.575 187.151C97.8193 187.13 98.1572 187.314 98.3317 187.409L98.3575 187.423C99.5582 188.156 100.809 188.796 102.105 189.347C102.98 189.75 103.858 190.148 104.741 190.535C105.608 190.952 106.501 191.313 107.418 191.619C109.724 192.49 112.052 193.301 114.403 194.054C117.699 194.928 121.109 195.632 124.53 195.908C124.975 195.941 125.42 195.971 125.865 195.986C126.84 195.978 127.814 195.975 128.785 195.967C130.676 195.777 132.567 195.591 134.454 195.405C135.114 195.316 135.758 195.204 136.395 195.074C136.729 194.995 137.063 194.914 137.392 194.82C137.508 194.806 137.623 194.783 137.738 194.765C138.547 194.556 139.341 194.307 140.135 194.016C140.634 193.819 141.129 193.61 141.62 193.391C143.242 192.657 144.838 191.689 146.342 190.58C148.225 188.759 150.109 186.942 151.992 185.122L153.715 182.843C155.939 179.757 157.7 176.316 159.162 172.806L161.486 166.305C161.728 165.523 161.958 164.741 162.177 163.956C162.618 162.198 163.059 160.441 163.5 158.687C163.646 158.043 163.788 157.403 163.926 156.763C164.774 152.775 165.242 148.728 165.644 144.681C166.381 137.317 166.58 129.93 166.634 122.536C166.669 118.116 166.63 113.697 166.538 109.281C166.485 106.72 166.446 104.158 166.408 101.597C166.358 98.8789 166.304 96.1573 166.231 93.4394C166.228 93.3798 166.251 93.3277 166.281 93.283C166.274 92.9628 166.27 92.6426 166.266 92.3187C166.262 92.1065 166.346 92.0134 166.469 91.9948C166.446 90.0551 166.431 88.119 166.427 86.183C166.427 86.0564 166.488 85.9745 166.569 85.9261L166.569 85.4346C166.235 84.0869 165.783 82.7652 165.196 81.5067C164.996 81.0525 164.774 80.6095 164.528 80.1776C164.225 79.5297 163.83 78.9415 163.347 78.4016C162.944 77.7426 162.449 77.1581 161.874 76.6369C161.64 76.473 161.402 76.3092 161.168 76.1454C160.972 76.0449 160.685 75.8699 160.431 75.6688C159.975 75.3971 159.522 75.1215 159.066 74.8498C158.801 74.7157 158.974 74.3806 159.162 74.2913L159.162 74.2801C159.119 74.2615 159.073 74.2392 159.024 74.1982C158.471 73.6919 157.896 73.2153 157.297 72.7685C157.19 72.8095 157.063 72.7946 156.967 72.7164C156.615 72.3962 156.254 72.0872 155.886 71.7893C155.061 71.2644 154.198 70.7841 153.296 70.3597C151.85 69.6969 150.37 69.1273 148.851 68.6433C148.523 68.5387 148.193 68.4452 147.865 68.351C147.398 68.3294 146.931 68.3048 146.465 68.2851C129.083 67.545 111.655 67.8558 94.3125 69.2137C90.04 69.5484 85.7728 69.9471 81.513 70.4092C77.7644 70.8161 73.2714 70.802 69.8255 72.4684C69.6797 72.5392 69.5409 72.614 69.4054 72.6911C69.6744 74.3643 70.3775 75.998 70.9901 77.5755C71.9349 80.0089 72.7815 82.4893 72.6975 85.1245C72.6384 86.9622 72.2314 88.7292 71.6453 90.456C71.3449 92.9182 70.5543 95.2961 69.715 97.6324C65.5848 109.127 63.3365 120.896 63.5675 133.098C63.5736 133.425 63.4961 133.71 63.3626 133.953C63.4382 134.486 63.5134 135.02 63.6024 135.552C63.9468 137.608 61.1531 138.631 60.1891 137.268C60.1243 137.33 60.0345 137.373 59.9517 137.38C59.7062 137.402 59.3034 137.011 59.1883 136.833C59.0387 136.565 58.8814 136.304 58.7127 136.054C58.6896 136.043 58.6705 136.036 58.6513 136.028C58.7548 136.237 58.8623 136.449 58.962 136.65C59.1308 136.978 58.4825 137.138 58.2907 136.836C58.1181 136.572 57.9455 136.319 57.7728 136.077C57.6731 136.148 57.5619 136.166 57.489 136.051C56.8714 135.06 56.1579 134.212 55.3754 133.489C54.144 132.514 52.7976 131.922 51.267 131.576C50.0625 131.408 48.8273 131.401 47.6343 131.535C46.2649 131.691 44.8226 132.022 43.5835 132.629C42.5747 133.303 41.562 133.977 40.5493 134.651C40.2999 134.904 40.0621 135.168 39.8396 135.444C39.1376 136.326 38.5737 137.268 38.1096 138.27C38.0904 138.333 38.0712 138.396 38.0521 138.456C37.7682 139.297 37.5841 140.161 37.5035 141.047C37.492 142.168 37.4843 143.285 37.4728 144.405C37.6263 145.861 38.0099 147.276 38.5968 148.62C38.873 149.413 39.3064 150.12 39.8933 150.746C40.2079 151.275 40.5646 151.755 40.9636 152.202C41.773 152.723 42.6552 153.166 43.5951 153.516C43.8252 153.576 44.0554 153.635 44.2894 153.68Q46.1019 154.356 48.041 154.406C49.6751 154.514 51.2747 154.376 52.8398 153.993C53.8064 153.825 54.7424 153.553 55.6477 153.177C56.5146 152.753 57.3317 152.243 58.0951 151.647C58.1795 151.595 58.306 151.625 58.4441 151.692C58.6129 151.572 58.7817 151.457 58.9466 151.327C59.0234 151.275 59.0924 151.338 59.1269 151.405L59.173 151.371C59.476 151.17 60.3084 151.8 59.9325 152.172C60.0936 152.269 60.2547 152.384 60.4005 152.503C61.0679 152.529 62.4144 153.721 62.1612 153.907C61.7853 154.223 61.3902 154.514 60.9874 154.789C61.3441 155.046 61.8121 155.445 61.5935 155.605C61.2022 155.966 60.7764 156.279 60.3238 156.547C60.0169 156.774 59.7023 156.99 59.3724 157.187C59.0157 157.392 58.6513 157.567 58.2753 157.731C58.9313 158.963 59.5566 160.206 60.1396 161.472C60.5271 162.37 60.9759 163.237 61.4937 164.071C62.1535 165.341 62.9437 166.532 63.8682 167.642C64.6201 168.87 65.5023 169.998 66.5112 171.03C67.7579 172.407 69.0967 173.703 70.5198 174.902C71.0875 175.293 71.6668 175.672 72.269 176.022C73.8072 177.147 75.4452 178.111 77.1829 178.915C77.3862 179.023 77.5473 179.261 77.3095 179.448C77.3018 179.451 77.2941 179.451 77.2865 179.459Q78.1381 179.928 79.0012 180.386L79.0203 180.396C79.2523 180.518 79.6822 180.743 79.3464 181.008C79.1239 181.186 78.4373 180.866 78.0268 180.658C78.0844 180.687 78.1457 180.721 78.2071 180.754C78.2129 180.758 78.22 180.761 78.2283 180.766C78.3983 180.854 79.0419 181.189 78.6137 181.406C78.3874 181.443 78.1726 181.406 77.9654 181.298C77.7506 181.22 77.5358 181.134 77.3248 181.045C77.3325 181.112 77.2941 181.175 77.1829 181.227C77.0947 181.242 77.0103 181.242 76.9259 181.235C77.3939 181.492 77.8619 181.745 78.3337 181.994C78.4718 182.065 79.1239 182.415 78.6943 182.631C78.4833 182.672 78.28 182.638 78.0844 182.534C77.7276 182.404 77.3747 182.251 77.0333 182.084C76.9527 182.039 76.8722 181.998 76.7916 181.953C76.7303 181.953 76.6689 181.946 76.6075 181.935C76.9834 182.132 77.3632 182.322 77.7468 182.508C77.9731 182.627 78.3529 182.869 78.0268 183.115C77.8005 183.282 77.1906 182.981 76.83 182.784C76.807 182.81 76.7801 182.839 76.7418 182.869C76.5065 183.042 75.9474 182.729 75.6654 182.571C75.6256 182.549 75.5912 182.53 75.5641 182.516C73.6615 181.525 71.824 180.501 70.0556 179.328C68.9739 178.655 67.919 177.947 66.8871 177.177C64.9116 175.695 63.1164 173.971 61.4707 172.154C60.3468 170.91 59.7369 170.211 58.6474 168.703C56.8982 166.275 55.5787 163.743 54.3089 161.059C54.2898 161.018 54.3281 160.914 54.3857 160.81C54.1248 160.188 53.8716 159.559 53.6185 158.907C52.9587 158.993 52.2951 159.052 51.6391 159.09C50.0932 159.175 48.5933 159.041 47.1395 158.732C45.3788 158.512 43.6372 158.028 42.0952 157.269C41.1707 156.818 40.2808 156.338 39.4368 155.802C38.6812 155.411 37.9523 154.964 37.2542 154.443C34.2813 152.239 32.6663 148.817 32.2712 145.266C31.9682 143.702 31.903 142.093 32.0833 140.541C32.2137 139.413 32.4745 138.296 32.8543 137.22C33.5563 134.833 34.8644 132.625 36.7593 130.954C37.0777 130.637 37.4114 130.336 37.7682 130.053C38.8231 129.215 40.0199 128.541 41.2935 128.05C41.539 127.934 41.7883 127.826 42.0376 127.726L41.7346 127.048C41.6272 127.078 41.2551 127.018 41.2091 126.892C41.0863 126.568 40.9712 126.237 40.8523 125.913C40.7833 125.954 40.695 125.976 40.5991 125.98L40.5991 126.356C40.603 126.464 40.392 127.134 40.2769 126.784C40.158 126.464 40.0506 126.136 39.9355 125.812C39.8396 125.753 39.7667 125.682 39.7399 125.6C39.7284 125.566 39.7169 125.533 39.7015 125.499C39.6939 125.496 39.6823 125.496 39.6747 125.492L39.6747 125.607C39.6785 125.678 39.4867 126.214 39.4522 126.11C38.7886 124.338 38.2477 122.528 37.8257 120.689C37.538 119.676 37.3117 118.652 37.1391 117.614C36.9511 116.679 36.7862 115.741 36.6443 114.795L36.6097 114.561C36.6059 114.542 36.6021 114.527 36.5982 114.509C36.5867 114.408 36.5752 114.304 36.5599 114.203C36.4064 113.135 36.2798 112.063 36.1839 110.983C35.9806 108.764 35.9001 106.534 35.9231 104.307C35.8732 104.326 35.8272 104.352 35.7773 104.374C34.7807 104.786 33.7278 105.123 32.6564 105.391C30.8132 107.976 27.8706 109.726 24.3442 109.909C23.15 109.972 21.898 109.831 20.7387 109.504C20.6183 109.53 20.494 109.552 20.3651 109.568C19.7595 109.645 19.2721 109.519 18.7676 109.389C18.485 109.316 18.197 109.242 17.8798 109.201C16.4655 109.019 15.2663 108.93 14.3511 108.133C14.0684 108.139 13.7983 108.099 13.5417 108.025C11.1146 108.59 8.53572 107.345 7.68221 104.735C6.22645 103.907 5.06645 102.679 4.2866 101.254C2.78443 99.3849 1.58338 97.0933 0.838435 94.6855C0.826927 94.6628 0.814269 94.6409 0.803144 94.6174C0.4253 93.8221 0.245393 92.9692 0.230049 92.1136C-0.171962 89.6764 -0.066089 87.2363 0.698422 85.0914C0.6662 83.9286 0.947761 82.7168 1.46332 81.6173C2.0882 80.2841 3.04106 78.7512 4.27739 77.8622C4.28046 76.4958 4.8854 74.9916 5.67829 73.9722C7.26063 71.936 9.55532 70.8597 12.0387 70.704C13.3015 67.5621 17.1279 66.8283 20.4284 67.8741C21.7994 66.5144 23.8075 65.8651 25.8118 66.0963C27.5066 66.2918 28.955 67.0785 30.1542 68.1626C30.4702 68.2501 30.7852 68.3413 31.0997 68.4363C32.1496 67.9891 33.3745 67.8879 34.495 68.1682C36.4371 68.6541 37.7041 70.0823 38.5807 71.7205C38.8603 71.9074 39.1334 72.1002 39.4 72.3016C39.6927 72.429 39.9585 72.5991 40.1998 72.7994C40.5504 72.9807 40.8481 73.279 41.0295 73.7116C41.5244 74.2068 41.9847 74.7306 42.3921 75.2924C42.697 74.6078 43.0116 73.9279 43.3365 73.2529C43.8655 73.4074 44.5049 73.2075 44.7712 72.5217C46.459 68.1749 49.5312 60.2108 52.4262 56.5408C49.0475 58.7736 44.9223 59.9505 40.8247 59.8321C40.6494 59.8269 40.4726 59.8198 40.2942 59.8105C38.0916 60.1791 35.854 60.2134 33.7999 59.8135C32.4166 59.3261 31.0687 58.7453 29.7625 58.0882C29.4449 57.9281 29.1299 57.7598 28.8162 57.59C28.6792 57.478 28.5522 57.3529 28.4214 57.233C28.1514 57.252 27.8687 57.2315 27.5679 57.1541C26.4375 56.864 25.3914 56.1339 24.7354 55.1957C24.6135 55.0211 24.5153 54.8412 24.4278 54.6599C23.7162 53.9845 23.0998 53.2194 22.6468 52.3248C22.1136 51.2786 21.7875 50.1021 21.753 48.9255C21.5305 47.7714 21.5458 46.5837 21.9601 45.4816C22.0061 45.3625 22.0599 45.2471 22.1097 45.1279C22.1327 45.0535 22.1481 44.9753 22.1749 44.9008C22.2961 44.508 22.4504 44.1581 22.6375 43.8267C22.707 43.486 22.8205 43.1483 22.9809 42.8196C22.9989 42.6606 23.0211 42.5016 23.0476 42.3434C21.8285 40.1114 22.2605 37.1924 24.0852 35.3782C23.8328 34.2054 24.0899 32.9618 24.8252 31.9212C25.3653 31.1565 26.116 30.553 26.9665 30.1341C27.0551 30.0906 27.2898 30.0157 27.5706 29.9297C27.8852 29.6598 28.217 29.4044 28.5803 29.1795C28.6708 26.8924 31.1323 25.6198 33.1324 24.4928C34.4297 23.762 34.9967 22.3766 36.3328 21.6759C37.7943 20.91 39.6643 20.8642 41.2797 20.6755C45.0876 20.2302 49.1426 19.8862 52.9698 20.2886C55.0946 20.512 56.8541 21.508 57.5818 23.1395C59.4096 23.3491 61.0388 24.6291 62.3277 25.9456C63.9365 27.5886 65.3063 29.3377 65.7785 31.4968C66.0931 31.6617 66.3789 31.8635 66.637 32.0914C66.6274 33.6097 66.4234 35.1306 65.9914 36.5636C66.1184 37.4203 65.8526 38.2383 65.403 38.9799C65.4716 39.6821 65.4226 40.3735 65.271 41.0626C66.1456 42.5687 65.327 44.8446 64.1018 46.338L64.0926 47.1801C64.1655 47.1433 64.2365 47.0997 64.3028 47.045C69.8619 42.4536 75.5764 43.1085 82.3296 40.4815C88.4204 39.3403 94.637 38.6139 100.876 38.3723C100.793 38.3604 100.711 38.3518 100.629 38.3388C97.4848 37.8391 94.4651 36.5841 91.8682 34.781C91.1808 34.6119 90.5291 34.3107 89.9456 33.807C89.3786 33.3178 88.9862 32.7533 88.7607 32.148C88.6579 32.0411 88.5562 31.9335 88.4561 31.824C86.5066 31.3594 85.0221 29.7223 85.2707 27.5704C84.0363 26.1522 83.5821 24.4012 83.9998 22.578C83.3101 21.4473 83.2499 20.0217 83.7647 18.8277C82.6806 17.5499 82.5962 15.736 83.4463 14.2903C82.6703 13.2199 82.4988 11.8014 83.4563 10.5336C83.9081 9.93497 84.5342 9.55744 85.2162 9.37501C85.4088 8.68511 85.8004 8.04436 86.4157 7.54955C86.7322 7.29526 87.0636 7.1065 87.4023 6.96576C87.5297 6.25353 87.9444 5.57815 88.7422 5.04686C89.1044 4.80597 89.4749 4.65034 89.8432 4.56397C90.1919 3.72626 90.8002 2.99168 91.6561 2.51475C92.6895 1.93953 93.8913 1.8632 94.9865 2.16478C96.4165 0.0671586 99.5543 -0.745975 101.73 0.809925C103.541 -0.277976 105.82 -0.0486311 107.448 1.2742C109.416 0.144972 111.861 0.600684 113.405 2.1752C115.879 0.863166 119.144 1.8323 120.468 4.31824C122.965 4.04943 125.318 5.63549 125.983 7.93117C126.101 8.02388 126.217 8.11956 126.333 8.21488C127.829 8.2845 129.25 8.85339 130.088 10.2034C130.507 10.8777 130.701 11.6699 130.672 12.4462C131.566 12.9153 132.289 13.6849 132.598 14.6823C132.888 15.6176 132.779 16.5428 132.398 17.3489C133.643 18.6345 133.972 20.6382 133.09 22.253C133.455 22.8606 133.645 23.5788 133.615 24.3253C133.571 25.4307 133.042 26.3216 132.324 27.0823C133.227 28.6646 132.875 30.6944 131.407 31.8039C130.563 34.7065 128.428 36.6377 125.157 37.8224C123.514 38.4174 121.795 38.8757 120.043 39.2122C127.053 40.1278 133.95 41.7369 140.575 44.1361C140.935 44.2668 141.241 44.2158 141.475 44.0635C141.619 44.138 141.767 44.2065 141.911 44.2828C143.737 45.2545 145.525 46.3082 147.266 47.4363C147.266 47.2501 147.27 47.064 147.278 46.8741C147.244 45.342 147.41 43.833 147.829 42.3784C147.281 41.6528 146.87 40.8255 146.647 39.9729C146.09 37.8455 147.15 34.8182 149.055 34.0914C149.722 32.2947 151.24 30.9945 153.1 30.483C153.248 30.3538 153.405 30.2283 153.58 30.1118C153.972 29.8504 154.4 29.6721 154.841 29.5686C155.07 28.595 155.629 27.6988 156.558 27.07C157.868 26.182 159.417 26.0856 160.778 26.57C161.037 26.4854 161.3 26.4121 161.565 26.3484C163.756 24.5382 167.171 24.6715 169.099 26.7896C170.423 26.2025 171.982 26.1764 173.337 26.9665C174.421 27.5987 175.096 28.618 175.36 29.7369C177.412 29.7979 179.289 31.1196 179.881 33.0921C181.772 33.2999 183.32 34.7363 183.648 36.5442C184.854 36.7073 185.969 37.2576 186.646 38.3518C186.96 38.8578 187.13 39.4114 187.174 39.9658C187.784 40.2499 188.331 40.6799 188.744 41.2417C189.467 42.2261 189.607 43.3755 189.341 44.457C189.402 44.5769 189.469 44.6938 189.527 44.8152C189.724 45.2218 189.882 45.6577 190.023 46.1004C190.659 46.9906 190.953 48.0789 190.894 49.172C191.029 49.6344 191.16 50.098 191.269 50.5637C191.698 52.3918 191.86 54.339 191.564 56.2006C191.418 57.1016 191.207 57.9877 190.908 58.8477C190.878 59.0115 190.828 59.1642 190.77 59.3094C190.605 59.987 190.394 60.6534 190.126 61.305C189.481 62.1352 188.806 62.9432 188.096 63.725C187.498 64.5962 186.815 65.4004 186.044 66.1376C185.488 66.67 184.878 67.1652 184.23 67.612C182.943 68.6131 181.503 69.3939 179.966 69.9017C179.692 69.8459 179.416 69.8023 179.14 69.7595C177.396 70.6918 174.651 70.7971 172.972 70.7908C171.122 70.7841 169.428 70.3306 168.02 69.4739C168.183 69.7893 168.346 70.105 168.509 70.4215C168.469 70.4442 168.425 70.4646 168.389 70.4911C168.085 70.0015 167.745 69.5666 167.345 69.2539C166.798 68.8261 165.916 68.7877 165.537 69.4799C165.531 69.4918 165.524 69.5041 165.518 69.5164C165.315 69.8853 165.344 70.2394 165.498 70.5283C165.554 70.6069 165.61 70.6862 165.666 70.7651C165.686 70.7874 165.705 70.8113 165.727 70.8321L165.717 70.8332C166.241 71.2424 166.757 72.2447 167.245 73.219C167.576 73.7883 167.89 74.3658 168.185 74.9533C168.358 75.1997 168.663 75.4161 168.989 75.479C168.925 75.9481 169.147 76.4332 169.513 76.6737C169.609 76.4861 169.725 76.294 169.875 76.0959C171.524 73.9223 174.763 72.9845 177.202 73.9778C177.689 73.8981 178.177 73.8322 178.671 73.7946C180.281 73.6915 181.913 73.8144 183.504 74.1379C183.997 74.4253 184.469 74.7489 184.909 75.1178C185.281 75.4306 185.626 75.7582 185.948 76.097C186.198 76.2783 186.443 76.4704 186.683 76.6707C187.658 77.1797 188.375 78.1559 188.976 79.1276C189.453 79.7825 189.87 80.4784 190.231 81.2156C191.904 83.993 193.834 87.4414 192.326 90.1723ZM58.1898 143.847C58.8035 144.536 59.283 145.303 59.6283 146.148C59.7664 146.42 59.5976 146.583 59.3137 146.535C59.1871 146.516 59.0145 146.427 58.8381 146.308C58.8649 146.371 58.8956 146.427 58.9224 146.49C59.0721 146.777 58.9455 146.982 58.6041 146.874C58.5849 146.863 58.5657 146.852 58.5504 146.84C58.7268 147.146 58.8879 147.458 59.026 147.786C59.1756 148.076 59.0414 148.278 58.7038 148.166C58.5273 148.069 58.3586 147.957 58.1974 147.834C58.2703 147.991 58.347 148.143 58.4123 148.304C58.5657 148.598 58.3892 148.75 58.09 148.683C57.833 148.546 57.5952 148.382 57.3727 148.192C57.3382 148.166 57.3075 148.136 57.2768 148.11C57.3765 148.352 57.1886 148.501 56.9392 148.453C56.5863 148.385 55.9227 147.808 55.7616 147.503C55.7501 147.484 55.7424 147.466 55.7309 147.447C55.5429 147.324 55.3396 147.153 55.1862 146.989C55.0634 147.161 54.8256 147.287 54.7182 147.079C54.396 146.226 53.8935 145.496 53.2068 144.882C52.8156 144.327 52.3399 143.854 51.7837 143.464C51.4845 143.218 51.1738 142.983 50.8554 142.76C50.2915 142.51 49.7046 142.321 49.0908 142.194C48.9681 142.157 48.8415 142.134 48.7187 142.101C48.4464 142.052 48.1779 142.004 47.9055 141.967C46.7969 141.818 45.6845 141.792 44.572 141.889C44.3726 141.896 44.1808 141.747 44.0964 141.576C43.847 141.587 43.6015 141.598 43.3522 141.621C42.9417 141.635 43.03 141.073 43.3407 141.017C43.732 140.947 44.1232 140.895 44.5068 140.85C44.4992 140.816 44.4953 140.779 44.503 140.749C43.801 140.716 43.1029 140.731 42.397 140.801C42.0902 140.816 42.4546 140.265 42.6234 140.236C42.7001 140.221 42.7768 140.213 42.8574 140.198C42.8497 140.187 42.8458 140.18 42.842 140.169L42.8228 140.169C42.4009 140.187 42.1132 139.536 42.6195 139.446C42.7461 139.424 42.8689 139.409 42.9916 139.387C42.9686 139.323 42.9648 139.268 42.9878 139.215C42.7691 139.212 42.5543 139.212 42.3357 139.212C42.4546 139.204 42.5428 138.705 42.6847 138.687C42.796 138.672 42.9111 138.657 43.0223 138.642C43.03 138.504 43.2448 138.184 43.3369 138.165C44.0657 138.046 44.7792 137.964 45.485 137.938C45.5541 137.782 45.6538 137.574 45.7497 137.574C46.5514 137.562 47.3224 137.57 48.0896 137.648C48.1203 137.626 48.151 137.614 48.1779 137.618C48.3045 137.648 48.4195 137.674 48.5423 137.704C48.9681 137.763 49.3939 137.849 49.8273 137.972C50.8515 138.266 51.8758 138.731 52.7619 139.308C53.5981 139.852 54.4305 140.418 55.1594 141.096C55.4164 141.308 55.658 141.539 55.8882 141.777C56.2603 142.075 56.6209 142.38 56.9661 142.682C57.3881 143.058 57.7985 143.445 58.1898 143.847Z" transform="translate(-12.65936 -10.42462)" id="ðŸ–-Ink" fill="#000000" fill-rule="evenodd" stroke="none" />
  </g>
</svg>