<?xml version="1.0" encoding="utf-8"?>
<svg width="177px" height="210px" viewBox="0 0 177 210" version="1.1" xmlns:xlink="http://www.w3.org/1999/xlink" xmlns="http://www.w3.org/2000/svg">
  <desc>Created with Lunacy</desc>
  <defs>
    <rect width="176.171677" height="209.2501" id="artboard_1" />
    <clipPath id="clip_1">
      <use xlink:href="#artboard_1" clip-rule="evenodd" />
    </clipPath>
  </defs>
  <g id="head/doctor-nurse-3" clip-path="url(#clip_1)">
    <use xlink:href="#artboard_1" stroke="none" fill="#FFFFFF" />
    <path d="M119.598 189.684C106.159 189.684 88.7705 179.421 78.3712 173.281C78.2835 173.227 78.1389 173.141 77.9839 173.049C77.7944 172.936 77.5866 172.813 77.4866 172.749L77.0031 172.442L75.7 172.357C74.4464 172.277 73.1756 172.146 71.8112 171.954L71.415 171.899L71.0244 171.983C70.9181 172.007 70.8014 172.035 70.6795 172.066C70.6003 172.086 70.4888 172.115 70.4193 172.129L70.4167 172.129C70.3513 172.104 70.1907 172.029 69.9138 171.828L69.5448 171.56L69.0995 171.457C66.2889 170.81 64.2492 170.057 62.4864 169.013L62.143 168.81L61.7497 168.738C57.9795 168.046 53.8361 160.258 51.6102 156.074C51.2578 155.412 50.9334 154.802 50.6394 154.268L49.6247 152.426L47.7184 153.334C45.0911 154.586 42.3307 155.22 39.5146 155.221C29.8656 155.222 20.5003 147.75 17.2456 137.456L17.2333 137.418C15.7366 132.964 15.6994 128.2 15.6719 123.991C15.9239 117.903 15.0906 111.136 7.12424 106.989C1.55885 103.689 -0.871501 99.5827 0.27919 95.4221C1.77851 90.003 8.81423 85.9162 16.6449 85.9162C17.0471 85.9162 17.4559 85.9269 17.8603 85.9472L19.929 86.0527L20.1873 84.0119C20.6107 80.6668 20.9697 79.6878 23.28 78.4939L24.4835 77.8717L24.4801 76.5243C24.4627 69.6079 22.1356 63.2105 19.8855 57.0238C16.6048 48.0039 13.5058 39.4837 17.9503 30.3221C23.0678 20.8136 31.6779 12.9683 42.8529 7.63154C53.3076 2.63906 65.4798 0 78.0538 0C88.1454 0 97.9853 1.75335 106.51 5.06961L106.566 5.09101C128.283 12.8764 153.517 32.2131 157.623 56.2768C159.081 66.4718 157.476 76.9107 155.914 84.8688L155.887 85.0087C155.762 85.1707 155.503 85.4287 155.338 85.5933C155.052 85.8796 154.755 86.1749 154.498 86.521L153.86 87.3783L154.137 88.4087C157.182 99.7219 158.286 110.069 157.418 119.161L157.368 119.686L157.561 120.175C158.854 123.466 158.643 126.709 158.399 130.464C158.281 132.273 158.16 134.142 158.209 136.113C158.233 149.251 154.848 162.377 148.918 172.128C144.088 180.071 135.185 189.564 120.198 189.678C119.978 189.682 119.788 189.684 119.598 189.684" transform="translate(-4.460729 7.011915)" id="background" fill="#8FA7DF" stroke="none" />
    <path d="M108.205 70.2292C105.515 55.4562 108.619 33.2204 98.06 21.7061C95.5724 11.0347 93.1561 2.67612 80.8234 0.579554C57.2465 -2.66511 31.8268 7.98893 16.3048 25.6586C-0.992371 42.7802 -10.3637 112.895 18.5694 122.09C20.2058 122.596 22.5652 121.784 23.3264 120.167C30.8096 105.817 34.8916 90.28 38.8652 74.7349C51.1626 77.8172 63.2965 72.3051 75.3877 70.609C82.2662 69.473 89.2997 69.7775 96.015 71.6637C98.7193 72.4232 102.026 74.0437 104.601 72.3664C106.095 73.0177 108.443 72.1641 108.205 70.2292" transform="translate(44.39539 55.99223)" id="âœ‹-Skin" fill="#D08B5B" stroke="none" />
    <path d="M138.677 51.8207C138.461 50.039 138.09 48.1343 136.849 46.7526C135.885 43.3315 130.818 43.7692 127.993 42.7112C119.511 40.9338 110.718 40.2714 102.146 41.8166C96.2218 42.5525 90.5419 44.291 84.7773 45.7326C79.2992 47.0563 73.167 45.534 67.9886 47.9192C53.4407 40.4415 40.2898 30.9072 27.0885 21.3374C18.8382 15.6976 9.91918 10.6723 3.65357 2.7215C4.30808 0.924238 2.02416 -1.20148 0.794306 0.824226C-1.24245 4.81142 0.763086 10.8642 5.37663 11.9636C6.605 13.649 8.01958 16.4545 10.3678 16.4851C13.8384 19.5988 16.5026 23.593 21.0737 25.2943C26.8882 28.9767 32.6134 32.7616 38.4345 36.4277C38.4345 36.4274 44.3303 40.126 44.3303 40.126C46.0273 41.1903 48.1577 43.1086 50.2807 42.4783C55.1161 45.4155 60.1883 47.9509 65.1486 50.6712C64.0555 60.1682 63.6296 69.8196 59.2473 78.576C58.4627 81.6686 52.4561 88.0395 54.0257 90.3914C53.5206 90.4235 51.0991 90.7815 51.6566 91.293C54.2695 91.5192 56.5058 93.1862 58.8239 94.2764C72.1193 100.273 92.6165 115.739 107.274 107.638C115.231 107.523 120.028 101.228 125.003 96.0607C130.645 90.5394 133.351 83.037 135.178 75.5516C137.175 67.8201 139.391 59.8715 138.677 51.8207" transform="translate(15.86026 85.83688)" id="ðŸ˜·-Face-Mask" fill="#FFFFFF" stroke="none" />
    <path d="M17.993 31.0913C35.105 0.782154 77.5368 -6.25559 108.428 5.16533C131.703 13.9468 155.531 32.0287 160.444 57.5052C161.83 67.1329 160.589 77.1289 158.728 86.616C158.536 87.5992 157.6 88.2797 156.625 88.4233C159.583 99.0419 161.294 110.042 160.223 121.049L160.229 121.061C161.104 120.939 161.862 121.143 162.224 121.999C162.433 122.493 162.343 123.153 162.264 123.739C162.238 123.931 162.213 124.115 162.2 124.283C162.124 125.247 162.06 126.212 161.981 127.176C161.898 128.199 161.672 129.131 161.358 130.052C161.32 130.85 161.27 131.649 161.22 132.438C161.107 134.216 160.998 135.947 161.05 137.516C160.733 159.131 152.568 186.099 128.715 191.845C110.497 195.336 93.0212 184.508 77.8416 175.102C76.6234 174.347 75.4201 173.601 74.2323 172.873C73.8591 173.463 73.3919 174.006 73.0593 174.409C71.5592 176.224 69.0694 173.944 70.0019 172.059L69.9633 172.037C73.1726 168.241 75.8297 164.101 78.0196 159.73C79.1242 155.202 81.4293 151.065 82.9245 146.606C83.8872 143.737 84.5803 140.781 84.7513 137.755C84.8332 136.311 84.7892 134.868 84.7452 133.423C84.7243 132.737 84.7033 132.05 84.6959 131.363C84.5699 131.191 84.4406 131.021 84.3068 130.855C81.2773 130.701 77.7903 128.158 74.9856 127.144C67.4095 123.529 60.062 119.441 52.9969 114.918C52.8493 117.993 52.5296 121.134 52.2077 124.298C51.035 135.822 49.8324 147.641 56.8076 157.605C58.6336 160.653 60.7882 163.496 63.1628 166.141C64.0121 167.149 64.2124 167.938 64.6038 169.129C65.0256 170.414 63.5939 172.053 62.2247 171.492C57.4774 170.024 52.3792 159.908 50.3242 155.439C41.8159 161.009 30.4008 157.469 23.9133 150.549C17.6272 144.243 15.3047 135.295 15.537 126.625L15.5448 126.362C15.8302 115.851 13.9544 113.364 5.13244 107.966C-2.19987 103.062 -1.42494 93.7239 5.8572 89.1949C10.0652 86.6758 15.7128 85.3746 20.5932 86.3344C19.8327 83.4876 20.7668 79.3358 24.1582 79.0173C23.8687 77.2939 23.8026 75.463 24.0282 73.7123C23.3814 68.7451 21.6252 63.9094 19.8824 59.1104C16.5231 49.8606 13.2133 40.7472 17.993 31.0913ZM38.008 15.0736C60.3342 0.244518 90.2399 0.550459 114.62 11.7536C112.382 11.8754 110.171 12.3327 108.312 13.0922C108.151 13.1575 108.169 13.3841 108.354 13.3978C110.545 13.5568 112.738 13.4871 114.933 13.5915C116.363 13.6594 117.774 13.8698 119.19 14.0218C136.11 23.024 149.771 37.4722 155.355 55.8213C156.878 63.6415 155.895 71.4817 154.742 79.2671L154.442 81.2793C152.314 74.8424 149.792 68.57 147.195 62.3077C146.545 60.4521 145.794 58.5389 144.836 56.7775C145.355 57.1716 145.876 57.5628 146.409 57.9404C147.186 58.4902 148.027 57.3082 147.402 56.6634C145.948 55.1644 144.162 54.0307 142.258 53.135C140.747 51.5366 138.867 50.3328 136.454 49.829C100.397 41.1498 59.1293 65.136 51.716 101.777C44.2056 96.3187 36.8726 90.6192 29.4904 84.9879C28.3762 83.3024 27.2411 81.5605 26.7828 79.6906C26.5071 78.5641 26.3254 77.4167 26.1551 76.2665L25.964 74.9723C26.4788 68.5479 25.0683 62.7701 22.4993 56.6575C14.1419 38.7041 22.3573 25.0087 38.008 15.0736ZM54.012 24.3118L53.224 24.704C40.2237 31.3682 28.6618 42.9541 25.7382 57.5455C25.6984 57.7496 25.9735 57.888 26.0883 57.6928C32.9464 45.8043 42.3838 34.8273 55.0942 28.9539L55.4252 28.7985C59.5258 26.9103 64.2667 26.086 68.051 23.612C69.0107 22.9842 69.0441 21.1511 67.6972 20.9242C62.9904 20.1302 58.1896 22.2455 54.012 24.3118ZM85.0622 38.4409C94.752 34.8836 105.47 32.2899 115.822 33.3801C116.977 33.6849 117.091 35.5811 115.822 35.8158C114.156 36.1237 112.395 36.1007 110.643 36.0779C109.519 36.0633 108.4 36.0487 107.311 36.1214C83.4837 37.1429 62.2 52.2086 48.294 69.1202C56.2492 54.9092 69.9579 44.3449 85.0622 38.4409ZM138.537 54.4609C125.191 49.1455 109.414 51.6698 96.1279 56.1803C79.0861 62.2382 65.7435 75.3409 57.4006 91.0413C57.1066 91.7942 56.8156 92.5478 56.5368 93.3065C56.688 94.5981 56.2424 96.0152 55.8258 97.3403C55.6597 97.8685 55.4982 98.3821 55.3809 98.8673C55.0431 100.266 54.942 101.614 54.8442 103.04L54.8225 103.412C54.8093 103.612 54.7886 103.799 54.7305 103.973C65.5052 111.737 76.8557 118.68 88.1084 125.683C96.1567 126.021 103.889 123.862 111.607 121.708C120.775 119.149 129.922 116.596 139.554 118.238C145.359 119.125 150.95 121.382 156.859 121.571C159.021 101.26 151.428 81.8637 143.829 63.3635L142.926 61.1659C141.914 58.6778 140.882 55.9812 138.537 54.4609ZM24.6324 82.3481L24.8363 82.5594C25.102 83.303 25.5153 84.0039 26.1981 84.3441C26.2241 84.357 26.2498 84.3659 26.2758 84.3758C27.2496 85.6664 28.5117 86.7127 29.9888 87.6877C46.6136 103.739 66.1281 116.987 86.1734 128.356C86.0798 128.439 85.9738 128.508 85.8623 128.566C85.7586 128.597 85.6486 128.618 85.5345 128.631C84.9272 127.961 83.9352 127.391 83.2387 127.203C63.2644 118.78 44.9236 106.907 28.2557 93.1666C24.8326 90.502 20.1722 85.4354 22.5877 80.9887C22.6241 81.0271 22.6866 81.0386 22.736 80.9983L22.7641 80.9798C23.0919 80.8094 24.0271 81.725 24.6324 82.3481ZM21.1263 88.0614C14.1215 88.0103 4.39225 91.2569 4.07224 98.6356C4.55281 104.943 12.5787 105.893 16.1575 110.084C20.4594 114.994 20.8315 120.887 21.2115 126.904C21.6651 134.088 22.13 141.45 29.3064 147.53C34.7458 152.517 42.0064 153.755 48.3638 149.693C46.8296 142.868 47.4086 135.898 48.6054 128.986C48.6088 127.209 48.6768 125.433 48.8362 123.66C48.9869 121.982 49.2036 120.321 49.4626 118.659L49.625 117.631C49.8421 116.209 50.0314 114.702 50.6938 113.423C46.5066 110.676 42.4361 107.733 38.5112 104.648C38.4629 105.361 38.4283 106.073 38.4001 106.785C38.5499 108.127 38.5015 109.518 38.3284 110.805C38.348 117.704 39.0297 124.583 39.3456 131.477C39.3508 132.645 37.7047 132.795 37.3605 131.744C35.8571 127.146 35.7371 122.309 35.9307 117.511C35.9998 115.799 36.1359 114.085 36.3433 112.378C36.0552 110.559 36.0169 108.763 35.8077 106.917C35.61 105.174 35.0996 103.486 34.8547 101.756L30.6686 98.4134C26.9965 95.4828 22.8899 92.5467 21.1263 88.0614ZM115.073 125.317C123.193 123.379 131.331 121.438 139.564 123.239C141.613 123.63 143.608 124.181 145.597 124.73C149.358 125.768 153.101 126.801 157.162 126.746C157.144 127.38 157.12 128.012 157.106 128.64C156.937 135.831 156.735 143.05 155.633 150.17C151.977 177.687 131.461 197.305 103.287 184.69C93.6415 180.866 84.7284 175.405 75.0368 171.691C80.5884 163.549 84.9262 154.129 86.7723 144.342C87.4751 141.606 88.0192 138.489 87.7237 135.606C87.7598 134.246 87.7427 132.883 87.6669 131.522C87.7877 131.193 87.7464 130.888 87.8022 130.429C87.8895 129.709 88.1984 129.065 88.6867 128.529C89.0923 128.085 89.5909 127.823 90.1047 127.589L90.6205 127.358C98.8081 129.198 106.932 127.259 115.073 125.317Z" transform="translate(-5.946003 5.535647)" id="ðŸ–-Ink" fill="#000000" fill-rule="evenodd" stroke="none" />
  </g>
</svg>