<?xml version="1.0" encoding="utf-8"?>
<svg width="182px" height="212px" viewBox="0 0 182 212" version="1.1" xmlns:xlink="http://www.w3.org/1999/xlink" xmlns="http://www.w3.org/2000/svg">
  <desc>Created with Lunacy</desc>
  <defs>
    <rect width="181.825485" height="211.10199" id="artboard_1" />
    <clipPath id="clip_1">
      <use xlink:href="#artboard_1" clip-rule="evenodd" />
    </clipPath>
  </defs>
  <g id="head/Flat-Top" clip-path="url(#clip_1)">
    <use xlink:href="#artboard_1" stroke="none" fill="#FFFFFF" />
    <path d="M71.2057 0C92.9867 0 121.102 13.261 123.499 26.8428C126.325 42.8486 141.454 104.265 138.038 123.96C134.621 143.655 116.211 157.833 86.7513 157.833C57.2915 157.833 35.3031 142.24 30.2543 136.886C25.2056 131.532 15.8492 112.417 15.8492 112.417C15.8492 112.417 0.0758439 110.381 0.00106714 97.9015C-0.0737096 85.422 10.2563 80.8816 10.2563 80.8816C10.2563 80.8816 6.57315 31.6322 15.8492 18.81C25.1253 5.98786 49.4248 -3.08021e-15 71.2057 0Z" transform="translate(21.64073 28.02016)" id="âœ‹-Skin" fill="#D08B5B" stroke="none" />
    <path d="M21.8268 3.93976C26.8237 0.743128 33.033 -0.0423813 38.9021 0.00173046L39.637 0.010724C47.1522 0.1219 84.9814 0.995655 97.647 1.26452L100.66 1.32611C104.648 1.39915 112.691 1.4754 116.835 1.54891L117.074 1.55323C119.107 1.59046 121.14 1.60535 123.173 1.66864L123.471 1.67906C124.994 1.74217 126.262 1.96335 127.454 3.00525C128.061 3.53332 128.298 4.33869 128.242 5.10581L128.233 5.20563L131.252 5.46252C133.302 5.6384 134.386 7.42285 133.571 9.22859L133.531 9.31597C132.084 12.3094 130.98 21.0215 130.205 24.242C129.798 25.9361 129.472 27.6562 129.28 29.3874C129.127 30.7505 129.111 32.1165 128.329 33.3153C126.66 35.8731 121.965 35.8508 121.881 32.2282Q121.875 32.055 121.892 31.8931C110.077 31.3905 93.947 31.4389 82.1476 32.1239C71.1268 32.7643 60.1559 34.2163 49.3576 36.439C46.6226 37.0012 43.8952 37.6156 41.187 38.282C38.9659 38.8256 36.2386 39.1495 34.2515 40.3148C32.0267 41.6254 32.0689 43.9747 32.3105 46.2123C32.5699 48.5839 33.0024 47.362 33.6154 49.5233L33.6531 49.6599C34.286 52.0055 35.0686 54.325 36.1043 56.5291C36.2294 56.7956 36.3707 57.0599 36.5122 57.3247C37.0392 58.3107 37.5703 59.3042 37.2858 60.4459C37.0825 61.2612 36.4185 62.1324 35.8089 62.7021C33.0313 65.2897 28.3364 63.6403 26.4491 67.1847C24.474 70.8911 24.4249 75.9117 24.2573 80.0128L24.2473 80.253C24.1249 83.0788 24.1591 85.9121 24.3509 88.7305C24.3941 89.3745 24.4709 90.0169 24.5474 90.657C24.776 92.5697 25.002 94.4613 24.324 96.3109C23.6638 98.1054 21.5084 98.273 20.3806 96.8135C20.2512 96.6459 20.1325 96.4742 20.0214 96.3014L19.9126 96.1284L19.9053 96.1321C20.0124 96.296 20.1121 96.4639 20.208 96.6348C20.3116 96.8246 20.0546 97.0331 19.8973 96.8693C17.2428 94.0658 13.3646 94.6243 10.361 96.5864C7.31911 98.582 6.11845 102.372 5.96118 105.772C5.78472 109.543 6.12996 113.963 7.74874 117.447C8.43155 118.921 9.4055 120.277 11.0208 120.839C11.7539 121.092 12.4517 121.059 13.215 121.118C13.5507 121.143 13.9154 121.227 14.2828 121.311C14.7841 121.427 15.2902 121.543 15.7349 121.513C16.7368 121.444 17.6363 122.554 17.3518 123.484L17.331 123.546C17.3161 123.59 17.3003 123.635 17.2854 123.676C17.3233 123.709 17.3617 123.75 17.3886 123.81C20.3039 129.592 24.301 134.737 28.72 139.51C30.9338 141.897 33.3884 144.09 35.9547 146.119C37.2206 147.121 38.5555 148.122 39.9633 148.93C40.4313 149.194 40.8605 149.373 41.3868 149.519C41.632 149.585 41.912 149.619 42.1498 149.697L42.3968 149.779C42.4137 149.784 42.4298 149.789 42.4452 149.794C43.151 149.872 43.7456 150.326 43.9796 151.037C44.5895 152.891 43.4809 154.53 41.5859 155.04C39.5329 155.597 37.598 154.619 35.9707 153.495L35.8626 153.42C32.5445 151.101 29.4872 148.498 26.8404 145.46C21.6043 139.462 18.3242 132.518 16.8059 124.838C16.4296 125.623 15.9232 126.308 15.0448 126.785C13.6792 127.529 12.0489 127.529 10.5528 127.28C7.5416 126.785 4.97533 125.001 3.26065 122.589C1.48037 120.087 0.817127 117.049 0.414349 114.089C0.0154073 111.125 -0.180228 108.15 0.218714 105.179C0.790659 100.913 2.63538 96.6943 6.22202 94.3562C3.53684 88.6784 3.06501 82.3119 3.25681 76.0942C3.4908 68.4394 4.85258 60.699 5.8998 53.115L8.8769 31.5543L8.9987 30.6851C9.71712 25.6129 10.5917 20.5139 12.5476 15.7347C14.4771 11.0249 17.4077 6.76562 21.8268 3.93976ZM123.971 35.8508C123.891 35.5976 123.461 35.6311 123.477 35.9174C124.045 49.1201 125.92 58.4465 127.907 71.511L128.663 76.4558C130.435 87.9924 132.26 99.5216 134.106 111.051L134.161 111.392C134.294 112.217 134.433 113.049 134.572 113.885C136.334 124.474 138.221 135.815 131.843 145.281C125.993 153.964 115.82 159.768 105.808 162.802C99.9815 164.567 93.8708 165.308 87.7754 165.178C84.6721 165.11 81.5726 164.828 78.523 164.266C76.9273 163.971 75.3503 163.498 73.7353 163.32C72.0441 163.134 70.9048 163.405 69.355 164.053C68.5341 164.4 68.3769 165.554 68.7677 166.227C70.3223 168.9 72.9201 169.632 75.8471 170.245L76.1677 170.312C79.0716 170.911 82.0326 171.317 84.9982 171.518C90.9478 171.928 96.9703 171.474 102.809 170.297C114.355 167.97 125.832 162.766 134.091 154.433C138.364 150.121 141.656 144.708 142.86 138.803C144.149 132.486 143.556 126.12 142.528 119.816L142.407 119.089C140.354 106.91 137.923 94.7726 135.517 82.6526L134.616 78.1084C131.567 62.6607 128.67 50.9183 123.971 35.8508ZM22.1773 110.25C19.5305 105.756 14.2176 103.623 9.29989 105.939C8.99263 106.084 9.18865 106.457 9.45333 106.494C12.6483 106.903 15.7098 109.539 16.4617 112.588L16.4945 112.712C17.6362 116.74 24.4786 114.157 22.1773 110.25Z" transform="translate(20.33105 16.75405)" id="ðŸ–-Ink" fill="#000000" fill-rule="evenodd" stroke="none" />
  </g>
</svg>