<?xml version="1.0" encoding="utf-8"?>
<svg width="182px" height="212px" viewBox="0 0 182 212" version="1.1" xmlns:xlink="http://www.w3.org/1999/xlink" xmlns="http://www.w3.org/2000/svg">
  <desc>Created with Lunacy</desc>
  <defs>
    <rect width="181.825485" height="211.10199" id="artboard_1" />
    <clipPath id="clip_1">
      <use xlink:href="#artboard_1" clip-rule="evenodd" />
    </clipPath>
  </defs>
  <g id="head/Short-1" clip-path="url(#clip_1)">
    <use xlink:href="#artboard_1" stroke="none" fill="#FFFFFF" />
    <path d="M71.2052 0C92.9862 0 115.515 16.3863 123.499 26.8428C132.731 38.9337 140.013 96.9762 136.597 116.671C133.181 136.366 116.211 157.833 86.7508 157.833C57.291 157.833 39.3627 154.311 38.6438 149.195C37.925 144.08 19.2131 115.606 19.2131 115.606C19.2131 115.606 0.0753141 110.381 0.000537402 97.9016C-0.0742393 85.422 10.2558 80.8816 10.2558 80.8816C10.2558 80.8816 6.57262 31.6322 15.8487 18.81C25.1248 5.98786 49.4243 -3.08021e-15 71.2052 0Z" transform="translate(21.64167 28.02022)" id="âœ‹-Skin" fill="#D08B5B" stroke="none" />
    <path d="M62.5818 0.00165515L62.1935 0.000109176C49.3736 -0.0207652 35.881 2.94938 25.8101 10.9589C16.3659 18.4684 10.4543 29.4256 7.01379 40.6174C4.6888 48.1903 3.22384 56.0275 2.60587 63.9056C2.26868 68.2021 2.17278 72.5173 2.322 76.8212C2.46394 80.9837 2.82068 85.5892 4.497 89.4538C4.53575 89.5432 4.6163 89.6176 4.7122 89.666C4.43985 89.8931 4.17478 90.1203 3.92161 90.3585C1.42093 92.7413 0.41207 95.947 0.0971357 99.2606C-0.500893 105.594 1.67411 112.329 6.29991 116.901C9.97862 120.531 15.6712 123.256 20.9073 122.031C21.6903 123.878 22.7419 125.653 23.8043 127.371L24.9351 129.191C26.559 131.819 28.311 134.398 30.0795 136.949L31.1417 138.476C32.9834 141.112 34.84 143.748 36.3318 146.593C37.8508 149.493 38.7446 152.65 40.3442 155.517C40.8318 156.388 42.0823 156.091 42.3815 155.26C44.5474 149.303 39.8122 142.759 36.2765 137.873C36.151 137.7 36.0271 137.529 35.9051 137.36L34.9053 135.968C32.8346 133.091 30.7058 130.221 28.4799 127.46C26.8036 125.378 25.0851 123.122 23.0942 121.231C23.8422 120.628 23.5273 119.191 22.5342 118.989L22.0679 118.896C17.7167 118.02 13.3918 117.13 10.04 114.071C6.39236 110.739 4.60441 105.877 4.61208 101.074C4.6163 98.583 4.98801 95.8576 6.71804 93.9067C8.27583 92.1494 10.7884 90.7941 12.9975 89.9899C17.2098 88.4523 22.5495 89.182 25.9631 92.1382C26.1131 92.2685 26.2589 92.4025 26.4008 92.5403C26.4814 92.6222 26.5773 92.6371 26.6613 92.6148L26.669 92.652C26.8608 93.3371 27.4937 93.7205 28.1884 93.7727C30.7815 93.9588 33.3743 94.145 35.9674 94.3348C36.5623 94.3758 37.2601 93.9737 37.5286 93.4636C38.4104 91.7954 38.1771 89.6017 37.9644 87.601C37.9032 87.0254 37.8436 86.4657 37.8129 85.9392C37.6556 83.2324 37.1416 67.8075 36.0828 63.0381C36.0867 63.0381 36.0901 63.0381 36.094 63.0419C37.3312 63.4181 38.2041 62.9151 39.1497 62.2578L41.4549 60.639L43.2178 59.4044C44.9321 58.2055 48.3887 56.6343 49.0404 54.5121C49.3028 53.6599 48.9124 52.834 48.5504 52.0683C48.5044 51.971 48.4588 51.8747 48.4151 51.7794L48.3927 51.7291C47.6292 49.9758 44.6002 38.8928 43.2672 38.4431C38.618 36.8719 33.9424 35.3938 29.274 33.8711C26.9989 33.1302 24.7245 32.3557 22.5069 31.4696C20.7888 30.7809 19.1198 29.8724 17.3863 29.1985C22.6914 30.5537 28.0729 31.4585 33.5319 32.0691L33.6226 32.0793C36.6096 32.4179 47.6552 33.7289 48.6338 33.8383L49.5848 33.9295C59.0316 34.7966 68.6234 34.7286 78.1578 34.6611C81.1942 34.6395 84.2247 34.6181 87.2429 34.6269L106.323 34.6827L111.093 34.6934C112.683 34.6957 114.273 34.6957 115.863 34.6901C117.39 34.6864 118.917 34.6827 120.444 34.6753C120.737 34.6745 121.032 34.6838 121.327 34.6931C122.475 34.7294 123.616 34.7654 124.633 34.2024C124.97 34.0163 125.066 33.6104 124.928 33.294C124.974 33.2381 125.02 33.1823 125.058 33.1227C125.062 34.396 125.058 35.6507 125.258 36.9538C125.588 39.0946 125.89 41.2429 126.324 43.3613C127.164 47.468 128.116 51.5485 128.963 55.6551C130.682 63.9875 132.135 72.3795 133.279 80.805C134.422 89.2193 135.247 97.6633 135.753 106.137L135.796 106.835C135.827 107.344 135.86 107.854 135.893 108.365C136.37 115.815 136.862 123.499 134.257 130.613C132.826 134.519 130.659 138.231 128.042 141.503C127.195 142.565 126.264 143.549 125.315 144.519L124.046 145.811C123.232 146.645 122.519 147.542 121.813 148.454C118.184 150.882 114.774 153.563 110.731 155.406C105.939 157.591 100.776 158.998 95.529 159.68C84.2815 161.143 72.6858 159.933 62.3666 155.298C61.9907 155.13 61.4195 155.513 61.7264 155.919C65.2819 160.637 71.4697 163.112 77.2429 164.08C83.2846 165.097 89.4375 165.268 95.529 164.557C101.486 163.857 107.375 162.461 112.806 159.933C116.101 158.395 119.473 156.47 122.1 153.924C123.715 153.328 125.392 152.71 126.827 151.771C128.63 150.591 130.095 149.024 131.476 147.412C134.057 144.4 136.313 141.124 138.062 137.587C139.961 133.752 141.215 129.779 141.703 125.546C142.125 121.91 141.957 118.246 141.734 114.597L141.517 111.08C140.415 93.5863 138.227 76.1154 134.882 58.8906C133.946 54.0803 132.983 49.2588 131.748 44.5118C131.111 42.0731 130.39 39.6754 129.535 37.3001L129.433 37.0161C129.1 36.0644 128.799 35.0662 128.345 34.1726C127.808 33.1199 127.108 32.1514 126.514 31.1163C126.413 30.9397 125.984 30.3198 125.96 30.29L125.529 29.7178C111.191 10.916 86.6811 0.152777 62.5818 0.00165515ZM16.9694 99.0909C15.7032 98.3799 13.4844 97.264 12.0621 97.8905C11.3908 98.1883 10.8457 98.7803 11.4327 99.3909C11.5784 99.5472 11.8661 99.4281 11.8623 99.2196L11.8641 99.1885C11.9515 98.6651 14.9913 100.7 15.2757 100.899L15.5265 101.095C15.7556 101.279 15.9793 101.469 16.2012 101.662C14.6472 101.751 13.1976 102.448 13.0936 104.194C13.0284 105.251 14.0028 105.891 14.9545 105.999C15.8595 106.104 16.3937 105.64 16.9536 105.154C17.1885 104.949 17.4278 104.741 17.701 104.57C17.9423 104.421 18.2108 104.305 18.4874 104.216C19.6493 105.932 20.3555 107.854 20.662 109.905C21.0379 112.422 25.4762 111.398 24.686 108.829C23.455 104.845 20.7924 101.249 17.0524 99.1377L16.9694 99.0909Z" transform="translate(19.56472 23.08371)" id="ðŸ–-Ink" fill="#000000" fill-rule="evenodd" stroke="none" />
  </g>
</svg>