<?xml version="1.0" encoding="utf-8"?>
<svg width="182px" height="212px" viewBox="0 0 182 212" version="1.1" xmlns:xlink="http://www.w3.org/1999/xlink" xmlns="http://www.w3.org/2000/svg">
  <desc>Created with Lunacy</desc>
  <defs>
    <rect width="181.825485" height="211.10199" id="artboard_1" />
    <clipPath id="clip_1">
      <use xlink:href="#artboard_1" clip-rule="evenodd" />
    </clipPath>
  </defs>
  <g id="head/Medium-Bangs-2" clip-path="url(#clip_1)">
    <use xlink:href="#artboard_1" stroke="none" fill="#FFFFFF" />
    <path d="M177.939 33.3083C177.087 31.2214 175.58 28.5985 173.062 28.4939C171.114 22.7137 166.271 16.827 159.534 16.9834C139.76 -2.64274 114.866 -1.71754 88.839 2.43711C75.1077 4.9089 61.1651 9.74898 50.9238 19.3003C38.6579 30.5449 33.8817 50.1655 43.487 64.3846C35.1855 68.7023 35.0244 78.9484 38.5746 86.3421C34.3071 89.2064 34.0478 96.1582 38.8531 98.3429C38.5976 99.3586 38.7783 100.409 39.2655 101.311C36.883 103.236 33.7819 104.658 31.2184 105.88C30.0852 106.42 29.4316 107.303 29.16 108.297C20.7423 113.657 -0.247422 126.756 0.00268365 137.181C-0.120835 142.62 4.03583 146.199 9.08705 147.624C6.08156 153.456 3.8003 160.267 6.67729 166.558C7.47249 168.459 13.4306 174.044 13.7306 174.148C14.255 174.584 22.8026 170.775 26.957 168.832C27.7625 173.918 33.3657 176.583 38.1956 174.84C42.7754 173.5 45.5906 169.737 48.4791 166.314C52.3132 174.432 63.5937 174.525 70.8843 171.025C77.432 168.09 82.4091 162.709 85.1818 156.225C99.905 163.22 117.131 165.26 133.127 162.465C134.153 164.229 136.426 165.413 138.45 164.731C146.956 162.249 156.361 162.11 163.571 156.424C178.6 145.954 179.865 126.651 178.817 110.198C177.888 93.7925 178.701 77.2506 175.629 61.0226C176.962 56.2447 179.18 52.0208 181.232 47.5321C183.462 42.8253 183.415 35.8285 177.939 33.3083Z" transform="translate(-21.48335 20.47743)" id="âœ‹-Skin" fill="#D08B5B" stroke="none" />
    <path d="M107.026 0L107.611 0.00223014C108.576 0.00840954 109.541 0.0269306 110.502 0.0576971C115.585 0.220051 120.886 0.860007 126.854 1.95544L127.761 2.12463C129.246 2.40669 130.575 2.68973 132.696 3.1706L136.906 4.13338C139.049 4.61807 140.626 4.95343 142.082 5.22324L142.272 5.25819C142.272 5.25819 153.489 10.4765 157.112 13.9096L157.474 14.2548L157.627 14.4041L159.202 14.4523L159.218 14.6453L159.231 14.6473C160.795 14.8834 162.21 15.6696 163.525 16.8935L163.666 17.0263L163.801 17.1578C164.826 18.1697 165.643 19.2479 166.769 20.9569L167.025 21.3472L167.483 22.0522L167.854 22.6183C168.094 22.9886 168.326 23.3549 168.548 23.7178L168.767 24.0796L168.925 24.3456L172.992 26.648C173.578 26.9797 174.111 27.409 174.599 27.9232L174.731 28.0655L174.86 28.212L175.968 29.4917L175.745 29.7174L175.853 29.8552L176.047 30.1124L176.235 30.3731L176.419 30.6372L176.498 30.7532L176.617 31.0038L176.676 31.129L176.722 31.2319L176.861 31.3013L177.143 31.796C178.609 34.3633 179.399 37.2789 179.453 40.275C179.489 42.3416 179.227 44.2185 178.603 46.0291C178.172 47.281 177.593 48.2647 176.594 49.6191L175.803 50.6708L175.642 50.8878L175.449 51.1518C175.419 51.1941 175.389 51.2358 175.36 51.2772C174.075 53.0831 163.095 56.5012 156.347 56.6665L156.144 56.6705L155.884 56.673C155.241 56.6757 154.618 56.6533 154.018 56.6046C151.422 56.3939 148.995 55.8638 146.176 54.9968L145.591 54.8133L142.485 53.8004C142.386 53.7686 142.306 53.7433 142.251 53.7262L141.967 53.6401C141.283 53.4364 140.786 53.3193 140.447 53.2769L140.378 53.2688L140.371 53.3935L140.368 53.5111L140.369 53.6067C140.388 54.9943 139.52 56.0059 138.173 56.6506C137.316 57.0611 136.21 57.3543 134.823 57.5743L134.602 57.6085C132.334 57.9484 129.63 58.0937 125.107 58.1932C124.934 58.197 124.761 58.1949 124.586 58.1871C123.614 58.1439 122.851 57.9832 121.432 57.5878L120.761 57.401L120.398 57.3035C119.723 57.1266 119.347 57.0559 118.992 57.0366L118.889 57.0324L118.786 57.0307C118.36 57.0301 118.052 57.1223 117.749 57.3468L117.593 57.4673L115.508 59.163C115.237 59.3824 114.993 59.577 114.815 59.7149L114.742 59.7705C111.88 61.9487 109.151 63.193 105.936 63.3113L105.72 63.3176L105.496 63.32C105.333 63.3203 105.169 63.3175 105.005 63.3114C103.651 63.2614 102.245 62.7743 100.327 61.835L99.9286 61.6376L99.6503 61.4966C99.5082 61.4241 99.36 61.3477 99.1993 61.2643L97.7676 60.5207L97.0359 60.1497C96.1617 59.7135 95.6742 59.5028 95.3462 59.416L95.2926 59.4023L95.262 59.4311C94.5026 60.1507 93.8511 61.0562 93.1499 62.3063L93.0443 62.4964L92.8909 62.7797L91.895 64.704L91.7067 65.0619C90.9674 66.4508 90.3827 67.3385 89.6173 68.1174C88.5065 69.2477 87.1613 69.9035 85.5132 70.0087L85.3474 70.0174L85.151 70.0221C84.3747 70.0295 83.5523 69.9138 82.6604 69.6734L82.4533 69.6157L82.2515 69.5557C80.9228 69.1484 78.8223 69.4019 77.1544 70.2612C75.3427 71.1945 74.345 72.6183 74.3894 74.4381C74.4114 75.342 74.5186 76.311 74.7068 77.3613L74.7602 77.6497C75.0075 78.9481 75.3426 80.2507 75.859 81.9885L76.9692 85.6233L77.0944 86.0475L77.2201 86.4839C77.4003 87.1195 77.5442 87.6733 77.6627 88.1947C78.1157 90.1885 78.1913 91.6857 77.7371 92.9613C75.7345 98.5855 72.2594 101.573 68.3036 101.699L68.167 101.702L67.9978 101.703C64.9587 101.671 62.2049 99.749 62.2382 97.259C62.2416 96.9982 62.2925 96.7552 62.3817 96.5353L62.4223 96.4425L62.4417 96.4029L62.4103 96.3284C61.4763 94.1582 59.3161 92.5741 56.7796 92.2634L56.6356 92.2472L56.4935 92.234C56.3542 92.2223 56.2152 92.2142 56.0836 92.2098L55.9546 92.2065L55.8005 92.2054C52.4199 92.2104 49.0747 94.3947 46.4433 97.9675C45.8947 98.7126 45.3854 99.526 44.9278 100.386L44.7772 100.674L44.0455 102.126L43.5512 103.531C40.8283 111.268 42.2071 119.363 47.5217 123.548L47.684 123.674C49.5988 125.131 51.8507 126.017 54.2548 126.255C54.5314 126.283 54.8098 126.3 55.0777 126.307L55.2764 126.311L55.5047 126.31C56.2882 126.3 57.0374 126.205 57.7104 126.029C58.2594 125.885 58.6414 125.711 58.9073 125.488C58.9773 125.43 59.0335 125.377 59.082 125.324L59.1228 125.277L59.1381 125.256L62.7705 125.779C63.3884 129.586 65.1731 133.53 68.0767 138.053L68.2597 138.337L68.5787 138.824L68.9034 139.313C72.3197 144.413 76.13 148.707 80.3181 152.003L80.6109 152.231L81.0033 152.533L81.3635 152.807C82.0634 153.334 82.6465 153.744 83.23 154.111L83.376 154.201L84.7533 155.048L84.1139 156.504C82.622 159.9 80.5634 162.988 78.0259 165.617L77.7866 165.862L76.0229 167.627L74.6664 165.951C74.6562 165.939 74.6257 165.922 74.5897 165.916L74.5649 165.913L74.5511 165.913L74.5327 165.915L74.511 165.921L74.4889 165.93C73.4734 166.464 72.9157 166.873 72.1144 167.672L71.9982 167.789L71.8629 167.928L71.6765 168.116C70.8439 168.944 69.9543 169.649 68.9846 170.236C66.7449 171.591 64.259 172.343 61.6848 172.411L61.4432 172.416L61.1999 172.416C61.1127 172.415 61.0254 172.414 60.9378 172.411C55.5669 172.267 50.7541 168.927 48.3886 164.032C48.2946 163.838 48.2082 163.775 48.049 163.762L48.0037 163.76L47.947 163.759C47.5525 163.761 47.0689 163.989 46.7994 164.295L46.7514 164.354L45.8459 165.534L45.4987 165.98C42.2689 170.096 39.6171 172.347 36.0553 173.03C35.775 173.084 35.4782 173.117 35.1632 173.131L34.972 173.138L34.8604 173.138C33.3284 173.142 31.5632 172.712 30.1873 171.953C28.3674 170.95 27.2421 169.407 27.3847 167.495L27.3955 167.372L27.4207 167.168C27.5395 166.147 26.6978 165.592 26.0535 166.093L26.0099 166.129L25.9566 166.176C23.303 168.591 20.2508 170.445 16.9633 171.588L16.6727 171.688L16.2407 171.831C14.1675 172.51 12.7056 172.846 11.1662 172.873C9.83399 172.895 8.72624 172.428 7.92507 171.532C7.39069 170.934 7.06416 170.269 6.73818 169.299L6.68382 169.135L6.56484 168.758L6.49101 168.513C5.53729 165.256 5.51659 161.773 6.26541 157.93C6.82475 155.059 7.71521 152.286 9.21258 148.399L9.50323 147.65L10.103 146.121C10.1633 145.968 9.80305 145.433 9.58012 145.372L9.55388 145.368L9.35041 145.389C9.2077 145.402 9.06394 145.411 8.91657 145.417L8.69246 145.422L8.54546 145.422C3.68162 145.374 -0.0333297 140.744 0.00115892 135.84C0.0385372 131.247 2.41882 127.297 6.96343 122.608L7.35826 122.204L7.78541 121.775L8.20753 121.356C12.2459 117.365 16.3742 113.881 20.6733 110.894L21.0293 110.647L21.4256 110.376C22.8734 109.39 24.2809 108.496 26.2287 107.321L27.3755 106.634L32.0229 101.312C32.1344 101.25 32.2443 101.189 32.3525 101.128L32.4115 99.2813L36.8891 99.3709C35.7529 98.8052 34.8115 98.1186 34.0469 97.239C31.5055 94.3141 31.8244 90.2508 34.9146 88.2542L35.0235 88.1854L36.3262 87.4048L37.3921 88.3123C38.3205 89.1029 39.3055 89.6271 40.3323 89.869L40.4948 89.9048L41.2983 90.0701L41.4547 90.3159L41.5452 90.1886C41.5446 90.1759 41.5421 90.1633 41.5378 90.151L41.5298 90.1329L41.5129 90.1075L41.4117 89.9867L41.3 89.8572C40.9425 89.4493 40.5412 89.0533 39.8125 88.3723L39.3013 87.8955L38.9034 87.5197C37.8592 86.5243 37.3031 85.9078 36.7117 85.0514C35.2404 82.9207 34.4093 80.5185 34.3748 78.0785C34.3025 73.0047 37.5539 68.2078 42.3722 66.0183C42.5408 65.9417 42.6653 65.3968 42.463 65.0366C37.7978 56.7286 36.5033 46.7699 38.8467 37.5058C41.0334 28.8624 46.4734 21.2332 54.2617 15.3891C67.6318 5.3559 86.1787 0.182054 105.857 0.00387024L106.454 0L107.026 0Z" transform="translate(-18.79933 21.22192)" id="ðŸ’ˆ-Hair" fill="#ECDCBF" stroke="none" />
    <path d="M83.6793 2.91122C94.4807 0.207475 105.443 -0.495081 116.538 0.318797C127.001 1.08576 138.921 3.358 147.467 9.60431C147.881 9.90737 147.633 10.4811 147.12 10.4018C141.407 9.51793 135.838 7.91028 130.149 6.84658C124.677 5.82346 119.107 5.05538 113.536 4.87741C94.6924 4.27463 73.7254 8.41886 58.531 19.821C51.4065 25.167 45.9694 32.3557 43.8055 40.9088C41.5864 49.6817 42.787 59.169 47.2433 67.1048C47.885 68.2475 47.6204 70.0551 46.2816 70.6634C42.2193 72.5093 39.3258 76.5988 39.3887 81.0119C39.419 83.1523 40.1793 85.2049 41.4011 86.9741C42.693 88.845 44.6598 90.1541 46.1048 91.9013C46.6736 92.5894 46.6955 93.5369 46.2448 94.1706C47.0898 94.5299 48.0013 94.7227 48.8329 95.1471C49.538 95.5072 49.5579 96.6312 48.8329 96.9856C46.9993 97.8818 45.0169 96.9305 43.7794 95.4856C43.5584 95.2276 43.3674 94.9591 43.1933 94.6851C41.711 94.3802 40.383 93.6583 39.2234 92.6709C37.0139 93.955 36.7112 96.8136 38.6093 98.998C39.5786 100.113 40.9558 100.801 42.3476 101.296L42.5147 101.355C43.8692 101.822 45.1097 102.082 45.9897 103.134C46.5701 101.96 47.2364 100.853 47.979 99.8443C50.6792 96.1781 54.8297 92.9256 59.7547 93.3385C63.6126 93.6613 66.9548 96.3419 67.7454 100.04C67.8038 100.314 67.3787 100.528 67.2521 100.242C65.4013 96.0534 59.5449 95.8996 56.0564 98.0825C51.9539 100.65 49.7117 105.488 48.8122 109.994C47.9269 114.433 48.4386 119.832 51.8614 123.208C53.2619 124.589 55.1673 125.545 57.1558 125.796C58.1279 125.92 58.9853 125.798 59.9149 125.617L60.531 125.492C60.9584 125.406 61.3833 125.337 61.8315 125.375L62.4994 125.462L62.8789 125.635C63.208 125.778 63.1782 125.739 62.7897 125.516C63.9244 125.426 64.5109 126.24 64.5731 127.133C64.6092 127.155 64.6441 127.179 64.6732 127.214C68.9795 132.329 72.1768 138.208 76.7466 143.155L78.0843 144.604C81.5234 148.318 85.4495 152.343 90.1213 154.269L90.6773 154.492C92.0365 155.05 93.4014 155.812 93.5746 157.403C93.73 158.827 92.5731 159.899 91.2393 160.231C88.202 160.988 84.7396 158.368 82.5151 156.649C77.7317 152.953 73.7115 148.243 70.3915 143.287L70.0633 142.793C67.3341 138.656 64.7691 133.938 63.972 129.028L63.8282 129.254C63.8175 129.27 63.8091 129.283 63.8036 129.29C63.6409 129.504 63.4618 129.685 63.2539 129.859C62.6954 130.327 62.0141 130.6 61.3064 130.785C59.978 131.134 58.5215 131.202 57.1558 131.067C54.382 130.791 51.7893 129.767 49.5967 128.098C42.9205 123.016 42.1322 113.56 44.8324 105.889C42.6167 106.402 40.093 104.955 38.363 103.715C36.379 102.292 34.743 100.238 34.3521 97.8215C33.9639 95.4238 35.5389 92.2487 37.8751 91.3235C35.4511 88.4987 34.0398 84.49 33.8941 81.2803C33.6409 75.6971 36.697 70.4199 41.3892 67.3737C36.9767 58.1957 36.1266 47.5479 39.0976 37.803C44.9931 18.4654 64.7423 7.65152 83.6793 2.91122ZM169.715 23.5062C167.552 21.0136 164.469 17.5209 160.705 18.9119C160.447 19.0072 160.451 19.4648 160.777 19.426C164.413 18.9968 166.924 22.8688 168.715 25.63C168.799 25.7593 168.881 25.8862 168.962 26.0101L169.329 26.5711C171.033 29.1903 172.505 31.9854 173.253 35.0122C173.922 37.716 173.87 40.5593 172.874 43.1838C172.391 44.456 171.673 45.666 170.705 46.6485C169.608 47.7625 168.76 48.1769 168.459 49.7726C168.318 50.5195 168.662 51.301 169.476 51.5121C171.478 52.0297 172.657 51.1413 173.879 49.6955L174.029 49.5157C175.202 48.0905 176.062 46.4713 176.614 44.7251C177.73 41.1986 177.512 37.3466 176.274 33.8822C174.884 29.9942 172.426 26.6296 169.715 23.5062ZM148.326 26.1706C155.088 25.3317 159.206 33.0528 160.476 38.3717C161.27 41.6968 161.443 45.4062 160.428 48.7063L160.353 48.9414C159.527 51.4045 157.09 55.6246 153.909 54.3659C153.038 54.0211 152.148 53.0818 152.565 52.0691C153.098 50.7746 153.867 50.4387 154.892 49.6103C155.682 48.9726 156.233 48.057 156.639 47.1553C157.72 44.752 157.961 41.9444 157.813 39.3546L157.793 39.048C157.411 33.9895 154.585 26.4508 148.326 26.5894C148.04 26.5957 148.06 26.2033 148.326 26.1706ZM138.655 40.6539C137.685 34.8805 133.448 27.1345 126.457 27.4576C126.135 27.4722 126.131 27.9547 126.457 27.9465C132.266 27.794 134.472 36.4116 134.706 40.9015L134.717 41.1711C134.804 43.612 134.311 46.1266 132.806 48.1337C131.464 49.9234 129.258 50.6066 127.831 52.2828C126.899 53.3778 127.268 54.8212 128.657 55.316C131.936 56.4863 134.981 53.6407 136.655 51.1691L136.775 50.989C138.804 47.8951 139.255 44.2211 138.655 40.6539ZM107.653 29.8197C107.313 29.6094 107.041 30.1079 107.345 30.332C112.106 33.8437 114.475 38.8093 114.446 44.5708C114.434 47.0311 114.041 49.4515 113.054 51.7323C112.105 53.926 110.484 55.5567 108.47 56.849C107.849 57.2477 107.437 58.0114 107.676 58.7415C108.293 60.6231 110.34 61.7241 112.326 61.2471C114.487 60.7278 116.032 58.9194 116.932 57.0251C118.502 53.7238 118.863 49.9009 118.39 46.3237C117.54 39.8763 113.313 33.3135 107.653 29.8197ZM176.484 32.8294C176.222 32.5475 176.552 32.132 176.899 32.3085C180.99 34.3972 183.59 38.3981 184.335 42.7798C185.065 47.0696 184.083 52.9097 180.662 56.0122C178.731 57.7636 175.273 55.4344 176.878 53.1786C178.01 51.5877 179.233 50.2775 179.881 48.3977C180.458 46.7204 180.663 45.029 180.631 43.2664C180.563 39.4212 179.147 35.6962 176.484 32.8294ZM82.6597 38.1865C87.5406 37.9173 91.7077 41.0436 93.7335 45.2053C95.9339 49.7235 95.0106 54.9078 93.0685 59.3531L92.5167 60.5973C91.5509 62.7529 90.2828 65.3164 88.3048 66.473C86.083 67.7724 84.1623 66.2656 84.8175 63.8705C85.208 62.4442 86.2648 61.344 87.1198 60.1668C87.9177 59.0673 88.6623 57.9295 89.3152 56.7426C90.5941 54.4149 91.5489 51.8214 91.5385 49.1545C91.5205 44.2868 88.207 38.7085 82.6597 38.7799C82.2635 38.7844 82.27 38.2077 82.6597 38.1865ZM176.957 58.1743C176.931 57.9912 176.649 58.0496 176.639 58.2164C175.912 70.0701 175.764 81.8479 175.934 93.7192C176.104 105.554 175.979 117.388 176.12 129.222C176.126 129.679 176.133 130.137 176.14 130.596C176.213 135.259 176.288 140.05 174.63 144.474C173.213 148.255 170.52 151.437 167.422 154.048C160.295 160.058 150.544 162.968 141.3 163.898C135.805 164.451 130.184 164.403 124.717 163.605C122.171 163.234 119.654 162.697 117.163 162.072C117.089 162.053 117.013 162.034 116.938 162.015C115.519 161.655 113.968 161.262 112.607 162.035C111.506 162.66 110.825 163.578 110.98 164.823C111.298 167.393 113.794 168.145 116.03 168.699L117.257 168.997C120.096 169.663 122.99 170.106 125.889 170.439C131.469 171.08 137.12 171.047 142.694 170.365C152.292 169.19 162.075 166.409 169.961 160.783C178.19 154.913 183.209 146.757 183.526 136.725C183.68 131.852 183.199 126.896 182.723 121.994C182.574 120.452 182.425 118.915 182.296 117.388C181.736 110.735 181.224 104.08 180.773 97.4177C179.885 84.268 178.811 71.2344 176.957 58.1743ZM79.5643 67.0298C79.6625 66.2126 78.768 65.5126 78 65.5115C76.7234 65.51 76.1223 65.6087 75.0383 66.3079L74.8526 66.4262C73.9862 66.9719 73.1149 67.4225 72.1057 67.6929C70.1883 68.2058 68.4384 68.0634 66.5498 67.9098C66.4991 67.9057 66.4484 67.9015 66.3975 67.8974L65.7168 67.844C65.115 67.7994 64.9278 68.5421 65.2707 68.8977L65.2669 68.8992C66.1653 70.0053 67.5117 70.7306 68.9674 71.1375C67.0387 74.3093 66.0517 77.9766 66.9785 81.6736C67.5474 83.9433 68.8213 85.9895 69.3836 88.2662C69.982 90.6885 69.6126 93.1782 68.4408 95.3819L68.402 95.4576C68.061 96.1484 67.9484 97.0821 68.4408 97.7427C69.0269 98.5294 69.5137 98.8124 70.5214 98.901C71.2986 98.9695 72.2618 98.4185 72.602 97.7427C74.9278 93.1208 74.6876 88.5004 72.5514 83.8718L72.5256 83.8159C71.4226 81.4277 70.4016 79.2171 70.483 76.5391C70.5271 75.0832 70.7614 73.6539 71.0149 72.2255L71.1424 71.5113C71.7481 71.5549 72.3458 71.5519 72.9104 71.5013C74.4026 71.3672 75.8327 71.0288 77.1941 70.4164C78.7986 69.6935 79.3137 68.8125 79.5347 67.2567L79.5643 67.0298ZM38.5934 105.177C39.4792 104.961 39.9548 106.117 39.203 106.581C34.4295 109.528 29.4983 112.16 24.8871 115.366C20.5012 118.414 16.4503 121.886 12.6727 125.619L12.2541 126.035C8.8389 129.445 5.05662 133.783 5.01826 138.813C4.98873 142.724 8.09472 146.991 12.4282 146.478C14.0608 146.284 15.5615 148.294 14.9918 149.744L14.3924 151.272C11.9813 157.454 9.52812 164.458 11.4327 170.963L11.5026 171.195C11.9633 172.684 12.4489 174 14.23 173.97C15.8829 173.942 17.603 173.401 19.1504 172.885C22.3615 171.813 25.2715 170.025 27.7415 167.777C29.9262 165.789 32.7175 167.809 32.4234 170.336L32.4129 170.417C32.0105 173.252 36.6647 174.569 38.7806 174.163C42.9584 173.361 45.937 169.299 48.3096 166.201C49.45 164.713 52.22 164.127 53.222 166.201C55.2075 170.31 59.3001 173.381 64.0878 173.509C66.5746 173.576 68.9606 172.889 71.0669 171.615C71.9267 171.095 72.6955 170.476 73.4007 169.775L73.5757 169.598C74.6191 168.525 75.3391 167.954 76.6717 167.253C77.9847 166.562 79.6833 167.418 79.6753 168.925C79.6645 170.877 79.0753 172.174 77.6886 173.59C76.5413 174.762 75.178 175.791 73.7448 176.614C70.8648 178.265 67.4408 179.195 64.0878 179.087C58.8025 178.917 53.7579 176.361 50.4877 172.384C47.1488 176.259 43.0071 179.819 37.6249 179.723C33.5956 179.652 29.8405 177.616 28.0414 174.462C25.5016 176.161 22.714 177.49 19.7319 178.358L19.4662 178.434C15.2451 179.627 10.3874 180.1 7.67046 176.033C5.11953 172.215 4.92927 166.927 5.51387 162.562C6.03595 158.663 7.2719 154.961 8.69122 151.309C4.65116 150.138 1.51525 146.454 0.438104 142.484C-1.19142 136.48 1.96981 130.658 5.87791 126.197C10.1232 121.35 15.4663 117.252 20.8494 113.664C26.2182 110.086 32.2326 106.724 38.5934 105.177ZM55.7275 107.663C59.1542 103.845 67.2094 105.862 68.7369 110.506C69.0744 111.532 68.7223 112.865 67.8968 113.591C66.8093 114.548 65.258 114.837 63.9377 114.087C62.8015 113.442 62.335 112.386 61.4999 111.48C60.2751 110.153 58.6091 109.416 56.8925 108.888C56.4633 109.107 56.0639 109.395 55.7057 109.742C55.5223 109.919 55.1759 109.676 55.3386 109.467C55.5595 109.182 55.8296 108.915 56.1368 108.668L55.9891 108.626C55.5373 108.503 55.4394 107.984 55.7275 107.663ZM41.6762 123.366C41.4664 122.551 40.2726 121.948 39.5104 122.51C37.864 123.725 37.7225 125.78 36.2038 127.042C34.8765 128.144 33.8142 127.5 32.6786 126.813C32.1917 126.518 31.6912 126.215 31.1507 126.038C27.4749 124.834 25.5107 129.069 24.3703 131.97L24.0553 132.785C23.898 133.195 24.4753 133.643 24.8474 133.376C25.7788 132.708 26.6012 131.981 27.4324 131.197C27.5747 131.063 27.7248 130.902 27.8821 130.733C28.4655 130.107 29.1478 129.375 29.8974 129.521C30.6343 129.665 31.4288 130.535 32.1001 130.875C32.9655 131.314 33.9053 131.544 34.8823 131.514C38.6776 131.4 42.6271 127.054 41.6762 123.366ZM49.3675 142.81L49.5356 142.584C51.256 140.301 54.1576 137.556 57.0609 139.679C57.9843 140.354 58.0184 141.48 57.0609 142.15L56.6987 142.401C55.4303 143.274 54.1673 144.098 53.2357 145.35C52.2234 146.711 51.3142 148.151 49.9532 149.219C47.5462 151.106 43.6561 151.479 41.5674 148.934L41.3619 148.681C41.1872 148.463 40.9867 148.2 40.824 147.938L40.6972 148.108C40.6848 148.125 40.6732 148.141 40.6625 148.157L40.6333 148.2C39.7748 149.532 38.6904 150.628 37.3398 151.493C34.7727 153.137 31.88 153.366 28.9758 152.496C28.6916 152.41 28.7679 152.04 29.0429 152.016C32.4842 151.704 35.8372 149.331 37.237 146.275L37.395 145.932C37.9615 144.717 38.5961 143.562 39.9954 143.085C41.3576 142.62 42.7876 143.111 43.7217 144.111C43.9622 144.368 44.1477 144.704 44.3305 145.035C44.7411 145.778 45.1376 146.495 46.1127 146.242C47.6555 145.84 48.524 143.965 49.3675 142.81ZM66.9276 149.665L66.8725 149.835C66.3151 151.489 64.3327 153.571 63.0887 151.379L63.0452 151.304C62.1942 149.86 60.6822 148.885 59.0732 150.124C57.2476 151.531 57.3853 154.537 56.5664 156.481C56.4336 156.796 56.9584 156.997 57.1249 156.71C57.828 155.494 58.7433 154.298 59.7122 153.27C59.8572 153.117 59.914 152.987 59.934 152.899C59.9493 152.979 59.9861 153.101 60.0678 153.28C60.2777 153.739 60.4775 154.156 60.8316 154.535C62.0461 155.837 63.9525 156.256 65.6887 155.93C67.823 155.529 69.4123 154.034 70.3325 152.169C71.1017 150.611 72.5056 147.409 70.3064 146.327C68.2199 145.301 67.526 147.649 67.0644 149.211C67.0168 149.372 66.9716 149.525 66.9276 149.665Z" transform="translate(-21.86463 18.24326)" id="ðŸ–-Ink" fill="#000000" fill-rule="evenodd" stroke="none" />
  </g>
</svg>