<?xml version="1.0" encoding="utf-8"?>
<svg width="182px" height="212px" viewBox="0 0 182 212" version="1.1" xmlns:xlink="http://www.w3.org/1999/xlink" xmlns="http://www.w3.org/2000/svg">
  <desc>Created with Lunacy</desc>
  <defs>
    <rect width="181.825485" height="211.10199" id="artboard_1" />
    <clipPath id="clip_1">
      <use xlink:href="#artboard_1" clip-rule="evenodd" />
    </clipPath>
  </defs>
  <g id="head/Flat-Top-Long" clip-path="url(#clip_1)">
    <use xlink:href="#artboard_1" stroke="none" fill="#FFFFFF" />
    <path d="M68.3233 0C90.1042 0 121.985 14.1168 124.382 27.6986C127.208 43.7044 133.483 103.89 130.067 123.585C126.65 143.28 113.329 157.833 83.8688 157.833C54.4091 157.833 32.4206 142.24 27.3719 136.886C22.3231 131.532 16.2055 114.871 16.2055 114.871C16.2055 114.871 0.0761197 112.218 0.00134299 99.7381C-0.0734337 87.2586 8.10403 83.402 8.10403 83.402C8.10403 83.402 3.69069 31.6322 12.9668 18.81C22.2428 5.98785 46.5423 -3.08021e-15 68.3233 0Z" transform="translate(24.52242 28.02022)" id="âœ‹-Skin" fill="#D08B5B" stroke="none" />
    <path d="M137.509 95.0651C138.702 107.646 139.151 120.334 139.381 132.963C139.604 144.929 138.518 157.409 131.494 167.64C125.353 176.591 116.001 183.088 105.586 186.595C99.6592 188.594 93.0962 189.335 86.8359 189.517C83.6022 189.611 80.3608 189.477 77.1462 189.153C74.0276 188.836 70.8015 188.87 68.5226 186.576C67.8973 185.947 67.9053 184.655 68.8298 184.245C70.5905 183.467 71.7831 183.385 73.713 183.642C75.3122 183.854 76.9161 184.022 78.5268 184.13C81.9792 184.365 85.455 184.372 88.9073 184.115C95.252 183.642 101.743 181.903 107.504 179.268C116.538 175.128 124.298 168.344 128.487 159.442C133.289 149.25 133.048 137.463 132.823 126.488L132.814 126.038C132.564 113.863 132.1 101.726 131.011 89.5921C130.482 83.7096 129.665 77.868 128.928 72.0115C128.54 68.8989 128.031 65.8009 127.405 62.726C127.075 61.0986 126.646 59.4943 126.293 57.8784C126.036 57.919 125.775 57.9417 125.506 57.9525C123.903 58.005 122.15 57.6253 120.96 56.5195C120.504 56.8211 119.925 57.0109 119.227 57.0445C114.963 57.2489 110.655 57.1578 106.357 57.0668C104.009 57.0172 101.664 56.9676 99.3297 56.9663C92.7011 56.9625 86.0687 56.9663 79.4359 56.9849C78.425 56.9877 77.4136 56.9914 76.4019 56.9952C70.7843 57.016 65.1572 57.0369 59.5467 56.8918C53.3823 56.7317 47.0104 56.862 40.9269 55.7674C38.8823 62.819 38.9548 70.5669 43.217 76.8664C44.4211 78.6424 43.4429 80.7348 41.8744 81.8443C40.2706 82.9765 37.3878 84.7126 34.9213 84.8909C34.6823 85.4118 34.4368 85.9301 34.2036 86.4468C33.0263 89.0504 31.9657 91.6704 31.2234 94.427C30.8409 95.8477 30.5118 97.292 30.2349 98.7451C30.2575 98.9994 30.2809 99.2533 30.3089 99.5069C30.3089 99.5329 30.3127 99.5586 30.3166 99.5884C30.3319 99.693 30.3511 99.8122 30.3626 99.8792C30.5045 100.609 30.6422 101.339 30.7922 102.065C31.149 103.833 31.4248 105.617 31.6208 107.407C31.9775 110.684 31.943 114.943 28.6518 116.883C26.891 117.921 24.7812 117.814 22.9204 117.117C21.6703 116.648 20.6077 115.985 19.4569 115.334C18.7741 114.946 18.0602 114.63 17.3928 114.228C17.209 114.116 17.0326 113.982 16.8676 113.841C15.6209 114.098 14.4045 114.578 13.7221 114.906C11.892 115.788 10.2851 117.065 8.91909 118.532C6.01563 121.656 5.14486 126.057 5.55148 130.141C5.93086 133.942 7.46947 138.309 10.5647 140.837C11.9111 141.939 13.5917 142.584 15.3678 142.565C16.242 142.558 17.0479 142.379 17.8918 142.163C18.7242 141.951 19.7523 142.014 20.5195 141.716C21.6584 141.273 23.0627 142.625 22.5986 143.734C22.2491 144.568 22.05 145.305 21.6123 145.957C24.7889 150.99 28.2682 155.868 31.9695 160.548C35.3068 164.762 39.2352 168.307 42.9481 172.168C44.5864 173.873 45.2692 177.231 42.304 177.96C39.6959 178.608 37.6695 176.287 36.0614 174.445C35.846 174.198 35.638 173.96 35.4372 173.739C28.3986 165.969 23.0781 157.048 20.5881 146.977C19.4646 147.751 18.1753 148.172 16.8174 148.354C14.113 148.716 11.3783 148.198 9.0077 146.869C0.031118 141.839 -2.14005 128.246 2.06419 119.727C3.07804 117.676 4.5756 115.845 6.40115 114.423C6.2573 114.156 6.20053 113.844 6.29297 113.507C6.45523 112.919 6.63361 112.337 6.8208 111.758C6.61635 111.67 6.46674 111.487 6.49513 111.216C6.66391 109.541 6.82847 107.865 6.99381 106.19C6.97623 105.422 6.95232 104.654 6.92841 103.885C6.87353 102.122 6.81861 100.357 6.83998 98.5835C6.8864 94.5253 7.13957 90.4708 7.15492 86.4126C7.20478 72.2572 7.79898 58.1167 7.84156 43.9613C7.86419 37.0396 7.87953 30.1075 7.69157 23.1899C7.68774 23.0969 7.68774 23.0075 7.68428 22.9144C7.6607 22.0655 7.60519 21.1725 7.54823 20.256C7.23374 15.1958 6.87475 9.41979 11.597 6.38705C12.5138 5.79916 13.6569 5.79172 14.6543 6.17148C17.5236 4.23172 21.1217 3.29684 24.5626 2.75699C31.1183 1.72977 37.7315 1.23422 44.3332 0.582673C47.7776 0.243868 51.4026 0.11393 54.8703 0.188393C56.6744 0.226705 58.4907 0.163499 60.3096 0.100197C62.0259 0.0404677 63.7447 -0.0193462 65.458 0.00595901C69.4624 0.0692524 73.4982 0.214455 77.5179 0.534645C77.7063 0.516029 77.8981 0.501137 78.086 0.482521C84.1758 -0.0842645 90.2581 0.215434 96.343 0.515257C97.8166 0.587866 99.2903 0.660483 100.764 0.720802C107.968 1.01493 115.575 1.73722 122.043 5.08395C122.874 5.5136 123.579 6.00207 124.18 6.5464C125.023 6.66144 125.826 6.89339 126.549 7.28321C128.631 6.87478 130.955 7.78025 131.448 10.1255C132.165 13.5619 132.438 17.0278 132.008 20.513C131.997 20.5945 131.989 20.6805 131.977 20.7699C132.847 24.0031 132.789 27.5341 132.066 30.723C132.371 34.7522 132.545 38.7929 132.569 42.8269C132.573 43.4373 132.582 44.0502 132.591 44.6643C132.623 46.8576 132.655 49.0672 132.446 51.2408C132.211 53.6869 131.174 55.6226 129.541 57.4804C129.234 57.8304 128.714 57.8885 128.282 57.8036C128.17 57.7816 128.072 57.7519 127.984 57.7165C128.968 59.7638 129.746 61.9359 130.543 64.0104C131.809 67.3091 133.036 70.6637 133.907 74.0815C135.672 80.9727 136.834 87.9949 137.509 95.0651ZM15.5785 126.458C15.1106 126.153 14.6502 125.815 14.1401 125.58C14.0902 125.557 11.9881 124.895 12.3947 125.77C12.5328 126.06 12.1722 126.384 11.9152 126.127C11.1863 125.409 11.593 124.545 12.2873 123.905C13.5413 122.747 15.4136 123.014 16.9518 123.29C19.0923 123.674 21.1714 124.582 22.9743 125.748C24.9153 127.002 27.3128 128.741 27.6964 131.12C28.0455 133.306 25.8053 135.714 23.4998 134.251C21.3632 132.892 20.3237 130.402 18.4862 128.696C17.5844 127.862 16.61 127.129 15.5785 126.458Z" transform="translate(21.09737 -1.11671)" id="ðŸ–-Ink" fill="#000000" fill-rule="evenodd" stroke="none" />
  </g>
</svg>