<?xml version="1.0" encoding="utf-8"?>
<svg width="182px" height="212px" viewBox="0 0 182 212" version="1.1" xmlns:xlink="http://www.w3.org/1999/xlink" xmlns="http://www.w3.org/2000/svg">
  <desc>Created with Lunacy</desc>
  <defs>
    <rect width="181.825485" height="211.10199" id="artboard_1" />
    <clipPath id="clip_1">
      <use xlink:href="#artboard_1" clip-rule="evenodd" />
    </clipPath>
  </defs>
  <g id="head/Bun_2" clip-path="url(#clip_1)">
    <use xlink:href="#artboard_1" stroke="none" fill="#FFFFFF" />
    <path d="M33.9465 7.56809C58.1187 6.28734 79.5347 -0.304561 96.5496 14.4484C96.5496 14.4484 124.076 -5.50287 128.668 2.09585C131.746 7.18752 127.478 14.0227 128.622 20.3057C136.084 32.6518 135.662 53.5491 136.084 58.4463C137.147 70.7898 143.845 117.238 143.845 128.268C143.845 133.898 139.063 148.644 136.084 156.85C129.455 175.114 116.8 184.422 96.0469 184.422C75.2939 184.422 41.4208 167.587 30.5572 152.64C29.6051 151.33 23.4483 155.152 17.0086 148.522C10.0321 141.341 6.16198 127.642 6.16198 119.477C6.16198 109.115 -0.737577 101.929 0.06495 88.6661C1.85722 59.0453 8.08109 8.93855 33.9465 7.56809Z" transform="translate(12.2509 2.305628)" id="âœ‹-Skin" fill="#D08B5B" stroke="none" />
    <path d="M128.668 2.09585C131.746 7.18752 127.478 14.0227 128.622 20.3057C131.502 25.07 133.207 31.1076 134.24 37.0079L128.598 39.9143L126.51 40.2115C92.6583 45.0556 71.0527 49.4152 61.6935 53.2901C52.2388 57.2046 40.7647 70.9531 27.271 94.5356L26.8615 95.2532L24.1877 112.853L11.9297 116.502L6.15979 119.157C6.02015 108.966 -0.729281 101.792 0.06495 88.6661C1.85722 59.0453 8.08109 8.93855 33.9465 7.56809C58.1187 6.28734 79.5347 -0.304561 96.5497 14.4484C114.9 1.14755 125.606 -2.96997 128.668 2.09585Z" transform="translate(12.27432 2.23388)" id="bandana" fill="#9FD8E5" stroke="none" />
    <path d="M55.9563 0.0346344C55.6379 0.00447695 55.3195 -0.0104156 55.0049 0.00820009C54.2838 0.0528778 53.5741 0.190634 52.899 0.414395C52.2354 0.559597 51.5948 0.794155 51.0002 1.13259C50.4708 1.43416 49.9875 1.77297 49.531 2.1639C49.4313 2.24953 49.3354 2.33516 49.2433 2.42452C49.1244 2.5176 48.9978 2.60732 48.8789 2.70748C48.4608 3.0649 48.1194 3.44503 47.8202 3.84676C46.5428 2.76705 45.1695 1.82546 43.5469 1.20333C41.9818 0.607998 40.3438 0.213345 38.6829 0.108725C38.61 0.105002 38.5332 0.101279 38.4565 0.0942046L38.1101 0.0799986C36.4366 0.024452 34.7637 0.288451 33.1782 0.857076C31.8049 1.24465 30.4969 1.84371 29.3039 2.64828C28.7515 3.02059 28.2183 3.43014 27.7158 3.87319C27.5854 3.97707 27.4511 4.07387 27.3284 4.18184C26.2926 5.09401 25.3989 6.09553 24.6585 7.24636C24.4475 7.5699 24.2634 7.89381 24.0985 8.214C23.8798 8.06507 23.6496 7.92732 23.4348 7.81562C22.403 7.28731 21.1946 7.071 20.0093 7.13094C18.9928 7.12684 18.0031 7.29811 17.0863 7.72999L17.0172 7.74861L16.8352 7.80954C15.8158 8.16604 14.9989 8.71145 14.3359 9.38307C13.1928 10.2807 12.4332 11.528 11.9269 12.9312C11.0561 14.8672 10.7723 17.1942 10.6917 19.3317C10.6494 19.3317 10.6085 19.3296 10.5676 19.3275C10.5118 19.3247 10.456 19.3219 10.3963 19.3242C9.53324 19.3536 8.47067 19.7408 7.6421 20.1653C7.17794 20.3365 6.73681 20.545 6.34937 20.7796C5.69342 21.1742 5.09117 21.6396 4.55413 22.1646C3.56062 22.98 2.75506 23.974 2.18733 25.1468C2.04157 25.4525 1.92265 25.7649 1.81524 26.0776C1.76538 26.1856 1.71167 26.2902 1.66948 26.3941C1.10175 27.772 0.925296 29.3019 1.0212 30.7762C1.03654 30.9698 1.05188 31.1634 1.0749 31.3537C1.08257 31.7666 1.10175 32.1798 1.15162 32.5968C1.27437 33.6509 1.49686 34.6483 1.93032 35.6312C2.32927 36.5363 2.79725 37.3848 3.31511 38.2117C3.16935 38.3122 3.03125 38.4198 2.90083 38.5356C2.8126 38.6097 2.73588 38.692 2.65532 38.7735C2.63998 38.7851 2.62464 38.7921 2.60546 38.8033C1.8421 39.3435 1.21683 40.1399 0.837069 40.9702C0.706645 41.2494 0.603074 41.5324 0.522518 41.8191C0.0545288 42.8656 -0.110418 44.0008 0.0737087 45.0846C0.0583648 45.3039 0.0545288 45.5236 0.0737087 45.747C0.242492 47.9622 1.94183 49.6604 3.9327 50.561C5.42107 51.596 7.05903 52.2997 8.8581 52.5566C9.57927 52.7468 10.3234 52.8656 11.0906 52.9032C11.531 52.9244 11.9725 52.9129 12.4133 52.8816C14.9094 50.0971 17.674 47.5024 20.251 44.7935C21.5943 43.3813 23.759 45.493 22.4206 46.8997C18.542 50.9769 13.9626 54.8374 10.913 59.6105L10.614 60.2972C10.3321 60.9545 10.0588 61.6171 9.79408 62.2814C6.75599 69.6681 4.91855 77.5165 5.56683 85.4915C5.57067 85.556 5.57536 85.6206 5.58047 85.6852L5.61286 86.076L5.62437 86.2328L5.63204 86.2808C5.70493 87.152 5.80083 88.0236 5.93892 88.8944C6.23238 90.7232 6.66085 92.5103 7.18753 94.2665C6.9451 97.104 7.07859 99.9842 7.60335 102.836C7.61525 102.964 7.62445 103.092 7.6398 103.22C7.85576 105.024 8.3648 106.763 9.13314 108.39C10.2061 111.192 11.7731 113.844 14.0332 115.718C14.1376 115.804 14.2461 115.891 14.3581 115.977C15.6221 117.769 17.3045 119.215 19.4255 119.532L19.3668 119.656C18.8834 120.758 18.6303 121.938 18.5835 123.136C18.4342 126.936 20.2629 130.082 22.8038 132.693C22.7777 132.848 22.7513 133.004 22.729 133.155C22.6408 133.196 22.5756 133.275 22.5564 133.401C22.2533 135.315 22.027 137.172 22.2725 139.112C22.3032 139.358 22.3416 139.6 22.3799 139.839C22.4989 141.272 22.8019 142.754 23.2584 144.057C23.8913 145.881 24.7429 147.612 25.886 149.187C26.6039 150.174 27.0223 150.623 27.646 151.233L28.5252 152.087C28.5635 152.125 28.6249 152.05 28.6863 151.946C28.7975 152.054 28.9088 152.158 29.02 152.263C28.8321 153.212 28.7246 154.165 28.7055 155.107C28.6786 156.41 28.8014 157.717 29.0392 159.009C29.5264 162.512 30.7807 165.941 32.7409 168.92C33.4467 169.869 34.1526 170.818 34.8507 171.768C35.5373 172.728 36.27 173.656 37.0449 174.549C38.1151 175.699 39.2928 176.801 40.528 177.792C41.1609 178.302 41.8284 178.749 42.5303 179.133C42.6301 179.199 42.726 179.274 42.8334 179.341C44.5366 180.424 46.5083 181.329 48.5528 181.604C49.1934 181.772 49.8379 181.884 50.49 181.925C51.706 182.003 53.0256 181.91 54.2071 181.589C54.3298 181.854 54.4526 182.111 54.5792 182.364C54.5331 182.457 54.5063 182.543 54.5255 182.576C55.6762 184.624 56.8692 186.631 58.4727 188.384C59.2706 189.259 60.1106 190.078 61.0121 190.853C62.5196 192.149 64.1192 193.154 65.8493 194.163L65.8569 194.163L66.357 194.462C66.6915 194.661 67.0282 194.858 67.3683 195.056L67.5683 195.175C67.8178 195.315 68.1796 195.474 68.3235 195.231C68.3286 195.224 68.332 195.216 68.3346 195.209L68.3465 195.164C68.3606 195.172 68.3742 195.179 68.3878 195.188L68.6986 195.374C68.9875 195.541 69.4349 195.752 69.5855 195.495C69.7361 195.236 69.3205 194.977 69.0263 194.819L68.7915 194.695C68.6188 194.598 68.4616 194.49 68.2928 194.39C68.3427 194.386 68.3887 194.378 68.4309 194.36L68.9909 194.684C69.0091 194.695 69.0324 194.709 69.0599 194.726C69.3158 194.884 69.9334 195.265 70.1724 195.056C70.4074 194.848 70.0843 194.605 69.8817 194.478L69.8042 194.431C69.3247 194.185 68.8605 193.925 68.4079 193.645C68.4731 193.653 68.5383 193.656 68.6035 193.653C68.7953 193.578 68.7953 193.463 68.7186 193.347C68.9372 193.467 69.1597 193.582 69.386 193.69C69.5778 193.816 69.785 193.872 70.0113 193.854C70.4716 193.675 69.8118 193.25 69.6776 193.172L69.5033 193.08C69.3882 193.017 69.2748 192.953 69.1597 192.893C69.2364 192.916 69.3132 192.934 69.3784 192.934L69.4056 192.952C69.7608 193.182 70.4633 193.637 70.7325 193.463C71.0571 193.254 70.7487 192.998 70.521 192.857L70.464 192.823C69.8617 192.509 69.2786 192.171 68.7147 191.813C68.7416 191.791 68.7646 191.761 68.7838 191.724C68.9286 191.466 68.6675 191.32 68.4656 191.207C68.4428 191.194 68.4208 191.181 68.4002 191.169L68.014 190.943C67.1178 190.413 66.2573 189.86 65.435 189.271C65.3429 189.185 65.247 189.099 65.155 189.01C64.0387 187.99 63.0835 186.847 62.2895 185.573C61.3382 184.4 60.5403 183.135 59.8958 181.779C59.2514 180.99 58.6031 180.201 57.951 179.419C58.0277 179.319 58.0929 179.207 58.1543 179.091C58.2885 178.935 58.02 178.712 57.7016 178.518L57.928 178.365L58.0295 178.291C58.3278 178.064 58.5701 177.777 58.7565 177.434L58.768 177.416C58.8647 177.181 57.6748 176.401 56.8692 176.184C56.7158 176.083 56.5432 175.986 56.3706 175.9C56.4166 175.837 56.4703 175.778 56.5125 175.711C56.7695 175.424 55.7837 174.881 55.4192 174.921C55.3118 174.851 55.1737 174.854 55.0855 174.947C54.9589 175.1 54.8247 175.241 54.6904 175.376C54.4449 175.312 54.2301 175.312 54.115 175.428C53.601 175.956 53.0601 176.407 52.477 176.768L52.3198 176.824L52.1064 176.892C51.037 177.222 49.9307 177.352 48.7907 177.278C47.9276 177.256 47.1067 177.062 46.3241 176.698C46.163 176.656 46.0019 176.608 45.8446 176.556C45.438 176.37 45.0391 176.15 44.6478 175.9C44.5251 175.793 44.4023 175.681 44.2872 175.569C43.5469 174.824 42.7873 174.099 42.0125 173.391L40.7006 171.727C39.3503 169.876 38.0576 167.989 36.8186 166.064C34.5477 161.764 33.4391 156.559 34.6819 151.819L34.6896 151.804L34.8034 151.526C34.881 151.342 34.962 151.159 35.0463 150.978C35.9977 148.945 37.3863 147.08 39.1854 145.676L39.2276 145.646L39.4582 145.497C40.1548 145.057 40.8939 144.687 41.6672 144.399L43.5315 144.656C44.759 144.756 45.9789 144.693 47.1872 144.462C47.4673 144.429 47.5363 144.243 47.3982 144.053C47.5209 144.035 47.6437 144.019 47.7626 143.997C48.5567 144.25 49.3162 144.574 50.0834 144.902L50.1179 144.924C51.4452 146.354 52.0359 147.567 52.5499 149.489C52.6228 149.768 56.3706 151.946 56.8347 148.766C56.8385 148.346 56.7848 147.932 56.6698 147.534C56.4089 146.778 56.0714 146.056 55.6571 145.363C55.2083 144.63 54.6789 143.952 54.0728 143.334C53.5818 142.932 53.0601 142.582 52.5077 142.262C51.9822 141.659 51.4145 141.142 50.6434 140.694C50.2483 140.467 49.834 140.259 49.4083 140.069C49.4351 140.05 49.462 140.025 49.4773 139.991C49.976 139.071 50.4747 138.152 50.9695 137.232C51.0194 137.143 50.9848 137.061 50.9081 136.983L51.6485 135.612C51.794 135.341 51.1845 135.122 50.8315 135.015L50.6051 134.95L50.3251 134.853C50.256 134.79 50.1639 134.727 50.0527 134.663C50.0719 134.224 50.1064 133.784 50.1524 133.345L50.1901 132.973C50.3122 131.857 50.518 130.756 50.8046 129.67C51.1613 128.17 51.6178 126.718 52.1587 125.292C52.3159 124.927 52.477 124.562 52.6458 124.201C53.1713 123.006 53.7544 121.841 54.3874 120.697C55.1584 119.089 56.1366 117.608 57.3142 116.252L58.979 114.126L59.4722 113.525C60.6293 112.128 61.8301 110.764 63.072 109.432C64.0272 107.972 64.9516 106.494 65.8531 105.001C66.743 103.49 67.7059 102.022 68.7416 100.604L69.1734 100.008C71.0566 97.4306 73.0902 94.9552 75.1669 92.5282C75.7346 91.9106 76.2946 91.2884 76.8432 90.6596C76.7281 91.2549 76.7243 91.8134 76.8278 92.3834C76.6591 94.1776 77.6257 95.7789 79.3097 96.5306L79.3251 96.538L79.3543 96.5624L79.3864 96.5868C79.536 96.6948 79.7048 96.7949 79.8851 96.8843C79.9235 96.9141 79.9618 96.9401 80.0002 96.9662C81.1395 97.7146 82.4015 98.1543 83.7479 98.314C86.8376 99.1039 90.2065 98.2231 93.2812 97.094L93.664 96.9517L94.413 97.0869L95.3417 97.2451L95.5973 97.2864C95.6126 97.2901 95.6318 97.2938 95.6472 97.2938C97.5038 97.6032 99.3642 97.8486 101.259 97.9681C102.763 98.0617 104.233 97.4353 105.562 96.7928L105.855 96.6501C107.155 96.0168 108.429 95.2837 109.775 94.7323C110.097 94.9222 110.431 95.0935 110.765 95.2387C111.474 95.5481 112.215 95.745 112.97 95.8571C114.877 96.4156 116.922 96.3001 118.832 95.7268C119.338 95.8828 119.86 95.9907 120.385 95.9758C121.31 95.9535 122.085 95.611 122.737 95.0264C123.278 94.6988 123.723 94.2483 124.141 93.7457L124.368 93.4741C124.521 93.2932 124.675 93.1129 124.831 92.9344L125.219 92.6552L125.317 92.6124C125.712 92.4526 126.116 92.4283 126.523 92.5245C127.689 92.927 128.779 93.679 130.002 93.8499C130.039 93.855 130.076 93.8588 130.111 93.8618L130.321 93.876C130.547 93.9657 130.773 94.0514 131.007 94.1068C131.899 94.3217 132.659 94.1051 133.464 93.8759C133.719 93.8032 133.979 93.7293 134.249 93.6675C135.307 93.4221 136.32 93.4888 137.317 93.6939C138.296 93.984 139.262 94.3488 140.237 94.6206C140.616 94.7252 140.988 94.8068 141.353 94.8663C141.944 95.0302 142.538 95.1683 143.148 95.2461C143.826 95.3355 144.512 95.3224 145.195 95.2945L145.707 95.2722C145.829 95.2387 145.887 95.1609 145.883 95.0376L145.818 94.796C145.994 94.7919 146.167 94.7919 146.351 94.7844C146.455 94.7658 146.516 94.7029 146.524 94.6132C148.315 94.904 150.118 95.0976 151.933 95.1791L152.268 95.1958C152.532 95.2093 152.784 95.223 153.03 95.2362C154.626 95.3226 155.898 95.3914 157.675 95.2722C157.672 95.2793 157.67 95.3791 157.67 95.5226L157.677 97.2441C157.68 97.5625 157.684 97.5485 157.689 97.5302C157.694 97.5124 157.7 97.4907 157.707 97.7604L157.717 98.381C157.598 98.4484 157.499 98.5671 157.502 98.7127C157.545 101.94 157.706 105.165 157.986 108.381C158.193 111.647 158.511 114.901 158.952 118.143C158.972 118.311 158.995 118.482 159.018 118.65C159.451 122.146 159.95 125.627 160.533 129.104C160.855 131.286 161.262 133.449 161.749 135.598L162.501 138.803L163.168 142.061L163.283 142.48C163.545 143.46 163.761 144.449 163.939 145.446L164.035 146.019C164.085 146.346 164.139 146.674 164.181 147.001C164.265 147.552 164.338 148.104 164.407 148.651C164.411 148.662 164.411 148.673 164.411 148.681C164.595 150.148 164.737 151.618 164.921 153.085L165.006 153.796C165.013 153.901 165.025 154.005 165.036 154.105L165.078 157.326C165.075 157.851 165.055 158.376 165.025 158.901C164.975 159.422 164.91 159.943 164.833 160.464C164.832 160.55 164.829 160.636 164.825 160.722L164.798 161.239C164.752 161.566 164.706 161.894 164.649 162.222C164.476 163.897 164.104 165.539 163.536 167.14C163.229 168.473 162.861 169.791 162.439 171.09C161.127 174.735 159.478 178.257 157.475 181.604C155.458 184.982 153.214 188.262 150.69 191.311L150.064 191.996C149.408 192.8 148.722 193.578 148.012 194.33C147.909 194.442 147.805 194.55 147.698 194.662C146.957 195.429 146.19 196.169 145.392 196.88C143.693 198.396 141.928 199.829 140.083 201.173C139.803 201.374 139.523 201.572 139.243 201.766C138.376 202.312 137.494 202.83 136.596 203.318C134.099 204.666 131.54 205.916 128.855 206.866C126.523 207.693 124.125 208.284 121.682 208.686C120.243 208.977 118.782 209.119 117.309 209.1C115.345 209.32 113.377 209.331 111.413 209.13L108.425 208.772L108.018 208.653C104.942 207.644 101.861 206.631 98.7812 205.619C97.9411 205.138 97.0972 204.662 96.2533 204.181C96.1778 204.134 96.1028 204.086 96.0281 204.037L95.5819 203.738C94.995 203.27 94.4196 202.785 93.8673 202.271C93.6525 202.093 93.3724 201.974 93.077 201.884C92.5899 201.482 92.1104 201.069 91.6462 200.637C91.4774 200.496 91.0171 200.347 90.6681 200.309C90.5261 200.209 90.2193 200.09 90.062 200.176C89.9469 200.239 89.8126 200.548 89.9392 200.656C90.0658 200.771 90.1962 200.883 90.3267 200.999C90.2499 200.976 90.1771 200.953 90.1003 200.935L89.9457 200.894C89.7388 200.845 89.5295 200.817 89.3178 200.805C89.0339 200.872 88.961 201.088 89.1912 201.281L89.3216 201.4L89.2489 201.384C89.0555 201.343 88.8703 201.326 88.7577 201.359C88.5276 201.423 88.4278 201.668 88.6235 201.836L88.681 201.881C88.6772 201.91 88.681 201.94 88.6964 201.952C88.7117 201.962 88.7232 201.974 88.7386 201.989C88.6657 201.981 88.6005 201.985 88.5506 202.011C88.4202 202.078 88.2706 202.361 88.4202 202.488C88.4585 202.525 88.5046 202.562 88.5468 202.599C88.5621 202.618 88.5774 202.636 88.5966 202.651C88.6849 202.733 88.7769 202.811 88.8652 202.89L88.7961 202.897C88.5698 202.957 88.4624 203.206 88.658 203.374C89.0646 203.753 89.4789 204.114 89.9047 204.468C91.2089 205.645 92.6091 206.709 94.1051 207.651C94.995 208.236 95.9233 208.757 96.8862 209.208C98.7581 210.094 100.63 210.88 102.594 211.564C104.984 212.395 107.512 212.975 110.082 213.311C114.068 213.977 118.172 214.063 122.135 213.493C124.152 213.203 126.147 212.823 128.107 212.272C131.249 211.389 134.195 210.083 137.095 208.631C139.466 207.447 141.733 206.062 143.881 204.52C147.648 201.914 151.085 198.824 154.1 195.451C156.432 192.841 158.473 190.034 160.375 187.118C162.405 184.009 164.188 180.856 165.665 177.46C166.617 175.268 167.453 173.026 168.136 170.741C168.987 168.693 169.582 166.582 169.908 164.396C170.272 162.802 170.502 161.194 170.598 159.571C170.771 158.011 170.825 156.443 170.767 154.872C170.779 153.703 170.564 152.557 170.123 151.428C169.996 149.664 169.777 147.914 169.459 146.179C169.24 144.473 168.845 142.802 168.281 141.167C167.883 139.019 167.411 136.886 166.862 134.767C165.776 129.92 165.066 124.957 164.435 120.03L164.238 118.475C163.667 114.197 163.252 109.9 162.992 105.593C162.598 101.386 162.148 100.611 161.645 96.6945L161.58 96.1769C161.887 96.2294 162.186 96.1694 162.554 95.9796C162.723 95.8902 162.715 95.7822 162.635 95.6817C162.823 95.6594 163.022 95.5998 163.245 95.4956C163.475 95.3917 163.398 95.2461 163.245 95.1232C163.348 95.1456 163.456 95.1716 163.575 95.2014L163.694 95.2314C164.638 95.4595 165.433 95.4154 166.298 94.9222C166.659 94.7178 166.996 94.4609 167.311 94.1738C168.78 93.1611 169.747 91.5755 170.138 89.8662C170.146 89.8554 170.153 89.8438 170.157 89.8289C171.017 88.0604 171.04 85.9867 170.871 84.0845C170.756 82.7773 170.51 81.5379 170.054 80.3052C169.778 79.566 169.629 79.2281 169.319 78.6167L169.032 78.0567L168.891 77.7775C168.239 76.4629 167.652 75.1374 166.854 73.8976C166.084 72.7034 165.026 71.6483 163.989 70.6446L163.371 70.0479L163.01 69.7061C163.152 69.38 163.198 68.9972 163.1 68.5683C162.482 65.843 161.827 63.0804 160.998 60.38C160.884 59.4317 160.707 58.4935 160.46 57.5679C160.184 56.3918 159.85 55.2302 159.416 54.098C159.362 53.9678 159.306 53.8375 159.249 53.7073L158.91 52.9289C158.365 51.4363 157.487 50.1291 156.279 49.0088C156.164 48.8558 156.029 48.7627 155.845 48.8409C155.792 48.8673 155.742 48.9157 155.707 48.9675C155.585 48.8335 155.455 48.705 155.325 48.5758C154.783 47.8576 154.2 47.1621 153.575 46.4912C154.432 44.6382 155.151 42.726 155.765 40.7617C155.868 40.4676 155.976 40.1738 156.072 39.8756C156.313 39.0941 156.555 38.3122 156.8 37.53C156.954 36.4168 157.107 35.2998 157.257 34.1829C157.456 33.0324 157.522 31.8708 157.456 30.698C157.288 29.1492 157.103 27.6008 156.908 26.0553C156.878 25.7889 156.697 25.5446 156.515 25.3325L156.355 25.1506C156.323 25.1138 156.284 25.0659 156.241 25.0125C156.052 24.7793 155.778 24.4409 155.534 24.4618C155.435 24.4659 155.335 24.4729 155.235 24.4808C155.155 24.3877 155.04 24.235 154.913 24.0969L154.894 23.9592C154.879 23.8251 154.633 23.442 154.464 23.4569L153.904 23.5012C153.674 23.5161 153.44 23.5351 153.21 23.5533L153.225 23.5571C153.158 23.5626 153.091 23.5682 153.025 23.5738C152.794 23.4819 152.509 23.508 152.169 23.6508C151.984 23.6685 151.799 23.687 151.614 23.7064L151.645 23.6948C150.881 23.7804 150.122 23.881 149.366 24.0076C147.705 24.235 146.067 24.5441 144.41 24.9946C142.565 25.4968 140.329 26.2601 138.568 27.001C136.861 27.7199 135.206 28.5286 133.608 29.4206C131.594 27.4757 129.434 25.8449 127.002 24.5712C126.729 24.2816 126.453 23.9938 126.166 23.7097C125.111 22.6602 124.003 21.6586 122.829 20.7386C121.716 19.8079 120.543 18.9445 119.304 18.1734C118.783 17.8517 118.247 17.5381 117.71 17.2285L116.641 16.6134C115.387 15.7757 114.056 15.0832 112.648 14.5396C111.751 14.1077 110.818 13.7578 109.859 13.4826C105.076 11.9003 100.135 11.0361 95.0833 10.8764C93.2497 10.8165 91.4199 10.8541 89.5901 10.9617C87.9599 11.0253 86.3296 11.1557 84.7069 11.3377C84.6341 11.0808 84.5535 10.8243 84.4614 10.5748C83.7978 8.79481 82.7468 7.17897 81.4157 5.79805C80.7712 5.13124 80.1613 4.52474 79.4632 3.97372C78.4006 2.86385 77.1347 1.94088 75.6809 1.35598C74.4534 0.864894 73.1376 0.656026 71.8257 0.696981C70.7286 0.69363 69.6392 0.864894 68.6035 1.1996C68.5651 1.20705 68.5268 1.2145 68.4884 1.22567L68.2889 1.27805C66.8304 1.6759 65.4745 2.37516 64.3187 3.33706C64.0425 3.53029 63.7778 3.73506 63.5247 3.95138C63.4364 4.02956 63.3559 4.10738 63.2715 4.18556C62.792 3.67959 62.2588 3.20265 61.6834 2.78194C61.6527 2.7488 61.6259 2.7112 61.5913 2.67769C60.3638 1.39321 58.7796 0.481039 57.0035 0.150052C56.6544 0.0826629 56.3053 0.0495269 55.9563 0.0346344ZM152.169 23.6508C152.007 23.7192 151.832 23.8143 151.644 23.936C152.166 23.8356 152.688 23.7485 153.209 23.6815C153.152 23.636 153.091 23.6001 153.025 23.5738C152.738 23.5981 152.454 23.6235 152.169 23.6508L152.169 23.6508ZM149.795 29.5252C150.585 29.2981 151.379 29.1157 152.181 28.9742C152.261 29.6742 152.334 30.3782 152.372 31.0815L152.377 31.1496L152.38 31.29C152.353 31.618 152.323 31.9453 152.277 32.2729C152.138 34.2797 151.95 36.1673 151.406 38.1071C150.811 40.2293 150.025 42.2844 149.074 44.2618C147.999 46.3687 146.722 48.3792 145.253 50.252C143.665 52.274 141.873 54.1464 139.894 55.8143C139.564 56.0787 139.23 56.3393 138.893 56.5928C137.784 57.419 136.626 58.1823 135.421 58.8785C132.441 58.536 129.433 58.4429 126.46 58.5959C126.031 58.6179 125.605 58.6477 125.175 58.6815C125.164 58.581 125.148 58.4764 125.129 58.3759C124.961 57.2626 124.657 56.1126 124.247 55.0515L124.301 55.0399C124.356 55.0263 124.41 55.0114 124.465 54.9959L124.792 54.9025C124.953 55.1669 125.344 55.4312 125.524 55.375C127.715 54.8579 129.794 54.0682 131.762 53.0112C134.389 51.8012 137.078 50.736 139.833 49.8275C140.04 49.7534 140.055 49.6265 139.994 49.4924L140.466 49.3286L140.511 49.3103C140.857 49.1507 140.5 48.7989 140.315 48.6172C140.306 48.6082 140.297 48.5996 140.289 48.5914L140.142 48.454C140.043 48.3627 139.943 48.2726 139.84 48.186C140.009 48.1261 140.178 48.0665 140.35 48.0106C140.504 47.9548 140.546 47.8729 140.531 47.7761L141.026 47.6126C141.421 47.4745 141.098 47.1208 140.934 46.9495L140.717 46.727C140.423 46.4333 139.961 46.0186 139.687 46.1007L139.595 46.1267L139.513 46.0466C139.4 45.9376 139.27 45.8214 139.138 45.7172C139.357 45.4603 138.808 44.9093 138.486 45.0098L138.306 45.0619C138.321 44.9949 138.302 44.9539 138.202 44.9874C137.857 45.0921 137.512 45.2075 137.167 45.3155C134.857 46.0154 132.609 46.7708 130.404 47.7649C129.479 48.1335 128.597 48.5803 127.757 49.1093C126.46 49.7717 125.26 50.5837 124.159 51.5402L124.139 51.5574C124.057 51.6356 123.88 51.8703 123.824 51.9407L123.806 51.9609L124.608 51.704L124.497 51.7953L124.389 51.8868C124.032 52.1545 123.675 52.43 123.33 52.713C123.277 52.7539 123.234 52.7874 123.2 52.825C122.459 51.5029 121.535 50.2743 120.476 49.1648L120.422 49.1082C120.386 49.0699 120.348 49.0309 120.307 48.9939L120.457 49.0386C120.538 49.0606 120.637 48.9898 120.706 48.9008C120.967 49.1019 121.282 49.2616 121.673 49.3662C121.884 49.4217 122.038 49.1801 122.022 49.0088C122.014 48.9157 121.93 48.8078 121.823 48.7069C121.984 48.7813 122.149 48.8483 122.318 48.893C122.544 48.9526 122.72 48.737 122.667 48.536C122.598 48.275 122.122 47.8919 121.869 47.8062C121.846 47.8021 121.827 47.7947 121.807 47.7872C121.807 47.6756 121.83 47.5601 121.861 47.4447C121.965 47.4857 122.068 47.5229 122.172 47.5493C122.398 47.6126 122.54 47.3665 122.517 47.1878C122.509 47.1323 122.475 47.0691 122.425 47.0058C122.54 47.0501 122.655 47.091 122.778 47.1245C123.138 47.2213 123.2 46.5586 122.835 46.4395L122.402 46.2946C122.521 46.0932 122.651 45.8922 122.801 45.7097C123.537 44.8162 124.473 44.0682 125.287 43.2413C125.95 42.538 126.618 41.8377 127.281 41.1377C127.914 40.5011 128.582 39.8979 129.268 39.3212C129.456 39.1723 129.644 39.023 129.84 38.8781C132.905 36.473 136.273 34.477 139.863 32.8988C141.712 32.0868 143.569 31.3198 145.483 30.6608C146.872 30.1213 148.31 29.7416 149.795 29.5252ZM52.976 44.1572C56.5972 43.8705 60.2183 43.837 63.8395 44.1687C66.2178 44.3474 68.5616 44.738 70.867 45.3411C71.3158 45.4156 71.757 45.505 72.1981 45.5947C73.0804 45.8292 73.9588 46.075 74.8296 46.3464C76.575 46.8531 78.2781 47.4596 79.9429 48.1744C82.9158 49.3361 85.7353 50.7922 88.4013 52.5383C88.5087 52.6013 88.6736 52.4858 88.7542 52.3369L89.1263 52.5532C89.0764 52.6687 89.0304 52.7837 88.9882 52.9032C88.7158 53.5172 88.4857 54.143 88.3016 54.7797C87.9371 54.6266 87.5689 54.4855 87.1968 54.3511L86.8558 54.226C85.375 53.6944 83.8548 53.3003 82.2982 53.041C81.6768 52.9255 81.0515 52.8399 80.4263 52.7725C80.1002 52.7319 79.7742 52.6981 79.4481 52.6687C77.7449 52.5566 76.0494 52.605 74.3578 52.8135C74.3041 52.8176 74.258 52.8656 74.212 52.933C73.5292 53.0369 72.8464 53.1597 72.1712 53.3161C72.1022 53.331 72.0408 53.3794 71.9871 53.4427C70.9054 53.6776 69.8697 53.9825 68.7572 54.3217C68.6728 54.3474 68.4273 54.6266 68.3813 54.7532L68.0783 54.8426L68.0554 54.8533C67.9236 54.9308 67.6484 55.3228 67.7062 55.3154L68.3391 55.2376C68.3238 55.2782 68.3238 55.3232 68.3353 55.3713C68.1818 55.4271 68.0322 55.4759 67.8788 55.5351L67.8348 55.5515C67.5069 55.695 67.7402 56.1341 68.0054 56.2946L67.8546 56.3487C67.5406 56.4835 67.4389 57.0562 67.8865 57.002C68.2394 56.9611 68.5961 56.9164 68.9529 56.8721C69.0181 56.894 69.0756 56.9056 69.1216 56.9015L69.2597 56.8866L69.0181 56.9699C68.857 57.0264 68.6958 57.0852 68.5347 57.1472C68.0898 57.2813 68.4427 57.9369 68.7802 57.8959L69.4285 57.8099C69.582 58.0259 69.8351 58.212 69.9771 58.1971C71.4923 57.9961 73.0113 57.8285 74.5342 57.6982C75.8768 57.553 77.2232 57.46 78.5697 57.4116C80.8137 57.6759 83.0539 57.9443 85.298 58.212C86.0882 58.4395 86.8631 58.7072 87.6264 59.0129C87.6149 59.2806 87.6111 59.5486 87.6111 59.8167C87.6111 60.1 87.6302 60.4236 87.6571 60.7698C87.6686 61.526 87.73 62.2926 87.8374 63.0112L88.2287 64.9401C88.5355 66.0902 88.9652 67.196 89.5214 68.2533L89.4293 68.2612C89.272 68.1197 89.0611 67.9369 88.8424 67.8107C89.1148 67.5981 88.6928 67.0135 88.3322 67.0511L88.0829 67.0735C88.0829 67.021 88.0522 66.9878 87.9755 66.9949C83.927 67.4026 79.8762 67.8386 75.8246 68.234C72.9615 68.7333 70.053 69.0881 67.1852 68.8196L66.7779 68.8196C66.7693 68.8124 66.7609 68.8063 66.7526 68.8006L66.7027 68.7682C66.3302 68.7239 65.9581 68.6722 65.5868 68.6048C64.7663 68.4551 64.0014 68.228 63.2806 67.9439L62.8613 68.164C62.8805 68.1268 62.892 68.0899 62.8843 68.0635C62.8652 67.9968 62.7999 67.9037 62.7079 67.9518C62.6516 67.9791 62.5962 68.0072 62.5412 68.0357L62.213 68.2087L61.7757 68.1197L61.5419 68.0614C61.3862 68.0213 61.231 67.9791 61.0776 67.9369L58.2006 66.865L57.8914 66.7146C57.0712 66.3066 56.2843 65.8412 55.5308 65.3083C54.5909 64.8281 53.7317 64.2472 52.9338 63.5845C52.6845 63.3354 52.439 63.0786 52.2088 62.8064C51.3342 62.0323 50.5363 61.1905 49.8113 60.2821C48.7372 59.0129 47.7514 57.6908 46.8423 56.3021C45.0809 53.6059 43.5859 50.7701 42.1265 47.9156L41.2532 46.2016C42.78 45.7395 44.3335 45.3672 45.9178 45.1029C48.2577 44.7008 50.6092 44.3847 52.976 44.1572ZM110.599 47.4782C108.857 47.1398 107.108 47.091 105.351 47.3442C104.615 47.4488 103.882 47.5747 103.156 47.727C104.806 49.1231 106.133 50.9099 106.994 52.9662C107.924 55.1889 104.212 56.1468 103.295 53.9561C102.41 51.8429 100.735 50.2218 98.7111 49.2501C98.2738 49.4873 97.8499 49.7442 97.4452 50.0286C96.9158 50.4456 96.4172 50.8961 95.9492 51.3913C94.9288 52.4676 93.9928 53.9044 93.3791 55.3266C93.1412 56.101 92.9648 56.8978 92.8535 57.7169C92.8305 57.903 92.8075 58.0929 92.7883 58.2828C92.4101 62.1359 93.5452 65.8847 95.4981 69.202L95.5748 69.2031C97.3179 68.2858 99.1426 67.5128 101.02 66.8833C102.524 65.9007 104.085 64.9919 105.693 64.1691C109.109 62.4195 112.718 61.0707 116.437 60.1484L116.867 60.0438C117.743 59.8267 118.627 59.6353 119.514 59.4679L120.047 59.3703L120.054 59.3703L119.997 58.8152C119.698 56.6372 118.819 54.6155 117.684 52.7469C116.832 51.3358 115.547 49.8912 114.12 48.737L114.113 48.7329C113.465 48.3755 112.784 48.0799 112.082 47.8356L111.819 47.7463L110.599 47.4782ZM151.688 50.0785C151.364 50.6213 151.027 51.1589 150.67 51.6891C148.936 54.2651 146.857 56.6826 144.499 58.7902C145.114 58.7887 145.727 58.8114 146.333 58.8666C147.378 58.9622 148.401 59.1305 149.398 59.3662C149.479 59.3033 149.57 59.2716 149.642 59.3215L149.902 59.4961C152.041 60.0565 154.05 60.9374 155.869 62.1176L155.837 61.8845C155.831 61.8457 155.825 61.8068 155.818 61.768C155.849 61.31 155.856 60.8517 155.841 60.3975C155.465 57.7131 154.525 55.241 153.451 52.7394C153.431 52.691 153.445 52.6281 153.477 52.564C152.935 51.7047 152.341 50.8737 151.688 50.0785ZM124.173 53.9081C124.054 53.9547 123.929 54.0013 123.805 54.042C123.877 54.2226 123.945 54.3979 124.012 54.5778L124.02 54.5743L124.51 54.141C124.406 54.0886 124.287 54.0077 124.173 53.9081ZM76.6425 73.0041C78.9483 72.7736 81.2541 72.5379 83.56 72.2985C85.71 72.5011 87.8632 72.6575 90.0194 72.7628C89.8728 72.8753 89.7228 72.9832 89.5775 73.0972C89.378 73.1943 89.1785 73.2908 88.979 73.3913C88.9368 73.328 88.8563 73.2539 88.7834 73.2982C88.7041 73.3429 88.6253 73.3888 88.5467 73.4353L88.0776 73.7152C87.9126 73.5815 87.7132 73.5034 87.6019 73.5741C84.6942 75.3757 81.9017 77.2116 79.3315 79.4455C78.8827 79.8212 78.4416 80.2009 78.0043 80.5922C75.2923 83.0417 72.7797 85.6892 70.4014 88.4402C68.0192 91.1953 65.7867 94.0957 63.6616 97.0407C61.1643 100.499 58.8819 104.096 56.4691 107.614C53.1625 112.432 49.8751 117.276 47.5811 122.649C46.7756 124.532 46.112 126.458 45.6133 128.43C45.4253 129.134 45.2527 129.838 45.1031 130.553C44.9573 131.424 44.8231 132.295 44.708 133.17C44.5354 134.845 44.5392 136.521 44.7195 138.196C44.7233 138.286 44.7809 138.353 44.8576 138.401C44.8691 138.55 44.8768 138.695 44.8921 138.844C44.6236 138.818 44.3589 138.799 44.0904 138.792L43.8315 138.782C43.2272 138.765 42.6227 138.792 42.0151 138.87C41.1137 138.986 40.2314 139.224 39.3875 139.555C39.2839 139.585 39.1804 139.619 39.0806 139.66C38.9042 139.619 38.7277 139.574 38.5551 139.526C37.6383 139.242 36.756 138.896 35.9083 138.49C36.0479 137.649 36.0772 134.123 36.1523 132.806L36.1691 132.559C36.5719 128.903 37.5232 125.314 38.7968 121.855C38.9118 121.539 39.0307 121.223 39.1535 120.906C40.0243 118.828 41.0063 116.807 42.1647 114.841C42.9434 113.452 43.8142 112.119 44.777 110.839C46.0429 109.123 47.4239 107.503 48.9199 105.973C49.0005 105.883 48.801 105.679 48.4941 105.47C48.8432 105.087 49.1961 104.71 49.5605 104.342C49.7331 104.152 48.7358 103.511 48.0261 103.359C47.8228 103.217 47.562 103.073 47.2973 102.964C47.3318 102.931 47.3663 102.894 47.4009 102.856C47.5965 102.644 47.5236 102.476 47.2934 102.328C47.1592 102.246 46.718 101.992 46.4764 102.045C46.3882 101.925 46.2309 101.881 46.089 102.03C45.9432 102.175 45.8051 102.324 45.6632 102.469C45.5135 102.432 45.3793 102.424 45.3141 102.495L44.8423 103.002C44.7924 103.009 44.7464 103.02 44.7195 103.054C42.4486 105.474 40.335 107.886 38.5091 110.657C36.4338 113.806 34.7843 117.164 33.4878 120.679C33.0501 121.862 32.6607 123.058 32.3155 124.264C33.1464 124.395 33.8311 125.06 33.4237 126.019C32.8705 127.321 32.0539 128.373 31.0991 129.376C30.8954 130.504 30.3154 130.515 30.1815 130.26C29.6054 130.639 28.6663 130.669 28.2079 130.107C26.0605 127.477 25.2738 124.656 25.8653 121.338C26.466 117.97 28.1285 114.885 28.697 111.502C28.7722 111.055 28.9977 110.763 29.2897 110.596C32.5077 102.344 37.626 94.8939 43.9101 88.5258C47.5083 84.8809 51.5054 81.5788 55.5907 78.4622L61.6822 73.939C62.2308 73.6072 62.7678 73.261 63.2856 72.8924C64.0452 73.0748 64.8124 73.2241 65.5949 73.328C67.8006 73.6221 70.014 73.5964 72.2273 73.436C73.7003 73.3131 75.1733 73.1679 76.6425 73.0041ZM47.1232 153.495C47.1911 153.491 50.7439 154.784 52.514 155.62L52.601 155.662C54.6417 156.645 55.6237 157.352 57.4573 158.614C57.5801 158.7 57.7067 158.83 57.7067 158.957C57.7067 160.795 57.2464 163.043 55.6544 162.047C55.4243 161.903 55.1924 161.762 54.9588 161.624L54.6072 161.418L54.6001 161.42C54.6024 161.418 54.6048 161.416 54.6072 161.414C51.1395 159.362 47.4761 157.754 43.6094 156.604C43.3448 156.51 45.3049 153.636 45.8458 153.796C45.5351 153.677 47.0715 153.498 47.1232 153.495ZM54.6001 161.42C54.5986 161.421 54.5972 161.421 54.5957 161.421L54.6001 161.42Z" transform="translate(-11.50893 -24.57271)" id="ðŸ–-Ink" fill="#000000" fill-rule="evenodd" stroke="none" />
  </g>
</svg>
