<?xml version="1.0" encoding="utf-8"?>
<svg width="182px" height="212px" viewBox="0 0 182 212" version="1.1" xmlns:xlink="http://www.w3.org/1999/xlink" xmlns="http://www.w3.org/2000/svg">
  <desc>Created with Lunacy</desc>
  <defs>
    <rect width="181.825485" height="211.10199" id="artboard_1" />
    <clipPath id="clip_1">
      <use xlink:href="#artboard_1" clip-rule="evenodd" />
    </clipPath>
  </defs>
  <g id="head/hat-beanie" clip-path="url(#clip_1)">
    <use xlink:href="#artboard_1" stroke="none" fill="#FFFFFF" />
    <path d="M96.9711 0C114.145 0 134.751 8.08091 136.503 8.24253L136.551 8.24499C137.472 8.24499 141.074 10.9082 147.356 16.2347L140.552 29.1145L141.103 29.6248C143.737 32.0766 145.987 34.3114 147.762 36.0731C162.259 50.4572 164.865 106.933 161.448 126.628C158.032 146.323 151.704 165.595 122.244 165.595C92.7844 165.595 60.0097 148.403 54.961 143.049C51.5952 139.48 47.8145 137.77 43.6189 137.919C43.4465 137.708 43.2754 137.497 43.1058 137.287L42.4885 137.203C36.6819 136.386 32.5213 135.288 30.007 133.907C25.0957 131.21 19.6976 117.033 19.6976 113.91C19.6976 110.818 11.6372 88.3254 11.476 85.9452L11.4735 85.8793C11.4735 83.8895 0.943347 74.7427 0.943347 71.8378C0.943347 68.933 -1.17918 69.1092 0.943347 58.8729L1.56 55.8658C3.81871 44.9672 8.23961 26.9207 25.0957 19.0789C43.6189 10.4616 79.6233 0 96.9711 0Z" transform="translate(-3.066239 21.85712)" id="âœ‹-Skin" fill="#D08B5B" stroke="none" />
    <path d="M48.2069 89.0995C48.2069 89.0995 40.4705 92.6556 32.7341 98.4605C24.9977 104.265 28.8175 104.457 28.8175 104.457C28.8175 104.457 28.4847 116.897 30.8688 121.832C33.2528 126.767 47.3728 127.64 47.3728 127.64L49.7642 135.413L49.4335 139.015C47.593 138.212 45.6548 137.847 43.6189 137.919C43.4465 137.708 43.2754 137.497 43.1058 137.287L42.4885 137.203C36.6819 136.386 32.5213 135.288 30.007 133.907C25.0957 131.21 19.6976 117.033 19.6976 113.91C19.6976 110.818 11.6372 88.3254 11.476 85.9452L11.4735 85.8793C11.4735 83.8895 0.943347 74.7427 0.943347 71.8378C0.943347 70.9902 0.762615 70.4049 0.559365 69.7467C0.0660868 68.1492 -0.559821 66.1222 0.943347 58.8729L1.56 55.8658C3.81871 44.9672 8.23961 26.9207 25.0957 19.0789C43.6189 10.4616 79.6233 0 96.9711 0C114.145 0 134.751 8.08091 136.503 8.24253L136.551 8.24499Q137.933 8.24499 147.356 16.2347L145.76 19.2559C125.014 19.8441 90.8992 21.6404 76.0074 27.1257C53.8646 35.282 48.2069 89.0995 48.2069 89.0995Z" transform="translate(-3.069049 21.96659)" id="ðŸ§¢-Hat" fill="#9DDADB" fill-rule="evenodd" stroke="none" />
    <path d="M113.143 0.42621C86.6089 -2.6942 34.1627 12.0264 24.9246 21.5434C12.7496 31.2373 3.47726 53.8546 0.646692 63.8494C-0.0134798 66.7036 -0.309234 69.8786 0.447605 72.9599C1.08849 76.9594 3.3948 81.0906 5.84745 84.5111C5.83872 84.497 5.85098 84.4674 5.87335 84.4271L5.90582 84.3713C6.9366 85.7429 8.20203 87.4578 9.35546 88.9863L9.84192 89.6284C9.84001 89.64 9.83402 89.6609 9.827 89.6854C9.7992 89.7825 9.75535 89.9357 9.8861 89.7825L9.93782 89.7178C10.0376 89.7997 10.168 89.8816 10.3134 89.9598L10.5934 90.3358C10.8201 90.5071 11.0618 90.6485 11.3188 90.7677C11.5681 90.9017 11.8324 91.006 12.1048 91.0842C12.1201 91.0842 12.132 91.0842 12.1435 91.0804C11.809 103.61 14.7766 109.349 17.2884 114.207C18.6883 116.914 19.9467 119.348 20.4127 122.531C21.0391 129.136 23.462 135.263 29.626 138.577C36.5948 142.284 47.8607 146.809 53.4954 142.073C56.8645 146.375 61.1113 150.238 65.9623 153.279C66.6869 153.853 67.4464 154.363 68.2332 154.821C69.0691 155.405 69.9095 155.982 70.7419 156.57C71.6894 157.081 72.6791 157.512 73.7033 157.866C73.8107 157.915 73.864 157.896 73.8913 157.844C74.2135 157.97 74.5353 158.086 74.8695 158.186C75.26 158.352 75.0401 157.856 74.8853 157.561L74.823 157.445C75.0421 157.524 75.2607 157.598 75.4832 157.669C75.629 157.687 75.7092 157.628 75.7172 157.486C75.6708 157.233 75.5561 157.01 75.3678 156.82C75.1913 156.578 74.9922 156.291 74.7736 156.027C74.9577 156.098 75.1453 156.172 75.3336 156.239L75.3744 156.254C75.7178 156.364 75.4198 155.693 75.3758 155.628C75.3678 155.621 75.3643 155.614 75.3566 155.602C75.4909 155.651 75.6248 155.703 75.7594 155.748C76.0663 155.882 76.2274 155.751 76.1545 155.439C76.0084 155.182 75.8361 154.94 75.6401 154.72C75.4564 154.485 75.2492 154.273 75.0191 154.083L74.2365 153.719L74.1844 153.671L74.1329 153.625C74.156 153.588 74.1709 153.551 74.1709 153.521C71.9211 151.721 68.2347 150.415 65.8315 148.383C65.1836 147.944 64.5583 147.479 63.9404 147.006C58.2903 141.892 53.9185 135.4 50.534 128.49C50.0875 128.142 49.7112 128.666 50.1845 129.306C50.098 129.263 50.0146 129.048 49.9154 128.792C49.6979 128.231 49.4046 127.474 48.8362 127.902C48.8329 127.924 48.8298 127.945 48.827 127.963C48.8111 128.068 48.8049 128.109 48.8146 128.146C48.8312 128.208 48.8941 128.258 49.0337 128.598C49.0336 128.639 49.0332 128.673 49.0329 128.702C49.0317 128.807 49.0312 128.852 49.0421 128.894C49.0635 128.976 49.1286 129.046 49.3182 129.536L49.3832 129.708C49.3257 129.715 49.2605 129.734 49.2025 129.768C49.3517 129.66 47.4629 127.039 47.7986 128.848C47.7826 128.843 47.7779 128.841 47.7731 128.841C47.7706 128.84 47.7681 128.841 47.7642 128.842C47.7587 128.842 47.7504 128.844 47.7354 128.845L47.6758 128.848C47.6862 128.662 46.7076 128.302 47.0548 129.187C47.0204 129.179 46.9963 129.152 46.967 129.118C46.8875 129.028 46.7691 128.893 46.2991 128.986C31.272 131.834 27.4886 102.37 42.1524 99.2862C42.2483 99.3532 42.4013 99.3421 42.4435 99.2155C45.8921 98.2758 50.7845 98.8264 53.1616 102.373C53.0439 102.724 55.0324 104.076 53.8022 102.146C53.8982 102.239 53.994 102.306 54.09 102.332C54.2488 103.04 56.0436 104.427 54.8226 102.224C54.8341 102.224 54.8495 102.22 54.8648 102.216C55.0152 102.881 56.9251 103.792 55.5549 101.896C61.6442 99.9413 60.6803 94.3923 59.7655 89.1264C59.4601 87.3687 59.1603 85.6425 59.13 84.0921C60.7603 75.8736 60.8221 70.8448 69.2881 65.2679C75.2251 60.012 75.2565 50.5719 82.192 45.7847C89.2604 40.5264 98.3189 39.651 107.078 39.1044L110.308 38.9092C120.648 38.3463 130.729 37.7524 141.04 37.2066C141.746 37.4337 142.451 37.6273 143.165 37.8023C145.244 38.3906 147.354 38.7703 149.491 38.9379C150.254 40.0399 150.964 41.1718 151.627 42.3334C152.59 43.8822 153.465 45.4832 154.247 47.1288C162.29 64.2126 163.926 83.6099 164.121 102.482L164.131 103.637C164.798 162.658 123.605 181.452 95.2189 160.271C94.9736 160.187 94.6946 159.871 94.3879 159.524C93.885 158.956 93.3079 158.304 92.6834 158.447C92.5706 157.99 90.9637 157.295 91.8245 158.466C91.8077 158.492 91.7919 158.516 91.7773 158.538C91.6194 158.78 91.5989 158.811 91.9697 159.164L92.3845 159.553C92.3573 159.605 92.35 159.653 92.3573 159.702C91.9123 159.292 91.4754 158.871 91.0454 158.432L90.9174 158.372C89.9503 157.936 90.3381 158.618 90.9849 159.288L91.0071 159.31L90.9352 159.254C90.7954 159.148 90.6157 159.028 90.3779 158.89C90.3246 158.834 90.2705 158.786 90.221 158.73C89.0982 158.536 90.084 159.527 90.845 160.21L91.2491 160.565C91.241 160.614 91.2449 160.658 91.2644 160.703C90.8348 160.301 90.4128 159.891 90.0024 159.471C89.0319 159.807 90.7911 161.256 92.2252 162.436C92.8286 162.933 93.3744 163.383 93.6347 163.682C109.119 176.596 130.704 176.246 144.483 165.83C167.292 149.393 170.164 119.031 169.016 93.6122C168.67 80.2331 166.313 66.5863 162.525 53.473C160.357 48.2625 157.679 42.7842 154.297 37.9401C154.7 36.9944 155.014 36.0822 155.149 35.0919C156.219 32.2247 155.628 28.6281 154.045 25.717C157.453 19.1978 148.912 14.6336 142.991 11.4692C141.493 10.669 140.163 9.95831 139.236 9.32813C133.736 5.51154 126.86 3.22665 120.203 1.71766C118.143 1.18153 116.056 0.786873 113.939 0.526253L113.143 0.42621ZM60.1623 12.4515C77.3329 7.79426 95.031 3.94676 113.025 5.44831C114.456 5.47809 115.864 5.66053 117.252 5.99188C123.956 7.36312 130.894 9.30734 136.947 12.9005C139.984 13.9709 142.934 15.2305 145.533 17.1215C141.912 16.3947 138.464 14.8302 134.846 14.5182C134.504 14.4062 134.163 14.2952 133.821 14.1854C110.369 11.9355 76.6608 18.3162 64.3136 33.0379C50.6537 49.0425 42.4228 77.3786 42.0634 94.1744C24.5414 96.6961 23.0722 123.372 37.2876 131.208C38.5347 132.196 40.4615 133.192 42.2816 133.584C42.4662 133.621 42.6541 133.651 42.8417 133.681C43.4075 133.846 44.0401 134.023 45.0439 134.083L45.2346 134.097C46.1232 134.149 46.9912 134.037 47.8365 133.755C48.074 133.703 48.0628 133.55 47.9781 133.398C48.1089 133.364 48.2355 133.334 48.3617 133.293C48.6728 133.926 48.9988 134.552 49.336 135.17C49.3517 135.196 49.3671 135.218 49.3782 135.241C48.9613 135.436 49.0483 135.658 49.335 136.115L49.616 136.559C46.4788 137.214 42.9808 136.288 39.7778 135.115L39.3617 134.961C29.2087 131.689 28.509 127.573 27.6369 122.442C27.1883 119.804 26.6942 116.897 24.8452 113.699C15.9338 99.5257 16.5496 89.143 17.1936 78.2834C17.4564 73.8523 17.7239 69.342 17.3508 64.4623C16.4985 64.5896 16.7977 64.9094 16.4022 65.8856C14.5072 72.1342 13.2947 78.4334 12.5835 84.9224C5.74776 78.3924 3.42891 67.8474 7.96496 58.4956C13.1596 45.9088 19.1123 32.2761 30.6398 23.7066C38.8906 17.919 49.2144 15.4859 58.9778 12.782L60.1623 12.4515ZM85.6066 13.0731C82.8335 11.4163 74.8497 9.40542 80.9106 13.633C85.5498 17.4217 87.4966 14.6908 85.6066 13.0731ZM63.5612 18.0603C59.7488 14.0194 69.9519 17.8904 71.4803 18.965L71.5239 18.9967C72.6644 19.7759 72.4331 21.4543 71.3617 21.9473C69.1535 21.988 67.3678 20.7052 65.5976 19.4335C64.924 18.9497 64.2527 18.4674 63.5612 18.0603ZM53.9448 28.1774C51.4767 27.3815 45.84 25.5639 46.3384 27.3997C49.7985 29.2535 53.5865 30.9069 57.0416 33.0983C58.7267 34.101 61.4472 33.6412 60.1031 31.4214C58.9559 29.8149 56.7573 29.1715 54.8393 28.4778L54.539 28.3677C54.3727 28.3154 54.1722 28.2508 53.9448 28.1774ZM45.5762 46.7337L44.3192 45.9397C37.5357 41.6307 27.946 35.1015 44.9529 41.8567C46.8912 42.6635 49.4667 43.1408 50.5243 44.9324C52.1856 48.2345 47.8134 48.4564 45.5762 46.7337ZM39.1573 60.4457C39.9265 55.858 30.3123 52.394 27.0575 53.5511C25.563 54.1833 26.1691 55.6227 27.5769 56.3007C30.1634 57.6664 32.3361 59.0395 34.7453 60.6055L36.1296 61.5079C37.1902 62.1024 38.6993 61.4989 39.1573 60.4457ZM41.2624 107.667C41.8892 107.337 42.0513 107.438 42.1534 107.502C42.2047 107.535 42.2409 107.557 42.3134 107.511C49.0901 106.974 56.3972 112.733 60.1853 117.533C59.9115 117.809 59.2105 117.085 58.9846 116.851C58.9637 116.829 58.9468 116.812 58.9347 116.8C58.9156 116.818 58.8925 116.833 58.8695 116.841L58.975 116.985C60.5103 119.124 57.4667 116.607 57.1817 116.089C57.1318 116.115 57.082 116.13 57.0244 116.118C57.2657 116.348 58.0026 116.947 58.1292 117.373L58.3245 117.531C60.1667 119.062 60.0138 120.214 57.9224 118.04C57.9719 118.14 57.9911 118.233 57.9566 118.308L58.0286 118.354C59.057 119.052 59.9028 120.996 57.7533 119C57.9274 120.135 56.5394 118.679 55.8804 117.987C55.6928 117.79 55.5643 117.656 55.5476 117.66C51.4745 114.557 45.4777 111.539 40.3686 111.133L40.1927 111.114C39.2552 110.997 38.812 110.727 39.1411 110.132C37.9864 109.865 38.2569 109.313 38.8035 109.331C37.9891 108.811 38.7222 108.314 39.1948 108.508C38.966 107.894 39.5443 108 39.9481 108.074C40.1179 108.106 40.2567 108.131 40.2919 108.095C40.7497 107.41 40.9811 107.575 41.1176 107.673C41.1827 107.72 41.2262 107.751 41.2624 107.667ZM91.617 159.854L91.3436 159.633L91.584 159.906C91.71 160.047 91.839 160.173 92.0492 160.303C92.0355 160.259 92.0355 160.216 92.0416 160.167C91.9023 160.07 91.7598 159.965 91.617 159.854Z" transform="translate(-5.753999 18.98781)" id="ðŸ–-Ink" fill="#000000" fill-rule="evenodd" stroke="none" />
  </g>
</svg>