<?xml version="1.0" encoding="utf-8"?>
<svg width="182px" height="212px" viewBox="0 0 182 212" version="1.1" xmlns:xlink="http://www.w3.org/1999/xlink" xmlns="http://www.w3.org/2000/svg">
  <desc>Created with Lunacy</desc>
  <defs>
    <rect width="181.825485" height="211.10199" id="artboard_1" />
    <clipPath id="clip_1">
      <use xlink:href="#artboard_1" clip-rule="evenodd" />
    </clipPath>
  </defs>
  <g id="head/Medium-Straight" clip-path="url(#clip_1)">
    <use xlink:href="#artboard_1" stroke="none" fill="#FFFFFF" />
    <path d="M117.871 80.3509C117.225 51.0941 109.715 18.705 83.9693 0.625407C82.3294 -0.52765 79.8683 0.0308214 78.5092 1.3477C77.3933 1.55917 76.3683 2.21519 75.6867 3.42148C60.4628 30.39 44.4365 56.9323 27.6149 82.9913C16.8143 99.8408 3.69451 116.711 1.96371 137.135C1.66412 137.521 -1.11658 140.568 0.503738 140.346C1.22298 139.981 1.95527 139.681 2.72554 139.459C4.78239 142.369 9.55857 141.911 10.694 138.627C14.6305 138.736 18.5263 139.713 22.2768 140.845C31.4758 143.64 40.8253 146.402 50.2134 148.538C81.1414 156.505 114.374 146.369 116.845 111.372C120.165 106.832 118.369 86.5998 117.871 80.3509L117.871 80.3509Z" transform="translate(38.36124 34.25288)" id="âœ‹-Skin" fill="#D08B5B" stroke="none" />
    <path d="M181.802 170.877C177.425 150.936 174.618 130.738 172.105 110.514C170.889 100.718 169.918 90.8967 168.794 81.0937C167.743 71.9604 166.519 62.7978 164.064 53.9069C161.782 45.6453 158.445 37.4655 153.527 30.3324C148.916 23.6453 143.12 17.9153 136.465 13.1311C123.315 3.67806 106.498 -1.3519 90.1416 0.316064C87.6708 0.569237 85.2234 0.975059 82.8029 1.51864C83.574 1.29897 84.3531 1.09383 85.1391 0.915489C85.3922 0.856291 85.2798 0.525304 85.0317 0.54727C18.4874 6.41531 2.83426 118.738 1.41111 141.386C1.29987 143.147 1.21203 144.904 1.14681 146.665C0.647753 150.593 0.275663 154.533 0.099208 158.482C-0.0998794 163.04 -0.00397988 167.627 0.429102 172.169C0.874076 176.826 1.38043 181.599 3.38319 185.881C4.61032 188.517 61.8432 184.906 62.4339 181.793C63.6307 175.508 64.2445 169.023 63.8689 162.63C63.6925 159.566 63.366 156.524 62.6909 153.523C62.5068 152.704 62.3111 151.166 61.8167 149.949C67.0371 140.321 72.7795 130.968 78.6908 121.724C90.9931 102.475 104.073 83.5841 114.128 63.0841C119.168 52.8123 124.136 41.9039 126.514 30.6485L126.898 30.7229C126.852 30.857 126.882 31.0245 127.02 31.1176C137.949 38.4484 145.253 49.5583 149.987 61.4541C155.499 75.3038 158.172 90.2596 157.789 105.1C157.179 128.682 147.969 157.827 121.911 165.281C115.965 166.982 109.544 167.463 103.452 166.219C100.579 165.631 97.7633 164.726 95.1701 163.386C92.2932 161.9 89.9302 159.797 87.2339 158.066C84.767 156.483 81.8555 159.57 83.2748 161.911C86.4088 167.087 93.1524 170.251 98.9447 171.808C105.125 173.472 111.642 173.55 117.937 172.493C118.416 172.414 118.892 172.325 119.364 172.228C119.471 173.762 120.15 175.289 121.255 176.529C121.75 177.087 122.36 177.571 123.042 177.977C123.131 179.474 124.125 180.978 125.739 181.306C134.366 183.048 170.194 178.479 178.81 175.988C181.123 175.319 182.293 173.118 181.802 170.877" transform="translate(-3.06905 15.63718)" id="ðŸ–-Ink" fill="#000000" stroke="none" />
  </g>
</svg>