<?xml version="1.0" encoding="utf-8"?>
<svg width="182px" height="212px" viewBox="0 0 182 212" version="1.1" xmlns:xlink="http://www.w3.org/1999/xlink" xmlns="http://www.w3.org/2000/svg">
  <desc>Created with Lunacy</desc>
  <defs>
    <rect width="181.825485" height="211.10199" id="artboard_1" />
    <clipPath id="clip_1">
      <use xlink:href="#artboard_1" clip-rule="evenodd" />
    </clipPath>
  </defs>
  <g id="head/Mohawk" clip-path="url(#clip_1)">
    <use xlink:href="#artboard_1" stroke="none" fill="#FFFFFF" />
    <path d="M133.163 93.283C133.361 83.9405 132.468 74.3661 127.79 66.0158C123.728 58.1786 117.702 51.385 111.517 45.0613C108.936 42.4227 105.489 39.764 105.812 35.7642C106.15 31.5671 108.752 22.4752 109.153 18.2401C109.942 9.91296 103.802 7.62137 96.623 3.66442C87.9652 -1.10828 77.6191 -0.556134 68.2348 1.58653C50.7347 5.63954 29.9394 12.3661 23.3262 30.3653C21.7366 34.8044 22.1332 39.4765 21.8167 44.0813C21.5202 48.3916 19.7422 52.4967 18.0383 56.4351C9.02988 75.9011 9.11121 97.3941 10.7469 118.288C5.93655 119.368 1.28542 123.015 0.225157 127.855C-1.55167 136.33 7.60558 140.247 13.0143 144.828C19.6107 150.414 24.4125 157.644 30.409 163.781C69.3188 205.421 155.177 186.256 137.328 121.398C134.906 112.181 132.802 102.857 133.163 93.283Z" transform="translate(17.64516 -2.978517)" id="âœ‹-Skin" fill="#D08B5B" stroke="none" />
    <path d="M46.4965 1.58653C55.787 -0.534707 66.02 -1.09707 74.6244 3.52283L75.5278 4.01625C82.4255 7.7643 88.1803 10.1628 87.4145 18.2401C87.0133 22.4752 84.4121 31.5671 84.0734 35.7642C84.0627 35.8968 84.0561 36.0279 84.0535 36.1576L80.0597 53.5256L58.3523 53.5256C47.9004 42.66 38.5571 37.2271 30.3225 37.2271C22.1963 37.2271 13.588 39.6556 4.49777 44.5124L4.1339 44.708L0 44.939C0.032389 44.654 0.0586774 44.3681 0.0784071 44.0813C0.394876 39.4766 -0.00176489 34.8044 1.58787 30.3653C8.2011 12.3661 28.9963 5.63954 46.4965 1.58653Z" transform="translate(39.38239 -2.978517)" id="ðŸ’ˆ-Hair" fill="#EC7495" stroke="none" />
    <path d="M58.1144 4.34601C67.778 0.700313 78.223 -0.841067 88.5548 0.450863C94.1139 1.14597 99.5035 2.59725 104.587 4.90039C107.039 6.01137 109.392 7.32862 111.598 8.85027L111.799 8.99002C113.545 10.2123 115.326 11.724 115.122 13.7529C115.257 14.1777 115.281 14.6446 115.174 15.1104C113.452 22.6125 111.644 30.0908 109.861 37.5784C109.486 39.1525 109.123 40.7293 108.763 42.3071C120.9 51.1772 132.309 63.3034 136.629 77.7131C139.357 86.8117 139.555 96.2227 139.753 105.632C139.862 110.81 139.971 115.988 140.502 121.113C140.856 124.533 141.455 127.926 142.394 131.244C143.404 134.805 145.091 138.172 145.943 141.773C147.66 149.019 145.17 156.132 141.231 162.275C133.929 173.664 122.896 183.275 110.068 188.378C103.504 190.988 96.2782 192.408 89.1774 192.297C82.2136 192.189 74.2858 190.8 68.4558 186.9C64.5151 184.264 67.8827 179.072 72.1223 180.812L73.2742 181.283C76.2139 182.478 79.1324 183.585 82.2845 184.22C85.8079 184.93 89.4283 185.081 93.0153 184.863C99.9715 184.44 106.567 182.193 112.571 178.818C117.989 175.772 122.817 171.839 127.127 167.445L127.607 166.953C131.688 162.751 135.797 157.962 138.092 152.616C139.273 149.865 139.913 146.84 139.402 143.873C138.812 140.452 137.242 137.23 136.327 133.887C134.587 127.537 134.001 120.915 133.801 114.363L133.787 113.86C133.716 111.272 133.697 108.679 133.679 106.086C133.601 95.2019 133.523 84.3242 129.561 73.9453C125.117 62.306 115.958 53.4021 108.467 43.6073C108.099 45.2279 107.732 46.8494 107.36 48.4689C106.916 50.4042 106.511 52.3518 106.027 54.2774L105.991 54.4178C106.136 54.8329 106.086 55.305 105.696 55.6021C105.653 55.6349 105.61 55.6632 105.566 55.6937C105.169 56.5843 104.553 57.2675 103.375 57.5512C102.247 57.8226 101.354 57.3598 100.853 56.5601L94.964 56.5891C94.0178 56.5938 93.0484 56.624 92.0684 56.6546C89.1757 56.7448 86.1916 56.8378 83.4449 56.286C82.8795 56.1721 82.9509 55.3925 83.4449 55.2424C86.9196 54.1888 90.9776 54.2141 94.585 53.8876L100.27 53.3727C100.521 53.3501 100.774 53.3209 101.028 53.2903L101.409 53.2439L103.385 44.7086C104.17 41.322 104.99 37.941 105.707 34.5407C106.999 28.4098 108.415 22.3068 109.83 16.2023C105.386 15.1446 100.849 14.671 96.2506 14.8594L95.7205 14.8822C93.939 14.9647 92.0286 15.1377 90.5392 16.1413C88.6914 17.3856 88.5579 19.9523 88.1486 21.9315C87.0254 27.3595 86.2214 32.8392 85.5167 38.3327C85.1761 40.9891 84.9187 43.6527 84.6168 46.3125C84.4795 47.5195 84.3955 48.7467 84.2102 49.9463C84.0338 51.0882 83.6118 52.1995 83.3736 53.328C83.784 55.0503 81.3252 56.6867 79.9526 55.1564C78.256 53.2647 76.7696 51.29 74.8738 49.5602C72.9719 47.8245 70.894 46.305 68.6542 45.0031C64.1024 42.3567 59.373 40.7289 54.2896 39.3532C54.1208 39.3078 54.0253 39.2061 53.9788 39.0885C48.9065 40.4854 43.9451 42.3783 39.3415 44.8113C28.669 50.4523 20.2675 60.1916 17.084 71.6298C15.1077 78.7325 14.6716 86.235 14.6447 93.5632C14.6324 96.9651 14.7068 100.406 15.2611 103.772C15.8799 107.528 17.2839 110.885 18.4151 114.488C18.7105 115.429 18.638 116.269 18.3234 116.971L18.6117 117.013C20.922 117.363 25.4479 118.352 25.8603 120.797C25.9758 121.483 25.5807 122.019 24.8545 122.078C23.8821 122.158 23.1816 121.662 22.4545 121.146C22.2164 120.977 21.9755 120.806 21.7213 120.653C21.536 120.542 21.3454 120.439 21.1555 120.336C21.1064 120.369 21.0404 120.377 20.9725 120.339C14.8775 116.97 7.42845 122.123 6.07205 128.101C4.80541 133.683 6.96085 140.148 12.5188 142.588C15.3133 143.815 18.285 144.585 20.8571 146.264C23.0217 147.676 24.9343 149.403 26.6026 151.344C30.0377 155.34 32.6289 159.896 35.672 164.16C37.0077 166.032 38.4907 167.8 40.2533 169.313C42.184 170.969 44.8703 171.622 45.6881 174.215C46.0069 175.225 45.4768 176.44 44.5393 176.954C41.1084 178.838 37.2217 175.561 34.8216 173.34C32.3577 171.059 30.3477 168.298 28.5029 165.535C25.4134 160.907 22.7751 155.627 18.2428 152.119C15.5224 150.013 12.1333 149.217 9.0714 147.728C5.55803 146.02 3.06272 143.22 1.57168 139.72C-1.17297 133.276 -0.450268 125.061 4.74979 119.934C6.43839 118.268 8.57541 117.203 10.8129 116.775C8.50253 112.852 7.64442 107.906 7.0648 103.516C6.48212 99.1059 6.42112 94.6668 6.66087 90.231L6.70917 89.3691C7.16814 81.4596 8.09308 73.3364 11.0427 65.91C13.5257 59.6592 17.2938 53.9248 22.3005 49.2914C22.8173 48.8133 23.3478 48.345 23.8867 47.8844C23.7421 47.7768 23.6032 47.6614 23.4793 47.5307C22.1545 46.1312 22.3488 44.2691 22.5318 42.5149C22.5426 42.4117 22.5533 42.3089 22.5637 42.2066C22.7712 40.1593 23.1073 38.1179 23.6121 36.1193C27.1335 22.1746 37.9632 10.7975 51.899 6.09142C53.9113 5.41157 55.9939 4.82667 58.1144 4.34601ZM79.3419 3.81172C84.8599 3.71902 90.3738 4.39774 95.6705 5.93838C98.6905 6.81667 101.612 7.96935 104.384 9.43217C105.104 9.81305 105.814 10.214 106.512 10.6318C102.767 10.0554 98.956 9.86033 95.186 10.1198C93.5534 10.2323 92.0017 10.4925 90.6066 10.9639C89.124 8.95859 87.4684 7.27573 85.1169 6.0054C83.2895 5.01839 81.3477 4.30355 79.3419 3.81172ZM73.8721 7.76239C62.1183 7.47608 49.2232 10.984 40.5347 18.8868C36.4214 22.6289 33.635 26.982 31.1362 31.834C29.9562 34.1248 29.1967 36.6629 28.6344 39.1585C28.3267 40.5238 28.0962 41.901 27.9734 43.2942C27.9496 43.5626 27.9543 43.8459 27.9113 44.1118C27.8748 44.3381 27.8307 44.397 27.7901 44.3821C27.81 44.4454 27.9071 44.5746 28.0007 44.6978C36.8012 38.5542 47.6938 34.9785 58.466 37.3081C58.809 37.3822 58.809 37.9072 58.466 37.9812C57.9152 38.1004 57.3659 38.2337 56.8162 38.3644C61.5298 38.4653 66.3735 39.8987 70.4446 42.0302C74.5127 44.1602 78.7913 47.1714 81.7404 50.8343C81.6561 50.2996 81.5893 49.7627 81.5766 49.2195C81.544 47.7686 81.5786 46.3103 81.6342 44.8605C81.7546 41.7163 81.9752 38.5725 82.2414 35.4372L82.3587 34.0707C82.836 28.5908 83.4229 22.9555 84.5641 17.5948C85.2297 14.4685 87.0111 12.5641 89.4055 11.4476C84.9604 8.6619 78.9279 7.886 73.8721 7.76239ZM19.2131 127.798C16.8616 126.891 13.4192 126.361 11.1636 127.744C10.9872 127.852 11.0298 128.095 11.2193 128.159C13.1254 128.801 14.9333 129.08 16.6863 129.972C16.6326 129.998 16.5781 130.023 16.5248 130.051C15.7288 130.472 15.481 131.36 15.6379 132.166L15.6632 132.297L15.682 132.379C15.8716 133.104 16.6277 133.427 17.3146 133.517L17.4984 133.54C18.1789 133.629 18.8153 133.111 19.1643 132.613L19.2286 132.527C19.3171 132.413 19.4169 132.309 19.5219 132.21C20.3451 133.17 20.9872 134.232 21.8549 135.333C23.2589 137.116 27.0235 136.204 26.0146 133.631C24.9252 130.852 21.9792 128.864 19.2131 127.798Z" transform="translate(15.72747 -4.839863)" id="ðŸ–-Ink" fill="#000000" fill-rule="evenodd" stroke="none" />
  </g>
</svg>