<?xml version="1.0" encoding="utf-8"?>
<svg width="182px" height="212px" viewBox="0 0 182 212" version="1.1" xmlns:xlink="http://www.w3.org/1999/xlink" xmlns="http://www.w3.org/2000/svg">
  <desc>Created with Lunacy</desc>
  <defs>
    <rect width="181.825485" height="211.10199" id="artboard_1" />
    <clipPath id="clip_1">
      <use xlink:href="#artboard_1" clip-rule="evenodd" />
    </clipPath>
  </defs>
  <g id="head/Gray-Bun" clip-path="url(#clip_1)">
    <use xlink:href="#artboard_1" stroke="none" fill="#FFFFFF" />
    <path d="M174.104 70.2274C166.546 25.8561 108.829 17.8562 71.2199 27.1953C70.5268 18.6604 64.9868 11.1188 58.0736 6.1581C28.7069 -14.3523 -6.06013 20.4702 0.900254 50.4817C2.14887 59.5732 9.6367 69.9478 20.1131 68.3919C6.94461 92.58 1.79864 141.354 30.8129 156.431C33.612 158.365 34.0765 162.292 36.2308 164.81C39.7281 168.87 54.6696 174.043 62.7528 169.898C65.2926 172.163 68.2229 174.367 71.6488 175.151C89.3472 188.901 115.212 192.003 136.763 186.33C150.041 184.143 163.806 178.329 170.637 166.452C176.425 157.413 173.758 146.822 171.104 137.254C169.957 131.991 169.21 126.686 168.751 121.336C169.692 120.27 169.745 118.789 169.98 117.44C170.999 112.659 173.226 108.222 174.34 103.455C176.832 92.6332 176.399 81.0714 174.104 70.2274" transform="translate(-9.592185 2.233852)" id="âœ‹-Skin" fill="#D08B5B" stroke="none" />
    <path d="M5.67125 18.0286C12.2005 5.96026 25.0004 -0.848812 37.8012 0.0850215C50.8983 1.04046 60.9212 9.80418 63.242 23.9548L63.3099 24.3853L63.4494 25.3038L63.3223 25.3458L63.3836 25.4501L63.4934 25.6284C63.6234 25.8338 63.783 26.0677 64.0009 26.373L64.2922 26.7763L65.2722 28.1113L65.3417 28.207L65.5507 28.4989L65.9715 28.3546C86.4924 21.3996 109.35 21.4712 129.781 28.8665L130.4 29.0928L130.969 29.3061L131.291 29.3873C143.818 32.6024 153.828 40.3347 160.68 51.4056L160.886 51.7421L161.095 52.0876C167.35 62.5137 170.557 75.401 170.332 88.3395L170.324 88.7355L170.321 88.799L170.286 89.189C169.988 92.2942 169.183 95.0695 167.518 99.3014L167.305 99.8381L166.975 100.657L165.948 103.182L165.697 103.81L162.751 111.317L163.296 103.783C163.357 102.945 163.391 102.209 163.42 101.086L163.425 100.883L163.491 97.6945L163.511 96.9823C163.521 96.6511 163.532 96.3519 163.545 96.0601L163.566 95.6251L163.606 94.9492L163.615 94.8084L163.596 94.6567C162.969 89.8676 160.704 85.7788 156.806 81.9051L156.603 81.7049L156.397 81.5051L156.151 81.2698C153.279 78.5438 150.375 76.4594 144.36 72.6344L144.1 72.4694L140.605 70.2623L139.296 69.4297C136.412 67.5855 134.654 66.3913 132.795 64.9986L132.395 64.6967L132.082 64.4576C128.864 61.9854 126.35 59.5562 124.42 56.9356L124.241 56.6893L123.86 56.1605L124.132 55.5959L124.128 55.6035L124.127 55.6011L124.14 55.541L124.159 55.4401L124.178 55.3177C124.212 55.0753 124.241 54.7588 124.262 54.4015C124.269 54.2723 124.275 54.1402 124.28 54.0063L124.287 53.8044L124.29 53.6301L124.218 53.8358C120.492 64.2747 111.662 72.9845 99.2148 79.412L98.8365 79.6061L98.4088 79.8225C86.1407 85.9844 71.1339 89.5222 58.1228 89.6224L57.7037 89.6245L57.2893 89.6253L56.9695 89.3695C55.7757 88.4146 53.5784 89.6034 53.9781 91.3043C57.676 107.038 58.4515 123.323 56.1934 139.016L56.1134 139.563L56.1044 139.615L56.0185 140.059C55.9438 140.454 55.8724 140.86 55.7949 141.327L55.6729 142.081L55.2024 145.136L54.9885 146.445L54.8959 146.975C54.101 151.429 53.0934 154.46 51.2627 157.073L51.0874 157.319L50.9075 157.486L50.7315 157.657C50.3708 158.018 50.1442 158.309 50.0334 158.514L50.0098 158.559L49.9965 158.587L50.0282 158.599C50.6103 158.802 51.8013 158.761 52.7934 158.496L52.9163 158.462L53.0322 158.427L53.8356 158.174L54.3959 158.938L54.5629 159.164C54.8705 159.576 55.1912 159.992 55.5924 160.5L56.0652 161.095L57.1577 162.457L56.1551 163.129C52.7711 165.398 48.0405 164.947 43.0141 162.82L42.8181 162.736L42.747 162.703C40.3503 161.472 38.7808 159.984 36.1955 156.813L35.8926 156.439L34.7416 155.007L34.3033 154.471C33.9973 154.1 33.7357 153.792 33.4735 153.495L33.386 153.397L33.0796 153.057L33.0123 152.926C31.7471 150.454 29.9383 148.81 26.772 147.042L26.3253 146.797L26.0393 146.606C18.0051 141.199 13.263 132.671 11.2691 121.61C9.71043 112.964 9.87171 103.236 11.2997 92.3105L11.3686 91.7894L11.4422 91.2466C12.6781 82.052 15.5048 73.4669 19.7896 65.6512L20.0125 65.2477L20.2136 64.8885L19.2082 64.1145L18.7956 63.8029C18.454 63.5484 18.205 63.3734 17.9791 63.2292L17.8578 63.1534L17.7451 63.0858L17.7145 63.1405L16.9476 63.061C13.7089 62.725 10.5156 61.367 7.91623 59.2741L7.70187 59.0987L7.49392 58.896C2.46939 53.9371 0.00209273 47.0624 3.86114e-06 39.2119C-0.00183287 32.2726 1.95954 24.8879 5.3145 18.675L5.48062 18.3704L5.67125 18.0286Z" transform="translate(-5.267786 6.348176)" id="ðŸ’ˆ-Hair" fill="#E8E1E1" stroke="none" />
    <path d="M71.2199 27.1959C108.83 17.8564 166.546 25.8563 174.104 70.2276C176.4 81.072 176.832 92.6334 174.34 103.455C173.226 108.222 170.999 112.659 169.98 117.44C169.745 118.789 169.692 120.27 168.751 121.337C169.072 132.316 173.466 142.719 174.221 153.588C173.033 181.008 139.969 187.569 117.09 188.886C108.274 189.158 96.7933 188.497 91.2115 180.937C89.7496 178.483 92.5898 176.184 94.9758 177.283C98.9567 179.695 102.976 182.235 107.818 182.623C128.205 183.505 159.063 180.408 167.635 159.298C169.578 153.17 168.163 147.042 166.745 140.898C165.923 137.336 165.1 133.77 164.929 130.194C163.977 124.248 164.378 118.357 164.781 112.455C165.052 108.483 165.323 104.507 165.181 100.507C159.364 81.575 136.333 79.3958 128.907 62.463C117.921 85.7307 88.6134 96.3268 63.7064 97.5428C67.8742 118.508 68.4411 141.179 61.0012 161.54C63.37 164.618 66.3847 167.238 69.8547 169.098C71.5057 170.006 73.9853 170.486 74.7878 172.324C75.583 179.147 64.6746 172.187 62.7528 169.898C54.6696 174.044 39.7281 168.871 36.2308 164.809C34.0765 162.292 33.612 158.365 30.8128 156.432C1.79902 141.354 6.94461 92.5802 20.1131 68.3921C9.6367 69.948 2.14887 59.5734 0.900254 50.4819C-6.06013 20.4704 28.7069 -14.3521 58.0736 6.15792C64.9872 11.119 70.5271 18.6606 71.2199 27.1959ZM12.8072 62.3829C2.27096 52.1986 4.39187 34.3946 11.0151 22.654C24.2868 -1.87661 61.9826 -1.07949 66.4964 28.6542C47.2731 35.0458 31.0523 48.751 21.3949 66.0565C18.2505 65.7304 15.2109 64.3711 12.8072 62.3829ZM168.769 107.967C170.725 102.981 173.061 98.1671 173.498 92.817C174.069 67.8269 161.585 41.0903 134.942 34.4776C85.607 15.8023 24.1331 41.7403 16.9076 95.4973C14.4281 113.562 13.9819 138.557 31.255 149.952C34.3598 151.636 36.775 153.424 38.3673 156.535C41.2838 159.747 43.5846 163.754 47.6097 165.822C51.2282 167.382 56.3292 168.661 59.8254 166.317C59.1065 165.421 58.3903 164.522 57.7117 163.596C55.2778 164.362 50.8553 164.09 54.534 160.694C57.9998 155.863 58.1874 149.116 59.2987 143.51C61.657 127.632 60.853 111.285 57.1805 95.6588C56.4846 92.6975 60.1683 91.1282 62.0257 92.6137C86.5844 92.5642 122.455 79.7048 128.49 54.0729C130.046 52.0132 129.904 59.337 129.509 60.1561C139.942 74.6611 166.82 79.7007 169.095 98.8835C168.882 101.947 168.982 105.017 168.769 107.967Z" transform="translate(-9.592185 2.241978)" id="ðŸ–-Ink" fill="#000000" fill-rule="evenodd" stroke="none" />
  </g>
</svg>