<?xml version="1.0" encoding="utf-8"?>
<svg width="182px" height="212px" viewBox="0 0 182 212" version="1.1" xmlns:xlink="http://www.w3.org/1999/xlink" xmlns="http://www.w3.org/2000/svg">
  <desc>Created with Lunacy</desc>
  <defs>
    <rect width="181.825485" height="211.10199" id="artboard_1" />
    <clipPath id="clip_1">
      <use xlink:href="#artboard_1" clip-rule="evenodd" />
    </clipPath>
  </defs>
  <g id="head/Shaved-3" clip-path="url(#clip_1)">
    <use xlink:href="#artboard_1" stroke="none" fill="#FFFFFF" />
    <path d="M120.676 2.51692C100.165 -3.32581 29.6278 2.66323 27.8835 3.92873C25.0292 6.23075 11.145 13.535 8.98456 15.2026C-10.5502 35.2978 8.07262 65.1397 6.6395 89.3819C6.73079 97.9808 2.95542 105.832 1.22002 114.105C0.487353 118.44 0.648847 122.924 2.9769 126.816C7.06989 133.771 15.7135 135.181 22.7433 137.985C26.2414 139.447 29.5096 141.52 32.5055 143.787C52.6766 161.106 63.9045 172.966 93.3369 169.059C93.4872 170.423 94.732 171.763 96.2752 171.153C99.8887 169.725 103.476 168.21 107.121 166.856C107.901 168.678 110.138 169.199 111.654 167.589L111.663 167.601C118.41 162.289 122.701 155.025 125.888 147.249C128.118 142.763 129.945 138.083 131.34 133.263C131.498 132.717 131.477 132.23 131.335 131.81C137.774 110.275 140.157 87.5769 138.461 65.2168C138.118 60.6035 137.22 55.9291 137.441 51.2964C137.64 47.1108 139.498 43.1516 140.915 39.2535C148.217 22.6822 137.054 7.73452 120.676 2.51692Z" transform="translate(23.33358 16.47994)" id="âœ‹-Skin" fill="#D08B5B" stroke="none" />
    <path d="M149.495 3.4677L149.277 3.63222C147.048 5.28157 144.689 6.77455 142.265 8.14094C138.321 10.3637 134.282 12.4263 130.12 14.1873C124.063 15.2745 117.914 15.9633 111.788 15.2782C107.403 14.7905 103.222 13.439 99.4781 11.1604C95.7534 8.89674 92.2626 6.18629 87.8129 5.44538C79.7151 4.10505 71.4831 8.20423 65.3225 12.9698C63.8111 14.1389 62.3842 15.4085 61.0531 16.7675C61.5019 15.5872 61.8625 14.3735 62.1578 13.1262C62.5798 11.3652 60.7846 10.2147 59.2003 10.9184C53.1011 13.6437 50.7957 20.9076 50.4159 26.9763L50.4027 27.1942C50.3076 28.8083 50.2663 30.7713 50.6883 32.5163C41.7454 31.7136 39.008 33.9709 33.0733 38.8647C32.4397 39.3872 31.7697 39.9397 31.0517 40.5218L30.0818 41.3045C25.9545 44.6723 22.4661 48.8752 20.081 53.5707L20.0376 53.6586C19.5819 53.0647 19.071 52.5044 18.5006 51.9887C16.6953 50.3572 13.9768 52.9843 15.7881 54.6214L15.975 54.7946C16.2814 55.086 16.5626 55.3905 16.8192 55.7066C13.1325 53.8052 8.39428 52.7248 5.2319 56.0429C4.25372 57.0667 4.23071 59.0995 5.72674 59.7697C7.39923 60.5181 9.05637 61.0095 10.9015 61.151L11.2315 61.1794C11.8898 61.2429 12.5374 61.3462 13.1766 61.4857C9.94555 63.2814 7.0889 65.6977 4.83679 68.6051C2.54863 69.9369 0.0809437 72.0032 0.00169058 74.733C-0.0770987 77.5961 2.61192 78.955 5.17052 79.2417C7.87872 79.547 10.6214 79.547 13.3603 79.6178C11.73 81.2857 10.3453 83.1324 9.21748 85.1652C8.81087 85.9024 8.43494 86.6619 8.09354 87.4475C7.44526 88.948 9.1024 90.9882 10.7327 90.8095C11.4423 90.7313 12.1558 90.6531 12.8655 90.5675C12.4205 91.4685 12.0753 92.4328 11.8375 93.4418C10.4994 99.1481 12.814 104.798 15.4672 109.809L15.7972 110.43C19.7036 117.922 18.544 126.375 27.4 128.424C27.3118 128.532 27.2274 128.644 27.143 128.756C25.7621 130.632 24.899 132.814 24.4003 135.096C23.1536 136.667 21.7458 138.116 20.1155 139.404C18.5888 140.614 16.7744 141.898 15.0367 142.598C13.4946 143.224 11.9909 142.74 9.98851 143.41C8.96047 143.753 7.92476 144.512 7.70994 145.622C6.7778 150.346 11.6763 152.275 15.7156 151.27C16.0033 151.199 16.2949 151.113 16.5787 151.02C14.3308 155.466 12.1635 159.952 9.94248 164.405C8.95088 166.397 11.0097 168.812 12.9027 168.277C13.1075 168.269 13.327 168.224 13.561 168.13C13.6173 168.107 13.6792 168.082 13.7461 168.054C15.1327 167.485 18.6558 166.04 19.0188 168.227C19.0711 168.543 18.9629 168.88 18.8532 169.223C18.7536 169.534 18.6527 169.849 18.669 170.156C18.697 170.686 18.8703 171.173 19.1857 171.571L19.168 171.59L19.0991 171.661C17.5712 173.285 18.3295 175.937 20.5221 176.561C24.3236 177.637 28.2976 177.343 31.8152 175.88C33.6297 179.532 38.2175 181.933 42.7056 180.578C44.6811 179.982 46.2846 178.988 47.5734 177.726C50.4393 180.302 55.0152 180.818 58.7805 180.697L59.1543 180.682C60.7577 180.612 62.5146 179.312 62.7256 177.7C63.4314 178.575 64.141 179.45 64.843 180.329L66.2585 182.093L67.7625 183.965C68.7581 185.222 69.5296 186.488 71.1916 186.904C72.2695 187.172 73.5699 186.375 73.4932 185.202C73.3847 183.62 72.6098 182.809 71.5988 181.71L71.299 181.382C70.294 180.265 69.2889 179.152 68.2801 178.039L67.3446 177.005C65.4762 174.935 63.6199 172.852 61.7129 170.816C60.1286 169.122 58.5213 167.454 56.9064 165.79C56.0049 164.435 55.0344 163.105 53.9834 161.791C53.4732 161.151 52.8518 160.801 52.2035 160.678C51.9119 160.257 51.5475 159.866 51.1141 159.509C50.8494 159.293 50.5578 159.114 50.251 158.98L50.2476 158.978L50.2471 158.976C49.7791 158.533 49.3073 158.098 48.8201 157.685C49.035 155.767 47.2397 154.296 44.9381 154.866C44.3169 155.02 43.759 155.218 43.2198 155.41C42.0244 155.834 40.9209 156.226 39.422 156.031C37.435 155.775 35.5361 154.844 34.136 153.463C30.8425 150.215 29.9968 145.335 29.9948 140.933L29.997 140.528C30.0123 139.132 30.1428 137.721 30.4381 136.37C31.1938 132.915 33.0312 129.85 36.7982 128.495C39.2532 127.613 41.9307 127.687 44.474 128.1C47.2857 128.555 50.1857 129.109 52.8671 130.048C53.2123 130.171 53.3696 129.687 53.1011 129.508C49.0388 126.775 46.2769 124.228 41.2901 123.573C39.3836 123.324 43.525 94.3242 47.8366 84.647C51.1758 77.1516 59.1197 68.7536 63.0708 66.099L63.2967 65.945C65.3174 64.5479 67.0019 62.851 68.3261 60.801C69.8528 58.4443 71.2123 55.9345 74.0954 55.2238C84.6536 52.6211 106.264 57.1111 119.368 59.8335C123.442 60.68 126.694 61.3556 128.536 61.594C132.126 62.0594 135.755 62.2084 139.365 61.81C140.632 61.67 141.939 61.4995 143.232 61.2511C145.042 60.1692 146.769 58.9718 148.373 57.639C151.503 55.5447 154.479 53.1809 156.778 50.3896C157.34 50.7936 157.642 51.5099 157.167 52.2594C154.288 56.8039 150.287 60.3714 145.752 63.2211C147.314 64.7781 149.018 66.2052 150.807 67.5399C152.004 69.1744 153.132 70.846 154.164 72.5848C155.341 75.5 156.435 78.5641 158.019 81.2597C158.222 81.6096 158.449 81.9298 158.686 82.2165C160.202 86.2822 161.364 90.5117 162.185 94.7151C164.763 107.891 163.972 121.537 161.537 134.676C160.229 141.72 158.487 148.686 156.619 155.607C155.169 160.991 153.611 166.352 151.532 171.546C148.003 180.347 142.426 189.696 133.039 193.523C126.299 196.271 118.439 195.821 111.412 194.495C103.893 193.073 96.7852 190.374 90.2411 186.509C85.7069 183.828 81.5334 190.776 86.0867 193.412C98.6495 200.683 114.818 205.043 129.426 202.291C141.843 199.953 150.531 190.53 155.656 179.815C161.322 167.964 164.237 154.747 166.742 141.984L166.831 141.527C169.622 127.185 171.171 112.172 168.111 97.7495C167.716 95.8879 167.26 94.03 166.73 92.1908L166.734 92.1871L166.843 92.2087C168.912 92.5895 171.269 91.2159 172.158 89.3352C174.69 87.4587 176.746 84.9903 177.912 82.1346C178.948 79.5917 179.462 76.8552 179.474 74.1112C180.084 73.1395 180.724 72.1864 181.372 71.2407C186.835 67.7968 191.07 62.5434 192.416 56.2662C193.486 51.2735 192.182 45.4729 186.704 43.5815C183.256 42.3938 179.593 43.3916 176.324 45.0745C178.357 39.0765 180.049 32.9743 181.384 26.7864C181.626 25.662 180.993 24.7461 180.076 24.4334C180.068 23.8489 180.038 23.2681 179.984 22.6947C179.781 20.4794 176.842 19.4518 175.542 21.5256C174.341 23.4356 173.002 25.2488 171.564 26.9875C171.829 26.0455 172.055 25.0924 172.247 24.1355C173.509 17.8174 173.443 11.3987 172.147 5.09169C171.506 1.96053 166.707 0.687213 164.559 3.14448C163.769 4.04921 162.96 4.92415 162.127 5.7693C161.54 3.1147 160.159 0.918048 157.424 0.192036C154.554 -0.569768 152.502 1.0731 150.478 2.69379C150.151 2.95576 149.825 3.21714 149.495 3.4677ZM37.1499 44.6646C41.1559 41.6503 46.0348 39.7176 50.9407 41.8584C51.2556 41.9958 51.4624 42.1894 51.5882 42.4087C49.3388 42.5279 47.092 42.8298 44.8664 43.2773C42.1444 43.8243 39.2969 44.487 36.6225 45.4978C36.6578 45.2052 36.8185 44.914 37.1499 44.6646ZM67.9564 76.0806C67.9066 75.7307 68.386 75.5854 68.5088 75.9317C70.5534 81.6914 71.1403 86.7921 70.8065 92.8832L70.7751 93.4237C70.414 99.2906 69.3552 105.5 65.697 110.319C64.8493 111.432 63.1154 110.777 63.3954 109.377C64.5194 103.773 66.679 98.453 67.5191 92.7826C68.3976 86.8554 68.7927 82.0116 67.9564 76.0806ZM47.8659 84.7668C48.7406 83.1956 50.7544 82.1941 52.4768 83.1733C53.0445 83.4972 52.822 84.4392 52.1316 84.4094L51.7225 84.3933C50.4945 84.3499 49.2665 84.374 48.2342 85.1279C48.004 85.2955 47.7509 84.979 47.8659 84.7668ZM52.8298 95.4411C51.5984 93.896 49.1626 95.4783 48.8634 97.016C48.7368 97.6712 49.6881 98.1701 50.0487 97.5L50.0861 97.4327C50.2673 97.1245 50.5394 96.899 50.9118 96.8261C51.115 96.7866 51.31 96.8125 51.5046 96.8383C51.751 96.871 51.9968 96.9035 52.2582 96.8037C52.7569 96.6101 53.244 95.966 52.8298 95.4411ZM59.0408 120.014C59.3193 119.339 58.537 118.789 57.945 119.258C55.77 120.971 55.6281 124.705 58.367 125.967C59.3413 126.414 60.7261 125.427 59.9934 124.388C59.1419 123.186 58.3171 121.499 59.0191 120.062L59.0408 120.014ZM40.5104 135.442C41.8069 135.119 43.2608 135.122 44.5611 135.439C47.9176 136.258 51.0401 138.983 51.2358 142.42C51.324 143.972 50.0351 145.458 48.5391 145.856C46.8436 146.31 45.3859 145.506 44.3962 144.218C43.3336 142.84 43.069 141.347 41.7686 140.096L41.4687 139.813C40.3633 138.787 38.6918 137.461 37.1577 137.699C36.9314 137.732 36.7626 137.434 36.9928 137.315C38.2433 136.652 39.0642 135.8 40.5104 135.442Z" transform="translate(-2.686824 -11.54163)" id="ðŸ–-Ink" fill="#000000" fill-rule="evenodd" stroke="none" />
  </g>
</svg>