<?xml version="1.0" encoding="utf-8"?>
<svg width="182px" height="212px" viewBox="0 0 182 212" version="1.1" xmlns:xlink="http://www.w3.org/1999/xlink" xmlns="http://www.w3.org/2000/svg">
  <desc>Created with Lunacy</desc>
  <defs>
    <rect width="181.825485" height="211.10199" id="artboard_1" />
    <clipPath id="clip_1">
      <use xlink:href="#artboard_1" clip-rule="evenodd" />
    </clipPath>
  </defs>
  <g id="head/Bangs-2" clip-path="url(#clip_1)">
    <use xlink:href="#artboard_1" stroke="none" fill="#FFFFFF" />
    <path d="M134.463 11.0522C111.396 -3.76697 65.1852 -2.15745 39.7933 6.92179C15.0175 14.5479 6.3432 35.7977 2.2295 58.7557C-2.7707 84.5582 -2.09864 121.753 33.8575 121.303C38.9126 123.676 44.5127 124.705 49.7431 126.67C56.9018 129.072 63.9209 131.861 71.1851 133.965C85.4925 138.437 101.413 138.048 114.985 131.504C122.484 127.988 125.587 122.514 130.491 116.68C144.757 99.7078 151.935 75.4187 151.293 53.8382C150.164 38.6422 147.575 21.0511 134.463 11.0522Z" transform="translate(14.96115 49.14551)" id="âœ‹-Skin" fill="#D08B5B" stroke="none" />
    <path d="M188.202 104.134C185.836 89.8747 185.18 75.373 182.08 61.2251C179.165 47.9115 173.714 35.3307 164.189 25.1814C155.666 16.1007 144.645 9.43252 132.815 5.20675C109.768 -3.02511 83.2615 -1.16354 60.9667 8.44626C40.099 17.4373 23.4547 34.0723 13.7535 54.0357C7.45097 67.0071 4.28245 80.7977 2.87464 95.0312C1.3134 110.843 1.14462 126.819 0.507844 142.687C0.431125 144.646 0.319881 146.604 0.293029 148.563C0.262341 150.707 1.15612 152.587 1.88496 154.583C1.93483 154.724 2.00771 154.859 2.09594 154.985C1.54739 155.052 0.99885 155.13 0.450305 155.216C-0.163452 155.309 -0.136601 156.277 0.450305 156.392C5.4179 157.375 10.5236 157.513 15.5756 157.755C20.8117 158.008 26.0555 158.146 31.2993 158.317C36.4126 158.485 41.526 158.652 46.6393 158.82C49.3245 158.909 52.0097 158.998 54.6949 159.084C55.9723 159.125 57.2497 159.17 58.5309 159.211C59.1677 159.233 59.8083 159.251 60.445 159.274C60.9629 159.289 61.8068 159.609 61.8605 159.24C61.9564 159.297 62.06 159.344 62.1712 159.378C62.294 159.442 62.4129 159.516 62.528 159.598C63.1532 160.015 64.1007 159.963 64.7337 159.598C64.7912 159.564 64.8526 159.527 64.914 159.49C65.3858 159.218 65.7157 158.823 65.8998 158.377C68.5236 161.452 73.169 157.997 70.4838 154.743C69.0415 152.993 54.6949 110.091 60.633 77.4096L84.4468 74.3492C88.8006 73.921 96.9022 73.0684 96.9022 73.0684C96.9022 73.0684 98.8854 66.7875 99.4531 64.7658C99.4953 64.6169 99.5375 64.4642 99.5835 64.3153C100.151 65.2874 100.723 66.2551 101.298 67.2231L104.237 73.02C104.237 73.02 147.606 72.3163 158.24 72.3834C158.42 72.3834 159.275 84.9303 158.888 90.4555C158.105 101.55 157.273 112.638 156.114 123.703C155.375 130.788 153.593 137.737 150.938 144.267C146.744 154.583 134.568 164.388 122.695 164.388C115.305 164.388 98.6054 158.578 96.1734 157.405C93.7413 156.232 92.2922 159.434 94.5085 160.715C98.9981 163.309 111.374 168.813 122.695 168.813C139.137 168.813 151.55 153.671 153.072 151.5C168.044 150.704 183.358 151.072 198.31 152.513C199.565 152.632 200.646 151.165 200.244 150.044C194.873 135.126 190.788 119.738 188.202 104.134Z" transform="translate(-9.592184 18.61585)" id="ðŸ–-Ink" fill="#000000" stroke="none" />
  </g>
</svg>