<?xml version="1.0" encoding="utf-8"?>
<svg width="182px" height="212px" viewBox="0 0 182 212" version="1.1" xmlns:xlink="http://www.w3.org/1999/xlink" xmlns="http://www.w3.org/2000/svg">
  <desc>Created with Lunacy</desc>
  <defs>
    <rect width="181.825485" height="211.10199" id="artboard_1" />
    <clipPath id="clip_1">
      <use xlink:href="#artboard_1" clip-rule="evenodd" />
    </clipPath>
  </defs>
  <g id="head/No-Hair-1" clip-path="url(#clip_1)">
    <use xlink:href="#artboard_1" stroke="none" fill="#FFFFFF" />
    <path d="M133.134 55.9293C129.662 41.7242 122.072 28.5048 109.92 17.8211C73.3524 -17.268 6.19855 1.77777 6.50274 54.6545C5.19122 60.8305 4.65878 67.1807 5.09302 73.4791C5.27254 76.1665 6.4709 79.9168 4.86094 82.3353C1.22942 86.8601 -0.881137 90.1952 0.354816 96.2141C1.38746 101.469 5.0723 105.192 10.0453 107.172C13.0277 108.002 15.8575 109.812 16.9623 112.57C23.6009 124.366 28.519 134.178 38.9847 142.218C41.6852 144.287 69.3832 156.701 78.5095 156.701C105.228 156.701 138.902 147.307 139.461 118.341C139.558 111.979 138.407 105.543 137.686 99.2313C135.929 84.8272 136.549 69.9015 133.134 55.9293Z" transform="translate(21.09737 27.55117)" id="âœ‹-Skin" fill="#D08B5B" stroke="none" />
    <path d="M40.6064 7.68637C53.8935 0.972432 69.1638 -1.43048 83.9507 0.822762C98.1661 2.98888 111.212 10.1083 120.964 20.3167C125.725 25.3009 129.95 31.0662 132.651 37.3646C133.992 40.4936 135.042 43.7576 135.602 47.11C135.889 48.8334 136.172 50.619 136.226 52.3663C136.251 53.1666 136.144 53.9423 136.036 54.7211C135.926 55.5164 135.815 56.3148 135.845 57.1457C135.853 57.4029 135.447 57.4525 135.385 57.206C134.924 55.3723 133.811 53.9858 133.113 52.2442C132.591 50.9437 131.999 49.674 131.396 48.4083L130.879 47.3237C129.376 44.1713 127.579 41.1485 125.802 38.1364C122.223 32.07 117.632 26.5567 112.255 21.9047C102.815 13.7368 90.7047 8.46451 78.0648 7.51511C64.9453 6.52922 51.6383 9.56432 40.4342 16.2876C29.2308 23.0104 20.7595 33.4613 16.3611 45.4941C14.142 51.5662 12.9164 57.8929 12.6314 64.3258C12.4872 67.582 12.6218 70.8654 12.857 74.1154L12.9738 75.6652C13.1106 77.5237 13.2044 79.3751 12.9183 81.1886C14.9391 80.5769 17.0573 80.3233 19.1832 80.626C22.3422 81.0758 24.2295 82.3327 25.6465 85.0722C25.7205 85.2152 25.5721 85.3581 25.4252 85.287C23.5881 84.3972 20.616 84.8656 18.6704 85.3321C16.6457 85.8176 14.8221 86.662 13.1017 87.8035C9.91897 89.9141 7.42405 93.1849 6.81183 96.9375C6.21994 100.562 7.75318 104.233 10.3287 106.831C11.6544 108.169 13.239 109.325 15.0132 110.046C17.1663 110.922 19.2976 110.894 21.2025 112.339C22.3802 113.233 22.0955 114.761 21.2969 115.753C25.3158 120.03 28.8798 124.709 32.8984 129.003C34.7612 130.993 36.6091 132.986 38.3939 135.04L39.0601 135.814C40.8423 137.901 43.6779 140.107 44.4923 142.732C44.999 144.365 43.1969 146.502 41.3752 145.758C38.5808 144.616 36.586 141.644 34.6977 139.365L34.5747 139.218C32.5946 136.856 30.8366 134.363 29.2293 131.751L28.7008 130.89C25.7944 126.146 22.913 121.226 21.0598 116.014C20.9374 116.136 20.8078 116.247 20.6712 116.341C18.0014 118.184 14.1201 116.767 11.4537 115.571C8.93658 114.441 6.62885 112.742 4.83016 110.694C0.918232 106.24 -0.885062 100.473 0.421473 94.6924C1.52815 89.7961 5.02465 85.0335 9.60864 82.5568C7.49272 80.1927 6.61658 77.0057 6.03351 73.8898C5.28933 69.9123 5.14088 65.8362 5.34303 61.803C5.7462 53.7695 7.87632 45.8508 11.1691 38.4946C17.0604 25.3322 27.4759 14.3221 40.6064 7.68637ZM136.686 52.1332C136.636 51.9597 136.377 51.9992 136.368 52.1749C136.161 56.8413 136.378 61.5875 136.593 66.2913C136.623 66.9586 136.654 67.625 136.683 68.2902L136.796 70.9459C137.038 76.2113 137.496 81.4837 138.027 86.7256C138.609 92.4742 139.24 98.2179 139.841 103.964L139.899 104.522C140.423 109.547 140.909 114.596 140.681 119.65C140.276 128.647 136.766 136.85 129.668 142.76C123.248 148.106 115.108 151.275 107.022 153.365L106.743 153.437C97.5291 155.801 87.1419 157.553 78.9767 151.611C75.4994 149.08 71.1298 154.645 74.3351 157.45C82.342 164.454 94.0064 163.821 103.847 161.703C113.016 159.729 122.25 156.258 129.867 150.848C137.91 145.135 144.152 137.342 146.013 127.674C147.834 118.217 146.397 108.478 144.994 98.9662C144.716 97.0813 144.439 95.2052 144.189 93.342L143.973 91.7411C143.104 85.3389 142.17 78.9534 141.061 72.5844C140.473 69.2098 139.767 65.8548 139.019 62.5096C138.242 59.0367 137.679 55.5529 136.686 52.1332ZM20.7189 96.0349C18.0291 94.8897 15.4302 95.0122 12.6415 95.5193C12.4366 95.5565 12.4343 95.8875 12.6415 95.9232C14.7148 96.2784 17.0421 97.3823 18.977 98.8935L18.9225 98.971C18.5243 99.538 18.3809 100.35 18.5105 101.019C18.6275 101.623 19.3709 101.784 19.8577 101.551C20.2597 101.36 20.6019 101.025 20.8578 100.644C21.7105 101.601 22.3837 102.64 22.7596 103.715L22.8009 103.827C24.2043 107.457 29.7706 104.47 27.5987 101.735C25.6899 99.3303 23.6365 97.2781 20.7189 96.0349Z" transform="translate(17.26293 24.20047)" id="ðŸ–-Ink" fill="#000000" fill-rule="evenodd" stroke="none" />
  </g>
</svg>