<?xml version="1.0" encoding="utf-8"?>
<svg width="182px" height="212px" viewBox="0 0 182 212" version="1.1" xmlns:xlink="http://www.w3.org/1999/xlink" xmlns="http://www.w3.org/2000/svg">
  <desc>Created with Lunacy</desc>
  <defs>
    <rect width="181.825485" height="211.10199" id="artboard_1" />
    <clipPath id="clip_1">
      <use xlink:href="#artboard_1" clip-rule="evenodd" />
    </clipPath>
  </defs>
  <g id="head/Twists" clip-path="url(#clip_1)">
    <use xlink:href="#artboard_1" stroke="none" fill="#FFFFFF" />
    <path d="M122.107 30.831C124.639 34.2655 135.352 52.1094 137.648 61.3864C140.045 71.0689 140.066 68.8828 140.126 68.8817C140.168 68.8809 140.23 69.9425 141.129 76.831C144.272 100.901 146.114 127.549 130.705 147.746C127.918 150.945 116.369 163.368 94.0366 164.53C75.2971 165.505 56.3523 160.081 41.3276 149.245C39.6693 148.057 39.3102 146.415 39.7805 145.063C34.4029 140.586 30.3973 133.99 29.2289 127.068C28.856 125.883 27.3109 125.843 26.1551 125.581C18.9438 124.343 10.3984 122.179 9.05776 113.99C8.31021 107.123 10.9067 102.639 13.4547 98.2395C16.7878 92.4841 20.0379 86.8719 15.6111 76.2546C14.3577 71.6289 11.8712 66.2384 9.24444 60.5439C2.33063 45.5556 -5.55471 28.4612 5.516 17.6614C8.76776 14.5265 13.4266 12.7416 17.8982 13.6549C47.2956 0.0687794 81.3507 -3.65734 113.047 3.73086C117.625 4.79493 122.505 5.85677 126.198 8.85725C130.679 12.5114 128.17 16.2168 125.456 20.2248C123.231 23.5107 120.868 27 122.107 30.831ZM15.7448 14.656C12.9633 15.1494 10.4189 16.693 8.42958 18.7649C10.717 17.1736 13.2023 15.8888 15.7448 14.656ZM4.53345 36.63C4.18169 35.051 3.94539 33.4568 3.87097 31.8629C4.31556 32.5189 5.0256 32.9571 5.8231 33.1835C5.30793 34.303 4.86986 35.4565 4.53345 36.63Z" transform="translate(17.64516 19.3602)" id="âœ‹-Skin" fill="#D08B5B" fill-rule="evenodd" stroke="none" />
    <path d="M89.0951 0.0343676C86.8204 -0.229975 84.8334 1.05078 84.1314 3.18042C84.0125 3.54901 83.8897 3.9176 83.7747 4.28619C82.7926 7.36151 81.9449 10.4852 81.3273 13.6499C81.3733 12.6968 81.4539 11.7436 81.592 10.8017C81.7144 9.96975 81.9254 9.13726 82.1367 8.30337C82.4748 6.96901 82.8139 5.63113 82.7926 4.28619C82.7313 0.0604296 76.9389 -1.42138 74.6795 2.15283C73.3546 4.24465 73.084 7.05376 72.8158 9.51454L72.6951 10.5915C72.6627 10.8944 72.6337 11.1988 72.6081 11.5016C72.3012 11.5389 71.9905 11.591 71.676 11.6655C71.2156 10.0537 70.7975 8.43377 70.4446 6.79596C69.9421 4.469 67.1227 3.12085 64.8709 3.72437C62.3929 4.38299 61.1922 6.80304 61.7062 9.13372C62.2471 11.6059 62.8877 14.0632 63.7125 16.4609C63.5514 16.621 63.3979 16.7848 63.256 16.9486C62.6998 15.9359 62.132 14.9306 61.5758 13.9217C60.5938 12.1346 59.7691 10.098 58.2232 8.70556C54.9588 5.76428 50.4246 8.62737 50.9578 12.5668C49.972 11.4346 48.3379 10.7868 46.8687 10.9804C44.0224 11.3527 42.8562 13.7616 43.2168 16.3008C43.4623 18.0171 44.3561 19.6628 45.0581 21.2451L45.19 21.5411L45.3189 21.8371L45.2998 21.8445L45.1126 21.4397C44.6058 20.3631 44.039 19.3107 43.4662 18.3113C40.9421 13.8993 34.4478 17.0379 35.261 21.3084C33.9798 20.2622 31.9812 19.9569 30.5044 20.5638C28.0839 21.5541 27.4433 23.855 28.1529 26.0479C27.7885 25.6868 27.4126 25.3927 27.1326 25.2214C24.9959 23.9183 22.5409 24.9463 21.1906 26.733C20.5308 27.6042 20.2892 28.5871 20.3582 29.5514C19.077 28.9557 17.6423 28.8701 16.2844 29.6408C14.5812 30.6088 13.8064 32.6081 14.2705 34.4436C14.6464 35.918 15.5747 37.3067 16.645 38.5838C15.5786 37.7312 14.47 36.9381 13.3384 36.2196C12.0341 35.3967 10.1775 35.4675 8.86562 36.2196C7.35424 37.0908 6.80186 38.2747 6.67144 39.9353C6.55252 41.4357 7.60742 42.8989 8.86562 43.6472C8.927 43.6845 8.98837 43.718 9.04975 43.7515C7.38493 43.3717 5.71628 43.2265 4.2049 43.5802C0.602919 44.4291 0.226993 49.2431 3.20371 51.019C3.8635 51.4137 4.55781 51.6483 5.26747 51.8009C5.01813 51.8046 4.77263 51.8046 4.52713 51.8009C3.00808 51.7786 1.46985 52.6237 0.72567 53.9156C0.652786 54.046 0.576067 54.18 0.499347 54.3103C-0.283193 55.673 -0.191129 57.7393 1.09776 58.8268L1.41615 59.0945C1.78056 59.3998 2.19485 59.6753 2.63599 59.8913C1.89564 60.5317 1.31257 61.347 0.963501 62.3858C0.484003 63.7969 1.25887 65.7627 2.66284 66.4366C4.79181 67.4604 6.9553 67.0397 9.10729 66.3584C8.79478 69.0914 9.19971 71.9699 9.62788 74.6617L9.82462 75.8896C10.565 80.5286 11.7081 85.0895 13.1581 89.5647C14.6656 94.2037 16.5184 96.1323 18.632 100.544L18.9841 101.271C19.9308 103.207 20.9409 105.113 22.0115 106.989L22.1562 107.244C23.3623 109.375 24.5775 111.688 26.2963 113.46C26.607 113.78 26.9561 114.033 27.3282 114.231C25.6327 115.407 24.1443 116.863 22.9552 118.564C16.8138 127.358 20.1166 140.564 30.2205 144.995C33.4351 146.406 38.652 147.486 42.5916 146.335C43.3319 151.22 45.1233 155.87 48.008 159.995C49.6344 162.319 51.5025 164.508 53.551 166.488L53.6829 166.617C53.8344 166.767 53.9973 166.931 54.1702 167.105C55.8725 168.818 58.54 171.502 60.7703 170.617C61.5605 170.305 62.0093 169.791 62.0745 168.949C62.2156 167.198 60.3689 165.848 58.7867 164.692C58.2607 164.308 57.764 163.945 57.3793 163.596C55.4037 161.805 53.6085 159.843 52.0242 157.717C49.1626 153.886 46.6807 149.734 44.7359 145.382C45.5338 144.879 46.2242 144.224 46.7536 143.39C47.5476 142.143 46.4966 140.713 45.1233 140.631C43.8492 140.555 42.6512 140.811 41.4483 141.067C40.4095 141.289 39.367 141.511 38.2684 141.521C35.9975 141.543 33.7151 141.037 31.7089 139.987C27.5507 137.809 25.1302 133.606 25.0189 129.056C24.9077 124.428 27.1249 120.132 30.9609 117.377C32.8674 116.006 35.0308 115.038 37.3171 114.443L37.3802 114.426C39.2135 113.957 44.7904 112.781 45.5107 115.199C43.9917 114.253 42.2041 113.795 40.3168 114.011C40.079 114.041 39.9678 114.409 40.2516 114.458C42.4842 114.852 44.4367 115.872 45.7102 117.663C45.8445 117.846 45.9672 118.036 46.0823 118.233C46.3738 118.728 47.2523 118.925 47.6627 118.43C50.3045 115.202 50.1332 110.937 49.7922 107.026L49.6563 105.532C49.4937 103.771 49.3465 101.967 49.5846 100.22C49.8953 97.9269 50.8006 98.3141 51.6752 96.177C53.5241 91.6422 55.0393 87.2526 55.5495 82.3716C56.0415 77.6391 55.3841 73.115 54.4192 68.5055L54.185 67.4031C53.8846 65.963 53.6435 64.4422 53.9576 63.0001C56.1578 60.9071 59.3022 59.6865 62.3539 58.7329L62.8225 58.5882C68.4614 56.8722 74.1425 55.3044 79.9195 54.0944C88.3279 52.3333 96.886 51.2313 105.475 50.7994C105.996 51.4286 106.511 52.0578 107.021 52.687C108.873 54.9842 110.665 57.2814 112.314 59.72C114.232 62.5645 115.859 67.0695 119.948 67.1514C121.137 67.1737 122.365 66.4999 122.94 65.4872C124.856 62.1013 122.038 58.7068 119.799 56.0089C119.665 55.8474 119.533 55.6884 119.405 55.5321L118.651 54.6054C118.142 53.9825 117.619 53.3654 117.082 52.7577C117.654 53.145 118.222 53.5359 118.786 53.9268C121.268 55.6581 123.703 57.3856 126.032 59.3142C126.573 59.7631 127.117 60.2742 127.672 60.7963C129.862 62.8552 132.235 65.0859 135.395 64.3553C136.489 64.1059 137.616 63.0969 137.827 61.9986C138.564 58.1489 135.159 55.7978 132.227 53.7739C132.065 53.6619 131.904 53.5508 131.745 53.4405L130.779 52.7643C130.043 52.2541 129.293 51.7555 128.529 51.2759C129.277 51.343 130.025 51.4174 130.773 51.4956C131.155 51.5354 131.543 51.5922 131.932 51.6493C133.036 51.8111 134.159 51.9756 135.23 51.7637C140.01 56.7791 144.011 62.4938 147.095 68.6742C153.651 81.7945 155.791 93.7011 155.803 108.166C155.811 115.954 155.277 123.743 154.357 131.48L154.298 131.973C153.428 139.371 152.718 146.94 150.279 154.038C146.447 165.197 137.405 174.888 126.178 179.393C112.023 185.074 96.0728 182.416 83.7401 174.02C80.6522 171.917 76.6436 176.865 79.6663 179.143C91.5157 188.079 107.684 191.106 122.15 187.234C135.15 183.756 146.938 174.62 152.987 162.889C156.597 155.892 158.032 148.267 158.814 140.542C159.658 132.18 159.854 123.628 159.846 115.228L159.845 114.757C159.8 99.5293 157.899 86.4141 151.702 72.2521C148.883 65.8148 145.177 59.5823 140.52 54.1912C141.441 54.7571 142.319 55.3379 143.121 55.9261C146.194 58.1824 148.442 62.3932 152.515 62.7618C154.08 62.907 155.711 61.5518 156.079 60.1333C157.248 55.6345 152.188 51.9187 148.869 49.5187L148.295 49.1072C147.046 48.2291 145.746 47.4442 144.41 46.73C145.99 47.039 147.559 47.4188 149.098 47.8767C150.586 48.3198 151.99 48.8373 153.371 49.5298C153.713 49.7019 154.054 49.885 154.396 50.0688C155.95 50.903 157.529 51.7513 159.359 51.6445C161.76 51.503 163.743 49.3958 163.018 46.9794C161.822 43.0035 156.647 41.1972 152.813 40.0631L152.262 39.9017C150.279 39.3284 148.242 38.9226 146.19 38.6359C147.199 38.7587 148.204 38.8928 149.209 39.0454C151.15 39.3358 153.083 39.6672 155.009 40.0432C155.545 40.148 156.101 40.2851 156.666 40.4247C158.19 40.8009 159.783 41.1942 161.258 41.015C165.439 40.5012 167.211 35.6872 163.436 33.215C161.706 32.0832 159.459 31.856 157.445 31.4651L156.619 31.3081C154.966 30.999 153.305 30.7205 151.645 30.4748C149.236 30.1136 146.815 29.8046 144.391 29.5551C146.854 29.5179 148.334 29.1158 149.823 27.0904C150.601 26.0368 150.525 24.2795 149.823 23.2146C147.803 20.1569 143.95 20.5281 140.595 20.8512C140.404 20.8696 140.216 20.8878 140.029 20.9051L139.065 20.9922C136.165 21.2651 133.277 21.7014 130.439 22.3471C128.729 22.7343 127.025 23.1886 125.353 23.7135C125.211 23.5944 125.057 23.4901 124.896 23.3933C127.137 22.3844 129.446 21.5765 131.824 20.9137C133.243 20.5154 134.697 20.2585 136.117 19.8787C138.134 19.3388 139.285 18.2033 140.014 16.3343C140.39 15.3592 139.983 13.8956 139.166 13.2255C137.336 11.7291 135.534 11.4719 133.305 12.2761C131.801 12.8196 130.32 13.4488 128.863 14.1004C126.27 15.262 123.742 16.6061 121.314 18.0767C121.609 17.8069 121.922 17.5312 122.243 17.249C124.952 14.863 128.196 12.0056 125.871 8.24017C124.659 6.27435 122.203 5.80151 120.167 6.78814C118.548 7.57373 117.98 9.20074 116.749 10.2358C115.433 11.3378 114.152 12.3319 113.051 13.6573C112.966 13.7579 112.886 13.8584 112.809 13.9589C112.644 13.9105 112.472 13.8733 112.299 13.8435C113.308 12.3207 114.332 10.8129 115.414 9.33477C116.837 7.38757 115.771 4.42395 113.784 3.29584C111.562 2.03369 108.916 2.88257 107.562 4.87817C106.384 6.61316 105.245 8.38165 104.209 10.2023C103.833 10.232 103.449 10.3028 103.058 10.4145C102.809 10.4852 102.579 10.5709 102.356 10.6639L103.081 8.99597L103.183 8.94519C104.126 8.46107 104.888 7.69055 105.11 6.58337C105.548 4.41278 104.83 2.38739 102.82 1.24811C100.918 0.168401 98.2094 0.481144 96.6482 1.99274C95.4284 3.1767 94.9949 5.14252 94.3773 6.67273C93.8019 8.10613 93.2227 9.5321 92.6473 10.9618C92.091 10.8613 91.5425 10.8315 91.0055 10.8538C91.3776 9.74059 91.7535 8.6311 92.1448 7.52532C92.4516 6.94824 92.6588 6.33764 92.8084 5.65631L92.8582 5.51483L92.8487 5.51436L92.8391 5.51111C92.912 5.14624 92.9733 4.75903 93.0194 4.34576C93.2649 2.20496 91.109 0.265202 89.0951 0.0343676ZM130.941 32.9005L131.122 33.0116C132.036 33.557 133.036 33.9599 133.825 34.6835C134.905 35.6735 133.274 37.2498 132.198 36.2632L132.058 36.1426C131.392 35.5975 130.507 35.2871 129.779 34.8294C128.539 34.0494 129.694 32.1164 130.941 32.9005ZM26.5961 38.2565C25.2209 37.7226 24.6237 39.8824 25.9843 40.4107L30.9557 42.3404C32.3309 42.8743 32.9282 40.7149 31.5676 40.1866L26.5961 38.2565ZM113.151 43.3059C111.75 42.8524 112.355 40.6956 113.763 41.1517C115.887 41.8397 117.988 42.5609 120.003 43.5159C121.336 44.1473 120.168 46.0733 118.842 45.4448C117.006 44.5747 115.086 43.9325 113.151 43.3059ZM26.9296 55.8509C28.3873 55.6127 27.7693 53.4596 26.3178 53.6971C24.4374 54.0046 22.5643 54.3542 20.6835 54.6621C19.2262 54.9004 19.8442 57.0535 21.2957 56.8163C23.1761 56.5084 25.0492 56.1588 26.9296 55.8509ZM41.3579 57.8156L41.204 57.976C40.5001 58.7348 39.9943 59.6335 39.52 60.5431L39.2178 61.1281C38.5542 62.4152 36.5694 61.2826 37.2304 60.0003C37.9239 58.6555 38.6451 57.3286 39.7303 56.2362C40.761 55.1986 42.3863 56.7802 41.3579 57.8156ZM34.1548 125.218C39.2374 124.454 43.8828 127.206 46.8941 131.059C47.4426 131.763 47.082 132.757 46.5872 133.349C46.2304 133.785 45.7509 133.837 45.2101 133.904C44.5886 133.982 43.8023 133.494 43.5299 132.969C41.5927 129.216 38.1365 126.845 34.1548 125.385C34.0819 125.359 34.0589 125.232 34.1548 125.218Z" transform="translate(2.301787 0.3719879)" id="ðŸ–-Ink" fill="#000000" fill-rule="evenodd" stroke="none" />
  </g>
</svg>