<?xml version="1.0" encoding="utf-8"?>
<svg width="182px" height="212px" viewBox="0 0 182 212" version="1.1" xmlns:xlink="http://www.w3.org/1999/xlink" xmlns="http://www.w3.org/2000/svg">
  <desc>Created with Lunacy</desc>
  <defs>
    <rect width="181.825485" height="211.10199" id="artboard_1" />
    <clipPath id="clip_1">
      <use xlink:href="#artboard_1" clip-rule="evenodd" />
    </clipPath>
  </defs>
  <g id="head/Medium-Bangs-3" clip-path="url(#clip_1)">
    <use xlink:href="#artboard_1" stroke="none" fill="#FFFFFF" />
    <path d="M88.0744 0.218532C109.855 0.218532 137.135 24.3336 145.119 34.5956C151.832 43.2233 150.882 87.6705 150.882 114.037C150.882 119.551 148.314 129.987 147.382 135.262C143.965 154.591 129.081 170.801 99.621 170.801C75.6337 170.801 57.174 163.427 39.3231 144.566C35.2506 140.263 15.3617 155.667 11.2941 150.12C0.669766 150.12 -8.21398 53.773 12.6456 24.8746C33.5051 -4.02376 66.2935 0.218532 88.0744 0.218532Z" transform="translate(10.34727 14.29337)" id="âœ‹-Skin" fill="#D08B5B" stroke="none" />
    <path d="M33.7246 16.0857C46.3104 4.97212 63.0775 -0.374307 79.9942 0.0203458C88.7556 0.225118 97.4863 1.84468 105.76 4.61842C109.9 6.01088 113.908 7.82777 117.74 9.88294C119.121 10.6218 120.394 11.4876 121.62 12.4071L121.925 12.6381L121.929 12.6381C125.217 13.7848 128.151 15.8437 130.813 18.2526C136.149 17.8393 141.527 18.3047 146.687 19.9019C153.868 22.1283 160.515 26.2052 165.184 31.9947C170.622 38.7347 172.429 46.9104 171.784 55.3501L171.665 56.7839C171.027 64.2393 169.885 73.8288 163.58 78.7275C163.101 79.0998 162.571 79.3828 162.023 79.554C166.085 86.3078 169.419 93.8062 171.413 101.379C179.028 130.304 173.174 160.469 164.018 188.348C163.266 190.645 159.687 192.172 157.865 189.927C154.612 185.913 149.886 182.853 144.569 182.279C143.511 182.165 142.454 182.154 141.404 182.144C139.2 182.122 137.025 182.1 134.925 181.121C133.709 180.552 132.536 179.621 131.692 178.489C126.459 180.414 120.824 181.322 115.235 181.099C106.064 180.734 96.2588 177.651 89.9486 170.89C88.9359 169.805 88.6792 168.586 88.9125 167.488C89.7038 167.214 90.5163 167.01 91.3533 166.882C99.3552 171.459 108.176 174.518 117.655 174.71C123.132 174.821 128.475 174.077 132.917 170.758C133.877 170.039 134.761 169.244 135.578 168.389C144.864 162.591 151.411 152.744 154.523 142.196C157.423 132.359 157.067 122.117 156.069 112.027L155.543 106.703C154.776 98.8884 154.065 91.0505 153.865 83.2027L153.925 83.1997C155.886 83.0769 155.901 80.0973 153.925 80.2212C151.407 80.3794 148.898 80.262 146.392 80.1447C143.812 80.024 141.235 79.9034 138.652 80.0831C138.61 77.7461 138.437 75.4195 137.729 73.1655C137.325 71.8777 135.014 71.6238 134.77 73.1655C134.442 75.2281 134.322 77.2792 134.287 79.3511C131.437 79.3144 128.589 79.2044 125.741 79.0944C120.97 78.9102 116.199 78.726 111.425 78.8861C110.019 77.4304 109.572 74.8491 108.914 73.0535C108.818 72.7891 108.722 72.5285 108.622 72.2641C108.044 74.8301 107.225 77.3399 106.147 79.7968L104.277 79.8029C93.6687 79.8512 82.8445 80.159 72.4856 82.2973C71.7656 81.7607 71.3372 80.8248 71.2213 79.9748C70.4699 74.4438 69.3975 69.0598 67.4969 63.7889L67.225 63.0453C67.2028 62.9836 67.1793 62.918 67.1548 62.8491C65.7543 65.0431 64.0833 67.0882 62.2608 68.9926C61.1868 70.1152 60.0605 71.1885 58.9047 72.2314C57.7819 73.4414 56.6216 74.6332 55.4969 75.8469C55.541 76.0677 55.5793 76.2918 55.6104 76.5201C55.9545 79.0388 55.9902 81.5932 55.7381 84.1216C55.2824 88.6925 53.9529 93.097 51.817 97.1716L51.7494 97.5796C51.4251 99.4891 50.9636 101.462 49.886 102.9C51.2309 104.363 52.267 106.11 52.8677 108.051C53.4024 109.778 50.9393 111.276 49.6619 109.862C48.6473 108.739 47.5199 107.809 46.2817 107.067C46.2034 107.17 46.0623 107.221 45.9038 107.135C42.4553 105.277 36.5977 105.839 33.153 107.589C28.8682 109.764 27.1958 114.228 27.6714 118.751C28.1279 123.074 30.0766 128.126 33.855 130.341C35.5889 131.358 36.9391 131.443 38.7804 130.956C39.3691 130.801 40.099 130.325 40.4123 130.088L40.7206 129.848C41.9277 128.922 43.0519 128.288 44.4768 128.264C45.9342 127.823 47.3989 128.435 47.9563 129.918L47.9906 130.014C48.0369 130.148 48.0899 130.288 48.1452 130.434C48.4019 131.113 48.7087 131.924 48.6235 132.873C48.5161 134.109 47.9331 135.234 47.0623 136.138C46.9127 136.295 46.7516 136.451 46.5866 136.596C61.5853 152.356 63.511 176.914 55.8198 196.602C55.4861 197.466 55.1294 198.318 54.7573 199.164C53.4722 202.06 48.5238 201.163 47.8947 198.292C47.7067 197.432 47.4996 196.576 47.2733 195.727C46.8573 194.158 46.3807 192.605 45.8434 191.073L45.6391 190.5C45.1827 189.234 44.7569 187.957 44.2966 186.691L44.2505 186.546C44.2333 186.489 44.2141 186.423 44.193 186.349L43.4143 187.998L41.0475 192.976C39.94 195.299 36.421 194.036 36.2902 191.798L36.287 191.721C36.2755 191.308 36.2602 190.898 36.2333 190.492C36.0645 187.451 35.5237 184.494 34.6644 181.602L34.3544 181.975C29.7382 187.515 24.3205 192.707 16.8885 193.985C15.0242 194.305 12.9144 192.414 14.1956 190.586C14.725 189.83 15.2352 189.055 15.7185 188.27C15.3004 188.08 14.9053 187.883 14.5409 187.681C11.7214 186.144 9.37379 183.955 7.43278 181.471C3.31677 176.207 1.84376 169.58 1.48317 163.094C1.09958 156.24 1.721 149.013 3.6505 142.401C4.48675 139.541 5.61836 136.797 6.92643 134.135C6.83437 133.897 6.74614 133.659 6.65791 133.42C5.24627 129.6 4.0878 125.695 3.12497 121.745C1.18397 113.77 0.14058 105.542 0.0139928 97.3469C-0.216166 82.6666 2.3923 67.7517 7.88926 54.0617C13.5665 39.9436 22.1054 26.3429 33.7246 16.0857ZM127.445 33.3946C125.588 32.7654 126.39 29.8911 128.262 30.5203C134.116 32.501 138.151 36.6076 141.55 41.4998C142.658 43.0933 140 44.5826 138.903 43.004C135.976 38.7894 132.505 35.1035 127.445 33.3946ZM37.905 36.4438L37.682 36.6378C31.3362 42.2377 29.1162 51.0648 25.7718 58.4438C24.9777 60.1974 22.3348 58.6784 23.1211 56.9397C26.6272 49.2067 28.9748 40.1334 35.7338 34.3365C37.2107 33.0706 39.3895 35.1705 37.905 36.4438ZM118.907 34.102C117.141 33.3295 115.596 35.824 117.293 36.6454L117.357 36.6747C123.326 39.292 125.865 45.2193 128.297 50.7221C129.072 52.4794 131.715 50.9641 130.948 49.2217L130.509 48.2343C127.971 42.5634 125.012 36.7831 118.907 34.102ZM35.7341 114.027L36.4267 113.701C38.6114 112.689 40.5256 112 43.1069 112.884C46.5631 114.064 50.2648 117.82 47.9287 121.465C47.0695 122.809 45.5427 123.346 43.97 123.029C41.3185 122.495 40.6343 120.178 39.2888 118.276L39.0573 117.954C38.237 116.802 37.1996 115.211 35.8339 114.76C35.5231 114.656 35.3927 114.187 35.7341 114.027ZM23.9723 145.884C23.0044 144.28 25.6128 142.844 26.6553 144.437C28.3308 146.995 29.1944 149.899 30.141 152.757L30.3455 153.369C30.9631 155.201 27.9979 155.975 27.3879 154.162C26.4366 151.344 25.6618 148.469 24.0084 145.941L23.9723 145.884Z" transform="translate(-0.7672624 5.212512)" id="ðŸ–-Ink" fill="#000000" fill-rule="evenodd" stroke="none" />
  </g>
</svg>