<?xml version="1.0" encoding="utf-8"?>
<svg width="182px" height="212px" viewBox="0 0 182 212" version="1.1" xmlns:xlink="http://www.w3.org/1999/xlink" xmlns="http://www.w3.org/2000/svg">
  <desc>Created with Lunacy</desc>
  <defs>
    <rect width="181.825485" height="211.10199" id="artboard_1" />
    <clipPath id="clip_1">
      <use xlink:href="#artboard_1" clip-rule="evenodd" />
    </clipPath>
  </defs>
  <g id="head/Medium-3" clip-path="url(#clip_1)">
    <use xlink:href="#artboard_1" stroke="none" fill="#FFFFFF" />
    <path d="M132.396 33.5594C132.814 29.7897 128.267 19.733 128.377 21.7729C121.088 10.8645 106.863 6.57466 94.5897 2.97364C68.5353 -5.37438 48.19 4.70751 29.884 22.576C19.0765 32.3742 8.793 43.3191 3.36777 56.8828C-7.30508 82.7579 8.69288 112.262 33.0218 124.623C34.9851 125.654 37.1244 126.634 38.9941 127.879C49.0512 133.519 60.8611 135.47 72.0679 137.924C93.0338 142.576 119.365 140.359 131.721 120.985C140.101 107.236 137.875 90.5676 137.219 75.3087C136.233 61.9392 134.504 46.8309 132.396 33.5594Z" transform="translate(18.79746 44.30547)" id="âœ‹-Skin" fill="#D08B5B" stroke="none" />
    <path d="M107.251 0.116913C88.8955 -0.9278 68.8192 5.0456 55.236 17.3699C53.2953 19.1302 51.5101 21.0957 49.8583 23.1926C47.6971 25.1949 45.6464 27.3074 43.7307 29.5238C30.4889 44.8411 23.1698 64.1046 20.3888 83.755C18.9579 93.8708 18.5935 104.091 19.2456 114.281C19.4734 117.832 19.8884 121.377 20.3035 124.924C21.0421 131.233 21.781 137.546 21.4667 143.895C21.2404 148.4 20.4041 153.024 18.114 157.004C15.9563 160.757 12.5612 163.334 9.19944 165.997L8.52791 166.532C5.12923 169.25 1.5119 172.407 0.361108 176.711C-0.889422 181.38 1.19352 186.086 5.28651 188.707C9.37183 191.324 14.6808 191.54 19.1421 189.79C21.7363 188.772 24.0195 187.287 26.1354 185.528C28.3592 186.957 31.2139 187.678 33.9417 187.52C36.3794 187.379 39.1828 186.76 41.7671 185.668C43.9455 187.234 46.8655 187.779 49.533 187.694C52.83 187.589 56.5141 186.693 59.487 184.91C60.8403 185.271 62.2796 185.43 63.743 185.36C70.7552 185.021 75.4926 179.76 77.1152 173.409C78.876 166.502 77.6868 158.903 75.7842 152.138C73.8623 145.299 70.736 138.754 66.6507 132.878C65.9295 131.843 65.1853 130.831 64.4066 129.837C63.5627 128.109 62.6379 126.415 61.5949 124.817C60.8311 123.653 59.9876 122.428 59.0167 121.318C59.3125 120.972 59.5887 120.584 59.8798 120.178C60.4709 119.356 59.8648 118.131 58.925 117.897C58.0734 117.688 57.3446 117.293 56.4585 117.193C55.5954 117.092 54.6936 117.137 53.8305 117.077C52.3233 116.977 50.8695 116.56 49.5461 115.853C49.4463 115.8 49.3466 115.744 49.2507 115.685C49.249 115.686 49.2481 115.687 49.2472 115.687C49.2461 115.687 49.2452 115.685 49.243 115.681C49.1391 115.625 49.032 115.562 48.9323 115.503C46.1129 113.768 44.417 111.001 43.7882 107.799C43.1016 104.296 43.7115 100.394 45.2306 97.1583C46.2855 94.9136 48.4068 91.9757 50.95 91.224C51.5843 91.4382 52.283 91.8121 53.0053 92.1985C54.9562 93.2422 57.0789 94.3779 58.5683 92.7095C59.2008 92.0021 59.3278 90.896 58.5683 90.2001C58.1962 89.8613 57.7205 89.5556 57.1988 89.2842C57.4712 88.9078 57.7397 88.5318 58.0044 88.1561C58.411 87.6609 58.7946 87.1509 59.136 86.6222C59.2967 86.3727 59.4582 86.1233 59.627 85.8738L59.6462 85.8403L60.8749 84.0934C63.7357 80.0131 66.5543 75.9052 69.3436 71.7777C71.4606 70.3148 73.5478 68.807 75.6073 67.2768C85.727 59.7705 95.1708 51.3529 103.407 41.911C106.046 38.8841 108.57 35.7563 110.952 32.532C119.595 34.4163 128.44 35.6226 136.957 37.9682C142.519 39.5021 148.035 41.3712 153.071 44.1669C155.507 45.5187 157.813 47.0713 159.83 48.9701C160.778 49.8636 161.664 50.8168 162.447 51.8481C163.375 53.0726 164.039 53.6125 165.469 54.0187C165.588 54.2867 165.761 54.5511 165.983 54.8005C166.267 55.1166 166.582 55.3553 166.919 55.5262C166.847 56.3344 166.747 57.1424 166.728 57.9689C166.705 58.9516 166.705 59.9377 166.706 60.9226C166.706 61.4118 166.707 61.9004 166.704 62.3883C166.701 63.0145 166.696 63.6411 166.691 64.2679C166.674 66.5886 166.656 68.912 166.716 71.2307C166.82 75.265 167.071 79.3031 167.346 83.3355L167.679 88.171C168.415 98.9346 169.72 109.698 170.096 120.477C170.406 129.502 169.562 139.565 163.191 146.699C160.298 149.942 156.712 152.425 152.765 154.323C148.652 156.297 143.976 157.891 139.488 158.765C133.476 159.942 127.145 159.744 121.034 159.419L120.163 159.372C117.132 159.209 114.025 159.16 111.025 158.71C108.731 158.367 106.556 157.414 104.343 156.807C103.76 156.647 103.123 157.097 103.139 157.697C103.248 162.383 108.993 163.024 112.889 163.297L114.308 163.39C120.329 163.775 126.375 164.074 132.411 163.907C132.864 163.896 133.32 163.877 133.773 163.859C131.663 167.593 131.996 172.213 134.141 175.978C134.732 177.013 135.464 177.936 136.312 178.744C138.913 181.238 142.565 182.646 146.232 182.817C146.328 182.858 146.428 182.898 146.527 182.936L146.75 183.023C149.937 184.265 153.237 185.209 156.712 184.808C159.017 184.544 161.096 183.566 162.709 182.15C164.803 182.788 167.066 182.712 169.18 182.115C171.604 183.207 174.211 183.771 176.743 182.34C179.31 180.892 180.829 177.884 180.733 175.043C180.624 171.9 178.408 169.605 175.695 168.199C175.276 166.825 174.617 165.477 173.936 164.149L173.307 162.928L172.501 161.066C172.194 160.363 171.884 159.662 171.575 158.961C170.914 157.177 170.293 155.378 169.816 153.54C169.472 152.212 169.318 151.009 168.86 149.941C173.662 144.146 176.136 137.023 176.662 129.215C177.012 124.01 176.609 118.782 176.095 113.6L175.796 110.59C175.296 105.572 174.781 100.553 174.231 95.5391C173.464 88.5284 172.593 81.5289 171.63 74.544C171.17 71.1894 170.594 67.865 169.969 64.5365C169.864 63.9781 169.758 63.4196 169.65 62.8611L169.002 59.5103C168.765 58.2813 168.392 57.0605 168.082 55.8393C169.513 55.951 171.024 55.1203 171.745 53.8027C172.687 52.0828 172.169 49.7558 171.731 47.7841C171.663 47.4774 171.597 47.1793 171.538 46.8935L171.401 46.1968C170.548 41.9646 169.042 37.857 167.134 33.9617C163.137 25.8006 156.892 18.9206 148.814 14.3784C147.201 13.4707 145.535 12.636 143.832 11.8645C141.307 10.0741 138.569 8.55355 135.759 7.25454C126.775 3.10064 117.193 0.68283 107.251 0.116913ZM59.9963 102.669C58.1627 100.398 54.4725 98.2455 51.396 99.1506C49.2939 99.7645 47.3031 101.82 47.4527 104.024C47.4757 104.355 48.0204 104.478 48.0894 104.109C48.4922 101.932 50.7785 101.708 52.4855 102.602C54.0582 103.424 54.9558 105.204 56.0568 106.489C57.0273 107.617 58.9913 107.442 59.9963 106.489C61.1778 105.368 60.917 103.808 59.9963 102.669ZM231.375 129.568C231.448 129.572 231.517 129.576 231.582 129.602C231.626 129.62 231.663 129.648 231.697 129.68L232.019 129.993C232.135 130.105 232.127 130.276 232.019 130.388C231.925 130.489 231.755 130.492 231.644 130.414L231.613 130.388L231.279 130.063C231.242 130.025 231.211 129.983 231.195 129.93C231.179 129.878 231.179 129.818 231.176 129.762C231.172 129.662 231.271 129.568 231.375 129.568Z" transform="translate(-16.11063 22.33872)" id="ðŸ–-Ink" fill="#000000" fill-rule="evenodd" stroke="none" />
  </g>
</svg>