<?xml version="1.0" encoding="utf-8"?>
<svg width="182px" height="212px" viewBox="0 0 182 212" version="1.1" xmlns:xlink="http://www.w3.org/1999/xlink" xmlns="http://www.w3.org/2000/svg">
  <desc>Created with Lunacy</desc>
  <defs>
    <rect width="181.825485" height="211.10199" id="artboard_1" />
    <clipPath id="clip_1">
      <use xlink:href="#artboard_1" clip-rule="evenodd" />
    </clipPath>
  </defs>
  <g id="head/Gray-Medium" clip-path="url(#clip_1)">
    <use xlink:href="#artboard_1" stroke="none" fill="#FFFFFF" />
    <path d="M113.243 166.959C105.303 166.937 98.0348 165.436 91.1389 162.148C82.8125 159.511 73.72 158.074 66.963 152.238C63.6725 152.915 60.2999 149.636 57.5702 147.684C53.1181 163.583 29.9488 160.939 20.159 150.663C14.1703 145.755 11.7613 133.612 22.161 130.399C5.12197 119.167 -1.03247 99.763 0.138652 78.7671C1.37115 43.547 29.2687 6.93064 65.1255 0.821716C72.1991 -0.38607 79.4633 -0.258367 86.5065 1.17802C90.4396 2.00605 94.2414 3.61146 98.4506 3.53849C114.776 1.03394 132.706 1.32173 146.191 11.4624C167.742 25.4574 170.738 53.4587 168.219 75.9718L168.321 76.1825C167.069 84.4464 164.986 92.0152 161.049 96.9975C160.742 104.16 158.178 119.451 157.988 125.496C158.448 153.624 141.988 166.108 113.243 166.959" transform="translate(-2.651224 22.31952)" id="âœ‹-Skin" fill="#D08B5B" stroke="none" />
    <path d="M54.1064 2.73927C68.8127 -2.08963 78.0931 0.405039 91.8174 3.07185L92.6633 3.23527L93.9945 3.488C107.766 2.59146 119.628 -0.342371 132.925 6.05957C160.591 17.3496 165.712 48.5156 163.806 74.5419L163.693 75.0258C162.792 78.8229 161.524 82.7466 158.859 85.7649C154.386 64.3952 140.006 50.2879 122.323 36.8179L121.691 36.0757C119.495 33.5065 117.1 30.8374 114.205 29.025C114.3 28.1944 114.347 27.3619 114.332 26.5409C114.311 25.4066 112.642 24.4528 111.772 25.4389L111.606 25.6386C110.471 26.9764 104.506 33.4068 101.488 36.7065L101.111 37.1185L100.201 38.1236L98.6633 39.9098C82.0678 59.1663 64.5631 78.4976 39.8112 87.74C33.8801 84.0995 26.6853 87.3052 22.979 92.4338C12.4469 104.349 24.6557 126.815 40.8435 120.721C41.8263 128.961 46.075 138.25 51.839 144.465C45.5234 153.018 35.4191 154.561 25.9672 149.721C16.7408 145.72 10.7701 137.322 16.4339 128.032C16.5528 127.965 16.6751 127.901 16.7999 127.837C21.1424 130.649 26.2028 132.492 31.4359 132.865L31.8324 132.891C35.1011 133.04 35.0491 128.044 31.7319 127.788C9.79163 125.082 0.0509302 100.763 0.0290651 81.6925C-0.903078 48.1221 20.6593 13.5822 54.1064 2.73927Z" transform="translate(0.7091789 25.68967)" id="ðŸ’ˆ-Hair" fill="#C93305" stroke="none" />
    <path d="M89.2372 1.19728C22.0822 -12.0188 -30.8677 87.5909 20.7458 131.853C-1.0242 150.047 47.6912 177.893 60.976 152.689C63.4916 154.567 67.0104 157.06 70.2859 155.578C70.9668 155.265 71.1517 154.304 70.7892 153.715C69.287 151.273 65.751 150.433 63.487 148.774C55.7763 142.744 51.218 133.678 48.2566 124.665C49.7426 121.878 46.8949 121.559 43.355 121.163C40.4318 120.836 37.0366 120.456 35.2204 118.589C24.3961 110.626 34.8882 91.3903 47.6644 96.5957C48.7196 97.7524 49.7481 99.2328 51.3561 99.6315C52.2184 99.8456 52.874 98.7975 52.2311 98.1731C50.7071 96.9706 49.432 95.5115 47.9777 94.2344C71.6331 92.6875 87.2689 72.1447 102.615 57.0142C105.776 53.7994 108.892 50.5554 112.001 47.2982L115.11 44.0372C116.485 42.7427 117.968 41.2322 118.57 39.4574C120.771 39.8207 122.443 41.4811 124.025 43.1845L124.486 43.6831C126.59 45.8319 128.787 47.9894 131.012 50.1737C145.081 63.9865 160.242 78.872 159.636 99.4167C158.878 104.019 158.693 109.474 158.499 115.222C157.903 132.873 157.213 153.285 139.525 160.253L139.129 160.415C126.037 165.729 110.35 167.634 97.0875 161.945C95.054 161.03 93.2488 159.741 91.0708 159.19C89.3787 158.762 87.3441 160.771 88.5732 162.344C90.8987 165.321 95.0506 166.896 98.7131 168.077L99.5329 168.339C119.25 173.808 146.748 169.779 157.423 151.006C160.894 144.017 161.775 136.2 162.184 128.536L162.263 126.979C162.675 119.521 165.238 103.671 165.29 99.445C169.773 93.154 171.784 85.0606 172.52 77.493C173.163 71.7355 173.212 65.9498 172.962 60.1692C174.462 26.3724 145.445 -2.83972 109.974 2.53612C102.936 4.17281 96.0338 3.40621 89.2372 1.19728ZM99.6894 8.69419L98.3583 8.44147C96.9914 8.179 95.6693 7.91678 94.3827 7.6616C82.3099 5.26714 73.3626 3.49256 59.8014 7.94547C26.3543 18.7884 4.7919 53.3283 5.72404 86.8987C5.74591 105.969 15.4866 130.288 37.4269 132.995C40.7441 133.25 40.7961 138.247 37.5273 138.097L37.4273 138.091C32.0189 137.763 26.7836 135.859 22.3208 132.931C16.3336 142.342 22.3338 150.882 31.6622 154.927C41.114 159.767 51.2184 158.224 57.5339 149.672C51.77 143.456 47.5213 134.167 46.5385 125.927C30.3507 132.022 18.1419 109.555 28.674 97.64C32.3803 92.5114 39.575 89.3057 45.5062 92.9462C71.0235 83.418 88.8386 63.1671 105.896 43.3298L106.806 42.3247C109.793 39.0508 116.66 31.6558 117.421 30.6998C118.277 29.6249 120.005 30.5926 120.027 31.7471C120.042 32.5681 119.995 33.4006 119.9 34.2312C123.076 36.219 125.649 39.2373 128.018 42.0241C145.701 55.4941 160.081 69.6014 164.554 90.9711C167.332 87.8243 168.592 83.6935 169.501 79.7481C171.407 53.7218 166.286 22.5558 138.62 11.2658C127.848 6.07929 118.017 7.02015 107.35 8.04107C104.85 8.28032 102.304 8.52398 99.6894 8.69419ZM44.1246 106.102C43.4061 105.32 35.7951 105.441 36.9471 106.439C40.2596 106.67 42.5278 109.121 44.3989 111.142C46.3004 113.196 47.7919 114.808 49.5528 113.197C52.0031 110.084 47.0134 107.086 44.2885 106.157L44.1246 106.102Z" transform="translate(-4.986736 20.47743)" id="ðŸ–-Ink" fill="#000000" fill-rule="evenodd" stroke="none" />
  </g>
</svg>