<?xml version="1.0" encoding="utf-8"?>
<svg width="182px" height="212px" viewBox="0 0 182 212" version="1.1" xmlns:xlink="http://www.w3.org/1999/xlink" xmlns="http://www.w3.org/2000/svg">
  <desc>Created with Lunacy</desc>
  <defs>
    <rect width="181.825485" height="211.10199" id="artboard_1" />
    <clipPath id="clip_1">
      <use xlink:href="#artboard_1" clip-rule="evenodd" />
    </clipPath>
  </defs>
  <g id="head/Mohawk-2" clip-path="url(#clip_1)">
    <use xlink:href="#artboard_1" stroke="none" fill="#FFFFFF" />
    <path d="M151.437 133.941C144.956 105.426 143.693 74.1095 126.588 49.2107C119.112 39.058 107.102 25.8193 93.0711 29.9918C93.6491 23.9801 94.195 17.9657 94.6998 11.9476C94.9887 8.50521 96.3163 3.91867 93.3146 1.27189C88.3589 -2.61208 80.1549 3.33116 76.3247 6.65183C68.0267 14.3639 64.75 21.8545 53.8194 27.0051C49.4379 23.9745 45.1677 20.7945 40.7207 17.8458C36.1892 14.8412 29.7072 9.96058 25.0047 15.5073C21.0191 20.2089 23.565 27.6198 25.1454 32.7927C25.9537 35.4384 26.7569 38.3261 27.8801 41.0469C27.9749 43.1151 28.1398 45.1796 28.3819 47.2381C20.2849 48.6366 11.9516 49.8131 4.21557 52.5574C-0.00324075 54.7753 0.368849 59.8123 3.36168 62.8273C7.84057 67.037 13.5082 70.329 19.6957 72.5387C18.5721 76.3125 15.8789 79.5125 12.4925 81.6049C11.3566 82.3038 10.7195 83.3288 10.4889 84.4222C8.75315 85.2596 6.89462 85.8635 4.93136 86.2555C2.51009 86.7406 1.11111 89.5144 1.73523 91.7189C3.49364 97.0765 9.69028 94.0142 13.7158 93.6359C13.837 97.3773 13.8999 101.276 15.6502 104.742C6.29467 107.124 -1.80999 115.813 0.353122 125.603C2.31791 134.961 12.7261 137.821 20.965 139.948C21.5891 140.304 21.5872 140.655 21.7855 141.538C23.145 147.605 22.0003 154.28 19.8572 160.039C19.2729 161.609 20.1314 163.574 21.4291 164.516C28.1387 168.662 30.3631 156.035 38.0117 164.072C37.4409 163.989 36.0208 163.3 36.0937 164.298C46.0166 181.2 75.3151 182.239 93.2663 182.654C95.4206 183.671 97.9009 183.094 100.365 182.445C102.716 182.321 105.065 182.15 107.407 181.918C111.684 181.169 119.207 182.057 119.475 176.211C130.521 171.982 140.018 164.676 146.495 154.995C151.299 148.572 153.196 141.773 151.437 133.941L151.437 133.941Z" transform="translate(15.34244 2.605868)" id="âœ‹-Skin" fill="#D08B5B" stroke="none" />
    <path d="M89.1978 1.54163L89.1342 1.26259C88.9641 0.531673 88.7594 -0.0707266 87.8198 0.00672299C85.9613 0.159257 83.9294 1.06148 82.1443 1.95155L81.559 2.24675L80.4866 2.79654C72.6751 6.87242 66.9755 13.1027 62.7544 20.4058C63.0229 20.5361 63.2791 20.7077 63.5189 20.9311C64.0011 21.3805 64.2485 22.1721 64.0275 22.7987L64.0002 22.8837C63.3284 25.1969 68.8065 26.5683 69.5026 26.696L69.7865 26.7414C71.6077 27.0522 73.3217 27.8449 75.0326 28.6361C77.2459 29.6597 79.4539 30.6808 81.8817 30.653C84.1396 30.6269 85.8696 29.4512 87.3438 27.8878C87.8942 27.3033 88.3783 26.5978 88.902 25.9492C89.0312 24.2455 89.5284 22.5749 89.7509 20.879C89.9584 19.2967 90.1364 17.6901 90.2419 16.0959C90.4567 12.8426 90.3888 9.56514 90.0178 6.32415C89.8585 4.93305 89.6569 3.52902 89.3441 2.15907L89.1978 1.54163ZM31.8049 14.3728L31.9862 14.461L32.8789 14.8777C34.5489 15.6664 36.1832 16.5086 37.8155 17.3715C41.7907 19.4733 45.7068 21.6442 49.5823 23.912C49.8915 24.0929 50.3211 23.7184 50.099 23.4105C49.9311 23.1778 49.7613 22.947 49.5896 22.7182L49.6779 22.7817C50.2894 23.2317 51.2954 24.2032 49.4284 25.5065C45.0067 28.5938 41.02 32.2804 37.2457 36.0799C31.3613 42.0045 26.2092 48.6298 22.2202 55.8832C18.8575 59.4391 16.1163 63.7259 13.9637 68.1999C13.3096 67.9161 12.6633 67.6198 12.0254 67.3111C12.5521 67.2403 13.012 67.0467 13.5982 66.7289L13.7358 66.6533L13.9833 66.5137C14.8652 66.0107 15.1399 64.6659 14.322 63.9652C13.6124 63.3564 13.3101 62.8907 12.3734 62.5988C11.5505 62.3419 10.6871 62.2272 9.85466 62.0016C8.102 61.5269 6.47248 60.7752 4.95688 59.8012C3.59773 58.9275 2.35977 57.8413 1.34378 56.6005L1.08924 56.2833L0.837705 55.9745C0.357342 55.3774 -0.213152 54.5795 0.0801992 53.9291C0.382036 53.2599 1.79139 52.5509 2.4585 52.1512L2.83271 51.9238C9.41928 47.9831 17.0721 47.4516 24.4544 45.8785C24.7509 45.8156 24.652 45.4247 24.3873 45.3986C23.0309 45.2675 21.6614 45.1853 20.2871 45.1523C22.1752 44.8306 24.0609 44.519 25.9339 44.1955C25.8113 43.1529 25.7084 42.1088 25.6245 41.0634C26.4595 41.7518 27.589 41.9442 29.1557 41.1617C30.4139 40.5332 30.8386 38.9151 30.3184 37.7174C30.1437 37.3146 29.9034 36.994 29.6159 36.746L29.5282 36.6738L28.6098 32.641L26.5941 23.6834L26.5338 23.4266L26.466 23.1544L26.054 21.5888C25.3043 18.6925 24.5082 14.7553 27.1008 13.3684C28.4052 12.6711 30.1058 13.5228 31.4453 14.1938C31.5684 14.2554 31.6884 14.3156 31.8049 14.3728ZM7.91683 89.8457C8.31915 86.0179 8.99971 82.261 10.0429 78.563L9.91023 78.6478C9.33962 79.025 8.9032 79.4878 8.5884 79.9995C8.79216 80.0279 8.9924 80.0901 9.18692 80.1964C9.26249 80.2378 9.2809 80.3163 9.26978 80.3934C9.06034 81.8249 6.6429 83.0431 5.56806 83.946C4.74256 84.6389 3.94467 85.3641 3.17901 86.1196C2.68264 86.6095 1.93615 87.8475 1.29938 88.1948C1.59513 88.3449 1.94958 88.7142 2.19662 88.8561C2.89246 89.2541 3.62629 89.5348 4.41151 89.7165C5.35771 89.9362 6.30518 89.9015 7.25267 89.8668C7.47406 89.8587 7.69545 89.8506 7.91683 89.8457ZM19.7412 147.369C20.4628 151.537 22.1535 155.521 25.0048 159.039C25.1655 159.236 25.3293 159.434 25.495 159.63L25.3034 159.73L25.1076 159.829C23.6045 160.572 22.0758 160.966 20.6693 159.812C19.6547 158.98 19.8465 157.435 20.0083 156.132C20.0444 155.841 20.079 155.562 20.0984 155.305L20.1334 154.787L20.2141 153.695L20.2441 153.253C20.3327 151.848 20.3504 150.415 19.975 149.106C19.9072 148.869 19.7653 148.699 19.5881 148.593C19.6371 148.252 19.6812 147.909 19.72 147.566L19.7412 147.369Z" transform="translate(17.79692 5.659191)" id="ðŸ’ˆ-Hair" fill="#C93305" fill-rule="evenodd" stroke="none" />
    <path d="M86.3693 1.74141L87.014 1.46812C89.2373 0.53379 91.6648 -0.362216 94.0988 0.148648C96.9021 0.736904 98.5228 3.0769 99.2167 5.62799C100.02 8.57895 100.379 11.7202 100.599 14.7575C100.827 17.9032 100.739 21.0422 100.495 24.183C100.291 26.8097 99.87 29.8537 98.8627 32.3996C98.9056 32.3624 98.957 32.3348 99.0184 32.3285C102.983 31.9342 106.637 32.1639 110.424 33.4034C113.951 34.5579 117.37 36.1778 120.44 38.2245C127.07 42.6446 132.2 49.3202 135.774 56.2314C143.034 70.2725 144.566 86.1564 146.6 101.511L146.662 101.977C147.757 110.187 149.211 118.274 151.544 126.239L151.947 127.597C154.088 134.883 155.366 141.972 153.658 149.515C150.357 164.103 138.718 175.113 125.255 181.469C118.381 184.714 110.943 187.109 103.43 188.489C95.7248 189.906 87.3854 190.143 80.3598 186.274C76.8768 184.356 79.9432 179.457 83.4635 181.12C90.7281 184.552 98.9613 183.422 106.502 181.535C114.003 179.658 121.359 177.031 128.005 173.128C139.409 166.43 149.005 154.868 149.32 141.441C149.439 136.352 147.968 131.417 146.506 126.508C145.797 124.13 145.09 121.758 144.566 119.377C143.153 112.949 142.276 106.427 141.448 99.9057L140.834 95.0617C139.053 81.1697 136.823 66.8685 129.473 54.5906C122.984 43.7529 111.808 35.135 98.9463 32.8427C98.8692 32.8292 98.8182 32.7931 98.7875 32.7473C98.3939 34.8036 96.059 36.721 94.5648 37.9043C92.4478 39.5819 89.8826 40.7975 87.0924 40.7432C81.712 40.6385 77.0919 36.5889 73.404 33.1975C72.9882 32.8155 73.4386 32.2823 73.9115 32.3516C75.8232 32.6308 77.613 33.4585 79.3993 34.2846C81.6126 35.3081 83.8206 36.3293 86.2484 36.3014C88.5063 36.2754 90.2363 35.0996 91.7105 33.5363C92.2609 32.9517 92.7451 32.2462 93.2687 31.5976C93.3979 29.8939 93.8951 28.2234 94.1176 26.5275C94.3251 24.9451 94.5031 23.3386 94.6086 21.7443C94.8234 18.4911 94.7555 15.2136 94.3845 11.9726C94.2252 10.5815 94.0236 9.17747 93.7108 7.80752L93.5645 7.19008C93.5562 7.15388 93.548 7.11782 93.5399 7.08196C93.3579 6.27694 93.1985 5.57176 92.1865 5.65517C89.8366 5.84803 87.2097 7.23937 85.1548 8.28929C77.1882 12.3613 71.3963 18.6575 67.1211 26.0543C67.3896 26.1846 67.6459 26.3562 67.8856 26.5796C68.3678 27.029 68.6152 27.8205 68.3942 28.4471C67.5407 30.8686 64.5065 30.9394 62.3718 31.8877C60.0456 32.9205 57.8607 34.2481 55.7915 35.7024C51.7185 38.5647 47.9765 41.9275 44.4182 45.3673C38.8143 50.7837 33.6104 56.5483 28.5848 62.4625L27.5154 64.7809C26.4479 67.0991 25.4038 69.425 24.5398 71.8396C23.1335 75.766 21.9555 79.7799 21.0498 83.843C20.1384 87.9325 19.5442 92.1158 19.319 96.2943C19.2039 98.4299 19.322 100.565 19.4398 102.695C19.5277 104.285 19.6155 105.872 19.6063 107.455C19.9477 108.075 20.0713 108.774 19.9105 109.486C20.9854 109.781 22.0265 110.231 23.0043 110.852C23.2425 111.004 23.0913 111.366 22.8102 111.299C21.5704 111.003 20.3302 110.937 19.1157 111.052C18.4713 111.823 17.4279 112.314 16.4156 112.293L15.9836 112.283C15.6672 112.277 15.3534 112.227 15.0504 112.144C13.3418 112.908 11.7698 114.008 10.4391 115.323C7.23953 118.485 5.6944 122.627 5.92149 127.051C6.14628 131.416 8.54146 135.353 12.5086 137.449C14.2782 138.384 16.2445 138.877 18.2561 138.913C18.7339 138.921 19.2487 138.893 19.7768 138.863C21.3877 138.774 23.1238 138.678 24.3211 139.6C24.4999 139.737 24.6177 139.921 24.6902 140.123C24.801 139.668 24.9188 139.215 25.0473 138.763C25.1455 138.418 25.7374 138.378 25.8099 138.763L25.9032 139.266C27.2355 146.556 27.7042 154.061 32.9974 159.895C35.4731 162.624 38.4579 165.086 41.5198 167.175L42.0263 167.518C43.3345 168.395 44.7479 169.246 46.3074 169.563C48.0406 169.916 49.4733 169.819 51.0671 170.743C51.8163 171.178 52.2762 172.138 52.0004 172.97C50.2324 178.314 43.2644 175.914 39.7518 173.801C37.7985 172.626 35.8978 171.207 34.1317 169.644C32.5915 170.555 30.7625 171.142 29.1909 171.37C26.767 171.722 24.1934 171.233 22.2612 169.713C20.217 168.107 19.5177 165.768 19.8649 163.286C20.0376 162.051 20.3678 160.846 20.7235 159.65L21.0176 158.673C21.4465 157.25 21.7817 155.781 22.6464 154.539C23.0829 153.912 24.119 153.971 24.3434 154.754C24.807 156.372 24.6711 158.177 24.5424 159.886C24.5285 160.07 24.5147 160.254 24.5018 160.435L24.4731 160.863C24.4556 161.144 24.4171 161.454 24.3767 161.78C24.2148 163.084 24.023 164.629 25.0377 165.461C26.5652 166.713 28.2369 166.141 29.8634 165.278C29.6977 165.082 29.5339 164.885 29.3731 164.687C24.1102 158.195 22.8013 150.113 24.2429 142.212C22.8846 143.942 19.344 144.316 17.4651 144.182C14.5152 143.971 11.6125 143.1 9.09998 141.57C3.8374 138.366 0.877559 132.747 0.751739 126.769C0.628988 120.965 3.30458 115.095 8.23842 111.715C9.54189 110.822 10.9919 110.128 12.5056 109.672C11.7698 106.836 11.692 103.703 11.8515 100.638C10.0866 100.871 8.17589 100.568 6.58013 100.041L6.33244 99.9573C3.87307 99.1023 0.749557 97.3839 0.28912 94.7019C-0.230921 91.6761 3.25487 89.8307 5.71341 88.5291C5.93519 88.4117 6.14861 88.2988 6.34997 88.1897C7.48821 87.5737 8.65213 86.9974 9.86046 86.5218L10.2243 86.3821C10.4057 86.3144 10.5927 86.2365 10.7834 86.157C11.6893 85.7795 12.6793 85.3669 13.5539 85.8449C13.6295 85.8862 13.6479 85.9648 13.6368 86.0418C13.4274 87.4734 11.0099 88.6916 9.93507 89.5945C9.10957 90.2873 8.31169 91.0126 7.54603 91.768C7.04965 92.258 6.30317 93.4959 5.6664 93.8433C5.96215 93.9934 6.3166 94.3627 6.56363 94.5045C7.25948 94.9025 7.9933 95.1833 8.77853 95.365C9.7247 95.5847 10.6721 95.55 11.6197 95.5152C11.8411 95.5071 12.0625 95.499 12.2838 95.4942C12.7584 90.9795 13.6199 86.5635 15.007 82.2264C17.3335 74.9499 21.1469 67.2843 26.5871 61.5317C30.5761 54.2783 35.7282 47.6529 41.6126 41.7283C45.3868 37.9288 49.3736 34.2422 53.7953 31.155C55.7556 29.7864 57.8172 28.5534 60.0057 27.5599L60.7328 27.2363C61.9476 26.6907 63.4251 25.9825 64.8341 25.7799C65.7455 22.2697 67.3693 18.9125 69.3394 15.8696C72.0538 11.677 75.6262 8.14074 79.8063 5.31525C81.8689 3.92056 84.0669 2.72134 86.3693 1.74141ZM41.6636 16.8082C37.0404 13.6543 30.5246 10.0525 25.9111 15.3275C21.9231 19.8868 23.4868 25.7151 24.899 30.9782C24.9944 31.3337 25.0891 31.6866 25.1813 32.0364L26.1331 35.6883C26.7085 37.8981 27.2827 40.1083 27.851 42.3198C28.5503 45.0422 29.8077 48.6648 33.5213 46.8099C34.7795 46.1815 35.2042 44.5634 34.684 43.3657C34.4918 42.9226 34.2202 42.579 33.8938 42.3221L32.9753 38.2893L30.9596 29.3317L30.8994 29.0749C30.8224 28.7576 30.7274 28.401 30.6249 28.0158C29.8474 25.0958 28.6325 20.5326 31.4664 19.0167C32.7708 18.3194 34.4713 19.1711 35.8108 19.8421C35.9989 19.9363 36.1799 20.0269 36.3517 20.1092L37.2444 20.526C38.9145 21.3147 40.5488 22.1569 42.181 23.0198C46.1563 25.1215 50.0724 27.2925 53.9479 29.5603C54.2571 29.7412 54.6867 29.3667 54.4646 29.0588C50.9693 24.2153 46.6461 20.2066 41.6636 16.8082ZM14.0647 51.5295C18.8751 50.7358 23.8987 50.5775 28.7535 51.047C29.0182 51.0731 29.1171 51.464 28.8206 51.5269C21.4383 53.1 13.7855 53.6315 7.19891 57.5722L6.89568 57.7565C6.26351 58.1467 4.75942 58.8835 4.4464 59.5775C4.1205 60.3001 4.86078 61.2047 5.35917 61.8137C5.42571 61.895 5.48793 61.9711 5.54273 62.0407C6.5888 63.3684 7.88843 64.5274 9.32308 65.4496C10.8387 66.4236 12.4682 67.1753 14.2209 67.65C15.0533 67.8756 15.9167 67.9903 16.7396 68.2472C17.6763 68.5391 17.9786 69.0048 18.6882 69.6136C19.5061 70.3143 19.2314 71.6591 18.3495 72.1621L18.102 72.3017C16.9431 72.9454 16.2989 73.135 14.8269 72.8832C13.6754 72.6859 12.5756 72.2953 11.4977 71.8612C9.51724 71.0631 7.7097 70.018 6.04195 68.7168L5.79283 68.5197C2.81458 66.1302 -2.23165 60.9037 1.09222 57.0986C4.02598 53.7411 9.79107 52.2347 14.0647 51.5295ZM25.8544 121.156C21.6632 120.818 17.3619 121.713 13.8547 123.999C13.697 124.102 13.7323 124.419 13.9633 124.389C16.3316 124.087 18.7287 123.988 21.0993 124.198C20.4242 124.495 19.8028 124.925 19.3367 125.348C17.627 126.902 16.7478 129.016 17.8729 131.176C18.998 133.336 22.3579 133.154 23.5333 131.176C24.0051 130.382 24.119 129.624 24.0922 128.727C24.0826 128.423 24.0787 128.138 24.0423 127.837C24.1543 127.727 24.2636 126.841 24.3085 126.695C24.4573 126.217 24.6104 125.837 24.6541 125.326C24.6722 125.113 24.62 124.915 24.5279 124.736C24.6975 124.775 24.8674 124.814 25.037 124.857C26.805 125.306 28.5212 125.861 30.1357 126.702C30.511 126.898 30.8847 127.134 31.2618 127.371C32.4917 128.147 33.7588 128.946 35.2411 128.446C36.0351 128.178 36.693 127.491 36.6665 126.629C36.5998 124.444 34.6025 123.551 32.7416 122.827L31.9384 122.519C29.99 121.796 27.9335 121.323 25.8544 121.156Z" transform="translate(13.42475 0.0001148643)" id="ðŸ–-Ink" fill="#000000" fill-rule="evenodd" stroke="none" />
  </g>
</svg>