<?xml version="1.0" encoding="utf-8"?>
<svg width="182px" height="212px" viewBox="0 0 182 212" version="1.1" xmlns:xlink="http://www.w3.org/1999/xlink" xmlns="http://www.w3.org/2000/svg">
  <desc>Created with Lunacy</desc>
  <defs>
    <rect width="181.825485" height="211.10199" id="artboard_1" />
    <clipPath id="clip_1">
      <use xlink:href="#artboard_1" clip-rule="evenodd" />
    </clipPath>
  </defs>
  <g id="head/Cornrows-2" clip-path="url(#clip_1)">
    <use xlink:href="#artboard_1" stroke="none" fill="#FFFFFF" />
    <path d="M74.6857 0L77.9988 3.82426C76.1642 5.07902 74.4324 6.33984 72.8034 7.60669L72.8019 7.60289C80.3476 2.82454 88.7045 0 97.7322 0C115.12 0 150.439 14.4968 158.423 24.9533C162.385 30.1425 169.748 46.0729 173.567 63.3922C176.636 77.3079 181.2 116.622 176.636 131.394C170.795 150.301 151.576 167.775 131.759 167.775C111.942 167.775 81.1763 153.889 59.2796 123.459C58.2784 122.068 46.7805 120.455 38.5782 115.232L40.7317 138.259L42.3684 151.654L42.0073 152.607C36.1327 168.027 31.4775 176.072 28.0417 176.741C24.5357 177.424 17.3957 171.846 6.62176 160.007L5.2451 154.399C1.74837 140.092 0 132.413 0 131.361L0.00241576 131.169C0.0539629 128.748 0.913348 115.044 0.931057 111.356L0.931334 56.0806C12.5183 18.6935 23.5756 0 34.1031 0L74.6857 0Z" transform="translate(-15.60756 22.09192)" id="âœ‹-Skin" fill="#D08B5B" stroke="none" />
    <path d="M50.4197 0.796124C53.8265 -0.484636 57.7733 -0.242632 61.007 1.68595C67.356 1.42161 73.67 5.02561 76.9801 10.2864C77.0491 10.3609 77.1224 10.4353 77.1876 10.5098L77.8891 11.3034C78.5534 12.0612 79.2541 12.8965 79.8091 13.759C77.0902 13.8193 74.825 14.8949 73.2438 17.0674C72.1157 18.6175 74.7001 20.0905 75.8532 18.6244L75.8937 18.5708C76.8431 17.2666 78.2763 16.7613 79.8716 16.7349C80.3297 16.7274 80.6772 16.5573 80.9227 16.3064C81.0205 16.6522 81.108 17.0018 81.1881 17.3529C89.2215 14.3204 97.8816 13.5173 106.507 14.2367C106.129 14.8309 105.812 15.4675 105.569 16.1366C105.293 16.895 105.882 17.7658 106.641 17.9684C107.462 18.1873 108.204 17.7203 108.501 16.9987L108.528 16.9281C108.86 16.0167 109.401 15.2345 110.128 14.628C114.188 15.1622 118.22 16.0119 122.153 17.1072C126.88 18.4248 131.562 20.0328 136.142 21.8739C135.366 22.1692 134.696 22.6681 134.227 23.5009C133.29 25.1634 135.865 26.6525 136.842 25.0631L136.877 25.0044C136.972 24.8339 137.057 24.7314 137.119 24.6731L137.142 24.6533L137.277 24.5929L137.528 24.5229L137.625 24.4999C137.71 24.4813 137.746 24.4825 137.97 24.4705C138.24 24.4556 138.511 24.4554 138.781 24.4553L138.866 24.4552C139.569 24.4548 140.017 24.0747 140.22 23.5884C142.48 24.5784 144.711 25.6209 146.902 26.7129L147.423 26.9747C154.188 30.405 160.596 34.91 164.314 41.5384C164.56 41.9815 164.636 42.4655 164.575 42.9272C165.369 43.8505 166.136 44.8036 166.872 45.7717C169.12 48.7353 170.766 52.1047 172.323 55.4444C175.457 62.1609 177.567 69.0599 179.213 76.253C180.805 83.1855 182.09 90.1924 183.283 97.1994C184.606 104.984 185.707 112.837 185.938 120.733C186.344 134.811 183.509 148.97 175.365 160.82C168.1 171.394 157.16 179.79 144.186 182.478C130.991 185.211 117.028 182.545 106.629 174.011C104.952 172.638 105.183 169.864 106.629 168.457C108.267 166.87 110.683 167.09 112.352 168.457C122.145 176.495 136.399 177.735 148.199 173.639C159.109 169.849 167.655 161.107 172.899 151.289C179.297 139.316 180.375 125.562 179.393 112.315C178.856 105.04 177.74 97.8249 176.589 90.6206L175.894 86.284C175.137 81.5869 174.34 76.8962 173.302 72.2469L173.059 71.1637C171.79 65.5571 170.303 59.8066 168.004 54.5359C166.8 51.7696 165.35 49.1039 163.865 46.4716C163.578 45.9615 163.282 45.444 162.979 44.9228C162.572 45.0605 162.108 45.0829 161.621 44.9339C157.428 43.6681 153.12 42.8192 148.736 42.5362C146.739 42.4067 144.738 42.3866 142.74 42.4622C139.32 42.2689 135.804 42.5608 132.545 43.5787C132.227 43.3133 131.904 43.0534 131.58 42.7935C131.493 42.7868 131.406 42.7779 131.319 42.7611C130.487 42.6025 129.903 42.0292 129.551 41.305C129.532 41.2667 129.516 41.2283 129.5 41.19C129.083 40.8806 128.663 40.576 128.238 40.2756C127.204 40.5358 126.298 39.7007 126.054 38.7856C125.824 38.6348 125.59 38.4888 125.358 38.341C125.175 38.3842 124.994 38.4199 124.818 38.4326C124.056 38.4858 123.321 38.3727 122.646 38.0201C121.792 37.5737 121.246 36.8536 120.881 36.0356C119.589 36.1127 118.282 35.7058 117.127 34.9701C116.189 34.3733 115.471 33.5493 114.757 32.7269C106.058 28.9609 96.6015 26.7375 87.1228 26.1678C86.1891 26.3421 85.262 26.5495 84.3463 26.7907C84.1296 26.8481 83.8219 26.9605 83.4679 27.0953C85.5811 26.8473 87.7216 26.8227 89.8924 27.1262C100.194 28.5719 108.216 36.0576 115.122 43.1238C116.764 42.8017 118.424 44.8662 116.904 46.2333L105.052 56.893C105.343 58.0852 103.934 59.2602 102.7 58.9739C100.631 58.4914 98.5586 58.0223 96.4845 57.561C94.321 58.577 91.6009 58.4031 89.6384 56.9303C89.5471 56.8618 89.3488 56.7523 89.1766 56.6436C89.0155 56.7728 88.7987 56.9023 88.7124 56.9575C88.0147 57.4057 87.1646 57.5375 86.3495 57.4117C85.5109 57.2825 84.7541 56.8696 84.1016 56.3554C83.6862 56.0279 82.7182 54.6613 82.1796 54.5607L82.1513 54.5576C82.4295 54.6164 81.3235 55.6124 81.0209 55.8226C80.2967 56.3242 79.4961 56.5877 78.595 56.4917C77.0246 56.324 75.6744 54.9349 74.9063 53.6522L74.8484 53.5538L74.8243 53.4927L74.8039 53.5588C74.8 53.5704 74.7957 53.5829 74.7905 53.597C74.6754 53.8989 74.3141 54.2422 74.0686 54.4533C73.3689 55.0538 72.5027 55.3178 71.5775 55.161C70.7943 55.0288 70.1358 54.5695 69.6066 54.0138L69.5241 53.9253C69.3675 53.7538 68.3358 52.4085 68.4987 52.0861L68.5175 52.0589L68.4661 52.0485C67.8386 52.1982 67.3119 52.0481 66.926 51.7343C64.7725 51.2763 62.6469 50.7428 60.5893 50.0644C60.4282 50.5038 60.2705 50.9431 60.1175 51.3861C61.2411 52.06 62.2806 53.0206 63.2358 53.7057C65.0467 55.0013 66.8569 56.297 68.6637 57.5963L75.8224 62.7216L76.641 62.5083C77.6871 62.2357 78.5845 62.8268 78.9685 63.7302L79.0001 63.8084C79.1524 64.2042 79.3358 64.5702 79.5513 64.9205C81.3408 64.8512 82.856 65.9176 83.3459 67.447C83.7878 67.4373 84.2343 67.4537 84.6908 67.5025C85.9409 67.6357 86.7836 68.5368 86.5572 69.774L86.5401 69.8589L86.5098 69.9966C87.2344 70.2952 87.7599 70.8719 87.8766 71.7439C88.0707 72.0272 88.2272 72.3355 88.3273 72.6788C88.7569 74.1423 88.1468 75.8898 87.6149 77.4132C87.4995 77.7438 87.3878 78.0638 87.2911 78.3681L87.2494 78.5018C86.9016 79.6232 86.5417 80.7392 86.1776 81.8547L85.2706 84.6243C82.7557 92.3432 80.3037 100.481 82.3389 108.574C82.7728 110.286 80.5169 111.061 79.5387 109.72C77.1673 106.475 74.6052 103.417 71.915 100.482L71.7846 100.462C69.9008 100.094 69.1693 98.8029 68.3046 97.4864C67.7952 97.632 67.2474 97.6663 66.7181 97.5672C65.9516 97.4239 65.265 96.9991 64.723 96.4626C64.2638 96.0076 63.843 94.8408 63.3002 94.5515C62.9031 94.3401 62.2715 94.429 61.6532 94.5161C61.2143 94.5779 60.7821 94.6388 60.4455 94.5906C59.7861 94.4964 59.1704 94.2767 58.5731 94.0008C57.4753 95.4532 56.7476 97.1607 56.5692 99.0014C56.4998 99.7013 56.285 100.293 55.9742 100.785C57.1174 100.744 58.2643 100.822 59.3963 101.027C63.5852 101.783 66.5888 104.292 68.2766 108.03C68.3491 108.194 68.1305 108.328 68.0307 108.171C65.5262 104.43 60.0749 104.24 56.1162 105.558C51.9119 106.958 49.5528 110.551 48.7131 114.65C47.7925 119.144 48.9736 123.987 51.4942 127.815C52.6638 129.594 54.2599 131.218 56.3809 131.873C57.6561 132.267 58.8821 132.105 60.1166 131.942C61.3221 131.782 62.5357 131.622 63.8112 131.977C65.568 132.465 66.3433 134.114 66.0245 135.764C65.8979 136.411 65.6639 136.977 65.3494 137.469C66.2781 139.256 67.1369 141.095 68.2302 142.786C69.918 145.395 71.9592 147.555 74.1836 149.733C76.4814 151.982 78.8213 154.186 81.2802 156.271C83.6359 158.27 86.3364 159.692 88.8068 161.524C90.5406 162.809 91.3995 164.611 90.5441 166.673C89.8387 168.378 87.46 169.83 85.5343 169.06C81.8479 167.585 78.6219 165.076 75.6839 162.492C72.9604 160.094 70.5893 157.228 68.7979 154.115C67.108 151.181 65.8628 147.848 64.8122 144.638L64.6819 144.238C64.1871 142.711 63.6658 140.995 63.3282 139.263C61.3066 140.336 58.5635 140.492 56.4004 140.202C52.9055 139.736 49.7178 138.027 47.3088 135.537C46.186 134.378 45.1936 133.055 44.3367 131.622C44.4145 132.495 44.4609 133.339 44.5108 134.107C46.5136 136.236 47.3168 139.308 46.606 142.111C48.2816 143.785 48.7511 146.298 47.8765 148.437C49.7105 150.203 49.6414 153.012 48.8485 155.564C51.0166 157.916 51.2219 161.58 49.529 164.233L49.478 164.424C51.1873 167.2 50.8018 170.788 48.6602 173.239C50.1228 175.993 49.8965 179.696 46.2412 180.765C44.909 181.154 43.6178 180.822 42.6515 180.097C43.5338 184.356 43.9285 188.68 42.752 192.959C42.2836 194.656 40.5728 195.896 38.7737 195.896C37.27 195.896 36.1768 195.163 35.4214 194.083C35.5097 196.231 35.3754 198.391 34.9036 200.569C34.619 201.884 33.3619 202.91 32.0274 203.227C32.5088 203.754 32.7006 204.516 32.2391 205.31C30.2824 208.672 25.5545 207.277 25.235 204.056C23.8997 203.089 23.279 201.501 23.022 199.785C22.6476 197.282 22.5118 194.821 22.0876 192.35L21.9254 192.497L21.8417 192.568L21.8148 192.746C21.5716 193.968 20.862 194.823 19.941 195.333C20.1412 197.463 19.7706 199.633 18.3782 201.25C17.4506 202.329 15.8706 202.753 14.5161 202.519C14.431 202.523 14.3439 202.523 14.2534 202.511C11.1857 202.116 9.41081 199.292 10.2183 196.7C8.9831 195.23 8.46294 193.366 8.82851 191.524C6.43831 189.988 6.48703 186.614 7.31483 183.904C4.80917 181.985 3.86667 178.397 5.12564 175.545C2.8674 172.823 2.55323 169.03 4.08762 165.93C1.60306 163.949 1.61725 160.125 4.08149 158.098C2.7692 155.57 1.97783 152.541 3.28936 150.227C2.36412 149.235 1.85623 147.823 1.96326 146.458C2.12015 144.453 3.48653 143.068 5.18203 142.145L5.29941 141.519C5.69759 141.567 6.12184 141.459 6.49585 141.11C6.86602 140.765 7.24694 140.487 7.64089 140.257C8.08702 140.252 8.471 140.059 8.74105 139.762C9.47986 139.519 10.2743 139.411 11.1554 139.402C13.0584 139.381 13.1256 136.619 11.3545 136.44C11.0749 136.167 10.6897 135.994 10.272 135.994L9.94488 135.995C9.18011 136.002 8.40799 136.048 7.69843 136.343C7.23735 136.535 6.88175 136.823 6.62129 137.176C6.57257 137.71 6.27337 138.243 5.62547 138.682C4.87707 139.19 3.85363 139.249 3.05268 138.79C1.93142 138.146 1.91991 137.142 2.04918 136.051C2.18805 134.879 1.91838 133.742 1.64732 132.598C1.36579 131.411 1.08279 130.217 1.25437 128.972C1.40359 127.892 1.77414 126.96 2.37831 126.206C1.10438 124.356 0.879594 121.966 1.86045 119.935C-0.182973 117.801 -0.536267 114.512 0.766816 111.944C0.785612 111.882 0.800189 111.818 0.820519 111.757C0.967821 111.321 1.17074 110.927 1.39438 110.551C0.250493 108.627 0.258932 106.267 1.42162 104.352C-0.339481 102.359 -0.395486 99.1883 1.17074 97.0415C1.17995 96.8636 1.19913 96.6856 1.21486 96.5076C0.495995 94.6963 0.668615 92.637 1.58043 90.9527C1.25514 90.2248 1.00426 89.4411 0.843919 88.6064C0.433085 86.4544 0.644448 84.362 1.2582 82.2621C1.35756 81.9308 1.4688 81.5994 1.58772 81.2681C1.60766 79.8298 1.66405 78.3979 1.73847 76.9686C1.44679 75.7587 1.39976 74.429 1.39333 73.1946L1.39149 72.3942C1.39039 72.2381 1.38852 72.0765 1.3866 71.9103C1.36344 69.9075 1.33261 67.242 2.55784 65.6432C1.70586 63.7727 2.05609 61.4159 3.47809 59.9334C2.47996 58.2673 2.27052 56.2214 3.27363 54.3729C3.43474 54.0754 3.62155 53.7984 3.82639 53.5363C3.74354 51.8433 4.11064 50.0976 5.0401 48.4151C5.64388 47.3197 6.54572 46.3715 7.61788 45.6127C7.59985 45.3882 7.58872 45.164 7.59256 44.9433C7.61136 43.9581 7.83653 42.9689 8.21552 42.0459C7.5354 40.9193 7.22009 39.6493 7.61788 38.2807C8.06285 36.7319 9.23321 35.399 10.6943 34.6469C10.8121 33.1867 11.0472 31.735 11.3833 30.3028C10.4853 28.3619 11.2003 25.8004 13.2299 24.657C12.9652 23.1059 13.2038 21.4975 14.3669 20.286C14.8077 19.827 15.327 19.4788 15.8859 19.248C15.6167 17.6884 15.9205 16.0658 17.0318 14.7959C17.9394 13.759 19.2842 13.129 20.6529 13.0363C21.18 10.3236 23.8502 8.29527 26.6674 8.45686C27.0195 7.26247 27.8607 6.22111 29.1657 5.69317C29.4998 5.55802 29.8374 5.46904 30.1738 5.41952C32.4647 3.1767 35.8752 1.65654 38.8278 0.878033C41.7894 0.100252 44.7917 0.0249657 47.3345 0.929254L47.5197 0.997174L47.7269 0.971112C48.6249 0.87431 49.5221 0.818463 50.4197 0.796124ZM31.5925 21.68C33.2818 20.9201 35.1515 21.0865 36.5451 22.3419C37.9967 23.6491 35.8213 25.7505 34.3751 24.4477L34.3646 24.4394C34.3469 24.426 34.315 24.4043 34.2806 24.3809C34.2034 24.3284 34.1138 24.2675 34.1457 24.274L34.0543 24.2432C33.9826 24.2211 33.9098 24.2018 33.8361 24.1856C33.8885 24.1873 33.9143 24.1878 33.9134 24.1871L33.8083 24.1806C33.7759 24.1802 33.7205 24.1815 33.6628 24.1828C33.5651 24.185 33.4605 24.1874 33.4483 24.1819C33.4099 24.1926 33.3585 24.2081 33.3065 24.2237C33.1543 24.2695 32.9967 24.3169 33.1411 24.2519C32.3865 24.5915 31.4931 24.4664 31.042 23.7176C30.6519 23.0706 30.8402 22.018 31.5925 21.68ZM77.8973 28.8202C76.5159 29.614 75.6218 30.9215 75.079 32.435C74.8066 33.1945 75.3893 34.0639 76.1508 34.2668C76.969 34.485 77.7168 34.0198 78.011 33.2972L78.0381 33.2265C78.1834 32.8218 78.4159 32.3438 78.7032 31.983C78.9487 31.6751 79.3304 31.3668 79.6181 31.2644C80.3097 31.018 80.8 30.4096 80.7359 29.6992C79.5985 30.0809 78.5425 29.6218 77.8973 28.8202ZM93.3703 30.2767C94.7689 28.9185 96.9381 31.0254 95.5399 32.3825C94.5379 33.3557 93.7516 34.116 93.1286 35.2981C92.7496 36.0166 91.7147 36.2214 91.0292 35.8323C90.2861 35.4105 90.1016 34.5103 90.4787 33.7947C91.1976 32.4309 92.2643 31.3501 93.3703 30.2767ZM29.2416 43.8326L28.9451 43.767C27.0983 43.3743 24.647 43.1693 23.5318 44.9462C22.5152 46.565 25.0796 48.0387 26.1356 46.5084C26.1517 46.5079 26.1702 46.5081 26.1918 46.5098L26.2265 46.5137L26.6999 46.4764C27.2895 46.4723 27.8538 46.5736 28.4257 46.705C30.346 47.1462 31.1657 44.2749 29.2416 43.8326ZM61.3875 58.8216L61.3483 58.8336C61.2367 58.8705 61.077 58.9426 61.0419 58.9724C60.8327 59.1497 60.8111 59.1686 60.7491 59.2825L60.6166 59.5324C60.3976 59.9703 60.2592 60.4421 60.1393 60.9982C59.9682 61.789 59.0134 62.2413 58.2516 62.0384C57.4177 61.8161 57.0099 60.993 57.1798 60.2063C57.5841 58.3358 58.5497 56.5096 60.5716 55.9492C62.4773 55.4216 63.2833 58.2963 61.3875 58.8216ZM40.2121 63.7127C38.0501 62.2257 35.4793 62.1564 33.4918 63.9454C32.0576 65.2367 34.1649 67.3055 35.6111 66.0957L35.6619 66.0516C35.7144 66.0039 35.7677 65.9622 35.8207 65.9224C36.08 66.1369 36.4095 66.2728 36.7862 66.2731C36.8847 66.2734 36.9829 66.2731 37.0812 66.2751L37.2285 66.2802L37.3075 66.2865L37.3175 66.2884L37.3865 66.3169C37.4065 66.3256 37.4277 66.3352 37.4483 66.3444C37.5575 66.3934 37.6489 66.4344 37.4479 66.3122C37.5012 66.3394 37.5511 66.3714 37.6017 66.4027L37.6899 66.4805C38.2684 67.0114 39.2692 67.0814 39.8435 66.4943C40.8604 66.1607 41.4001 64.5292 40.2121 63.7127ZM69.5066 67.5911C70.0958 66.9868 71.0778 67.0576 71.6766 67.5911C72.2984 68.1455 72.2286 69.1314 71.6766 69.6973C71.6663 69.7079 71.6568 69.7176 71.648 69.7264L71.5869 69.7855C71.5324 69.8697 71.4756 69.9523 71.4254 70.0394C71.3984 70.0862 71.3726 70.1336 71.3473 70.1812L71.1983 70.468C70.9735 70.8935 70.69 71.2796 70.3509 71.6273C69.7613 72.2316 68.7797 72.1609 68.1809 71.6273C67.5587 71.073 67.6289 70.0875 68.1809 69.5212C68.2014 69.5 68.2187 69.4826 68.2333 69.4681L68.2703 69.4329C68.3251 69.3488 68.3815 69.2661 68.4318 69.1794C68.4587 69.1326 68.4846 69.0852 68.5099 69.0376L68.6592 68.7505C68.8836 68.3253 69.1671 67.9389 69.5066 67.5911ZM12.4464 72.9982L12.2662 72.9745C9.67501 72.6528 5.51548 72.9488 5.20104 76.1502C5.02727 77.9232 7.66643 78.0345 8.18735 76.5185C10.1007 76.1837 12.0299 76.1197 13.9302 76.323C14.6552 75.6081 14.661 74.2339 13.4542 73.891C13.2838 73.4465 12.9282 73.0656 12.4464 72.9982ZM26.0843 96.0448C26.6149 96.0199 27.1538 96.0486 27.6939 96.1059L28.1692 96.1059L28.2707 96.1096C28.4716 96.1241 28.6595 96.1811 28.8347 96.2656C29.1276 96.3148 29.4193 96.3685 29.7082 96.4233L30.5659 96.588C32.505 96.9585 31.6791 99.8286 29.75 99.4604C28.9602 99.3093 28.1665 99.1611 27.3652 99.081C27.0648 99.0513 26.7633 99.0319 26.4614 99.0248C25.7357 99.6618 24.2657 99.6146 23.8173 98.4202C23.258 96.9295 24.81 96.1044 26.0843 96.0448ZM54.9131 115.233C52.4834 114.968 52.4638 111.243 54.9131 111.509C60.0844 112.072 64.7766 114.304 68.2132 118.135C69.8117 119.918 67.1793 122.525 65.5508 120.822L65.5008 120.768C62.7681 117.721 59.0801 115.686 54.9131 115.233ZM21.4287 120.328C23.6532 118.824 26.3169 118.817 28.7221 119.899C30.5139 120.706 28.9534 123.272 27.1735 122.471L27.0887 122.439L26.9466 122.492C25.8548 122.882 24.7181 122.867 23.5888 122.55C23.3816 122.652 23.1768 122.765 22.9773 122.9L22.92 122.937C21.3156 123.938 19.8381 121.403 21.4287 120.328ZM30.1208 148.486C28.866 148.256 27.4603 148.052 26.14 148.191L25.9208 148.218L25.5146 148.218C25.1617 148.218 24.8199 148.356 24.5456 148.572C24.1114 148.747 23.7002 148.982 23.325 149.297C21.8301 150.555 24.0086 152.654 25.495 151.404C25.5776 151.334 25.6734 151.277 25.7799 151.23L25.8617 151.196L27.5031 151.196C27.6524 151.196 27.7977 151.166 27.9393 151.123C28.4721 151.194 28.9685 151.296 29.3049 151.358C31.2352 151.71 32.0622 148.84 30.1208 148.486ZM41.7063 156.75C43.372 155.84 44.8555 158.368 43.1946 159.357C41.954 160.096 40.5195 160.192 39.1013 160.202L38.7744 160.203C36.7966 160.205 36.8 157.226 38.7744 157.225C38.8769 157.225 38.9803 157.226 39.0843 157.226L39.086 157.226C39.9634 157.233 40.8831 157.239 41.646 156.785L41.7063 156.75ZM20.8771 168.805C19.6945 168.807 18.6803 169.081 17.8034 169.885C17.2188 170.421 17.2042 171.457 17.8034 171.991C18.4085 172.53 19.2866 172.562 19.9078 172.048L20.0275 171.944C20.0418 171.932 20.053 171.921 20.062 171.913C20.1119 171.882 20.1621 171.85 20.215 171.823L20.115 171.886C20.061 171.924 20.134 171.892 20.2164 171.855C20.2503 171.839 20.2857 171.824 20.3146 171.812L20.3458 171.799L20.3558 171.797L20.4352 171.791C20.5756 171.784 20.7166 171.784 20.8573 171.784L20.8771 171.784C21.6796 171.783 22.4483 171.1 22.4115 170.295C22.3739 169.488 21.7372 168.805 20.8771 168.805ZM26.027 185.661C26.2414 184.904 27.1237 184.382 27.9147 184.621C28.7007 184.859 29.3198 184.889 30.1583 184.889C30.9904 184.89 31.6927 185.57 31.6927 186.379C31.6927 187.183 30.9873 187.869 30.1583 187.868C29.1272 187.867 28.0881 187.792 27.0988 187.493C26.3047 187.253 25.8007 186.461 26.027 185.661Z" transform="translate(-18.79746 8.563275)" id="ðŸ–-Ink" fill="#000000" fill-rule="evenodd" stroke="none" />
  </g>
</svg>