<?xml version="1.0" encoding="utf-8"?>
<svg width="182px" height="212px" viewBox="0 0 182 212" version="1.1" xmlns:xlink="http://www.w3.org/1999/xlink" xmlns="http://www.w3.org/2000/svg">
  <desc>Created with Lunacy</desc>
  <defs>
    <rect width="181.825485" height="211.10199" id="artboard_1" />
    <clipPath id="clip_1">
      <use xlink:href="#artboard_1" clip-rule="evenodd" />
    </clipPath>
  </defs>
  <g id="head/Bun-2" clip-path="url(#clip_1)">
    <use xlink:href="#artboard_1" stroke="none" fill="#FFFFFF" />
    <path d="M138.288 77.842C137.376 66.3956 138.789 54.3982 134.242 43.5184C126.313 25.4668 104.082 19.448 86.8461 12.5754C79.9413 10.5952 56.7073 10.3184 48.6226 7.69757C30.3248 1.76593 25.9531 -5.30154 11.4139 5.99252C8.9596 7.92185 7.42406 10.0187 6.30395 12.8837L6.34998 12.896C6.03006 14.0904 6.373 15.2821 7.09378 16.1924C0.789728 22.4466 -1.84828 31.8229 1.38622 40.1482C11.9417 61.8128 11.4453 73.5269 8.04433 96.8174C3.60304 118.561 13.7519 126.503 30.5596 138.334C29.8753 139.622 29.7333 141.333 30.6256 142.469C50.0614 168.978 86.7076 181.634 118.106 168.18C130.851 162.674 136.541 149.5 139.788 137.613C143.571 124.303 144.733 110.278 141.654 96.7202C140.412 90.4497 138.794 84.2246 138.288 77.842Z" transform="translate(14.19388 12.91195)" id="âœ‹-Skin" fill="#D08B5B" stroke="none" />
    <path d="M0 45.3711L11.5566 52.8434L52.9235 10.5161L39.1575 0C39.1575 0 14.1826 17.9151 9.27208 22.6433C4.36151 27.3716 0 45.3711 0 45.3711Z" transform="translate(13.27392 12.91195)" id="bandana" fill="#9FD8E5" stroke="none" />
    <path d="M78.7312 0.0514023C81.0904 -0.292433 82.872 1.12821 83.7195 3.13059L83.7641 3.23841C84.0364 3.91974 84.3395 4.58246 84.6655 5.23401C90.5691 2.42304 98.9929 3.14533 102.729 8.83801C105.108 12.466 104.069 16.6989 103.104 20.6317C102.987 21.1061 102.872 21.5762 102.764 22.0403L102.104 24.881C103.379 25.6687 104.341 27.0794 104.296 28.5401L104.29 28.6526L104.022 32.614C104.873 31.7763 105.652 30.8641 106.346 29.8924C106.826 29.0398 107.344 28.2021 107.9 27.3904C111.172 22.6136 118.518 26.7649 115.818 31.8805C115.3 32.8671 114.717 33.8017 114.091 34.7027C113.385 36.0318 112.806 37.3982 112.361 38.8018C113.639 39.3417 114.621 40.5405 114.724 42.35C114.966 46.5758 112.68 50.1016 109.043 52.3168C107.973 52.9684 106.868 53.095 105.867 52.853C105.691 53.0838 105.514 53.3146 105.345 53.5492C106.795 54.6922 108.103 55.9953 109.227 57.4399C112.611 56.9484 116.013 56.7176 119.416 56.7101C123.574 54.7332 128.553 54.7741 133.022 55.515C135.899 55.9916 138.661 56.9186 141.492 57.5851C144.476 58.285 147.507 58.3111 150.525 58.7876C154.331 59.3871 157.668 61.0923 159.766 63.8139C162.072 63.8809 164.496 64.7968 166.506 66.0403C171.186 68.9369 175.839 71.8745 180.507 74.7897C182.299 75.9089 182.969 77.6956 182.64 79.6885L182.617 79.8159L182.46 80.6425L182.829 81.1512C184.258 83.1094 185.812 85.1604 186.737 87.3218C188.448 89.7158 189.994 92.2252 191.363 94.8127C193.208 98.2902 194.731 101.976 195.763 105.759C196.02 106.716 196.277 107.68 196.446 108.655C196.629 109.696 196.461 110.561 196.28 111.491C196.222 111.792 196.162 112.1 196.112 112.423C195.859 114.099 195.767 115.796 195.498 117.475C195.318 118.589 194.344 119.136 193.323 119.166C193.707 121.999 193.983 124.851 194.248 127.681C194.62 131.724 194.873 135.778 195.092 139.833C196.22 141.423 198.525 142.681 200.19 143.117C202.495 143.716 204.912 143.065 207.091 142.301C208.46 141.821 209.584 143.493 208.917 144.61C206.818 148.117 202.33 148.102 198.932 146.549C197.493 145.894 196.231 144.945 195.295 143.709C195.353 144.885 195.414 146.062 195.475 147.242L195.533 148.311C195.648 150.388 195.785 152.476 195.922 154.572C196.612 165.077 197.314 175.766 195.299 186.071C191.114 207.482 172.858 223.786 150.556 225.052C138.853 225.716 129.108 222.361 124.262 220.49C119.416 218.618 121.299 214.802 124.663 215.893C130.459 217.772 141.105 220.572 150.633 219.363C173.089 216.514 192.13 205.62 190.174 158.702C189.897 152.048 189.043 145.392 188.858 138.738C188.682 132.234 188.747 125.726 188.452 119.225L188.353 117.007C188.238 114.416 188.115 111.812 187.915 109.218C187.673 108.212 187.474 107.192 187.178 106.206C186.377 103.521 185.329 100.911 184.029 98.4205C183.741 98.6327 183.419 98.7853 183.07 98.8449C180.419 99.3066 177.934 99.1763 175.452 98.104C174.293 97.6088 173.273 96.9498 172.321 96.1345C171.869 95.751 171.566 95.3787 171.328 94.9915C170.127 95.0101 168.927 94.6601 168.175 93.8224C167.317 92.8676 167.175 91.8814 167.511 90.9684L167.546 90.8774L167.461 90.8476C166.449 93.3905 164.431 95.6281 162.218 97.1397C158.719 99.5374 154.342 100.23 150.146 100.293C145.512 100.36 140.625 99.6677 136.052 98.9603C134.844 98.7742 133.643 98.5619 132.466 98.2753C132.42 98.3199 132.374 98.3721 132.324 98.4167C128.4 102.062 122.88 103 117.9 100.919C115.023 99.7161 112.611 97.7801 110.478 95.5611C110.447 96.7227 110.386 97.8843 110.282 99.0348L110.239 99.4916C110.027 101.634 109.618 103.907 107.95 105.453C105.253 107.959 101.341 106.954 98.2295 105.323C98.2334 105.401 98.2334 105.483 98.2334 105.565C99.0734 108.335 99.9174 111.109 100.761 113.883L100.943 114.474C101.557 116.443 102.23 118.415 102.415 120.476C102.768 124.415 100.067 128.306 95.5559 126.984C93.1896 126.294 91.2939 124.363 89.475 122.816L88.3289 121.854C91.2941 131.262 93.3502 141.006 93.542 150.824C93.5535 151.356 93.0816 151.758 92.56 151.777C91.3401 151.825 90.0282 151.591 88.8007 151.118C88.7316 151.114 88.6626 151.11 88.5897 151.099C86.4953 150.805 84.5504 150.072 82.8357 148.988C83.2309 150.206 83.4073 151.512 83.3037 152.879C83.2769 153.21 82.7437 153.326 82.667 152.961C81.6773 148.236 75.9809 144.666 71.0708 145.57C65.8002 146.542 61.9181 150.943 60.9668 155.95C59.9465 161.33 61.899 167.552 65.5163 171.703C67.1811 173.617 69.3715 175.214 71.9723 175.616C73.1614 175.798 74.3966 175.735 75.5512 175.408C76.0422 175.266 76.5025 175.069 76.9705 174.883C77.6533 174.615 78.4512 174.574 79.0957 174.291C80.5572 173.654 82.0264 174.961 81.286 176.417C80.6416 177.686 80.0623 178.542 78.9921 179.198C79.859 180.225 80.6454 181.655 80.9369 182.038C82.4253 183.989 83.9367 185.832 85.6322 187.616C87.3584 189.425 89.2418 191.078 91.2327 192.608L92.0695 193.25C93.9872 194.726 95.657 196.094 97.0097 198.212C98.0761 199.883 96.6951 202.151 94.6966 202.125C88.4439 202.039 83.8983 196.708 80.6607 192.05C80.2004 191.384 79.767 190.68 79.3642 189.958C79.2184 190.185 79.0573 190.397 78.877 190.59L79.2338 191.521C80.2925 194.262 75.7315 196.052 74.4081 193.495C73.4453 191.64 72.329 189.876 71.0861 188.208C70.3535 188.107 69.6361 187.675 69.2372 187.117C68.2283 185.698 67.0967 184.265 66.1416 182.753C65.6122 182.266 65.0675 181.796 64.5113 181.339C64.3502 181.476 64.1852 181.614 64.0279 181.759C63.3298 183.304 62.4667 184.715 61.3965 186.045L61.167 186.328C59.1167 188.836 56.4461 191.403 53.1414 192.016C52.1326 192.203 51.1621 190.985 52.0558 190.207C54.3689 188.189 57.104 186.815 59.2368 184.563C60.2876 183.453 61.2524 182.231 62.082 180.95L62.2711 180.653C62.4092 180.434 62.5511 180.214 62.6968 179.991C61.734 179.354 60.7712 178.714 59.8084 178.073C57.1578 180.271 53.7062 181.277 50.7745 183.097L50.4831 183.282C47.8324 185.002 45.0398 181.197 47.165 179.108C49.5076 176.815 51.4632 174.079 53.5385 171.53C52.5626 169.785 52.1007 167.722 51.9277 165.637C51.8594 165.047 51.8061 164.456 51.7528 163.866C50.2644 163.888 48.7684 163.393 47.5025 162.54L47.023 162.209C45.4848 162.686 43.8699 162.916 42.324 162.875C38.6875 162.771 37.1991 158.739 39.4738 156.189C41.7946 153.582 45.8569 153.013 49.0753 154.279C49.1789 154.227 49.2863 154.171 49.3898 154.115C49.2364 153.43 49.2705 152.808 49.4451 152.263L49.3944 151.93C48.6867 150.876 48.2214 149.672 48.0449 148.401C47.9053 147.394 47.9337 146.396 48.1738 145.401C48.2536 145.07 48.4197 144.727 48.5467 144.382C48.2851 143.741 48.1313 143.078 48.0837 142.412C48.0104 142.327 47.9375 142.241 47.8685 142.147C46.2716 139.971 46.5942 137.348 48.114 135.587C48.1209 135.475 48.1316 135.363 48.1474 135.252C48.0584 135.058 47.9767 134.861 47.9022 134.663C46.4173 133.209 45.3271 131.46 45.5305 129.292C45.6498 128.016 46.1899 126.868 47.0073 126.01C46.8623 125.593 46.8485 125.111 47.0242 124.709C45.7196 121.341 45.8845 117.285 46.8236 113.518C46.6164 112.944 46.509 112.323 46.532 111.664C46.6394 108.868 49.1328 106.299 52.0865 106.332C52.4421 106.335 52.7751 106.38 53.095 106.446L53.0992 106.379C53.2124 105.54 53.4502 104.765 53.7974 104.069C53.6267 104.009 53.4686 103.923 53.3302 103.809C51.4375 104.789 49.4347 105.538 47.3349 106.048C45.7909 106.423 44.2093 104.72 45.1691 103.313C45.6145 102.661 46.1059 102.075 46.6352 101.539C45.8826 101.543 45.1185 101.593 44.3455 101.689C42.9569 101.864 41.4072 100.945 40.5057 99.7012C39.3856 100.759 38.2617 101.812 37.1377 102.866C34.2914 105.543 29.9913 103.573 29.5425 100.044C28.6947 99.8241 27.9045 99.4518 27.2102 98.9194C22.7221 100.811 17.8926 101.849 12.9557 102.047C9.41125 102.188 7.33982 98.1822 8.99696 95.3526C10.1094 93.4538 11.4904 91.7486 13.0823 90.2668C10.6119 91.0003 8.06099 91.5289 5.45636 91.8677C4.04855 92.0502 2.05768 90.9183 1.49379 89.6636C-0.662033 84.8385 -0.477906 79.8085 2.00397 75.1136C2.09987 74.9275 2.20728 74.7487 2.31085 74.57C2.56786 73.9483 2.84789 73.334 3.15093 72.7308C0.0974908 69.6406 -0.167192 65.0462 1.47844 61.2002C0.818655 60.1615 0.56548 58.9105 1.01429 57.7787C2.29167 54.5209 4.13294 51.5126 6.45755 48.9288C6.23506 48.5118 6.03942 48.0687 5.87448 47.5922C4.56641 43.7387 6.08162 39.0885 9.1389 36.4041C11.0607 34.7138 13.2702 33.7011 15.6294 33.0533C16.6229 31.3481 17.9003 29.8105 19.3886 28.5148C19.4462 28.3919 19.5037 28.2691 19.5689 28.1462C21.8859 23.9093 26.1054 21.6382 30.6281 21.1132C30.8045 19.4564 31.9553 17.8741 33.6278 17.3603C34.0881 15.9269 34.7748 14.5568 35.7184 13.3132C37.2029 11.3549 39.6695 10.4315 41.9941 11.716C43.2676 12.4197 44.4875 13.2276 45.6306 14.1211C46.144 13.8874 46.7261 13.7362 47.3828 13.688L47.5486 13.6781L51.3308 13.4919C52.9151 12.8106 54.4955 12.0958 56.0798 11.3995C57.0311 10.6363 58.0937 9.99963 59.2521 9.52679C60.564 8.99438 61.9066 8.69281 63.2531 8.59228C64.3463 8.24603 65.4473 7.94073 66.5674 7.70245C69.1988 7.14398 71.9531 6.83124 74.6843 6.8573C74.7402 6.17118 74.7679 5.47685 74.7626 4.77432L74.7572 4.42237C74.6958 2.16987 76.5486 0.371592 78.7312 0.0514023ZM74.3091 65.7961C80.0788 61.3346 87.8301 56.9208 95.532 56.7243C97.313 57.3873 98.9594 58.2854 100.409 59.4206C94.4863 61.2784 88.9165 64.1378 83.9335 67.7865C77.3625 72.6005 71.8962 78.3862 66.9325 84.7342C65.133 87.0332 63.4544 89.4138 61.9089 91.8707L61.8939 91.9381C61.485 93.3953 60.7822 94.7699 59.9782 96.0723C59.7668 95.8586 59.4995 95.6973 59.1776 95.6229C58.1788 95.3917 57.2715 94.9043 56.5722 94.2237C56.7403 93.5979 56.9708 92.9921 57.2811 92.4292L57.4039 91.9087C57.799 90.2109 58.0944 88.5095 58.5662 86.8266C59.2824 84.2781 60.1301 81.7482 61.1175 79.2701C64.9554 74.2941 69.2897 69.6774 74.3091 65.7961ZM51.8143 107.926C50.7209 107.969 51.0871 109.23 51.6492 108.177C51.6956 108.091 51.7524 108.005 51.8143 107.926ZM76.3801 155.929C73.2937 154.488 70.4184 153.983 67.0246 153.791L66.9784 153.791C66.5719 153.81 66.4247 154.412 66.7983 154.603C69.4413 155.954 72.1226 157.976 74.3053 159.942C76.4688 161.893 78.2947 165.02 81.4901 165.232C82.6562 165.31 83.3966 164.268 83.504 163.278C83.8837 159.796 79.3726 157.369 76.6452 156.055L76.3801 155.929ZM56.3722 174.586L56.1172 175.042C56.0759 175.116 56.0352 175.19 55.9952 175.262C56.536 175.221 57.0807 175.233 57.6178 175.292L57.6163 175.237C57.5472 175.214 57.4782 175.193 57.4122 175.162C57.0416 174.989 56.6971 174.796 56.3722 174.586ZM74.9444 180.456C75.3242 180.412 75.7039 180.348 76.0798 180.27C76.0683 180.743 76.122 181.253 76.2141 181.759C75.9034 181.61 75.5927 181.45 75.2858 181.283C75.1745 181.007 75.0595 180.732 74.9444 180.456Z" transform="translate(-38.36124 -36.11479)" id="ðŸ–-Ink" fill="#000000" fill-rule="evenodd" stroke="none" />
  </g>
</svg>