<?xml version="1.0" encoding="utf-8"?>
<svg width="182px" height="212px" viewBox="0 0 182 212" version="1.1" xmlns:xlink="http://www.w3.org/1999/xlink" xmlns="http://www.w3.org/2000/svg">
  <desc>Created with Lunacy</desc>
  <defs>
    <rect width="181.825485" height="211.10199" id="artboard_1" />
    <clipPath id="clip_1">
      <use xlink:href="#artboard_1" clip-rule="evenodd" />
    </clipPath>
  </defs>
  <g id="head/Pomp" clip-path="url(#clip_1)">
    <use xlink:href="#artboard_1" stroke="none" fill="#FFFFFF" />
    <path d="M127.897 34.7077C126.416 26.0108 131.277 24.2063 127.897 15.9391C120.386 0.620763 99.9149 1.28079 84.8932 0.102996C68.1384 -0.520256 51.1803 1.62658 35.7343 8.14436C32.0449 9.70101 28.4962 11.5318 25.0945 13.6117C22.153 15.4106 22.5573 18.8306 24.412 20.6963C11.0379 39.0782 18.6872 63.752 8.01591 83.101C6.0446 86.5597 3.43729 89.6611 1.72376 93.2599C-0.880873 98.7302 -1.04774 106.568 4.8589 110.201C13.178 114.535 17.8203 105.954 21.9079 118.393C42.3222 161.764 83.3668 164.207 122.331 141.595C125.702 139.775 129.143 137.718 131.688 134.858C137.466 128.547 136.786 119.672 136.914 111.791C136.985 107.172 136.997 102.553 136.95 97.9332C136.769 79.2215 130.379 53.2652 127.897 34.7077Z" transform="translate(19.94788 29.78514)" id="âœ‹-Skin" fill="#D08B5B" stroke="none" />
    <path d="M126.149 0.765982C100.486 -1.81043 73.803 2.11748 50.2769 12.4753C37.8295 17.9557 26.3979 25.4988 16.3787 34.5274C14.549 34.0285 12.5466 33.9243 10.8818 34.2035C8.15822 34.6614 5.66483 36.173 4.0307 38.3325C1.54499 41.6088 1.63322 45.7862 3.52052 49.1072C3.22093 49.3414 2.94512 49.6099 2.69195 49.8999C0.701073 52.2049 0.908216 55.1797 2.36972 57.7002C2.77856 58.4069 3.51407 59.1889 4.29251 60.0166C5.88053 61.705 7.64722 63.5833 7.18388 65.3997C6.87317 66.632 5.74539 67.7862 5.08943 68.8697C4.27237 70.2174 3.58189 71.6248 2.96814 73.0694C-1.80988 84.2668 -0.000776375 96.2981 2.69465 107.725L2.93724 108.748C3.47048 111.037 3.96131 113.721 4.8401 116.194C-1.67723 124.907 -0.112155 139.68 10.548 144.613C13.168 145.827 16.0834 146.512 18.9949 146.419C20.5139 146.367 22.0982 146.166 23.5367 145.682C24.254 145.44 24.9636 145.131 25.5199 144.636C26.8548 151.49 29.9044 157.804 33.7365 163.743C35.8962 167.082 38.4011 170.418 41.3011 173.192C44.366 176.118 49.6559 178.978 53.3925 175.378C54.6656 174.153 54.2556 172.25 52.8551 171.342C50.2313 169.629 47.454 168.579 45.1371 166.401C42.5593 163.977 40.1196 161.36 37.818 158.69C34.5358 154.885 31.6514 150.734 28.8299 146.567L26.5287 143.161C26.5338 143.15 26.5381 143.139 26.5419 143.128L26.5633 143.057C26.5694 143.022 26.5752 142.988 26.5808 142.955L26.6365 142.606C26.6495 142.579 26.666 142.545 26.6855 142.504L26.7781 142.301C27.4835 140.987 26.6054 139.475 25.0711 139.412C24.5779 139.412 24.5097 139.397 24.8639 139.365L25.0097 139.352C24.4842 139.055 23.9164 138.906 23.3027 138.906C22.5853 138.906 21.9025 139.144 21.2159 139.308C20.2032 139.55 19.3014 139.721 18.2584 139.717C16.1179 139.71 14.0541 139.11 12.2474 138.005C8.07383 135.451 6.86933 129.974 7.54446 125.491C7.73626 124.222 8.05081 123.023 8.49962 121.906C9.05584 122.364 9.67727 122.755 10.3716 123.071C10.4752 123.12 10.5595 122.982 10.4636 122.918C9.78467 122.494 9.20161 121.988 8.70331 121.422C9.95346 118.585 12.0671 116.288 15.0707 114.675C16.9656 113.659 19.1061 113.175 21.2121 113.246C21.2193 113.305 21.2312 113.365 21.2427 113.424C21.4732 114.589 22.0425 115.176 22.871 115.881L23.168 116.131C24.3 117.069 25.75 116.984 26.663 116.101L26.6856 116.131C26.9775 115.852 27.2269 115.591 27.4417 115.334C27.8671 115.643 28.2703 115.99 28.6504 116.373C28.792 116.514 29.0298 116.332 28.9339 116.161C28.6343 115.636 28.2971 115.141 27.9212 114.683C28.4084 113.894 28.5963 113.06 28.6002 111.838C28.6027 110.578 28.5665 109.314 28.5304 108.052C28.5172 107.591 28.504 107.131 28.4928 106.671C28.4118 103.346 28.2357 100.021 28.1015 96.6964C28.0685 95.864 27.9986 95.0021 27.9277 94.1287C27.7592 92.0528 27.5854 89.9113 27.8905 87.9433C28.1432 86.3151 29.1568 85.9334 30.5528 85.5379L32.3674 85.029C36.6337 83.8166 40.9551 82.2986 41.8803 77.4031C42.4548 74.3547 41.5012 71.506 40.544 68.6464C39.8586 66.599 39.1713 64.546 39.0417 62.41C38.7655 57.9236 40.1848 53.3553 42.8125 49.6434C45.3596 50.2837 47.8951 50.9651 50.4844 51.4677C54.0672 52.1676 57.6612 52.7931 61.2674 53.3591C68.3528 54.4723 75.4605 55.3617 82.6223 55.8796C96.9765 56.9146 111.438 56.3934 125.677 54.3122C127.703 54.018 129.72 53.6718 131.723 53.2436C131.711 53.575 131.696 53.9101 131.677 54.2448C131.566 56.1142 131.512 57.972 131.508 59.841C131.443 60.3288 131.458 60.8575 131.551 61.4345L131.658 62.1084C131.734 62.5775 131.926 63.0057 132.21 63.3817C132.893 73.7321 134.332 84.0266 135.701 94.3173L136.027 96.7789C137.653 109.088 139.193 121.411 140.488 133.757C140.603 134.851 140.74 135.963 140.878 137.086C141.494 142.102 142.137 147.337 141.006 152.201C139.886 157.03 136.71 160.783 132.755 163.784C123.46 170.846 111.806 175.508 100.46 178.367C94.3834 179.897 87.8123 181.424 81.5022 181.353C79.2428 181.327 76.8453 181.063 74.7781 180.117C73.012 179.313 71.903 177.864 70.891 176.306L70.6962 176.003C69.8523 174.681 67.3896 174.756 67.0482 176.465C66.0317 181.524 70.7503 184.674 75.2495 185.895C80.3705 187.286 85.704 186.639 90.8806 185.873L91.7749 185.739C105.186 183.721 117.948 179.372 130.073 173.531C135.44 170.947 140.43 167.466 144.09 162.819C148.168 157.637 149.43 151.505 149.073 145.082C148.674 138.005 147.523 130.908 146.603 123.883L146.316 121.71C145.452 115.194 144.55 108.682 143.541 102.184C141.612 89.7375 139.521 77.2169 136.061 65.0717C136.138 65.0646 136.215 65.0572 136.291 65.046C138.478 64.7258 139.767 63.1062 139.955 61.0176L140.308 57.0971L140.499 57.1089C146.846 57.4877 155.094 56.7273 158.022 50.347C159.043 48.1243 159.3 45.6559 158.824 43.4257C163.059 42.3605 166.991 40.1382 170.021 37.0666C171.594 35.4727 171.483 33.1685 170.021 31.5526C169.154 30.5883 168.23 29.7246 167.256 28.9501C170.021 27.9967 172.614 26.2099 174.057 23.7191C175.913 20.5135 175.185 16.5893 172.588 13.9943C170.356 11.7614 167.191 10.6725 164.254 9.57556L163.211 9.18445C151.316 4.75963 138.816 2.03565 126.149 0.765982ZM21.0737 122.26C17.4295 121.958 14.4758 123.157 11.8017 125.447C11.5374 125.67 11.8286 126.02 12.1201 125.972C14.7708 125.517 17.9048 126.027 20.4369 126.82C23.256 127.707 24.7716 129.568 27.0425 131.217C29.5359 133.027 32.9998 129.494 31.3 127.085C29.1484 124.036 24.7371 122.564 21.0737 122.26Z" transform="translate(14.57705 0.0001435803)" id="ðŸ–-Ink" fill="#000000" fill-rule="evenodd" stroke="none" />
  </g>
</svg>