<?xml version="1.0" encoding="utf-8"?>
<svg width="177px" height="210px" viewBox="0 0 177 210" version="1.1" xmlns:xlink="http://www.w3.org/1999/xlink" xmlns="http://www.w3.org/2000/svg">
  <desc>Created with Lunacy</desc>
  <defs>
    <rect width="176.171677" height="209.2501" id="artboard_1" />
    <clipPath id="clip_1">
      <use xlink:href="#artboard_1" clip-rule="evenodd" />
    </clipPath>
  </defs>
  <g id="head/doctor-nurse-2" clip-path="url(#clip_1)">
    <use xlink:href="#artboard_1" stroke="none" fill="#FFFFFF" />
    <path d="M157.844 68.2717C156.999 66.6121 156.776 66.8642 158.237 65.3928C163.601 57.3778 150.163 51.1951 152.272 42.7273C153.603 34.0444 143.596 31.02 139.074 24.4573C135.987 16.4367 134.324 10.2175 124.706 10.5471C118.602 9.47244 112.243 16.1042 107.252 13.4899C105.451 12.1927 105.016 10.4231 104.37 8.83989C98.9299 -7.11811 79.5756 1.37553 71.7311 12.0237C68.5455 16.6238 61.4864 17.7277 57.0092 13.4663C48.5801 7.02012 36.7636 12.5138 34.3782 22.2994C30.9719 32.769 24.9646 34.8865 14.721 34.5729C3.89383 36.8724 4.75685 50.0699 11.6632 56.4611C17.5193 67.5288 0.133648 68.5352 3.51362 82.7609C4.25435 86.5296 5.95883 90.4371 8.30482 93.8619C8.59881 95.8245 9.29272 97.7166 10.3081 99.4278C10.7753 100.215 11.3235 100.96 11.91 101.664C11.7885 101.726 11.6695 101.793 11.5569 101.869C10.2018 102.782 9.54991 104.471 10.032 106.047C10.1803 106.533 10.4311 106.987 10.7545 107.383C9.76474 107.624 8.82404 107.999 8.05171 108.444C5.58977 109.859 4.1016 112.571 3.82805 115.336C-1.31921 122.56 -1.72916 134.5 5.39984 139.291C8.90729 141.711 13.6398 143.021 15.5795 147.539C17.287 151.714 14.1973 154.934 16.0259 158.846C22.0756 172.255 44.2048 168.384 52.7272 159.76C66.3437 180.082 92.4052 180.65 114.572 182.146C142.979 180.848 160.981 143.896 152.119 119.558C152.119 119.558 151.791 118.626 151.793 118.626C154.759 109.596 151.509 99.1784 151.692 89.8237C160.005 89.5444 161.367 74.3038 157.844 68.2717" transform="translate(-0.7426373 4.428242)" id="background" fill="#8FA7DF" stroke="none" />
    <path d="M98.7788 9.61778C65.9424 -14.3596 12.6504 9.56575 3.14044 47.5589C2.18406 48.7562 1.88848 50.3964 1.71401 51.8883L1.67829 52.2055C1.21556 53.1522 0.49563 55.1542 2.16889 55.2989C7.17976 56.1245 12.1947 58.4299 17.2528 59.2617C28.0346 62.2174 39.3951 61.9145 50.1977 59.2141C54.7436 57.8439 63.8261 56.791 66.6441 53.2023C73.0249 52.3355 79.5009 52.6573 85.8186 53.8223C90.431 54.6896 94.8353 56.1178 99.3734 57.2397C101.86 58.2044 104.507 55.4886 102.239 53.4647C101.726 49.273 101.642 44.8838 101.557 40.461C101.35 29.6883 101.14 18.7159 94.7201 9.90933C95.4263 10.4448 96.099 11.0242 96.7346 11.6475C98.054 12.9503 100.098 10.9242 98.7788 9.61778ZM2.33463 61.2844C1.16795 61.1663 0.662108 62.1409 0.811148 63.0484C-0.298669 68.1559 -0.0562606 73.4617 0.293637 78.6637L0.450255 80.9399C0.747592 83.625 3.20322 103.214 7.67925 98.5368C11.2198 93.9388 29.2841 64.3371 17.6739 63.4584C12.608 62.4657 7.47149 61.79 2.33463 61.2844Z" transform="translate(48.65991 62.43808)" id="âœ‹-Skin" fill="#D08B5B" fill-rule="evenodd" stroke="none" />
    <path d="M143.052 24.3149C142.265 15.5083 133.18 12.1216 125.409 11.7304C118.886 9.77219 111.908 10.7007 105.44 12.4817C92.9306 14.2451 80.9141 18.5227 68.2966 19.7047C66.1183 17.4159 62.2711 17.5547 59.2996 16.7752C50.572 14.885 41.9069 12.7213 33.2537 10.5225C27.4813 9.05993 21.7539 7.44535 16.0134 5.86693C11.0687 3.92611 4.72244 4.11063 0.941443 0.133772C0.525173 -0.24155 -0.108525 0.238581 0.158706 0.762998C-3.41936 7.32172 54.6214 19.6114 61.4501 20.9274C63.3475 30.6714 57.9906 41.4335 53.0132 49.6153C51.9558 51.0974 50.769 52.4865 49.4875 53.7826C48.0975 55.0156 43.2226 58.519 47.0482 59.5065C50.9928 67.6592 60.2652 70.9031 68.5891 72.8967C83.5225 78.1446 99.7433 81.3516 114.636 74.1544C126.21 70.7079 130.44 65.2512 135.294 54.6576C139.965 45.275 144.373 34.997 143.052 24.3149" transform="translate(10.2949 106.5667)" id="ðŸ˜·-Face-Mask" fill="#FFFFFF" stroke="none" />
    <path d="M106.509 4.87923C103.25 1.22492 97.8964 -0.354974 93.0952 0.0664785C87.3975 0.5658 82.4272 3.64809 78.2065 7.3024C76.195 9.0443 74.4329 10.9785 72.5913 12.8865C70.9745 14.5608 68.8504 16.6991 66.2866 16.3865C63.4649 16.0422 61.1613 13.6618 58.7064 12.4329C56.2865 11.2209 53.509 10.7464 50.8092 10.8172C45.4984 10.9563 40.7566 13.3149 37.8115 17.7372C35.2849 21.531 34.2528 26.0836 31.7934 29.9103C30.5598 31.8293 28.8858 33.3535 26.6294 33.9495C24.9149 34.4021 23.1359 34.4092 21.3547 34.4163C19.8954 34.4221 18.4347 34.428 17.0069 34.6787C11.889 35.5774 7.75713 39.8498 6.71646 44.8641C6.12402 47.7205 6.43176 50.6703 7.51592 53.3751C8.63911 56.1769 10.6104 58.0505 12.2194 60.515C14.6152 64.1857 11.8695 66.7528 9.2699 69.1832C8.57106 69.8366 7.88278 70.4801 7.30779 71.1325C3.82895 75.0788 2.94847 80.7174 3.67582 85.7745C4.31004 90.1844 6.55996 94.2233 8.95061 97.9519L9.25645 98.4262C10.5227 100.38 11.9916 102.076 13.679 103.557C11.8563 104.478 11.7831 108.108 13.169 109.962C10.7394 110.127 8.53913 111.63 6.90452 113.604C4.52249 116.479 2.43816 119.874 1.18675 123.387C-1.39339 130.628 0.156851 139.282 6.59195 144.017C9.5865 146.221 14.3517 147.528 15.922 151.198C16.5202 152.595 16.2131 154.074 15.9096 155.535C15.7767 156.174 15.6446 156.81 15.5893 157.435C15.4384 159.149 15.7112 160.844 16.3435 162.441C19.3692 170.083 27.6564 173.142 35.4027 172.688C39.9601 172.42 44.732 171.489 48.9891 169.824C51.0255 169.027 53.3414 167.891 55.0756 166.293C57.9342 170.234 62.0055 173.403 66.0333 176.129L66.5821 176.498C71.0916 179.511 76.0813 181.678 81.3478 183C86.2364 184.227 91.2711 184.896 96.2778 185.509L99.0717 185.849C104.582 186.511 110.135 187.105 115.679 187.344C120.157 187.537 124.395 186.96 128.522 185.184C133.091 183.218 137.297 180.335 141.088 177.151C148.618 170.826 154.181 162.371 157.036 152.999C160.041 143.131 160.803 131.297 157.314 121.355C158.328 118.937 158.359 116.523 158.314 113.926L158.304 113.437C158.243 110.312 158.012 107.192 157.762 104.077C157.59 101.923 157.458 99.7649 157.333 97.6063L157.183 95.0162C157.724 95.0125 158.282 94.8084 158.78 94.3261C165.275 88.0338 166.929 77.7658 162.913 69.7674C165.515 66.8903 165.325 61.9517 163.502 58.641C162.079 56.0569 159.733 54.0453 158.487 51.346C157.624 49.4748 157.619 47.4198 157.614 45.3721C157.611 44.2729 157.609 43.1758 157.473 42.1102C156.833 37.0751 153.376 34.05 149.61 31.1194L148.431 30.2071C146.79 28.9328 145.118 27.557 144.045 25.7769C142.482 23.1866 142.228 20.0345 140.75 17.3866C135.844 8.59259 123.323 9.64954 115.501 13.3349C115.35 13.4059 115.193 13.4846 115.03 13.5659C113.924 14.1173 112.577 14.7897 111.483 14.0246C110.702 13.4785 110.262 12.452 109.913 11.546L109.314 9.97566C108.609 8.14105 107.87 6.40494 106.509 4.87923ZM98.3889 3.94699C93.1208 2.51509 87.9405 4.38616 83.5882 7.36069C81.3184 8.91179 79.2144 10.7674 77.2947 12.727C75.6865 14.3689 74.2061 16.1237 72.3634 17.5202C70.6121 18.8477 68.5382 19.8072 66.2866 19.6633C63.7459 19.5013 61.5575 18.0734 59.4717 16.76C57.0766 15.2528 54.8042 14.3051 51.9346 14.2117C49.2526 14.1246 46.5171 14.6228 44.2064 16.0296C40.3715 18.3653 38.812 22.933 37.1224 26.8283L36.8785 27.3857C35.3703 30.7976 33.5189 34.2906 30.1368 36.1811C25.1319 38.98 18.7667 36.2439 14.0558 39.5623C9.34933 42.8778 8.72975 49.5554 11.553 54.2855C12.0629 55.1398 12.6598 55.9703 13.2552 56.7985C15.3612 59.7286 17.4474 62.6311 15.5938 66.4626C13.8581 70.0497 9.85777 71.8333 8.03473 75.3585C5.50068 80.2587 6.01619 86.4941 8.41978 91.3342L9.02504 92.5507C10.4497 95.3988 11.9844 98.2872 14.1253 100.644C16.769 103.555 20.1255 105.875 23.4717 107.996C24.8448 108.373 26.2312 108.712 27.6123 109.055L28.6468 109.313C34.0305 110.67 39.4301 111.963 44.8148 113.314L46.7739 113.81C46.4706 108.393 47.7027 102.811 49.2734 97.6833C51.0392 91.9195 53.6357 86.2757 56.8005 81.1393C68.107 62.7909 87.7636 50.488 109.28 48.0493C127.236 46.014 148.606 52.3487 155.505 70.5601C156.14 72.2386 154.139 73.1641 152.874 72.4485C155.215 76.9701 156.166 82.1176 156.626 87.1444C156.692 87.8703 156.753 88.5973 156.809 89.3247C161.046 83.9662 161.547 76.2025 157.845 70.352C157.21 69.3501 157.566 67.7923 158.614 67.1954L158.689 67.1553C160.376 66.2947 160.414 64.2394 159.886 62.6193C159.107 60.2268 157.341 58.2461 155.941 56.2012C154.308 53.8146 153.321 51.3099 153.128 48.418C153.073 47.5798 153.092 46.7176 153.112 45.8507C153.158 43.8922 153.203 41.9098 152.377 40.1266C151.55 38.3407 150.028 36.9749 148.529 35.7377L148.374 35.6102C144.763 32.6449 141.038 30.1306 139.28 25.6179C138.316 23.1412 137.998 20.3264 136.281 18.1993C135.031 16.6522 133.241 15.6949 131.341 15.1771C127.044 14.0054 122.426 14.8782 118.316 16.3367L118.042 16.4359C117.674 16.5722 117.308 16.7182 116.941 16.8642C114.948 17.6577 112.957 18.4507 110.784 17.6745C108.782 16.9596 107.661 15.1664 106.886 13.3053C106.066 11.3368 105.589 9.186 104.211 7.49871C102.747 5.70588 100.604 4.54891 98.3889 3.94699ZM84.5191 27.9653C83.9819 26.4183 81.173 18.4401 79.249 20.6739C79.0713 20.8798 79.2913 21.1869 79.5444 21.0544C80.1256 20.7491 81.4077 25.8075 81.748 27.2122L82.0468 28.4846C82.4669 30.2637 82.9194 32.0467 83.5154 33.7714C84.7664 37.3929 86.818 40.6549 90.1645 42.6861C90.9506 43.1633 92.0749 42.867 92.5261 42.0713C93.5282 40.304 93.3904 38.509 93.0128 36.6031L92.9513 36.3012C92.4596 33.9471 92.4823 31.5025 91.9567 29.1797C91.8266 28.6059 91.3022 28.1135 90.7376 27.9689C90.4061 27.8844 90.1411 27.8877 89.8096 27.9689C89.2614 28.104 88.6968 28.6118 88.5905 29.1797C88.2749 30.86 88.5161 32.6253 88.8198 34.3114L88.9001 34.7494C89.0807 35.7196 89.5598 36.9404 89.7535 38.104C87.3395 35.7511 86.0579 32.3764 84.9452 29.1914L84.5191 27.9653ZM127.523 23.1381C128.01 23.0776 128.308 23.3573 128.336 23.8116C128.349 24.0153 128.079 24.0493 127.979 23.9072C127.949 23.8644 127.481 26.0266 127.46 26.2152C127.41 26.6702 127.381 27.1264 127.337 27.5818L127.236 28.616C127.169 29.3051 127.107 29.9942 127.073 30.6873C126.979 32.5987 126.98 34.5311 127.097 36.444L127.131 36.9652C127.136 37.0294 127.213 37.5062 127.296 38.0483C127.407 37.7081 127.511 37.3652 127.602 37.0202C128.049 35.3214 127.788 33.45 129.017 32.1015C129.734 31.3143 130.912 31.645 131.452 32.413C132.354 33.697 131.942 35.5637 131.484 37.1197L131.126 38.3006C130.688 39.7295 130.127 41.4101 128.96 42.3699C127.808 43.3183 126.178 43.363 125.085 42.3053C124.031 41.2856 124.011 39.722 123.98 38.3617C123.887 34.1854 124.406 29.9167 125.861 25.9816L125.978 25.6716C126.231 25.0125 126.57 23.2565 127.523 23.1381ZM39.9213 43.1526L39.8848 43.1476C39.6252 43.1286 39.54 43.4913 39.8009 43.5866C47.2239 46.2939 53.2204 51.8112 60.6088 54.6418L60.6871 54.6718C62.6608 55.4285 67.2193 57.1764 67.9631 53.9668C68.2908 52.5534 67.3042 51.5407 66.3902 50.6025C66.3027 50.5127 66.2158 50.4235 66.1308 50.3347L65.9969 50.1933C64.6195 48.7189 63.7799 46.5039 62.032 45.4569C61.3552 45.0513 60.5375 45.5795 60.5115 46.3235C60.4656 47.6284 61.1036 48.5886 61.8588 49.5682L62.1881 49.9903C62.2783 50.1053 62.6092 50.4643 63.0172 50.9072C63.9131 51.8793 65.1813 53.2554 65.0934 53.3409C64.6754 53.7489 62.1104 52.7419 61.0549 52.3275C60.9657 52.2925 60.8872 52.2617 60.8217 52.2363L60.2539 52.0227C58.948 51.5208 57.6804 50.9276 56.432 50.2988C51.0212 47.5749 45.9539 44.3664 39.9213 43.1526ZM76.4193 64.1163C91.431 52.7894 113.108 47.7084 131.259 53.674C139.715 56.4541 147.848 61.9293 151.531 70.1764C148.156 65.1241 143.078 62.3312 137.383 60.428C125.513 56.46 111.467 57.3487 99.5914 60.7886C87.5705 64.2705 76.6337 70.9654 68.2492 80.2138C63.8189 85.1011 60.0364 90.6098 57.2173 96.5637C54.5164 102.268 52.0693 108.706 51.75 115.07L47.8828 114.09C48.848 109.798 49.6356 105.473 50.9536 101.26C52.5127 96.2769 54.4878 91.428 56.9839 86.8341C61.8223 77.9305 68.3005 70.2424 76.4193 64.1163ZM131.111 62.3079C119.199 59.9862 106.806 61.1122 95.4413 65.2954C84.4581 69.3379 74.7679 76.3793 67.3899 85.3941C63.846 89.7245 60.8545 94.5431 58.4486 99.5832C56.0131 104.685 54.6676 110.031 52.9951 115.384C59.9126 117.129 66.861 118.815 73.8689 120.059C78.7823 120.93 83.7761 121.492 88.7743 121.357C93.5607 121.228 98.1995 120.225 102.786 118.915C111.588 116.399 120.14 113.223 129.419 113.109C137.342 113.011 146.301 114.52 153.347 118.468C153.318 117.399 153.341 116.33 153.363 115.256L153.363 115.255C153.384 114.275 153.405 113.291 153.387 112.3C153.33 109.165 153.128 106.035 152.918 102.908C152.516 96.9209 152.552 90.8733 151.901 84.9091L151.842 84.3856C151.263 79.4049 150.127 74.2399 147.014 70.1782C143.144 65.1297 137.086 63.4726 131.111 62.3079ZM29.9625 70.1013L31.4874 69.9976C38.3468 69.5427 46.5213 69.2601 52.0988 73.6862C53.1725 74.5391 53.5784 75.9474 52.5151 77.0073C51.5843 77.9346 50.1356 77.9117 48.8383 77.8913L48.8379 77.8913C48.5476 77.8867 48.265 77.8822 47.9974 77.8886L46.8922 77.9148C45.1672 77.9601 43.4205 78.0418 41.7374 78.3813C41.2208 78.4856 40.6896 78.6519 40.1517 78.8204C38.9332 79.202 37.68 79.5944 36.4823 79.302C35.9252 79.1662 35.5888 78.5414 35.7401 78.0037C36.4507 75.4783 39.9745 74.8923 42.1941 74.5989C43.7128 74.3985 45.2225 74.3487 46.7527 74.3708C47.0942 74.3756 47.4354 74.3874 47.777 74.3967C47.0931 74.0191 46.387 73.6855 45.6641 73.3884C44.1109 72.7507 42.5071 72.2628 40.8673 71.8997C37.2885 71.1084 33.6141 70.8855 29.9625 70.6896C29.5797 70.6689 29.5834 70.1279 29.9625 70.1013ZM14.3691 104.245L14.4085 104.171C14.568 104.342 14.7267 104.515 14.8902 104.682C14.7148 104.541 14.5423 104.393 14.3691 104.245ZM13.7021 106.051C13.769 105.518 13.9263 105.022 14.1738 104.559C17.165 107.138 20.8836 108.636 24.6326 109.815C28.3296 110.979 32.0547 112.064 35.7805 113.139L40.1858 114.408C49.4855 117.076 58.8987 119.567 68.3514 121.616C69.9689 121.967 71.5965 122.296 73.2307 122.592C73.2523 123.011 73.2682 123.428 73.2775 123.847C70.1306 123.366 66.9209 123.169 63.7684 122.715C60.5549 122.252 57.3533 121.709 54.167 121.088C51.7876 120.623 49.4171 120.114 47.0566 119.562C46.9919 119.431 46.8221 119.414 46.7042 119.48C42.6385 118.521 38.604 117.433 34.609 116.216C29.7795 114.746 24.8816 113.233 20.196 111.343C17.7641 110.362 13.7887 108.722 13.7021 106.051ZM6.54481 118.508C8.17496 115.608 10.6265 111.423 14.2566 110.862C14.6829 111.051 15.1713 111.117 15.7221 111.012C17.7628 112.421 20.3369 113.506 21.9894 114.152L23.1238 114.588C30.5674 117.417 38.1621 119.792 45.8898 121.688C45.7055 122.669 45.6512 123.691 45.5594 124.663L45.5116 125.209C45.3501 127.21 45.3366 129.219 45.3427 131.227C45.355 135.403 45.6534 139.561 46.2589 143.694C46.8506 147.734 47.7731 151.737 49.1676 155.581C49.8678 157.51 50.6773 159.406 51.6054 161.239C51.9254 161.87 52.2625 162.718 52.6932 163.49C52.4565 163.721 52.2104 163.944 51.9473 164.151C50.7754 165.072 49.4032 165.779 48.0184 166.326C44.932 167.545 41.5535 168.267 38.2739 168.733C31.7693 169.657 23.3079 168.685 20.2561 161.911C19.6622 160.592 19.3845 159.136 19.4815 157.694C19.5297 156.976 19.6587 156.271 19.7875 155.567C19.9819 154.504 20.1759 153.443 20.0914 152.346C19.8469 149.178 17.6581 146.67 15.1486 144.904C12.2942 142.896 8.8514 141.805 6.53329 139.088C4.44265 136.638 3.29679 133.336 3.16336 130.149C2.98682 125.924 4.50732 122.132 6.54481 118.508ZM139.22 116.79C134.119 115.831 128.828 115.684 123.679 116.345C114.338 117.545 105.673 121.576 96.4355 123.249C89.1842 124.562 81.8433 124.056 74.6251 122.835C75.4257 124.603 75.5409 127.146 75.2146 129.351C75.3094 134.414 74.1546 139.47 72.1661 144.226C70.6349 147.887 68.5654 151.321 66.1525 154.475C64.9498 156.048 63.6701 157.559 62.2964 158.988C61.6308 159.68 60.9458 160.352 60.2407 161.005C59.8899 161.329 59.5346 161.65 59.174 161.965L58.9521 162.155C63.3694 165.088 66.9929 169.051 71.5165 171.893C76.1943 174.832 81.2736 176.561 86.6747 177.668C91.5784 178.673 96.5651 179.338 101.537 179.93L105.128 180.354C109.208 180.834 113.326 181.281 117.418 181.35C125.781 181.491 133.323 176.674 139.34 171.267C146.167 165.132 151.685 157.462 154.662 148.764C155.855 145.282 156.664 141.669 157.091 138.014C157.156 135.364 157.18 132.717 156.823 130.042C156.563 128.102 156.153 126.201 155.55 124.337C155.341 123.693 155.042 123.076 154.728 122.464C154.314 122.321 153.954 122.063 153.743 121.698L153.696 121.684L151.968 120.964C147.806 119.237 143.72 117.636 139.22 116.79ZM47.6436 122.109C47.7021 122.817 47.7095 123.534 47.733 124.241L47.7495 124.663C47.8461 126.746 47.8394 128.83 47.9145 130.914C48.0598 134.937 48.3293 138.978 48.944 142.959C49.5513 146.894 50.4775 150.788 51.8427 154.534C52.531 156.421 53.339 158.262 54.2745 160.042C54.4329 160.344 54.6324 160.656 54.8421 160.976C54.8733 160.926 54.9078 160.878 54.9413 160.829L54.711 160.102C54.672 159.981 54.6322 159.861 54.5912 159.742C53.9683 157.934 53.4041 156.106 52.9031 154.261C51.9453 150.737 51.2034 147.146 50.7503 143.522C50.2698 139.682 50.0854 135.802 50.1802 131.934L50.2165 130.48C50.2866 127.996 50.4388 125.257 51.18 122.904C49.9985 122.65 48.8195 122.385 47.6436 122.109ZM52.3934 128.583C52.4948 126.771 52.5973 124.937 52.4664 123.176C52.934 123.273 53.4012 123.372 53.8695 123.465C57.1639 124.125 60.4755 124.7 63.7997 125.19L64.8401 125.346C67.6224 125.769 70.4655 126.233 73.2684 126.336C73.045 132.666 71.4238 138.859 68.4954 144.543C66.717 147.995 64.4977 151.225 61.9065 154.126C60.5621 155.632 59.1264 157.056 57.6077 158.389C57.3858 158.584 57.1543 158.771 56.922 158.956C56.3474 157.3 55.82 155.628 55.3476 153.94C54.3601 150.413 53.629 146.829 53.0975 143.207C52.5653 139.584 52.2865 135.929 52.2624 132.268C52.2543 131.07 52.3236 129.832 52.3934 128.583ZM38.8681 129.003L37.7606 128.993C36.2793 128.989 34.7987 129.045 33.3212 129.158C30.0156 129.41 26.8486 129.996 23.6649 130.916C23.3386 131.011 23.3839 131.56 23.7481 131.528C26.3324 131.301 28.943 131.208 31.5376 131.218L31.6059 131.219C32.3325 131.225 36.0217 131.29 37.9829 131.46L38.1935 131.479C37.7192 131.767 37.2227 132.029 36.9053 132.255L33.9438 134.366C32.2386 135.582 30.2 136.719 29.6302 138.856C29.4131 139.67 30.0379 140.534 30.9069 140.52C33.8895 140.474 36.4574 137.372 38.5726 135.586L38.6206 135.545C38.7962 135.399 39.0016 135.237 39.2236 135.062C40.8937 133.748 43.5055 131.692 41.4746 129.766C40.7721 129.099 39.8002 129.019 38.8681 129.003ZM139.208 131.891C139.123 131.792 139.233 131.623 139.356 131.701C139.698 131.919 140.624 132.128 141.046 132.358L142.28 133.034C142.486 133.147 142.692 133.258 142.899 133.369C144.242 134.086 145.65 134.642 147.098 135.113C148.608 135.605 150.166 135.972 151.748 136.143C153.109 136.289 154.355 136.292 155.654 136.787C156.66 137.17 156.658 138.44 155.654 138.822C152.725 139.938 148.902 138.521 146.163 137.351C144.677 136.716 143.278 135.89 141.972 134.944C141.339 134.486 140.747 134.005 140.199 133.448C139.712 132.954 139.641 132.399 139.208 131.891ZM109.031 134.343C110.141 134.095 111.274 135.298 110.586 136.351C108.363 139.755 102.926 141.074 99.1241 141.609C94.721 142.229 90.4527 141.74 86.2699 140.249C86.0458 140.169 86.0618 139.775 86.3301 139.807C90.3018 140.277 94.3961 139.933 98.2555 138.89C100.153 138.377 102.031 137.709 103.791 136.836C105.521 135.977 107.121 134.77 109.031 134.343Z" transform="translate(-3.71582 2.214661)" id="ðŸ–-Ink" fill="#000000" fill-rule="evenodd" stroke="none" />
  </g>
</svg>