<?xml version="1.0" encoding="utf-8"?>
<svg width="182px" height="212px" viewBox="0 0 182 212" version="1.1" xmlns:xlink="http://www.w3.org/1999/xlink" xmlns="http://www.w3.org/2000/svg">
  <desc>Created with Lunacy</desc>
  <defs>
    <rect width="181.825485" height="211.10199" id="artboard_1" />
    <clipPath id="clip_1">
      <use xlink:href="#artboard_1" clip-rule="evenodd" />
    </clipPath>
  </defs>
  <g id="head/Medium-1" clip-path="url(#clip_1)">
    <use xlink:href="#artboard_1" stroke="none" fill="#FFFFFF" />
    <path d="M44.1212 0.311463C102.263 -2.46367 106.324 13.938 114.308 24.3945C118.27 29.5837 128.5 37.2689 130.197 55.0156C131.375 67.3345 123.876 81.5335 123.876 92.5415C123.876 98.1604 130.964 110.224 127.664 118.413C120.32 136.641 104.769 156.871 84.952 156.871C65.1352 156.871 28.5546 146.271 6.65788 115.841C-0.514324 105.873 -14.0207 3.08659 44.1212 0.311463Z" transform="translate(30.83383 30.46849)" id="âœ‹-Skin" fill="#D08B5B" stroke="none" />
    <path d="M158.43 102.515C157.16 101.156 156.174 100.039 155.844 98.17C155.706 97.3915 155.645 96.5914 155.618 95.7872C160.716 88.8696 165.673 72.5299 165.672 63.5928C165.671 50.9844 160.881 38.8529 153.017 28.8191C137.688 9.27595 112.171 -0.743015 87.1992 0.0429398C63.2857 0.790919 37.8501 9.34669 22.9328 27.6355C-26.5606 88.3134 14.9785 154.591 45.4024 168.381C48.0508 169.581 56.6042 169.164 55.4124 166.601C51.9892 159.237 49.2921 145.674 48.663 142.62C49.6373 143.257 50.6193 143.879 51.6052 144.523C53.3506 145.658 55.6905 146.958 57.8847 146.582C57.9883 146.563 58.0535 146.455 58.0573 146.362C58.157 144.363 56.684 142.307 55.3875 140.882C53.5884 138.901 51.8775 136.872 49.9404 135.014C49.1156 134.221 48.2794 133.435 47.4431 132.65C47.3357 127.936 47.6618 123.201 48.5326 118.461C50.0401 110.244 52.6409 102.239 55.6291 94.3612C58.1264 92.5738 60.5507 90.6939 62.7947 88.6384C68.1996 83.6903 72.3233 77.6369 75.8601 71.2703C75.9023 71.2513 75.9483 71.229 75.9905 71.2108C82.8454 68.1165 89.6428 64.9038 96.3864 61.5902C99.8657 59.8809 103.322 58.131 106.778 56.3815C108.658 55.428 110.595 54.5605 112.517 53.6632C111.999 56.2396 111.301 58.7788 110.453 61.277C109.755 63.3289 111.888 64.8438 113.775 64.505C120.2 63.3512 126.411 61.0317 132 57.7479C134.769 56.1209 137.405 54.2407 139.848 52.1777C142.292 55.711 145.261 59.0245 148.257 61.8768C150.278 63.8017 152.392 65.6331 154.586 67.3685C153.592 74.0068 152.741 80.6597 151.663 87.2836C151.099 90.7461 150.42 94.2082 149.994 97.6894C149.53 101.483 150.823 104.186 153.397 106.96C156.995 110.836 156.991 116.443 155.614 121.257C155.445 121.853 155.234 122.434 155.016 123.01C154.97 123.13 154.835 123.453 154.785 123.58C154.785 123.584 154.785 123.588 154.782 123.595C154.782 123.599 154.778 123.603 154.778 123.606C154.774 123.606 154.774 123.61 154.77 123.614L154.77 123.621L154.77 123.625L154.766 123.628C154.605 123.993 154.432 124.351 154.26 124.708C153.473 126.32 152.595 127.896 151.682 129.444C147.194 137.091 141.524 144.087 135.065 150.26C132.057 153.134 128.931 155.808 125.398 157.997C124.654 158.455 123.894 158.898 123.116 159.304C122.697 159.523 122.268 159.728 121.838 159.937C121.209 160.238 121.47 160.119 121.086 160.268C120.392 160.533 119.682 160.763 118.957 160.945C118.57 161.042 118.179 161.125 117.784 161.195C117.78 161.195 117.772 161.199 117.76 161.199C117.757 161.199 117.753 161.202 117.749 161.199C117.745 161.202 117.737 161.202 117.73 161.202C117.584 161.214 117.323 161.236 117.273 161.236C111.765 161.255 106.302 160.536 100.97 159.207C98.0819 158.485 95.1973 157.61 92.4814 156.407C91.1004 155.793 89.7502 155.112 88.4575 154.341C87.8782 153.995 87.3297 153.577 86.7197 153.276C85.8068 152.822 84.913 152.87 83.9272 152.829C82.4234 152.769 81.357 154.296 81.7253 155.637C82.1741 157.271 82.8799 158.235 84.3299 159.207C85.4884 159.982 86.7159 160.666 87.9664 161.288C90.69 162.647 93.5708 163.753 96.4862 164.657C101.945 166.348 107.691 167.387 113.407 167.767C117.569 168.042 121.175 167.502 124.964 165.8C128.965 164.002 132.552 161.318 135.87 158.533C143.3 152.3 149.764 144.739 155.246 136.849C160.397 129.433 164.395 121.357 163.079 112.15C162.553 108.457 161.004 105.277 158.43 102.515" transform="translate(1.150425 21.59422)" id="ðŸ–-Ink" fill="#000000" stroke="none" />
  </g>
</svg>