<?xml version="1.0" encoding="utf-8"?>
<svg width="182px" height="212px" viewBox="0 0 182 212" version="1.1" xmlns:xlink="http://www.w3.org/1999/xlink" xmlns="http://www.w3.org/2000/svg">
  <desc>Created with Lunacy</desc>
  <defs>
    <rect width="181.825485" height="211.10199" id="artboard_1" />
    <clipPath id="clip_1">
      <use xlink:href="#artboard_1" clip-rule="evenodd" />
    </clipPath>
  </defs>
  <g id="head/Bangs" clip-path="url(#clip_1)">
    <use xlink:href="#artboard_1" stroke="none" fill="#FFFFFF" />
    <path d="M173.244 137.326C171.724 135.143 168.062 119.305 165.723 116.869C165.9 107.513 168.565 75.1188 160.953 60.5569C162.554 58.9854 166.809 45.45 165.723 40.3332C169.309 29.6172 146.273 12.5975 137.506 7.99834C96.7598 -13.2082 37.7156 10.2002 19.1852 49.485C8.04969 73.1436 7.84447 99.6324 6.5855 125.089C6.43666 130.538 5.92072 136.03 5.92648 141.472C6.73165 146.255 10.6385 151.125 7.67678 155.102C4.40507 157.298 -2.20734 162.649 0.736779 165.683C2.4622 167.078 5.21835 166.269 7.0907 167.609C8.04394 168.127 8.63851 169.261 9.75325 169.434C19.9362 169.059 27.122 169.026 37.3364 168.626C41.808 168.484 48.617 170.319 53.7496 166.665C71.6782 176.343 64.1789 162.302 67.8043 152.304C78.8443 155.927 100.836 167.48 112.604 167.854C122.166 169.001 131.108 163.596 140.51 164.826C152.189 169.037 165.876 169.974 176.575 162.848C179.244 160.982 182.215 163.144 185.58 161.129C192.12 158.093 176.545 140.693 173.244 137.326Z" transform="translate(-7.671687 20.84959)" id="âœ‹-Skin" fill="#D08B5B" stroke="none" />
    <path d="M137.506 7.99834C96.7598 -13.2082 37.7156 10.2002 19.1852 49.485C8.38376 72.4339 7.86662 98.0456 6.69628 122.796L6.5855 125.089C6.52407 127.338 6.4001 129.595 6.27608 131.852C6.09963 135.063 5.9231 138.276 5.92648 141.472C6.18377 143.001 6.75778 144.538 7.32319 146.052C8.52717 149.276 9.69211 152.396 7.67678 155.102C4.40507 157.298 -2.20734 162.649 0.736779 165.683C2.4622 167.078 5.21836 166.269 7.0907 167.609C8.04394 168.127 8.63852 169.261 9.75325 169.434C19.9362 169.059 27.122 169.026 37.3364 168.626C38.4647 168.59 39.7417 168.68 41.103 168.776C45.1372 169.061 49.912 169.397 53.7496 166.665C66.2731 173.426 66.3896 168.612 66.5572 161.688C66.5818 160.671 66.6075 159.608 66.6739 158.529L64.3726 139.299L48.6122 120.605L42.8759 120.605L30.5145 116.869L30.359 116.295C27.8705 106.987 27.9223 100.998 30.5145 98.3265Q34.4822 94.2375 42.8759 90.7699C51.4819 89.98 57.2869 96.1684 57.2869 96.1684C59.6727 90.807 62.8018 86.2669 66.6742 82.5482L72.4417 61.5131L86.4828 53.4378L88.0613 53.7708C129.18 62.3945 153.987 63.6594 162.483 57.5652C164.313 52.8806 166.544 44.2014 165.723 40.3332C169.309 29.6172 146.273 12.5975 137.506 7.99834ZM165.878 112.459L162.289 125.654L148.652 152.304L135.871 162.975L136.429 164.67C137.782 164.608 139.141 164.647 140.51 164.826C152.19 169.037 165.877 169.974 176.576 162.848C177.882 161.935 179.26 161.986 180.722 162.041C182.247 162.098 183.862 162.158 185.581 161.129C191.924 158.184 177.46 141.724 173.574 137.666L173.245 137.326C171.725 135.143 168.063 119.305 165.724 116.869C165.737 116.18 165.764 115.366 165.799 114.444L165.878 112.459Z" transform="translate(-7.671687 20.84959)" id="ðŸ’ˆ-Hair" fill="#D6B370" fill-rule="evenodd" stroke="none" />
    <path d="M106.553 0.230962C122.341 -0.725512 139.201 1.15765 153.382 8.35038C161.17 12.3003 167.19 18.2703 171.491 25.6998C174.059 30.1363 176.008 35.049 176.746 40.0998C177.504 45.2895 176.614 49.917 173.2 54.0422C171.844 55.6804 169.56 53.8505 169.894 52.1743C171.938 41.9193 168.623 31.7872 162.743 23.2973C154.212 10.9774 139.312 5.50479 124.806 3.06353C117.679 1.86468 110.45 1.36354 103.219 1.60741C97.7063 1.79356 92.0513 2.29209 86.8197 4.09223C86.5992 4.16818 86.5113 3.83459 86.7238 3.75603C92.9642 1.44284 99.9304 0.632316 106.553 0.230962ZM65.1239 10.5297C65.6115 10.2891 65.9548 10.915 65.5413 11.2229C56.9575 17.6122 49.2702 25.7137 43.0482 34.2885C31.5737 50.1033 24.2147 68.404 20.826 87.4203C18.8252 98.6504 18.3027 110.051 18.5026 121.43C18.5817 125.951 18.8477 130.458 19.1437 134.966L19.4777 139.963C19.6328 142.291 19.7624 144.599 19.6622 146.939L19.635 147.479C19.5861 148.316 19.5784 149.155 19.5706 149.992C19.5532 151.88 19.5358 153.762 19.0484 155.602C18.6875 156.964 16.7085 157.178 15.9919 155.989C15.8515 155.757 15.7203 155.517 15.593 155.274C13.9136 157.932 11.7386 160.309 9.32537 162.432C10.4789 162.194 11.6435 162.042 12.8391 162.181C14.7345 162.401 16.4346 163.111 17.6376 164.356C18.8317 163.834 20.0596 163.474 21.4716 163.467C22.5116 163.462 23.2914 164.655 22.698 165.541C21.5142 167.311 19.8624 168.303 17.9855 169.283C16.6553 169.978 15.0678 169.383 14.5766 168.009L14.5484 167.926C13.9957 166.188 11.0558 166.469 9.66869 166.738L9.26048 166.819C8.99391 166.872 8.72799 166.928 8.46253 166.983C6.15674 167.463 3.88563 167.936 1.52682 167.319C-0.169832 166.875 -0.613272 164.396 1.02239 163.573C6.18946 160.975 10.5272 157.484 14.985 153.979C14.0007 151.637 13.4418 149.02 12.7973 146.638C11.8901 143.286 11.625 139.679 11.2974 136.235C10.6749 129.688 10.4374 123.07 10.5042 116.497C10.7301 94.2966 14.642 72.0274 24.6344 51.9243C29.012 43.1179 34.7629 34.9691 41.5606 27.7563C48.3181 20.5859 56.2106 14.9237 65.1239 10.5297ZM132.054 24.244C131.775 23.4328 130.78 22.9197 129.968 23.4197C127.534 24.9172 126.336 28.3872 125.063 30.7871C123.639 33.4689 122.149 36.0795 120.362 38.5543C116.726 43.5906 112.525 48.08 107.892 52.2674C107.556 52.5712 107.983 53.0008 108.35 52.8426C114.338 50.2625 119.794 46.1573 123.946 41.2376C126.021 38.7777 128.031 36.1588 129.594 33.3579C130.975 30.8828 133.039 27.1042 132.054 24.244ZM144.926 26.4021C145.092 24.5767 142.384 24.4631 141.818 25.9937C140.985 28.2469 140.625 30.6476 139.858 32.9336C139.028 35.4047 137.978 37.7968 136.726 40.094C134.273 44.596 131.174 48.6322 127.353 52.1264C127.198 52.2686 127.423 52.4704 127.582 52.3487C131.836 49.095 135.643 45.2211 138.625 40.8237C141.435 36.6791 144.469 31.4202 144.926 26.4021ZM156.522 26.789C157.042 25.0287 160 25.3284 159.877 27.2298C159.561 32.1417 157.173 37.0723 154.579 41.2351C151.908 45.5216 148.525 49.3415 144.647 52.6406C144.456 52.8033 144.194 52.5527 144.367 52.3692C147.713 48.8143 150.416 44.765 152.417 40.3583C154.416 35.9579 155.17 31.3666 156.522 26.789ZM113.499 30.4215C114.027 28.5287 111.594 27.2096 110.164 28.5365C107.848 30.6856 105.957 33.1946 104.116 35.7302L102.919 37.3842C100.631 40.538 98.1294 43.5188 95.4825 46.3938C92.8883 49.2118 90.1989 51.929 87.4189 54.5754C85.5715 56.3342 83.548 57.9631 81.6293 59.6765C81.9312 55.7329 81.902 51.7663 81.543 47.838C81.513 47.5078 81.0017 47.4955 81.0036 47.838C81.0278 52.2562 80.6131 56.6391 79.8007 60.949C79.063 61.2688 78.643 62.0194 78.5854 62.8527C78.5613 63.1971 78.9445 63.4908 79.2843 63.4227C78.2525 68.0048 76.7768 72.4971 74.8933 76.8528C72.9527 81.3403 70.5214 85.6379 67.6897 89.6537C64.8342 93.7015 60.8747 97.2556 58.5689 101.626C58.3806 101.984 58.3786 102.344 58.4983 102.65C57.7626 102.296 56.9938 101.978 56.2477 101.642L55.8736 101.475C53.8685 100.592 51.714 99.8343 49.4864 100.014C46.4376 100.259 42.9242 102.067 42.9208 105.396C42.9208 105.611 43.2511 105.719 43.3562 105.511C44.7275 102.801 48.2582 103.018 50.6399 104.242C51.045 104.45 51.4631 104.721 51.8916 105.027C51.7424 105.178 51.5974 105.336 51.457 105.502C50.4431 106.704 49.2494 108.708 50.4025 110.178C50.7542 110.627 51.4428 110.981 52.0017 110.585C53.1778 109.752 53.3121 108.47 53.7682 107.215C53.838 107.024 53.9193 106.833 54.0056 106.645C56.0452 108.216 58.2586 109.689 60.5275 108.819C61.6005 108.408 62.7198 107.232 62.1843 105.986C61.6956 104.849 60.8736 104.057 59.9007 103.427C60.0296 103.404 60.1604 103.363 60.2909 103.298C64.6395 101.112 67.721 96.6574 70.2836 92.6713L70.6841 92.0462C73.4728 87.6815 75.7744 83.0176 77.5831 78.1916C79.4612 73.1799 80.7025 67.9452 81.337 62.6397C83.9648 61.4829 86.4513 59.8586 88.7989 58.2524L89.7965 57.5666C93.1088 55.2832 96.2605 52.7268 99.1612 49.9643C102.081 47.1835 104.805 44.1956 107.348 41.0865C109.991 37.8548 112.377 34.45 113.499 30.4215ZM169.776 57.9776C169.332 57.1586 168.185 57.7613 168.33 58.5696C169.322 64.0918 171.006 69.4591 171.914 75.0047C172.828 80.5965 173.044 86.2984 172.873 91.9528C172.534 103.113 170.892 114.333 167.445 124.997C164.275 134.8 159.862 145.101 152.498 152.672C148.864 156.408 144.513 159.216 139.441 160.749C134.095 162.364 128.407 162.65 122.846 162.306C112.424 161.661 100.578 158.276 93.6945 150.161C93.3626 149.77 92.8222 150.268 93.0166 150.669C95.2081 155.184 98.2777 158.67 102.584 161.423C107.061 164.286 112.149 165.959 117.4 166.876C127.505 168.639 138.789 168.087 147.868 163.157C148.692 163.952 149.668 164.64 150.508 165.198C152.541 166.547 154.738 167.58 157.079 168.318C161.811 169.809 166.763 170.259 171.347 168.14C172.739 167.496 171.965 165.515 170.603 165.473C169.57 165.441 168.529 165.433 167.486 165.425C164.338 165.402 161.167 165.379 158.112 164.682C156.142 164.233 154.151 163.6 152.316 162.77C151.821 162.545 151.315 162.272 150.801 161.987L150.284 161.7C150.709 161.418 151.129 161.129 151.541 160.825C160.619 154.123 166.077 143.887 170.107 133.747L170.352 133.127C172.1 128.668 173.575 124.028 174.72 119.303C174.815 119.853 174.914 120.403 175.018 120.953C175.925 125.726 177.053 130.428 178.646 135.034C180.197 139.519 182.1 143.955 184.62 148.015C186.58 151.175 189.032 155.034 192.469 157.011C191.973 157.039 191.476 157.08 190.965 157.126C190.295 157.187 190.294 158.078 190.965 158.139C192.167 158.248 193.296 158.345 194.5 158.243C194.709 158.225 194.863 158.14 194.964 158.022C196.515 158.228 197.345 156.523 196.784 155.234C195.172 151.534 191.542 148.717 189.255 145.385C186.882 141.93 184.885 138.232 183.243 134.398C181.561 130.469 180.187 126.397 178.882 122.337C178.257 120.392 177.681 118.433 177.073 116.483L176.758 115.467C176.55 114.79 176.343 114.112 176.138 113.433L176.028 113.064C176.939 107.874 177.424 102.629 177.392 97.4426C177.35 90.7007 176.587 84.0318 175.434 77.3905C174.292 70.8184 173 63.9276 169.776 57.9776ZM36.3037 98.927C39.593 91.7455 49.9993 85.3748 56.9773 92.0534C57.1081 92.1781 56.975 92.4502 56.7851 92.3739C52.4447 90.6281 47.1311 92.8486 44.1272 96.0245C41.7439 98.5435 40.3119 101.778 40.0276 105.187C39.7434 108.6 40.5839 112.161 42.9188 114.801C44.1437 116.185 45.7977 117.496 47.7441 117.662C48.9355 117.764 50.0066 117.31 51.0793 116.856C51.7761 116.561 52.4735 116.266 53.205 116.122C54.6055 115.847 55.6627 116.7 55.8 118.04C56.1027 120.997 53.0692 122.982 50.4396 123.464C47.611 123.983 44.724 123.416 42.2867 121.929C34.4145 117.123 32.7163 106.76 36.3037 98.927ZM57.7409 118.653C57.378 118.422 56.8605 118.894 57.1256 119.25C62.229 126.103 66.6948 133.528 69.3048 141.635C71.9375 149.814 72.1235 158.239 73.3207 166.652C73.5889 168.536 76.2069 168.026 76.7536 166.652C80.1879 158.026 78.0497 147.894 74.5674 139.623C71.0494 131.268 65.5974 123.662 57.7409 118.653ZM37.3874 138.759C37.3989 138.526 37.0111 138.47 36.9636 138.704C36.1404 142.744 35.1503 146.768 33.9431 150.717C33.3696 152.593 32.7559 154.46 32.0539 156.295C31.2932 158.282 29.9848 160.364 29.615 162.433C29.2985 164.206 31.7413 165.483 32.7701 163.724C33.7996 161.965 34.0962 159.649 34.5557 157.68L34.7412 156.879C35.1709 155.009 35.5771 153.133 35.9255 151.247C36.6897 147.11 37.1776 142.958 37.3874 138.759ZM51.0337 146.562C51.0767 146.414 51.3268 146.439 51.316 146.6C51.1193 149.566 50.9858 152.569 50.6014 155.519C50.4146 156.953 50.1676 158.377 49.9573 159.808C49.7418 161.275 49.7744 162.756 48.8955 164.009C47.7309 165.669 44.6368 165.202 44.7408 162.917C44.8125 161.34 45.559 160.328 46.2583 158.944C46.7069 158.057 47.0978 157.139 47.4746 156.218L48.0347 154.836C49.1479 152.096 50.2132 149.401 51.0337 146.562ZM63.1627 150.361L63.2542 150.27C63.6117 149.893 64.1449 150.144 64.3156 150.542C64.862 151.817 64.7674 153.271 64.6763 154.672C64.6509 155.063 64.6257 155.45 64.6148 155.828L64.6056 156.206C64.5684 157.96 64.5943 159.603 63.7747 161.222C62.7797 163.188 60.1578 161.967 59.9549 160.218C59.7785 158.699 60.3314 157.206 60.8673 155.758C61.0049 155.387 61.1414 155.018 61.2641 154.653C61.6458 153.516 61.9239 152.335 62.5043 151.303C62.0079 151.386 61.5123 151.553 61.0585 151.673C60.8552 151.726 60.7785 151.437 60.9726 151.37C61.7229 151.112 62.5698 150.918 63.1627 150.361ZM168.124 155.683C167.813 155.542 167.514 155.889 167.754 156.149C170.666 159.313 175.175 161.185 179.478 161.562C181.275 161.719 181.264 158.996 179.478 158.839C175.355 158.478 171.86 157.377 168.124 155.683Z" transform="translate(-16.11063 21.59424)" id="ðŸ–-Ink" fill="#000000" fill-rule="evenodd" stroke="none" />
  </g>
</svg>