<?xml version="1.0" encoding="utf-8"?>
<svg width="182px" height="212px" viewBox="0 0 182 212" version="1.1" xmlns:xlink="http://www.w3.org/1999/xlink" xmlns="http://www.w3.org/2000/svg">
  <desc>Created with Lunacy</desc>
  <defs>
    <rect width="181.825485" height="211.10199" id="artboard_1" />
    <clipPath id="clip_1">
      <use xlink:href="#artboard_1" clip-rule="evenodd" />
    </clipPath>
  </defs>
  <g id="head/Afro" clip-path="url(#clip_1)">
    <use xlink:href="#artboard_1" stroke="none" fill="#FFFFFF" />
    <path d="M58.2979 0.138212C116.44 -2.63692 142.677 37.0957 144.374 54.8423C145.552 67.1613 138.053 81.3603 138.053 92.3683C138.053 97.9872 145.141 110.05 141.841 118.24C134.497 136.468 118.945 156.698 99.1287 156.698C79.3119 156.698 53.5216 162.017 31.625 131.587C29.5704 128.732 3.58404 112.504 1.05944 97.0843C-5.22912 58.6746 16.8112 2.11838 58.2979 0.138212Z" transform="translate(16.65493 30.64177)" id="âœ‹-Skin" fill="#D08B5B" stroke="none" />
    <path d="M93.5787 0.0215866C90.4601 -0.157124 86.9502 0.766214 84.8711 3.07456C78.5148 1.02311 71.7754 1.62254 66.3433 5.66214C61.4025 3.88285 55.5833 5.47971 52.457 9.62729C46.3425 8.18643 39.5413 11.8426 37.57 17.6432C33.5422 18.0751 30.0396 22.1556 31.2556 25.9346C26.3532 23.3135 20.5071 27.651 19.9394 32.7294C17.7414 33.958 15.6354 35.41 14.5192 37.6998C13.6829 39.4161 13.5448 41.2073 14.0704 42.8675C11.5578 44.4908 9.22936 46.5422 8.73874 49.5542C8.45833 51.278 8.77671 52.9795 9.63597 54.3534C5.38954 57.5776 3.45621 63.1027 5.18662 68.196C3.20304 70.2586 1.61878 72.7494 1.54244 75.6423C1.48835 77.6379 2.22486 79.7042 3.60581 81.186C1.74536 83.8481 0.191791 86.7227 0.0153359 90.0136C-0.126595 92.6496 0.721156 95.118 2.37063 97.0544C-0.0345319 101.12 0.8324 106.537 4.11216 109.962C2.29007 114.169 3.50608 119.259 6.86256 122.427C6.62128 123.291 6.56681 124.184 6.65197 125.077C6.41605 125.876 6.32245 126.72 6.37769 127.564C6.57333 130.529 8.47789 132.604 10.9736 133.872L11.1144 134.068C10.5712 136.035 10.7315 138.197 11.842 140.19C13.0354 142.331 15.2204 143.866 17.6432 144.537C17.8941 146.274 18.6363 147.946 19.8577 149.259C21.3204 150.831 23.1854 151.765 25.1748 152.147C25.4387 154.106 26.3275 155.991 27.8481 157.452C29.504 159.043 31.7903 159.838 34.1015 159.881C34.7966 161.65 36.0195 163.239 37.8082 164.429C40.5705 166.267 44.1433 166.47 47.1941 165.336C47.3533 165.38 47.5136 165.419 47.6732 165.46C49.6786 166.702 52.0113 167.39 54.5645 167.434C56.4714 167.466 58.4458 167.084 60.228 166.317C61.8958 167.352 63.9508 167.753 65.8197 167.247C65.9927 167.625 66.1576 168.006 66.3091 168.389C67.1181 170.463 67.6935 172.615 68.4454 174.708C69.4431 177.478 70.5287 179.603 73.7697 180.006C74.9205 180.151 76.1711 179.272 76.7234 178.364C77.9591 176.31 77.1462 174.397 76.3162 172.444C76.2128 172.201 76.1091 171.957 76.0092 171.712L75.8646 171.349C75.0548 169.268 74.3029 167.172 73.367 165.139C71.729 161.602 69.3699 158.512 66.7579 155.597C64.2872 152.842 61.4562 150.422 58.7173 147.923C56.1856 145.619 53.8993 143.139 51.6706 140.574C53.2127 140.343 54.1986 139.706 54.797 138.046C54.9888 137.513 54.7471 136.962 54.3942 136.568C53.1992 135.219 51.6418 135.25 50.0187 135.282C49.245 135.297 48.4565 135.312 47.6851 135.179C45.5216 134.807 43.3926 133.921 41.7282 132.506C38.3023 129.598 37.0291 125.22 37.5888 120.923C38.1028 116.984 39.8213 113.708 43.5345 111.854C44.9654 111.139 46.6992 110.588 48.28 110.301C48.7131 110.223 49.1431 110.178 49.5762 110.156C50.0062 110.748 50.7308 111.15 51.7938 111.124C51.8521 111.123 51.9092 111.118 51.9668 111.115C54.9431 112.318 58.7008 112.488 61.0753 110.358C61.3005 110.196 61.4977 110.003 61.6626 109.785C61.8502 109.706 62.0382 109.619 62.2273 109.512C65.9612 107.397 68.2555 103.59 68.4297 99.5292C70.4044 97.8054 71.9296 95.592 72.5016 93.0476C72.9028 91.2634 72.6872 89.486 71.9703 88.0385C72.6504 86.7421 73.0662 85.2986 73.2212 83.6887C73.3155 82.7106 73.2281 81.6935 72.9538 80.7396C74.4859 79.7064 75.7944 78.3661 76.7399 76.8117C81.3569 78.4007 86.6183 78.0366 90.8959 75.6717C93.2366 77.2212 96.2739 77.8255 99.0884 77.4811C101.016 77.2451 102.817 76.5868 104.463 75.6225C106.004 76.2078 107.668 76.5172 109.284 76.5701C111.466 76.6419 113.587 75.9975 115.501 75.0183L115.672 74.9252C116.503 74.9673 117.338 74.9125 118.162 74.7714C119.317 75.6348 120.665 76.2584 122.021 76.5466C125.036 77.1877 128.107 76.4591 130.545 74.7703C134.577 77.1535 140.172 76.9323 144.177 74.4948C147.751 76.6375 152.436 76.4576 156.057 74.4285C157.725 75.9301 159.82 76.9673 162.074 77.3944L161.894 78.6249C161.395 82.0498 161.015 85.4751 160.935 88.9339C160.774 95.9375 161.215 102.937 162.009 109.895C162.688 115.852 163.774 121.791 164.399 127.725C164.38 128.008 164.364 128.287 164.364 128.57C164.36 129.114 164.456 129.609 164.617 130.056C165.12 136.192 165.009 142.324 163.305 148.471C158.606 165.456 143.036 179.622 124.497 178.609C123.423 178.55 122.349 178.468 121.275 178.364C120.691 178.304 120.109 178.245 119.525 178.178L118.785 178.088C118.777 178.084 118.77 178.084 118.762 178.084L118.724 178.081L118.647 178.07L118.398 178.04C115.885 177.697 113.38 177.262 110.906 176.714C108.512 176.182 106.214 175.463 103.898 174.689L103.725 174.632C102.349 174.188 101.067 173.951 99.6012 174.19C99.4746 174.209 99.348 174.246 99.2176 174.265C99.2027 174.265 99.1946 174.265 99.1793 174.268L99.1681 174.268L98.9478 174.283C98.6551 174.301 98.366 174.311 98.0745 174.305L97.9887 174.305C96.6564 174.33 95.8856 175.6 96.1339 176.781C96.5788 178.904 97.5835 180.706 99.5168 181.875C101.244 182.919 103.347 183.517 105.341 184.035L106.115 184.235C110.925 185.471 115.896 186.19 120.845 186.67C124.788 187.05 128.567 187.188 132.495 186.629C137.953 185.855 143.301 184.001 148.061 181.294C157.686 175.817 165.066 167.038 169.125 156.997C170.721 153.054 171.752 148.902 172.224 144.691C172.589 144.684 172.97 144.637 173.369 144.533C178.123 143.305 180.823 138.448 180.118 134.07C181.3 132.894 182.198 131.434 182.729 129.85C183.111 128.708 183.266 127.568 183.225 126.454C184.472 125.753 185.552 124.748 186.354 123.398C187.48 121.505 187.79 119.411 187.431 117.414C189.959 115.064 191.356 111.459 190.892 108.123C192.635 106.505 193.784 104.318 193.997 101.875C194.186 99.6934 193.541 97.5905 192.315 95.876C192.97 94.2628 193.026 92.4898 192.583 90.8115C193.595 88.1758 193.792 85.2119 192.466 82.6131C192.102 81.902 191.618 81.2906 191.045 80.8029C191.101 80.4913 191.164 80.1752 191.239 79.8457L191.282 79.6488C191.705 77.6275 191.429 76.0194 190.66 74.0897C190.052 72.5623 190.177 71.1233 190.308 69.6205C190.363 68.9918 190.418 68.3519 190.422 67.6896C190.434 65.2845 189.34 62.5889 187.223 61.431C187.787 58.0318 186.586 54.4315 183.82 52.4285C183.417 49.0181 181.879 45.7939 178.853 44.2934C179.14 41.3224 178.876 38.2992 177.284 35.6632C175.914 33.3887 173.682 31.6683 171.112 31.0093C170.394 24.7246 164.322 19.7095 157.889 19.5085C156.339 14.773 150.831 11.5186 145.767 12.2819C141.663 7.103 134.666 4.73136 128.221 6.52219C126.361 4.31809 123.484 3.01127 120.58 2.55704C117.913 2.14193 115.301 2.46467 112.684 2.78802C110.654 3.0389 108.621 3.29014 106.556 3.19742C102.049 2.99637 98.109 0.282206 93.5787 0.0215866ZM54.8683 122.558C52.8579 119.791 49.9962 116.768 46.1794 116.969C43.7628 117.096 40.9663 118.76 41.0895 121.355C41.0968 121.545 41.3426 121.668 41.488 121.515C42.5468 120.421 43.9891 119.937 45.4544 120.167C43.9622 120.823 42.528 122.264 43.1452 123.917C43.5326 124.952 44.6757 125.834 45.8844 125.425C46.82 125.104 47.5067 124.509 47.8212 123.582C47.822 123.579 47.8271 123.563 47.8349 123.539C47.866 123.443 47.9386 123.219 47.9325 123.198C48.0053 123.053 48.0936 122.911 48.178 122.774L48.2921 122.585C48.406 122.398 48.5203 122.216 48.6498 122.04C49.4208 122.934 49.9962 124.013 50.5026 125.034C51.9142 127.893 56.7552 125.153 54.8683 122.558Z" transform="translate(-12.65936 2.978215)" id="ðŸ–-Ink" fill="#000000" fill-rule="evenodd" stroke="none" />
  </g>
</svg>