<?xml version="1.0" encoding="utf-8"?>
<svg width="182px" height="212px" viewBox="0 0 182 212" version="1.1" xmlns:xlink="http://www.w3.org/1999/xlink" xmlns="http://www.w3.org/2000/svg">
  <desc>Created with Lunacy</desc>
  <defs>
    <rect width="181.825485" height="211.10199" id="artboard_1" />
    <clipPath id="clip_1">
      <use xlink:href="#artboard_1" clip-rule="evenodd" />
    </clipPath>
  </defs>
  <g id="head/Twists-2" clip-path="url(#clip_1)">
    <use xlink:href="#artboard_1" stroke="none" fill="#FFFFFF" />
    <path d="M147.33 65.5516C145.906 54.5233 141.433 42.8142 136.729 32.5328C126.152 10.7949 101.936 7.80199 80.2283 3.32008C58.8066 0.293164 36.1226 -2.43999 15.0239 3.59931C3.16267 6.41959 -1.47005 20.1304 0.401913 30.9502C1.47023 37.6925 4.63223 44.0736 7.32854 50.3221C12.6878 63.1543 16.088 76.8923 16.0938 90.7855C15.7259 99.8648 14.4055 110.228 25.1555 114.073C35.3849 119.011 36.2491 132.395 49.0579 139.988C54.2372 150.171 68.3456 151.067 78.4998 153.429C84.9178 154.621 91.4082 155.499 97.9164 156.065C116.761 158.409 131.836 153.109 141.701 136.816C148.302 126.9 153.218 115.451 152.004 103.433C150.794 90.7781 148.779 78.1894 147.33 65.5516Z" transform="translate(9.206211 28.29595)" id="âœ‹-Skin" fill="#D08B5B" stroke="none" />
    <path d="M95.6374 0.887461C94.6316 -0.0481641 92.9744 -0.453986 91.8988 0.729227C90.2221 1.04756 88.6528 1.88042 87.4909 3.1448C87.0402 2.5759 86.5553 2.02637 86.0344 1.49992C85.2634 0.725504 83.8594 0.527806 82.9081 1.10862C81.6652 1.86814 80.5758 2.78403 79.6513 3.82278C78.8573 3.83433 78.0632 3.84885 77.273 3.86746C76.3025 2.68015 75.029 1.8309 73.2414 1.90202C71.2927 1.97611 69.8696 2.89945 68.8262 4.26584L67.9401 4.32541C67.7444 4.00894 67.5488 3.69247 67.3378 3.37973C66.3711 1.94297 64.6641 1.86069 63.3522 2.8812C62.5505 3.50297 61.8255 4.1951 61.1734 4.93637C60.5558 5.00302 59.942 5.07003 59.3283 5.14487C58.2235 4.05771 56.7927 3.2941 55.2085 3.23453C52.6652 3.14145 51.15 4.48178 50.2639 6.40664C50.2524 6.41074 50.2447 6.41074 50.237 6.41074C48.5415 5.0961 46.3282 4.37381 44.1723 4.89132C42.2735 5.34927 41.0383 6.35824 40.2635 7.66134L39.7686 7.76187C38.2151 7.21456 36.462 7.14792 34.7397 7.79947C33.2475 8.36129 31.9701 9.29617 30.9996 10.4652C30.7119 10.5542 30.4242 10.6436 30.1403 10.7404C29.7107 10.886 29.3002 11.0457 28.9051 11.2248C28.207 11.1239 27.4475 11.1168 26.6304 11.2285C24.5321 11.5077 22.8251 12.803 21.9505 14.5901C20.9225 14.4825 19.8561 14.6124 18.8434 15.0555C16.3768 16.1389 14.712 18.5258 14.1941 21.0646C14.0254 21.8875 13.9832 22.6995 14.0445 23.4996C13.0318 23.5331 12.2033 23.8496 11.4629 24.717C10.5653 25.7636 9.79045 27.1747 9.37616 28.4737C9.31095 28.6863 9.25341 28.8981 9.20738 29.1144C7.97986 30.1309 7.13978 31.5643 6.85208 33.2058C6.67946 34.1779 6.66412 35.0748 6.77153 35.9166C5.16809 36.9103 3.91372 38.4074 3.38436 40.2872C2.73608 42.5695 3.05446 44.7401 3.99428 46.6947L3.92907 46.8958C2.61716 47.5995 1.50089 48.6684 0.718352 50.2019C-1.02562 53.6127 0.607722 56.3859 3.44905 58.5621L3.66438 58.7242C3.67206 58.7581 3.67973 58.7916 3.68356 58.8247C2.75526 59.9007 2.06862 61.1781 1.72721 62.5814C0.887135 66.0331 2.27192 68.3154 4.57351 69.9495C3.00076 71.8408 2.21438 74.2981 2.88184 76.7632C3.5493 79.213 5.42126 81.0481 7.68449 82.1651C7.71518 82.273 7.7497 82.3851 7.78423 82.4931C7.36994 83.349 7.10142 84.2984 7.03237 85.3521C6.81756 88.5316 8.70486 91.3988 11.4092 93.0627C11.5051 93.253 11.6049 93.4391 11.7084 93.6212C10.9719 95.0695 10.8492 96.6779 11.8158 98.4244C12.514 99.6903 13.684 100.576 15.0035 101.168C15.4255 102.043 16.0815 102.754 16.8755 103.272C16.7106 104.318 16.7566 105.401 17.0711 106.473C17.6849 108.548 18.9776 110.133 20.6156 111.18C20.5312 111.362 20.443 111.541 20.3662 111.731C19.3574 114.248 22.15 116.742 24.6357 116.34C24.1715 117.405 23.7956 118.51 23.5271 119.646C21.9428 126.381 23.8301 135.097 30.5086 138.698C32.1504 139.58 33.8957 139.952 35.7409 140.183C37.7241 140.429 39.9681 140.44 41.5562 141.784C44.157 143.988 45.093 147.991 46.7386 150.835C48.8983 154.569 51.7062 158.01 54.9514 160.906C56.6585 162.433 58.5036 163.832 60.4331 165.076C60.581 165.171 60.7314 165.27 60.884 165.371C62.5745 166.483 64.5351 167.773 66.5054 166.561C67.0041 166.252 67.3915 165.709 67.3608 165.113C67.2649 163.404 66.2484 162.634 64.8291 161.826L64.4456 161.605C63.0435 160.789 61.6868 159.892 60.4139 158.896C57.7901 156.836 55.3849 154.439 53.4209 151.769C51.723 149.464 50.4458 146.998 49.2032 144.466L48.6451 143.322C47.3063 140.574 45.5188 137.919 42.5804 136.605C39.4426 135.201 35.5529 136.013 32.6491 134.122C30.1979 132.525 28.8975 129.549 28.4487 126.813C27.6278 121.858 29.5074 116.79 33.4469 113.674C34.5824 113.283 35.7102 112.87 36.8264 112.416C37.7049 112.055 38.5833 111.686 39.4426 111.288C40.6049 111.187 41.7787 111.25 42.895 111.466C45.1122 111.902 47.7743 112.636 49.6463 114.132C48.7985 113.767 47.97 113.35 47.1567 112.996C46.5391 112.729 46.0865 113.481 46.6312 113.868C47.9316 114.802 49.4468 115.685 50.5439 116.842C51.0042 117.326 51.8136 117.271 52.2816 116.842C54.1919 115.087 53.5072 112.738 52.8539 110.497C52.5981 109.619 52.3471 108.758 52.2586 107.955C52.1128 106.652 52.5923 105.927 53.7239 105.222C55.4731 104.132 57.3374 103.346 58.8526 101.909C61.7488 99.1649 62.75 95.2817 63.0684 91.4878C63.2804 88.9297 63.2349 86.3548 63.1894 83.7794C63.1542 81.7894 63.119 79.7995 63.2026 77.8168C63.3983 73.1629 63.5747 68.1959 64.7332 63.6574C65.1935 61.8632 65.9339 60.4037 67.7598 59.6442C69.8887 58.7614 72.3975 58.538 74.6569 58.1475L75.75 57.9612C85.9556 56.2416 96.2389 55.0618 106.572 54.3644C118.689 53.552 130.842 53.4083 142.975 53.9001C144.631 54.6433 146.179 55.6217 147.564 56.8042C151.097 66.8913 153.818 77.2066 155.588 87.7353C157.591 99.6415 158.83 111.742 159.77 123.768L159.802 124.193C160.278 130.435 160.473 136.805 159.179 142.968C158.139 147.912 156.187 152.592 153.49 156.904C148.016 165.653 139.5 172.679 129.492 176.033C123.443 178.058 117.048 178.833 110.669 178.397C104.125 177.954 98.1254 175.974 92.2218 173.308C89.1032 171.9 86.418 176.108 89.4829 177.857C99.8784 183.807 113.477 184.831 125.069 182.232C136.297 179.711 146.236 173.311 153.26 164.48C160.686 155.139 164.146 143.847 164.139 132.107C164.136 126.918 163.674 121.728 163.156 116.556L162.567 110.737C161.966 104.893 161.225 99.0723 160.264 93.2712C158.339 81.6431 155.534 69.7778 150.184 59.1144C151.147 59.4048 152.278 58.7409 152.629 57.8001L152.71 57.5913C153.525 55.6031 155.061 54.4926 156.3 52.7895C156.905 51.9585 157.21 51.0765 157.267 50.1777C157.298 50.0761 157.331 49.9752 157.357 49.8709C157.392 49.7905 157.427 49.7093 157.461 49.6277L157.663 49.1367C160.026 47.7834 161.21 45.1701 160.544 42.6373C161.147 42.0792 161.683 41.4626 162.12 40.7794C163.911 38.798 164.445 35.8745 163.333 33.4247C164.316 32.6317 165.191 31.7247 165.88 30.6484C167.484 28.1461 167.775 24.6914 166.295 22.0703C165.213 20.1603 163.31 18.9871 161.216 18.6781C161.135 18.2615 161.047 17.8445 160.943 17.4346C161.684 14.8734 161.185 12.2598 158.949 10.4537C158.243 9.88443 157.441 9.45217 156.59 9.14724C156.505 9.05752 156.425 8.96816 156.34 8.8829C154.76 7.26334 152.869 6.12741 150.82 5.33103C149.654 2.67271 147.145 0.512913 144.119 0.300694C141.78 0.13911 139.752 1.24712 138.096 2.78701C137.048 1.71958 135.733 0.897141 134.236 0.458183C133.204 0.155864 132.063 0.0806565 130.981 0.271281C129.337 0.277983 127.862 0.970487 126.779 2.17529C124.922 0.770554 122.681 -0.136775 120.35 0.0240648C118.682 0.13911 117.343 0.966019 116.515 2.12503C115.685 1.30706 114.716 0.686039 113.356 0.612321C111.832 0.530039 110.64 1.07436 109.695 1.94185C107.734 0.666306 105.356 0.182298 102.671 1.13505C102.295 1.26908 101.95 1.42508 101.628 1.60044C100.3 1.55316 98.8799 1.55316 97.5258 1.72182C96.9267 1.35323 96.2922 1.07473 95.6374 0.887461ZM23.9427 34.3182L23.8638 34.3745C22.6582 35.2609 22.8521 36.3716 23.8441 37.3894C24.8621 38.4338 23.2364 40.0154 22.2165 38.9688C21.2997 38.028 20.5984 36.8686 20.6894 35.5312C20.783 34.1551 21.6721 33.1573 22.7807 32.3893C23.9898 31.5519 25.1379 33.4902 23.9427 34.3182ZM17.5494 51.1926C18.6622 50.2395 17.0292 48.6642 15.9218 49.6133C14.8884 50.4986 14.122 51.7012 14.321 53.0844C14.524 54.4939 15.6191 55.4891 16.8179 56.1924C18.0884 56.9382 19.2464 55.0074 17.9794 54.2635L17.8371 54.179C17.3052 53.8584 16.6827 53.4176 16.5927 52.7869C16.4972 52.1167 17.0814 51.5936 17.5494 51.1926ZM36.7321 54.8818L36.6986 54.9748C36.3065 56.1143 36.6964 56.9865 37.8606 57.4806C38.4291 57.7214 38.5638 58.5376 38.2734 59.0085C37.9278 59.5681 37.2726 59.6526 36.6991 59.4091C34.63 58.5312 33.7473 56.3208 34.513 54.2876C35.0182 52.9462 37.2415 53.5292 36.7321 54.8818ZM35.4428 118.957C37.2342 117.967 39.6432 119.039 41.3771 119.881C43.4907 120.904 45.589 122.45 46.8817 124.386C48.6424 127.022 44.5034 129.151 42.6506 126.787C41.5114 125.331 40.6022 123.864 39.2213 122.591C37.9592 121.422 36.1295 120.64 35.4045 119.099C35.3776 119.047 35.3853 118.987 35.4428 118.957Z" transform="translate(-2.301787 4.467933)" id="ðŸ–-Ink" fill="#000000" fill-rule="evenodd" stroke="none" />
  </g>
</svg>