<?xml version="1.0" encoding="utf-8"?>
<svg width="182px" height="212px" viewBox="0 0 182 212" version="1.1" xmlns:xlink="http://www.w3.org/1999/xlink" xmlns="http://www.w3.org/2000/svg">
  <desc>Created with Lunacy</desc>
  <defs>
    <rect width="181.825485" height="211.10199" id="artboard_1" />
    <clipPath id="clip_1">
      <use xlink:href="#artboard_1" clip-rule="evenodd" />
    </clipPath>
  </defs>
  <g id="head/Gray-Short" clip-path="url(#clip_1)">
    <use xlink:href="#artboard_1" stroke="none" fill="#FFFFFF" />
    <path d="M92.4771 167.515C83.9628 167.564 76.7266 165.219 71.2051 161.34C64.3149 158.955 56.0038 155.277 50.9557 151.416C48.9867 151.903 46.6306 149.873 45.1238 148.802C35.7545 142.011 28.4001 132.071 26.2209 122.115C22.8567 126.236 18.0694 126.408 13.4835 124.359C3.87056 119.068 4.22999 107.926 7.69081 99.6021C0.415106 83.7575 -4.62729 41.9296 6.47902 25.0485C8.75069 22.5227 12.0845 21.0118 14.4847 18.4217C16.6206 16.1595 18.6521 13.8455 21.1371 12.0555C28.7193 6.45436 41.7785 3.47213 49.9553 2.06962C84.0886 -5.09295 110.314 7.78092 141.233 18.6402C139.454 22.959 136.992 26.8978 134.171 30.5703C141.847 33.3511 138.321 39.6033 132.366 42.7728L128.821 41.1004C134.348 60.2917 147.066 108.016 141.578 123.341C137.202 147.251 117.997 167.688 92.4771 167.515" transform="translate(17.77163 22.16763)" id="âœ‹-Skin" fill="#D08B5B" stroke="none" />
    <path d="M15.3773 93.0212C11.0058 93.0212 7.78845 97.7201 7.78845 97.7201L6.88543 97.7201C0.0608805 80.667 -4.21236 41.2989 6.47902 25.0485C8.75069 22.5227 12.0845 21.0118 14.4847 18.4217C16.6206 16.1595 18.6521 13.8455 21.1371 12.0555C28.7193 6.45436 41.7785 3.47213 49.9553 2.06962C79.3024 -4.08863 102.804 4.56455 128.469 14.0141C132.655 15.5552 136.898 17.1175 141.233 18.6402C139.454 22.959 136.992 26.8978 134.171 30.5703C141.847 33.3511 138.321 39.6033 132.366 42.7728L129.75 41.5387C129.06 37.9564 127.219 30.9454 123.324 30.5697C120.574 30.3043 116.072 32.7985 111.685 35.2297C107.71 37.4322 103.828 39.583 101.427 39.583C96.3741 39.583 70.7056 28.9359 56.6055 28.9359C42.5055 28.9359 30.5022 40.2396 25.7328 48.4321C20.9634 56.6246 32.831 66.7994 32.831 66.7994C32.831 66.7994 25.7328 75.63 25.7328 79.4919C25.7328 83.3537 27.3917 95.4555 27.3917 95.4555C27.3917 95.4555 19.7487 93.0212 15.3773 93.0212Z" transform="translate(17.64516 22.33883)" id="ðŸ’ˆ-Hair" fill="#ECDCBF" fill-rule="evenodd" stroke="none" />
    <path d="M68.278 162.229C75.648 170.946 88.7817 173.483 99.8369 172.381C111.667 171.202 122.6 165.915 130.748 157.516C139.062 148.945 144.383 137.843 146.673 126.339C149.333 112.979 147.519 99.5246 144.706 86.3402L144.518 85.4669C141.788 72.8691 138.575 60.3704 135.218 47.9138C135.527 47.8586 135.847 47.7384 136.17 47.5346C139.634 45.3513 143.809 42.3324 143.72 37.8791C143.693 36.5494 143.3 35.296 142.637 34.2373C142.113 33.4002 141.42 32.685 140.605 32.1472C142.949 28.8589 144.875 25.3375 146.401 21.5841C146.638 21.0013 146.551 20.416 146.257 19.914C145.956 19.3996 145.428 18.9856 144.888 18.7933C142.401 17.9077 139.913 17.023 137.425 16.1382C132.072 14.2344 126.72 12.3307 121.37 10.4188C120.731 10.1904 120.091 9.96142 119.452 9.73242C112.568 7.26599 105.672 4.79661 98.5664 2.99258C83.2833 -0.888111 67.4 -0.751884 51.9272 2.00888C44.7753 3.28522 37.5456 4.93501 30.8285 7.68644C27.7105 8.96409 24.7097 10.5025 21.9904 12.4679C19.6457 14.1631 17.7646 16.1688 15.8324 18.2357C15.7182 18.3579 15.6038 18.4803 15.4891 18.6028L14.96 19.1661C13.8411 20.3525 12.5114 21.3006 11.1867 22.2508C9.65732 23.3479 8.13487 24.448 6.89407 25.8611C4.71772 28.3391 3.35473 31.3366 2.57025 34.4843C0.819983 41.507 0.31478 49.0617 0.0799089 56.2624C-0.4222 71.6458 1.38028 87.6526 7.24235 102.067C7.18318 102.207 7.12552 102.345 7.07033 102.483C5.1662 107.235 4.67735 113.317 6.18145 118.607C7.47666 123.162 10.2404 127.123 14.7905 129.217C16.8551 130.167 19.657 130.828 22.3042 130.731C24.1212 130.664 25.8592 130.238 27.2658 129.341C29.2616 135.466 33.147 141.072 37.4733 145.828C40.0136 148.622 42.9033 151.12 45.9525 153.377L46.2187 153.575C47.5947 154.6 49.7572 156.17 51.7107 156.524C52.5036 156.667 53.2665 156.623 53.9568 156.333C54.5759 156.073 55.1466 155.614 55.6183 154.874C55.8463 154.517 55.9744 154.065 55.9744 153.613C55.9744 153.163 55.8478 152.719 55.6012 152.366C55.2365 151.843 54.8815 151.59 54.5393 151.455C54.114 151.286 53.681 151.305 53.165 151.371L53.13 151.376C52.9258 151.402 52.7021 151.431 52.4479 151.421C51.5417 151.387 50.571 150.525 49.7612 149.882C49.4778 149.657 49.212 149.446 48.9723 149.275L48.5719 148.987C45.7954 146.964 43.2641 144.653 40.8761 142.205C36.7157 137.938 33.543 133.065 30.4249 128.102L29.6105 126.802C29.6646 126.702 29.7166 126.599 29.7659 126.493C29.9622 126.072 30.0258 125.604 29.9705 125.154C29.9135 124.69 29.7295 124.246 29.4488 123.891C29.1669 123.535 28.7897 123.268 28.3452 123.139C27.9509 123.025 27.4985 123.015 27.002 123.171C26.5651 123.31 26.1271 123.462 25.687 123.614L25.5613 123.658C24.1747 124.14 22.766 124.63 21.2956 124.615C19.4683 124.597 17.6544 123.981 16.1692 122.954C12.4667 120.395 11.4839 115.449 11.5176 111.327C11.5509 107.29 12.4828 102.587 15.6641 99.7065C17.2647 98.257 19.3464 97.5707 21.4231 97.5959C23.5772 97.6221 25.7246 98.4115 27.5636 99.7432C27.9169 99.9991 28.2538 100.271 28.572 100.558C28.6956 100.801 28.8919 100.989 29.1235 101.112C29.1376 101.12 29.1518 101.127 29.1662 101.134C29.3909 101.368 29.6037 101.611 29.8038 101.86C29.7662 101.664 29.7228 101.468 29.6737 101.274C29.7736 101.282 29.8732 101.28 29.9692 101.268C30.2858 101.226 30.5639 101.076 30.7545 100.838C30.9103 100.643 31.0215 100.38 31.0009 100.027C30.8829 98.0042 30.5907 96.0054 30.2978 94.0086L30.2885 93.9454C29.8785 91.1504 29.4691 88.3589 29.5746 85.5058C29.6625 83.1231 30.0824 80.7606 31.0724 78.5643C31.578 77.4424 32.2226 76.3666 32.9507 75.3678C33.312 74.8724 33.7319 74.4123 34.1506 73.9513C34.7311 73.3122 35.3084 72.6711 35.7619 71.9561C36.4826 70.8203 36.6257 69.784 36.4422 68.8044C36.2232 67.6351 35.4969 66.5368 34.6606 65.4341L34.1376 64.7499C32.6132 62.741 31.2165 60.5568 30.4764 58.1508C29.1159 53.7279 30.8603 49.6089 33.536 46.0252C40.1413 37.1783 50.9518 34.4858 61.7292 34.3901C67.768 34.3364 73.7881 35.0866 79.619 36.6096C83.9707 37.746 87.9528 39.4945 91.9825 41.2605C93.3977 41.8807 94.8186 42.5033 96.2627 43.1036C99.1052 44.2851 102.174 45.2292 105.304 45.0372C108.313 44.8522 111.004 43.6757 113.466 42.0407C114.067 41.6414 114.736 41.1507 115.455 40.6228C117.44 39.1651 119.821 37.3992 122.211 36.6161C123.519 36.1875 124.833 36.0572 126.067 36.5267C126.031 36.8782 126.065 37.2599 126.191 37.6677C130.377 51.2144 133.981 64.9201 137.277 78.6961C140.415 91.8068 143.448 105.265 142.14 118.805C141.061 129.979 136.829 141.151 129.781 149.952C123.465 157.839 114.884 163.82 104.281 166.165C98.4598 167.453 92.4795 167.566 86.6063 166.552C80.9021 165.567 75.6747 163.266 70.6413 160.568L69.9638 160.202C69.642 160.027 69.3299 159.996 69.0562 160.044C68.731 160.1 68.4474 160.275 68.2482 160.526C68.0587 160.764 67.949 161.071 67.9554 161.388C67.9611 161.673 68.0576 161.969 68.278 162.229ZM27.0411 96.5364C25.5935 92.0778 24.8264 87.2266 25.3802 82.707C25.7288 79.8659 26.6089 77.1309 28.0418 74.6268C28.8626 73.1926 29.8628 71.8649 30.9545 70.6144L31.3311 70.1944C31.5217 69.9799 31.7113 69.7828 31.7701 69.5356C31.8043 69.392 31.7695 69.2349 31.6796 69.0473C31.4803 68.6316 31.1099 68.231 30.7632 67.84C30.5429 67.5915 30.3276 67.3476 30.1469 67.1103C26.9743 62.942 24.6083 57.9795 25.3774 52.6936C26.1277 47.5364 29.61 42.7292 33.3172 39.1064C41.4804 31.1292 54.1363 29.2961 65.2232 29.7361C71.6772 29.992 78.1207 31.096 84.2669 33.0245C87.2976 33.9757 90.261 35.134 93.1407 36.4617L93.7784 36.7588C94.1224 36.9206 94.4662 37.0842 94.8102 37.2479C97.0611 38.3193 99.3206 39.4012 101.764 39.9837C106.438 41.0975 109.639 38.8227 112.966 36.459C113.036 36.4093 113.105 36.3596 113.176 36.3099C114.342 35.482 115.525 34.6427 116.784 33.9061L117.043 33.7574C119.313 32.4802 122.028 31.6207 124.636 31.6592C126.902 31.6927 129.088 32.3949 130.868 34.0541C131.233 34.395 131.443 34.767 131.542 35.1372C131.739 35.4051 131.898 35.7246 132.001 36.102C132.639 38.4237 133.273 40.747 133.906 43.071L134.423 42.7476C135.955 41.7817 137.621 40.6779 138.373 39.0621C138.662 38.4402 138.621 37.4041 138.257 36.6423C138.129 36.3761 137.96 36.1395 137.727 35.9917C137.558 35.8843 137.354 35.8338 137.116 35.8524C136.539 35.9245 136.009 35.8426 135.559 35.6582C135.041 35.4455 134.627 35.0956 134.359 34.6739C134.084 34.2421 133.959 33.7345 134.026 33.208C134.084 32.7553 134.285 32.2826 134.682 31.8384C137.295 28.9144 139.496 25.6889 141.169 22.1878L130.104 18.2143C126.158 16.7982 122.212 15.3839 118.264 13.9751L116.103 13.2043C108.924 10.6487 101.704 8.15115 94.2384 6.5058C79.4017 3.23618 63.9303 4.00463 49.1347 7.08234L48.2409 7.2698C42.0322 8.58379 35.74 10.1736 30.0413 12.9371C27.2441 14.2934 24.5852 15.9428 22.3018 18.0266C21.2935 18.9468 20.3818 19.9543 19.4698 20.9605C18.1917 22.3706 16.9121 23.7769 15.3925 24.9647L13.9819 26.061C11.8835 27.7021 9.99081 29.301 8.80677 31.8462C7.5687 34.507 6.97777 37.4466 6.4956 40.3106C5.27963 47.5255 4.79967 54.8558 4.84544 62.1639C4.92286 74.4347 6.84362 86.4555 9.27017 98.434C11.217 95.7298 13.9518 93.6333 17.4619 93.1863C19.7504 92.895 22.0191 93.309 23.9864 94.2911C25.1235 94.8587 26.1598 95.6161 27.0411 96.5364ZM15.3962 110.289C18.108 109.828 20.7992 110.143 23.3625 111.107C24.5335 111.547 25.631 112.167 26.6355 112.896C26.7699 112.994 26.8992 113.09 27.0253 113.184C28.0648 113.96 28.9287 114.558 30.3879 114.598C31.2152 114.621 31.8542 114.266 32.2723 113.733C32.7047 113.182 32.8909 112.422 32.7606 111.694C32.5108 110.297 31.5065 109.227 30.1344 108.451C28.3879 107.464 26.059 106.962 24.4029 106.724L24.0827 106.68C20.8432 106.253 17.5794 106.853 14.643 108.213C14.3365 108.355 14.1699 108.568 14.0825 108.787C13.9817 109.04 13.9875 109.324 14.1017 109.587C14.2005 109.815 14.3825 110.021 14.6133 110.151C14.8411 110.279 15.112 110.337 15.3962 110.289Z" transform="translate(15.34244 19.36029)" id="ðŸ–-Ink" fill="#000000" fill-rule="evenodd" stroke="none" />
  </g>
</svg>