<?xml version="1.0" encoding="utf-8"?>
<svg width="182px" height="212px" viewBox="0 0 182 212" version="1.1" xmlns:xlink="http://www.w3.org/1999/xlink" xmlns="http://www.w3.org/2000/svg">
  <desc>Created with Lunacy</desc>
  <defs>
    <rect width="181.825485" height="211.10199" id="artboard_1" />
    <clipPath id="clip_1">
      <use xlink:href="#artboard_1" clip-rule="evenodd" />
    </clipPath>
  </defs>
  <g id="head/Short-4" clip-path="url(#clip_1)">
    <use xlink:href="#artboard_1" stroke="none" fill="#FFFFFF" />
    <path d="M130.626 57.7097C129.8 50.6674 130.869 35.9476 130.941 35.0533C131.393 29.3997 128.664 7.07462 123.505 9.13166C114.85 2.48175 103.322 1.01335 92.5433 0.311909C70.1536 -1.14533 46.335 2.19991 29.0462 16.8244C20.4962 24.4192 12.1724 35.4654 12.8415 46.9669C5.07332 57.869 -5.87809 72.8238 3.80074 85.5692C7.09076 89.6412 12.3197 91.1576 16.4527 94.2415C24.7659 100.75 29.9815 110.089 38.3736 116.559C60.6071 135.95 98.3596 140.001 120.204 117.945C137.096 101.971 134.364 78.0738 131.393 57.7097C129.396 44.0188 132.237 71.4485 130.626 57.7097Z" transform="translate(24.93368 55.47479)" id="âœ‹-Skin" fill="#D08B5B" stroke="none" />
    <path d="M87.4066 0.038941C81.2917 -0.180724 75.143 0.549011 69.1551 1.7218C57.2708 4.04504 45.0996 7.84636 34.3355 13.297C29.8159 15.5868 25.6462 18.4145 21.8858 21.6719C18.4867 20.0944 13.124 19.9663 12.0346 23.5837C11.722 24.6221 11.8777 25.5633 12.3265 26.3682C12.1957 26.4405 12.0664 26.5179 11.9399 26.6002C11.0824 27.1575 10.6247 27.563 10.0939 28.0748L9.67471 28.4826C8.34746 29.7749 8.22202 32.1663 9.67471 33.4422L9.87341 33.6164L9.99565 33.7199C10.2432 33.9217 10.5088 34.0924 10.786 34.2337C5.69526 41.8059 2.23981 50.4353 0.809373 59.4528C-0.0310902 64.7471 -0.276209 70.0414 0.356728 75.3692C0.663606 77.9717 1.12392 80.7491 2.06336 83.2101C2.52022 84.4127 3.16428 85.5818 3.74352 86.7359C4.373 87.9944 5.4045 88.914 6.25225 90.0384C6.34431 90.1538 6.49008 90.2134 6.63201 90.2171C6.37538 90.7309 6.141 91.2521 5.92274 91.7696C4.66799 94.7444 3.7017 97.95 3.14165 101.118C2.08676 107.094 2.7312 113.814 7.41839 118.286C9.28651 120.065 12.1788 121.491 15.0217 121.871C14.1122 122.78 13.3795 123.859 12.793 125.103C11.6959 127.422 13.5253 130.561 16.4329 129.697C16.9857 129.533 17.5339 129.325 18.0713 129.094C18.9071 130.706 20.6951 131.797 22.6131 131.518C23.7294 131.354 24.5345 130.933 25.0873 130.341C26.4717 133.312 28.3091 136.012 30.638 138.395C33.1003 140.919 35.82 143.194 38.2754 145.725C40.661 148.183 42.0769 151.392 44.8886 153.417C45.7629 154.047 47.102 153.376 47.3475 152.446C48.3007 148.823 45.7333 145.808 43.2976 143.317L42.9898 143.004C40.3771 140.368 37.3586 138.167 34.5775 135.71C31.689 133.156 29.364 130.446 27.2696 127.244C27.0887 126.968 26.9083 126.687 26.7273 126.403L25.9044 125.107C25.8618 124.917 25.8158 124.731 25.7624 124.548C25.7199 123.815 25.4671 123.118 24.9799 122.478C24.3773 121.685 23.5721 121.086 22.6745 120.806C22.3714 120.494 22.0565 120.196 21.727 119.92C22.137 119.485 22.498 118.971 22.8049 118.375C23.3726 117.266 22.709 115.501 21.1899 115.646C20.7336 115.689 20.2853 115.669 19.8374 115.648C19.3475 115.626 18.858 115.604 18.359 115.665C18.2395 115.679 18.12 115.695 18.0006 115.71C17.1809 115.815 16.3626 115.92 15.5353 115.81C13.8364 115.575 12.3135 114.682 11.2087 113.431C8.44259 110.303 8.15106 105.806 8.73029 101.904C8.98628 100.162 9.4238 98.4502 9.88871 96.7478L10.6075 94.1399C11.0171 92.6828 11.5106 91.1724 12.4746 89.9862C15.4997 86.2628 20.6828 89.1848 23.7852 91.4261L24.0669 91.6319C24.0938 91.6505 24.1168 91.6579 24.1436 91.6579C24.3086 91.9186 24.4851 92.1755 24.6692 92.4212C25.6853 93.7541 26.9167 94.938 28.1868 96.055L28.4458 96.2846C28.6196 96.4368 28.7952 96.5874 28.9693 96.7363C30.4538 98.0059 32.4635 97.0714 32.6595 95.2545C33.0236 91.8292 32.9242 88.3667 33.1502 84.9265C33.3765 81.4826 33.7835 78.0499 34.3896 74.6506C34.9956 71.2551 35.7782 67.8931 36.733 64.5796C37.2125 62.919 37.738 61.2771 38.298 59.6427C38.7242 58.3842 39.0426 56.344 40.1662 55.469C41.1831 54.6723 43.0972 54.5382 44.3439 54.2813C46.0855 53.9202 47.8381 53.6 49.5835 53.2389C52.8483 52.5575 56.1089 51.8166 59.3234 50.938C62.5073 50.0668 65.6643 49.0392 68.7216 47.8031C67.8431 49.2328 66.972 50.6662 66.1089 52.1033C64.9274 54.0728 66.4772 56.1764 68.6218 56.3514C70.8233 56.5301 73.0524 56.37 75.2002 55.8637C75.657 55.7557 76.0752 55.6329 76.4626 55.4876C78.8214 55.3237 81.2288 54.8014 83.4452 54.2711L84.4798 54.0207C88.6913 52.9931 92.7383 51.5895 96.7281 49.9327C97.175 49.7473 97.6223 49.5582 98.0695 49.3657C99.7244 48.8809 101.354 48.3176 102.952 47.6769C108.877 48.547 114.92 48.2097 120.741 46.8202C123.254 46.2208 125.985 45.4687 128.582 44.4262C129.875 46.567 131.858 48.302 134.071 49.5604C134.313 51.4183 134.447 53.2947 134.536 55.1563C134.819 61.091 135.141 67.0257 135.475 72.9566L135.582 74.8773C136.214 86.4028 136.6 97.9469 136.691 109.484C136.776 119.998 136.112 130.379 130.243 139.523C125.298 147.237 117.584 153.376 108.627 156.132C103.126 157.822 97.2958 158.365 91.553 157.826C88.7492 157.561 85.972 156.939 83.2903 156.105L82.9047 155.987C80.2122 155.181 77.6484 154.783 74.84 154.452C72.983 154.233 72.5342 156.571 73.4667 157.669C75.4384 159.985 77.5443 161.53 80.4746 162.58C83.1219 163.526 85.9294 164.125 88.7186 164.516C94.4725 165.32 100.276 165.231 105.961 163.969C116.51 161.631 125.835 155.48 132.33 147.136C139.461 137.974 141.758 127.02 141.908 115.735C142.07 103.66 141.452 91.5261 140.631 79.4707L140.458 76.9776C140.09 71.7615 139.699 66.5267 139.088 61.3218C140.098 61.4186 141.156 61.1133 142.016 60.2756C143.69 58.6508 144.086 56.1503 144.285 53.8918L144.336 53.2687C144.498 51.1874 144.171 49.0578 143.585 47.0585C142.776 44.3205 141.42 42.0151 139.505 40.0846C142.07 37.4018 143.451 33.6049 143.756 30.0203C143.976 27.4371 144.18 24.042 141.243 22.8383C140.663 22.6004 140.063 22.5126 139.459 22.5248C139.614 21.6048 139.719 20.6737 139.778 19.7314C139.872 18.2332 138.288 16.5909 136.702 16.7458C136.221 16.7931 135.739 16.8433 135.257 16.8921C135.545 16.445 135.834 15.9989 136.131 15.5574C137.38 13.7043 135.692 11.6384 133.721 11.4801C128.482 11.0598 123.295 10.017 118.296 8.43722C113.274 6.84968 108.028 5.25208 103.258 3.0424C102.922 2.8864 102.55 3.00181 102.319 3.22669C98.3057 0.629989 92.479 0.235187 87.8781 0.0567135L87.4066 0.038941ZM19.5593 98.3029C17.7782 97.4991 15.3659 96.4104 13.5138 96.997C12.6661 97.2651 12.4163 98.1363 12.7999 98.7766L12.7693 98.7766L12.8488 98.8999C13.201 99.4207 13.6531 99.7736 14.1487 100.108L14.3804 100.262C13.7589 100.69 13.2833 101.308 13.0761 102.098C12.7428 103.352 13.2833 104.894 14.5108 105.523C15.0022 105.772 15.535 105.91 16.0912 105.936C16.8759 105.97 17.5305 105.619 18.1243 105.18L18.3007 105.046C18.562 104.845 18.773 104.577 18.9414 104.287C20.3726 106.081 21.5767 108.2 24.1046 108.267C25.3129 108.3 26.6785 107.366 26.9279 106.178C26.9551 106.063 26.9777 105.947 27.0011 105.836C27.2347 104.722 27.0663 103.419 26.1265 102.623C24.2392 101.029 22.2905 99.5213 20.0005 98.5011C19.8585 98.438 19.7112 98.3715 19.5593 98.3029Z" transform="translate(18.41055 24.20058)" id="ðŸ–-Ink" fill="#000000" fill-rule="evenodd" stroke="none" />
  </g>
</svg>
