<?xml version="1.0" encoding="utf-8"?>
<svg width="182px" height="212px" viewBox="0 0 182 212" version="1.1" xmlns:xlink="http://www.w3.org/1999/xlink" xmlns="http://www.w3.org/2000/svg">
  <desc>Created with Lunacy</desc>
  <defs>
    <rect width="181.825485" height="211.10199" id="artboard_1" />
    <clipPath id="clip_1">
      <use xlink:href="#artboard_1" clip-rule="evenodd" />
    </clipPath>
  </defs>
  <g id="head/Medium-2" clip-path="url(#clip_1)">
    <use xlink:href="#artboard_1" stroke="none" fill="#FFFFFF" />
    <path d="M132.274 17.3398C120.745 1.93869 99.5175 -2.49035 81.1088 1.2555C45.1199 7.62281 10.7361 34.2719 4.37708 70.5145C-5.5438 92.4404 0.791499 126.976 29.6441 129.556C33.7518 129.781 37.8205 128.863 41.9356 129.359C67.0503 133.252 96.728 149.92 118.96 130.264C120.074 131.039 121.542 131.413 122.791 130.944C132.254 127.395 132.698 117.128 133.505 108.688C134.547 97.7824 135.524 86.871 136.436 75.9551C136.762 57.1302 144.45 33.6062 132.274 17.3398L132.274 17.3398Z" transform="translate(18.0302 45.05003)" id="âœ‹-Skin" fill="#D08B5B" stroke="none" />
    <path d="M165.972 13.9131C152.753 6.01595 124.834 -0.719949 109.682 0.0619106C92.3781 0.955464 74.046 6.23115 60.1674 16.5629C53.5542 21.4849 48.1992 27.7435 44.6432 35.0777C41.256 42.0586 39.3994 49.494 38.3675 57.119C37.2052 65.712 37.14 74.4015 37.3395 83.0544C37.4623 88.1439 37.6502 93.2298 37.8152 98.3156C37.9955 103.844 37.9072 109.437 38.6744 114.921C38.6821 114.984 38.6936 115.044 38.709 115.107C33.6377 114.915 28.4619 117.827 24.17 120.311L23.3662 120.778C18.5984 123.573 14.0108 126.926 10.2076 130.878C6.25272 134.984 3.07653 139.698 1.101 144.996C-0.134184 148.299 -0.575322 151.984 1.08182 155.227C2.551 158.094 5.47402 159.862 8.53897 160.782C11.5387 161.683 14.6957 161.977 17.8566 161.814C17.6724 162.309 17.5228 162.819 17.4039 163.344C16.4181 167.748 17.8144 173.024 22.0148 175.44C26.3892 177.955 32.3672 176.82 37.0537 175.581L37.4162 175.485C40.8226 174.569 44.1254 173.225 47.2172 171.539C49.5418 174.815 53.6693 176.892 57.8735 177.324C63.6762 177.919 68.7355 174.97 73.2645 171.735L73.6164 171.482C76.4013 173.173 79.9572 173.564 83.1143 172.253C85.4312 171.293 87.9437 168.738 88.7186 166.155C88.6726 166.967 88.8797 167.789 89.317 168.512C90.4371 170.358 92.4357 170.641 94.4342 170.362C95.6426 170.194 96.5555 169.007 96.9008 167.968C101.423 154.36 95.7998 138.723 86.2406 128.413C83.8277 125.811 81.0428 123.521 78.0546 121.567C74.6713 119.351 70.8046 118.089 67.2755 116.134C61.6788 113.033 57.4631 106.488 58.8478 100.061C59.5767 96.6774 61.7747 93.9706 64.6095 91.9602C66.0211 90.9583 67.5939 90.1466 69.2625 89.6183C71.1153 89.0334 75.3732 88.2404 76.267 90.7017C76.3092 90.8246 76.478 90.7833 76.478 90.6682L77.4255 90.6571L77.4378 91.071C77.4526 91.4858 77.4744 91.9039 77.4985 92.3287L77.5482 93.1884C77.5674 93.4941 78.0895 93.5832 78.1121 93.2633C80.7854 55.5399 141.062 65.5682 152.96 41.0645C159.228 52.583 179.386 59.6247 184.238 59.204C182.629 68.5465 182.103 73.3617 181.467 82.3626L181.149 86.9805C180.495 96.6142 179.883 106.249 179.386 115.893C178.937 124.605 179.313 134.236 175.185 142.256C171.998 148.451 166.221 152.923 159.485 155.559C155.737 157.022 151.452 158.098 147.432 158.519C144.545 158.823 141.654 158.799 138.761 158.775C137.264 158.762 135.767 158.75 134.271 158.783C133.657 158.798 133.4 159.613 133.952 159.922C137.554 161.937 141.743 162.789 145.829 163.247C147.206 163.399 148.556 163.508 149.899 163.556C150.397 165.79 152.676 167.827 155.231 167.659C162.596 171.632 170.686 173.675 179.094 174.145L179.24 174.152C182.975 174.341 186.915 173.883 188.895 170.35C189.21 169.789 189.448 169.197 189.601 168.59C194.596 168.932 199.782 166.702 202.478 162.443C205.171 158.199 204.795 152.744 202.214 148.619C203.664 147.971 204.999 147.114 206.142 145.994C209.283 142.907 209.867 138.518 207.975 134.646C205.996 130.591 202.01 127.557 198.83 124.422L198.356 123.959C196.611 122.272 194.801 120.702 192.931 119.135L191.483 117.921L190.035 116.704C189.501 116.261 188.742 115.773 188.285 115.256C187.955 114.879 187.273 113.029 188.232 113.841C188.316 113.912 188.489 113.845 188.439 113.722C188.239 113.215 187.702 112.974 187.158 113.171C187.135 107.948 187.043 102.728 186.937 97.5078L186.774 89.6779C186.536 77.95 186.647 71.2852 185.232 59.6247C186.901 60.1456 187.967 58.5781 188.301 56.8845C189.179 52.4465 187.51 26.7799 165.972 13.9131ZM70.5134 98.5537C67.4945 98.0548 64.0536 98.926 62.5422 101.692C62.4386 101.875 62.6957 102.091 62.8491 101.923C64.9896 99.6371 68.4113 99.8903 70.8356 101.61C73.1163 103.232 74.4364 105.853 75.5538 108.339L75.8838 109.079C77.2762 112.214 82.685 109.165 80.0918 105.93C77.6215 102.843 74.7445 99.2537 70.5134 98.5537Z" transform="translate(-29.15222 23.08356)" id="ðŸ–-Ink" fill="#000000" fill-rule="evenodd" stroke="none" />
  </g>
</svg>