<?xml version="1.0" encoding="utf-8"?>
<svg width="182px" height="212px" viewBox="0 0 182 212" version="1.1" xmlns:xlink="http://www.w3.org/1999/xlink" xmlns="http://www.w3.org/2000/svg">
  <desc>Created with Lunacy</desc>
  <defs>
    <rect width="181.825485" height="211.10199" id="artboard_1" />
    <clipPath id="clip_1">
      <use xlink:href="#artboard_1" clip-rule="evenodd" />
    </clipPath>
  </defs>
  <g id="head/Dreads-2" clip-path="url(#clip_1)">
    <use xlink:href="#artboard_1" stroke="none" fill="#FFFFFF" />
    <path d="M71.2052 0C92.9861 0 115.515 16.3863 123.499 26.8428C132.731 38.9337 140.013 96.9762 136.597 116.671C133.181 136.366 116.21 157.833 86.7507 157.833C57.291 157.833 39.3627 154.311 38.6438 149.195C37.9249 144.08 19.2131 115.606 19.2131 115.606C19.2131 115.606 0.0753141 110.381 0.000537402 97.9016C-0.0742393 85.422 10.2558 80.8816 10.2558 80.8816C10.2558 80.8816 6.57262 31.6322 15.8487 18.81C25.1248 5.98786 49.4242 -3.08021e-15 71.2052 0Z" transform="translate(21.64073 28.02016)" id="âœ‹-Skin" fill="#D08B5B" stroke="none" />
    <path d="M92.7378 1.41645C95.6671 -1.92943 100.834 1.23319 100.717 4.8894C101.886 5.19663 103.266 6.25665 103.798 7.63863C104.949 7.56618 106.11 7.78818 107.155 8.36855L107.376 8.10499C110.999 3.81176 115.793 0.127666 120.741 3.2893C122.087 4.14972 122.69 5.57171 122.393 7.11302L122.37 7.22215L122.48 6.74626C122.591 6.2941 122.425 7.19881 122.363 7.39026L122.355 7.41198C122.224 7.73432 122.094 7.89666 121.975 8.14035C127.04 4.64764 134.753 6.69213 130.689 13.4532L132.342 12.8276C138.06 10.683 145.169 8.37991 150.382 12.2359C152.712 14.4113 150.126 17.3121 147.751 18.0153L148.159 17.949C148.353 17.9172 148.555 17.8834 148.765 17.8482C153.507 17.0544 162.278 15.5862 163.578 21.0984C164.066 23.1697 162.642 24.6834 160.845 25.5167C164.647 25.5032 168.397 26.1114 171.686 27.9122C174.816 30.0706 172.287 33.6424 169.014 33.4866C170.029 34.7043 170.365 36.7651 169.386 38.0804C171.246 38.5543 172.961 39.1637 174.543 40.1137L174.977 40.1679C178.138 40.5507 181.745 40.7785 183.484 43.7916C186.043 50.3295 176.93 50.0692 173.018 47.7728C173.25 48.139 173.422 48.5388 173.519 48.9657L174.786 49.311C179.568 50.6019 184.98 52.028 188.059 55.9341C189.47 58.182 187.506 62.0021 184.556 61.3194C192.551 65.0152 189.487 74.751 181.667 69.6865C181.302 70.015 180.857 70.2591 180.391 70.3668L182.041 71.235C186.232 73.4619 191.272 76.5105 190.397 81.5663C189.564 84.2419 185.74 83.753 183.796 82.729C187.193 85.5633 190.397 88.6322 193.308 91.95L194.113 92.88C196.377 95.5134 200.315 100.361 196.049 102.895C192.284 104.755 189.871 101.35 187.681 98.2615C186.812 97.036 185.979 95.8601 185.11 95.0823C187.556 100.668 179.604 104.563 176.829 98.9373C176.363 99.0167 175.894 99.0248 175.435 98.9648C177.828 101.427 184.299 118.27 176.249 114.577C174.968 113.26 173.843 111.822 172.808 110.312C174.101 119.962 175.046 129.658 175.657 139.361L175.875 142.878C176.097 146.527 176.265 150.191 175.843 153.827C175.355 158.06 174.101 162.033 172.203 165.867C170.453 169.404 168.197 172.681 165.616 175.693C164.235 177.305 162.77 178.872 160.967 180.052C159.532 180.991 157.856 181.609 156.241 182.205C153.613 184.751 150.242 186.676 146.946 188.214C141.515 190.742 135.627 192.138 129.669 192.838C123.578 193.549 117.425 193.378 111.383 192.361C105.61 191.393 99.4221 188.917 95.8666 184.2C95.5597 183.794 96.1309 183.411 96.5068 183.578C106.826 188.214 118.422 189.424 129.669 187.961C134.916 187.279 140.08 185.872 144.871 183.686C148.914 181.843 152.324 179.163 155.953 176.735C156.659 175.823 157.372 174.926 158.186 174.092L159.455 172.8C160.404 171.83 161.335 170.846 162.183 169.784C164.799 166.512 166.966 162.8 168.397 158.894C171.002 151.78 170.51 144.096 170.033 136.646C170 136.135 169.968 135.625 169.936 135.116L169.893 134.418C169.387 125.944 168.562 117.5 167.419 109.086C166.944 105.584 166.415 102.088 165.836 98.6003C164.908 97.1348 163.916 95.7166 162.807 94.388C163.71 97.794 160.583 102.528 156.749 100.281C152.359 96.6379 152.571 90.7582 148.891 86.2977C145.077 80.5791 118.759 69.4575 110.935 67.8957C112.195 69.6756 114.498 70.9154 115.035 73.0161C124.658 81.268 108.972 85.6607 104.074 73.9006C104.182 77.816 104.591 81.6973 105.488 85.5189C106.795 89.0283 107.821 99.1988 101.268 96.1296C98.1302 97.009 95.7379 94.4156 95.3445 91.4893C93.0781 98.102 95.2214 108.667 91.0659 113.54C89.7915 114.822 87.8224 113.969 87.1599 112.505C83.3169 111.528 83.6448 107.18 83.1786 104.067C79.6736 116.473 75.2868 125.084 74.6826 138.026C77.3947 141.773 71.4459 144.529 68.8927 141.526C66.198 137.747 67.3981 132.926 68.5177 128.427C68.887 126.943 69.2475 125.495 69.4566 124.131C68.4486 124.08 67.4509 123.646 66.6186 122.697C66.2098 124.252 66.3809 126.252 66.5306 128.002C66.547 128.195 66.5632 128.385 66.5784 128.57C64.306 137.193 55.6672 131.67 56.0244 124.675C55.6513 126.648 55.3689 128.642 55.1895 130.65C56.858 132.513 58.0947 134.743 58.8261 137.11C59.3522 138.82 57.561 139.846 56.1938 139.598C55.4661 142.007 52.3109 143.745 50.2357 141.442C48.1847 139.429 47.8283 136.519 47.6645 133.622C47.3791 133.328 47.2049 132.942 47.2337 132.475C47.2599 132.036 47.371 131.663 47.5475 131.35C47.5128 130.758 47.469 130.177 47.4025 129.615C46.2176 133.192 46.4921 136.897 46.7654 140.587C46.8584 141.842 46.9513 143.096 46.9866 144.342C49.791 145.875 52.9924 146.53 56.2081 147.177L56.6744 147.27C57.6675 147.471 57.9824 148.909 57.2344 149.512C59.2253 151.403 60.9438 153.659 62.6201 155.741C64.846 158.502 66.9748 161.372 69.0456 164.249L70.2609 165.939L70.4166 166.154C73.9524 171.04 78.6876 177.583 76.5217 183.541C76.2225 184.372 74.972 184.669 74.4844 183.798C72.8848 180.931 71.9911 177.774 70.472 174.874C68.9802 172.029 67.1236 169.393 65.2819 166.757L64.2197 165.23C62.4512 162.679 60.6992 160.1 59.0753 157.472L57.9445 155.652C56.8821 153.934 55.8305 152.159 55.0475 150.312C52.2588 150.965 49.3406 150.496 46.6661 149.368L46.632 149.548L46.5641 149.873C46.1824 151.433 43.9643 152.5 42.5471 151.479C39.1553 148.997 37.7744 145.303 37.4145 141.353C36.7309 140.238 36.1514 139.06 35.6788 137.84C35.456 140.273 34.4889 142.631 31.5095 142.558C26.3391 142.146 25.8318 137.407 27.2297 132.693C21.1088 134.507 20.3915 126.106 22.3232 121.678C21.606 121.47 20.9418 121.055 20.5617 120.497L20.2445 121.037C19.0681 123.013 17.7345 124.933 15.876 125.959C13.2793 127.392 9.50402 125.617 9.67659 122.46C10.2325 117.317 14.878 113.399 17.7059 109.277C17.2023 109.346 16.6789 109.328 16.1656 109.235C10.5133 112.296 7.81528 105.093 9.80613 100.92C11.2652 97.1706 13.9057 93.9464 16.7361 91.1042L15.9063 91.5853C14.4094 92.4408 12.7395 93.2669 11.0938 92.9313C0.325777 99.7986 -3.20859 88.2488 8.87487 84.6391L8.87084 84.5852C7.65799 83.45 7.13182 81.6535 8.07475 79.8589C3.64251 81.3699 -2.68523 77.9512 1.22164 73.2787C3.77003 70.9499 6.77621 68.9465 10.109 67.8981C9.9429 67.0407 9.88899 66.1682 9.95778 65.2903L9.75894 65.3165C9.46508 65.3576 9.16166 65.4091 8.85355 65.4615C6.95555 65.7842 4.87953 66.1372 3.76319 64.2453C3.10508 63.1381 3.18231 61.3133 4.26121 60.4524C7.97579 57.4881 12.2137 55.0225 16.8173 54.0229C16.9863 53.479 17.1625 52.9381 17.3487 52.4C13.4217 52.3291 9.01244 47.2665 13.5235 44.3979C17.4891 42.4367 21.5746 41.1752 26.0523 41.2922C23.4271 38.7797 24.977 34.2255 28.4679 33.5254C26.1818 28.8006 31.8297 26.3629 36.0427 27.1079C35.8878 25.0088 37.046 22.6691 39.2738 22.1422C38.1052 15.4996 45.3521 16.1281 49.8926 17.7026C48.372 15.1417 49.9348 12.129 52.6171 11.2309C56.3604 10.4085 59.9655 13.2358 63.0195 15.6309C63.5494 16.0465 64.0628 16.4491 64.5574 16.8173C63.4169 14.2192 64.3788 11.8237 67.0953 10.7885C69.6795 9.80686 72.4487 11.4841 74.6966 12.8456C74.8824 12.9581 75.0647 13.0685 75.2429 13.175C76.5125 11.6276 78.6804 11.1232 80.6245 11.2189C80.8325 10.6377 81.137 10.1531 81.528 9.7699C81.5172 6.18924 87.7983 4.22069 89.9906 7.5561C90.3635 5.23693 91.3467 3.00531 92.7378 1.41645ZM119.416 9.76728L119.627 9.67555C119.484 9.85815 119.342 10.0414 119.201 10.2254C119.093 10.2359 118.986 10.254 118.879 10.2693C118.988 10.1439 119.12 9.98708 119.22 9.85396L119.164 9.87487C119.184 9.86093 119.204 9.85675 119.226 9.84699C119.284 9.8226 119.348 9.79594 119.416 9.76728ZM176.169 56.964L176.083 57.0857C176.069 57.1058 176.054 57.1255 176.038 57.1446C176.275 57.237 176.511 57.3314 176.747 57.4289L177.099 57.5774L177.223 57.6337C176.873 57.4075 176.522 57.1833 176.169 56.964ZM171.393 66.7462L171.321 66.3607C171.711 66.6284 172.096 66.9 172.469 67.1933C172.213 67.1239 171.943 67.0561 171.663 66.9918C171.573 66.9101 171.486 66.826 171.393 66.7462Z" transform="translate(-14.57705 -5.197235)" id="ðŸ–-Ink" fill="#000000" fill-rule="evenodd" stroke="none" />
  </g>
</svg>