<?xml version="1.0" encoding="utf-8"?>
<svg width="177px" height="210px" viewBox="0 0 177 210" version="1.1" xmlns:xlink="http://www.w3.org/1999/xlink" xmlns="http://www.w3.org/2000/svg">
  <desc>Created with Lunacy</desc>
  <defs>
    <rect width="176.171677" height="209.2501" id="artboard_1" />
    <clipPath id="clip_1">
      <use xlink:href="#artboard_1" clip-rule="evenodd" />
    </clipPath>
  </defs>
  <g id="head/doctor-nurse-2_2" clip-path="url(#clip_1)">
    <use xlink:href="#artboard_1" stroke="none" fill="#FFFFFF" />
    <path d="M61.6605 148.876C59.568 150.993 56.5322 149.315 53.9446 148.848C31.7291 142.844 7.88389 124.519 3.45061 102.356L1.2362 95.9472C0.447141 94.6492 -0.159797 90.7056 0.03756 90.3734C0.209272 90.4081 1.45102 89.5523 1.61939 89.5937C0.03756 77.9929 0.340471 67.7047 4.8663 52.9634C-2.65185 47.851 2.41922 39.2821 9.99906 39.7685C10.0968 34.8096 11.5058 31.0866 15.5451 25.8299C31.2694 6.35527 58.4983 -1.33974 83.8774 0.188483C103.487 0.809222 116.503 5.44557 125.211 14.8998C129.66 18.6914 133.076 22.8274 132.768 28.2675L134.748 28.3118L134.805 29.1045C136.929 28.2298 160.88 34.6697 161.429 37.2966L160.755 38.1698C161.655 39.729 161.708 40.9882 161.257 43.1235C160.398 47.1358 161.307 51.481 161.08 55.453C160.874 56.1302 157.779 56.8525 156.596 56.9761C150.893 58.3346 144.844 59.8846 138.574 60.7758C138.883 74.6712 137.273 88.8961 142.345 102.356L144.619 100.429C148.434 127.624 138.473 168.559 106.469 168.165C90.7466 167.864 74.7243 156.75 61.6605 148.876Z" transform="translate(10.93551 22.14278)" id="background" fill="#8FA7DF" stroke="none" />
    <path d="M1.56419 19.8289C1.44171 21.1261 1.35171 22.0792 1.2839 22.4836C0.79923 25.1846 1.04866 27.7317 1.30098 30.3083C1.44319 31.7604 1.58632 33.2219 1.59945 34.7256C0.535357 37.3902 1.45933 39.4805 4.53304 39.5904C11.6851 40.8946 18.9605 41.5741 26.2211 41.8837C27.5807 43.8444 47.878 42.8864 47.6167 40.3178C49.6623 39.8337 51.6066 39.3509 53.4738 38.8873C67.6905 35.3576 77.428 32.9399 93.2422 39.4853C94.8032 42.948 98.5935 39.9074 97.797 36.937C97.1823 31.9607 96.6869 26.8945 96.4884 21.8451C96.1943 18.9816 96.406 16.0885 96.6172 13.2012C96.8737 9.69475 97.1296 6.19695 96.4783 2.77129C97.2258 1.78741 96.4672 0.0255718 94.9586 0.454036C89.1129 2.20554 83.122 3.17761 77.0783 3.96774C72.585 3.8478 68.0337 3.92657 63.4626 4.00568C56.2189 4.13105 48.9255 4.25728 41.7343 3.595C36.953 3.46486 32.1971 2.85542 27.4447 2.24643C21.0251 1.4238 14.6117 0.601974 8.15051 0.963322C8.11037 0.923096 8.06205 0.892834 8.0063 0.881393C7.9643 0.738203 7.93606 0.689489 7.94721 0.87475L7.9394 0.875858C3.81559 -4.01589 2.22176 12.8646 1.56419 19.8289ZM3.77347 46.854C-0.14431 43.5473 -1.06903 49.6824 1.2699 52.1162C1.2049 60.7817 2.85468 69.2285 4.73949 77.6274L4.97136 78.6556C5.2611 79.4281 5.31108 80.2227 5.36046 81.0079C5.44094 82.2875 5.51985 83.5422 6.63235 84.6364C8.34836 86.4594 10.7349 87.4223 13.1987 87.5644C18.2801 91.1479 20.038 84.3459 20.8706 80.193L21.0439 79.3058C21.1656 78.8251 21.3258 78.3235 21.4895 77.8109C22.0699 75.9933 22.6942 74.0381 21.8036 72.3895C23.272 66.3667 24.7914 60.4062 26.2253 54.3696C27.3626 53.7142 27.1631 51.9583 27.6139 50.8438C27.8904 49.7543 26.891 48.7066 25.7723 49.0155L25.6097 49.0565C24.8482 49.2308 24.0311 49.1795 23.2275 49.129C22.1913 49.0639 21.1775 49.0003 20.334 49.4233C16.1073 49.1473 12.0298 47.9881 8.07518 46.5399C6.62827 46.0358 4.98437 45.8535 3.77347 46.854Z" transform="translate(53.6916 83.24815)" id="âœ‹-Skin" fill="#D08B5B" fill-rule="evenodd" stroke="none" />
    <path d="M142.259 13.841C127.259 9.25521 111.148 7.05051 96.314 13.2852C91.3317 14.4636 86.2674 15.3906 81.1435 15.663C78.6084 15.8811 75.541 15.0622 73.3678 16.6664C58.672 14.8459 44.8529 11.6983 30.4615 8.23405C28.3067 7.71537 20.794 5.10346 18.8855 4.77658C13.5945 3.87034 -1.09978 -4.61422 0.0655285 3.44602C-0.0913163 6.04892 0.847523 8.51231 3.7525 8.83006C26.5656 13.3195 49.2356 18.484 72.4424 20.9939C72.7022 21.8486 73.1047 22.6793 73.4752 23.4931C71.6128 34.88 68.225 46.0312 64.373 56.9026C57.0976 61.0725 72.597 66.2214 75.9249 67.1573C78.8407 68.9985 81.8839 70.6345 84.932 72.2469C94.4397 77.8387 106.411 82.8459 116.758 76.3322C121.511 74.8051 125.424 71.8192 128.801 68.3158C139.65 55.8504 147.513 32.8968 144.361 16.5874C144.224 15.5881 143.679 13.0704 142.259 13.841Z" transform="translate(9.648397 111.4835)" id="ðŸ˜·-Face-Mask" fill="#FFFFFF" stroke="none" />
    <path d="M165.88 41.3459C165.876 41.4053 165.863 41.4614 165.849 41.5171C166.152 42.7961 165.907 44.2655 165.667 45.7098C165.497 46.7292 165.329 47.7362 165.357 48.6549C165.177 50.0214 165.317 51.4643 165.456 52.9047C165.659 55.0119 165.862 57.1137 165.064 58.9631C164.227 60.705 160.42 61.0146 158.637 61.6273C163.522 96.8459 161.931 132.706 159.778 168.087C161.772 169.479 160.458 173.741 157.318 172.751C119.372 193.89 71.4874 189.382 35.109 167.086C34.5032 166.721 34.0126 166.009 34.0646 165.278C34.5515 158.155 35.0012 151.029 35.3803 143.895C23.3891 135.883 9.7232 120.087 6.11354 105.532C5.27319 103.736 4.41018 101.948 3.1294 100.489C1.79473 100.458 1.00308 98.363 0.718376 97.185C0.191347 95.3664 -0.819596 91.2035 1.23463 90.4462C1.24986 90.4333 1.26324 90.4193 1.27923 90.4071C1.71966 90.0709 2.23293 89.8535 2.76888 89.7181C-0.185155 78.6452 1.36694 66.8342 4.52428 55.9734C-2.26799 50.461 2.09021 40.5055 10.1179 39.8867C10.4487 34.9554 13.0285 30.5077 16.0089 26.66C32.7705 6.12284 60.4134 -1.27989 86.1616 0.177479C101.514 0.657979 118.061 3.71406 128.904 15.4446C132.871 18.9351 136.719 22.9522 137.082 28.134C138.124 28.2572 139.152 28.6015 140.146 28.9189C140.87 29.1503 141.639 29.3773 142.377 29.6674C150.238 31.1745 167.866 35.9652 165.857 40.1985C165.87 40.304 165.878 40.41 165.882 40.5137C165.892 40.786 165.899 41.0743 165.88 41.3459ZM90.2472 8.76151C102.74 8.17436 116.399 10.0668 126.265 18.2121C129.451 21.3619 131.584 25.4022 134.505 28.6639C97.3405 37.211 59.0931 39.7353 21.0381 40.8126C39.1336 22.1428 63.8712 9.46344 90.2472 8.76151ZM132.811 32.1662C96.0555 39.2622 58.0177 44.9227 20.57 41.2558C20.5329 41.2894 20.4957 41.3223 20.4623 41.3592C60.073 50.3193 101.159 54.3179 141.43 47.1196C147.681 46.0752 156.902 45.4187 161.165 39.9715C152.435 35.0776 142.421 33.6715 132.811 32.1662ZM6.72526 44.0052C7.28983 43.3911 7.93988 42.8907 8.64159 42.4899C9.16639 42.4002 9.69862 42.3271 10.2465 42.2781C12.061 42.1164 15.0328 42.0419 16.2478 43.6723C16.9198 44.5735 17.203 45.9353 17.3539 47.2049C17.3602 47.3698 17.3617 47.534 17.3513 47.6994C16.7351 60.1603 -0.951962 53.5255 6.72526 44.0052ZM161.786 57.5714C161.341 52.9472 161.935 48.0721 163.365 43.6804L163.376 43.6472C158.013 49.2084 148.309 50.1794 141.184 51.3832C101.342 57.7836 59.0805 56.5469 20.8966 42.7763C22.4588 46.4088 21.9068 50.8322 19.7147 54.0983C65.9482 67.0699 115.082 69.9086 161.786 57.5714ZM4.20076 90.7596C15.2866 93.1772 25.8825 97.3197 36.9375 99.8422C37.0154 95.8746 37.0371 91.8971 37.0589 87.9168C37.1078 78.9835 37.1567 70.0356 37.8406 61.1512C31.4293 59.5606 25.0552 57.612 19.101 54.918C16.4584 58.18 11.9835 59.5728 7.95091 57.9958C4.59621 68.6074 4.4691 79.7494 4.20076 90.7596ZM49.5821 63.9006C46.0758 76.0021 44.2706 88.76 44.0963 101.326C42.8883 101.097 41.6767 100.857 40.4688 100.61C40.2796 87.5208 40.2517 74.3808 38.7182 61.369C42.3739 62.2536 45.9821 63.0382 49.649 63.7678C49.623 63.8084 49.6007 63.8526 49.5821 63.9006ZM157.489 110.652C157.492 130.362 156.326 150.076 155.028 169.706C118.622 188.894 73.0961 185.359 38.3572 164.137C38.7549 158.237 39.1042 152.328 39.4016 146.416C43.6747 148.967 59.6096 156.337 63.8798 153.734C71.6614 158.826 79.8902 163.335 88.3282 167.257C126.446 185.95 149.682 152.786 149.419 117.5C149.397 117.008 149.45 116.012 149.518 114.733C149.789 109.68 150.294 100.217 147.32 100.059C147.044 99.9541 146.753 99.8732 146.492 99.7662C146.101 99.6053 145.716 99.4813 145.307 99.4887C142.857 90.9861 142.951 82.0862 143.045 73.2468C143.075 70.4328 143.105 67.625 143.053 64.8381C147.732 64.0405 152.393 63.1065 157.009 62.0075C156.764 70.4421 156.994 78.8765 157.224 87.3122C157.437 95.0904 157.649 102.87 157.489 110.652ZM126.065 98.2258C131.342 99.0299 136.397 100.956 141.727 101.459C138.7 89.5631 139.161 77.073 141.53 65.1C111.504 70.1431 80.565 69.7991 50.679 63.967C48.9682 76.5335 48.0999 89.2992 47.1295 101.883C55.0914 103.296 63.1314 104.351 71.1914 105.031C71.4054 105.048 71.6384 105.056 71.8804 105.064C72.7523 105.092 73.742 105.125 74.3878 105.647C82.5213 106.052 90.3365 103.87 98.1387 101.691C107.3 99.1323 116.444 96.5786 126.065 98.2258ZM36.7859 106.592C25.8253 104.869 15.1632 102.046 4.33537 99.6757C4.26847 99.5653 4.13095 99.5026 3.97485 99.5912C3.7589 99.6338 3.52797 99.6133 3.29704 99.5928C3.11015 99.5762 2.92341 99.5596 2.74462 99.5764C1.55788 97.8452 1.7846 95.7228 1.54747 93.8303C1.54611 93.6034 1.53231 93.3955 1.51993 93.2092C1.46811 92.4287 1.44133 92.0255 2.45843 92.1807C14.111 95.0061 25.1797 99.8303 36.8825 102.503C36.8491 103.865 36.8193 105.227 36.7859 106.592ZM7.96691 106.045C15.3475 118.396 23.4169 130.64 35.6359 138.832C36.1079 129.045 36.4536 119.251 36.71 109.452C26.2691 107.444 15.7437 105.259 5.83613 101.35C5.94503 101.514 6.0491 101.681 6.14722 101.851C6.89167 103.135 7.5053 104.574 7.96691 106.045ZM73.8492 117.195C72.8825 127.226 69.4932 137.067 66.6306 146.663C66.2218 147.959 65.813 150.623 64.7723 152.173C73.9005 155.98 82.4794 160.989 91.6548 164.675C119.828 177.297 140.348 157.671 144.001 130.155C145.228 122.28 145.318 114.285 145.54 106.334C141.288 107.349 136.748 106.043 132.338 104.775C130.205 104.161 128.101 103.556 126.076 103.227C117.852 101.423 109.706 103.367 101.58 105.306C98.9612 105.93 96.3447 106.555 93.7284 107.053C93.6596 107.161 93.5541 107.254 93.4039 107.307C89.6274 108.656 85.4115 108.56 81.4529 108.376C80.9253 108.351 80.2997 108.26 79.638 108.164C78.016 107.929 76.1773 107.663 75.0337 108.261C74.9512 108.304 74.8791 108.351 74.8115 108.399C74.7253 108.52 74.6171 108.624 74.4933 108.701C74.2592 109.002 74.1651 109.365 74.0771 109.774C74.1302 111.124 74.1298 112.47 74.0785 113.813C74.0689 114.958 73.9979 116.083 73.8492 117.195ZM40.4831 103.311C40.4868 104.603 40.4868 105.894 40.4831 107.186C50.6631 108.751 60.9175 109.74 71.2202 110.117C71.3949 110.122 71.5766 110.154 71.7513 110.212C71.6836 109.39 71.5261 108.613 71.2168 107.969C60.8944 106.998 50.617 105.508 40.4831 103.311ZM44.7979 110.773C43.5952 123.798 44.9462 134.03 48.5592 146.08C45.4707 144.785 42.4862 143.231 39.6354 141.478C40.1037 131.027 40.3937 120.564 40.4643 110.101C41.9063 110.338 43.3521 110.563 44.7979 110.773ZM46.9435 121.262C46.6529 117.853 46.5689 114.427 46.4938 111.009C48.673 111.235 50.876 111.516 53.0895 111.798C59.3274 112.592 65.6494 113.397 71.7599 113.023C71.7568 113.1 71.7536 113.176 71.7504 113.252C71.7268 113.816 71.7048 114.341 71.712 114.787C71.7146 114.953 71.7183 115.118 71.7217 115.284C69.4073 127.116 65.6828 138.652 61.4126 149.922C58.4326 149.328 55.4782 148.585 52.6041 147.597C49.5471 139.104 47.6133 130.267 46.9435 121.262Z" transform="translate(8.547687 20.29777)" id="ðŸ–-Ink" fill="#000000" fill-rule="evenodd" stroke="none" />
  </g>
</svg>
