<?xml version="1.0" encoding="utf-8"?>
<svg width="182px" height="212px" viewBox="0 0 182 212" version="1.1" xmlns:xlink="http://www.w3.org/1999/xlink" xmlns="http://www.w3.org/2000/svg">
  <desc>Created with Lunacy</desc>
  <defs>
    <rect width="181.825485" height="211.10199" id="artboard_1" />
    <clipPath id="clip_1">
      <use xlink:href="#artboard_1" clip-rule="evenodd" />
    </clipPath>
  </defs>
  <g id="head/No-Hair-2" clip-path="url(#clip_1)">
    <use xlink:href="#artboard_1" stroke="none" fill="#FFFFFF" />
    <path d="M69.7349 -8.52242e-15C88.447 -8.52242e-15 124.556 21.047 124.556 21.047C124.556 21.047 141.51 90.0074 138.094 109.703C134.678 129.398 116.884 153.526 87.4243 153.526C57.9645 153.526 49.961 143.438 42.8747 138.853C35.7884 134.268 21.506 113.402 21.506 113.402C21.506 113.402 11.8146 116.331 8.97007 114.636C4.93056 112.229 5.42093 105.899 4.14428 99.7776C3.2035 95.2666 0 90.8401 0.00122308 88.3285C0.00122308 79.2166 6.67183 79.8677 10.0323 77.6841C2.66883 70.6443 4.60677 46.2306 13.8828 33.4084C23.1589 20.5862 51.0227 -6.39182e-15 69.7349 -8.52242e-15Z" transform="translate(20.96809 32.32674)" id="âœ‹-Skin" fill="#D08B5B" stroke="none" />
    <path d="M107.551 2.82693C109.283 1.9989 107.968 -0.23424 106.331 0.0200509C100.157 0.980265 94.5917 3.10143 89.0128 5.73319L88.2342 6.10366C84.5916 7.85093 81.0122 9.72851 77.5261 11.7565C63.9544 11.6396 50.2929 15.5288 38.9603 22.7457C26.7488 30.523 16.7415 41.9426 10.81 54.9029C7.6656 61.7732 4.89218 69.4689 4.90446 77.0842C4.91405 83.1648 6.78025 89.8177 12.3455 93.0699C7.72391 93.7557 3.30908 95.8656 1.16937 100.143C0.0511777 102.379 -0.373082 104.941 0.376085 107.357C1.15134 109.858 3.08429 111.653 4.44222 113.833C5.6499 115.771 5.25199 117.714 4.83641 119.744C4.73717 120.229 4.63693 120.718 4.5573 121.214C4.13304 123.854 4.31564 126.478 5.95437 128.719C9.63844 133.755 15.9308 133.76 21.6057 132.747L21.9523 132.683C24.4714 137.688 27.8421 142.271 31.8879 146.229C34.153 148.446 36.6418 150.45 39.2706 152.248C41.881 154.033 44.5789 155.613 47.887 155.342C48.8966 155.259 49.7797 154.195 49.1291 153.241C47.4505 150.782 45.0733 149.446 42.6248 147.819C40.2028 146.21 37.9622 144.362 35.8915 142.343C31.7038 138.259 28.3787 133.472 25.9333 128.226C25.4223 127.13 23.8949 126.72 22.7866 126.984C19.0907 127.865 10.4931 129.713 9.64496 123.978C9.44149 122.604 9.72246 121.216 10.0041 119.825C10.2487 118.618 10.4939 117.408 10.4229 116.201C10.2702 113.622 8.99131 111.567 7.40053 109.581C7.30196 109.458 7.20227 109.335 7.10226 109.211C5.77856 107.574 4.39709 105.865 4.76943 103.651C5.17528 101.234 7.01693 99.3043 9.11905 98.0969C11.3105 96.8385 13.8579 96.3217 16.3506 95.9198L17.5511 95.7278C19.6848 95.3861 22.6787 94.9978 23.7038 97.159C23.7913 97.344 24.0636 97.2361 24.0725 97.0622C24.2827 92.8857 17.7633 92.6799 14.6374 92.8421L14.265 92.864C14.026 92.88 13.7871 92.9035 13.5481 92.9262C9.15895 89.0664 8.43241 83.077 9.11483 77.6166C9.87627 71.5241 12.0045 65.567 14.5707 59.9771C19.9714 48.2139 28.0772 37.4596 38.8621 29.8297C47.2544 23.8917 56.9092 20.0252 67.0554 18.5129C63.7998 20.8108 60.6313 23.2253 57.564 25.7544L57.4669 25.8336C55.9513 27.0562 53.2557 28.64 52.8105 30.6001C52.6321 31.386 52.7675 32.4281 53.809 32.1824C53.926 32.1548 53.9026 31.9717 53.7806 31.9765C52.6385 32.0231 53.5168 30.3411 53.8206 29.9557L53.8535 29.9165C54.2877 29.4396 55.1144 28.9887 55.6552 28.6086C56.7285 27.8557 57.8061 27.1089 58.8963 26.3788C60.9888 24.977 63.1181 23.6266 65.2789 22.3261C67.8682 20.768 70.5078 19.2996 73.1811 17.8893C74.8958 17.7962 76.6189 17.769 78.3485 17.8103C81.3532 17.8833 84.3584 18.1797 87.3236 18.6953C80.2703 22.459 73.7645 27.1845 68.2522 32.8995C67.2058 33.9844 66.2191 35.1307 65.2563 36.2853L65.1736 36.3832C64.5543 37.1066 63.6742 37.9523 63.4599 38.8736C63.1891 40.0371 64.1903 41.4407 65.4642 40.784C65.6752 40.6752 65.5271 40.3093 65.2981 40.4009C64.6548 39.5698 64.6694 38.9243 65.3419 38.4656C65.6342 38.1897 65.928 37.916 66.2249 37.645C66.6699 37.2373 67.1198 36.8348 67.5744 36.4379C68.637 35.5094 69.7268 34.6095 70.8139 33.7089C73.0468 31.8589 75.3864 30.1354 77.8176 28.5389C82.5343 25.4417 87.5019 22.6221 92.7346 20.4307C92.9962 20.3216 93.2609 20.2196 93.5237 20.1127C101.787 22.468 109.497 26.5962 115.719 32.4095C120.903 37.2518 125.09 43.1843 127.899 49.6134C129.312 52.8495 130.362 56.2309 131.854 59.4354C132.588 61.0137 132.865 62.6864 133.092 64.3925L133.156 64.8809C133.397 66.7372 133.832 68.55 133.986 70.4168C134.028 70.9213 134.571 71.2329 135.007 71.1655C134.986 72.3232 134.973 73.4814 134.962 74.6395L134.931 78.1129C134.909 80.2716 134.911 82.4307 134.913 84.5896L134.913 84.5936C134.914 85.5057 134.915 86.4177 134.914 87.3295C134.914 87.9421 134.907 88.5559 134.9 89.1704C134.872 91.6196 134.845 94.0784 135.214 96.5015L135.255 96.776C135.425 97.9681 135.539 99.1896 135.911 100.332C136.322 101.593 136.829 102.823 137.222 104.091C137.918 106.339 138.456 108.649 138.772 110.977C139.381 115.463 139.319 120.149 138.561 124.615C137.032 133.615 133.045 142.233 126.678 148.99C120.163 155.905 111.558 160.49 102.163 162.532C96.9346 163.669 91.542 163.928 86.2119 163.42C83.567 163.168 80.9455 162.646 78.3892 161.942C77.1007 161.588 75.8283 161.182 74.5751 160.723C73.0197 160.154 71.8708 160.403 70.4455 160.984L70.1748 161.097C69.3432 161.449 68.8802 162.692 69.1671 163.502C69.6397 164.835 70.2231 165.932 71.57 166.584C72.5142 167.041 73.5529 167.377 74.5761 167.687L75.49 167.962C77.9546 168.708 80.4783 169.257 83.0322 169.622C88.413 170.393 93.7619 170.411 99.1491 169.689C109.51 168.298 119.386 164.081 127.307 157.427C142.996 144.248 149.293 121.383 142.841 102.301C141.766 99.1207 139.856 96.2033 139.213 92.9176C138.505 89.3002 138.545 85.4702 138.294 81.7999C138.043 78.1107 137.741 74.4259 137.448 70.74C137.164 67.1866 137.051 63.4307 136.154 59.9745C136.131 59.8874 136.064 59.8297 135.985 59.7999C135.973 59.3304 135.98 58.862 135.986 58.3929L135.986 58.3922C135.999 57.4295 136.013 56.4657 135.866 55.4885C135.594 53.6735 135.173 51.8454 134.516 50.1253C132.009 43.5555 128.325 37.5195 123.643 32.1898C118.819 26.6982 113.055 22.4669 106.722 18.7608C105.546 18.0732 104.328 17.4525 103.078 16.8862C105.07 16.3401 107.081 15.8594 109.102 15.4458C111.876 14.8776 114.66 14.4926 117.474 14.1773C120.269 13.8638 123.187 13.6017 125.828 12.6024C127.295 12.0473 127.391 10.1314 125.828 9.60676C121.279 8.07879 116.007 9.02192 111.324 10.019L109.866 10.3328C105.266 11.3265 100.799 12.7323 96.449 14.4677C92.6686 13.375 88.7563 12.669 84.9199 12.2223C92.43 9.00734 100.174 6.35386 107.551 2.82693ZM24.8254 98.7302C24.8073 98.7189 24.7622 98.7224 24.7622 98.7415L24.7622 100.457L24.7695 100.469C24.7876 100.48 24.8327 100.476 24.8327 100.457L24.8327 98.7415L24.8254 98.7302ZM11.0642 105.458C11.7397 103.858 14.7091 103.863 16.1108 103.917L16.3683 103.928C20.6334 104.146 27.7025 105.835 28.5762 110.464C28.7223 111.237 28.2114 112.257 27.2413 112.165C25.8377 112.032 24.7732 111.783 23.6201 110.981L23.0363 110.576C22.0656 109.907 21.0992 109.265 20.035 108.715C18.73 108.04 17.3843 107.553 15.9639 107.163C15.3816 107.003 14.795 106.837 14.2101 106.687C13.823 106.588 13.4333 106.501 13.0412 106.425C12.5813 106.15 12.2821 106.321 12.1444 106.936C12.3251 106.996 12.3086 107.301 12.0964 107.279C11.2544 107.192 10.7362 106.233 11.0642 105.458Z" transform="translate(18.0302 16.7541)" id="ðŸ–-Ink" fill="#000000" fill-rule="evenodd" stroke="none" />
  </g>
</svg>