<?xml version="1.0" encoding="utf-8"?>
<svg width="182px" height="212px" viewBox="0 0 182 212" version="1.1" xmlns:xlink="http://www.w3.org/1999/xlink" xmlns="http://www.w3.org/2000/svg">
  <desc>Created with Lunacy</desc>
  <defs>
    <rect width="181.825485" height="211.10199" id="artboard_1" />
    <clipPath id="clip_1">
      <use xlink:href="#artboard_1" clip-rule="evenodd" />
    </clipPath>
  </defs>
  <g id="head/Bear" clip-path="url(#clip_1)">
    <use xlink:href="#artboard_1" stroke="none" fill="#FFFFFF" />
    <path d="M150.114 64.5524C157.068 60.2239 166.556 49.1792 161.163 40.804C158.974 37.5288 155.987 36.2975 152.709 36.1989C151.928 35.2472 150.629 34.9684 149.417 34.9617L149.424 34.9114C144.994 34.9903 140.641 36.4963 137.078 39.011C134.781 37.0522 131.928 35.9383 129.165 34.7338C130.324 29.0765 132.092 23.5581 134.1 18.1349C135.184 15.0123 131.751 11.723 128.514 12.6664C129.311 9.28132 127.481 5.34968 123.495 5.39324C121.364 5.39324 118.953 6.50199 116.892 7.00164C115.366 7.37172 113.863 7.75148 112.39 8.23437C112.383 8.19565 112.379 8.15656 112.375 8.11709C116.235 5.49377 116.101 -0.545909 110.428 0.0397404C108.008 0.247119 105.547 1.84584 103.309 2.82204C99.6202 3.03761 96.0773 4.1754 92.4914 4.99189C82.6793 7.35422 72.1818 9.72809 64.0982 15.7223C50.0973 20.9593 32.6835 29.0553 30.9488 45.0585C6.28924 35.7983 -12.3394 65.3682 10.0236 77.0041C14.4119 78.9897 19.4846 80.0176 24.2854 79.0626C23.1511 83.1343 22.067 87.2197 21.0524 91.3214C12.5124 110.366 5.60759 130.492 8.09138 151.394C8.12783 155.186 13.1453 157.374 15.9187 154.541C18.213 151.854 20.9968 154.995 20.2488 157.589C19.5399 160.47 21.6301 163.115 24.6705 163.222C28.3089 163.407 31.1989 161.039 33.7737 158.852C33.7242 158.899 33.8415 158.827 34.0126 158.715C40.3658 173.259 46.3185 161.951 54.1488 168.494C55.9786 170.135 57.2625 172.078 59.6067 173.145C65.1044 175.849 69.4452 171.03 74.6967 170.474C79.5511 170.127 84.3511 171.758 89.006 172.855C94.442 174.136 99.9228 174.807 105.507 174.206C112.647 173.437 126.892 170.306 131.108 167.728C136.273 171.093 141.589 167.101 144.428 162.506C146.414 164.362 150.171 164.646 151.767 161.784C153.355 158.593 156.321 153.716 159.733 154.439C160.038 154.529 160.216 154.586 160.402 154.717C163.591 157.348 167.708 155.35 168.174 151.526C171.197 126.75 165.031 101.895 156.832 78.5786C155.042 73.7028 153.557 68.6345 150.114 64.5524Z" transform="translate(4.603574 11.91424)" id="âœ‹-Skin" fill="#D08B5B" stroke="none" />
    <path d="M120.578 3.85434C121.669 2.07728 119.827 -0.651405 117.637 0.140879C102.008 5.79335 85.2758 7.54658 69.4907 12.6815C56.7952 16.8112 44.2093 23.4027 36.5607 34.4183C34.7034 37.093 32.3542 40.7063 31.9833 43.9831C31.8337 45.307 32.1712 46.5759 33.5253 47.1317C34.3815 47.4828 35.2231 47.357 35.8208 46.6585C35.873 46.5978 35.8262 46.4809 35.7337 46.5126C35.0555 46.7442 34.0957 45.8983 33.9281 45.3837C33.8115 45.0265 33.9499 44.491 34.0778 44.0838L34.156 43.8427C34.3142 43.361 34.5726 42.9006 34.8382 42.4534L35.3913 41.527C36.0821 40.3891 36.836 39.2877 37.6421 38.2234C39.3606 35.9549 41.3235 33.8707 43.4693 31.9767C47.8121 28.1437 52.5867 25.0446 57.794 22.4268C69.5855 16.4981 82.7179 14.0524 95.5704 11.2824L96.4489 11.0924C102.305 9.82149 108.143 8.46105 113.865 6.71259C113.485 8.41853 113.37 10.18 113.549 11.9499C113.718 13.6149 115.088 14.8249 116.872 14.4068L125.528 12.3796L123.708 19.0023L123.69 19.0728C123.217 21.0493 125.609 23.1084 127.513 21.8412L127.754 21.6832C129.365 20.6428 131.071 19.8539 132.883 19.3564C132.415 21.1025 131.864 22.8267 131.214 24.5215C130.886 25.3793 130.476 26.2177 130.067 27.0556C129.144 28.9448 128.223 30.831 128.232 32.9287C128.237 34.1793 129.701 35.0416 130.829 34.3748C133.165 32.9945 134.296 30.5224 135.265 28.0726L136.089 25.9685C137.216 23.0454 138.062 20.0361 138.671 16.9706C138.963 15.4992 137.983 13.7218 136.209 13.8335C134.138 13.9641 132.124 14.3346 130.199 14.9597L131.689 9.59654C132.219 7.68768 130.403 6.04094 128.483 6.48474L118.826 8.71787C119.05 7.02682 119.62 5.41508 120.578 3.85434ZM126.813 35.4372C126.553 35.1151 126.777 34.4621 127.285 34.6497C133.213 36.8341 138.205 42.1526 141.622 47.1774C142.656 48.6975 143.583 50.2761 144.421 51.899C145.616 50.4895 147.401 49.4699 149.071 48.7766L149.256 48.7009C151.183 47.9242 155.349 46.5951 156.529 49.0836C156.908 49.8845 156.756 50.7062 156.091 51.3268C155.273 52.0898 154.066 52.0158 152.961 51.948C152.677 51.9306 152.399 51.9136 152.137 51.9113C149.787 51.8918 147.876 52.5431 145.83 53.2401C145.618 53.3122 145.405 53.3848 145.19 53.4572C145.608 54.3411 146.003 55.2357 146.371 56.1427C146.872 57.3762 147.242 58.6759 147.85 59.8655C148.427 60.9962 149.334 62.0063 150.108 63.0089C151.154 64.3619 149.756 66.6486 148.053 66.4863C144.526 66.1497 143.121 63.3216 142.15 60.3241L141.621 58.6847C140.828 56.2359 140.011 53.8357 138.82 51.5063C137.288 48.5114 135.46 45.5857 133.358 42.9345C131.296 40.335 128.891 38.0143 126.813 35.4372ZM163.468 43.3455C160.612 38.8018 155.326 36.8985 150.004 37.5173C147.337 37.8274 144.409 38.527 142.113 39.9288C140.792 40.7367 138.925 42.2613 139.536 43.9699C139.596 44.1359 139.795 44.1478 139.898 44.0157C141.117 42.4427 142.558 42.0739 144.325 41.7564L145.592 41.5342C147.669 41.1775 149.807 40.9623 151.913 41.2002C155.623 41.6202 158.584 43.8738 159.702 47.3535C160.744 50.5937 160.104 53.8593 158.258 56.7004C157.249 58.2541 155.899 59.5542 154.446 60.7192C153.771 61.2605 153.035 61.7523 152.421 62.3596C151.717 63.0557 151.476 63.6028 151.219 64.3409L150.983 65.0283C150.666 65.9349 151.35 67.1684 152.34 67.3471C153.877 67.6245 154.962 67.6904 156.419 66.9346C157.671 66.2856 158.802 65.2733 159.79 64.2923C161.787 62.3078 163.4 59.9999 164.468 57.4264C166.348 52.8968 166.118 47.5605 163.468 43.3455ZM24.4632 44.9641C18.1645 44.0988 11.9187 46.017 7.24729 50.2245C-2.36644 58.8834 -2.73585 74.8095 8.06704 82.7342C13.6576 86.8356 23.615 88.3949 28.4576 82.4319C29.4407 81.2219 28.5723 79.3413 26.848 79.7483C22.0734 80.8756 17.0018 81.7256 12.5463 79.1652C8.34208 76.7493 5.62314 72.0075 5.32508 67.3126C4.71976 57.7795 12.7953 49.4151 22.536 49.0506C28.0019 48.8458 34.1521 50.7845 38.2136 54.4168C38.3609 54.549 38.6022 54.3818 38.496 54.2057C36.9723 51.678 35.3228 49.6571 32.7769 48.0245C30.267 46.415 27.4361 45.3718 24.4632 44.9641ZM22.9338 59.6137L23.3482 59.5447C26.8332 58.9862 34.2528 58.3418 35.3443 62.4693C35.9005 64.5714 33.7493 65.7032 31.8666 65.6102C30.3142 65.5335 28.8097 65.0618 27.2772 64.7416C26.8373 66.2178 26.6876 67.7595 26.4732 69.2793C26.286 70.61 24.0807 70.2488 24.1068 68.9688C24.1436 67.1888 24.9956 65.6753 26.3367 64.5707C26.0236 64.5238 25.7091 64.4843 25.3915 64.4634C21.5816 64.2151 17.8173 64.9017 14.2583 66.1698L14.6346 66.3749C14.8141 66.4352 14.7374 66.6679 14.5579 66.6441L12.7876 66.7305C12.0469 66.8987 11.6096 66.0774 12.0764 65.5443C14.8191 62.409 18.7759 60.3334 22.9338 59.6137ZM149.421 66.6039C149.243 66.3053 148.701 66.5027 148.83 66.8459C155.242 83.9311 161.128 101.02 165.428 118.733C167.513 127.323 169.398 136.152 168.96 145.026C168.854 147.148 168.596 149.244 168.151 151.324L168.134 151.401C167.884 152.622 167.438 155.885 166.574 156.445C166.072 156.77 165.007 156.428 164.252 156.186C164.14 156.15 164.035 156.116 163.94 156.087L163.791 156.044C163.728 156.026 163.666 156.009 163.603 155.992C162.045 155.562 160.444 155.12 158.81 155.18C156.605 155.263 154.652 156.266 153.346 157.984C152.185 159.511 151.803 161.312 151.096 163.043C150.661 164.107 150.202 164.814 148.954 164.842C147.76 164.869 146.983 164.348 146.509 163.321C145.933 162.072 144.239 161.668 142.995 161.933C140.475 162.47 139.16 164.522 138.457 166.766C138.162 167.705 138.027 168.698 137.678 169.622L137.673 169.633C137.664 169.653 137.648 169.689 137.628 169.733C137.544 169.914 137.4 170.225 137.502 170.113L137.52 170.092L137.496 170.123L137.459 170.174C137.458 170.124 137.43 170.073 137.331 170.042C137.014 169.945 136.701 169.845 136.391 169.745C133.727 168.892 131.284 168.11 128.869 170.386C128.665 170.579 128.488 170.79 128.326 171.009C125.209 171.221 122.317 172.847 119.382 173.748C116.009 174.783 112.58 175.483 109.045 175.69C105.56 175.895 102.085 175.813 98.626 175.315C94.96 174.788 91.7017 173.5 88.2087 172.404C87.5995 172.213 87.3007 173.114 87.8116 173.358C90.3832 175.483 93.7247 176.921 96.899 178.058L97.4741 178.261C101.154 179.548 105.133 180.278 109.045 180.392C112.899 180.504 116.876 180.122 120.614 179.194C123.195 178.553 126.175 177.707 128.384 176.053C128.828 176.493 129.424 176.835 130.198 177.01C131.628 177.336 133.191 176.259 133.417 174.938C134.341 175.296 135.256 175.725 136.229 175.916C138.372 176.335 140.498 175.775 141.98 174.196C143.041 173.064 143.556 171.583 143.957 170.127L144.048 169.792C144.066 169.723 144.088 169.651 144.11 169.579C146.025 170.706 148.426 171.107 150.636 170.72C154.74 170.003 156.276 166.834 157.534 163.428L157.827 162.624C158.179 161.675 158.495 161.111 159.706 161.252C161.311 161.44 162.837 162.118 164.439 162.362C166.34 162.652 168.208 162.522 169.859 161.478C171.825 160.237 172.666 158.112 173.302 156.021L173.436 155.573C176.2 146.17 175.161 136.199 173.053 126.773L172.901 126.101C170.66 116.334 167.516 106.762 163.97 97.3727C159.965 86.7647 155.281 76.3802 149.421 66.6039ZM26.3065 88.5045C26.4227 88.3355 26.6766 88.4818 26.5857 88.6631C26.1642 89.5049 26.0103 90.3892 25.7257 91.266C25.4108 92.2366 24.8756 93.1778 24.4786 94.1197C23.8357 95.6451 23.2131 97.1794 22.5852 98.7107C21.3228 101.79 20.149 104.915 19.0365 108.049C16.8028 114.343 14.9773 120.815 13.642 127.345C12.3297 133.761 11.2311 140.47 11.2729 147.028C11.2917 150.011 11.6273 153.082 12.8468 155.852C13.0379 156.286 13.2624 156.712 13.5004 157.126L13.6447 157.373C13.665 157.408 13.6863 157.442 13.7081 157.476L13.8399 157.681C14.225 157.133 15.3348 156.408 15.7928 156.023L15.8565 155.968L18.0054 154.039C18.941 153.198 20.2909 152.996 21.4221 153.611C24.8607 155.478 24.7492 158.947 25.4852 162.22L25.5178 162.363C25.8381 163.738 26.392 164.882 28.0898 164.612C29.8612 164.33 30.8846 162.582 31.4631 161.079L31.5376 160.88C32.5599 158.083 36.2359 158.194 37.2943 160.88L37.691 161.897C38.5117 163.983 39.63 166.499 41.7482 167.324C43.3169 167.935 45.0872 167.203 46.594 166.579C46.7978 166.495 46.9969 166.413 47.1899 166.336C48.0806 165.982 49.1202 166.721 49.3576 167.531C49.4221 167.751 49.4654 167.962 49.4992 168.169C51.1928 168.01 52.8139 168.402 54.4794 169.149C56.6598 170.125 59.401 172.233 59.8107 174.675C60.2959 177.563 56.8497 178.927 55.0713 176.615C53.9516 175.159 53.5462 173.391 52.2074 172.007C51.421 171.194 50.4432 170.489 49.4171 169.889C48.4999 173.035 43.352 173.942 40.2836 173.011C37.3376 172.117 35.3847 170.01 33.9263 167.545C31.1996 170.132 27.4162 171.385 23.6247 169.128C21.4294 167.821 20.406 165.535 20.0093 163.161C19.89 162.447 19.8831 161.274 19.6721 160.243L19.4676 160.446C17.6158 162.263 15.4628 163.973 13.0359 163.58C9.85472 163.065 8.34449 159.629 7.35251 157.011C5.28952 151.572 5.66966 145.522 6.36858 139.874C7.13424 133.69 8.41546 127.565 10.111 121.559C11.7647 115.701 13.9055 110.016 16.4242 104.457C17.7081 101.624 19.1888 98.8604 20.7804 96.1783C21.5798 94.832 22.4502 93.5225 23.3248 92.2213C24.2274 90.878 25.4008 89.8199 26.3065 88.5045Z" transform="translate(3.069049 8.935464)" id="ðŸ–-Ink" fill="#000000" fill-rule="evenodd" stroke="none" />
  </g>
</svg>