<?xml version="1.0" encoding="utf-8"?>
<svg width="182px" height="212px" viewBox="0 0 182 212" version="1.1" xmlns:xlink="http://www.w3.org/1999/xlink" xmlns="http://www.w3.org/2000/svg">
  <desc>Created with Lunacy</desc>
  <defs>
    <rect width="181.825485" height="211.10199" id="artboard_1" />
    <clipPath id="clip_1">
      <use xlink:href="#artboard_1" clip-rule="evenodd" />
    </clipPath>
  </defs>
  <g id="head/hat-hip" clip-path="url(#clip_1)">
    <use xlink:href="#artboard_1" stroke="none" fill="#FFFFFF" />
    <path d="M142.921 71.9282C142.769 63.5876 142.6 55.0803 141.322 46.8209C140.073 38.7461 136.638 31.4473 130.733 25.5837C118.192 13.1287 100.014 10.0865 83.0922 7.29861L54.1616 2.53188C45.3354 1.07799 35.9193 -1.24599 27.0017 0.815882C22.6076 1.83193 18.876 4.1924 15.4654 6.98512C12.178 9.67695 8.6435 12.5676 6.41595 16.1891C4.18456 19.8158 3.41698 24.0553 2.69159 28.1571C1.87338 32.7816 1.23776 37.4423 0.786262 42.1141C-0.118646 51.474 -0.242165 60.9044 0.414172 70.2837C0.732175 74.833 1.23814 79.3693 1.88412 83.8854C2.20442 86.1249 2.56654 88.3588 2.97546 90.5849C3.09591 91.2412 3.18759 91.968 3.31111 92.7022C2.39853 95.2213 1.8799 97.8301 1.92171 100.428C2.04485 108.08 8.69913 112.897 15.4075 115.483C19.2972 116.983 23.3637 118.002 27.1855 119.677C31.206 121.44 33.9426 124.296 36.6914 127.555C41.9341 133.771 47.8503 139.357 54.6059 144.017C68.9286 153.899 87.0698 158.573 104.448 155.025C108.618 154.174 112.825 152.852 116.573 150.861C120.53 148.759 123.505 145.712 126.004 142.11C130.644 135.423 133.971 127.893 136.488 120.23C139.056 112.414 140.878 104.583 141.872 96.4328C142.863 88.3089 143.071 80.1024 142.921 71.9282L142.921 71.9282Z" transform="translate(17.64516 33.50809)" id="âœ‹-Skin" fill="#D08B5B" stroke="none" />
    <path d="M126.488 14.3558C120.526 3.88111 104.002 -1.31378 92.0295 0.284563C64.8569 3.91388 48.8552 23.0106 47.8336 28.5741C47.0074 30.3887 46.4707 32.801 46.1516 35.0594C45.5132 38.3187 45.4555 42.0326 45.4645 45.5998L45.4737 47.7177C51.5829 44.1752 57.9917 41.1144 64.5658 38.5428C65.9414 38.0048 66.534 40.1665 65.1776 40.697C55.2421 44.5828 45.684 49.6325 37.0208 55.8226C-9.00179 92.0901 -16.4973 149.534 39.65 152.368C40.2464 152.422 40.8452 152.477 41.446 152.532C51.5651 153.463 62.2498 154.446 71.9443 150.731C75.2221 156.501 93.7618 177.367 96.9058 170.725C98.0991 168.629 95.7338 167.142 93.6609 165.838C92.8459 165.325 92.0762 164.841 91.5857 164.36C88.6266 162.298 86.2326 160.147 83.6018 157.576C76.1459 150.722 73.1868 143.607 68.6991 139.617C68.0853 138.229 66.7262 137.937 65.1443 138.894C46.3165 144.547 42.9412 112.294 60.0719 110.152C61.1061 110.081 62.1606 110.137 63.2132 110.281C64.1336 110.73 65.1051 111.356 66.0843 111.986C68.8986 113.798 71.776 115.651 73.6835 113.488C74.4622 112.605 74.4442 111.52 74.2831 110.43C74.0315 108.727 73.7016 107.032 73.4112 105.335L71.7069 95.3765C96.9112 68.7155 135.982 57.9806 172.474 61.8705C185.289 93.901 188.066 149.268 161.134 171.849C146.764 184.203 128.116 184.003 114.401 172.297C112.861 170.557 111.569 170.482 113.069 172.82L113.178 172.988C127.185 193.237 157.453 185.413 170.451 168.459C186.829 148.45 189.143 103.592 187.659 96.5899C208.048 88.944 238.798 55.0318 214.317 29.3116C190.855 7.6292 154.953 7.84253 126.488 14.3558ZM64.8124 106.487L65.031 106.363L65.0286 106.588C65.0286 106.737 65.0315 106.887 65.0356 107.037C64.7836 106.915 64.5289 106.8 64.2711 106.693C64.4537 106.654 64.6355 106.587 64.8124 106.487ZM59.3215 117.557C59.9074 117.017 60.8364 117.277 61.6154 117.495C61.9892 117.6 62.3284 117.694 62.5787 117.687C64.5523 117.949 66.4273 118.758 67.8896 119.756C68.8551 120.281 69.5318 120.774 70.0972 121.228L70.1073 121.225C70.1043 121.226 70.1012 121.228 70.0983 121.229L70.1516 121.264C70.9749 121.832 73.9887 125.03 72.0846 124.169C71.9427 123.99 71.7973 123.818 71.6508 123.65C71.635 123.673 71.6132 123.696 71.5871 123.718L71.694 123.872C73.3124 126.234 70.5182 123.745 70.0884 123.084C70.068 123.1 70.045 123.111 70.0224 123.122L70.5822 123.784C70.6605 123.877 70.722 123.952 70.7731 124.016L70.8911 124.126C72.7623 125.911 72.8208 127.518 70.6469 124.879C70.7324 125.003 70.8011 125.135 70.8107 125.252L70.9395 125.411C72.6464 127.546 71.258 126.788 70.4099 125.876L70.3389 125.798L70.3534 125.819C71.1425 126.999 69.5769 126.171 69.3002 125.54L69.2886 125.511C68.9871 125.273 68.8016 125.005 68.738 124.937L68.7262 124.926C67.2586 123.466 65.1311 122.231 63.324 121.67C63.062 121.622 62.7969 121.583 62.5292 121.555C61.4425 121.32 60.3438 121.159 59.2337 121.072C59.0979 121.056 58.9602 120.959 58.8574 120.834C57.1787 120.779 57.6969 120.112 58.3934 119.988L58.4055 119.985L58.2674 119.974C57.1901 119.872 56.4543 119.497 57.5436 119.267L57.6817 119.24C57.6648 119.214 57.6498 119.189 57.6352 119.163C56.7023 119.064 57.3111 118.183 57.829 118.396C57.674 117.905 58.1328 117.937 58.4555 117.96C58.5867 117.969 58.6953 117.977 58.7312 117.947C58.8259 117.845 58.9437 117.755 59.0116 117.75C59.205 117.618 59.2133 117.579 59.2364 117.566C59.2491 117.558 59.2663 117.559 59.3215 117.557ZM70.1073 121.225C70.1091 121.224 70.1109 121.224 70.1125 121.224L70.1073 121.225Z" transform="translate(-23.78419 6.701411)" id="ðŸ–-Ink" fill="#000000" fill-rule="evenodd" stroke="none" />
  </g>
</svg>