<?xml version="1.0" encoding="utf-8"?>
<svg width="182px" height="212px" viewBox="0 0 182 212" version="1.1" xmlns:xlink="http://www.w3.org/1999/xlink" xmlns="http://www.w3.org/2000/svg">
  <desc>Created with Lunacy</desc>
  <defs>
    <rect width="181.825485" height="211.10199" id="artboard_1" />
    <clipPath id="clip_1">
      <use xlink:href="#artboard_1" clip-rule="evenodd" />
    </clipPath>
  </defs>
  <g id="head/Dreads-1" clip-path="url(#clip_1)">
    <use xlink:href="#artboard_1" stroke="none" fill="#FFFFFF" />
    <path d="M71.2052 0C92.9861 0 115.515 16.3863 123.499 26.8428C132.731 38.9337 140.013 96.9762 136.597 116.671C133.181 136.366 116.21 157.833 86.7507 157.833C57.291 157.833 39.3627 154.311 38.6438 149.195C37.9249 144.08 19.2131 115.606 19.2131 115.606C19.2131 115.606 0.0753141 110.381 0.000537402 97.9016C-0.0742393 85.422 10.2558 80.8816 10.2558 80.8816C10.2558 80.8816 6.57262 31.6322 15.8487 18.81C25.1248 5.98786 49.4242 -3.08021e-15 71.2052 0Z" transform="translate(21.64073 28.02022)" id="âœ‹-Skin" fill="#D08B5B" stroke="none" />
    <path d="M124.326 0.0712318C127.751 -0.66111 129.144 4.48166 125.762 5.05279C123.447 5.44372 121.126 5.93518 118.837 6.52976C119.772 6.47578 120.7 6.57593 121.602 6.87527L122.134 6.695C129.513 4.21541 137.52 2.34398 145.278 4.25045C151.64 8.70259 136.02 9.38355 133.503 9.97217C141.907 10.4659 150.636 8.61956 158.802 11.5627C161.935 12.7746 160.69 17.4542 155.113 15.2948C155.242 15.6917 155.276 16.1075 155.222 16.5003C157.75 16.7427 160.369 17.4129 162.667 18.8277C179.829 18.4166 186.016 31.9729 171.568 27.2866C171.96 27.6005 172.275 27.9456 172.52 28.3075L172.746 28.3235C176.574 28.6228 186.687 30.7609 186.149 35.2057C188.8 35.7676 191.691 36.7147 193.697 38.252C195.941 39.9725 193.492 43.3021 191.014 42.6598C190.264 42.4651 189.564 42.1539 188.877 41.8117C188.608 42.0962 188.262 42.3799 187.824 42.6595C192.145 46.0565 197.871 48.9099 200.116 54.0307C200.52 55.2619 199.641 56.7344 198.332 57.0364C193.776 58.087 190.04 54.6934 186.925 51.4628C187.596 53.2429 188.041 54.9689 188.161 56.4928C190.531 57.7218 193.555 60.1348 195.561 62.8795C198.884 64.7012 203.017 67.6912 203.116 71.3976C203.188 74.0928 200.481 75.5769 197.988 75.1338L197.904 75.1152L197.904 75.1152C199.092 77.1063 199.683 79.2617 200.083 81.6419L200.326 81.7874C202.678 83.2055 205.037 84.9391 205.105 87.7463C205.157 89.8942 202.949 91.2476 200.902 90.8078C200.611 90.7453 200.339 90.6567 200.081 90.5498C200.089 90.6221 200.098 90.6939 200.104 90.7665C200.934 91.3771 201.756 91.9948 202.556 92.6408L203.214 93.1754C205.948 95.4242 208.539 97.9598 207.742 101.745C207.47 103.041 206.114 103.714 204.874 103.833C204.598 103.86 204.332 103.862 204.071 103.853L204.177 104.122C205.895 108.562 206.988 115.65 201.462 115.039C202.327 122.285 197.804 123.363 194.712 119.723C198.355 123.927 204.989 150.536 193.401 145.805C192.89 151.751 191.764 157.776 188.959 163.154L188.877 163.331C187.446 166.345 181.145 175.285 179.108 168.742C180.569 160.628 184.739 152.928 185.412 144.613C184.594 144.489 183.895 143.72 183.591 142.872C182.709 147.134 180.686 150.946 177.905 154.325C177.467 155.461 176.971 156.582 176.422 157.692C174.672 161.229 172.417 164.505 169.836 167.517C168.455 169.13 166.989 170.697 165.186 171.877C163.751 172.815 162.075 173.433 160.46 174.029C157.833 176.576 154.461 178.501 151.166 180.038C145.734 182.566 139.846 183.962 133.889 184.662C127.797 185.373 121.644 185.202 115.603 184.186C109.829 183.218 103.642 180.742 100.086 176.025C99.7791 175.619 100.35 175.235 100.726 175.403C111.045 180.038 122.641 181.248 133.889 179.785C139.136 179.104 144.299 177.696 149.091 175.511C153.134 173.668 156.544 170.987 160.172 168.56C160.879 167.648 161.592 166.75 162.405 165.916L163.675 164.625C164.623 163.654 165.555 162.671 166.402 161.609C169.019 158.336 171.186 154.624 172.617 150.719C175.4 143.116 174.647 134.864 174.155 126.941L174.113 126.243C173.675 118.911 172.998 111.601 172.083 104.314C171.426 104.107 170.796 103.75 170.279 103.311C168.231 90.9199 162.33 78.2586 152.361 69.9009C158.2 77.7865 161.514 86.7519 162.201 96.5113C162.32 98.2068 159.926 98.1879 159.368 96.8784C153.819 82.805 150.994 67.6235 134.023 62.1203C127.287 70.9468 124.342 81.6631 118.67 91.0067C117.235 93.1828 114.109 92.14 113.875 89.765C113.215 83.0674 115.993 76.4194 119.442 70.5603L116.635 73.8189C95.0215 98.9643 93.2549 102.72 95.5764 141.24C95.365 143.167 92.8031 144.083 91.6304 142.261C85.0446 130.058 87.8709 115.067 89.751 102.026C89.0747 103.318 88.4303 104.613 87.8035 105.928C87.3783 104.594 86.63 106.077 86.8079 108.055C85.6648 110.555 84.586 113.127 83.6126 115.75C83.6741 124.099 86.5374 132.081 86.5432 140.417C86.7367 142.745 83.4892 143.105 82.3258 141.51C81.3326 140.147 80.4094 138.834 79.607 137.447C79.7215 140.929 81.1698 144.021 82.1658 147.28C82.8462 148.443 83.158 149.652 82.7149 150.962L82.6696 151.089C81.94 153.238 79.2683 153.696 77.5859 152.225C77.6225 153.585 77.4975 154.955 77.0716 156.237C78.8661 158.474 80.5165 160.794 81.7418 163.368C82.4439 164.968 81.4951 166.3 80.1192 166.946C81.2685 169.73 81.7428 172.611 80.7412 175.366C80.442 176.196 79.1914 176.494 78.7039 175.623C77.1043 172.756 76.2105 169.599 74.6914 166.698C74.4109 166.163 74.1175 165.636 73.8137 165.114C72.1093 163.71 70.7214 162.008 69.4081 160.209C64.7001 165.579 60.248 154.07 59.405 150.567L59.0289 150.229L59.0289 150.229C59.9416 158.535 65.0463 166.133 65.13 174.472C64.9466 176.21 62.9839 177.81 61.175 176.643C54.9034 172.095 53.5676 163.869 51.8299 156.967C51.5547 157.098 51.2553 157.183 50.9531 157.225C50.6226 161.895 61.8482 176.994 52.7538 177.017C42.6865 172.089 43.8269 157.877 42.4747 148.664C41.8592 151.407 42.4027 155.914 40.3407 157.904C49.0886 178.522 34.3717 171.946 30.7414 156.516C30.3007 157.139 29.7704 157.706 29.1241 158.191C27.8019 159.184 26.0529 159.152 25.0823 157.693C23.0846 154.691 23.7924 151.128 24.631 147.819C16.8698 144.564 13.5425 137.031 12.9487 129.044C12.7509 129.326 12.5387 129.605 12.2966 129.878C11.3668 130.927 9.4925 130.553 8.82828 129.451C6.88622 126.229 7.83078 122.128 9.46136 118.659C8.94314 118.448 8.48215 118.126 8.17535 117.701C5.51729 113.467 4.69732 108.684 4.97259 103.827C4.61323 104.173 4.22388 104.497 3.78859 104.787C2.47572 105.665 0.806596 104.71 0.357291 103.452C-1.0973 99.383 2.18099 95.2697 4.94339 92.513C5.9152 91.5435 7.02133 90.6183 8.22791 89.8346C8.80336 88.3048 9.42086 86.8178 10.0539 85.3937C9.12691 83.5909 8.60051 81.6549 8.38832 79.653C7.6034 80.8883 6.62575 81.9885 5.20854 82.8217C3.89255 83.5958 2.38228 82.5738 2.2974 81.2245C2.04199 77.1529 5.37985 73.5693 7.87555 70.5495L8.12607 70.2373C8.56728 69.6789 9.25974 68.7825 10.0481 67.9448C10.1746 67.5777 10.3062 67.2125 10.4425 66.8498C8.5059 67.8554 5.51845 67.1194 5.68782 64.515C6.07561 56.0717 15.3183 51.9785 17.9985 44.5162C4.41427 56.205 5.86341 41.1888 15.4183 35.3487C16.1834 34.734 16.9726 34.1562 17.7731 33.5966C16.6833 32.9354 16.3462 31.4606 17.3507 30.394C20.1415 27.4296 24.3857 26.8168 28.3637 26.4929C29.7856 26.3768 31.1751 26.364 32.5742 26.4699L32.956 26.5018L33.0646 26.472C33.9893 25.421 35.0273 24.4563 36.0174 23.6275C28.4965 22.2492 35.6265 11.6885 52.8126 15.5331C53.7525 15.0721 54.722 14.6607 55.7024 14.2862C53.1377 14.1674 50.5813 13.9433 48.0432 13.4436C45.7811 12.9983 45.4018 9.72161 47.3976 8.72232C55.3776 4.8953 64.5837 5.84024 73.133 7.76398C72.9239 7.38497 72.8262 6.96351 72.8219 6.52976C69.9894 6.26616 69.7387 2.07912 72.999 1.83861C78.4701 1.43502 83.7033 2.45665 88.5366 4.48762C89.1553 4.418 89.7783 4.37369 90.4039 4.35396C91.3154 -4.87682 103.9 2.7787 106.667 7.22152C112.151 3.91798 117.993 1.39928 124.326 0.0712318Z" transform="translate(-18.79746 2.978215)" id="ðŸ–-Ink" fill="#000000" stroke="none" />
  </g>
</svg>