<?xml version="1.0" encoding="utf-8"?>
<svg width="182px" height="212px" viewBox="0 0 182 212" version="1.1" xmlns:xlink="http://www.w3.org/1999/xlink" xmlns="http://www.w3.org/2000/svg">
  <desc>Created with Lunacy</desc>
  <defs>
    <rect width="181.825485" height="211.10199" id="artboard_1" />
    <clipPath id="clip_1">
      <use xlink:href="#artboard_1" clip-rule="evenodd" />
    </clipPath>
  </defs> 
  <g id="head/Short-3" clip-path="url(#clip_1)">
    <use xlink:href="#artboard_1" stroke="none" fill="#FFFFFF" />
    <path d="M139.792 79.1551C137.387 62.3105 131.885 45.9555 131.095 28.8581C130.625 21.5418 130.155 14.225 129.686 6.90795C129.507 2.33817 123.391 0.79642 121.055 4.84496C115.745 -0.870802 106.236 -0.0289997 98.9822 0.144499C56.277 1.61328 15.6946 29.6373 1.03503 68.7113C0.6825 69.6429 0.78914 70.6343 1.1877 71.5215C-5.64533 93.637 18.5194 107.878 35.0003 117.738C41.6861 124.595 49.5448 130.292 58.4186 134.194C68.6265 138.855 79.9895 141.454 91.2676 141.703C93.7434 141.758 95.2306 139.815 95.4093 137.804C99.0075 136.991 105.165 137.93 107.067 134.351C128.766 125.204 142.905 102.019 139.792 79.1551L139.792 79.1551Z" transform="translate(20.71421 46.53933)" id="âœ‹-Skin" fill="#D08B5B" stroke="none" />
    <path d="M72.0393 1.45907L72.443 1.3989C88.4774 -0.969391 105.348 -0.801477 120.42 5.62094C123.308 6.85293 126.135 8.33846 128.797 10.0623C130.704 9.86904 132.622 9.7123 134.506 9.68661C136.876 9.65645 139.189 10.8516 139.481 13.1785C141.702 13.4466 143.747 14.2396 145.055 15.8261C145.564 16.4437 145.906 17.1586 146.079 17.9032C147.444 18.2163 148.783 18.6962 150.053 19.3292C151.595 20.0999 152.485 22.2444 151.94 23.8308C151.814 24.1909 151.671 24.5417 151.511 24.885L151.387 25.141L151.46 25.2378C152.692 27.1589 151.836 29.6795 149.949 30.8262C148.533 31.6863 146.953 32.3713 145.327 32.7027C145.461 33.3356 145.584 33.9723 145.683 34.6164C145.722 34.8774 145.377 35.0635 145.223 34.8063C145.223 34.8063 145.806 36.5673 146.685 38.5074C147.03 39.2703 145.925 39.9479 145.503 39.1772C144.383 37.1221 143.689 35.0148 142.672 32.8963C141.733 32.8367 140.796 32.6282 139.895 32.2299C139.304 31.9692 138.856 31.5299 138.533 31.0049C138.514 31.0273 138.503 31.0533 138.483 31.0794C135.457 34.8584 129.542 36.1838 124.969 37.379C120.059 38.6638 115.034 39.4565 109.99 40.041C101.182 41.0574 92.3057 41.2473 83.4565 41.6423C82.8703 41.668 82.2853 41.6967 81.7 41.7242C78.1057 44.7846 73.476 46.6864 68.7271 47.2646C66.3208 47.5573 63.4745 47.4828 60.7762 46.8864C59.7996 47.8544 58.5656 48.5715 57.2184 48.9397C56.9759 53.8166 54.1741 58.4341 49.9384 61.1255L50.0136 61.4154C51.0661 65.5799 51.0525 70.1321 47.2793 73.0265C46.768 73.4182 46.2099 73.754 45.623 74.0325L45.7519 74.3202C47.7009 78.7411 48.3233 83.6245 44.6598 87.2929C43.1743 88.7797 40.5662 88.4276 39.4524 86.7211L39.3979 86.6346C39.3362 86.533 39.2694 86.4354 39.2054 86.3356C39.106 86.533 38.9541 86.6994 38.7286 86.7925C37.4907 87.3091 36.9137 87.0278 35.9087 86.5378C35.7833 86.4767 35.6511 86.4122 35.5102 86.3457C34.3364 85.7872 33.0973 85.3702 31.8319 85.0467C30.7996 84.7857 29.7715 84.5995 28.7358 84.4916C22.1917 86.9191 17.9644 94.3653 18.9694 101.354C19.5141 105.159 21.6665 108.927 25.4177 110.505C27.0595 111.198 28.989 111.488 30.7651 111.253C31.5978 111.144 32.3638 110.896 33.1129 110.654C34.5273 110.196 35.8811 109.758 37.5087 110.308C38.4907 110.639 39.1049 111.388 39.1582 112.412C39.2468 114.02 38.6595 115.226 37.6698 116.12C39.4152 117.534 40.823 119.5 42.3382 121.068C44.2336 123.03 46.155 124.992 48.2034 126.801C50.1368 128.518 52.1932 130.111 54.3717 131.526L54.6006 131.673C57.3304 133.398 60.7699 134.93 60.9005 138.537C60.9427 139.624 60.2638 140.622 59.3431 141.176C55.9026 143.246 52.1583 140.529 49.4616 138.537C48.3761 137.736 47.3212 136.906 46.3046 136.046C45.6257 136.098 44.8853 135.99 44.1143 135.659C43.6194 135.45 43.1361 135.204 42.6604 134.944C41.1145 135.32 39.6569 134.989 38.4562 134.203C36.7262 134.616 34.8926 134.665 33.3352 134.333C31.9124 134.028 30.6423 133.376 29.5951 132.501C27.4086 133.179 24.9804 133.052 22.8246 131.768C21.5319 130.998 20.523 129.899 19.9745 128.614C19.6952 128.19 19.5165 127.695 19.503 127.15L19.5026 126.943C17.623 126.984 15.7395 126.358 14.2857 124.914C12.9508 123.588 12.299 121.936 12.2258 120.256C10.3346 119.735 8.60461 118.666 7.28887 117.017C5.11003 114.284 4.81888 110.907 5.93899 107.892C5.86572 107.731 5.80051 107.568 5.74297 107.404C4.00527 105.025 2.85831 102.154 2.95038 99.2762C2.96188 98.8294 3.02326 98.3904 3.11532 97.9548C1.40448 97.0721 0.146275 95.5232 0.0120154 93.5537C-0.0915561 92.0086 0.480005 90.497 1.51188 89.354C1.00937 88.1886 0.786883 86.9228 0.940323 85.6569C1.0976 84.3575 1.56942 83.2294 2.26028 82.2878C2.24456 81.9453 2.26374 81.5987 2.32128 81.245C2.25223 80.8987 2.19469 80.5413 2.16438 80.1768C1.83794 76.1852 4.67657 72.6929 8.13278 70.85C9.04191 70.366 10.0239 69.9713 11.0059 69.6362C11.7194 69.3905 12.7935 69.3086 13.4226 68.8581C13.411 68.85 13.4533 68.7841 13.5088 68.6977C13.5814 68.5845 13.6765 68.4363 13.7026 68.3369C13.7525 68.1209 13.8062 67.9087 13.8334 67.689C13.9118 66.988 13.8864 66.2719 13.8613 65.562C13.8533 65.3369 13.8453 65.1124 13.8407 64.8892C13.7563 60.6821 13.8906 56.4563 14.3471 52.2715C15.1948 44.5125 17.2858 36.921 21.3592 30.1412C24.7771 24.4597 29.457 19.6605 34.8235 15.6805C45.5127 7.7566 58.852 3.44817 72.0393 1.45907ZM146.668 40.5188C146.501 40.0765 145.689 40.0932 145.75 40.6394C146.438 46.7621 146.997 52.8506 147.928 58.9476C148.88 65.1876 149.672 71.454 150.295 77.7331C150.399 78.776 150.504 79.8216 150.61 80.8695C151.726 91.9488 152.868 103.277 152.137 114.362C151.418 125.257 146.536 134.703 138.207 142.002C131.042 148.28 121.869 152.451 112.427 154.258C107.234 155.253 101.776 155.427 96.5228 154.768C94.0018 154.452 91.4903 153.879 89.0622 153.146C87.7944 152.762 86.5573 152.309 85.3225 151.84C83.739 151.237 82.2752 150.975 80.5935 150.767C77.4192 150.372 76.3697 154.556 78.1649 156.457C81.5791 160.072 87.5539 161.511 92.4913 162.38L93.1578 162.495C98.5087 163.402 103.912 163.602 109.307 162.967C120.417 161.659 130.714 157.612 139.482 150.84C148.441 143.919 155.679 134.107 157.959 123.094C158.547 120.258 158.859 117.397 158.988 114.526C159.503 114.222 159.936 113.808 160.225 113.294C161.5 111.766 162.375 110.074 162.958 108.255C164.637 106.778 164.203 104.574 164.98 102.617C166.02 100.002 166.78 97.602 165.358 94.9217C165.288 94.7906 165.214 94.667 165.14 94.5442C166.122 92.4841 166.475 90.2175 165.38 88.0581C164.964 87.2382 164.391 86.5241 163.717 85.9452C164.033 85.0881 164.295 84.2132 164.51 83.3338C164.778 82.2377 164.351 80.8248 163.234 80.2905C160.856 79.1512 158.33 79.2845 156.398 80.7484C155.494 74.6116 154.402 68.4945 153.131 62.422C152.365 58.7629 151.609 55.0882 150.559 51.495C149.469 47.7666 148.043 44.1552 146.668 40.5188ZM29.3944 94.8273C27.6624 94.673 21.1116 94.7051 22.503 97.9509C22.5893 98.1527 22.9327 98.1523 22.9269 97.8954C22.875 95.574 29.282 98.1702 30.7836 98.8315L31.0082 98.9327C31.134 98.9908 31.2564 99.0563 31.3806 99.1166C31.2245 99.4554 31.1171 99.8106 31.0553 100.199C30.8474 101.515 31.1144 102.787 31.7811 103.946C33.0332 106.124 36.4069 103.539 34.5204 101.894L34.426 101.808C34.0258 101.424 33.7374 100.909 33.5572 100.352C33.8993 100.578 34.2354 100.812 34.5576 101.063C35.7863 102.019 36.6448 103.112 38.1757 103.62C39.7396 104.14 41.6941 102.427 41.0339 100.846C39.4389 97.0283 33.3439 95.2084 29.4454 94.832L29.3944 94.8273Z" transform="translate(4.603574 25.31775)" id="ðŸ–-Ink" fill="#000000" fill-rule="evenodd" stroke="none" />
  </g>
</svg>
