<?xml version="1.0" encoding="utf-8"?>
<svg width="182px" height="212px" viewBox="0 0 182 212" version="1.1" xmlns:xlink="http://www.w3.org/1999/xlink" xmlns="http://www.w3.org/2000/svg">
  <desc>Created with Lunacy</desc>
  <defs>
    <rect width="181.825485" height="211.10199" id="artboard_1" />
    <clipPath id="clip_1">
      <use xlink:href="#artboard_1" clip-rule="evenodd" />
    </clipPath>
  </defs>
  <g id="head/Short-2" clip-path="url(#clip_1)">
    <use xlink:href="#artboard_1" stroke="none" fill="#FFFFFF" />
    <path d="M136.278 36.9778C140.643 33.9352 134.135 23.9248 131.924 20.9463C130 17.0608 128.077 13.175 126.153 9.28913C126.387 6.1025 123.181 3.26733 120.013 4.23683C117.257 2.3183 112.641 3.2368 111.24 6.24063C80.764 -6.64218 28.0323 -1.28272 25.3053 38.47C19.4102 49.7883 13.5672 61.2035 8.33687 72.8275C1.07996 73.2058 -2.43764 81.7627 1.88283 87.2926C2.45784 96.2725 8.32344 96.9832 16.1542 96.5837C19.2989 97.3876 22.5588 97.8232 24.9171 100.18C26.7097 101.958 27.928 104.212 29.1037 106.4C34.5297 116.492 41.4233 125.222 50.7678 132.203C65.2996 142.758 84.9713 150.337 103.092 145.199C142.049 130.35 149.699 71.0084 136.278 36.9778L136.278 36.9778Z" transform="translate(19.17968 46.91143)" id="âœ‹-Skin" fill="#D08B5B" stroke="none" />
    <path d="M128.605 22.7905C110.94 3.82108 82.3468 -3.87837 56.8951 1.85899C30.9945 7.69687 11.6075 28.2225 5.29346 52.9851C3.55192 59.8171 2.70417 66.9767 3.21436 74.0097C3.46753 77.4573 3.97772 80.864 4.89068 84.2074C5.51594 86.4971 6.3637 88.9358 7.64491 91.0393C6.72428 91.5271 5.87269 92.0967 5.117 92.7445C-2.05244 98.8803 -1.3121 110.377 4.99809 116.807C9.57441 121.472 16.8666 122.448 23.1998 122.046C23.4031 122.034 23.6179 122.005 23.8289 121.96C23.9785 122.422 24.1703 122.872 24.3621 123.315C25.0219 124.838 25.7853 126.327 26.4949 127.828C27.7402 130.457 29.1998 132.989 30.694 135.491L31.4885 136.817C34.3897 141.667 37.4758 147.177 42.1994 150.554C44.3898 152.117 47.7578 153.592 50.4123 152.352C51.9428 151.637 53.0821 149.98 52.5988 148.271C52.1154 146.563 50.604 145.784 48.9776 145.39C44.2346 144.243 41.3962 138.997 38.6598 135.364L38.444 135.08C36.1079 132.046 33.626 129.075 30.9869 126.283C30.0881 125.333 29.1561 124.407 28.2189 123.488L26.8487 122.149C26.439 121.75 26.0186 121.36 25.5743 121.003C25.6855 120.873 25.7814 120.728 25.8543 120.568C26.3798 119.447 26.4182 118.68 25.8543 117.556C25.3748 116.602 24.2279 116.118 23.1998 116.077C22.6098 116.054 22.0122 116.039 21.411 116.024C16.6651 115.902 11.6973 115.774 8.50034 111.822C6.06449 108.817 5.26661 104.606 6.35219 100.954C7.53367 96.9852 11.1779 94.5056 15.2056 93.6902C19.6822 92.7818 23.9171 93.7349 27.8068 95.9799C28.0101 96.0991 28.1828 95.872 28.1022 95.6933C27.7071 94.7997 27.2084 94.003 26.6253 93.2993L26.9245 93.061L26.9582 93.103C27.0412 93.1978 27.1566 93.269 27.3043 93.2918C30.1161 93.7163 32.7361 94.3864 35.0415 95.9725C35.2985 96.1438 35.5555 96.3336 35.8048 96.5347C37.0746 97.5586 39.3953 96.9926 39.3109 95.1273C39.0616 89.4682 37.9453 83.8127 37.4543 78.1684C36.9441 72.3306 36.7945 66.4964 36.9556 60.6436L36.9589 60.5071C36.9627 60.3292 36.9655 60.1485 36.9682 59.966C36.9973 58.0393 37.0295 55.8993 38.4555 54.4521C39.0157 53.8811 41.4815 53.8027 44.4892 53.7072C48.4636 53.5809 53.3842 53.4245 56.1048 52.0618C58.5254 50.8518 57.95 47.8509 56.1048 46.518C53.2509 44.4591 50.8342 37.9772 54.44 34.5519C57.7773 31.3776 63.4102 29.9851 67.956 29.3215L68.4068 29.2576C76.5056 28.1378 84.7448 29.1298 92.8957 30.1111C95.8558 30.4675 98.8042 30.8225 101.73 31.0745C104.833 31.3463 107.952 31.525 111.071 31.5287L111.488 31.5287C114.485 31.5281 117.567 31.4881 120.158 29.9761C121.612 29.8458 122.977 29.4326 124.343 28.9374C130.538 37.899 134.915 48.2307 137.458 58.7225C140.105 69.635 140.527 80.9496 140.255 92.1191C139.695 114.979 137.086 143.268 115.616 157.337C110 161.016 103.813 163.041 97.0194 163.227C93.1796 163.335 89.3858 162.918 85.6381 162.122C81.8059 161.31 78.1272 159.746 74.2644 159.191C71.0575 158.733 69.0973 162.498 72.005 164.393C74.8391 166.237 78.2821 167.172 81.6018 167.979L82.4772 168.19C86.1214 169.065 89.8538 169.639 93.5977 169.892C100.698 170.376 107.726 169.218 114.262 166.504C125.613 161.786 134.666 151.879 139.76 141.104C146.112 127.66 147.581 112.797 148.007 98.1766L148.026 97.5269C148.356 85.3974 147.998 73.1638 145.529 61.2356C144.144 54.5489 142.015 48.1227 138.678 42.1024C135.594 36.5363 131.094 31.9122 125.697 28.431C126.054 28.297 126.411 28.1592 126.775 28.0289C127.074 28.4243 127.385 28.8103 127.698 29.195L128.329 29.965C128.754 30.4899 129.687 30.4006 130.135 29.965C130.588 29.5219 130.665 28.647 130.135 28.2114C129.629 27.7981 129.13 27.3848 128.62 26.9827C129.713 25.8583 129.848 24.1234 128.605 22.7905ZM24.8333 102.642C19.5973 101.296 10.0001 98.8282 11.0279 104.614C11.0624 104.811 11.4115 104.815 11.4422 104.614C11.9454 101.45 16.0395 103.584 18.1639 104.692C18.4846 104.859 18.7604 105.003 18.9722 105.102L19.4059 105.299C21.4372 106.212 23.5679 106.984 25.5049 108.061L25.6138 108.12C29.1944 109.965 31.2221 103.771 27.584 103.281L27.4914 103.267C26.9207 103.179 25.9819 102.938 24.8333 102.642Z" transform="translate(17.26293 24.20041)" id="ðŸ–-Ink" fill="#000000" fill-rule="evenodd" stroke="none" />
  </g>
</svg>