<?xml version="1.0" encoding="utf-8"?>
<svg width="182px" height="212px" viewBox="0 0 182 212" version="1.1" xmlns:xlink="http://www.w3.org/1999/xlink" xmlns="http://www.w3.org/2000/svg">
  <desc>Created with Lunacy</desc>
  <defs>
    <rect width="181.825485" height="211.10199" id="artboard_1" />
    <clipPath id="clip_1">
      <use xlink:href="#artboard_1" clip-rule="evenodd" />
    </clipPath>
  </defs>
  <g id="head/Shaved-1" clip-path="url(#clip_1)">
    <use xlink:href="#artboard_1" stroke="none" fill="#FFFFFF" />
    <path d="M108.292 8.81535C79.9438 -5.28641 37.7031 -3.76998 17.7568 22.9004C14.5822 27.9623 11.3595 33.5061 9.796 39.1467C7.83501 46.429 4.36575 57.2333 3.56145 67.7077C3.09423 73.7923 5.21905 79.6918 4.64251 84.9175C4.18671 89.0489 -0.171776 87.793 0.0052464 91.7562C0.351078 99.4987 0.603501 110.766 4.64251 116.86C8.4386 122.126 15.5281 121.803 19.6955 126.77C23.6232 131.448 27.018 136.637 31.9825 140.381C42.3738 159.201 72.0286 163.473 92.0202 161.717C139.652 154.372 139.091 85.276 138.407 48.9303C138.622 30.3262 124.56 16.5546 108.292 8.81535Z" transform="translate(24.61048 25.31741)" id="âœ‹-Skin" fill="#D08B5B" stroke="none" />
    <path d="M149.192 70.9858C149.683 73.0335 151.666 74.1765 153.15 75.5392C159.802 81.6489 163.074 90.9195 161.804 99.6949C160.711 107.264 155.985 115.168 149.065 119.197C150.112 120.358 150.921 121.758 151.474 123.128C152.828 126.502 152.732 130.113 151.256 133.423C149.748 136.796 146.741 140.891 143.323 142.653C141.631 143.52 139.644 143.821 137.826 143.259C136.706 155.144 133.326 166.488 124.561 175.621C117.51 182.97 107.901 188.075 97.6247 189.475C92.0391 190.231 86.3124 190.011 80.777 188.979C78.1724 188.496 75.6096 187.784 73.1358 186.857C70.3854 185.826 67.612 184.802 65.6134 182.635C63.5263 180.375 65.5635 176.972 68.6243 177.62C71.5132 178.231 74.0449 179.817 76.8452 180.748C79.4456 181.608 82.158 182.274 84.8854 182.62C90.344 183.32 95.9483 182.754 101.219 181.254C109.746 178.823 117.66 173.476 122.835 166.443C128.788 158.356 131.224 148.647 132.11 138.87C132.862 130.546 132.839 122.169 132.817 113.806C132.809 110.861 132.801 107.917 132.827 104.978C132.856 101.837 132.854 98.6956 132.853 95.555C132.851 92.7508 132.85 89.9471 132.87 87.1442C132.881 85.586 132.878 84.0285 132.874 82.4718C132.865 78.3712 132.856 74.2754 133.123 70.1816C132.862 70.1328 132.593 70.0249 132.329 69.8354C129.571 67.8919 127.407 65.1293 124.772 62.9997C122.11 60.8477 119.221 58.9601 116.214 57.2996C104.963 51.0819 91.9512 48.4124 79.07 48.6168C71.985 48.7289 65.0342 49.6299 58.1102 51.0633L36.6441 56.6294C32.2366 53.6546 27.2498 51.5622 22.3896 49.3693C21.8832 51.309 20.4371 53.1706 19.5433 54.8907C18.3576 57.1692 17.2647 59.4962 16.2981 61.8716C14.3494 66.6521 12.7881 71.6072 11.6105 76.6226C10.406 81.7606 9.75004 86.9767 9.07491 92.1965C8.74501 94.7543 8.38059 97.3456 8.23483 99.9183C8.1805 100.855 8.17677 101.795 8.17304 102.733C8.17124 103.187 8.16944 103.639 8.16194 104.092C8.1585 104.259 8.14568 104.459 8.13153 104.679C8.0653 105.712 7.96981 107.202 8.66829 107.938C8.73734 108.009 8.81022 108.072 8.89423 108.128C13.5323 106.765 18.8643 108.258 20.9856 112.871C21.1199 113.162 20.79 113.418 20.533 113.21C16.2098 109.695 8.71432 111.695 6.34752 116.468C5.24276 118.69 5.07782 121.382 5.64554 123.765C6.31684 126.569 8.11169 128.903 9.23218 131.535C9.86128 133.013 10.1643 134.48 10.406 136.051C10.5556 137.023 10.6246 138.397 11.3535 139.149C12.1283 139.95 13.6359 140.054 14.6754 140.281C16.1216 140.597 17.5179 140.981 18.8371 141.651C23.9892 144.265 26.6245 150.371 30.284 154.503C32.3896 156.882 34.6801 159.116 37.1236 161.171C39.4635 163.141 43.2109 164.757 43.5293 168.011C43.6371 169.087 42.6474 170.148 41.6424 170.416C39.3704 171.025 37.684 169.707 36.025 168.411C35.8578 168.28 35.6908 168.15 35.5236 168.022C33.8323 166.726 32.202 165.356 30.6481 163.908C27.572 161.045 24.8024 157.884 22.3129 154.533C20.5134 152.109 19.0101 148.978 16.4285 147.225C13.7932 145.437 10.2368 145.899 7.65559 143.825C4.53694 141.32 5.16604 137.913 4.25692 134.513C3.37848 131.245 1.06922 128.538 0.367232 125.18C-0.883298 119.17 0.992496 111.81 7.03416 108.85C7.39858 108.671 7.77451 108.511 8.15427 108.373C8.03919 108.292 7.93178 108.199 7.83588 108.094C7.1527 107.376 6.87689 106.166 6.65785 105.25C5.96776 102.39 5.58416 99.4194 5.17755 96.5117C4.34131 90.5993 4.78244 84.5902 5.76062 78.7188C6.67742 73.1936 8.11591 67.7839 10.0799 62.5268C9.39713 62.0689 8.85625 61.3913 8.55705 60.5309C8.00209 58.9663 8.34949 57.3741 8.69419 55.7943C8.75215 55.5287 8.81004 55.2634 8.86354 54.9987C8.97479 54.4365 9.09792 53.8743 9.22451 53.3121C8.93297 35.1353 24.649 20.0682 40.0769 11.7358C57.3814 2.38697 78.042 -1.53722 97.7091 0.544014C107.556 1.59022 117.376 3.96186 126.015 8.80194C133.894 13.2101 140.342 19.6958 144.585 27.5029C148.624 34.9421 150.665 43.4718 150.891 51.8563C151.006 56.0933 150.577 60.3339 149.736 64.4927C149.681 64.7676 149.622 65.0464 149.562 65.3282C149.171 67.1758 148.752 69.1509 149.192 70.9858ZM10.1274 121.367C12.7474 121.326 14.9727 121.81 17.2509 123.173C19.4335 124.484 21.4628 126.375 22.4486 128.698C23.2657 130.619 19.9898 131.882 19.0308 130.094C18.0449 128.259 17.3122 126.55 15.7318 125.083C14.2319 123.687 12.0646 122.413 10.0665 121.814C9.8129 121.736 9.86276 121.371 10.1274 121.367Z" transform="translate(21.09737 1.86172)" id="ðŸ–-Ink" fill="#000000" fill-rule="evenodd" stroke="none" />
  </g>
</svg>