<?xml version="1.0" encoding="utf-8"?>
<svg width="182px" height="212px" viewBox="0 0 182 212" version="1.1" xmlns:xlink="http://www.w3.org/1999/xlink" xmlns="http://www.w3.org/2000/svg">
  <desc>Created with Lunacy</desc>
  <defs>
    <rect width="181.825485" height="211.10199" id="artboard_1" />
    <clipPath id="clip_1">
      <use xlink:href="#artboard_1" clip-rule="evenodd" />
    </clipPath>
  </defs>
  <g id="head/Long" clip-path="url(#clip_1)">
    <use xlink:href="#artboard_1" stroke="none" fill="#FFFFFF" />
    <path d="M151.867 65.1749C150.413 42.0162 142.67 15.7602 119.883 4.38976C69.6474 -15.1783 3.598 34.0997 0.101118 84.441C-1.11796 101.673 8.73975 120.503 26.7539 125.294C30.759 130.444 36.8161 133.589 42.7944 136.319C114.001 172.176 159.997 143.028 151.867 65.1749L151.867 65.1749Z" transform="translate(13.81072 35.36964)" id="âœ‹-Skin" fill="#D08B5B" stroke="none" />
    <path d="M214.504 74.283C211.987 67.4994 209.329 60.768 206.533 54.0887C203.809 47.5881 201.349 40.947 197.967 34.7544C177.767 -2.23125 141.033 -2.23125 122.045 2.60139C112.198 -1.5164 93.7545 -0.354878 83.5012 3.36091C66.9022 9.37639 46.6677 33.0399 39.7495 43.6717C24.4751 67.1457 14.9426 98.3892 25.0888 125.515C26.4149 129.06 28.1062 132.343 30.0104 135.507C28.8109 137.085 27.4303 138.58 25.9009 140.048C21.356 144.412 16.8112 148.633 12.885 153.555C8.98345 158.447 5.74896 163.649 3.34111 169.385C-1.19916 180.201 -1.41781 192.449 4.58474 202.77C9.80704 211.75 19.0583 218.437 29.481 219.075C30.0161 219.147 30.552 219.213 31.0902 219.266C32.4712 221.474 34.1552 223.506 36.077 225.279C41.9652 230.714 56.0011 233.503 64.0068 233.682C64.4172 234.002 64.8315 234.322 65.2458 234.639C70.1443 238.38 75.2845 242.156 80.9081 244.818C84.7172 246.623 89.7117 248.131 93.6857 246.828C95.4886 247.997 98.4462 247.751 100.234 246.795C103.172 245.223 105.562 242.394 107.016 239.497C110.541 232.464 109.693 224.769 108.788 217.255C107.791 208.956 106.832 200.654 105.857 192.355C105.094 185.865 104.296 179.268 102.263 173.017C101.212 169.778 99.8348 166.665 98.0549 163.739C98.101 163.493 98.0933 163.247 98.0204 163.017C97.4373 161.177 96.2328 160.213 94.8058 158.962C94.6217 158.802 94.4376 158.638 94.2573 158.471C93.5438 157.681 92.7804 156.948 91.9634 156.326C91.6488 156.017 91.3381 155.704 91.0274 155.392C88.4458 152.767 86.0061 150.008 83.8388 147.052C81.7367 144.185 79.8378 141.192 78.0311 138.142C76.1937 135.041 74.9777 131.619 73.1441 128.54C72.9868 128.276 72.5878 128.224 72.3654 128.443C71.7976 129.013 71.4332 129.646 71.5023 130.313L71.2184 130.353C71.111 129.348 70.1558 128.529 68.8593 128.749C66.9183 129.076 65.3225 129.199 63.6423 128.574C63.9377 126.671 64.2101 124.765 64.4786 122.855C64.9696 119.34 65.4261 115.815 65.8173 112.289C66.7648 112.508 67.7046 112.825 68.6253 113.227C69.9372 113.797 71.1762 114.564 72.2349 115.506C73.2783 116.436 73.9995 117.691 75.273 118.339C76.7384 119.08 78.5068 117.855 78.0771 116.246C77.2064 112.996 72.2771 111.135 69.2275 110.52C68.1803 110.308 67.1101 110.219 66.0398 110.241C66.2815 107.977 66.4963 105.714 66.6728 103.446C66.7572 102.374 66.8339 101.302 66.9068 100.226C69.2774 99.5296 71.8168 99.3211 74.2833 99.6487C75.0966 100.278 75.9098 100.9 76.6962 101.529C79.1934 103.532 81.6791 105.546 84.1341 107.598C84.3566 107.78 84.5753 107.963 84.7978 108.149C86.2554 109.366 88.0737 108.16 87.8282 106.436C85.8258 92.3104 94.7406 81.074 105.178 72.3693C116.732 62.7301 137.738 61.6077 151.479 44.9111C157.807 46.1612 171.936 49.8741 177.767 58.8915C185.93 71.5279 184.863 82.8499 185.485 97.184C186.106 111.529 187.686 126.493 184.33 140.637C181.234 153.679 172.853 164.822 159.849 169.945C159.527 170.072 159.2 170.195 158.874 170.314C152.15 172.775 144.812 173.471 137.738 172.175C129.909 170.738 123.372 167.261 116.859 162.983C116.483 162.741 115.934 163.24 116.218 163.605C124.803 174.648 141.666 178.337 155.042 175.422C155.668 175.284 156.289 175.135 156.907 174.972C153.914 183.323 154.517 192.489 158.414 200.62C160.758 205.512 164.333 209.746 168.687 213.085C173.486 216.764 179.439 219.735 182.769 224.899C185.818 229.631 184.913 234.948 179.692 237.68C178.377 238.373 177.87 240.611 179.174 241.593C179.673 241.966 180.172 242.346 180.682 242.718C183.605 244.859 191.634 248.88 192.934 249.029C204.48 250.358 212.244 242.13 217.22 232.423C223.062 221.031 221.543 207.147 215.106 196.298C209.943 187.593 199.774 179.015 203.817 167.998C205.259 164.063 208.209 160.708 211.074 157.678C214.343 154.226 217.856 150.995 220.99 147.42C224.105 143.872 226.867 140.011 228.409 135.558C230.661 129.05 229.541 122.014 227.849 115.517C224.224 101.57 219.517 87.8092 214.504 74.283Z" transform="translate(-32.60443 11.85559)" id="ðŸ–-Ink" fill="#000000" stroke="none" />
  </g>
</svg>