<?xml version="1.0" encoding="utf-8"?>
<svg width="182px" height="212px" viewBox="0 0 182 212" version="1.1" xmlns:xlink="http://www.w3.org/1999/xlink" xmlns="http://www.w3.org/2000/svg">
  <desc>Created with Lunacy</desc>
  <defs>
    <rect width="181.825485" height="211.10199" id="artboard_1" />
    <clipPath id="clip_1">
      <use xlink:href="#artboard_1" clip-rule="evenodd" />
    </clipPath>
  </defs>
  <g id="head/Hijab" clip-path="url(#clip_1)">
    <use xlink:href="#artboard_1" stroke="none" fill="#FFFFFF" />
    <path d="M65.6736 0.0281284C123.41 1.80224 126.892 28.4197 126.892 73.0582C126.892 117.697 96.9413 145.825 85.9128 150.737C74.8843 155.649 45.8447 176.746 19.6383 167.024C-6.56823 157.302 1.02081 116.227 1.02081 98.5781C1.02081 80.9296 7.93724 -1.74598 65.6736 0.0281284Z" transform="translate(34.17175 39.12945)" id="âœ‹-Skin" fill="#D08B5B" stroke="none" />
    <path d="M0 69.1937C11.9379 21.9477 33.7308 -1.10331 65.3787 0.0405594C112.851 1.75637 112.35 48.7186 109.372 44.4367C107.426 41.6391 93.803 31.8663 68.5025 15.1181L66.9389 14.084L0 69.1937Z" transform="translate(44.03936 40.80467)" id="ðŸ§•-hijab" fill="#9FD8E5" stroke="none" />
    <path d="M108.709 1.12711C122.464 3.67374 135.526 11.0009 144.959 21.0049C161.231 38.2654 167.691 62.4509 169.141 85.3036C170.085 100.215 168.646 115.137 164.415 129.527C160.387 143.202 153.835 156.289 145.576 168.091C146.036 168.761 146.512 169.42 146.995 170.079C149.052 172.871 151.096 175.69 153.037 178.561C156.589 183.81 159.743 189.469 160.441 195.724C160.556 196.737 160.602 197.765 160.579 198.807C160.513 201.741 156.839 204.399 154.05 202.445C150.574 200.01 146.708 200.378 142.81 201.64C140.781 204.135 138.714 206.596 136.604 209.028C131.326 215.103 125.886 221.302 119.38 226.183C113.672 230.469 107.063 233.287 99.7515 233.298C91.9572 233.309 84.5077 230.539 77.5489 227.371C62.5314 220.54 47.8779 212.821 33.1627 205.401C25.7746 201.678 18.3942 197.936 11.0406 194.153C10.3129 193.779 9.56185 193.377 8.83263 192.932C8.6251 192.929 8.41758 192.925 8.20967 192.925C7.71688 192.925 7.199 192.955 6.67154 192.985C4.59994 193.104 2.38037 193.231 0.951607 191.602C-0.535986 189.906 -0.0910124 187.488 0.99879 185.709C2.32872 183.538 4.60998 181.746 6.57439 180.137C8.65541 178.433 10.8458 176.855 13.0587 175.317C15.6123 173.541 18.2281 171.821 20.7499 169.988C20.888 169.784 21.0276 169.58 21.1599 169.372C23.6226 165.493 25.1877 161.032 25.5982 156.483C24.6775 155.362 23.7991 154.204 22.9974 152.998C14.2513 139.818 9.44485 123.819 7.77275 108.327C6.0922 92.7647 7.9258 76.6473 13.5187 61.9446C23.1124 36.7095 43.6004 14.9325 69.5666 5.02896C81.9756 0.296849 95.5741 -1.30782 108.709 1.12711ZM90.0898 42.5582C83.388 46.6868 77.0433 51.5794 71.1397 56.7214C59.9463 66.4719 50.2528 78.3897 46.6891 92.8359C46.6281 93.0849 46.5668 93.3344 46.5088 93.5838C57.273 83.3597 68.2742 73.423 79.5175 63.6982C85.3673 58.6385 91.2479 53.6159 97.1093 48.5674C100.086 46.0055 103.109 43.489 106.124 40.9684C107.631 39.71 109.139 38.4479 110.65 37.1928C111.191 36.7427 111.724 36.2587 112.284 35.8231C104.279 35.8826 96.8714 38.3808 90.0898 42.5582ZM117.416 36.4522C117.454 36.3405 117.481 36.2322 117.497 36.1283C132.86 38.0718 145.691 49.0435 149.933 63.4897C149.565 63.9886 149.362 64.5806 149.439 65.2094C149.477 65.5262 149.515 65.8464 149.554 66.1629C149.028 65.6569 148.487 65.1837 148.027 64.7332C146.496 63.2291 144.928 61.7655 143.316 60.3395C140.021 57.4247 136.6 54.6994 132.994 52.1564C126.722 47.7334 119.932 43.6677 112.456 41.5455C112.947 41.1546 113.438 40.7636 113.933 40.3764C115.41 39.2107 116.779 38.2505 117.416 36.4522ZM122.114 161.431C111.511 167.175 99.3708 167.399 87.9661 163.784C81.1265 161.621 74.8551 158.277 68.9856 154.278C63.8799 150.797 59.3228 146.936 54.8078 142.837C51.0908 134.881 47.7807 126.939 46.2306 118.283C44.842 110.513 44.6578 102.445 46.2689 94.6896C58.1839 85.177 70.0256 75.5862 81.8515 65.9659C87.874 61.0659 93.9118 56.1927 100.023 51.3969C103.126 48.962 106.199 46.4898 109.29 44.0437C109.8 43.6416 110.307 43.2395 110.817 42.8374C117.2 47.3722 124.043 51.2595 130.381 55.8684C133.699 58.2847 136.925 60.8574 139.997 63.5638C141.608 64.9827 143.182 66.4459 144.716 67.9463C146.12 69.3168 147.474 71.2822 149.465 71.8001C149.737 71.8705 149.994 71.8854 150.236 71.8519C152.898 94.4736 154.789 118.901 143.384 139.445C138.409 148.407 131.355 156.419 122.114 161.431ZM55.3094 167.638C53.8556 166.346 51.6798 168.447 53.1398 169.745C62.6584 178.207 75.0325 182.845 87.6226 184.924C89.5544 185.244 90.3841 182.374 88.4385 182.052C76.3797 180.06 64.4414 175.757 55.3094 167.638ZM42.1837 182.201C40.4406 181.294 41.9923 178.723 43.7323 179.629C50.8469 183.333 58.6504 185.257 66.5656 186.556C68.5123 186.876 67.6819 189.745 65.7501 189.428C57.566 188.085 49.5354 186.028 42.1837 182.201Z" transform="translate(1.150425 13.77544)" id="ðŸ–-Ink" fill="#000000" fill-rule="evenodd" stroke="none" />
  </g>
</svg>