<?xml version="1.0" encoding="utf-8"?>
<svg width="182px" height="212px" viewBox="0 0 182 212" version="1.1" xmlns:xlink="http://www.w3.org/1999/xlink" xmlns="http://www.w3.org/2000/svg">
  <desc>Created with Lunacy</desc>
  <defs>
    <rect width="181.825485" height="211.10199" id="artboard_1" />
    <clipPath id="clip_1">
      <use xlink:href="#artboard_1" clip-rule="evenodd" />
    </clipPath>
  </defs>
  <g id="head/Bantu-Knots" clip-path="url(#clip_1)">
    <use xlink:href="#artboard_1" stroke="none" fill="#FFFFFF" />
    <path d="M132.901 62.2624C132.462 54.115 132.077 45.6966 130.468 37.674C129.679 33.7413 128.101 30.1105 125.548 26.9536C123.212 24.0648 120.273 21.8242 117.292 19.5989C111.3 15.1263 105.539 10.1745 98.8321 6.71499C92.3965 3.39544 85.4392 1.39164 78.2294 0.491759C64.3439 -1.24136 49.7596 1.64333 37.7015 8.56427C26.0056 15.2778 16.6033 25.6963 10.7852 37.5742C7.89367 43.4769 5.72174 49.7065 4.55176 56.1486C3.15739 63.8279 3.28359 71.5289 3.33384 79.2943C3.3511 81.9042 3.32694 84.5126 3.19306 87.1162C2.97479 88.3798 2.85434 89.6595 2.85588 91.0311C0.208668 94.4121 -0.868476 98.9308 0.790586 103.093C3.43703 109.734 10.946 112.754 17.7633 111.596C18.0682 113.322 18.8036 115.023 19.7192 116.679C21.2847 119.509 23.0347 122.28 24.892 124.937C28.7345 130.435 33.1195 135.419 38.3514 139.719C48.7227 148.243 61.8609 153.828 75.4859 154.636C87.8904 155.372 100.973 151.948 111.088 144.886C116.339 141.22 120.882 136.729 124.259 131.349C128.202 125.065 130.342 117.831 131.453 110.6C133.89 94.7241 133.76 78.2559 132.901 62.2624L132.901 62.2624Z" transform="translate(25.31684 30.90234)" id="âœ‹-Skin" fill="#D08B5B" stroke="none" />
    <path d="M57.3352 7.85246C56.8664 2.72496 61.7354 -1.13296 66.2534 0.303054C67.0824 0.403207 67.8887 0.657125 68.6091 1.08417C70.6886 2.3169 71.1432 4.30506 70.6 6.02366C71.5762 6.73887 72.3453 7.70838 72.732 8.87782C73.1306 10.0826 73.0891 11.2513 72.714 12.2696C74.1314 13.1784 75.2028 14.5496 75.4517 16.2485C75.5699 17.0553 75.5223 17.8554 75.3251 18.5907C77.471 19.2978 79.2221 20.8816 79.1956 23.2782C80.442 23.3556 81.6898 23.3727 82.9599 23.3042C83.1409 22.8079 83.3631 22.3239 83.6926 21.8783C84.3578 20.9805 85.3031 20.3637 86.3495 19.9791L86.4928 19.9281L86.4905 19.6556C85.6892 18.7937 85.314 17.7065 86.1675 16.5225C86.3141 16.3196 86.4924 16.1521 86.6915 16.0084C86.7621 15.4946 86.8764 14.986 87.0168 14.486C86.3095 13.5291 86.3862 11.9416 87.5727 11.4665C87.4073 10.5335 87.3977 9.56585 87.5761 8.59076C88.308 4.59583 92.2806 1.87496 96.3743 2.02761C96.8868 2.0466 97.3855 2.12144 97.8673 2.24058C98.8639 2.34185 99.8555 2.55816 100.831 2.87984C101.956 3.25141 102.246 4.16358 101.998 4.93464C103.526 6.91796 103.96 9.61239 102.421 12.0339C102.362 12.1259 102.298 12.2134 102.235 12.3016C102.543 12.5269 102.812 12.824 103.011 13.2056C103.512 14.1662 103.389 15.3851 102.624 16.1867C102.421 16.4004 102.158 16.5609 101.87 16.664L101.865 16.743C101.765 18.0293 101.554 19.319 101.157 20.5338C102.777 21.9944 103.853 23.9822 104.044 26.1241C104.647 26.1785 105.251 26.2422 105.853 26.3084C105.942 25.7213 106.31 25.1926 106.866 24.7831C107.333 24.4405 107.83 24.1665 108.341 23.9614C108.587 22.7301 109.19 21.5506 110.207 20.6146C110.585 20.2676 110.997 19.9616 111.436 19.6984C111.412 18.3636 111.718 17.03 112.48 15.7671C113.114 14.7168 114.036 13.9551 115.088 13.4703C115.855 11.9736 117.276 10.7524 119.343 10.0584C120.888 9.54009 122.523 10.1561 123.697 11.1248L123.96 11.3481C125.037 12.2711 125.426 13.967 125.029 15.2753C124.842 15.89 124.53 16.6082 124.078 17.1916C124.556 19.2382 123.604 20.9456 122.146 21.9051C122.645 22.5931 123.064 23.3564 123.417 24.1714C124.029 25.5806 123.341 27.3353 122.239 28.4455C122.721 29.1924 123.035 30.0636 123.15 30.9385C123.642 30.9665 124.13 31.0513 124.612 31.1843C124.873 30.3235 125.365 29.5234 126.117 28.87C126.446 28.2456 126.837 27.6644 127.275 27.1562C127.965 26.3542 128.859 25.7764 129.834 25.5411C129.964 25.2436 130.148 24.9588 130.379 24.6986C130.146 22.0894 131.928 19.3953 134.672 19.3931C134.865 18.7847 135.102 18.1831 135.385 17.5929C135.941 16.4354 137.119 15.7422 138.397 15.5143C139.147 13.7399 140.622 12.4494 143.151 12.2342C148.803 11.7539 152.358 18.405 150.978 23.1803C150.568 24.5988 149.607 25.9041 148.331 26.7057C147.997 26.9153 147.661 27.0676 147.321 27.1934C146.98 27.6547 146.522 28.0646 145.934 28.3986C145.803 28.4727 145.669 28.5393 145.531 28.5989C145.544 30.73 144.029 32.4632 142.148 33.0146C142.268 34.3582 141.914 35.7053 140.863 36.7463L140.788 36.8162L140.635 36.9492L140.623 37.008C140.997 37.9433 140.958 38.9734 140.421 39.8212C140.468 40.6001 140.61 41.3615 140.879 42.0852C141.918 42.901 142.835 43.8381 143.655 44.8553C144.202 44.3742 145.028 44.1572 145.743 44.42C145.941 44.3545 146.145 44.3121 146.341 44.2931C146.667 44.261 146.987 44.2622 147.301 44.2845C147.446 44.0801 147.612 43.8858 147.802 43.7037C149.136 42.4233 151.073 42.4497 152.611 43.245C152.886 43.0503 153.196 42.8783 153.547 42.7342C157.467 41.1306 160.035 45.9577 160.418 48.9664C160.626 50.6079 159.17 51.6202 157.677 51.7055C157.373 52.7007 156.399 53.417 155.311 53.6601C155.504 54.8895 154.664 56.1442 153.52 56.6118C153.009 56.8207 152.515 56.8777 152.051 56.817L152.073 57.1081C152.163 58.2627 151.561 58.9976 150.738 59.3234C150.593 59.8953 150.19 60.31 149.687 60.5226C151.612 64.8504 153.131 69.3844 154.357 73.8563C156.38 81.2385 157.74 88.7552 158.652 96.34C160.257 109.674 160.32 123.281 158.713 136.621C157.896 143.409 156.537 150.043 153.758 156.348C151.441 161.606 148.216 166.17 144.506 170.585C137.134 179.356 126.582 185.816 114.952 187.421C108.848 188.264 102.587 187.99 96.6294 186.376C90.6978 184.768 84.3735 182.012 80.6368 177.117C79.6249 175.792 80.1174 173.642 81.2441 172.549C82.5295 171.301 84.3807 171.221 85.9504 171.96C88.7357 173.27 91.2395 175.062 94.0712 176.313C96.6263 177.443 99.3894 178.166 102.141 178.676C107.59 179.689 113.516 179.43 118.949 178.019C128.803 175.46 137.484 169.284 142.995 160.956C149.505 151.117 151.83 139.587 152.894 128.097C154.058 115.521 153.936 102.772 152.392 90.2321C151.626 84.0134 150.448 77.8505 149.053 71.7382C148.06 67.3862 146.939 63.0633 145.885 58.7262C144.928 57.8405 144.004 56.9257 143.113 55.9778L143.086 55.9759C142.973 56.0031 142.856 56.0236 142.73 56.0329C137.438 56.4245 131.703 55.9089 127.188 52.949C125.354 51.746 123.802 50.2233 122.647 48.4701C121.024 47.3788 119.546 46.002 118.436 44.4111C117.649 43.5726 116.903 42.6966 116.194 41.7885C114.428 39.5256 113.49 37.1506 112.437 34.5396C112.412 34.4796 112.396 34.4208 112.384 34.3631C112.182 34.0433 112.039 33.6929 111.97 33.3392C109.621 33.0685 107.262 32.8891 104.927 32.7811C104.1 32.7431 103.27 32.713 102.441 32.6869C102.658 33.4736 102.79 34.2897 102.818 35.1278C103.488 35.1569 104.171 35.2324 104.869 35.3408C108.148 35.8475 110.25 37.4767 112.241 40.0297C114.179 42.5145 115.724 45.5031 116.871 48.4097C117.575 50.1894 116.636 52.1567 115.094 53.3023C111.088 53.6326 107.152 54.468 103.466 56.1233C103.336 56.1818 103.242 56.2842 103.18 56.4048C100.236 57.2559 97.2708 58.0344 94.3071 58.6953C91.4458 59.3334 88.5566 59.5989 85.6796 58.8948C84.4429 58.5922 83.2334 58.1439 82.0439 57.6413C81.4048 57.7165 80.7128 57.5981 80.0089 57.2064C78.9432 56.6141 77.8711 55.9662 76.8154 55.2693C74.95 54.401 73.1152 53.4684 71.363 52.4024L71.3534 52.3894C69.9559 50.7442 67.9624 49.068 65.7306 47.7988C65.4835 47.4328 65.2657 47.0478 65.0919 46.6364C64.1317 44.3694 64.5326 41.6273 66.558 40.068C66.5875 39.5301 66.8288 39.0032 67.3639 38.5807C67.7874 38.2459 68.2236 37.928 68.6709 37.6249C68.5773 37.5575 68.4829 37.4924 68.3897 37.4235C68.2056 37.2884 68.0287 37.1428 67.8561 36.9927C66.5039 37.712 65.1398 38.4161 63.7447 39.0431C63.7094 39.068 63.676 39.0944 63.6388 39.1179C61.0154 40.7892 58.5324 42.7089 55.8763 44.3195C55.2403 44.7048 54.607 45.0786 53.9783 45.4536C53.7424 45.7659 53.5118 46.0828 53.2893 46.4056C53.1942 46.9022 53.0496 47.3982 52.8701 47.8811C53.2176 48.1495 53.5003 48.5032 53.6925 48.9224C54.518 49.2273 55.2948 49.6142 56.0194 50.0755L56.6619 50.3521C57.4878 49.7095 58.3605 49.1287 59.298 48.6458C62.2406 48.8312 65.4206 50.8547 67.6563 52.9177C67.8128 53.089 67.9658 53.2617 68.112 53.4371C68.2535 53.548 68.3962 53.6661 68.5385 53.7819C68.7698 54.0235 68.9858 54.2625 69.1837 54.4952C69.4058 54.757 69.6567 54.901 69.9114 54.9613C71.2809 56.2093 72.564 57.6137 73.4417 59.0728C74.851 61.4154 73.8632 64.3355 72.8317 66.6341C72.663 67.0094 72.4854 67.3788 72.2989 67.744C70.3265 70.323 68.4564 72.9743 66.5875 75.6263C65.3282 76.8076 64.0777 77.9964 62.8812 79.2325C62.6852 79.3598 62.4792 79.4819 62.2529 79.5951C59.3318 81.0543 56.4913 79.9112 53.6933 78.7852C53.1562 78.5691 52.6207 78.3536 52.0865 78.1573L51.7161 78.0243C48.2977 76.8246 44.0426 76.0362 43.8268 71.7159C43.7972 71.1272 43.8206 70.5241 43.8808 69.9142C44.7225 67.7496 45.6868 65.6248 46.762 63.5551C46.5453 63.3276 46.3508 63.0756 46.187 62.7945C45.8406 62.3685 45.551 61.9091 45.3305 61.4244C43.7427 64.3753 42.2306 67.5404 40.1899 70.1294C39.0652 71.5565 37.6642 72.0707 36.1774 72.0673C35.5502 72.3745 34.8483 72.4776 34.1724 72.4002L34.2437 73.19C34.3059 73.8486 34.3777 74.5066 34.4827 75.1523C35.92 75.1296 37.4222 75.512 38.7613 76.0261C42.6917 77.5344 46.479 79.6231 50.2704 81.4336C52.1013 82.3078 54.617 83.0405 56.1126 84.4058C57.2588 85.4531 57.1276 86.7503 56.6922 88.0995C56.6174 88.3296 56.5361 88.5578 56.4586 88.7868L56.4537 88.8617C55.2311 90.3565 54.3937 92.1402 53.7861 93.9817C52.7934 95.6199 52.101 97.4584 51.6291 99.26C51.2466 100.724 50.9749 102.218 50.7981 103.725L50.7522 104.137L50.7269 104.185L50.7139 104.541C50.4622 107.196 50.4921 109.884 50.72 112.518C50.7837 113.251 50.8627 113.985 50.9613 114.717C50.534 116.014 48.5051 116.195 47.4537 115.399C46.296 114.523 45.0803 113.726 43.8179 113.008C42.0971 113.769 40.107 113.899 38.184 113.275C38.0467 113.231 37.9163 113.177 37.7843 113.126C36.3431 113.3 34.9162 113.626 33.5505 114.012L33.1409 114.13C30.9624 114.766 28.8859 115.562 27.2457 117.178C24.3315 120.049 23.3929 124.689 23.9874 128.574C24.5655 132.353 26.8249 136.672 30.896 137.771C32.562 138.221 34.3576 138.208 35.9776 137.579C36.5929 137.341 37.1203 136.995 37.6397 136.615C38.2772 136.149 38.7809 135.625 39.5374 135.33C40.1218 135.102 41.066 135.082 41.5471 135.072C41.6346 135.07 41.7069 135.068 41.7588 135.066C42.8118 135.016 43.7028 135.816 44.0128 136.732C44.958 139.524 43.5387 141.576 41.2582 142.948C42.2176 144.358 43.1167 145.831 44.0665 147.162C45.841 149.651 47.7149 152.056 49.6571 154.422C51.6506 156.853 53.7757 159.165 56.0923 161.31C57.138 162.279 58.2163 163.214 59.3253 164.113L59.9379 164.605C60.9732 165.444 61.8788 166.299 61.8428 167.763C61.8233 168.583 61.262 169.345 60.4308 169.564C57.8494 170.242 55.1588 167.441 53.2444 165.448C52.9781 165.171 52.7268 164.91 52.493 164.675L52.3422 164.526C50.0242 162.25 47.868 159.804 45.9181 157.223C43.9085 154.562 42.2624 151.622 40.9356 148.59C40.3195 147.182 39.6501 145.571 39.1764 143.942C36.6212 144.903 33.6541 145.247 31.623 145.021C29.7483 144.813 28.0371 144.29 26.4916 143.528C26.1755 144.215 25.7505 144.855 25.2341 145.386C23.3192 147.359 20.5324 147.921 17.833 147.897C14.376 147.867 11.2739 145.751 11.1484 142.181C11.0671 139.867 12.3023 137.881 14.1048 136.528C14.7734 134.926 16.0427 133.606 17.8821 133.177C16.6649 129.525 16.4505 125.501 17.365 121.814C18.2705 118.164 20.337 114.707 23.393 112.429L23.567 112.301L23.4934 112.339C22.7714 112.725 22.0672 113.142 21.3529 113.541L21.032 113.718C17.8597 115.457 14.1856 116.95 10.4917 116.02C4.62917 114.545 4.12205 107.448 9.16598 104.647C10.9091 103.679 12.9233 103.314 14.9119 103.072C15.2261 102.674 15.5997 102.319 16.0121 102.032C16.0734 100.727 16.7493 99.4235 17.945 98.6044C19.1641 97.7689 20.5335 97.6862 21.8086 98.0697C22.2839 97.7235 22.7991 97.4204 23.3656 97.1836C23.8574 96.9774 24.3561 96.8277 24.8559 96.7242C24.8471 96.3347 24.8425 95.9453 24.8363 95.5555C24.7562 95.1925 24.7078 94.812 24.6576 94.4162C24.5674 94.4013 24.4761 94.3872 24.3875 94.3686C23.0887 94.093 21.9152 93.5275 20.8937 92.765C19.26 93.7669 17.2768 94.1459 14.9188 93.4683C12.7296 92.8391 10.6662 90.8621 9.64625 88.5906C8.24803 88.3177 6.89048 87.9212 5.70171 87.1691C3.50063 87.6769 1.12845 86.8556 0.236206 84.6441C-0.425501 83.0044 0.370082 81.0222 1.78863 80.0058C2.20176 79.7098 2.64865 79.7653 3.00387 79.9942C3.08787 79.7281 3.18646 79.4644 3.30768 79.2068C3.35639 79.1029 3.40933 79.0017 3.46303 78.9008C3.4101 76.7287 4.22217 74.6288 6.25371 73.4635C7.76163 72.5986 9.55994 72.5044 11.1806 73.0041C12.071 72.1987 13.1988 71.5837 14.5993 71.246C17.062 70.6518 19.6547 71.3294 21.4077 73.1221C21.7871 73.0137 22.1799 72.9367 22.5819 72.8879C22.7281 71.8879 23.0787 70.9262 23.8098 70.1756C24.3346 69.6368 24.9637 69.2079 25.6442 68.9071C25.9545 67.7742 26.4636 66.76 27.3159 65.9111C26.8993 65.5697 26.5207 65.1855 26.1977 64.758C25.8395 64.7 25.4839 64.6251 25.1371 64.5172C23.2843 63.9397 22.0069 62.8064 21.1404 61.3938C19.5358 61.7926 17.8368 61.6466 16.167 60.6298C14.9595 59.8945 14.0492 58.7187 13.5689 57.4052L12.1976 56.9387C10.9052 56.4949 9.97768 55.6661 9.44831 54.6799C8.7751 54.9148 8.03322 54.9063 7.42905 54.4535C3.88883 51.8012 6.30664 47.4064 10.0962 46.5336C11.6379 46.1788 12.9839 46.381 14.1808 46.922C15.0323 46.1256 16.1007 45.5277 17.3232 45.2581C18.749 44.9439 20.2516 45.1743 21.5673 45.7849L21.9072 45.7805C23.2321 44.8255 24.9326 44.3977 27.0106 44.859C29.3632 45.3813 30.967 46.6595 32.0541 48.3241C32.4036 48.0177 32.7972 47.7478 33.226 47.521C34.4428 46.8784 35.7424 46.7198 36.9872 46.9209C37.4061 46.3415 37.8357 45.77 38.2784 45.2086C37.2269 44.4115 36.5081 43.175 36.4701 41.803C36.1525 41.6109 35.8448 41.3924 35.5506 41.1913C34.111 40.2073 32.8904 38.9734 32.3353 37.3148C32.0583 36.4875 31.9575 35.6252 31.9897 34.7607C31.8347 34.7279 31.6805 34.693 31.5274 34.6505C25.4091 32.9423 22.8727 24.7578 27.7083 20.3652C30.2478 18.0583 34.1079 19.3648 36.6197 21.0681C38.3325 22.2297 39.6931 23.6739 40.926 25.2697C40.9839 25.2812 41.0403 25.2849 41.0986 25.2987C42.8693 25.7049 44.2775 26.8073 45.3178 28.2169C47.1552 27.9072 49.1112 28.2515 50.8543 29.4895C52.1251 30.392 52.9234 31.5089 53.3377 32.7227C54.9887 31.8864 56.688 31.1534 58.4242 30.5059C58.5381 30.2404 58.657 29.9746 58.7948 29.7106C59.0625 29.198 59.4116 28.7523 59.8174 28.3755C59.3755 27.896 58.9842 27.3602 58.6693 26.7642C57.1744 23.9368 57.7145 21.0752 59.3667 18.9102C58.6444 17.3316 58.4219 15.5415 58.8496 13.8385C58.929 13.5224 59.0291 13.2186 59.1461 12.9264C58.1438 11.4099 57.5013 9.66452 57.3352 7.85246ZM116.341 35.9861L117.047 36.0148C116.985 36.2267 116.93 36.4406 116.878 36.6558L116.341 35.9861ZM80.4632 38.2627L80.4364 38.1339C80.1641 36.7225 77.9453 37.3201 78.2173 38.7274C78.6692 41.0674 80.4203 42.6047 82.6663 43.3679C84.0675 43.8438 84.6694 41.6866 83.2785 41.2137C81.7897 40.7081 80.7944 39.7498 80.4632 38.2627ZM61.738 55.34C61.2133 54.0662 63.1464 52.9865 63.7518 54.2725C64.6717 56.2257 64.4937 58.3605 63.4204 60.2251C62.6969 61.4816 60.7095 60.3539 61.433 59.0977L61.4917 58.9929C62.0865 57.9021 62.3099 56.558 61.7644 55.3999L61.738 55.34ZM36.216 94.934C35.6298 94.7333 34.957 95.1619 34.8001 95.714C34.6318 96.3089 34.9889 96.847 35.5419 97.065L35.6041 97.0879C36.3549 97.345 37.0405 97.7724 37.6242 98.2956L37.7477 98.4092C38.8106 99.4115 40.4398 97.8336 39.3753 96.8295C38.4723 95.978 37.4021 95.3398 36.216 94.934ZM31.3418 121.973C31.1091 122.053 30.8509 122.143 30.5078 122.224C30.3609 122.259 30.329 122.473 30.4652 122.543C31.0422 122.839 31.3966 123.304 32.01 123.588C32.8972 123.999 33.7734 124.352 34.6223 124.842C36.2971 125.807 37.7927 126.891 39.1253 128.277L39.1851 128.337C41.1682 130.27 44.1487 126.902 41.659 125.09C39.9037 123.813 37.9101 122.728 35.7738 122.191C34.8781 121.966 33.9341 121.813 33.0108 121.739C32.2039 121.675 31.8286 121.805 31.3418 121.973Z" transform="translate(3.06905 1.116883)" id="ðŸ–-Ink" fill="#000000" fill-rule="evenodd" stroke="none" />
  </g>
</svg>