<?xml version="1.0" encoding="utf-8"?>
<svg width="182px" height="212px" viewBox="0 0 182 212" version="1.1" xmlns:xlink="http://www.w3.org/1999/xlink" xmlns="http://www.w3.org/2000/svg">
  <desc>Created with Lunacy</desc>
  <defs>
    <rect width="181.825485" height="211.10199" id="artboard_1" />
    <clipPath id="clip_1">
      <use xlink:href="#artboard_1" clip-rule="evenodd" />
    </clipPath>
  </defs>
  <g id="head/Long-Bangs" clip-path="url(#clip_1)">
    <use xlink:href="#artboard_1" stroke="none" fill="#FFFFFF" />
    <path d="M131.906 21.2884C127.955 7.44354 112.851 1.40237 99.2477 0.44366C62.4169 -3.27241 24.9278 16.6553 8.59961 48.9688C-4.47073 73.5054 -4.88002 99.2807 23.2155 113.291C24.7499 114.111 26.3521 114.989 27.9886 115.786C29.4102 117.069 30.8744 118.302 32.4724 119.337C47.7715 129.101 66.549 133.324 84.7461 132.408C111.614 131.882 121.205 114.187 127.075 91.4953C133.265 68.9036 136.727 44.3897 131.906 21.2884L131.906 21.2884Z" transform="translate(23.78419 54.35762)" id="âœ‹-Skin" fill="#D08B5B" stroke="none" />
    <path d="M201.713 188.646C200.458 184.963 198.885 181.393 197.416 177.785C197.106 175.987 196.898 174.174 196.845 172.346C196.641 165.815 197.9 159.229 199.311 152.87C202.181 139.947 205.222 127.158 206.749 113.997C209.477 90.4552 207.854 65.9756 196.822 44.4856C187.262 25.8699 171.063 10.646 150.138 4.94214C143.952 3.25519 137.585 2.32478 131.175 1.95321C130.381 1.83072 129.589 1.71083 128.8 1.59541C119.884 0.290826 110.858 -0.359234 101.845 0.203332C86.9005 1.13672 72.0952 5.30515 59.6482 13.5497C47.1164 21.8512 38.2123 33.4912 34.0691 47.6886C29.759 62.4583 30.1246 78.454 22.6816 92.3011C20.4828 96.3921 17.9162 100.281 15.4684 104.235C8.97373 111.269 1.92244 119.088 0.377303 128.758C-1.52918 140.71 5.55588 150.811 12.2612 160.137C18.322 168.559 26.5464 180.19 20.3091 190.559C17.3669 195.451 12.6524 199.111 9.11183 203.572C5.4408 208.203 2.57532 213.52 1.09463 219.201C-1.68645 229.872 0.872144 240.993 8.31011 249.333C12.1845 253.674 17.1597 256.544 22.5454 258.782C28.0577 261.068 33.4435 263.239 38.0006 267.129C40.0835 268.905 41.99 270.852 43.7929 272.893C45.4731 275.443 47.4294 277.826 49.6351 280.008C52.0633 282.409 56.8199 279.122 54.5912 276.296C54.4263 276.087 54.2652 275.882 54.1002 275.674C52.4699 273.611 50.832 271.549 49.1173 269.553C44.0039 261.689 42.036 252.062 44.5793 242.877C45.2391 240.49 46.1674 238.227 47.3224 236.09C47.5675 236.711 47.836 237.326 48.1199 237.932C49.2247 240.285 50.7748 243.074 52.7461 245.457C52.8228 247.091 53.0764 248.711 53.567 250.297C56.6051 260.13 66.7628 264.981 75.9231 268.756C76.8207 269.129 77.7068 269.486 78.5776 269.84C80.9712 270.811 83.503 267.502 82.0108 265.506C81.6195 264.981 81.2398 264.445 80.8792 263.901C76.5829 257.445 74.5383 249.724 75.6968 242.032C76.9166 233.897 81.8574 227.165 86.7636 220.706C91.5816 214.354 96.7563 207.872 98.9121 200.124C101.298 191.564 99.1269 183.031 95.4444 175.153C92.0726 167.944 87.581 161.299 83.8145 154.288C85.1041 155.537 86.4348 156.744 87.8058 157.909C89.3475 159.219 90.9314 160.718 92.7584 161.641C94.1095 162.323 95.4628 160.69 94.393 159.585C92.9867 158.134 91.1872 157.012 89.6256 155.717C88.1265 154.474 86.6707 153.181 85.251 151.853C83.503 150.218 81.8401 148.506 80.2367 146.742C78.9535 143.57 77.8963 140.312 77.0355 137.006C75.8656 132.53 74.7838 127.769 74.8682 123.129C74.9526 118.371 77.4997 115.039 80.8907 111.845C82.3269 110.492 83.7769 109.155 85.2242 107.816C88.3068 105.62 91.2145 103.166 94.0389 100.72C99.0717 96.3594 103.94 91.7505 108.588 87.0068C109.835 85.7343 111.072 84.4475 112.294 83.1459C116.561 78.8956 120.631 74.4576 124.467 69.8662C128.28 68.5185 131.944 66.7351 135.381 64.6352C133.885 66.1059 132.373 67.5579 130.87 69.0211C127.521 72.2826 124.042 75.5589 120.16 78.2169C119.761 78.4928 120.002 79.0773 120.494 78.9842C125.43 78.0274 130.049 76.4339 134.36 73.8947C138.745 71.3108 142.608 67.7999 146.214 64.2778C148.254 63.3843 150.223 62.2338 152.021 61.102C152.117 61.0424 152.213 60.9791 152.309 60.9192C150.537 66.3702 147.936 72.5432 142.393 74.4867C142.213 74.5499 142.224 74.8404 142.439 74.8292C147.109 74.5634 150.862 72.5242 153.825 69.552C156.208 67.8878 158.482 66.1241 160.652 64.2041C162.754 62.344 164.745 60.3492 166.636 58.2836C163.993 63.3653 161.033 68.3342 158.113 73.2469C157.959 73.5075 158.282 73.8612 158.558 73.6787C164.722 69.628 169.398 64.4007 173.223 58.2199C173.787 57.31 174.326 56.3851 174.852 55.4532C174.455 56.9116 174.022 58.3606 173.558 59.8022C172.719 62.4118 171.892 65.0273 171.051 67.6353C170.597 69.0416 170.045 70.4158 169.438 71.7665C169.004 72.7331 168.435 73.6977 168.347 74.7577C168.341 74.8281 168.42 74.8742 168.484 74.859C170.942 74.2625 173.231 71.5417 174.982 69.8562C175.958 68.9176 176.872 67.8874 177.712 66.801C177.868 73.0585 177.976 79.3167 177.834 85.5928C177.569 97.1196 176.802 108.643 175.82 120.132C174.953 130.289 174.312 140.948 168.474 149.776C163.955 156.608 156.628 161.336 148.669 163.626C147.967 163.831 147.261 164.013 146.551 164.177C135.028 166.832 123.551 163.823 113.362 158.507C110.301 156.91 107.685 161.243 110.639 163.026C121.694 169.706 135.707 171.981 148.22 168.987C147.825 183.332 155.109 196.941 162.355 209.108C166.41 215.918 170.468 222.682 173.334 230.065C175.766 236.335 177.419 242.84 177.976 249.53C178.635 257.416 177.987 265.346 176.852 273.165C176.79 273.589 176.729 274.017 176.664 274.441C176.41 276.121 177.964 277.528 179.648 276.668C187.094 272.87 190.304 264.776 192.257 257.293C194.083 250.282 195.322 243.134 196.012 235.937C197.025 238.651 197.846 241.432 198.483 244.269C198.571 244.675 198.655 245.081 198.74 245.487C199.223 247.858 202.921 247.691 203.512 245.487C203.619 245.088 203.723 244.69 203.819 244.288C206.868 232.318 207.689 219.834 206.078 207.596C205.23 201.159 203.815 194.807 201.713 188.646" transform="translate(-28.38589 17.49871)" id="ðŸ–-Ink" fill="#000000" stroke="none" />
  </g>
</svg>