<?xml version="1.0" encoding="utf-8"?>
<svg width="153px" height="87px" viewBox="0 0 153 87" version="1.1" xmlns:xlink="http://www.w3.org/1999/xlink" xmlns="http://www.w3.org/2000/svg">
  <desc>Created with Lunacy</desc>
  <defs>
    <rect width="152.756851" height="86.85713" id="artboard_1" />
    <clipPath id="clip_1">
      <use xlink:href="#artboard_1" clip-rule="evenodd" />
    </clipPath>
  </defs>

  <g id="mask/respirator" clip-path="url(#clip_1)" >
    <use xlink:href="#artboard_1" stroke="none" fill="#FFFFFF" />
    <path d="M121.467 13.0933C118.067 9.59997 114.655 6.05597 110.305 3.64187C110.496 2.60721 110.074 1.41826 108.832 0.923017C96.7915 -3.53413 89.1373 9.29406 80.4174 15.0255C78.3797 16.1097 76.3362 17.3603 74.0609 17.784C69.2229 19.1824 65.1177 22.0781 62.2007 25.8826C60.6244 27.3817 57.8456 29.883 57.0737 31.9211C56.6012 32.7531 14.2557 12.8072 4.61841 10.5878C0.0546399 9.07654 -2.40257 13.348 3.38187 15.5402C18.582 21.3007 48.3432 34.1952 54.9877 37.9108C53.7109 41.8114 53.3295 46.9813 54.573 50.8388C53.5279 56.843 55.5567 62.3436 59.5669 66.6544C60.4165 67.8784 61.7155 68.7607 62.561 69.8228C65.6319 77.7702 73.0012 81.6142 81.6249 85.4129C95.347 91.4574 107.309 92.6684 114.829 90.0209C134.35 82.6426 145.68 60.9622 142.029 41.2083C138.596 27.2925 139.305 15.0857 121.467 13.0933Z" transform="translate(11.02477 -2.763705)" id="ðŸŽ¨-Color" fill="#9DDADB" stroke="none" />
    <path d="M88.2878 7.41037C85.7127 9.99557 82.9518 12.7673 79.1885 14.8471C70.2152 19.708 60.0008 23.8608 56.405 31.8608C48.3563 29.956 6.99537 10.948 2.11683 10.6661C-0.289193 10.5274 -1.0714 11.2894 2.05945 12.2684L2.40773 12.3784C8.99067 14.4728 61.848 37.0475 62.7442 37.1446C62.5463 38.0787 61.5414 40.2528 61.268 40.2417C60.8069 40.2231 22.4869 22.5205 3.02621 17.0775C0.014089 16.2351 3.08206 19.421 3.08206 19.421C11.3705 22.7077 31.1998 30.2852 52.6059 40.2631C48.8706 54.0669 56.1308 73.2467 67.6428 82.4391C76.6371 90.2935 91.3554 96.413 106.591 96.413C113.424 96.413 122.642 91.3032 127.186 87.4173C127.908 87.0029 128.634 86.5946 129.363 86.1961C129.76 85.9795 129.796 85.5097 129.613 85.1836C142.602 72.3141 147.924 51.5965 142.841 33.9114C140.898 25.3914 135.805 17.2806 127.119 14.4257C124.836 13.545 122.521 12.7225 120.683 11.0684C117.133 7.13354 115.264 3.98345 109.944 1.85545C98.3717 -2.71314 93.7474 1.92935 88.2878 7.41037ZM104.829 3.50572C98.2921 1.60096 93.4863 6.29886 89.9897 11.2227C81.7417 21.3486 66.6967 21.6686 60.484 33.6998L60.2985 34.068L62.7577 34.7994L62.8249 34.6894C63.0187 34.3908 63.596 33.6325 64.0854 34.3229C66.6286 37.0289 62.647 46.0127 60.5562 42.0559L60.4934 41.932L57.0786 41.0013C50.9104 65.7501 74.4476 88.0332 98.1294 91.8071C98.1294 91.8071 108.01 91.9636 111.969 91.0169C114.889 90.319 117.412 88.9689 120.107 87.6291C122.785 86.2974 124.997 84.2361 127.592 82.8276C135.005 75.5504 139.879 65.5601 141.205 55.1971C142.503 42.7709 141.287 26.9495 130.395 19.0691C126.809 16.8177 122.389 16.2128 119.111 13.4288C115.199 9.14838 110.62 4.79562 104.829 3.50572ZM106.836 6.4891C102.812 2.02319 89.684 12.4114 90.2609 16.5257C90.8686 16.0107 91.5117 15.4293 92.1855 14.8201C95.8417 11.5144 100.403 7.39007 105.139 8.62015C106.512 9.34586 107.876 7.63881 106.836 6.4891ZM125.719 42.6773C125.308 41.7072 124.946 40.8531 124.574 40.9388C123.517 43.8798 127.138 49.407 130.441 48.724C131.66 47.8328 130.288 47.1 128.962 46.3912C128.183 45.975 127.419 45.5671 127.205 45.1404C126.615 44.7925 126.141 43.6737 125.719 42.6773ZM103.148 41.8121C103.714 41.801 104.102 42.2311 104.288 42.7202C104.638 43.714 103.709 43.9109 102.837 44.0961C102.448 44.1786 102.07 44.2587 101.821 44.406C98.4084 46.7328 94.4671 48.6094 90.2735 48.6964C90.0114 48.7016 90.009 48.3583 90.2232 48.2753L90.9545 47.9918C93.2614 47.0932 95.4843 46.1722 97.6063 44.8421C98.0951 44.5361 98.5786 44.155 99.0703 43.7674C100.307 42.7929 101.595 41.7777 103.148 41.8121ZM58.4236 50.9137C64.2533 51.4957 70.1884 52.3504 76.1862 53.2141C95.283 55.9641 115.015 58.8056 133.998 53.2276C135.51 52.8215 136.109 55.1358 134.603 55.5358C109.458 61.8455 82.7577 58.0764 58.4236 50.9137ZM131.249 61.3212C131.442 61.1959 131.324 60.9208 131.102 60.9624C125.907 61.6332 125.611 69.8561 128.52 67.9369C128.928 65.57 128.716 62.73 131.249 61.3212ZM93.3606 61.4241C93.2169 61.2912 92.9636 61.4622 93.0734 61.6405C94.8521 64.5217 96.7477 67.3377 98.7404 70.0771C99.5231 71.239 100.838 70.3905 101.41 69.4266L101.5 69.2661C101.881 68.5498 101.201 67.7369 100.415 67.927C100.25 67.967 100.122 68.0009 100.009 68.0363C97.8682 65.7598 95.6528 63.5487 93.3606 61.4241ZM64.745 66.7351L64.7429 66.6514C64.7339 66.4811 64.698 66.2576 64.6587 66.0127C64.5068 65.0667 64.3038 63.8016 65.4009 64.0558C66.999 64.9762 67.5905 67.3823 67.6802 69.0913C67.7788 70.9671 64.637 70.9907 64.7182 69.0913C64.7243 68.9503 64.7313 68.8094 64.7383 68.6685C64.7703 68.0234 64.8022 67.3794 64.745 66.7351Z" transform="translate(10.95625 -4.608059)" id="ðŸ–-Ink" fill="#000000" fill-rule="evenodd" stroke="none" />
  </g>
</svg>
