<?xml version="1.0" encoding="utf-8"?>
<svg width="153px" height="87px" viewBox="0 0 153 87" version="1.1" xmlns:xlink="http://www.w3.org/1999/xlink" xmlns="http://www.w3.org/2000/svg">
  <desc>Created with Lunacy</desc>
  <defs>
    <rect width="152.756866" height="86.85714" id="artboard_1" />
    <clipPath id="clip_1">
      <use xlink:href="#artboard_1" clip-rule="evenodd" />
    </clipPath>
  </defs>
  
  <g id="mask/medicalmask" clip-path="url(#clip_1)">
    <use xlink:href="#artboard_1" stroke="none" fill="#FFFFFF" />
    <path d="M137.294 19.8617C136.568 10.7634 124.981 6.90933 119.209 5.76648C99.9902 1.29333 83.6395 12.7699 60.7228 13.0046C58.4099 13.0404 51.7956 12.6541 48.7197 11.8499C33.1135 8.33905 17.5234 4.60457 2.2108 0C-0.0405338 0.521905 -0.706585 3.43124 0.839069 5.08876C15.5053 10.2381 37.9428 14.8491 49.7917 15.3741C49.5643 30.5284 41.4839 45.7665 30.3254 54.1474C48.0725 73.5779 89.4627 79.968 113.821 69.7688C125.804 66.2084 138.448 34.3379 137.294 19.8617" transform="translate(14.02328 6.94063)" id="í ¼í¾¨-Color" fill="#FFFFFF" stroke="none" />
    <path d="M2.29807 1.68517C1.63817 1.65965 2.02295 -0.245112 3.50935 0.0265072C8.70123 1.22866 14.2387 2.72525 19.9453 4.26755C35.3188 8.42251 51.9195 12.9091 66.2963 12.8638C80.7982 12.3937 93.7925 4.39755 108.374 4.34917C118.177 4.53508 130.676 5.91527 137.536 13.7027C146.584 42.1134 126.209 80.7557 94.15 80.9793L88.0821 80.5446C67.3989 79.036 44.74 76.6222 31.4084 59.249L31.3046 59.3374C29.311 58.0132 29.4222 55.1534 31.1164 53.6825L31.1668 53.761C31.1991 53.7092 31.2349 53.6597 31.2695 53.609L31.248 53.5423C31.8998 52.865 32.6409 52.2315 33.3146 51.6642L33.3181 51.6753C43.3285 43.4181 49.8647 30.9324 50.241 18.0033C46.9269 18.9046 -8.75276 7.47603 1.18644 4.68708C8.2956 7.06651 15.4467 9.21546 22.7421 10.9259C22.8645 10.8577 23.0399 10.8757 23.1072 11.0101C32.0318 13.1846 41.1364 14.4273 50.253 15.4334C50.2433 15.0021 50.2268 14.5709 50.2045 14.1389C33.9945 11.0147 18.1032 6.37622 2.29807 1.68517ZM87.5819 11.3483C101.452 7.54157 114.855 3.86294 133.554 13.2154C133.773 13.5922 134.146 13.8585 134.575 14.0063C136.904 18.7753 137.146 24.2857 137.034 29.4915L137.021 30.0581C134.536 50.5705 117.928 73.2097 95.9496 74.7933C91.7124 74.721 87.4488 74.259 83.2247 73.7638L80.4153 73.4326C58.9101 71.1526 51.8148 69.0253 35.4209 54.9773C46.7038 45.2684 55.0107 29.249 51.6466 14.3895C65.7172 17.3494 76.7908 14.3101 87.5819 11.3483ZM121.874 25.0193C120.809 24.4399 118.491 23.179 118.507 23.7376C121.497 28.5083 129.958 32.3605 135.533 30.8927C136.573 30.4972 136.575 29.1868 135.533 28.7913C131.066 27.8462 126.378 27.6698 122.328 25.2622C122.242 25.2197 122.082 25.1325 121.874 25.0193ZM87.2674 26.2691C88.4164 26.0131 89.5888 27.2542 88.8765 28.3411C86.5752 31.8554 80.947 33.2169 77.0108 33.7693C72.4523 34.4089 68.0335 33.9045 63.7032 32.3651C63.4712 32.2824 63.4877 31.8763 63.7656 31.9091C67.8773 32.3937 72.116 32.039 76.1112 30.9617C80.1621 30.1803 83.4331 27.5129 87.2674 26.2691Z" transform="translate(12.69733 5.714042)" id="í ½í¶-Ink" fill="#000000" fill-rule="evenodd" stroke="none" />
  </g>
</svg>
